<svg xmlns="http://www.w3.org/2000/svg" xmlns:xlink="http://www.w3.org/1999/xlink" viewBox="0 0 952.87 867.73"><defs><style>.cls-1{isolation:isolate;}.cls-2{fill:#e0761e;}.cls-3{fill:#f1d1cf;}.cls-4{fill:#7d292b;}.cls-5{fill:#f78363;}.cls-6{fill:#d7e1ef;}.cls-7{fill:#e1281b;}.cls-8{fill:#f6817a;}.cls-9{fill:#020202;}.cls-10{fill:#ff6d00;}.cls-11{fill:#ea9482;}.cls-12{fill:#070707;}.cls-13{fill:#f2bc5f;}.cls-14{fill:#f8a97f;}.cls-15{fill:#f78c2d;}.cls-16{fill:url(#linear-gradient);}.cls-17{fill:url(#linear-gradient-2);}.cls-18{fill:#050505;}.cls-19{fill:#f9aa8c;}.cls-20{fill:#e68937;}.cls-21{fill:#fefefe;}.cls-22{fill:url(#Безымянный_градиент_2);}.cls-23{fill:url(#Безымянный_градиент_3);}.cls-24{fill:url(#linear-gradient-3);}.cls-25{fill:#1c1e4d;}.cls-26{fill:url(#linear-gradient-4);}.cls-27{fill:url(#linear-gradient-5);}.cls-28{fill:#9d3d39;}.cls-29{fill:#ee9f1e;}.cls-30{fill:#eaa063;}.cls-31{fill:url(#linear-gradient-6);}.cls-32{fill:url(#linear-gradient-7);}.cls-33{fill:#bc6249;}.cls-34{fill:url(#linear-gradient-8);}.cls-35{fill:url(#linear-gradient-9);}.cls-36{fill:#d87505;}.cls-37{fill:url(#linear-gradient-10);}.cls-38{fill:url(#linear-gradient-11);}.cls-39{fill:url(#linear-gradient-12);}.cls-40{fill:url(#linear-gradient-13);}.cls-41{fill:url(#linear-gradient-15);}.cls-42{fill:url(#linear-gradient-16);}.cls-43{fill:url(#linear-gradient-17);}.cls-44{fill:url(#linear-gradient-18);}.cls-45{fill:url(#linear-gradient-19);}.cls-46{fill:url(#linear-gradient-20);}.cls-47{fill:url(#linear-gradient-21);}.cls-48{fill:url(#linear-gradient-22);}.cls-49{fill:url(#linear-gradient-23);}.cls-50{fill:#d1d3d4;mix-blend-mode:multiply;}.cls-51{fill:url(#linear-gradient-24);}.cls-52{fill:url(#linear-gradient-25);}.cls-53{fill:url(#linear-gradient-26);}.cls-54{fill:url(#linear-gradient-27);}.cls-55{fill:url(#Безымянный_градиент_7);}.cls-56{fill:url(#linear-gradient-28);}.cls-57{fill:#f7bd89;}.cls-58{fill:#b5662a;}.cls-59{fill:url(#linear-gradient-29);}.cls-60{fill:url(#linear-gradient-30);}.cls-61{fill:url(#linear-gradient-31);}.cls-62{fill:url(#linear-gradient-32);}.cls-63{fill:url(#linear-gradient-33);}.cls-64{fill:url(#linear-gradient-34);}.cls-65{fill:url(#linear-gradient-35);}.cls-66{fill:url(#linear-gradient-36);}.cls-67{fill:url(#linear-gradient-37);}.cls-68{fill:url(#linear-gradient-38);}.cls-69{fill:url(#linear-gradient-39);}.cls-70{fill:#e8475e;}.cls-71{fill:url(#linear-gradient-40);}.cls-72{fill:#db660f;}.cls-73{fill:#f47208;}.cls-74{fill:url(#linear-gradient-41);}.cls-75{fill:url(#linear-gradient-42);}.cls-76{fill:url(#linear-gradient-43);}.cls-77{fill:url(#linear-gradient-44);}.cls-78{fill:url(#linear-gradient-45);}.cls-79{fill:url(#linear-gradient-46);}.cls-80{fill:url(#linear-gradient-47);}.cls-81{fill:url(#linear-gradient-48);}.cls-82{fill:url(#linear-gradient-49);}.cls-83{fill:url(#linear-gradient-50);}.cls-84{fill:url(#linear-gradient-51);}.cls-85{fill:url(#linear-gradient-52);}.cls-86{fill:url(#linear-gradient-53);}.cls-87{fill:url(#linear-gradient-54);}.cls-88{fill:url(#linear-gradient-55);}.cls-89{fill:url(#linear-gradient-56);}.cls-90{fill:url(#linear-gradient-57);}.cls-91{fill:url(#linear-gradient-58);}.cls-92{fill:url(#linear-gradient-59);}.cls-93{fill:#c8c9d3;}.cls-94{fill:url(#linear-gradient-60);}.cls-95{fill:url(#linear-gradient-61);}.cls-96{fill:url(#linear-gradient-62);}.cls-97{fill:url(#linear-gradient-63);}</style><linearGradient id="linear-gradient" x1="249.96" y1="660.04" x2="263.01" y2="660.04" gradientUnits="userSpaceOnUse"><stop offset="0" stop-color="#fa5310"/><stop offset="0.14" stop-color="#da4700"/><stop offset="0.32" stop-color="#c13f00"/><stop offset="0.54" stop-color="#ad3b00"/><stop offset="0.77" stop-color="#712300"/><stop offset="1" stop-color="#521b00"/></linearGradient><linearGradient id="linear-gradient-2" x1="466.93" y1="542.08" x2="485.77" y2="542.08" gradientUnits="userSpaceOnUse"><stop offset="0.04" stop-color="#602213"/><stop offset="0.57" stop-color="#6d310e"/><stop offset="1" stop-color="#7a4108"/></linearGradient><linearGradient id="Безымянный_градиент_2" x1="1205.58" y1="783.92" x2="1157.88" y2="797.14" gradientTransform="matrix(0.5, 0, 0, -0.5, 107, 555.94)" gradientUnits="userSpaceOnUse"><stop offset="0" stop-color="#f4976e"/><stop offset="1" stop-color="#ffba8b"/></linearGradient><linearGradient id="Безымянный_градиент_3" x1="75.18" y1="-395.15" x2="5.52" y2="-465.1" gradientTransform="matrix(0.5, 0, 0, -0.5, 107, 555.94)" gradientUnits="userSpaceOnUse"><stop offset="0" stop-color="#bf5d21"/><stop offset="1" stop-color="#b14b3c"/></linearGradient><linearGradient id="linear-gradient-3" x1="383.97" y1="513.31" x2="425.73" y2="513.31" xlink:href="#linear-gradient"/><linearGradient id="linear-gradient-4" x1="257.4" y1="675.29" x2="306.07" y2="675.29" xlink:href="#linear-gradient"/><linearGradient id="linear-gradient-5" x1="618.78" y1="236.35" x2="684.08" y2="236.35" xlink:href="#linear-gradient"/><linearGradient id="linear-gradient-6" x1="1222.01" y1="649.42" x2="1374.55" y2="728.32" gradientTransform="matrix(0.5, 0, 0, -0.5, 107, 555.94)" xlink:href="#linear-gradient"/><linearGradient id="linear-gradient-7" x1="700.98" y1="196.33" x2="710.54" y2="196.33" xlink:href="#linear-gradient"/><linearGradient id="linear-gradient-8" x1="37.94" y1="926.74" x2="177.73" y2="926.74" xlink:href="#linear-gradient"/><linearGradient id="linear-gradient-9" x1="297.12" y1="522.54" x2="390.03" y2="522.54" xlink:href="#linear-gradient"/><linearGradient id="linear-gradient-10" x1="367.88" y1="501.47" x2="390.03" y2="501.47" xlink:href="#linear-gradient"/><linearGradient id="linear-gradient-11" x1="362.86" y1="486.93" x2="384.1" y2="486.93" xlink:href="#linear-gradient"/><linearGradient id="linear-gradient-12" x1="320.43" y1="528.92" x2="358.6" y2="528.92" xlink:href="#linear-gradient"/><linearGradient id="linear-gradient-13" x1="311.44" y1="597.63" x2="387.96" y2="597.63" xlink:href="#linear-gradient"/><linearGradient id="linear-gradient-15" x1="1077.51" y1="654.63" x2="1209.03" y2="497.05" gradientTransform="matrix(0.5, 0, 0, -0.5, 107, 555.94)" xlink:href="#linear-gradient"/><linearGradient id="linear-gradient-16" x1="640.94" y1="236.53" x2="655.31" y2="236.53" xlink:href="#linear-gradient"/><linearGradient id="linear-gradient-17" x1="676.43" y1="219.81" x2="696.68" y2="219.81" xlink:href="#linear-gradient"/><linearGradient id="linear-gradient-18" x1="700.13" y1="231.07" x2="712.15" y2="231.07" xlink:href="#linear-gradient"/><linearGradient id="linear-gradient-19" x1="144.28" y1="687.79" x2="251.21" y2="687.79" xlink:href="#linear-gradient"/><linearGradient id="linear-gradient-20" x1="161.03" y1="669.73" x2="206.23" y2="669.73" xlink:href="#linear-gradient"/><linearGradient id="linear-gradient-21" x1="144.28" y1="695.56" x2="150.82" y2="695.56" xlink:href="#linear-gradient"/><linearGradient id="linear-gradient-22" x1="185.44" y1="704.96" x2="200" y2="704.96" xlink:href="#linear-gradient"/><linearGradient id="linear-gradient-23" x1="481.7" y1="519.42" x2="552.63" y2="519.42" xlink:href="#linear-gradient-2"/><linearGradient id="linear-gradient-24" x1="461.42" y1="375.72" x2="574.42" y2="375.72" xlink:href="#linear-gradient"/><linearGradient id="linear-gradient-25" x1="461.42" y1="376.86" x2="526.6" y2="376.86" xlink:href="#linear-gradient"/><linearGradient id="linear-gradient-26" x1="498.6" y1="403.46" x2="573.94" y2="403.46" xlink:href="#linear-gradient"/><linearGradient id="linear-gradient-27" x1="89.79" y1="327.85" x2="498.33" y2="370.7" gradientTransform="matrix(0.5, 0, 0, -0.5, 107, 555.94)" xlink:href="#linear-gradient"/><linearGradient id="Безымянный_градиент_7" x1="471.03" y1="-307" x2="400.56" y2="-285.15" gradientTransform="matrix(0.5, 0, 0, -0.5, 107, 555.94)" gradientUnits="userSpaceOnUse"><stop offset="0" stop-color="#e4917f"/><stop offset="1" stop-color="#f0c3ad"/></linearGradient><linearGradient id="linear-gradient-28" x1="393.01" y1="572.84" x2="415.32" y2="572.84" xlink:href="#linear-gradient-2"/><linearGradient id="linear-gradient-29" x1="516.89" y1="577.95" x2="987.81" y2="821.94" gradientTransform="matrix(0.5, 0, 0, -0.5, 107, 555.94)" xlink:href="#linear-gradient"/><linearGradient id="linear-gradient-30" x1="969.01" y1="377.68" x2="989.73" y2="484.82" gradientTransform="matrix(0.5, 0, 0, -0.5, 107, 555.94)" xlink:href="#linear-gradient"/><linearGradient id="linear-gradient-31" x1="573.74" y1="349.62" x2="621.85" y2="349.62" xlink:href="#linear-gradient"/><linearGradient id="linear-gradient-32" x1="857.05" y1="157.43" x2="945.88" y2="125.85" gradientTransform="matrix(0.5, 0, 0, -0.5, 107, 555.94)" xlink:href="#linear-gradient-2"/><linearGradient id="linear-gradient-33" x1="169.42" y1="845.93" x2="293.84" y2="845.93" xlink:href="#linear-gradient-2"/><linearGradient id="linear-gradient-34" x1="185.95" y1="744.62" x2="251.42" y2="744.62" xlink:href="#linear-gradient"/><linearGradient id="linear-gradient-35" x1="215.64" y1="-790.83" x2="294.29" y2="-559.72" gradientTransform="matrix(0.5, 0, 0, -0.5, 107, 555.94)" xlink:href="#linear-gradient"/><linearGradient id="linear-gradient-36" x1="1478.1" y1="-335.26" x2="1539.85" y2="-261.4" gradientTransform="matrix(0.5, 0, 0, -0.5, 107, 555.94)" xlink:href="#linear-gradient"/><linearGradient id="linear-gradient-37" x1="842.25" y1="717.24" x2="854.27" y2="717.24" xlink:href="#linear-gradient"/><linearGradient id="linear-gradient-38" x1="845.7" y1="763.37" x2="871.39" y2="763.37" xlink:href="#linear-gradient"/><linearGradient id="linear-gradient-39" x1="1453.29" y1="-618.57" x2="1566.26" y2="-607.54" gradientTransform="matrix(0.5, 0, 0, -0.5, 107, 555.94)" xlink:href="#linear-gradient"/><linearGradient id="linear-gradient-40" x1="338.47" y1="-7.63" x2="1583.22" y2="-7.63" gradientTransform="matrix(0.5, 0, 0, -0.5, 107, 555.94)" xlink:href="#linear-gradient"/><linearGradient id="linear-gradient-41" x1="1216.63" y1="406.9" x2="1325.88" y2="425.89" gradientTransform="matrix(0.5, 0, 0, -0.5, 107, 555.94)" xlink:href="#linear-gradient-2"/><linearGradient id="linear-gradient-42" x1="690.5" y1="351.52" x2="761.14" y2="351.52" xlink:href="#linear-gradient-2"/><linearGradient id="linear-gradient-43" x1="1051.96" y1="334.08" x2="1151.42" y2="313.69" gradientTransform="matrix(0.5, 0, 0, -0.5, 107, 555.94)" xlink:href="#linear-gradient-2"/><linearGradient id="linear-gradient-44" x1="1262.82" y1="-562.51" x2="1432.93" y2="-609.27" gradientTransform="matrix(0.5, 0, 0, -0.5, 107, 555.94)" xlink:href="#linear-gradient"/><linearGradient id="linear-gradient-45" x1="1310.64" y1="-360.76" x2="1466.8" y2="-298.36" gradientTransform="matrix(0.5, 0, 0, -0.5, 107, 555.94)" xlink:href="#linear-gradient"/><linearGradient id="linear-gradient-46" x1="822.22" y1="683.79" x2="826.87" y2="683.79" xlink:href="#linear-gradient"/><linearGradient id="linear-gradient-47" x1="795.61" y1="753.59" x2="821.74" y2="753.59" xlink:href="#linear-gradient"/><linearGradient id="linear-gradient-48" x1="783.09" y1="701.9" x2="815.95" y2="701.9" xlink:href="#linear-gradient"/><linearGradient id="linear-gradient-49" x1="650.32" y1="891.87" x2="753.77" y2="891.87" xlink:href="#linear-gradient"/><linearGradient id="linear-gradient-50" x1="711.23" y1="891.51" x2="753.77" y2="891.51" xlink:href="#linear-gradient"/><linearGradient id="linear-gradient-51" x1="670.99" y1="656.78" x2="747.67" y2="656.78" xlink:href="#linear-gradient"/><linearGradient id="linear-gradient-52" x1="584.3" y1="699.79" x2="640.6" y2="699.79" xlink:href="#linear-gradient"/><linearGradient id="linear-gradient-53" x1="618.79" y1="706.83" x2="685.42" y2="706.83" xlink:href="#linear-gradient"/><linearGradient id="linear-gradient-54" x1="679.36" y1="701.95" x2="684.69" y2="701.95" xlink:href="#linear-gradient"/><linearGradient id="linear-gradient-55" x1="1072.81" y1="-269.12" x2="1061.43" y2="-243.1" gradientTransform="matrix(0.5, 0, 0, -0.5, 107, 555.94)" xlink:href="#linear-gradient"/><linearGradient id="linear-gradient-56" x1="633.4" y1="708.26" x2="650.88" y2="708.26" xlink:href="#linear-gradient"/><linearGradient id="linear-gradient-57" x1="388.82" y1="904.47" x2="484.05" y2="904.47" xlink:href="#linear-gradient"/><linearGradient id="linear-gradient-58" x1="480.35" y1="846.7" x2="677.88" y2="846.7" xlink:href="#linear-gradient"/><linearGradient id="linear-gradient-59" x1="616.61" y1="746.66" x2="630.15" y2="746.66" xlink:href="#linear-gradient-2"/><linearGradient id="linear-gradient-60" x1="600.36" y1="912.67" x2="636.35" y2="912.67" xlink:href="#linear-gradient"/><linearGradient id="linear-gradient-61" x1="480.35" y1="904.6" x2="516.11" y2="904.6" xlink:href="#linear-gradient"/><linearGradient id="linear-gradient-62" x1="967.49" y1="-541.56" x2="1081.38" y2="-574.06" gradientTransform="matrix(0.5, 0, 0, -0.5, 107, 555.94)" xlink:href="#linear-gradient-2"/><linearGradient id="linear-gradient-63" x1="1194.88" y1="-458" x2="997.71" y2="-661.67" gradientTransform="matrix(0.5, 0, 0, -0.5, 107, 555.94)" xlink:href="#linear-gradient-2"/></defs><g class="cls-1"><g id="Слой_1" data-name="Слой 1"><path class="cls-2" d="M139.08,722.58l.94-3.14c1.49-1.26,2.92-1.14,4.8-1.38l-.54,3.91Z" transform="translate(-37.94 -105.69)"/><path class="cls-3" d="M255.4,606.54c1.22,1.28,2.32,2.38,2.28,4.3,0,2.16-1.15,4.88-1.9,6.91l-.39-.56C254,615,254.9,609.06,255.4,606.54Z" transform="translate(-37.94 -105.69)"/><path class="cls-4" d="M530.8,298.33a29.93,29.93,0,0,1,6.59,2.41,10.45,10.45,0,0,0,.57,2.73,4.26,4.26,0,0,1,.35,2.06l-7.63-5.92Z" transform="translate(-37.94 -105.69)"/><path class="cls-5" d="M460.86,432.38l1.84-1.44.25-2.17.9-.26c1.85,1.68,1.77,4,2.75,6.2a8.78,8.78,0,0,0-.73,4.39c0,.81.16.43-.37,1.09a5.83,5.83,0,0,0-.13-2.79c-.52-1.07-.06.32-.52-1.27l-.19-.69-.81-.24-.56,1,.67,1-.36.62-1.77-1.37C460.87,435.33,460.93,433.76,460.86,432.38Z" transform="translate(-37.94 -105.69)"/><path class="cls-6" d="M850.32,584.45c1.6,2,2.06,4.1,3.09,6.36,1.26,2.76,2.87,5.37,4.05,8.17l-7.39-1.9Z" transform="translate(-37.94 -105.69)"/><path class="cls-7" d="M431.57,522.54l2.77-.48a15.58,15.58,0,0,1,5.53.11l3.84,3.73a6.53,6.53,0,0,1-3.26,1.74c-.61.16-1.17.37-1.76.58a3.61,3.61,0,0,1-2.59.1l-.06-.8a5,5,0,0,0-1-1.17A25.92,25.92,0,0,1,431.57,522.54Z" transform="translate(-37.94 -105.69)"/><path class="cls-8" d="M298.17,645.22l1.49.6.17.6c.55,2,1.07,3.81,3,4.8l2.32,1,1.55.19-1.63,6.81a42.17,42.17,0,0,1-8.49-9.1C296.37,648.13,297.3,647,298.17,645.22Z" transform="translate(-37.94 -105.69)"/><path class="cls-9" d="M308.34,755.21l.88,1.83a10.72,10.72,0,0,0-1.29,6.38l.06.09a131.62,131.62,0,0,1-2.39,16.93l-1.25.32-.85-.57L305,759.94C305.28,757.63,306.59,756.61,308.34,755.21Z" transform="translate(-37.94 -105.69)"/><path class="cls-2" d="M157.54,726.22l2.11,1.63c1.68,1.55,3.63,3.23,3.79,5.68a10.71,10.71,0,0,1-.67,3.75l-.76,0c-3.29-.1-6-.49-8.67-2.54.68-1.65.9-4.54,1.76-5.92A20.15,20.15,0,0,1,157.54,726.22Z" transform="translate(-37.94 -105.69)"/><path class="cls-5" d="M431.57,522.54l-.86-2.1c.75-2.13-.19-5.22-.37-7.5a3.2,3.2,0,0,1,2.51-1.77,4.19,4.19,0,0,1,3.84,1.18,17.8,17.8,0,0,1,2.88,3.71c.51,1.2.23,4.62.3,6.11a15.58,15.58,0,0,0-5.53-.11Z" transform="translate(-37.94 -105.69)"/><path class="cls-10" d="M556.86,317.22l2.43,2c-.45,3.62-3.5,7.85-6.35,10.06a4.34,4.34,0,0,1-2.67.92c-3.5.3-13.93-4.82-16.82-7l-.18-1.87c6.33,1.62,12.77,3.43,18.13,7.3C552.88,324.7,556.53,321.6,556.86,317.22Z" transform="translate(-37.94 -105.69)"/><path class="cls-11" d="M461.42,420.46a36.81,36.81,0,0,0,8.43,1.21c1.39,2.42,1.19,6.68.47,9.35l-.22.76-.46-.3a5.16,5.16,0,0,0-1.24-.64c-1.16,2,.67,4.52-.55,6.23l-.52-.38-.32-2-.41.06c-1-2.16-.9-4.52-2.75-6.2l-.9.26-.25,2.17-1.84,1.44C460.19,428.26,460.79,424.54,461.42,420.46Z" transform="translate(-37.94 -105.69)"/><path class="cls-12" d="M552.06,265.9l1.54-3.69.76-.1a11,11,0,0,1,2.29,8.26c-.43,4.06-2.13,6.12-5.19,8.63l-13.16,5.65.72-.84-.38-.87a15.33,15.33,0,0,1,2.08-2l4.63-2.36a12.81,12.81,0,0,0,4.61-3.23C552.2,272.8,552.21,269.13,552.06,265.9Z" transform="translate(-37.94 -105.69)"/><path class="cls-13" d="M220.32,625.22c3,1,3.48,4.11,5.57,6.22,1.86,1.87,4.89,3.51,7.08,5,.66,3,1.62,6.72,1.16,9.77l-15.62-13,.53-2a29,29,0,0,0,.88-6Z" transform="translate(-37.94 -105.69)"/><path class="cls-11" d="M812.37,226.76c3.43-2.58,8.79-2.84,13-2.4l1.64,1.08-.07.75c-2.31,1.66-5.21,2.41-7.74,3.71,2.19,1,4.26,1.79,6,3.54l.19,1.5c-3.16,2.18-7.72,1.33-11.45,1.1l-1.7-1.9,1-3.2A4.44,4.44,0,0,0,812.37,226.76Z" transform="translate(-37.94 -105.69)"/><path class="cls-14" d="M153.34,734.69c2.7,2,5.38,2.44,8.67,2.54l.76,0,10.56,5.5c3.61,1.85,7.07,3.2,9.43,6.67l-.4,1.24-11.76-4-10.49-5.05c-2.25-1.1-4.89-2.1-6.79-3.75a5.34,5.34,0,0,1-1.41-2.35Z" transform="translate(-37.94 -105.69)"/><path class="cls-15" d="M695.42,193.72a5.71,5.71,0,0,1,3.54,1.37l.39.83-.39.85a7.24,7.24,0,0,0-.25,2.17c.36,3.91,2.43,8,3.08,12,.56,3.45.39,9.51,1.93,12.36,0,3.84-.61,7.57-1,11.39a50.79,50.79,0,0,1-1.15,9.12l-.86-1.54c.92-10.34-.58-21.44-2.75-31.55-.76-3.53-1.32-7.16-3.23-10.28a5.34,5.34,0,0,1-1.82-1.25Z" transform="translate(-37.94 -105.69)"/><path class="cls-12" d="M528.38,284l.36.32c4.14-.83,7.64-2.65,12-3.29a15.33,15.33,0,0,0-2.08,2,17,17,0,0,0-7.8,11.25,8.18,8.18,0,0,0,0,4.14l-.12,1.28a5.79,5.79,0,0,0-1.68-.67c-2-.59-4-1.1-5.56-2.55a9.84,9.84,0,0,1-2.8-6.67,8,8,0,0,1,2.88-6.28A7.48,7.48,0,0,1,528.38,284Z" transform="translate(-37.94 -105.69)"/><path class="cls-16" d="M251.21,643.79c1.88,1.75,4.86,3.87,6.27,5.93-.63,7.62,2.76,15.61,5,22.71a17.85,17.85,0,0,1,.52,3.86c-4.79-4.58-8.49-11-12-16.57l-.73-.78C249.4,654.17,250.57,648.59,251.21,643.79Z" transform="translate(-37.94 -105.69)"/><path class="cls-11" d="M618.08,296.84c2.33.62,4.67.33,7,1l-.48,1.49.33.41c1.13,1.84,1.44,5.63,1.31,7.75h-.8l-.85-.89c-1.19,1.34-.61,8.23-.62,10.38-1.42,1.59-2.3,3.05-4.38,3.71a17.79,17.79,0,0,1-3.56-1,22.5,22.5,0,0,0,1.18-8.34c-.15-3.61-2-8.63-.2-12,.73-1.35.37-.37.82-1.73Z" transform="translate(-37.94 -105.69)"/><path class="cls-17" d="M469.25,517.84c3.69,3.64,5.41,11.75,7.18,16.72l8.67,24.24c1,3,.82,4.63-.36,7.52-2.46-2.73-3.55-7.35-4.8-10.78-2.35-6.45-4.64-13.35-7.69-19.48l-5.32-15.48C467.2,519.24,468.25,518.72,469.25,517.84Z" transform="translate(-37.94 -105.69)"/><path class="cls-18" d="M391.16,452.51a15.11,15.11,0,0,1,1.91-.9l.05.59c.59,6,4.54,13.36,2.61,19.2a18,18,0,0,1-3.28,4.87,61.93,61.93,0,0,1-7.23,7.78,17.5,17.5,0,0,1-3.27-2.48,17.69,17.69,0,0,1-2.16-8.71c2.32-.11,4.27-.33,6.2-1.75,2.74-2,4.29-5.73,4.89-8.94l.16-.92A33.2,33.2,0,0,0,391.16,452.51Z" transform="translate(-37.94 -105.69)"/><path class="cls-12" d="M552.06,265.9c.15,3.23.14,6.9-2.1,9.49a12.81,12.81,0,0,1-4.61,3.23L540.72,281c-4.34.64-7.84,2.46-12,3.29l-.36-.32.37-.61c-.3-3.39-.29-6.49,1.92-9.27,4.18-5.27,10.66-3.59,16.38-4.52C549.69,269.12,550.51,268,552.06,265.9Z" transform="translate(-37.94 -105.69)"/><path class="cls-19" d="M290.81,578.21c1.18-4.58,5.82-7.22,6.31-12.27,1.38,2.3,3.77,2.78,6.25,3.4l4,.93c-.12,4-.41,8.76-2.07,12.42l-.76.34-1.17-1.48a7.66,7.66,0,0,0-2.19,3l-3,3.69c-2.89-1.43-5.83-2.76-7.28-5.85A4.85,4.85,0,0,1,290.81,578.21Z" transform="translate(-37.94 -105.69)"/><path class="cls-20" d="M228.15,613.71l.95.94-.18.46a9.47,9.47,0,0,0-.56,4.83c2.17,3.75,6.39,5.11,9.95,7.26,1.18.71,2.47,1.3,3.16,2.54l-1.24,5.5-2.1,5.76c-.9,2.14-1.69,4.61-3.08,6.48l-.92-1.22c.46-3-.5-6.77-1.16-9.77-2.19-1.54-5.22-3.18-7.08-5-2.09-2.11-2.58-5.26-5.57-6.22a34.25,34.25,0,0,0,1.93-8.49l.86-.92,1.49.4C226.1,615.84,227.05,614.73,228.15,613.71Z" transform="translate(-37.94 -105.69)"/><path class="cls-5" d="M679.32,173.69l.34.22c1.55-3.3,2-7.37,2.57-10.95a31.66,31.66,0,0,0,3.35,6.65c2,1,4,2.07,6.24,1.63l1.16,1.54c2.13,1.91,4,3.7,5,6.45-1.18,2-.69,3-.16,5.17l.31,1.16.38.55c-1,1.56-2.27,4.5-3.68,5.58-2.11-3.29-7.6-4.8-11-6.53l-7.9-4.44a22.37,22.37,0,0,0,3.22-6.35Z" transform="translate(-37.94 -105.69)"/><path class="cls-18" d="M218.21,582.3l.47.69c1.76,2.77,1.61,6,3.75,8.87,2.45,3.24,6.22,5.28,8.49,8.58l1.49,2.17c-.32,1.57-1.43,9.43-2.54,10.12-.69.43-.43.29-1.36.4l-.54-.38a8.35,8.35,0,0,1-2.64-2.37c-1.68-3-.87-6.94-5.23-7.65-1.42.45-2.21.42-2.85,2-1,2.48.33,6.16,1.05,8.58l3.95,3.46a34.25,34.25,0,0,1-1.93,8.49l-.4.13-3.48-12.13-.06,0a46,46,0,0,1-2.56-10.4C213.07,595.55,213.43,588.19,218.21,582.3Z" transform="translate(-37.94 -105.69)"/><path class="cls-19" d="M319.72,626.21l.34,2,1.46,6.42a54.88,54.88,0,0,0,1.49,7.32l-.35.64.39.14a25.81,25.81,0,0,1-5.71,7.4l-.44.44c-1.89,1.71-6.36,1.58-8.85,1.6l-1.33.23-1.55-.19-2.32-1c-2-1-2.47-2.84-3-4.8l-.17-.6-1.49-.6c1.8-3.4,3.93-7.28,6.81-9.88,1.29-1.16,2.64-1.1,4.28-1S317.83,627.61,319.72,626.21Z" transform="translate(-37.94 -105.69)"/><path class="cls-21" d="M321.52,634.62l-5.58-.47a38.91,38.91,0,0,1,4.12-5.95Z" transform="translate(-37.94 -105.69)"/><path class="cls-11" d="M305.17,652.2a7.52,7.52,0,0,1,1.69-4.36c2-2.87,2.4-5.48,2.39-8.9l.85-1.25c1.76,0,2.34-.05,3.91.85a3.33,3.33,0,0,1,.24,2.9l-6.2,10.72-1.33.23Z" transform="translate(-37.94 -105.69)"/><path class="cls-22" d="M705.26,144.21a23.4,23.4,0,0,0,1.11,3.84c.58,1.42.42,2.71.73,4.17.65,3.1,1.92,5.69,2.08,9,.12,2.37-.66,4.07.06,6.43.6,2-.34,3.75-1.28,5.44-1.94,3.52-6.41,4.64-10,6.11-1-2.75-2.87-4.54-5-6.45l-1.16-1.54c.2-2.21-.65-4.65-1.12-6.81L687.09,148c5.95-1.14,12.31-.46,17.74-3.57Z" transform="translate(-37.94 -105.69)"/><path class="cls-23" d="M86.61,751l.13.77c.25,1.42.07,2.85.31,4.26.43,2.53,3.15,4.86,5.09,6.28,8.15,5.95,17.91,10.42,26.69,15.49,8.56,4.95,17,11.21,26.27,14.86a16.85,16.85,0,0,0,8.63,1.33c2-1.46,3-3.75,4.24-5.84,2.71-4.72,4.88-10,9-13.72l1.8.81-14.22,29c-8.32-3.72-15.71-8.5-23.51-13.16l-24-13.88c-8.59-5.07-18.32-9.61-26.23-15.65Z" transform="translate(-37.94 -105.69)"/><path class="cls-24" d="M389.72,506.57l.31-1.14a2.9,2.9,0,0,1-.45-1.83,5.09,5.09,0,0,0-.12-1.71l-.15-.7-.45-1.72-.27-.78a44.07,44.07,0,0,0-3-6.5,14.57,14.57,0,0,1-1.59-6l1.23-.74a11.68,11.68,0,0,0,3.22,1c5.27,3.52,7.25,14,9.18,19.74a45.87,45.87,0,0,0,4,8.6,12.88,12.88,0,0,0,1.1,1.86c1.76.82,18.2-.24,21.51-.41a22.46,22.46,0,0,0,1.48,8L416,529c-1.63.83-3.87,2.21-5.64,2.58a54.25,54.25,0,0,0,2,6.44c-2.17,1.61-5.21,2.28-7.75,3.14a12.86,12.86,0,0,1-1.56-5.36l-.42-1.25-6.06-4.12C388.23,523.66,390.66,515.71,389.72,506.57Z" transform="translate(-37.94 -105.69)"/><path class="cls-7" d="M403,535.77a5.31,5.31,0,0,1,.68-2.17c1.51-2,4.43-2,6.67-2.05a54.25,54.25,0,0,0,2,6.44c-2.17,1.61-5.21,2.28-7.75,3.14A12.86,12.86,0,0,1,403,535.77Z" transform="translate(-37.94 -105.69)"/><path class="cls-18" d="M218.21,582.3a26,26,0,0,1,9.19-4.87c5-1.39,10.34-1.91,15.45-2.81,3.22-.57,7-1.17,9.4-3.54,1.13-1.1,1.65-2.73,2.3-4.13.45-1,.21-.63,1-1.26,2.93,4.42,1.62,9.77.66,14.62,1.86-1,3.94-2.62,6.05-2.52.77,1.23.58,2.05.29,3.49-1.26,6.18-4.15,8.64-9,12.1l-.73.26c-5.55,2-10.8,2.18-16.18-.47l-1.33-.73a53.67,53.67,0,0,0-3,10.17l-1.49-2.17c-2.27-3.3-6-5.34-8.49-8.58-2.14-2.82-2-6.1-3.75-8.87Z" transform="translate(-37.94 -105.69)"/><path class="cls-14" d="M232.41,602.61a53.67,53.67,0,0,1,3-10.17l1.33.73c5.38,2.65,10.63,2.44,16.18.47l.73-.26a64.94,64.94,0,0,1,.58,6.94,26,26,0,0,0,.44,5.35l.75.87c-.5,2.52-1.41,8.47,0,10.65l.39.56-.49,5.13c-.4,1.86-.68,3.37-2.37,4.45-3.79,2.43-7.48,1.37-11.45,2.41-.69-1.24-2-1.83-3.16-2.54-3.56-2.15-7.78-3.51-9.95-7.26a9.47,9.47,0,0,1,.56-4.83l.18-.46-.95-.94c-1.1,1-2.05,2.13-3.55,2.5l-1.49-.4-.86.92-3.95-3.46c-.72-2.42-2.07-6.1-1.05-8.58.64-1.54,1.43-1.51,2.85-2,4.36.71,3.55,4.63,5.23,7.65a8.35,8.35,0,0,0,2.64,2.37l.54.38c.93-.11.67,0,1.36-.4C231,612,232.09,604.18,232.41,602.61Z" transform="translate(-37.94 -105.69)"/><path class="cls-11" d="M252.06,610.7l.22,6.06-7.35-.46c1.47-.24,2.86.13,4.36-.11a12.12,12.12,0,0,1,.07-2.41C249.54,612.18,250.84,611.68,252.06,610.7Z" transform="translate(-37.94 -105.69)"/><path class="cls-25" d="M245.72,598.44l1.35-.15.65.65c-1.73,2.54-4.83,3-7.62,3.77-1.3.06-.67.15-1.89-.27l-.4-1.25C239.41,599.18,243.23,598.94,245.72,598.44Z" transform="translate(-37.94 -105.69)"/><path class="cls-21" d="M244.93,616.3l7.35.46.5,1.18-1.84,1.42-2.84.74c-1.53.24-4.74.77-5.93-.16,0-1.42-.08-2,.68-3.26Z" transform="translate(-37.94 -105.69)"/><path class="cls-19" d="M254.65,605.67l.75.87c-.5,2.52-1.41,8.47,0,10.65l.39.56-.49,5.13-4.35-3.52,1.84-1.42-.5-1.18-.22-6.06c.8-.78.23-1.09.53-2A15.26,15.26,0,0,1,254.65,605.67Z" transform="translate(-37.94 -105.69)"/><path class="cls-19" d="M538.3,284.65,551.46,279c3.6,5.17,5.54,8.86,11.36,11.86-1.25.87-4.29,2.41-4.55,3.83l.33.79a3.1,3.1,0,0,0-2,1.72c2.39.71,2.77-.53,5,1.27a8.3,8.3,0,0,1,.67,5c-1.79,3.38-9.6,3.63-8.42,7.71a17.62,17.62,0,0,1,3,6.07c-1.87.69-3,2.7-4.16,4.24a7.79,7.79,0,0,1-2.9,3.09c-5.51-2.56-11.83-4.69-17-7.77a38.11,38.11,0,0,0,5.51-11.25,4.26,4.26,0,0,0-.35-2.06,10.45,10.45,0,0,1-.57-2.73,29.93,29.93,0,0,0-6.59-2.41,8.18,8.18,0,0,1,0-4.14,17,17,0,0,1,7.8-11.25l.38.87Z" transform="translate(-37.94 -105.69)"/><path class="cls-11" d="M548.09,282.94l1.14.28a5.79,5.79,0,0,1,.87,3.7l-1.5.52c-1.3,0-1.11-.15-2-1v-2Z" transform="translate(-37.94 -105.69)"/><path class="cls-12" d="M538.64,282.94l.38.87-.72.84a6.06,6.06,0,0,0-1.94,3.48,7.85,7.85,0,0,0,2.11,5.92c1.09,1.1,2.37,1.84,2.85,3.39-.11.77,0,1.49-.62,2a10.49,10.49,0,0,1-3.31,1.32,29.93,29.93,0,0,0-6.59-2.41,8.18,8.18,0,0,1,0-4.14A17,17,0,0,1,538.64,282.94Z" transform="translate(-37.94 -105.69)"/><path class="cls-5" d="M552.7,321.46a9.56,9.56,0,0,1-3.26-.79c-2-1.11-2.85-3-3.45-5.13l-3.54-9.92c3.3,1.82,6.93,4.18,10.54,5.29l.86.24a17.62,17.62,0,0,1,3,6.07C555,317.91,553.87,319.92,552.7,321.46Z" transform="translate(-37.94 -105.69)"/><path d="M679.32,173.69c-3.48-6.22-8-11.8-11.36-18.12-1.24-2.3-2.74-4.78-2.12-7.51.47-2,2.47-4.06,4.12-5.23,7.48-5.28,16.45-9,24.32-13.7,3.17-1.89,6.14-4.42,9.16-6.56,2.2,2.61,4.21,5.59,4.49,9.1a21.45,21.45,0,0,1-2.67,12.54l-.43.26c-5.43,3.11-11.79,2.43-17.74,3.57l3.61,16.39c.47,2.16,1.32,4.6,1.12,6.81-2.27.44-4.24-.58-6.24-1.63a31.66,31.66,0,0,1-3.35-6.65c-.61,3.58-1,7.65-2.57,10.95Z" transform="translate(-37.94 -105.69)"/><path class="cls-11" d="M677.23,153.94a6.33,6.33,0,0,1,4.23.09,4.2,4.2,0,0,1,1.85,2.53c.49,1.86.77,3.65-.21,5.29a4,4,0,0,1-1.2-.42c-2.09-1.09-4.5-2.93-5.15-5.3C676.4,154.87,676.63,155,677.23,153.94Z" transform="translate(-37.94 -105.69)"/><path class="cls-26" d="M257.48,649.72l22,19.56,14.56-18.66.29.43a38,38,0,0,0,6.49,6.92c.91.76,4.65,2.73,5.13,3.51a1.49,1.49,0,0,1,.1.84c0,2.55-1.84,6.44-2.69,8.85L292,700.87c-9.85-6.79-21.49-15.15-29-24.58a17.85,17.85,0,0,0-.52-3.86C260.24,665.33,256.85,657.34,257.48,649.72Z" transform="translate(-37.94 -105.69)"/><path class="cls-27" d="M618.78,288.32c.22-7,1.87-14.33,3.51-21.13,5-20.89,13.11-43.13,24-61.75,5.93-10.08,13.84-18,25.52-21.07l0,.57c.14,3.71,2.58,6.49,4.53,9.51,2.6,4,5.84,9,7.67,13.35l-1.46-.2a23.91,23.91,0,0,1-1.68-3.16c-1.59-.34-2.15.41-3.51,1.23l-1.09-1.3c-1.83.73-3.44,2.41-5,3.62a121.73,121.73,0,0,0-26.75,28v.17a117.67,117.67,0,0,0-12.76,21.17c-4,8.78-6.77,18.1-10.84,26.83C620.26,285.7,619.92,287.05,618.78,288.32Z" transform="translate(-37.94 -105.69)"/><path class="cls-28" d="M94.29,735.61l31.37,20.22.69-1.39c4.09-.76,13.29,6.2,17.12,8.4,4.54,3.06,9.7,5.17,14.63,7.55,2.79,1.35,5.87,3.26,8.85,4.06-4.1,3.67-6.27,9-9,13.72-1.2,2.09-2.26,4.38-4.24,5.84a16.85,16.85,0,0,1-8.63-1.33c-9.23-3.65-17.71-9.91-26.27-14.86-8.78-5.07-18.54-9.54-26.69-15.49-1.94-1.42-4.66-3.75-5.09-6.28-.24-1.41-.06-2.84-.31-4.26l-.13-.77c.11-1.08,1.31-2.85,1.81-3.86l5.07-10.07Z" transform="translate(-37.94 -105.69)"/><path class="cls-13" d="M124.33,759.47c2,.41,2.87,1.49,4.52,2.48l8,4.5a13.87,13.87,0,0,1,3.35,2.15l-2.4,5.33c-4.52-2.28-11.52-4.9-15.08-8.49A14.48,14.48,0,0,1,124.33,759.47Z" transform="translate(-37.94 -105.69)"/><path class="cls-29" d="M125.66,755.83l.69-1.39c4.09-.76,13.29,6.2,17.12,8.4a39.25,39.25,0,0,1-3.27,5.76,13.87,13.87,0,0,0-3.35-2.15l-8-4.5c-1.65-1-2.53-2.07-4.52-2.48l-.08-.33Z" transform="translate(-37.94 -105.69)"/><path class="cls-4" d="M94.29,735.61l31.37,20.22-1.41,3.31c-5,.35-25.1-14.29-30-17.8a19.77,19.77,0,0,1-.71-4.25Z" transform="translate(-37.94 -105.69)"/><path class="cls-30" d="M865.18,618.2c5.78,13.76,13.18,26,21.13,38.55,1,1.63,2.91,5.75,4.46,6.52,1.36-.56,1.65-.79,3.07-.53,4.93,3.69,8,14.48,10.24,20.3.52,1.37,1.59,2.77,1.83,4.21.27,1.63-.58,3-1.35,4.35-2.77,3-6.77,6.11-9,9.47-2.54-1.54-4.78-3.91-7-5.91,1.49-.82,2-2.39,3-3.72l.57-.73c-4.41-1.53-8.29-4-12.34-6.27l-15.52-8.51c-3.66-2-8.81-5.54-13-5.63-1.84-1.84-4.12-3.81-6.76-4.26l-.22-.38a17.59,17.59,0,0,1-2.91-2l3.76-12.12.43.18c2,.64,6.18.83,8-.29,4.76-2.94,5.2-9.66,6.43-14.58a36.86,36.86,0,0,0,.82-9.66c0-.78-.28-3.31,0-3.92a15.76,15.76,0,0,1,1.71-1.59A14,14,0,0,0,865.18,618.2Z" transform="translate(-37.94 -105.69)"/><path class="cls-19" d="M890.77,663.27c1.36-.56,1.65-.79,3.07-.53,4.93,3.69,8,14.48,10.24,20.3.52,1.37,1.59,2.77,1.83,4.21.27,1.63-.58,3-1.35,4.35-2.77,3-6.77,6.11-9,9.47-2.54-1.54-4.78-3.91-7-5.91,1.49-.82,2-2.39,3-3.72l.57-.73c1.31-3.68.86-5.1-.09-8.77-.34-1.34-1-2.54-.25-3.76a12.7,12.7,0,0,0,1.75,1.17l.5-1.91.25-1.24.49-1.26a5.82,5.82,0,0,1,1-2.73l.61-.77c-.66-2.44-1.09-5.07-2.81-7h-2c-1,2,.39,3.76-.76,5.75h-.37l-.51-3C889.67,665.14,889.48,665,890.77,663.27Z" transform="translate(-37.94 -105.69)"/><path class="cls-31" d="M701,187.32l1.47,1,9.27,5a14.32,14.32,0,0,1,2.65,1.55l15.72,9.83a134.46,134.46,0,0,0,36.26,15.06,248.63,248.63,0,0,0,31.25,5.4l10.11.9c1.51.14,3.28.08,4.66.77a4.44,4.44,0,0,1,.81,4.18l-1,3.2a6.87,6.87,0,0,1-1.9,2.11c-1.83,1-7.12.71-9.42.89a242,242,0,0,1-43.65.06c-7.65-.76-15.94-2-23.16-4.76-6.93-1.59-13.86-5.31-20.11-8.62l-1.76-11.29-1.61-7.2-1.43-.3c-1.73-1.32-2.26-2.6-3.08-4.59a10.34,10.34,0,0,0-3.84-5A34.37,34.37,0,0,1,701,187.32Z" transform="translate(-37.94 -105.69)"/><path class="cls-32" d="M701,187.32l1.47,1c.41,2.79,2.7,5.47,4.15,7.87a34.12,34.12,0,0,1,3.94,9.19l-1.43-.3c-1.73-1.32-2.26-2.6-3.08-4.59a10.34,10.34,0,0,0-3.84-5A34.37,34.37,0,0,1,701,187.32Z" transform="translate(-37.94 -105.69)"/><path class="cls-18" d="M342.42,489.47c-2.06-3.38-3.3-7.8-2.45-11.78.8-3.73,3.73-5.91,6.79-7.82.9-.57.83-.75,1.12-1.74,2.51-8.43,3-17.51,5.14-26.05a32.78,32.78,0,0,1,4-10c2.52-3.75,7.55-6.41,11.93-7.22,4.64-.86,11.45,0,15.17,3,5.56,4.45,8.27,17,9,23.78a15.11,15.11,0,0,0-1.91.9,33.2,33.2,0,0,1-.12,8.74l-.16.92c-.6,3.21-2.15,6.92-4.89,8.94-1.93,1.42-3.88,1.64-6.2,1.75a17.69,17.69,0,0,0,2.16,8.71l-1.5,1.61-.48-1c-6,.14-7-5.26-11.58-7.27a11.32,11.32,0,0,0-2.5-.13l-1.37,2.56c-2-.72-3.66-1.54-5.67-.58C352.5,479.8,348.24,485.7,342.42,489.47Z" transform="translate(-37.94 -105.69)"/><path class="cls-19" d="M379.89,444a81.46,81.46,0,0,0,4.88-7.93,29.56,29.56,0,0,1,3.5,6.16c-1.64,1.59-5.4,1.79-7.67,1.79Z" transform="translate(-37.94 -105.69)"/><path class="cls-14" d="M388.27,442.27c.5,1.39,1.06,2.39.83,3.89l-1.53.28-.21.75.53.33c1.27.84,1.47,1.85,2.3,3a6.51,6.51,0,0,1,1,2,33.2,33.2,0,0,1-.12,8.74l-.16.92c-.6,3.21-2.15,6.92-4.89,8.94-1.93,1.42-3.88,1.64-6.2,1.75a17.69,17.69,0,0,0,2.16,8.71l-1.5,1.61-.48-1c-6,.14-7-5.26-11.58-7.27a11.32,11.32,0,0,0-2.5-.13,23.18,23.18,0,0,0-1.17-10.13l-.93-3.35-2.69-.25a5.61,5.61,0,0,1-2.45-3.14,3.81,3.81,0,0,1,.4-3.5l.79-.17c3.11-.51,4.08,1.58,6.41,3.1l.57.37a9.51,9.51,0,0,1,.4-1.57c2.17-6.69,6.89-9.1,12.67-12.13l.71,0C382.87,444.06,386.63,443.86,388.27,442.27Z" transform="translate(-37.94 -105.69)"/><path class="cls-11" d="M364.72,464.68a14.83,14.83,0,0,1,2.88.36c2.29.93,4.4,4.54,7,6l.56.32a31.42,31.42,0,0,0,4.63,1.54,17.69,17.69,0,0,0,2.16,8.71l-1.5,1.61-.48-1c-6,.14-7-5.26-11.58-7.27a11.32,11.32,0,0,0-2.5-.13A23.18,23.18,0,0,0,364.72,464.68Z" transform="translate(-37.94 -105.69)"/><path class="cls-13" d="M857.46,599l.44.06c1.62.22,6.38.63,7.86,0a19,19,0,0,0,3.18-2.25l1.91-1.69.63.58a18.06,18.06,0,0,1-3.58,10.43c-1.33,1.81-3.13,3.56-4.16,5.54a20.68,20.68,0,0,0,1.44,6.54,14,14,0,0,1-2.62,3.46,15.76,15.76,0,0,0-1.71,1.59c-.26.61,0,3.14,0,3.92a36.86,36.86,0,0,1-.82,9.66c-1.23,4.92-1.67,11.64-6.43,14.58-1.82,1.12-6,.93-8,.29l-.43-.18-3.76,12.12c-.92,1.08-1.3,1.81-2.83,2.05l-2.57-.12-.38.32a6.47,6.47,0,0,1-2.14-1.26l.58-.18c-4-4.4-8.36-9.5-11.05-14.79l.2-.48c1.42-3.65,3.28-10,1.69-13.57a5.36,5.36,0,0,1-2.83-2.15c-.53-1.71-.18-3.39,0-5.14-.17-6.33-2.14-14.59-.65-20.66,1-4.08,3.38-8.17,7.13-10.26,6.53-3.65,14.65-2.11,21.48-.32Z" transform="translate(-37.94 -105.69)"/><path class="cls-21" d="M843.07,637.44l1.23-.17c.85,1,3.59,4.84,4.58,5.25,1.89.77,3.48-.68,5.4.92l-.68,1.48c-2.08.65-4.74.35-6.92.36-1.14-1.47-3.9-4.15-4.32-5.87C842.19,638.72,842.77,638.05,843.07,637.44Z" transform="translate(-37.94 -105.69)"/><path class="cls-14" d="M826.53,632.4a40,40,0,0,0,.74,5c1.15,3.58,5,7.47,8,9.6l1,.66.6.39a27.48,27.48,0,0,0,6.72,2.86,5.34,5.34,0,0,1,1.52.65l-3.76,12.12c-.92,1.08-1.3,1.81-2.83,2.05l-2.57-.12-.38.32a6.47,6.47,0,0,1-2.14-1.26l.58-.18c-4-4.4-8.36-9.5-11.05-14.79l.2-.48c1.42-3.65,3.28-10,1.69-13.57C824.94,634.08,825.63,633.6,826.53,632.4Z" transform="translate(-37.94 -105.69)"/><path class="cls-9" d="M857.46,599l.44.06c1.62.22,6.38.63,7.86,0a19,19,0,0,0,3.18-2.25l1.91-1.69.63.58a18.06,18.06,0,0,1-3.58,10.43c-1.33,1.81-3.13,3.56-4.16,5.54l-.89.38-.56-.14a7.42,7.42,0,0,0-2.57.19,14.64,14.64,0,0,1-5.4-.2,75.32,75.32,0,0,1-7.72-1.69c-3.33-.94-8.91-3.24-12.13-1.88-1.62,2.11-2,5.29-2.56,7.85-1.12,4.86-2.23,10.53-4.19,15.1a13.43,13.43,0,0,0-5.61-2.95c-.17-6.33-2.14-14.59-.65-20.66,1-4.08,3.38-8.17,7.13-10.26,6.53-3.65,14.65-2.11,21.48-.32Z" transform="translate(-37.94 -105.69)"/><path class="cls-33" d="M106.35,709.35c1.57-1.21,2.22-1.48,4.25-1.1,2.52.47,5.5,2.68,7.73,4,6.06,3.58,12.45,8,19,10.54l1.76-.2,5.2-.61,5.68,1.39,7.58,2.86a20.15,20.15,0,0,0-2.44,2.55c-.86,1.38-1.08,4.27-1.76,5.92l-1.43.85a5.34,5.34,0,0,0,1.41,2.35c1.9,1.65,4.54,2.65,6.79,3.75l10.49,5.05,11.76,4c-1.17,4.61-4.08,9.21-6.26,13.45-1.38,2.67-2.6,5.73-4.35,8.17a17.13,17.13,0,0,1-2.52,2.31l-.48.64-1.8-.81c-3-.8-6.06-2.71-8.85-4.06-4.93-2.38-10.09-4.49-14.63-7.55-3.83-2.2-13-9.16-17.12-8.4l-.69,1.39L94.29,735.61a6.71,6.71,0,0,1-.05-3.53c.9-2.81,2.86-5.76,4.28-8.38Z" transform="translate(-37.94 -105.69)"/><path class="cls-20" d="M106.35,709.35c1.57-1.21,2.22-1.48,4.25-1.1,2.52.47,5.5,2.68,7.73,4,6.06,3.58,12.45,8,19,10.54l1.12.91-1.21,4C126.89,721.77,115.52,717.07,106.35,709.35Z" transform="translate(-37.94 -105.69)"/><path class="cls-11" d="M144.28,722l5.68,1.39,7.58,2.86a20.15,20.15,0,0,0-2.44,2.55c-.86,1.38-1.08,4.27-1.76,5.92l-1.43.85c-1,1-1.36,1.52-2.81,1.91a23.65,23.65,0,0,1-10.5-5c-1.43-1.29-1.2-3-1.37-4.75l1.21-4-1.12-.91,1.76-.2Z" transform="translate(-37.94 -105.69)"/><path class="cls-34" d="M177.73,889.89l-6,36.31c-.74,4.47-2.38,10-2.28,14.49.37.06.8.29,1.13.1a24.86,24.86,0,0,1,0,5.91,10.15,10.15,0,0,0-.19,2.83c-16.75,6.4-34.5,9.52-52.25,11.64-2.35.27-18.47,1.31-19.36,2-14.63.39-28.88.83-43.52-.06-6-.36-11.43-.42-17.28-1.89,5.87-3.4,12.41-4.42,18.89-6.15a259.08,259.08,0,0,0,25.23-7.64C116.68,934.18,148.32,912.07,177.73,889.89Z" transform="translate(-37.94 -105.69)"/><path class="cls-35" d="M365.89,474.81a11.32,11.32,0,0,1,2.5.13c4.62,2,5.54,7.41,11.58,7.27l.48,1,1.5-1.61a17.5,17.5,0,0,0,3.27,2.48,14,14,0,0,1,3.2,2.42,11.68,11.68,0,0,1-3.22-1l-1.23.74a14.57,14.57,0,0,0,1.59,6,44.07,44.07,0,0,1,3,6.5l.27.78.45,1.72.15.7a5.09,5.09,0,0,1,.12,1.71,2.9,2.9,0,0,0,.45,1.83l-.31,1.14-.35.6a6.29,6.29,0,0,0-.55,2.6,10.36,10.36,0,0,1-4.06,8,31.7,31.7,0,0,1-5.54,3.6c-9.67,12.84-19.34,30.38-20.12,46.82-4.43-3.1-9.83-4.84-14.84-6.75-5.57-2.11-11-4.43-16.36-7.08l-1.38-.92-6.09-2.25a94.76,94.76,0,0,1,7.76-9.77c2.79-3.1,8.52-7.53,9.88-11.32s1.43-8,1.77-11.81c-3.48.76-9,8.13-11,11.18-5.2,8-9.92,17.78-13.83,26.53-1.9,4.24-3.43,8.69-5.74,12.73a10.34,10.34,0,0,1-1.9,1.54l-4-.93c-2.48-.62-4.87-1.1-6.25-3.4l.34-1.16c4.33-13.51,10-27.13,17.35-39.29,7.86-13,17.67-24.63,27.61-36,5.82-3.77,10.08-9.67,16.43-12.68,2-1,3.7-.14,5.67.58Z" transform="translate(-37.94 -105.69)"/><path class="cls-36" d="M297.46,564.78a14.5,14.5,0,0,1,9.69,2.05,10.82,10.82,0,0,1,2.1,1.9,10.34,10.34,0,0,1-1.9,1.54l-4-.93c-2.48-.62-4.87-1.1-6.25-3.4Z" transform="translate(-37.94 -105.69)"/><path class="cls-37" d="M382,481.57a17.5,17.5,0,0,0,3.27,2.48,14,14,0,0,1,3.2,2.42,11.68,11.68,0,0,1-3.22-1l-1.23.74a14.57,14.57,0,0,0,1.59,6,44.07,44.07,0,0,1,3,6.5l.27.78.45,1.72.15.7a5.09,5.09,0,0,1,.12,1.71,2.9,2.9,0,0,0,.45,1.83l-.31,1.14-.35.6a6.29,6.29,0,0,0-.55,2.6,10.36,10.36,0,0,1-4.06,8,31.7,31.7,0,0,1-5.54,3.6c-3.75-1.28-7.57-1.8-11.34-3.25a2.06,2.06,0,0,1,1.41-.17,19.74,19.74,0,0,0,8.09-.7,12.2,12.2,0,0,0,6.87-6.51c1.72-4,.71-7.83-.75-11.69l.45-.14a5.7,5.7,0,0,0,0-2.5l-.19-.47-.16-1.5c-.57-1.43-.07-1-.25-2.25a32.18,32.18,0,0,0-1.25-3.25l.87.13.38-.88-1-2a14.72,14.72,0,0,0,.37-1.87l-.84.15-.66,1.37-.81.25,0-2.91Z" transform="translate(-37.94 -105.69)"/><path class="cls-38" d="M365.89,474.81a11.32,11.32,0,0,1,2.5.13c4.62,2,5.54,7.41,11.58,7.27l.48,1,0,2.91.81-.25.66-1.37.84-.15a14.72,14.72,0,0,1-.37,1.87l1,2-.38.88-.87-.13a32.18,32.18,0,0,1,1.25,3.25c.18,1.28-.32.82.25,2.25l.16,1.5.19.47a5.7,5.7,0,0,1,0,2.5l-.45.14c-5-6.74-14.11-7.88-19.09-14.11a6.73,6.73,0,0,1-1.5-5.3c.07-.71.44-.78,1-1.21l.64-1.06Z" transform="translate(-37.94 -105.69)"/><path class="cls-19" d="M365.89,474.81a11.32,11.32,0,0,1,2.5.13c4.62,2,5.54,7.41,11.58,7.27l.48,1,0,2.91-.15,1.34-.91.65a49.73,49.73,0,0,1-15.47-9.65l.64-1.06Z" transform="translate(-37.94 -105.69)"/><path class="cls-39" d="M339.84,518.29l.14-.55c.71-1.75,3.45-3.71,4.89-5l9.23-8.38.25.29c-2.71,2.91-6.14,5.63-6,9.95a6.53,6.53,0,0,0,2.43,5.32c1,.86,7.75,3.94,7.82,4.18-5.86,3.91-12.91,7.13-18.17,11.8-4.87,4.33-9.34,10.9-13.38,16.06-.5.64-.33.47-.53,1.44l-6.09-2.25a94.76,94.76,0,0,1,7.76-9.77c2.79-3.1,8.52-7.53,9.88-11.32S339.5,522.12,339.84,518.29Z" transform="translate(-37.94 -105.69)"/><path class="cls-40" d="M320.43,551.19l6.09,2.25,1.38.92c5.34,2.65,10.79,5,16.36,7.08,5,1.91,10.41,3.65,14.84,6.75L383,586.34c1.69,1.35,4.13,2.84,5,4.85l-.24,4a97.52,97.52,0,0,1-9.27,17.3c-1.78,2.51-3.95,4.74-5.73,7.24-6.57,6.54-13.16,12.19-21.38,16.54-8.42,3.45-17.81,6.71-26.89,7.76l-1.4-1.35-.39-.14.35-.64a54.88,54.88,0,0,1-1.49-7.32l-1.46-6.42-.34-2-3.86-18.37c-2.5-12.16-6.35-27-3.29-39.29l.22-.86A49.78,49.78,0,0,1,320.43,551.19Z" transform="translate(-37.94 -105.69)"/><path class="cls-40" d="M320.43,551.19l6.09,2.25,1.38.92a65.86,65.86,0,0,0-4.25,14c-2.75,16.17,3.05,29.42,7.53,44.54,2.16,7.31,3.67,14.59,5.1,22.06,15-7.94,30.06-18.17,39.19-32.89,3.09-5,5.27-10.36,7.51-15.76,1.69,1.35,4.13,2.84,5,4.85l-.24,4a97.52,97.52,0,0,1-9.27,17.3c-1.78,2.51-3.95,4.74-5.73,7.24-6.57,6.54-13.16,12.19-21.38,16.54-8.42,3.45-17.81,6.71-26.89,7.76l-1.4-1.35-.39-.14.35-.64a54.88,54.88,0,0,1-1.49-7.32l-1.46-6.42-.34-2-3.86-18.37c-2.5-12.16-6.35-27-3.29-39.29l.22-.86A49.78,49.78,0,0,1,320.43,551.19Z" transform="translate(-37.94 -105.69)"/><path class="cls-20" d="M984.92,105.8l.88-.11c.12,4.27-1.52,9.81-2.32,14.06l-5.35,28.09-14.59,81.6-4.09,21.62c-1.82,8.78-4,17.93-4.81,26.87l-14-12.12-17.27-14c-3.68-2.95-7.36-6.29-11.44-8.65-3.36,6.55-6.15,13.48-10.12,19.69-1,1.5-1.91,3.32-3.42,4.31l-.71-.69-3.72-.59,4.69-31.65c1.92-2.3,3.5-5,5.31-7.36l26.08-38,39.38-57.56c4.29-6.48,8.6-12.88,12.31-19.71C982.8,109.53,984.1,108,984.92,105.8Z" transform="translate(-37.94 -105.69)"/><path class="cls-41" d="M702.19,195.45a10.34,10.34,0,0,1,3.84,5c.82,2,1.35,3.27,3.08,4.59l1.43.3,1.61,7.2,1.76,11.29.65,25.67c0,10.05-2,44.55,4.86,51.68-1.58,2-5.26,3.59-7.56,4.79-1.57.6-4.17,2.07-5.76,1.74l-2-3.08c.14-.72-.57-2-.84-2.79l-4.11-10.51c-1.15,3.78-1.39,7.9-1.89,11.82a26.56,26.56,0,0,1-.67,4.45c-3.36.33-6.76-.19-10.12-.35-7.9-.4-16.52-1-24.41-.53l-12.24,0a11.3,11.3,0,0,1-3.23-.17c.58-6.95,3.2-14.56,4.91-21.37,3.41-13.56,5.43-26.89,5.15-40.92,0-2.61.26-6.8-.92-9.06a216.69,216.69,0,0,0-21,37.37l-5.92,15.07c-1,2.9-1.89,7.81-3.72,10.14-2.34-.62-4.68-.33-7-1l.7-8.52c1.14-1.27,1.48-2.62,2.18-4.13,4.07-8.73,6.88-18.05,10.84-26.83a117.67,117.67,0,0,1,12.76-21.17V236a121.73,121.73,0,0,1,26.75-28c1.58-1.21,3.19-2.89,5-3.62l1.09,1.3c1.36-.82,1.92-1.57,3.51-1.23a23.91,23.91,0,0,0,1.68,3.16l1.46.2,12.6,27,4.07,7.44.86,1.54a50.79,50.79,0,0,0,1.15-9.12c.35-3.82,1-7.55,1-11.39.81-8.61,1.45-18.08-1.38-26.37Z" transform="translate(-37.94 -105.69)"/><path class="cls-42" d="M640.94,244l1.16-1.85c.71-1,1.19-2.09,1.91-3l.34-.46c.52-1.05.47-.88,1.5-1.5.36-1.06.58-.95,1.5-1.5.46-1.38,2.65-3.42,3.91-4.17a8.68,8.68,0,0,0,2.09-1.57,8.39,8.39,0,0,1,1.62-1.58l.34,1.38a4.87,4.87,0,0,0-1.29,1.9c-1.3,2.8-4.51,4.87-6.72,6.94a41.82,41.82,0,0,0-5,6.1C641.34,244.46,641.81,244.67,640.94,244Z" transform="translate(-37.94 -105.69)"/><path class="cls-43" d="M677.43,205.67c1.36-.82,1.92-1.57,3.51-1.23a23.91,23.91,0,0,0,1.68,3.16l1.46.2,12.6,27c-.74.46-.31.28-1.34.43-3.62-3.81-18.15-24.13-18.91-28.57Z" transform="translate(-37.94 -105.69)"/><path class="cls-44" d="M702.19,195.45a10.34,10.34,0,0,1,3.84,5c.82,2,1.35,3.27,3.08,4.59l1.43.3,1.61,7.2c-1,.26-3.83,1-4.31,1.89-.8,1.53-.67,4.15-.81,5.87l-1.23,11.4-.11.78-.49,2.45a4,4,0,0,1-.39,1.4c-.57,1.53-.35,3.61-1,5.09-.45,1,0,2-.49,3-.74,1.64.08,3.8-.32,5.51-.93,4.05-.62,8.41-1.41,12.5-.31,1.62.3,2.73-.75,4.25h-.41c-.66-1.64,0-2.7.17-4.25.27-1.9.1-3.58.5-5.5a28,28,0,0,0,.08-4.49c.1-2.82.46-5.69.43-8.64a50.79,50.79,0,0,0,1.15-9.12c.35-3.82,1-7.55,1-11.39.81-8.61,1.45-18.08-1.38-26.37Z" transform="translate(-37.94 -105.69)"/><path class="cls-45" d="M150.1,667.76c1.77-3.19,7-4.94,10.13-6.66,8.74-4.86,17-9.62,26.17-13.81L216.87,634c5,5,11,10.89,13.74,17.55a13.48,13.48,0,0,1,3.64-2.79c.89-.35,3.05,1.16,3.95,1.65a57.61,57.61,0,0,0-.07-9.38l2.1-5.76c3.15,4.32,7.77,5,11,8.55-.64,4.8-1.81,10.38-.93,15.15l.73.78c-1.33,8.45-.4,18.4-.45,27-.11,17.86-.8,36.13.43,53.95l-56.06,1-8.77-.46c1.07-7.35.22-16.45.1-23.94l-.82-46c-4,.65-13.91,1.34-16.63,4,0,5-1,10.15-1.67,15.13-1.63,12.17-3.31,26-7.49,37.58l-2.11-1.63L150,723.36,144.28,722l.54-3.91c1.68-1.85,1.46-9.58,1.67-12.37l2-24.55C148.85,676.74,148.83,672,150.1,667.76Z" transform="translate(-37.94 -105.69)"/><path class="cls-46" d="M168.81,675.14c-2.94-.51-5.85-4.52-7.78-6.83a22.88,22.88,0,0,0,5.76,1.94c3.5.42,7.91-.76,11.37-1.34,9.28-1.55,18.56-3.66,27.94-4.58.29,1.34.11,1.32-.62,2.51a38.17,38.17,0,0,1-5.48,1.47l-4.9.81c-3.21.72-6.52,1.06-9.66,2.06C181.45,671.83,171.53,672.52,168.81,675.14Z" transform="translate(-37.94 -105.69)"/><path class="cls-47" d="M150.1,667.76c1,1.91.68,4.09.67,6.18l-.32,13.47c-.35,11.74-1.23,24.24-.49,36L144.28,722l.54-3.91c1.68-1.85,1.46-9.58,1.67-12.37l2-24.55C148.85,676.74,148.83,672,150.1,667.76Z" transform="translate(-37.94 -105.69)"/><path class="cls-48" d="M185.44,671.18c3.14-1,6.45-1.34,9.66-2.06l4.9-.81c-1.47,24-2,48.78-6.34,72.38l.47.27c.61.36.39.17.8.66l-8.77-.46c1.07-7.35.22-16.45.1-23.94Z" transform="translate(-37.94 -105.69)"/><path class="cls-2" d="M230.61,651.52a13.48,13.48,0,0,1,3.64-2.79c.89-.35,3.05,1.16,3.95,1.65a12.48,12.48,0,0,1,.33,2.56c-.22.82-1.42,1.68-1.66,2.5a17,17,0,0,0,.16,4.25c1.5,18.17,4.3,36.24,5,54.48l-9.85,11-9.46-11.06,7.53-42.44c.83-4.72,2.43-10.2,2.59-14.93C232.89,655.14,230.66,653.48,230.61,651.52Z" transform="translate(-37.94 -105.69)"/><path class="cls-13" d="M842,251.07l-.93-.63c1.75-3.14,4.59-5.81,6.82-8.66l24.85-29.84-48.82-37.66,161-68.48c-.82,2.24-2.12,3.73-3.23,5.77-3.71,6.83-8,13.23-12.31,19.71L930,188.84l-26.08,38c-1.81,2.4-3.39,5.06-5.31,7.36l-1.94.69-24.91,4.69L858.35,242c-3.48.7-6.76,1.14-9.56,3.52Z" transform="translate(-37.94 -105.69)"/><path class="cls-49" d="M501.66,434.63l1.38-8.55c3,3.69,15.55,4.71,20.34,5.47l9.47.69,19.78-.11-10.14,29.56-4.15,12c-.85,2.5-2,5.24-2.17,7.88l.48,5.21,9.72,58.79a40.25,40.25,0,0,0,4.26,12.15c-4.6,3.23-8.71,7.74-12.8,11.61L504.77,602.1c-3.73,3.56-7.34,7.38-11.32,10.66l-2.12-12.91a11.46,11.46,0,0,1-5.52-1.54c-2.78-1.88-3.39-3.9-4.11-7,1.47-2.21,3-4,3.72-6.61l-1.54-1.82c-1.95-3.17-.17-10.35-.09-14.11a14.27,14.27,0,0,0,.95-2.4c1.18-2.89,1.41-4.52.36-7.52Z" transform="translate(-37.94 -105.69)"/><path class="cls-50" d="M501.66,434.63l1.38-8.55c3,3.69,15.55,4.71,20.34,5.47a12,12,0,0,0-4.78.69C513.35,434.09,507.12,433.5,501.66,434.63Z" transform="translate(-37.94 -105.69)"/><path class="cls-50" d="M532.85,432.24l19.78-.11-10.14,29.56-4.15,12c-.85,2.5-2,5.24-2.17,7.88-2.12,3-3,7.27-4.14,10.76l-5.37,15.44L500.79,572.2l-3.67,9.09a14.9,14.9,0,0,1-1.21,3.15,4.69,4.69,0,0,1-1.4,1.26,32.08,32.08,0,0,1-9.09-1.05l-1.54-1.82.79-.7a8,8,0,0,1,1.93.34,8.38,8.38,0,0,0,1.85.63l.89.14a5.57,5.57,0,0,0,2.6,0c2.6-6.41,3.78-14.18,5.38-20.95l6.13-23.27,22.3-77.63,8-28.25Z" transform="translate(-37.94 -105.69)"/><path class="cls-19" d="M485.42,584.65a32.08,32.08,0,0,0,9.09,1.05c-2.13,3.46-3.14,10.1-3.18,14.15a11.46,11.46,0,0,1-5.52-1.54c-2.78-1.88-3.39-3.9-4.11-7C483.17,589.05,484.72,587.27,485.42,584.65Z" transform="translate(-37.94 -105.69)"/><path class="cls-51" d="M559.29,319.21c6.13,4.37,9.91,10.3,12.14,17.48.58,1.89.76,3.9,1.35,5.77-.8,1.74-.16,4.67,0,6.62L573.93,365c0,2.16-.63,6.24.49,8.05-.72,2-.22,4.21-.48,6.31a165,165,0,0,1-3.65,34.75c-.34,1.52-.74,4.63-1.61,5.85-1.7,2.42-3.7.88-4.11,4.57l-.43-1.61c-3.28.53-6.62,2-9.9,2.73l-.19,1.55-1.42,4.93-19.78.11-9.47-.69c-4.79-.76-17.3-1.78-20.34-5.47l.92-3.67-5.36-2.23,3.72-17,4.77-22.66c1.3-6.31,3.44-13.26,3.31-19.72a178.57,178.57,0,0,1-18,9.92l-6.25,2.61a16.88,16.88,0,0,0-2.3.85c-.6.63-1.35,3.36-1.7,4.27-4,10.52-6.49,22.14-9.05,33.11-.61,2.63-1.15,8.43-3.2,10.1a36.81,36.81,0,0,1-8.43-1.21l.39-13.32a168.89,168.89,0,0,1,4.13-31.83c1.35-5.75,2.85-11.67,6.26-16.59,3.18-4.58,7.2-8.46,11.16-12.36,10.28-10.12,24.7-23.23,39.29-25.69l1-.16a15.64,15.64,0,0,1,9.67.81l.18,1.87c2.89,2.18,13.32,7.3,16.82,7a4.34,4.34,0,0,0,2.67-.92C555.79,327.06,558.84,322.83,559.29,319.21Z" transform="translate(-37.94 -105.69)"/><path class="cls-52" d="M461.81,407.14a7.47,7.47,0,0,1,.76-1.68c4-4.86,5.09-13.26,7.23-19.32l6.67-16.54c1.09-2.37,2-5,4.57-5.92l1.56-.55c10.34-4,20.52-11.11,29.65-17.29,4.51-3,11-6.51,13.2-11.74A6.34,6.34,0,0,1,526.6,332c-2.1,11.87-6.11,21.56-16.2,28.77a178.57,178.57,0,0,1-18,9.92l-6.25,2.61a16.88,16.88,0,0,0-2.3.85c-.6.63-1.35,3.36-1.7,4.27-4,10.52-6.49,22.14-9.05,33.11-.61,2.63-1.15,8.43-3.2,10.1a36.81,36.81,0,0,1-8.43-1.21Z" transform="translate(-37.94 -105.69)"/><path class="cls-53" d="M502.32,403.19c6.67,2.18,12.48,4.23,19.67,3.87,17.36-.87,33.31-11.9,44.86-24.17,2.44-2.6,4.35-5.58,6.75-8.2l.34,4.67a165,165,0,0,1-3.65,34.75c-.34,1.52-.74,4.63-1.61,5.85-1.7,2.42-3.7.88-4.11,4.57l-.43-1.61c-3.28.53-6.62,2-9.9,2.73l-.19,1.55-1.42,4.93-19.78.11-9.47-.69c-4.79-.76-17.3-1.78-20.34-5.47l.92-3.67-5.36-2.23Z" transform="translate(-37.94 -105.69)"/><path class="cls-50" d="M504,422.41a109.46,109.46,0,0,0,50.28,3.24l-.19,1.55-1.42,4.93-19.78.11-9.47-.69c-4.79-.76-17.3-1.78-20.34-5.47Z" transform="translate(-37.94 -105.69)"/><path class="cls-54" d="M329.61,409.72l-174,20.62.37-4.11c1.93-16.42,9.51-31.88,22.71-42.16,9.05-7.05,20.42-11.11,32-9.59l.93.13a33.46,33.46,0,0,1,22.16,12.7l.52.68a67.76,67.76,0,0,1,1.55-15.3,49.62,49.62,0,0,1,7.45-17.28c4.89-6.92,12.27-12.27,20.73-13.7l.84-.13,5.79-.72c8.38-.59,17.79,2,24.16,7.58a57.63,57.63,0,0,1,18.36,30.83c1.14,5.38,1.34,10.89,1.72,16.36l5.86-2.58c7.14-3.36,16-2.66,23.29,0,6.82,2.49,12.55,7.63,16.67,13.5Z" transform="translate(-37.94 -105.69)"/><path class="cls-55" d="M351.34,636.31a74.17,74.17,0,0,1-2,19.63c-1.7,6.61-4.56,12.89-6.81,19.31l-8.78,26.64-13.07,47.39-2.46,9.43a13.53,13.53,0,0,0-.64,2.46c.28,2.08,2.23,5.28,2.93,7.43.8,2.44,1.1,5,1.94,7.43l.93,2.51a3.73,3.73,0,0,1-3-.1c-3.41-1.3-6.53-9.34-8.17-12.54l-1.59,1.66-2.62-4-.06-.09a10.72,10.72,0,0,1,1.29-6.38l-.88-1.83.74-.26c1.4-2.58,1.07-8,1.15-11l-.26-26.4c-.37-9-1.28-18.51.13-27.43,2.19-13.75,8.82-23.89,16.65-35.1,0-3.8-1.11-7.4-2.3-11C333.53,643,342.92,639.76,351.34,636.31Z" transform="translate(-37.94 -105.69)"/><path class="cls-9" d="M309.22,757a36.85,36.85,0,0,0,3,8.86l-1.59,1.66-2.62-4-.06-.09A10.72,10.72,0,0,1,309.22,757Z" transform="translate(-37.94 -105.69)"/><path class="cls-56" d="M395.47,547a9.41,9.41,0,0,1,2,3.23l7.93,21.08c3.29,8.72,7.59,17.68,10,26.65-1.43.43-2.28,1-3.72.49-2.26-3.66-3.46-8.51-5-12.59l-8.79-23.56c-1.39-3.7-4.83-9.69-4.84-13.47Z" transform="translate(-37.94 -105.69)"/><path class="cls-18" d="M481.7,591.26c.72,3.15,1.33,5.17,4.11,7a11.46,11.46,0,0,0,5.52,1.54l2.12,12.91,2.37,9.7a21.53,21.53,0,0,1-6.79-4.68l-12-17.11C476.64,596.79,479.47,594.14,481.7,591.26Z" transform="translate(-37.94 -105.69)"/><path class="cls-11" d="M387.72,595.23c2.25,3.53,5.5,6.79,6.68,10.86.79,2.71.85,5.89,1.14,8.71l1.61,11.2c1.28,7.17,11.31,45.16,15.08,48.94a7.59,7.59,0,0,0,2.08,1.3,58.18,58.18,0,0,1,7.77,4.64l.6-.2a7.86,7.86,0,0,0,4,3.28l.23.06,2.31,1.42,0,.72c-1,.86-1.75,1.65-3.17,1.67a41.85,41.85,0,0,0-7.57-3.57c-4-1-10-2.53-13.17-5.15-.95-4.46-4.37-7.38-7.37-10.58-4.6-4.87-10-9.82-13.42-15.6-3.27-5.49-5.19-11.68-6.78-17.83-1.28-4.93-2-11.15-5.07-15.33,1.78-2.5,3.95-4.73,5.73-7.24A97.52,97.52,0,0,0,387.72,595.23Z" transform="translate(-37.94 -105.69)"/><path class="cls-8" d="M414.31,676.24a58.18,58.18,0,0,1,7.77,4.64,6.7,6.7,0,0,1-1.87.54,12.29,12.29,0,0,1-7.11-2.31A18.55,18.55,0,0,1,414.31,676.24Z" transform="translate(-37.94 -105.69)"/><path class="cls-28" d="M472.25,536.06c3.05,6.13,5.34,13,7.69,19.48,1.25,3.43,2.34,8.05,4.8,10.78a14.27,14.27,0,0,1-.95,2.4L415.32,598c-2.37-9-6.67-17.93-10-26.65l7.49,1.44a54.7,54.7,0,0,0,14.85.06,69,69,0,0,0,32.91-13.63C467.81,553.51,471.26,545,472.25,536.06Z" transform="translate(-37.94 -105.69)"/><path class="cls-33" d="M443.71,525.9c1.55-1.46,4.56-2.21,6.53-3l11.9-5c3.14-1.17,4.11-1.45,7.11-.08-1,.88-2.05,1.4-2.32,2.74l5.32,15.48c-1,8.92-4.44,17.45-11.64,23.14a69,69,0,0,1-32.91,13.63,54.7,54.7,0,0,1-14.85-.06l-7.49-1.44-7.93-21.08a9.41,9.41,0,0,0-2-3.23c2.75-2.83,5.49-4.27,9.06-5.89,2.54-.86,5.58-1.53,7.75-3.14,5.12-2.73,11.12-4.44,16.51-6.7,2.48-1,5.23-1.94,7.25-3.77l.06.8a3.61,3.61,0,0,0,2.59-.1c.59-.21,1.15-.42,1.76-.58A6.53,6.53,0,0,0,443.71,525.9Z" transform="translate(-37.94 -105.69)"/><path class="cls-28" d="M443.71,525.9c1.55-1.46,4.56-2.21,6.53-3l11.9-5c3.14-1.17,4.11-1.45,7.11-.08-1,.88-2.05,1.4-2.32,2.74-2.44,2-5.69,3-8.58,4.26l-24,9.31-2.48,1c-1.91.68-3.61,1.78-5.52,2.49l-2.5,1c-1.19.43-2.3,1-3.5,1.5s-2.29,1.05-3.5,1.49l-6.1,2.62-4.9,1.9c-2.7.94-5.66,3.56-8.41,4.08a9.41,9.41,0,0,0-2-3.23c2.75-2.83,5.49-4.27,9.06-5.89,2.54-.86,5.58-1.53,7.75-3.14,5.12-2.73,11.12-4.44,16.51-6.7,2.48-1,5.23-1.94,7.25-3.77l.06.8a3.61,3.61,0,0,0,2.59-.1c.59-.21,1.15-.42,1.76-.58A6.53,6.53,0,0,0,443.71,525.9Z" transform="translate(-37.94 -105.69)"/><path class="cls-57" d="M188.22,944.4c12.53-3.7,24.46-10.36,35.82-16.73,14.82-8.32,29.64-17.18,43.17-27.46a54.77,54.77,0,0,0,2.09,7.5l8.05,35.15.47.72c1.57,2.36,2.43,2.54,2.58,5.53,1-.26,2.55.24,3.62.43,2.77.49,4.42.69,7.08-.35a5.1,5.1,0,0,1,2.11-1.88l.6-.2c3.49,2,7,4.25,10.72,5.72a76,76,0,0,1,11.57-1.13l26-.58,46.72.13,0,10.3,91.53,1.68,35.46-.57,112.6-.89,7.94,0c4.62,0,12.09-.88,16.37.33l1.94-.29c.92-3.23.74-7,.85-10.32l1.06-.35.13-.18-.68-3.22c2.3,2.29,6.22,7.32,9.08,8.55a32.44,32.44,0,0,0,6.82,1.62,16.11,16.11,0,0,1,5.2,3.11l.15.63,29.58-.4c6.63,0,13.51.38,20.09-.44l15.23-.1,10-.35,1.57.36a12.89,12.89,0,0,1,3.85-.25l8.62-.16L817.68,959c5.19-.19,11.08.44,16.11-.69l25.61-19.69,6.55-5.66c2.69-2.39,4.4-5,6.61-7.72l.57-.7,5.93,12.86c.5,1.07,2.64,6.88,3.4,7.16a13.74,13.74,0,0,0,3.74.46l1.19,3.76a37.54,37.54,0,0,0,8-1.39c2.76.12,4.33,1.87,6.56,3.4,2.84,1.94,6.45,3.77,10,3.86l10.7,1.68.55,0c4.53-.3,9.12.12,13.66.21A278.89,278.89,0,0,1,972.09,959a19.09,19.09,0,0,1,4.95,1.7c-7.16,1.85-14.59,2.5-21.94,3.15L918.19,966l-131.13,4.86-119,2.54-282-.22L189.61,970l-69-3.06-19.34-1.45c-1.43-.12-2.41-.7-3.91-.76l-1.25-.24-.75.12-1.66-.21a9.9,9.9,0,0,1,4.15-.55l.9-.68c.89-.65,17-1.69,19.36-2,17.75-2.12,35.5-5.24,52.25-11.64l-.44,1.47c5,.2,10.11.84,14.5-2A39.08,39.08,0,0,1,188.22,944.4Z" transform="translate(-37.94 -105.69)"/><path d="M656,947.69c2.3,2.29,6.22,7.32,9.08,8.55a32.44,32.44,0,0,0,6.82,1.62,16.11,16.11,0,0,1,5.2,3.11l.15.63-10-.18c-4.2.51-8.45-.15-12.61.34.92-3.23.74-7,.85-10.32l1.06-.35.13-.18Z" transform="translate(-37.94 -105.69)"/><path class="cls-58" d="M654.66,961.76c.92-3.23.74-7,.85-10.32l1.06-.35c2.49,4.33,6.59,7.62,10.7,10.33C663.07,961.93,658.82,961.27,654.66,961.76Z" transform="translate(-37.94 -105.69)"/><path d="M895.4,947.36c2.76.12,4.33,1.87,6.56,3.4,2.84,1.94,6.45,3.77,10,3.86l10.7,1.68c.09,1.61.43,2.91-.28,4.38l-35.75,1.51a5.94,5.94,0,0,1-.78-4.64,12.75,12.75,0,0,0,1.57-8.8A37.54,37.54,0,0,0,895.4,947.36Z" transform="translate(-37.94 -105.69)"/><path class="cls-9" d="M184.41,949a41.29,41.29,0,0,0,7.92,4.8l10,4.12c1.84.66,4.82,1.32,6.31,2.57,1.31,1.1,1.25,1.88,1.33,3.5l-.83.85c-4.6.31-30.21.81-32.62-.53-1.29-.71-.74,0-1.88.35-1.33.42-4.29,0-5.8,0-.59-4.83-1.36-9.21,1.11-13.64C174.93,951.2,180,951.84,184.41,949Z" transform="translate(-37.94 -105.69)"/><path class="cls-9" d="M280.4,949.11c1-.26,2.55.24,3.62.43,2.77.49,4.42.69,7.08-.35a5.1,5.1,0,0,1,2.11-1.88l.6-.2c3.49,2,7,4.25,10.72,5.72a93.65,93.65,0,0,0,10.12,4.3c2.19.8,4.7,1.24,6.54,2.71a8.66,8.66,0,0,1,0,3.55c-.15.43-.19.45-.61.59-2.11.72-5.79.21-8.05.21l-15.27-.07c-2.63,0-5.94.26-8.36-.87-1.74-.82-.92.32-2.26.89s-6.6,0-8.42,0l1.75-13.74Z" transform="translate(-37.94 -105.69)"/><path class="cls-59" d="M595.68,212.6,352,242.26c1.32-18.42,7.6-38.24,20.23-52.16S401,166.24,420,165.22a59.56,59.56,0,0,1,44.35,15.93,12.4,12.4,0,0,0-.61-3.33,51.7,51.7,0,0,1-.73-6.46c-.77-12.62,4-24.47,12.37-33.76s20.39-15.41,32.91-16c12.9-.61,25,2.89,34.58,11.74a57.88,57.88,0,0,1,15.92,24.36c3.93,12.2,4.08,23.68,3.54,36.36,5.7-3.43,13.64-7.63,20.39-8,12.32-3.11,26.31-.24,37.11,6.21,4.88,2.91,11.73,9.26,13.36,14.89l.06.6Z" transform="translate(-37.94 -105.69)"/><path class="cls-60" d="M616,319.64a17.79,17.79,0,0,0,3.56,1c2.08-.66,3-2.12,4.38-3.71,0,5.38-.77,10.54-3.26,15.4-6.3,16.57-17.37,29-33.62,36.35a70.12,70.12,0,0,1-12.68,4.37c-1.12-1.81-.52-5.89-.49-8.05l-1.16-15.92c-.15-1.95-.79-4.88,0-6.62,12-1.91,21.37-4.67,31.89-11C609.22,327.56,612.76,324.72,616,319.64Z" transform="translate(-37.94 -105.69)"/><path class="cls-61" d="M615.71,334.2c.85-.51,1.83-2.53,2.56-3.37a31.26,31.26,0,0,0,3.19-4.61l.39,0-.25,1.25c-.35.76-.73,1-.73,1.88a27.7,27.7,0,0,1-.15,3c-6.3,16.57-17.37,29-33.62,36.35a70.12,70.12,0,0,1-12.68,4.37c-1.12-1.81-.52-5.89-.49-8.05a15.58,15.58,0,0,0,.68-4.23,3.51,3.51,0,0,0,1.16-.93c.65-.72,2.11-.68,3.08-.89C591.72,356.16,608.68,345.51,615.71,334.2Z" transform="translate(-37.94 -105.69)"/><path class="cls-62" d="M554.24,425.65c3.28-.77,6.62-2.2,9.9-2.73l.43,1.61-1.13,115.63-17.07,5.41-9.72-58.79-.48-5.21c.14-2.64,1.32-5.38,2.17-7.88l4.15-12,10.14-29.56,1.42-4.93Z" transform="translate(-37.94 -105.69)"/><path class="cls-63" d="M194.93,741.62l56.06-1,.43,4.76a123.47,123.47,0,0,0,4.93,25.47c2.85,8.82,7.17,16.77,11,25.15l8.87,21.77c2.46,6.53,3.45,13.43,4.8,20.25l7.69,47.26,4.15,40c.38,4.8,1.1,10,.93,14.77a13.69,13.69,0,0,0-.93,6l.93.92-.6.2a5.1,5.1,0,0,0-2.11,1.88c-2.66,1-4.31.84-7.08.35-1.07-.19-2.58-.69-3.62-.43-.15-3-1-3.17-2.58-5.53l-.47-.72-8.05-35.15a54.77,54.77,0,0,1-2.09-7.5c-13.53,10.28-28.35,19.14-43.17,27.46-11.36,6.37-23.29,13-35.82,16.73a39.08,39.08,0,0,0-3.81,4.55c-4.39,2.89-9.48,2.25-14.5,2l.44-1.47a10.15,10.15,0,0,1,.19-2.83,24.86,24.86,0,0,0,0-5.91c-.33.19-.76,0-1.13-.1-.1-4.45,1.54-10,2.28-14.49l6-36.31c2.94-11.57,4.23-24.22,5.91-36.09,1.15-8.09,2.72-16.23,3.46-24.37,1.43-15.8.52-32.42.44-48.33l-.3-20.78c-.1-3.78.12-8.13-1-11.75-.58-2.26-.28-5.08-.13-7.41Z" transform="translate(-37.94 -105.69)"/><path class="cls-11" d="M277.35,942.86c5.17-.16,11.36-1.65,16.46-2.71a13.69,13.69,0,0,0-.93,6l.93.92-.6.2a5.1,5.1,0,0,0-2.11,1.88c-2.66,1-4.31.84-7.08.35-1.07-.19-2.58-.69-3.62-.43-.15-3-1-3.17-2.58-5.53Z" transform="translate(-37.94 -105.69)"/><path class="cls-11" d="M170.55,940.79l.68.1c1.65.27,3.22.9,4.87,1.23a87,87,0,0,0,12.18,1.24l-.06,1a39.08,39.08,0,0,0-3.81,4.55c-4.39,2.89-9.48,2.25-14.5,2l.44-1.47a10.15,10.15,0,0,1,.19-2.83A24.86,24.86,0,0,0,170.55,940.79Z" transform="translate(-37.94 -105.69)"/><path class="cls-64" d="M194.93,741.62l56.06-1,.43,4.76-29.69,1.84-20.48.39c-4.81,0-10.38-.59-15,.91-.58-2.26-.28-5.08-.13-7.41Z" transform="translate(-37.94 -105.69)"/><path class="cls-50" d="M224.92,790.88c-.24-3.23.78-6.3,1.45-9.44l2.13-11.76c3.79-.46,9.36,1.27,13.32,1.78l10.33,44.93,8.37,44.35,6.71,28.45c1.35,5.52,3.1,11.1,3.74,16.75l-.46.25a16.63,16.63,0,0,0-.66-3.5,10.14,10.14,0,0,1-.43-1.79,13,13,0,0,0-.57-2.21,9.33,9.33,0,0,1-.43-1.79,13,13,0,0,0-.57-2.21l-1-3.5c-.72-2.09-.85-4.39-1.5-6.5l-.5-1.72c-.42-1.24-.6-2.51-1-3.78L263,875a17.93,17.93,0,0,0-.64-2.28l-.25-1-.25-.75-.06-.72a8.76,8.76,0,0,0-.44-2l-.86-4.22a5.55,5.55,0,0,0-.4-1.54,14.37,14.37,0,0,1-.37-2.11c-.65-3.32-1.13-7.37-2.19-10.53a34.2,34.2,0,0,1-.68-3.6c-.46-2.23-.66-4.61-1.32-6.79-.43-1.44-.37-3.18-.68-4.71l-.13-1.5-.27-.14a13.33,13.33,0,0,0,.61,5.4c.33,1.18,0,2.59.38,4l.27,1.77.21.76a2.19,2.19,0,0,1,.09,1.38c-.08,1.06.37,1.59.53,2.58.14.81-.17.84.2,1.7a21.29,21.29,0,0,1,.93,4.74l.1.85a5.61,5.61,0,0,0,.4,1.76,44,44,0,0,1,1.4,7.23,22.4,22.4,0,0,0,1,4.26c.39,1.27.48,2.64.87,4l1.63,7.27,2,8,.4,1.13,1.6,6.15a18.67,18.67,0,0,1,.48,2.22,11,11,0,0,0,.7,2.4c.55,1.27,0-.23.2,1.45l.48,1.13.14,1,1,3.57-.75-.08a54.77,54.77,0,0,1-2.09-7.5l-4-15.68c-4.07-16.82-8-33.87-9.74-51.12-1.13-2.8-3.18-5.2-5-7.61l-7.06-9.8Z" transform="translate(-37.94 -105.69)"/><path class="cls-65" d="M209,865.57l.28.21c2.44.05,38.94-28.2,44.17-32.37,1.72,17.25,5.67,34.3,9.74,51.12l4,15.68c-13.53,10.28-28.35,19.14-43.17,27.46-11.36,6.37-23.29,13-35.82,16.73l.06-1c2.18-4.36,3.11-10.43,4.5-15.16Z" transform="translate(-37.94 -105.69)"/><path class="cls-30" d="M841.43,663.64a17.59,17.59,0,0,0,2.91,2l.22.38c2.64.45,4.92,2.42,6.76,4.26,4.2.09,9.35,3.61,13,5.63l15.52,8.51c4,2.28,7.93,4.74,12.34,6.27l-.57.73c-1,1.33-1.53,2.9-3,3.72,2.21,2,4.45,4.37,7,5.91,2.2-3.36,6.2-6.43,9-9.47,7.29,7.15,13.24,16.23,19.66,24.21l23.54,31c21,28.62,42.74,61.33,43,98.15.24,28.1-12.22,55.82-31.93,75.54-11.47,11.48-23.67,19.58-37.67,27.6-2.33,1.34-8.77,4-9.28,6.52-3.52-.09-7.13-1.92-10-3.86-2.23-1.53-3.8-3.28-6.56-3.4a37.54,37.54,0,0,1-8,1.39L886.2,945a13.74,13.74,0,0,1-3.74-.46c-.76-.28-2.9-6.09-3.4-7.16l-5.93-12.86-6.6-15.74a19.24,19.24,0,0,0-1.34-3.66L861.49,895c-3.31-7.82-5.31-17.51-6.71-25.9-.65-3.89-.54-8.1-1.46-11.91A44,44,0,0,0,849.2,847c-1.6-2.86-4.25-5.5-6.32-8.06L828.64,821.7l3.78-45.16a98.21,98.21,0,0,0,12.49,0l.49-.06-.71-.28-19.34,0a104.31,104.31,0,0,1,2.86-18.78c.58-2.57.7-4.86,2.56-6.8.21-1.64-.32-4-.47-5.75-.42-4.64-.79-9.27-1.54-13.88-.67-4.06-1.94-7.65-2-11.83L828,716c2.27-5.24,2.09-13.3,2.85-19.06l2-15.48a47.94,47.94,0,0,0,.82-6.94c-.06-2.24-1.79-3.82-3.33-5.2l-.49-.44,3.67-4.23a6.47,6.47,0,0,0,2.14,1.26l.38-.32,2.57.12C840.13,665.45,840.51,664.72,841.43,663.64Z" transform="translate(-37.94 -105.69)"/><path class="cls-66" d="M851.32,670.3c4.2.09,9.35,3.61,13,5.63l15.52,8.51c4,2.28,7.93,4.74,12.34,6.27l-.57.73c-1,1.33-1.53,2.9-3,3.72,2.21,2,4.45,4.37,7,5.91,1.09,1.47,2,2.52,2.19,4.37-2.42,4.89-6.71,9.56-10,13.92l-9.91,13c-2.57,3.26-5,6.58-8.48,8.95l-1.53,1-14.9-11.8-.84-.84-.75.56c-.85.63-.49.45-1.11.71.83-4.48.78-9.46,1.28-14,1-9,2.34-17.87,2.75-26.91.18-4-1.72-11.65-.22-14.81C853.88,674,852,671.46,851.32,670.3Z" transform="translate(-37.94 -105.69)"/><path class="cls-21" d="M851.32,670.3c4.2.09,9.35,3.61,13,5.63l15.52,8.51c4,2.28,7.93,4.74,12.34,6.27l-.57.73c-1,1.33-1.53,2.9-3,3.72-2.15.73-3.57,2.83-5.09,4.51-4.81,5.29-9.2,11-13.57,16.65L854,675.22C853.88,674,852,671.46,851.32,670.3Z" transform="translate(-37.94 -105.69)"/><path class="cls-58" d="M856.61,749.56a25.21,25.21,0,0,1,2.83,2.83c3.16,3.81,7.27,7.08,10.82,10.55,16.15,15.81,31,32,29,56.28C898.46,830,893,840.59,887,849.37c-1.29,1.89-2.7,4.48-4.35,6.07a4.56,4.56,0,0,1-1.31.91l-20.3-61.57a2.6,2.6,0,0,1,1.28.29c2.64,1.06,5.09,2,8,2l1-1.1c.38-3.48-2.16-8.14-3.4-11.39l-6.88-18.62C859.3,760.58,857.85,755.05,856.61,749.56Z" transform="translate(-37.94 -105.69)"/><path class="cls-2" d="M841.43,663.64a17.59,17.59,0,0,0,2.91,2l.22.38c2.64.45,4.92,2.42,6.76,4.26.65,1.16,2.56,3.74,2.72,4.92-1.5,3.16.4,10.83.22,14.81-.41,9-1.77,17.92-2.75,26.91-.5,4.57-.45,9.55-1.28,14,.62-.26.26-.08,1.11-.71l.75-.56.84.84c-.62,1.68,0,3.48.27,5.2.83,4.59,1.66,9.47,3.41,13.82,1.24,5.49,2.69,11,4.46,16.37L868,784.55c1.24,3.25,3.78,7.91,3.4,11.39l-1,1.1c-2.89.08-5.34-.91-8-2a2.6,2.6,0,0,0-1.28-.29c-1.36-1.94-2.65-2.5-4.47-3.82-4-2.92-5.36-8.22-6-12.92-.16-1.12-.34-1.09-1.08-1.89l-4.1.33-.71-.28-19.34,0a104.31,104.31,0,0,1,2.86-18.78c.58-2.57.7-4.86,2.56-6.8.21-1.64-.32-4-.47-5.75-.42-4.64-.79-9.27-1.54-13.88-.67-4.06-1.94-7.65-2-11.83L828,716c2.27-5.24,2.09-13.3,2.85-19.06l2-15.48a47.94,47.94,0,0,0,.82-6.94c-.06-2.24-1.79-3.82-3.33-5.2l-.49-.44,3.67-4.23a6.47,6.47,0,0,0,2.14,1.26l.38-.32,2.57.12C840.13,665.45,840.51,664.72,841.43,663.64Z" transform="translate(-37.94 -105.69)"/><path class="cls-21" d="M841.43,663.64a17.59,17.59,0,0,0,2.91,2l.22.38c3.82,12,1.48,24.32-.37,36.46l-1.94,15.25-3-18.08c-.77-5.95-.81-12-1.29-18-.14-1.69-.94-5-.63-6.62.16-.87,2.82-3.67,3.5-4.55a23.48,23.48,0,0,0-5.2-4.59l.38-.32,2.57.12C840.13,665.45,840.51,664.72,841.43,663.64Z" transform="translate(-37.94 -105.69)"/><path class="cls-21" d="M842.37,731.58c1.46,3.07,1.35,6.73,1.66,10.07.26,2.86.86,6.07.73,8.92l.94,6.29,3.8,19.29-4.1.33-.71-.28-19.34,0a104.31,104.31,0,0,1,2.86-18.78c.58-2.57.7-4.86,2.56-6.8.53,3.5,1,10.21,3.28,12.84,5.47-2.05,6.42-17.44,6.79-22.54C841.06,738,840.69,734.1,842.37,731.58Z" transform="translate(-37.94 -105.69)"/><path class="cls-3" d="M844.76,750.57l.94,6.29,3.8,19.29-4.1.33-.71-.28a18.4,18.4,0,0,1,.36-4.19C846.68,765.08,843.48,757.83,844.76,750.57Z" transform="translate(-37.94 -105.69)"/><path class="cls-67" d="M844.56,666c2.64.45,4.92,2.42,6.76,4.26.65,1.16,2.56,3.74,2.72,4.92-1.5,3.16.4,10.83.22,14.81-.41,9-1.77,17.92-2.75,26.91-.5,4.57-.45,9.55-1.28,14-.12,9.1-2,18.29-1,27.35.19,1.77.71,8.87-.13,10.12-1.51-2.66-.74-6.43-1-9.5-.14-2-.73-4-1-6-.28,1.47-.56,2.42.25,3.74,0,1.28-.19,1.87.5,3l-.38,3.88-.52-3c-.2-1.09-.16-2.17-.45-3.25a15.84,15.84,0,0,1-.3-3.44l-.5,3-.94-6.29c.13-2.85-.47-6.06-.73-8.92-.31-3.34-.2-7-1.66-10.07.85-4,0-9.67-.12-13.83l1.94-15.25C846,690.36,848.38,678,844.56,666Z" transform="translate(-37.94 -105.69)"/><path class="cls-68" d="M850.23,731c.62-.26.26-.08,1.11-.71l.75-.56.84.84c-.62,1.68,0,3.48.27,5.2.83,4.59,1.66,9.47,3.41,13.82,1.24,5.49,2.69,11,4.46,16.37L868,784.55c1.24,3.25,3.78,7.91,3.4,11.39l-1,1.1c-2.89.08-5.34-.91-8-2a2.6,2.6,0,0,0-1.28-.29c-1.36-1.94-2.65-2.5-4.47-3.82-4-2.92-5.36-8.22-6-12.92-.16-1.12-.34-1.09-1.08-1.89l-3.8-19.29.5-3a15.84,15.84,0,0,0,.3,3.44c.29,1.08.25,2.16.45,3.25l.52,3,.38-3.88c-.69-1.13-.51-1.72-.5-3-.81-1.32-.53-2.27-.25-3.74.31,1.95.9,4,1,6,.22,3.07-.55,6.84,1,9.5.84-1.25.32-8.35.13-10.12C848.24,749.26,850.11,740.07,850.23,731Z" transform="translate(-37.94 -105.69)"/><path class="cls-69" d="M849.5,776.15c.74.8.92.77,1.08,1.89.66,4.7,2,10,6,12.92,1.82,1.32,3.11,1.88,4.47,3.82l20.3,61.57c4.76,17,8,34.24,11.61,51.52,2.29,11.09,5.28,22.79,6.39,34.07a15.82,15.82,0,0,1-4.51,2.23l-.38,2.48.92.71a37.54,37.54,0,0,1-8,1.39L886.2,945a13.74,13.74,0,0,1-3.74-.46c-.76-.28-2.9-6.09-3.4-7.16l-5.93-12.86-6.6-15.74a19.24,19.24,0,0,0-1.34-3.66L861.49,895c-3.31-7.82-5.31-17.51-6.71-25.9-.65-3.89-.54-8.1-1.46-11.91A44,44,0,0,0,849.2,847c-1.6-2.86-4.25-5.5-6.32-8.06L828.64,821.7l3.78-45.16a98.21,98.21,0,0,0,12.49,0l.49-.06Z" transform="translate(-37.94 -105.69)"/><path class="cls-70" d="M886.2,945a52.56,52.56,0,0,1,8.66-.82l-.38,2.48.92.71a37.54,37.54,0,0,1-8,1.39Z" transform="translate(-37.94 -105.69)"/><path class="cls-71" d="M896.67,234.89l1.94-.69-4.69,31.65c-1.21,9-1.69,18.28-3.94,27.1a77.06,77.06,0,0,1-.24-10.64c-1.78.7-3.44,3.56-4.76,5l-15.11,17C863.31,311.82,856,319,850,326.9L729.73,459.72l-28,30.48-77.07,82.09-46.16,46.6L562,635.66l-51,49-56.62,55.24-60.31,58.39L374.2,815.54l-49.38,42.37-36.09,27.42L281,838.07c-1.35-6.82-2.34-13.72-4.8-20.25l29.82-23.7a147.56,147.56,0,0,0,11.37-10c-2.34-2.76-2.3-6.58-3.5-9.89a48.64,48.64,0,0,0-3.32-6.71l1.59-1.66c1.64,3.2,4.76,11.24,8.17,12.54a3.73,3.73,0,0,0,3,.1l-.93-2.51,92.06-80.85c-3.45-5-8.77-9.74-9.12-16.07,3.17,2.62,9.21,4.18,13.17,5.15a41.85,41.85,0,0,1,7.57,3.57c1.42,0,2.14-.81,3.17-1.67l0-.72L426.93,684l-.23-.06a7.86,7.86,0,0,1-4-3.28C430,675.5,436.42,668.18,443,662L489,617.78a21.53,21.53,0,0,0,6.79,4.68l-2.37-9.7c4-3.28,7.59-7.1,11.32-10.66l33.06-32.77c4.09-3.87,8.2-8.38,12.8-11.61a40.25,40.25,0,0,1-4.26-12.15l17.07-5.41,7.55-.38,57.11-56.62,1,1c.22-5.4,2.29-11.14,3.33-16.49l6-35.26c4.6-31.55,8.56-63.39,10.43-95.24l1-30.43,12.24,0c7.89-.43,16.51.13,24.41.53,3.36.16,6.76.68,10.12.35a26.56,26.56,0,0,0,.67-4.45c.5-3.92.74-8,1.89-11.82l4.11,10.51c.27.76,1,2.07.84,2.79l2,3.08c1.59.33,4.19-1.14,5.76-1.74,2.3-1.2,6-2.75,7.56-4.79,4.64.51,10,4,14.26,5.95,9,4.13,18.25,8,26.94,12.83,2.07,1.16,5.28,2.55,6.8,4.37a3.76,3.76,0,0,1,.73,3.36l-1,5.37c1.09-.24.69,0,1.3-.67l52-57.79,14.36-15.8c2.36-2.57,5-5,7.17-7.72l6.84-5.53c2.8-2.38,6.08-2.82,9.56-3.52l13.41-2.44Z" transform="translate(-37.94 -105.69)"/><path class="cls-9" d="M426.93,684l.6.15a9.92,9.92,0,0,0,5.07.16,40.18,40.18,0,0,1,8.5-1.23l.72,1.09c-1,2.68-4.57,4.31-7.1,5.47a27.09,27.09,0,0,1-5.82,2.08,24.81,24.81,0,0,1-4.52-2.19l-5.44-2.82-.41-2.47a41.85,41.85,0,0,1,7.57,3.57c1.42,0,2.14-.81,3.17-1.67l0-.72Z" transform="translate(-37.94 -105.69)"/><path class="cls-9" d="M312.2,765.9c1.64,3.2,4.76,11.24,8.17,12.54a3.73,3.73,0,0,0,3,.1c3-.09,7.26,1.93,9.46,4l.87.86-.08.82c-3.48,1.94-12.34.91-16.17,0-2.34-2.76-2.3-6.58-3.5-9.89a48.64,48.64,0,0,0-3.32-6.71Z" transform="translate(-37.94 -105.69)"/><path class="cls-9" d="M405.36,679.11c3.17,2.62,9.21,4.18,13.17,5.15l.41,2.47,5.44,2.82c-2.38,1.52-5,1.88-7.44,3.21,2.21,3.83,4.53,7.55,5.84,11.8-3.14-2.87-5.33-6.42-8.3-9.38C411,690.22,405.71,685.44,405.36,679.11Z" transform="translate(-37.94 -105.69)"/><path class="cls-72" d="M416.94,692.76l-5-7.62,7,1.59,5.44,2.82" transform="translate(-37.94 -105.69)"/><path class="cls-18" d="M571,539.78a33.32,33.32,0,0,1,6.15.82A111.14,111.14,0,0,1,554,553.44a4.47,4.47,0,0,0,.54,2.75,3.84,3.84,0,0,1-2.89,1.55l-1,0a40.25,40.25,0,0,1-4.26-12.15l17.07-5.41Z" transform="translate(-37.94 -105.69)"/><path class="cls-18" d="M740.8,411c2.88-1.27,8.18-4.34,11.3-3.69a6.87,6.87,0,0,1,1.8,3.39c-.47,2.61-6,6.47-8,8.23-8.11,7-16.4,13.84-24,21.38l-.76-.23c-2.26-5.63-.28-13.83,2-19.24a18.48,18.48,0,0,1,2.44-4.5,27.55,27.55,0,0,0,1.34-4.09c1.64.05,4.19-.23,5.65.43l.32.16C735.42,413.23,738.83,412.7,740.8,411Z" transform="translate(-37.94 -105.69)"/><path class="cls-8" d="M726.88,412.24c1.64.05,4.19-.23,5.65.43-1,2.09-2,5-4.38,5.78l-2,.53-.7-.79.14-1.86A27.55,27.55,0,0,0,726.88,412.24Z" transform="translate(-37.94 -105.69)"/><path class="cls-18" d="M641.5,487.26l4.73-.56-.54,1.52.38.36a19.27,19.27,0,0,0,5.7,3.88c6,2.56,14.86,3.09,16.73,10.48-3.68,1.06-8.9.47-12.76.51l-28.1.2c.46-3.75.89-8.31,2-11.9a22.62,22.62,0,0,0,0-4.58Z" transform="translate(-37.94 -105.69)"/><path class="cls-11" d="M641.5,487.26l4.73-.56-.54,1.52-.45.22a9.32,9.32,0,0,0-3.52,3c-.61.77-.32.45-1.24,1.16a47.72,47.72,0,0,1-10.8-.89,22.62,22.62,0,0,0,0-4.58Z" transform="translate(-37.94 -105.69)"/><path class="cls-73" d="M896.67,234.89l1.94-.69-4.69,31.65c-1.21,9-1.69,18.28-3.94,27.1a77.06,77.06,0,0,1-.24-10.64l0-.26c-1.1-3,.27-8.11.69-11.35l3.28-23.6c-9.44,0-18.89.62-28.33.19-3.55-.17-7.41,0-10.68-1.6-2.07.29-3.93.77-5.89-.15,2.8-2.38,6.08-2.82,9.56-3.52l13.41-2.44Z" transform="translate(-37.94 -105.69)"/><path class="cls-73" d="M854.68,245.69c5.31-1.84,11.85-1.41,17.46-2l13.12-1.49c2.83-.37,5.78-1,8.63-.72l.35,2.63-.55,3c-9.44,0-18.89.62-28.33.19C861.81,247.12,858,247.25,854.68,245.69Z" transform="translate(-37.94 -105.69)"/><path class="cls-74" d="M697.27,303.14c.5-3.92.74-8,1.89-11.82l4.11,10.51c.27.76,1,2.07.84,2.79l2,3.08c1.59.33,4.19-1.14,5.76-1.74,2.3-1.2,6-2.75,7.56-4.79,4.64.51,10,4,14.26,5.95,9,4.13,18.25,8,26.94,12.83,2.07,1.16,5.28,2.55,6.8,4.37a3.76,3.76,0,0,1,.73,3.36l-1,5.37L752.3,380.4l-7.84,19.36c-1.3,3.1-3.76,7.95-3.66,11.23-2,1.71-5.38,2.24-7.95,1.84l-.32-.16c-1.46-.66-4-.38-5.65-.43l-.5-.51-1.15-.3c-.62-.86-.6-.44-.44-1.16l4.78-28.13,3.57-20c1.66-4.78,2.51-9.79,4.3-14.52,1.14-3,3.61-6.3,4.34-9.24l-51.28-7.23,1.7-9.55c.37-2.89.33-5.72,1.6-8.39a24.26,24.26,0,0,0,2.68-.63A11.92,11.92,0,0,0,701.1,311l-1.27-1.28,1.17-2.36-1.4-2.15-1-.09a5.53,5.53,0,0,1-1.08,2.62Z" transform="translate(-37.94 -105.69)"/><path class="cls-75" d="M697.27,303.14c.5-3.92.74-8,1.89-11.82l4.11,10.51c.27.76,1,2.07.84,2.79l2,3.08c1.59.33,4.19-1.14,5.76-1.74l.24,1-.25.36a6.55,6.55,0,0,0-.62,2.26l-.36,1.48a6.54,6.54,0,0,0,.26,3.89l.15.7c1,4.48,3.45,9.44,7.49,11.91,2.47,1.51,5.76,2.07,8.58,2.57,8,1.44,18.55,2.14,26.46-.1l7.33-2.52c-3.15,2.62-6.74,5-9.58,7.95-1.35,1.38-2.69,1.7-4.21,2.74-1.74,1.18-2.6,2.89-4.63,3.83-.29-.83-.33-.47-.12-1.08l-.63-.43c-4.31,7.08-5,14.63-7.85,22.12a8.47,8.47,0,0,0-.42,2.06l-1.94,10.5-.59,2.95-4.29,25.78c-.34,1.63-.43,3.15-.88,4.77l-.4,2a7,7,0,0,0,1.5-3.5l.15-.64a2.5,2.5,0,0,0-.15-1.6c.36-1.11.87-1.63.5-2.76l.36-.63c.55-1.1.26-1.67.51-2.74l.38-.88c.3-1,.11-1.87.5-3l.25-1.25.13-.57a17.69,17.69,0,0,0,.19-2.3c.07-1.13,0,.23.43-1.38.22-.86.24-1.6.5-2.5.33-1.19,0-2.2.5-3.5l.25-1.25.13-.54c.31-1.53-.09-2.67.68-4.1.66-1.23.5-2.12.53-3.47s0-.34.41-1.64c.37-1.07.25-2.05.83-3.09l.54.22.14-.6a17.83,17.83,0,0,1,1-2.28,3.12,3.12,0,0,0,0-2.25l.87-1-.12-.75,1-.81c.65,1.55.08,2.68-.19,4.32a4.66,4.66,0,0,1-.51,1.82c-.62,1.62-.66,3-1.34,4.7-1.06,2.61-.65,6-2.24,8.55A2.88,2.88,0,0,0,733,383c-.17,3.53-1.73,7.19-2.59,10.62a127.17,127.17,0,0,0-3.08,17.32l-1,.8-1.15-.3c-.62-.86-.6-.44-.44-1.16l4.78-28.13,3.57-20c1.66-4.78,2.51-9.79,4.3-14.52,1.14-3,3.61-6.3,4.34-9.24l-51.28-7.23,1.7-9.55c.37-2.89.33-5.72,1.6-8.39a24.26,24.26,0,0,0,2.68-.63A11.92,11.92,0,0,0,701.1,311l-1.27-1.28,1.17-2.36-1.4-2.15-1-.09a5.53,5.53,0,0,1-1.08,2.62Z" transform="translate(-37.94 -105.69)"/><path class="cls-76" d="M697.27,303.14l.25,4.55a5.53,5.53,0,0,0,1.08-2.62l1,.09,1.4,2.15-1.17,2.36L701.1,311a11.92,11.92,0,0,1-4.62,1.61,24.26,24.26,0,0,1-2.68.63c-1.27,2.67-1.23,5.5-1.6,8.39l-1.7,9.55,51.28,7.23c-.73,2.94-3.2,6.25-4.34,9.24-1.79,4.73-2.64,9.74-4.3,14.52l-58.8,64.47-6.41,7.35a14.6,14.6,0,0,1-2,2.39,4.48,4.48,0,0,1-.83.27c-4.2,13.95-8.74,28.07-14.48,41.48-1.19,2.77-2.29,6.47-4.42,8.62l-4.73.56-11.83-.09-.52-3c.22-5.4,2.29-11.14,3.33-16.49l6-35.26c4.6-31.55,8.56-63.39,10.43-95.24l1-30.43,12.24,0c7.89-.43,16.51.13,24.41.53,3.36.16,6.76.68,10.12.35A26.56,26.56,0,0,0,697.27,303.14Z" transform="translate(-37.94 -105.69)"/><path class="cls-72" d="M850,326.9l.36,257.55-.25,12.63c-6.83-1.79-15-3.33-21.48.32-3.75,2.09-6.14,6.18-7.13,10.26-1.49,6.07.48,14.33.65,20.66-.19,1.75-.54,3.43,0,5.14a5.36,5.36,0,0,0,2.83,2.15c1.59,3.53-.27,9.92-1.69,13.57l-.2.48c2.69,5.29,7.07,10.39,11.05,14.79l-.58.18-3.67,4.23.49.44c1.54,1.38,3.27,3,3.33,5.2a47.94,47.94,0,0,1-.82,6.94l-2,15.48c-.76,5.76-.58,13.82-2.85,19.06l-1.16,3.2c0,4.18,1.28,7.77,2,11.83.75,4.61,1.12,9.24,1.54,13.88.15,1.71.68,4.11.47,5.75-1.86,1.94-2,4.23-2.56,6.8a104.31,104.31,0,0,0-2.86,18.78l19.34,0,.71.28-.49.06a98.21,98.21,0,0,1-12.49,0l-3.78,45.16L842.88,839c2.07,2.56,4.72,5.2,6.32,8.06a44,44,0,0,1,4.12,10.17c.92,3.81.81,8,1.46,11.91,1.4,8.39,3.4,18.08,6.71,25.9l3.7,10.11a19.24,19.24,0,0,1,1.34,3.66l6.6,15.74-.57.7c-2.21,2.73-3.92,5.33-6.61,7.72l-6.55,5.66-25.61,19.69c-5,1.13-10.92.5-16.11.69l-51.44,1.29-8.62.16a12.89,12.89,0,0,0-3.85.25l-1.57-.36-10,.35-15.23.1c-6.58.82-13.46.46-20.09.44l-29.58.4-.15-.63a16.11,16.11,0,0,0-5.2-3.11,32.44,32.44,0,0,1-6.82-1.62c-2.86-1.23-6.78-6.26-9.08-8.55-1.78-1.94-3.52-4.15-5.7-5.62,1.92-2.28,4.52-3.29,6.56-5.41a12.36,12.36,0,0,1,5.37,3c1.49-1.73,2-4.17,2.52-6.32l2.94-13.82L674,872c1.78-16.45,3.49-32.87,3.89-49.42,0-15.23-.76-30.87-4.46-45.71-1.19-7.45-3.59-15-6-22.18-1-3-1.88-6.19-3.5-9,.52-5.8,2.24-11.41,3.81-17,1-3.64,2-8,4-11.2,2.78-4.44,6.55-8.66,9.71-12.87a27.83,27.83,0,0,0,3.22-5.44l.73-2c2.62,1,6.88,2.43,9.68,1.82,5.68-1.24,31.79-44.08,36.64-51.4l15.93-28.41a58,58,0,0,1-7.09-4.85l-9,10.43c-.37-4.86.25-10,.17-14.9l-1.32-90.69-.13-39.9V466.2c0-2.06.3-4.58-.52-6.48Z" transform="translate(-37.94 -105.69)"/><path class="cls-11" d="M749.61,598.06c1.27-1.46,1.9-2.55,3.74-3.23,1.54,1.46,1.93,4,1.89,6.11,0,2.44-1.12,4.61-2.17,6.76a7.07,7.07,0,0,1-2.58-5Z" transform="translate(-37.94 -105.69)"/><path class="cls-19" d="M740.58,614.38c2.88-5.75,4.65-11.46,9-16.32l.88,4.63a7.07,7.07,0,0,0,2.58,5l-.29,1.74.57.64c2.29-.15,4.78-1.15,7-.79l.53.9a6.54,6.54,0,0,1-3.23,3.67c-3.17,1.83-7.38,2.8-10,5.37A58,58,0,0,1,740.58,614.38Z" transform="translate(-37.94 -105.69)"/><path class="cls-77" d="M775.89,748.7l1.46-1A13.93,13.93,0,0,1,780.9,751c-.93,0-1.1.09-1.88-.48a15,15,0,0,0-2.17,1.81l-1.11,1c2.94,4.06,1.79,17.91,1.57,23.16l2.37.93c3.92,1.14,9.37,1,13-1.13a5.8,5.8,0,0,1,2.37-1l.86-.11,29.47,1.12,19.34,0,.71.28-.49.06a98.21,98.21,0,0,1-12.49,0l-3.78,45.16-.07.44c-1.7,12.6-.2,26-3.94,38.34a37.13,37.13,0,0,1-7.13,13.36c-3.71,4.35-8.48,8-12.94,11.53l-18.32,14.68-24,20.27-9.94,8c-1.88,1.51-4.09,3-5.49,5-2.1,1.4-4.95,2.43-5.49,4.93l-1-1.24a10.27,10.27,0,0,1-4-.54c-1.9-.84-3.7-2.93-5.26-4.31a48.53,48.53,0,0,0-6.65-4.85l23.09-22.16,35.84-36.14c2.81-3.15,6.38-7.18,7.6-11.31,1.59-5.4.34-13.58,0-19.19l-3.37-42.77c-.94,2.11-2.15,5.61-4.26,6.73-2.33,1.23-7.08-.18-9.5-.86-6.87-1.95-18.2-6.09-21.81-12.6-.49-4,1.76-8,3.67-11.44,4.18-7.51,9.41-14.43,14.54-21.31,1.69-2.26,3.83-4.43,5.31-6.79Z" transform="translate(-37.94 -105.69)"/><path class="cls-58" d="M775.74,753.26c2.94,4.06,1.79,17.91,1.57,23.16L774.6,775a11.13,11.13,0,0,1-4.58-7.7C769.06,761.51,772.54,757.53,775.74,753.26Z" transform="translate(-37.94 -105.69)"/><path class="cls-78" d="M820.78,652.7a12.86,12.86,0,0,1,2.26-3c2.69,5.29,7.07,10.39,11.05,14.79l-.58.18-3.67,4.23.49.44c1.54,1.38,3.27,3,3.33,5.2a47.94,47.94,0,0,1-.82,6.94l-2,15.48c-.76,5.76-.58,13.82-2.85,19.06l-1.16,3.2c0,4.18,1.28,7.77,2,11.83.75,4.61,1.12,9.24,1.54,13.88.15,1.71.68,4.11.47,5.75-1.86,1.94-2,4.23-2.56,6.8a104.31,104.31,0,0,0-2.86,18.78l-29.47-1.12-.86.11a5.8,5.8,0,0,0-2.37,1c-3.6,2.09-9,2.27-13,1.13l-2.37-.93c.22-5.25,1.37-19.1-1.57-23.16l1.11-1a15,15,0,0,1,2.17-1.81c.78.57,1,.44,1.88.48a13.93,13.93,0,0,0-3.55-3.26l-1.46,1-2.18-1.44C765,738.5,759,726,754,714.87c-.67-1.47-3.78-7.62-3.28-8.67a17.33,17.33,0,0,1,3.33-4.26l24.21-23.33c5.95-6,11.42-12.72,17.68-18.35a31.56,31.56,0,0,1,8.78-5.94l.68-.26C809.51,652.44,816.29,652.54,820.78,652.7Z" transform="translate(-37.94 -105.69)"/><path class="cls-79" d="M825.66,679.06l1.21,9.24a3.42,3.42,0,0,0-2.19,0,3.65,3.65,0,0,1-2,.11,14,14,0,0,1-.24-5.73C822.63,681.14,824.51,680,825.66,679.06Z" transform="translate(-37.94 -105.69)"/><path class="cls-11" d="M773.71,747.26c2.29-3.14,5.79-7.5,9.38-9l7.46,7.41c1.08,1.16,3.92,3.5,4.05,5-1.22-.52-1.87-1-3.23-.86-.15,1.58,1.27,3.36.48,4.51-1.61-.69-3.62-3.8-5-3.35l-.61,3.67-.85.53A25.48,25.48,0,0,1,780.9,751a13.93,13.93,0,0,0-3.55-3.26l-1.46,1Z" transform="translate(-37.94 -105.69)"/><path class="cls-80" d="M796.2,774.1l0-.15-.55-.49c.78-2.75,2.86-5.11,4.33-7.55l5.36-9.51L813.57,744c2-3.21,4-8.51,6.82-10.94l1.35.57C816.49,748.18,808.17,764,796.2,774.1Z" transform="translate(-37.94 -105.69)"/><path class="cls-58" d="M784.58,736.7c-2.12-2.54-3.47-5.93-4.89-8.89l-8.15-18.5a64.07,64.07,0,0,0,16.45-8.7,48.09,48.09,0,0,0,.29,6.79C788.41,716.63,788,728.07,784.58,736.7Z" transform="translate(-37.94 -105.69)"/><path class="cls-21" d="M820.78,652.7a12.86,12.86,0,0,1,2.26-3c2.69,5.29,7.07,10.39,11.05,14.79l-.58.18-3.67,4.23.49.44c1.54,1.38,3.27,3,3.33,5.2a47.94,47.94,0,0,1-.82,6.94l-2,15.48c-.76,5.76-.58,13.82-2.85,19.06l-1.1-27.68-1.21-9.24c-1.57-4.59-1.53-10-2.22-14.83A91.26,91.26,0,0,0,820.78,652.7Z" transform="translate(-37.94 -105.69)"/><path class="cls-81" d="M788.28,707.4a57.3,57.3,0,0,0,0-8c6.28-5.74,13.46-10.14,19-16.79l.57-.67c4.1-5,6.82-14.07,6.37-20.53a23.19,23.19,0,0,0-2.42-3l.58-.31a12.92,12.92,0,0,1,3.45,3.81c.33,4.65-2.93,12.46.15,16-.47,1.51-1.63,2.34-2.75,3.38-3.15,2.94-6.7,5.54-9.73,8.58a30.25,30.25,0,0,0-4.6,6.29,44.47,44.47,0,0,0-5.07,11.3c-1.61,6.35-1.52,13.42-2,20-.45,6.06-1.4,12.13-1.24,18.23l-7.46-7.41,1.49-1.56C788,728.07,788.41,716.63,788.28,707.4Z" transform="translate(-37.94 -105.69)"/><path class="cls-3" d="M826.81,719.18c0,4.18,1.28,7.77,2,11.83.75,4.61,1.12,9.24,1.54,13.88.15,1.71.68,4.11.47,5.75-1.86,1.94-2,4.23-2.56,6.8a104.31,104.31,0,0,0-2.86,18.78l-29.47-1.12.32-1c12-10.11,20.29-25.92,25.54-40.44h.06C823.48,728.89,824.68,723.74,826.81,719.18Z" transform="translate(-37.94 -105.69)"/><path class="cls-58" d="M828.64,821.7,842.88,839c2.07,2.56,4.72,5.2,6.32,8.06a44,44,0,0,1,4.12,10.17c.92,3.81.81,8,1.46,11.91,1.4,8.39,3.4,18.08,6.71,25.9l3.7,10.11a19.24,19.24,0,0,1,1.34,3.66l6.6,15.74-.57.7c-2.21,2.73-3.92,5.33-6.61,7.72l-6.55,5.66-25.61,19.69c-5,1.13-10.92.5-16.11.69l-51.44,1.29-8.62.16a12.89,12.89,0,0,0-3.85.25c-1.17-4.6-4.89-8.88-7.39-12.93a23.1,23.1,0,0,1-5.1-9.56c.54-2.5,3.39-3.53,5.49-4.93,1.4-2,3.61-3.46,5.49-5l9.94-8,24-20.27,18.32-14.68c4.46-3.57,9.23-7.18,12.94-11.53a37.13,37.13,0,0,0,7.13-13.36c3.74-12.31,2.24-25.74,3.94-38.34Z" transform="translate(-37.94 -105.69)"/><path class="cls-58" d="M746.77,933.25c-1.21,4.21-2.2,8.07-.78,12.36a8.6,8.6,0,0,1,.39,2.13,23.1,23.1,0,0,1-5.1-9.56C741.82,935.68,744.67,934.65,746.77,933.25Z" transform="translate(-37.94 -105.69)"/><path class="cls-58" d="M861.49,895l3.7,10.11a19.24,19.24,0,0,1,1.34,3.66l6.6,15.74-.57.7c-2.21,2.73-3.92,5.33-6.61,7.72l-6.55,5.66a37.31,37.31,0,0,1,0-6.85l.36-13.55.21-13.58c0-2.1-.22-4.75.21-6.77A11.31,11.31,0,0,1,861.49,895Z" transform="translate(-37.94 -105.69)"/><path class="cls-58" d="M866.53,908.77l6.6,15.74-.57.7c-2.21,2.73-3.92,5.33-6.61,7.72l-.23-17C865.75,913.58,865.41,910.84,866.53,908.77Z" transform="translate(-37.94 -105.69)"/><path class="cls-82" d="M677.88,822.58l33.87-.43,17.72.72.61.1,17.2.77c0,8.28-1.53,78.5.17,81.34l-23.09,22.16a48.53,48.53,0,0,1,6.65,4.85c1.56,1.38,3.36,3.47,5.26,4.31a10.27,10.27,0,0,0,4,.54l1,1.24a23.1,23.1,0,0,0,5.1,9.56c2.5,4,6.22,8.33,7.39,12.93l-1.57-.36-10,.35-15.23.1c-6.58.82-13.46.46-20.09.44l-29.58.4-.15-.63a16.11,16.11,0,0,0-5.2-3.11,32.44,32.44,0,0,1-6.82-1.62c-2.86-1.23-6.78-6.26-9.08-8.55-1.78-1.94-3.52-4.15-5.7-5.62,1.92-2.28,4.52-3.29,6.56-5.41a12.36,12.36,0,0,1,5.37,3c1.49-1.73,2-4.17,2.52-6.32l2.94-13.82L674,872C675.77,855.55,677.48,839.13,677.88,822.58Z" transform="translate(-37.94 -105.69)"/><path class="cls-8" d="M656.88,936.66a12.36,12.36,0,0,1,5.37,3c.49,4.42,2.42,11.53,4.89,15.29l4.78,2.93a32.44,32.44,0,0,1-6.82-1.62c-2.86-1.23-6.78-6.26-9.08-8.55-1.78-1.94-3.52-4.15-5.7-5.62C652.24,939.79,654.84,938.78,656.88,936.66Z" transform="translate(-37.94 -105.69)"/><path class="cls-83" d="M711.75,822.15l17.72.72.61.1,17.2.77c0,8.28-1.53,78.5.17,81.34l-23.09,22.16a48.53,48.53,0,0,1,6.65,4.85c1.56,1.38,3.36,3.47,5.26,4.31a10.27,10.27,0,0,0,4,.54l1,1.24a23.1,23.1,0,0,0,5.1,9.56c2.5,4,6.22,8.33,7.39,12.93l-1.57-.36-10,.35-15.23.1c-5-.49-10.61,0-15.71.12Z" transform="translate(-37.94 -105.69)"/><path d="M743.4,953.29l-27-20.61a33.81,33.81,0,0,0,7.22-4.82l.71-.62a48.53,48.53,0,0,1,6.65,4.85c1.56,1.38,3.36,3.47,5.26,4.31a10.27,10.27,0,0,0,4,.54l1,1.24a23.1,23.1,0,0,0,5.1,9.56c2.5,4,6.22,8.33,7.39,12.93l-1.57-.36-10,.35A63.3,63.3,0,0,1,743.4,953.29Z" transform="translate(-37.94 -105.69)"/><path class="cls-58" d="M743.4,953.29l8.8,7-10,.35A63.3,63.3,0,0,1,743.4,953.29Z" transform="translate(-37.94 -105.69)"/><path class="cls-11" d="M661,653.34c1.75.6,8.66,3.48,9.48,4.87-.65,3.75-3.68,5.84-6.15,8.52a31.09,31.09,0,0,0,3.71,3.64,15.23,15.23,0,0,0-1.19,3.31c-3.12-2.92-7.64-4-10.88-6.93A32.38,32.38,0,0,0,661,653.34Z" transform="translate(-37.94 -105.69)"/><path class="cls-84" d="M740.58,614.38a58,58,0,0,0,7.09,4.85l-15.93,28.41c-4.85,7.32-31,50.16-36.64,51.4-2.8.61-7.06-.85-9.68-1.82a2.68,2.68,0,0,1-.56-1.16c-1.76-6.38-6.41-12.22-10.26-17.59-1.34-1.86-2.81-3.33-3.61-5.52,6.09,3.27,12.21,6,19.1,7l41.45-55.17Z" transform="translate(-37.94 -105.69)"/><path class="cls-85" d="M624.25,669.59c3.89-.75,7.92-2,11.35.58a9,9,0,0,1,1.85,1.72c.74,2.09,2.5,1.91,3.15,3.56A24.26,24.26,0,0,0,638,678.7c-1.36,2.08-3.28,2.59-5.32,3.75l.79,5,0,37.8a49.26,49.26,0,0,0-6.49,1.5l-1.56-.54c-1,2.3-4.33,3.66-6.56,4.69l-1-.77L584.3,692.4Z" transform="translate(-37.94 -105.69)"/><path class="cls-72" d="M632.63,682.45l.79,5,0,37.8a49.26,49.26,0,0,0-6.49,1.5l-1.56-.54-20.25-29.5Z" transform="translate(-37.94 -105.69)"/><path class="cls-86" d="M655.93,666.75c3.24,3,7.76,4,10.88,6.93a15.23,15.23,0,0,1,1.19-3.31l3,2.58c.8,2.19,2.27,3.66,3.61,5.52,3.85,5.37,8.5,11.21,10.26,17.59a2.68,2.68,0,0,0,.56,1.16l-.73,2a27.83,27.83,0,0,1-3.22,5.44c-3.16,4.21-6.93,8.43-9.71,12.87-2,3.21-3,7.56-4,11.2-1.57,5.57-3.29,11.18-3.81,17-3.16,1.88-11.39,1.09-15.07.63-3.84-.49-12.68-1.58-15-4.6-1.48-1.5-1.45-4.14-3.21-5.11l-2.26,1.52-1.49.49c-2.19-.86-3.68-2.36-5.4-3.9l-2.66-3.81c2.23-1,5.61-2.39,6.56-4.69l1.56.54a49.26,49.26,0,0,1,6.49-1.5l0-37.8-.79-5c2-1.16,4-1.67,5.32-3.75a24.26,24.26,0,0,1,2.65-3.25c-.65-1.65-2.41-1.47-3.15-3.56a16.73,16.73,0,0,0,7.86,3.16,41.55,41.55,0,0,0,8.59-3.16l-.58-2.45Z" transform="translate(-37.94 -105.69)"/><path class="cls-87" d="M681.47,704.67l-.37-.4c-.94-1.12-1.84-1.85-1.73-3.33a14.77,14.77,0,0,1,5.32-1.71A27.83,27.83,0,0,1,681.47,704.67Z" transform="translate(-37.94 -105.69)"/><path class="cls-19" d="M635.39,740.23,633.6,738c-.06-2-.54-4.61.31-6.36l.69.11c1.31-.89,2.68-.77,4.2-.81a36.25,36.25,0,0,1,5.77,3.15l-8.78-.93a38.17,38.17,0,0,1,.36,6.4Z" transform="translate(-37.94 -105.69)"/><path class="cls-88" d="M637.45,671.89a16.73,16.73,0,0,0,7.86,3.16l-2.83,19.16a87,87,0,0,1-9.06-6.72l-.79-5c2-1.16,4-1.67,5.32-3.75a24.26,24.26,0,0,1,2.65-3.25C640,673.8,638.19,674,637.45,671.89Z" transform="translate(-37.94 -105.69)"/><path class="cls-21" d="M655.93,666.75c3.24,3,7.76,4,10.88,6.93,2,5.76.12,11.81-1.27,17.56-4.31-6.09-9-12.32-11.64-19.35l-.58-2.45Z" transform="translate(-37.94 -105.69)"/><path class="cls-14" d="M633.4,725.29c3.9.81,7.11,1.39,10.43,3.74l1.42,1.41-.4.65-.4-.1-.68-.15-.61-.15c-1.65-.4-2.82-.74-4.36.2-1.52,0-2.89-.08-4.2.81l-.69-.11c-.85,1.75-.37,4.41-.31,6.36l1.79,2.28a18.9,18.9,0,0,1-1.58,1.52c-1.48-1.5-1.45-4.14-3.21-5.11l-2.26,1.52-1.49.49c-2.19-.86-3.68-2.36-5.4-3.9l-2.66-3.81c2.23-1,5.61-2.39,6.56-4.69l1.56.54A49.26,49.26,0,0,1,633.4,725.29Z" transform="translate(-37.94 -105.69)"/><path class="cls-19" d="M625.35,726.25l1.56.54.38.84c.64,1.38,2,2.35,2.31,3.81l.75.25.47.37a3.1,3.1,0,0,0,1.78.63,13,13,0,0,1,.17,4.09l-.56-.56-1.11-.77a7.31,7.31,0,0,0-2.66,1.29l-.1,1.42-1.49.49c-2.19-.86-3.68-2.36-5.4-3.9l-2.66-3.81C621,729.91,624.4,728.55,625.35,726.25Z" transform="translate(-37.94 -105.69)"/><path class="cls-89" d="M633.42,687.49a87,87,0,0,0,9.06,6.72l-3.41,8.63,11.81-1.3a102.28,102.28,0,0,0-3.82,13.86c-.92,4.61-1.3,9.3-3.23,13.63-3.32-2.35-6.53-2.93-10.43-3.74Z" transform="translate(-37.94 -105.69)"/><path class="cls-9" d="M624.25,669.59a26.36,26.36,0,0,1-5.88-2.38c-4.94-3-10.16-7.32-11.34-13.27a12.8,12.8,0,0,1,.82-7.28c2.27-5.62,6.9-6.68,12-8.54a9.18,9.18,0,0,0,2.38-1.09,18.12,18.12,0,0,0,.3-2.69c.4-3.41.75-7.11,2.9-9.94,3.15-4.16,9.11-4.34,13.84-5,1.56-2.08,2.26-4.52,3.56-6.75a12.84,12.84,0,0,1,8.61-6,27.9,27.9,0,0,1,21.45,3.89c4,2.77,9.53,7.82,10.22,13,.65,4.9-1.5,8.55-4.21,12.31,1.18,2.21,3.17,7.48,2.29,9.94l-.6,1.06c-1,1.71-.28,3.06-.87,4.72-.65,1.82-2.74,3.91-4,5.42-1.72.22-4,.24-5.35,1.34-.82-1.39-7.73-4.27-9.48-4.87a32.38,32.38,0,0,1-5,13.41l-2.61,2.69.58,2.45a41.55,41.55,0,0,1-8.59,3.16,16.73,16.73,0,0,1-7.86-3.16,9,9,0,0,0-1.85-1.72C632.17,667.63,628.14,668.84,624.25,669.59Z" transform="translate(-37.94 -105.69)"/><path class="cls-19" d="M661,653.34c-.26-4.38-1.29-7.92-2-12.15a6.23,6.23,0,0,1,1-5.25c1.41-.93,1.49-1.25,3.22-1l.27,2c.88-.34,2.33-3.11,3-4a112.17,112.17,0,0,1,8.08-8.68c2.07,1.67,3,8.42,4.13,11l.2.44c1.18,2.21,3.17,7.48,2.29,9.94l-.6,1.06c-1,1.71-.28,3.06-.87,4.72-.65,1.82-2.74,3.91-4,5.42-1.72.22-4,.24-5.35,1.34C669.62,656.82,662.71,653.94,661,653.34Z" transform="translate(-37.94 -105.69)"/><path class="cls-90" d="M388.84,951.25l.22-101.92,64.75-2.59,19.23-.82a67.45,67.45,0,0,1,11,.05l-2.5.43c-.54,3.7-.18,7.74-.18,11.5l-.15,20.3-.87,85-91.53-1.68Z" transform="translate(-37.94 -105.69)"/><path class="cls-91" d="M617.77,730.17l1,.77,2.66,3.81c1.72,1.54,3.21,3,5.4,3.9l1.49-.49,2.26-1.52c1.76,1,1.73,3.61,3.21,5.11,2.36,3,11.2,4.11,15,4.6,3.68.46,11.91,1.25,15.07-.63,1.62,2.78,2.47,5.93,3.5,9,2.41,7.14,4.81,14.73,6,22.18,3.7,14.84,4.5,30.48,4.46,45.71-.4,16.55-2.11,33-3.89,49.42l-6.28,47.5-2.94,13.82c-.55,2.15-1,4.59-2.52,6.32a12.36,12.36,0,0,0-5.37-3c-2,2.12-4.64,3.13-6.56,5.41,2.18,1.47,3.92,3.68,5.7,5.62l.68,3.22-.13.18-1.06.35c-.11,3.36.07,7.09-.85,10.32l-1.94.29c-4.28-1.21-11.75-.34-16.37-.33l-7.94,0-112.6.89-35.46.57.87-85,.15-20.3c0-3.76-.36-7.8.18-11.5l2.5-.43,26.68,1.78,4.62-.09a3.34,3.34,0,0,0,.53-.72c.35-.89,0-4,0-5.15l0-17.44.12-90.76Z" transform="translate(-37.94 -105.69)"/><path d="M558.2,913.77a9.58,9.58,0,0,0,1.65,1.46l.12,2.22a2.92,2.92,0,0,0,1-1.9l.13-.18.72,2c-.38,3,.38,10.77-1,13.12l-.73-.31C557.35,926.23,558.2,918.55,558.2,913.77Z" transform="translate(-37.94 -105.69)"/><path d="M558,908.6c-2.12,2.29-4.18,7.82-6.89,9-.24-.24-.63-.38-.71-.71s.42-.81.62-1.21c1-1.93,3.82-6.07,4-8,.29-2.48-.25-5.73-.3-8.27l1.09-.88C557.2,901.41,558.69,905.44,558,908.6Z" transform="translate(-37.94 -105.69)"/><path d="M555.84,898.58c1.12-1.44,2.5-1.85,4.15-2.5a53.35,53.35,0,0,1,1.47,14.08,18.15,18.15,0,0,1-.36,5.21l-.13.18a2.92,2.92,0,0,1-1,1.9l-.12-2.22a9.58,9.58,0,0,1-1.65-1.46L558,908.6C558.69,905.44,557.2,901.41,555.84,898.58Z" transform="translate(-37.94 -105.69)"/><path class="cls-92" d="M621.45,734.75c1.72,1.54,3.21,3,5.4,3.9l1.49-.49a19.16,19.16,0,0,0,1.37,6.59,7.57,7.57,0,0,1-.46,6.12l-.26.46-1.88,2.26a14.1,14.1,0,0,1-2.27,5,15.68,15.68,0,0,1-3.73-2l-1.12.65a63.86,63.86,0,0,0-3.38-7.15,54.15,54.15,0,0,1,7.07-7Z" transform="translate(-37.94 -105.69)"/><path class="cls-93" d="M627.11,753.59c-1.53-1.18-2-1.18-2.35-3.15,1.08-1,1.6-1.81,3.08-2a24.83,24.83,0,0,1,1.15,2.89Z" transform="translate(-37.94 -105.69)"/><path class="cls-8" d="M570.22,895.23l6,6.13c-3.31,2.82-7.62,5.82-10.21,9.3-1.58,2.11-2.74,4.54-4.15,6.76l-.72-2a18.15,18.15,0,0,0,.36-5.21A53.35,53.35,0,0,0,560,896.08C563.59,895.16,566.62,895.62,570.22,895.23Z" transform="translate(-37.94 -105.69)"/><path class="cls-94" d="M636,863.57l.4,98.15-7.94,0h-28l.58-75.5Z" transform="translate(-37.94 -105.69)"/><path class="cls-95" d="M484.05,846l26.68,1.78,5.38.73-.3,114.18-35.46.57.87-85,.15-20.3c0-3.76-.36-7.8.18-11.5Z" transform="translate(-37.94 -105.69)"/><path class="cls-96" d="M620,757.26l1.12-.65a15.68,15.68,0,0,0,3.73,2l.69.31a9.65,9.65,0,0,0,2.44.58c3.41.5,6.83,2,10,3.25l19.92,7.69c-.48,12.62-2,25.41-3.55,38L652,824.06c-.38,2.36-1.29,5.75-.91,8.08l-.31.76a46.63,46.63,0,0,0-1.5,6.54l-2.51,10.49c-.66,2.76-1.08,5.62-3.07,7.79-2.19,2.38-5.29,3.77-7.75,5.85l-35,22.71-24.76,15.08-6-6.13c.59-1.54,2.1-2.81,3.25-4l10.34-9.38,27.09-24.22,7-5.84a17.81,17.81,0,0,0,2.66-2.18c.82-1.38,0-8.65-.08-10.51l-1.79-35.27c-.76-11.1-2-22.65-1.3-33.75A42.79,42.79,0,0,1,620,757.26Z" transform="translate(-37.94 -105.69)"/><path class="cls-97" d="M628.34,738.16l2.26-1.52c1.76,1,1.73,3.61,3.21,5.11,2.36,3,11.2,4.11,15,4.6,3.68.46,11.91,1.25,15.07-.63,1.62,2.78,2.47,5.93,3.5,9,2.41,7.14,4.81,14.73,6,22.18,3.7,14.84,4.5,30.48,4.46,45.71-.4,16.55-2.11,33-3.89,49.42l-6.28,47.5-2.94,13.82c-.55,2.15-1,4.59-2.52,6.32a12.36,12.36,0,0,0-5.37-3c-2,2.12-4.64,3.13-6.56,5.41,2.18,1.47,3.92,3.68,5.7,5.62l.68,3.22-.13.18-1.06.35c-.11,3.36.07,7.09-.85,10.32l-1.94.29c-4.28-1.21-11.75-.34-16.37-.33l-.4-98.15c2.46-2.08,5.56-3.47,7.75-5.85,2-2.17,2.41-5,3.07-7.79l2.51-10.49a46.63,46.63,0,0,1,1.5-6.54l.31-.76c-.38-2.33.53-5.72.91-8.08l2.39-15.7c1.59-12.54,3.07-25.33,3.55-38L638,762.72c-3.22-1.23-6.64-2.75-10-3.25a9.65,9.65,0,0,1-2.44-.58l-.69-.31a14.1,14.1,0,0,0,2.27-5l1.88-2.26.26-.46a7.57,7.57,0,0,0,.46-6.12A19.16,19.16,0,0,1,628.34,738.16Z" transform="translate(-37.94 -105.69)"/><path class="cls-58" d="M636,863.57c2.46-2.08,5.56-3.47,7.75-5.85,2-2.17,2.41-5,3.07-7.79l2.51-10.49a46.63,46.63,0,0,1,1.5-6.54l.31-.76,2.45,6.53c1.26,3.87,3.35,8.44,2.47,12.52a156.51,156.51,0,0,0-2.94,26.26c-.64,14.68.57,30.14,1.54,44.79.25,3.71-.12,10.76,1.86,13.84l.41.58c-2,2.12-4.64,3.13-6.56,5.41,2.18,1.47,3.92,3.68,5.7,5.62l.68,3.22-.13.18-1.06.35c-.11,3.36.07,7.09-.85,10.32l-1.94.29c-4.28-1.21-11.75-.34-16.37-.33Z" transform="translate(-37.94 -105.69)"/><path d="M650.32,942.07c2.18,1.47,3.92,3.68,5.7,5.62l.68,3.22-.13.18-1.06.35c-.11,3.36.07,7.09-.85,10.32l-1.94.29L650.1,950C649.28,947,648.71,944.89,650.32,942.07Z" transform="translate(-37.94 -105.69)"/></g></g></svg>