<svg xmlns="http://www.w3.org/2000/svg" xmlns:xlink="http://www.w3.org/1999/xlink" viewBox="0 0 451.12 320.4"><defs><style>.cls-1{fill:url(#White_Black_2);}.cls-2{fill:url(#linear-gradient);}.cls-3{fill:url(#linear-gradient-2);}.cls-4{fill:url(#linear-gradient-3);}.cls-5{fill:url(#linear-gradient-4);}.cls-6{fill:url(#linear-gradient-5);}.cls-7{isolation:isolate;}.cls-14,.cls-20,.cls-8,.cls-9{opacity:0.5;}.cls-8,.cls-9{mix-blend-mode:screen;}.cls-8{fill:url(#linear-gradient-6);}.cls-9{fill:url(#linear-gradient-7);}.cls-10,.cls-16,.cls-28{opacity:0.6;}.cls-10,.cls-11,.cls-12,.cls-13,.cls-14,.cls-147,.cls-15,.cls-16,.cls-17,.cls-18,.cls-19,.cls-20,.cls-21,.cls-27,.cls-28,.cls-29,.cls-30,.cls-31,.cls-36,.cls-41,.cls-46,.cls-51{mix-blend-mode:color-dodge;}.cls-10{fill:url(#linear-gradient-8);}.cls-11,.cls-17,.cls-27{opacity:0.8;}.cls-11{fill:url(#linear-gradient-9);}.cls-12,.cls-18{opacity:0.3;}.cls-12{fill:url(#linear-gradient-10);}.cls-13,.cls-19,.cls-31{opacity:0.15;}.cls-13{fill:url(#linear-gradient-11);}.cls-14{fill:url(#linear-gradient-12);}.cls-15{fill:url(#linear-gradient-13);}.cls-16{fill:url(#linear-gradient-14);}.cls-17{fill:url(#linear-gradient-15);}.cls-18{fill:url(#linear-gradient-16);}.cls-19{fill:url(#linear-gradient-17);}.cls-20{fill:url(#linear-gradient-18);}.cls-21{fill:url(#linear-gradient-19);}.cls-22{fill:url(#linear-gradient-20);}.cls-23{fill:url(#linear-gradient-21);}.cls-24{fill:url(#linear-gradient-22);}.cls-25{fill:url(#linear-gradient-23);}.cls-26{fill:url(#linear-gradient-24);}.cls-27{fill:url(#linear-gradient-25);}.cls-28{fill:url(#linear-gradient-26);}.cls-29{opacity:0.4;fill:url(#linear-gradient-27);}.cls-30{opacity:0.25;fill:url(#linear-gradient-28);}.cls-31{fill:url(#linear-gradient-29);}.cls-32{mask:url(#mask);}.cls-33{mask:url(#mask-2);}.cls-34{opacity:0.95;}.cls-35{fill:url(#linear-gradient-30);}.cls-36{fill:url(#Radial_Gradient_1);}.cls-37{fill:url(#linear-gradient-31);}.cls-38{fill:url(#linear-gradient-32);}.cls-39{mask:url(#mask-3);}.cls-40{fill:url(#linear-gradient-33);}.cls-41{fill:url(#Radial_Gradient_1-2);}.cls-42{fill:url(#linear-gradient-34);}.cls-43{fill:url(#linear-gradient-35);}.cls-44{mask:url(#mask-4);}.cls-45{fill:url(#linear-gradient-36);}.cls-46{fill:url(#Radial_Gradient_1-3);}.cls-47{fill:url(#linear-gradient-37);}.cls-48{fill:url(#linear-gradient-38);}.cls-49{mask:url(#mask-5);}.cls-50{fill:url(#linear-gradient-39);}.cls-51{fill:url(#Radial_Gradient_1-4);}.cls-52{fill:url(#linear-gradient-40);}.cls-53{fill:url(#linear-gradient-41);}.cls-54{mask:url(#mask-6);}.cls-55{fill:url(#linear-gradient-42);}.cls-56{fill:url(#linear-gradient-43);}.cls-57{fill:url(#linear-gradient-44);}.cls-58{fill:url(#linear-gradient-45);}.cls-131,.cls-59,.cls-60,.cls-64,.cls-80,.cls-81,.cls-86,.cls-90{mix-blend-mode:multiply;}.cls-59{fill:url(#linear-gradient-46);}.cls-60{fill:url(#linear-gradient-47);}.cls-61{fill:url(#radial-gradient);}.cls-62{fill:url(#radial-gradient-2);}.cls-63{fill:url(#linear-gradient-48);}.cls-64{fill:url(#linear-gradient-49);}.cls-65{fill:url(#radial-gradient-3);}.cls-66{fill:url(#radial-gradient-4);}.cls-67{fill:url(#radial-gradient-5);}.cls-68{fill:url(#radial-gradient-6);}.cls-69{fill:#020202;}.cls-70{fill:url(#linear-gradient-50);}.cls-71{fill:url(#linear-gradient-51);}.cls-72{fill:url(#linear-gradient-52);}.cls-73{fill:url(#linear-gradient-53);}.cls-74{fill:url(#linear-gradient-54);}.cls-75{fill:url(#linear-gradient-55);}.cls-76{fill:url(#radial-gradient-7);}.cls-77{fill:url(#radial-gradient-8);}.cls-78{fill:url(#radial-gradient-9);}.cls-79{fill:url(#radial-gradient-10);}.cls-80{fill:#d1d3d4;}.cls-81{opacity:0.1;}.cls-82{fill:url(#linear-gradient-56);}.cls-83{fill:url(#radial-gradient-11);}.cls-84{fill:url(#linear-gradient-57);}.cls-85{fill:url(#radial-gradient-12);}.cls-86{fill:url(#linear-gradient-58);}.cls-87{fill:url(#radial-gradient-13);}.cls-88{fill:url(#radial-gradient-14);}.cls-89{fill:url(#linear-gradient-59);}.cls-90{fill:url(#linear-gradient-60);}.cls-91{fill:url(#linear-gradient-61);}.cls-92{fill:url(#radial-gradient-15);}.cls-93{fill:url(#radial-gradient-16);}.cls-94{fill:url(#radial-gradient-17);}.cls-95{fill:#10054d;}.cls-96{fill:#6f3321;}.cls-97{fill:url(#radial-gradient-18);}.cls-98{fill:url(#radial-gradient-19);}.cls-99{fill:url(#linear-gradient-62);}.cls-100{fill:url(#radial-gradient-20);}.cls-101{fill:url(#radial-gradient-21);}.cls-102{fill:url(#linear-gradient-63);}.cls-103{fill:url(#radial-gradient-22);}.cls-104{fill:url(#linear-gradient-64);}.cls-105{fill:url(#radial-gradient-23);}.cls-106{fill:#f7870d;}.cls-107{fill:#ef770a;}.cls-108{opacity:0;}.cls-109{opacity:0.01;}.cls-110{opacity:0.02;}.cls-111{opacity:0.03;}.cls-112{opacity:0.04;}.cls-113{opacity:0.05;}.cls-114{opacity:0.06;}.cls-115{opacity:0.07;}.cls-116{opacity:0.08;}.cls-117{opacity:0.09;}.cls-118{opacity:0.1;}.cls-119{opacity:0.1;}.cls-120{opacity:0.11;}.cls-121{opacity:0.12;}.cls-122{opacity:0.13;}.cls-123{opacity:0.14;}.cls-124{opacity:0.15;}.cls-125{opacity:0.16;}.cls-126{opacity:0.17;}.cls-127{opacity:0.18;}.cls-128{opacity:0.19;}.cls-129{opacity:0.2;}.cls-130{fill:#561c0f;}.cls-131{fill:url(#radial-gradient-24);}.cls-132{fill:url(#radial-gradient-25);}.cls-133{fill:url(#radial-gradient-26);}.cls-134{fill:url(#radial-gradient-27);}.cls-135{fill:url(#radial-gradient-28);}.cls-136{fill:url(#radial-gradient-29);}.cls-137{fill:url(#radial-gradient-30);}.cls-138{fill:url(#New_Gradient_Swatch_copy_7);}.cls-139{fill:url(#radial-gradient-31);}.cls-140{fill:url(#linear-gradient-65);}.cls-141{fill:url(#linear-gradient-66);}.cls-142{fill:#e06406;}.cls-143{fill:url(#radial-gradient-32);}.cls-144{fill:url(#linear-gradient-67);}.cls-145{fill:url(#linear-gradient-68);}.cls-146{fill:url(#linear-gradient-69);}.cls-147{fill:url(#radial-gradient-33);}.cls-148{fill:url(#linear-gradient-70);}.cls-149{fill:url(#linear-gradient-71);}</style><linearGradient id="White_Black_2" x1="441.93" y1="249.56" x2="482.2" y2="326.21" gradientUnits="userSpaceOnUse"><stop offset="0" stop-color="#fff"/><stop offset="1"/></linearGradient><linearGradient id="linear-gradient" x1="7162.6" y1="2776.53" x2="7162.6" y2="2519.11" gradientTransform="translate(-6634.71 -2429.33)" gradientUnits="userSpaceOnUse"><stop offset="0.56" stop-color="#fff"/><stop offset="0.61" stop-color="#f5f4f5"/><stop offset="0.69" stop-color="#d8d8d9"/><stop offset="0.8" stop-color="#abaaab"/><stop offset="0.92" stop-color="#6c6c6d"/><stop offset="1" stop-color="#414042"/></linearGradient><linearGradient id="linear-gradient-2" x1="7200.89" y1="2754.27" x2="7200.89" y2="2496.84" gradientTransform="translate(-6711.27 -2384.79)" xlink:href="#linear-gradient"/><linearGradient id="linear-gradient-3" x1="7238.86" y1="2732" x2="7238.86" y2="2474.57" gradientTransform="translate(-6787.23 -2340.25)" xlink:href="#linear-gradient"/><linearGradient id="linear-gradient-4" x1="7277.14" y1="2709.73" x2="7277.14" y2="2452.31" gradientTransform="translate(-6863.79 -2295.72)" xlink:href="#linear-gradient"/><linearGradient id="linear-gradient-5" x1="7316.04" y1="2687.16" x2="7316.04" y2="2429.73" gradientTransform="translate(-6941.57 -2250.57)" xlink:href="#linear-gradient"/><linearGradient id="linear-gradient-6" x1="635.32" y1="404.14" x2="631.48" y2="401.25" gradientUnits="userSpaceOnUse"><stop offset="0" stop-color="#3d065f"/><stop offset="0.97" stop-color="#020002"/><stop offset="1"/></linearGradient><linearGradient id="linear-gradient-7" x1="703.52" y1="485.74" x2="301.38" y2="183.33" xlink:href="#linear-gradient-6"/><linearGradient id="linear-gradient-8" x1="261.69" y1="266.86" x2="271.12" y2="266.86" gradientUnits="userSpaceOnUse"><stop offset="0" stop-color="#fa5310"/><stop offset="0.14" stop-color="#da4700"/><stop offset="0.32" stop-color="#c13f00"/><stop offset="0.54" stop-color="#ad3b00"/><stop offset="0.77" stop-color="#712300"/><stop offset="1" stop-color="#521b00"/></linearGradient><linearGradient id="linear-gradient-9" x1="266.44" y1="264.02" x2="276.2" y2="264.02" xlink:href="#linear-gradient-8"/><linearGradient id="linear-gradient-10" x1="252.21" y1="272.53" x2="260.96" y2="272.53" xlink:href="#linear-gradient-8"/><linearGradient id="linear-gradient-11" x1="248.99" y1="274.8" x2="256.58" y2="274.8" xlink:href="#linear-gradient-8"/><linearGradient id="linear-gradient-12" x1="256.95" y1="269.69" x2="266.04" y2="269.69" xlink:href="#linear-gradient-8"/><linearGradient id="linear-gradient-13" x1="265.94" y1="261.09" x2="286.46" y2="261.09" xlink:href="#linear-gradient-8"/><linearGradient id="linear-gradient-14" x1="325.21" y1="261.37" x2="334.64" y2="261.37" xlink:href="#linear-gradient-8"/><linearGradient id="linear-gradient-15" x1="329.96" y1="258.53" x2="339.72" y2="258.53" xlink:href="#linear-gradient-8"/><linearGradient id="linear-gradient-16" x1="315.73" y1="267.04" x2="324.48" y2="267.04" xlink:href="#linear-gradient-8"/><linearGradient id="linear-gradient-17" x1="312.5" y1="269.31" x2="320.1" y2="269.31" xlink:href="#linear-gradient-8"/><linearGradient id="linear-gradient-18" x1="320.47" y1="264.2" x2="329.56" y2="264.2" xlink:href="#linear-gradient-8"/><linearGradient id="linear-gradient-19" x1="329.46" y1="255.59" x2="349.98" y2="255.59" xlink:href="#linear-gradient-8"/><linearGradient id="linear-gradient-20" x1="280.53" y1="43.4" x2="286.81" y2="43.4" xlink:href="#linear-gradient-8"/><linearGradient id="linear-gradient-21" x1="271.98" y1="48.3" x2="278.26" y2="48.3" xlink:href="#linear-gradient-8"/><linearGradient id="linear-gradient-22" x1="263.42" y1="53.19" x2="269.7" y2="53.19" xlink:href="#linear-gradient-8"/><linearGradient id="linear-gradient-23" x1="254.86" y1="58.09" x2="261.15" y2="58.09" xlink:href="#linear-gradient-8"/><linearGradient id="linear-gradient-24" x1="246.31" y1="62.98" x2="252.59" y2="62.98" xlink:href="#linear-gradient-8"/><linearGradient id="linear-gradient-25" x1="216.22" y1="107.71" x2="222.5" y2="107.71" xlink:href="#linear-gradient-8"/><linearGradient id="linear-gradient-26" x1="207.67" y1="112.61" x2="213.95" y2="112.61" xlink:href="#linear-gradient-8"/><linearGradient id="linear-gradient-27" x1="199.11" y1="117.5" x2="205.39" y2="117.5" xlink:href="#linear-gradient-8"/><linearGradient id="linear-gradient-28" x1="190.55" y1="122.4" x2="196.84" y2="122.4" xlink:href="#linear-gradient-8"/><linearGradient id="linear-gradient-29" x1="182" y1="127.29" x2="188.28" y2="127.29" xlink:href="#linear-gradient-8"/><mask id="mask" x="129.39" y="24.24" width="270.23" height="279.33" maskUnits="userSpaceOnUse"><g transform="translate(-188.88 -84.6)"><polygon class="cls-1" points="318.92 255 550.83 108.84 588.5 219.92 583.3 284.23 367.64 388.17 318.27 362.18 318.92 255"/></g></mask><mask id="mask-2" x="280.12" y="-10.02" width="117.8" height="283.01" maskUnits="userSpaceOnUse"><g transform="translate(-188.88 -84.6)"><rect class="cls-2" x="469" y="74.58" width="117.8" height="283.01" transform="translate(1055.79 432.17) rotate(180)"/></g></mask><linearGradient id="linear-gradient-30" x1="361.77" y1="52.25" x2="334.26" y2="99.91" xlink:href="#linear-gradient-8"/><radialGradient id="Radial_Gradient_1" cx="343.61" cy="93.22" r="24.23" xlink:href="#White_Black_2"/><linearGradient id="linear-gradient-31" x1="343.62" y1="142.27" x2="376.56" y2="142.27" xlink:href="#linear-gradient-8"/><linearGradient id="linear-gradient-32" x1="277.31" y1="133.91" x2="373.11" y2="149.96" xlink:href="#linear-gradient-8"/><mask id="mask-3" x="241.84" y="12.24" width="117.8" height="283.01" maskUnits="userSpaceOnUse"><g transform="translate(-188.88 -84.6)"><rect class="cls-3" x="430.72" y="96.85" width="117.8" height="283.01" transform="translate(979.23 476.71) rotate(180)"/></g></mask><linearGradient id="linear-gradient-33" x1="323.49" y1="90.08" x2="295.98" y2="137.73" xlink:href="#linear-gradient-8"/><radialGradient id="Radial_Gradient_1-2" cx="305.33" cy="131.05" r="24.23" xlink:href="#White_Black_2"/><linearGradient id="linear-gradient-34" x1="305.34" y1="172.31" x2="338.28" y2="172.31" xlink:href="#linear-gradient-8"/><linearGradient id="linear-gradient-35" x1="241.5" y1="164.37" x2="332.55" y2="179.63" xlink:href="#linear-gradient-8"/><mask id="mask-4" x="203.86" y="34.51" width="117.8" height="283.01" maskUnits="userSpaceOnUse"><g transform="translate(-188.88 -84.6)"><rect class="cls-4" x="392.74" y="119.12" width="117.8" height="283.01" transform="translate(903.27 521.25) rotate(180)"/></g></mask><linearGradient id="linear-gradient-36" x1="285.51" y1="128.31" x2="258" y2="175.96" xlink:href="#linear-gradient-8"/><radialGradient id="Radial_Gradient_1-3" cx="267.35" cy="169.28" r="24.23" xlink:href="#White_Black_2"/><linearGradient id="linear-gradient-37" x1="267.36" y1="202.56" x2="300.3" y2="202.56" xlink:href="#linear-gradient-8"/><linearGradient id="linear-gradient-38" x1="206.06" y1="195.05" x2="292.24" y2="209.49" xlink:href="#linear-gradient-8"/><mask id="mask-5" x="165.58" y="56.78" width="117.8" height="283.01" maskUnits="userSpaceOnUse"><g transform="translate(-188.88 -84.6)"><rect class="cls-5" x="354.46" y="141.38" width="117.8" height="283.01" transform="translate(826.71 565.78) rotate(180)"/></g></mask><linearGradient id="linear-gradient-39" x1="247.23" y1="166.13" x2="219.72" y2="213.79" xlink:href="#linear-gradient-8"/><radialGradient id="Radial_Gradient_1-4" cx="229.07" cy="207.1" r="24.23" xlink:href="#White_Black_2"/><linearGradient id="linear-gradient-40" x1="229.08" y1="232.61" x2="262.02" y2="232.61" xlink:href="#linear-gradient-8"/><linearGradient id="linear-gradient-41" x1="170.25" y1="225.51" x2="251.67" y2="239.15" xlink:href="#linear-gradient-8"/><mask id="mask-6" x="126.68" y="79.35" width="117.8" height="283.01" maskUnits="userSpaceOnUse"><g transform="translate(-188.88 -84.6)"><rect class="cls-6" x="315.56" y="163.96" width="117.8" height="283.01" transform="translate(748.93 610.93) rotate(180)"/></g></mask><linearGradient id="linear-gradient-42" x1="208.34" y1="203.94" x2="180.83" y2="251.6" xlink:href="#linear-gradient-8"/><linearGradient id="linear-gradient-43" x1="157.25" y1="244.91" x2="223.1" y2="244.91" xlink:href="#linear-gradient-8"/><linearGradient id="linear-gradient-44" x1="190.18" y1="262.8" x2="223.12" y2="262.8" xlink:href="#linear-gradient-8"/><linearGradient id="linear-gradient-45" x1="133.77" y1="256.11" x2="210.55" y2="268.97" xlink:href="#linear-gradient-8"/><linearGradient id="linear-gradient-46" x1="372.96" y1="317.08" x2="396.24" y2="311.39" gradientUnits="userSpaceOnUse"><stop offset="0.21" stop-color="#d4d1d8"/><stop offset="1" stop-color="#fff"/></linearGradient><linearGradient id="linear-gradient-47" x1="403.18" y1="288.23" x2="403.46" y2="303.88" xlink:href="#linear-gradient-46"/><radialGradient id="radial-gradient" cx="398.03" cy="228.76" r="46.39" gradientUnits="userSpaceOnUse"><stop offset="0.03" stop-color="#fedfcb"/><stop offset="0.78" stop-color="#f9b69e"/><stop offset="0.99" stop-color="#f2a78c"/></radialGradient><radialGradient id="radial-gradient-2" cx="377.78" cy="263.06" r="4.11" xlink:href="#radial-gradient"/><linearGradient id="linear-gradient-48" x1="401.04" y1="265.59" x2="398.71" y2="231.09" gradientUnits="userSpaceOnUse"><stop offset="0.01" stop-color="#c6ccd1"/><stop offset="1" stop-color="#fff"/></linearGradient><linearGradient id="linear-gradient-49" x1="387.3" y1="255.86" x2="382.48" y2="250" gradientUnits="userSpaceOnUse"><stop offset="0.01" stop-color="#e6e7e8"/><stop offset="0.64" stop-color="#fff"/></linearGradient><radialGradient id="radial-gradient-3" cx="411.05" cy="271.97" r="21.94" xlink:href="#radial-gradient"/><radialGradient id="radial-gradient-4" cx="416.91" cy="283.72" r="19.83" xlink:href="#radial-gradient"/><radialGradient id="radial-gradient-5" cx="400.39" cy="304.23" r="33.11" xlink:href="#radial-gradient"/><radialGradient id="radial-gradient-6" cx="446.64" cy="292.01" r="69.2" xlink:href="#radial-gradient"/><linearGradient id="linear-gradient-50" x1="382.15" y1="267.94" x2="405.18" y2="267.94" xlink:href="#linear-gradient-8"/><linearGradient id="linear-gradient-51" x1="397.64" y1="262.51" x2="406.93" y2="253.89" xlink:href="#linear-gradient-8"/><linearGradient id="linear-gradient-52" x1="402.52" y1="292.59" x2="399.01" y2="287.47" gradientUnits="userSpaceOnUse"><stop offset="0.09" stop-color="#25054d"/><stop offset="0.47" stop-color="#330a68"/><stop offset="0.89" stop-color="#45108a"/></linearGradient><linearGradient id="linear-gradient-53" x1="397.57" y1="275.3" x2="401.89" y2="264.87" xlink:href="#linear-gradient-8"/><linearGradient id="linear-gradient-54" x1="388.76" y1="269.51" x2="404.2" y2="270.65" xlink:href="#linear-gradient-8"/><linearGradient id="linear-gradient-55" x1="388.83" y1="245.83" x2="405.42" y2="245.83" gradientUnits="userSpaceOnUse"><stop offset="0.04" stop-color="#602213"/><stop offset="0.57" stop-color="#6d310e"/><stop offset="1" stop-color="#7a4108"/></linearGradient><radialGradient id="radial-gradient-7" cx="428.5" cy="227.8" r="3.64" xlink:href="#radial-gradient"/><radialGradient id="radial-gradient-8" cx="426.59" cy="227.57" r="3.18" xlink:href="#radial-gradient"/><radialGradient id="radial-gradient-9" cx="431.64" cy="228.08" r="6.17" xlink:href="#radial-gradient"/><radialGradient id="radial-gradient-10" cx="427.65" cy="227.51" r="3.49" xlink:href="#radial-gradient"/><linearGradient id="linear-gradient-56" x1="435.67" y1="223.67" x2="467.03" y2="223.67" gradientUnits="userSpaceOnUse"><stop offset="0.04" stop-color="#9d9eb3"/><stop offset="0.58" stop-color="#d4d1d8"/><stop offset="1" stop-color="#eeebf2"/></linearGradient><radialGradient id="radial-gradient-11" cx="414.7" cy="219.95" r="12.28" xlink:href="#radial-gradient"/><linearGradient id="linear-gradient-57" x1="444.99" y1="214.09" x2="419.57" y2="181.88" xlink:href="#linear-gradient-8"/><radialGradient id="radial-gradient-12" cx="449.15" cy="189.03" r="10.9" xlink:href="#radial-gradient"/><linearGradient id="linear-gradient-58" x1="435.68" y1="191.32" x2="440.79" y2="193.46" gradientUnits="userSpaceOnUse"><stop offset="0.04" stop-color="#9d9eb3"/><stop offset="0.58" stop-color="#d4d1d8"/><stop offset="1" stop-color="#fff"/></linearGradient><radialGradient id="radial-gradient-13" cx="455.93" cy="215.92" r="9.82" xlink:href="#radial-gradient"/><radialGradient id="radial-gradient-14" cx="433.89" cy="188.35" r="8.35" xlink:href="#radial-gradient"/><linearGradient id="linear-gradient-59" x1="445.91" y1="185.77" x2="430.66" y2="183.98" xlink:href="#linear-gradient-55"/><linearGradient id="linear-gradient-60" x1="460.73" y1="199.52" x2="454.29" y2="203.98" xlink:href="#linear-gradient-58"/><linearGradient id="linear-gradient-61" x1="470.59" y1="194.33" x2="439.97" y2="212.05" xlink:href="#linear-gradient-8"/><radialGradient id="radial-gradient-15" cx="425.94" cy="223.83" r="3.01" xlink:href="#radial-gradient"/><radialGradient id="radial-gradient-16" cx="420.04" cy="221.78" r="1.86" xlink:href="#radial-gradient"/><radialGradient id="radial-gradient-17" cx="420.04" cy="221.78" r="1.86" xlink:href="#radial-gradient"/><radialGradient id="radial-gradient-18" cx="547.55" cy="88.76" r="14.86" xlink:href="#radial-gradient"/><radialGradient id="radial-gradient-19" cx="497.96" cy="88.9" r="24.35" xlink:href="#radial-gradient"/><linearGradient id="linear-gradient-62" x1="508.8" y1="135.28" x2="527.55" y2="92.96" xlink:href="#linear-gradient-8"/><radialGradient id="radial-gradient-20" cx="515.85" cy="78.63" r="7.12" xlink:href="#radial-gradient"/><radialGradient id="radial-gradient-21" cx="545.01" cy="86.67" r="3.63" xlink:href="#radial-gradient"/><linearGradient id="linear-gradient-63" x1="519.83" y1="121.55" x2="521.18" y2="112.89" xlink:href="#linear-gradient-56"/><radialGradient id="radial-gradient-22" cx="520.26" cy="92.59" r="13.85" xlink:href="#radial-gradient"/><linearGradient id="linear-gradient-64" x1="522.95" y1="99.53" x2="530.27" y2="99.53" xlink:href="#linear-gradient-55"/><radialGradient id="radial-gradient-23" cx="519.05" cy="79.04" r="23.55" xlink:href="#radial-gradient"/><radialGradient id="radial-gradient-24" cx="523.47" cy="238.09" r="3.55" gradientUnits="userSpaceOnUse"><stop offset="0" stop-color="#bcbec0"/><stop offset="0.57" stop-color="#e5e6e6"/><stop offset="1" stop-color="#fff"/></radialGradient><radialGradient id="radial-gradient-25" cx="524.06" cy="258.05" r="8" gradientUnits="userSpaceOnUse"><stop offset="0.03" stop-color="#fedfcb"/><stop offset="1" stop-color="#f9b69e"/></radialGradient><radialGradient id="radial-gradient-26" cx="520.57" cy="258.6" r="0.35" xlink:href="#radial-gradient-25"/><radialGradient id="radial-gradient-27" cx="521.62" cy="258.71" r="0.29" xlink:href="#radial-gradient-25"/><radialGradient id="radial-gradient-28" cx="525.44" cy="256.51" r="1.53" xlink:href="#radial-gradient-25"/><radialGradient id="radial-gradient-29" cx="519.65" cy="259.84" r="0" xlink:href="#radial-gradient-25"/><radialGradient id="radial-gradient-30" cx="521.96" cy="257.97" r="0.33" xlink:href="#radial-gradient-25"/><linearGradient id="New_Gradient_Swatch_copy_7" x1="82.2" y1="777.01" x2="87.25" y2="777.3" gradientTransform="translate(525.98 -540.7) rotate(5.83)" gradientUnits="userSpaceOnUse"><stop offset="0.04" stop-color="#138bbd"/><stop offset="0.23" stop-color="#169ac7"/><stop offset="0.59" stop-color="#1fc3df"/><stop offset="1" stop-color="#2af6ff"/></linearGradient><radialGradient id="radial-gradient-31" cx="2344.24" cy="10870.37" r="18.59" gradientTransform="translate(11638.96 816.66) rotate(105.16)" xlink:href="#radial-gradient"/><linearGradient id="linear-gradient-65" x1="82.3" y1="778.23" x2="80.74" y2="776.82" gradientTransform="translate(525.98 -540.7) rotate(5.83)" xlink:href="#linear-gradient-56"/><linearGradient id="linear-gradient-66" x1="83.97" y1="788.69" x2="90.22" y2="779" gradientTransform="translate(525.98 -540.7) rotate(5.83)" xlink:href="#linear-gradient-8"/><radialGradient id="radial-gradient-32" cx="-10230.69" cy="-1255.61" r="7.31" gradientTransform="translate(10816.42 -437.4) rotate(-10.77)" xlink:href="#radial-gradient-25"/><linearGradient id="linear-gradient-67" x1="-10224.69" y1="-1251.54" x2="-10229.62" y2="-1260.26" gradientTransform="translate(10816.42 -437.4) rotate(-10.77)" xlink:href="#linear-gradient-55"/><linearGradient id="linear-gradient-68" x1="-10227.05" y1="-1247.3" x2="-10228.59" y2="-1250.03" gradientTransform="translate(10816.42 -437.4) rotate(-10.77)" xlink:href="#linear-gradient-56"/><linearGradient id="linear-gradient-69" x1="-10236" y1="-1233.37" x2="-10217.66" y2="-1233.37" gradientTransform="translate(10816.42 -437.4) rotate(-10.77)" xlink:href="#linear-gradient-8"/><radialGradient id="radial-gradient-33" cx="-10227.86" cy="-1246.88" r="4.5" gradientTransform="translate(10816.42 -437.4) rotate(-10.77)" xlink:href="#White_Black_2"/><linearGradient id="linear-gradient-70" x1="529.61" y1="266.24" x2="539.38" y2="266.24" xlink:href="#linear-gradient-8"/><linearGradient id="linear-gradient-71" x1="20265.37" y1="267.21" x2="20274.27" y2="253.27" gradientTransform="matrix(-1, 0, 0, 1, 20799.04, 0)" xlink:href="#linear-gradient-8"/></defs><g class="cls-7"><g id="Layer_1" data-name="Layer 1"><path class="cls-8" d="M637.09,400l-8.23,4.77A13.75,13.75,0,0,0,637.09,400Z" transform="translate(-188.88 -84.6)"/><path class="cls-9" d="M531.1,138l-.15-.27L188.88,335.58l.39.66-.06.09.16.09v0h0L307.59,405h2l-26-15.08,30.07-17.4L343.72,390l-26,15.05h2l25-14.47L369.66,405h2l-26-15.05,30.07-17.41L405.85,390l-25.94,15h2l24.94-14.44L431.76,405h2l-25.91-15,30.07-17.42L468,390l-25.91,15h2L469,390.57,493.87,405h2L470,390,500,372.57,530.11,390l-25.89,15h2l24.89-14.43L556,405h2L532.1,390l30.07-17.43L592.24,390l-25.9,15h2l24.89-14.43L618.14,405h2l-25.91-15,30.07-17.43,15.7,9.1V380.5L625.3,372l14.7-8.53v-1.15l-15.7,9.1L594.23,354l30.07-17.42,15.7,9.09v-1.15L625.3,336l14.7-8.52v-1.15l-15.7,9.1L594.23,318l30.07-17.42,15.7,9.09v-1.16L625.3,300l14.7-8.52v-1.16l-15.7,9.1L594.23,282l30.07-17.42L640,273.7v-1.15L625.29,264,640,255.52v-1.16l-15.7,9.1-30.07-17.4,30.07-17.41,15.7,9.08v-1.15l-14.7-8.51,14.7-8.51V218.4l-15.7,9.09L594.23,210.1l30.07-17.41,15.7,9.09v-1.16l-108.75-62.9ZM500,156.76l30.07,17.39L500,191.55,470,174.15ZM283.58,317.93l30.07-17.39L343.72,318l-30.07,17.4Zm29.07,18-30.06,17.4-30.07-17.43,30.07-17.4ZM407.84,282l30.07-17.4L468,282l-30.07,17.4Zm29.07,18-30.06,17.4L376.78,300l30.07-17.4Zm62.13-36L469,281.45,438.91,264,469,246.64Zm-29.07-18L500,228.66l30.07,17.4L500,263.47Zm-1,36.55L499,300,469,317.43,438.91,300Zm1-.58L500,264.62,530.11,282,500,299.44Zm61.13.58L561.17,300,531.1,317.43,501,300ZM501,264.05l30.06-17.41,30.07,17.41-30.07,17.4Zm0-36,30.06-17.4,30.07,17.4L531.1,245.49Zm-1-.58L470,210.1,500,192.7l30.07,17.4Zm-1,.58L469,245.48l-30.07-17.41L469,210.68Zm-31.06,18-30.07,17.4L407.84,246l30.07-17.39Zm-31.07,18-30.06,17.4L376.78,264l30.06-17.4Zm-31.06,18-30.07,17.4L345.71,282l30.07-17.4Zm-31.07,18-30.06,17.4L314.65,300l30.06-17.39Zm-30.06,18.56L374.78,336l-30.06,17.41L314.65,336Zm1-.58,30.07-17.4L405.85,318,375.78,335.4Zm61.13.6L436.91,336,406.85,353.4,376.78,336Zm1-.58,30.07-17.4L468,318l-30.07,17.41Zm61.13.59L499,336,469,353.42,438.91,336Zm1-.57L500,300.6,530.11,318,500,335.42Zm61.13.58L561.17,336,531.1,353.42,501,336Zm1-.58,30.07-17.41L592.23,318l-30.06,17.41Zm0-36,30.07-17.41L592.23,282l-30.06,17.41Zm0-36,30.07-17.4,30.06,17.4-30.06,17.41Zm30.07-18.56L532.1,210.1l30.07-17.4,30.06,17.4Zm-31.07-18L501,192.13l30.06-17.4,30.07,17.4ZM469,174.73,499,192.13,469,209.52l-30.07-17.4Zm-31.06,18L468,210.1l-30.07,17.39-30.07-17.4Zm-31.07,18,30.07,17.41-30.06,17.4-30.07-17.42Zm-31.06,18L405.85,246l-30.07,17.4L345.71,246Zm-31.06,18L374.78,264l-30.06,17.39L314.65,264Zm-31.07,18L343.72,282l-30.07,17.39L283.58,282Zm-31.06,18L312.65,300l-30.06,17.4-30.07-17.44Zm-31.07,18,30.07,17.43-30.07,17.4-30.07-17.44Zm-61.13,35.36,30.07-17.39,30.06,17.44L220.46,353.3Zm31.06,18,30.07-17.4,30.07,17.44-30.07,17.4Zm61.14,35.46L252.52,371.9l30.07-17.4,30.06,17.44Zm1-35.42,30.07-17.4L343.72,354l-30.07,17.4Zm61.14,35.46-30.07-17.44,30.07-17.41L374.78,372Zm1-35.42,30.07-17.41L405.85,354l-30.07,17.41Zm61.14,35.44L376.78,372l30.07-17.41L436.91,372Zm1-35.42,30.07-17.41L468,354l-30.07,17.42ZM469,389.41,438.91,372,469,354.57,499,372ZM470,354,500,336.58,530.11,354,500,371.42Zm61.13,35.43L501,372l30.06-17.42L561.17,372Zm1-35.42,30.07-17.42L592.24,354l-30.07,17.43Zm91.2,18-30.07,17.42L563.17,372l30.06-17.43Zm0-36-30.07,17.43L563.17,336l30.06-17.42Zm0-36-30.07,17.42L563.17,300l30.06-17.41Zm0-36-30.07,17.41-30.06-17.4,30.06-17.41Zm0-36-30.07,17.41-30.06-17.4,30.06-17.4Zm0-35.95-30.07,17.4-30.06-17.39,30.06-17.4Zm-31.07-18-30.06,17.4-30.07-17.4,30.07-17.39Zm-61.13-.57L501,156.18l30.06-17.39,30.07,17.39Z" transform="translate(-188.88 -84.6)"/><polygon class="cls-10" points="261.69 265.91 268.05 269.58 271.12 267.81 264.77 264.14 261.69 265.91"/><polygon class="cls-11" points="266.44 263.17 272.79 266.84 276.2 264.87 269.85 261.2 266.44 263.17"/><polygon class="cls-12" points="252.21 271.39 258.56 275.06 260.96 273.67 254.61 270 252.21 271.39"/><polygon class="cls-13" points="248.99 273.27 255.34 276.94 256.58 276.33 250.22 272.66 248.99 273.27"/><polygon class="cls-14" points="256.95 268.65 263.31 272.32 266.04 270.74 259.69 267.07 256.95 268.65"/><polygon class="cls-15" points="265.94 257.04 283.2 267.01 286.46 255.16 265.94 257.04"/><polygon class="cls-16" points="325.21 260.42 331.57 264.09 334.64 262.31 328.29 258.65 325.21 260.42"/><polygon class="cls-17" points="329.96 257.68 336.31 261.35 339.72 259.38 333.37 255.71 329.96 257.68"/><polygon class="cls-18" points="315.73 265.9 322.08 269.57 324.48 268.18 318.13 264.51 315.73 265.9"/><polygon class="cls-19" points="312.5 267.78 318.86 271.45 320.1 270.84 313.74 267.17 312.5 267.78"/><polygon class="cls-20" points="320.47 263.16 326.82 266.83 329.56 265.25 323.21 261.58 320.47 263.16"/><polygon class="cls-21" points="329.46 251.55 346.72 261.52 349.98 249.67 329.46 251.55"/><polygon class="cls-22" points="280.53 37.58 280.53 49.22 286.81 39.78 280.53 37.58 280.53 37.58"/><polygon class="cls-23" points="271.98 42.48 271.98 54.12 278.26 44.67 271.98 42.48 271.98 42.48"/><polygon class="cls-24" points="263.42 47.37 263.42 59.01 269.7 49.56 263.42 47.37 263.42 47.37"/><polygon class="cls-25" points="254.86 52.27 254.86 63.91 261.15 54.46 254.86 52.27 254.86 52.27"/><polygon class="cls-26" points="246.31 57.16 246.31 68.8 252.59 59.35 246.31 57.16 246.31 57.16"/><polygon class="cls-27" points="216.22 101.89 216.22 113.53 222.5 104.09 216.22 101.89 216.22 101.89"/><polygon class="cls-28" points="207.66 106.79 207.66 118.43 213.95 108.98 207.66 106.79 207.66 106.79"/><polygon class="cls-29" points="199.11 111.68 199.11 123.32 205.39 113.87 199.11 111.68 199.11 111.68"/><polygon class="cls-30" points="190.55 116.58 190.55 128.22 196.84 118.77 190.55 116.58 190.55 116.58"/><polygon class="cls-31" points="182 121.47 182 133.11 188.28 123.66 182 121.47 182 121.47"/><g class="cls-32"><g class="cls-33"><g class="cls-34"><polygon class="cls-35" points="343.61 64.69 376.53 83.72 343.61 102.74 310.69 83.71 343.61 64.69"/><polygon class="cls-36" points="343.77 101.43 376.53 83.72 343.61 102.74 310.69 83.71 343.77 101.43"/><polygon class="cls-37" points="376.56 181.8 343.62 200.82 343.62 102.73 376.56 83.71 376.56 181.8"/><polygon class="cls-38" points="343.63 200.82 310.69 181.8 310.69 83.71 343.63 102.73 343.63 200.82"/></g></g><g class="cls-39"><g class="cls-34"><polygon class="cls-40" points="305.33 102.52 338.25 121.55 305.32 140.56 272.4 121.53 305.33 102.52"/><polygon class="cls-41" points="305.49 139.25 338.25 121.55 305.32 140.56 272.4 121.53 305.49 139.25"/><polygon class="cls-42" points="338.28 204.07 305.34 223.09 305.34 140.55 338.28 121.53 338.28 204.07"/><polygon class="cls-43" points="305.34 223.09 272.4 204.07 272.4 121.53 305.34 140.55 305.34 223.09"/></g></g><g class="cls-44"><g class="cls-34"><polygon class="cls-45" points="267.35 140.75 300.27 159.78 267.35 178.79 234.43 159.76 267.35 140.75"/><polygon class="cls-46" points="267.51 177.49 300.27 159.78 267.35 178.79 234.43 159.76 267.51 177.49"/><polygon class="cls-47" points="300.3 226.34 267.36 245.36 267.36 178.78 300.3 159.76 300.3 226.34"/><polygon class="cls-48" points="267.37 245.36 234.43 226.34 234.43 159.76 267.37 178.78 267.37 245.36"/></g></g><g class="cls-49"><g class="cls-34"><polygon class="cls-50" points="229.07 178.57 261.99 197.6 229.06 216.62 196.15 197.59 229.07 178.57"/><polygon class="cls-51" points="229.23 215.31 261.99 197.6 229.06 216.62 196.15 197.59 229.23 215.31"/><polygon class="cls-52" points="262.02 248.61 229.08 267.63 229.08 216.61 262.02 197.59 262.02 248.61"/><polygon class="cls-53" points="229.08 267.63 196.14 248.61 196.14 197.59 229.08 216.61 229.08 267.63"/></g></g><g class="cls-54"><g class="cls-34"><polygon class="cls-55" points="190.18 216.38 223.1 235.41 190.17 254.43 157.25 235.4 190.18 216.38"/><polygon class="cls-56" points="190.34 253.12 223.1 235.41 190.17 254.43 157.25 235.4 190.34 253.12"/><polygon class="cls-57" points="223.12 271.18 190.18 290.2 190.18 254.42 223.12 235.4 223.12 271.18"/><polygon class="cls-58" points="190.19 290.2 157.25 271.18 157.25 235.4 190.19 254.42 190.19 290.2"/></g></g></g><path class="cls-59" d="M373.88,320.66c3.72,2.59,9.66-1.42,12.81-3.15s11.18-5.39,11.18-5.39l-7.11-5S368.18,316.69,373.88,320.66Z" transform="translate(-188.88 -84.6)"/><path class="cls-60" d="M405.4,291c6.71.41-1.22,3.35-1.63,7.83s-.3,8.13-3.35,8.13-1.73-10.73.05-14.49C401.74,289.75,404.11,290.89,405.4,291Z" transform="translate(-188.88 -84.6)"/><path class="cls-61" d="M394.7,246.63a3.54,3.54,0,0,0-4.1.24c-2.1,1.62-5,7-6.4,8.4s-2,2.63-2.86,5.25-2.15,7.78-2.82,8.5a19.92,19.92,0,0,0-2.09,2.52,6.48,6.48,0,0,0-.61,2.88c.22.61.5-.25.61-.71a6,6,0,0,1,.47-1.45,8.24,8.24,0,0,1-.4,1.39,3.19,3.19,0,0,0,0,2.45c.26.29.35-1,.66-2.07s.48-1.26.58-1.26a15.93,15.93,0,0,1-.59,2,5.65,5.65,0,0,0-.16,1.47c0,.49.43,1.05.6.17a13.41,13.41,0,0,1,.34-1.56c.12-.43.57-1.68.72-1.61s-.19.92-.36,1.52a8.35,8.35,0,0,0-.34,1.71c-.05.6.43,1.18.6.21a14.46,14.46,0,0,1,.5-1.9c.15-.52.62-1.25.93-1.3s.13.25.1.87.48,1.36.72,1.33.14-.62.09-1.17.45-1.46.38-2.29-.26-1.39-.24-1.67a37.34,37.34,0,0,1,2.08-5.57,50.93,50.93,0,0,0,2.31-6c.05-.31,5-4.92,5-4.92l11.77,3s2.16-3.78,4.16-4.71c1.77-.82,6.48-1.49,7.51-1.78s3.51-.73,4.23-2,4.72-10.94,5-11.56,2.35-2.91,2.58-3.36a4.51,4.51,0,0,0,.13-3.05,2.36,2.36,0,0,0-1.71-1.85c-.76-.1-1.24,1.71-1.55,2.45s-1.22,1.4-1.22.73,0-1.74-.31-2-.57.26-.57.88a16.81,16.81,0,0,0,0,3.19,4.49,4.49,0,0,1,.19,2.24c-.22.54-2.19,3.8-3.1,5.67s-2.28,4.25-2.44,4.46a22.15,22.15,0,0,1-4.82.91,73.2,73.2,0,0,0-7.59.86c-1.24.3-2,.69-1.75-.45a2.79,2.79,0,0,1,1.82-2.17c.74-.12,1.17-.67,1.53-1.82s.95-4.87.43-6.42a4.93,4.93,0,0,0-7-1.93c-3.08,2-3,4.84-2.3,6.59s1.27,3.86.89,4.53S395.7,247,394.7,246.63Z" transform="translate(-188.88 -84.6)"/><path class="cls-62" d="M396.75,253.48,392,250.57s-5.81,6.1-6.57,6.82-1.53,3.86-1.81,4.29-1.53,4.19-2,5.48a17.07,17.07,0,0,0-.57,3.39,37.34,37.34,0,0,1,2.08-5.57,53.93,53.93,0,0,0,2.32-6c0-.31,5-4.92,5-4.92l5.93,1.5Z" transform="translate(-188.88 -84.6)"/><path class="cls-63" d="M416.78,242.82c-.83,1.61-1.79,3.29-1.9,3.43a25.63,25.63,0,0,1-4.68.84h-.13a71.17,71.17,0,0,0-7.5.86l-.5.13a4,4,0,0,1-.86.18.21.21,0,0,1-.13,0s-.07-.09,0-.46c0-.12.07-.24.11-.36l-5.05-1.72a1.36,1.36,0,0,1-.09.7c-.19.34-.28.34-.34.34a2.48,2.48,0,0,1-.67-.21l-.24-.09a3.9,3.9,0,0,0-2-.59,3.71,3.71,0,0,0-2.33.84c-1.26,1-2.76,3.23-4.09,5.22a24,24,0,0,1-2.33,3.2c-1.48,1.42-2.07,2.74-2.92,5.34-.26.79-.56,1.8-.86,2.86l3.29,1.32a50.66,50.66,0,0,0,2.13-5.61c.17-.33,3-3,4.81-4.74l11.82,3,.09-.15s2.15-3.73,4.06-4.62a31.44,31.44,0,0,1,5.68-1.4c.82-.16,1.47-.28,1.79-.37l.53-.13c1.26-.32,3.18-.8,3.84-1.92.28-.49,1.06-2.27,1.93-4.29Z" transform="translate(-188.88 -84.6)"/><path class="cls-64" d="M396.75,253.48,392,250.57s-5.81,6.1-6.57,6.82-2,5.88-2.43,7.1l.57.14a50.66,50.66,0,0,0,2.13-5.61c.17-.33,3-3,4.81-4.74l5.83,1.48Z" transform="translate(-188.88 -84.6)"/><path class="cls-65" d="M393.41,275.13c2.15-.67,6.11-2.2,6.11-2.2a21.63,21.63,0,0,0-.52,6.92,54.07,54.07,0,0,1,.05,9c-.26,2-1,4.87.44,5s2.74-1.36,4.23-1.27,2.55-1.18,1.31-1.56-2.83-.29-2.61-2.74,1.4-8.91,2.07-12.34,1.4-5.89.76-7.42-2.32-1.24-3.5-1.3-8.94-.1-8.94-.1Z" transform="translate(-188.88 -84.6)"/><path class="cls-66" d="M400.47,292.44s-.22-10-.15-12.08a91.13,91.13,0,0,1,1.65-9.08l-8.67,2.27.11,1.58c2.15-.67,6.11-2.2,6.11-2.2a21.63,21.63,0,0,0-.52,6.92,54.07,54.07,0,0,1,.05,9c-.26,2-1,4.87.44,5a2.92,2.92,0,0,0,1.31-.28Z" transform="translate(-188.88 -84.6)"/><path class="cls-67" d="M397.28,270.16s-.29,9.17-1.67,14a65.14,65.14,0,0,1-4.35,10.93c-.62,1.1-1.67,2.82-2.86,4.68s-7.3,8.93-8.07,10.84a17,17,0,0,0-1.29,5.1c0,.21,1.37,1.65,1.17,1.64-.88-.06-4.71-3.27-4.32-4.17.48-1.09.86-1.47,1.82-3.48s4.58-10.79,6.25-12.94,3.25-3.39,3.58-4.05,1-12.13.86-12.65-1.29-1.05-1.38-3.78,2.72-7,2.72-7Z" transform="translate(-188.88 -84.6)"/><path class="cls-68" d="M389.74,269.3s-2.82,4.25-2.72,7,1.24,3.25,1.38,3.78-.52,12-.86,12.65-1.91,1.91-3.58,4.05-5.3,10.93-6.25,12.94-1.34,2.39-1.82,3.49c-.18.42.59,1.36,1.54,2.25a14.64,14.64,0,0,1,.54-3.81c.77-2.1,4.15-8,5.77-10.72s4-7,4.57-7.58,1.72-3.43,2.34-8.53c.59-4.88-.72-9.62.91-15.28Z" transform="translate(-188.88 -84.6)"/><path class="cls-69" d="M398.54,291.24a2.68,2.68,0,0,0-.16,1.81c.31.82,1.14,2,1.36,2.49a6.46,6.46,0,0,1,.31,1l.88,0,.69-.58s-.69-2.17.08-2.45,2.92.52,4,.14,2.58-1.2,2.12-2.34-2-1.1-2.67-1.05a10,10,0,0,0-1.31.19s.28.84-1.15,1.19S398.54,291.24,398.54,291.24Z" transform="translate(-188.88 -84.6)"/><path class="cls-69" d="M376.14,311.83a3.79,3.79,0,0,0-1.31,1.86c-.17,1-.24,2.69-.36,3.36s-.31,1.5-.31,1.5l.94.33.73-.14.33-1.7a2.64,2.64,0,0,0,1.09,1.46,3.18,3.18,0,0,0,2.94.81c.86-.36,1.53-1.6.67-2.2s-1.51-1-1.51-1-.11,1.05-.35.22-.67-3.13-1.27-3.72A3.57,3.57,0,0,0,376.14,311.83Z" transform="translate(-188.88 -84.6)"/><path class="cls-69" d="M377.25,318.5a3.18,3.18,0,0,0,2.94.81,1.87,1.87,0,0,0,.6-.42,1.71,1.71,0,0,1-1.26.08,3,3,0,0,1-1.54-1.64c-.33-1.22-.4-2.15-.88-2.15s-.75,1.25-.94,1.91A2.75,2.75,0,0,0,377.25,318.5Z" transform="translate(-188.88 -84.6)"/><path class="cls-70" d="M398.68,266.35l4.93.57a14.81,14.81,0,0,0-1.36,3.29c-.71,2.29-3.68,6.64-3.63,8.07a10.37,10.37,0,0,1-3.44,7.37c-4.18,3.56-13,3.75-13,3.75s-.12-13.4,2.34-18.9c1.47-3.3,4.82-5.83,5.15-7.74a67.74,67.74,0,0,0,.25-7.64s1.52-6,2.52-7.2a4.43,4.43,0,0,1,2.39-1.43l1.14.52s-2.48,2.91-1,3.68,5.83-2.36,5.83-2.36l.53,0s-3,3.88-1.25,6.27,5.13-1.17,5.13-1.17-.21,3.94-1.41,5.32-2.91,2-3.58,3.49S398.68,266.35,398.68,266.35Z" transform="translate(-188.88 -84.6)"/><path class="cls-71" d="M402,258.77a5.78,5.78,0,0,1-1.11,2.52c.82-.87,2-1.45,2.91-2.49,1.2-1.38,1.41-5.32,1.41-5.32a11.65,11.65,0,0,1-1.75,3.86C403,258,402,258.53,402,258.77Z" transform="translate(-188.88 -84.6)"/><path class="cls-72" d="M406.88,293.18c-1.29.73-4.56.07-5.63.16s-.35,3.15-.35,3.15l0,.09.68-.57s-.69-2.17.07-2.46,2.93.53,4,.15a5.77,5.77,0,0,0,1.39-.67Z" transform="translate(-188.88 -84.6)"/><path class="cls-73" d="M403.61,266.92l-4.93-.57a17.42,17.42,0,0,0-.75,5.54c.11,2.29.65,4.42.77,5.84.47-1.78,2.91-5.47,3.55-7.52A14.81,14.81,0,0,1,403.61,266.92Z" transform="translate(-188.88 -84.6)"/><path class="cls-74" d="M386.07,275.92c-.19-5.71,3.72-10.29,4.48-12.29s.39-6.86,2-11.06l-.88-3.23a57.14,57.14,0,0,0-1.79,5.78,67.74,67.74,0,0,1-.25,7.64c-.33,1.91-3.68,4.44-5.15,7.74-2.46,5.5-2.34,18.9-2.34,18.9a35.77,35.77,0,0,0,4.82-.52C386.72,286.06,386.22,280.14,386.07,275.92Z" transform="translate(-188.88 -84.6)"/><path class="cls-75" d="M402.07,242.76c.11,1,.9,3,.11,4.93a15.21,15.21,0,0,0-1.14,5.36c0,1.61,2.09,3.62,2.09,3.62a14.81,14.81,0,0,1-8.55.14c-5.08-1.42-6.09-4.46-5.66-5.92.22-.76,3.5-4.2,4.33-8.74.63-3.52,2.1-7,5.61-7.69,3.7-.74,5.45,1.21,5.93,2a2.78,2.78,0,0,1,.18,3.22C404.11,240.9,401.65,238.79,402.07,242.76Z" transform="translate(-188.88 -84.6)"/><path class="cls-76" d="M424.89,229.12a10.73,10.73,0,0,1,.43,1.53,12.69,12.69,0,0,1,0,1.79,4.89,4.89,0,0,0,.27-1.69,4.7,4.7,0,0,0-.22-1.14A2.65,2.65,0,0,0,424.89,229.12Z" transform="translate(-188.88 -84.6)"/><path class="cls-77" d="M423.72,228.86A6.33,6.33,0,0,1,424,230a11.68,11.68,0,0,1,0,1.79,4.74,4.74,0,0,0,.26-1.69,4.62,4.62,0,0,0-.27-1.31A.52.52,0,0,0,423.72,228.86Z" transform="translate(-188.88 -84.6)"/><path class="cls-78" d="M422.53,231.2c-.24.57-.83,1.09-1.09,1v0a1.26,1.26,0,0,0,1.55-.6,9.9,9.9,0,0,0,.36-2.33A13.8,13.8,0,0,0,422.53,231.2Z" transform="translate(-188.88 -84.6)"/><path class="cls-79" d="M424.64,230.21a13,13,0,0,1,0,1.78,5,5,0,0,0,.26-1.69,4.93,4.93,0,0,0-.3-1.38,1.51,1.51,0,0,0-.33-.13A10.19,10.19,0,0,1,424.64,230.21Z" transform="translate(-188.88 -84.6)"/><path class="cls-80" d="M392.42,244.91c-1.27,3.13-3.32,5.38-3.5,6-.43,1.46.58,4.5,5.66,5.92a14.81,14.81,0,0,0,8.55-.14C393.42,255,391.92,251.14,392.42,244.91Z" transform="translate(-188.88 -84.6)"/><path class="cls-80" d="M401.57,234.4c1.49,1.35,1.77,3.37,1.28,5.83.69-.22,1.65.1,2.12-.58a2.78,2.78,0,0,0-.18-3.22A4.82,4.82,0,0,0,401.57,234.4Z" transform="translate(-188.88 -84.6)"/><path class="cls-81" d="M471.64,249.13c-4.54,5.21-13.72,4.88-23.49,4.42-5.53-.26-12.65-2.93-9.76-5.8,5.46-5.4,12.89-2.54,18.33-1.54S476.83,243.18,471.64,249.13Z" transform="translate(-188.88 -84.6)"/><path class="cls-69" d="M465.81,246.07c-.48.72-2.28,2.75-3,3.54s-1,2.25.83,2.52a5,5,0,0,0,4.34-1.57c.72-.92.64-2,1.46-2.07a3.67,3.67,0,0,0,.76-.28,10.54,10.54,0,0,0,1.09-.91s-.37-1.45-.51-1.73a9.74,9.74,0,0,0-.89-1.45l-3.32.87S466.07,245.68,465.81,246.07Z" transform="translate(-188.88 -84.6)"/><path class="cls-69" d="M464,248.36c-.88.91-2.52,2.8-.23,2.88a5.13,5.13,0,0,0,4.19-2c.46-.64.74-1.14,1.3-1.4a16.9,16.9,0,0,0,1.88-1.22,8.8,8.8,0,0,0-.38-1.42,6.2,6.2,0,0,1-.36-.79l-4.22.94A32.77,32.77,0,0,1,464,248.36Z" transform="translate(-188.88 -84.6)"/><path class="cls-69" d="M449.15,243.88l.46,2.61a15,15,0,0,1-1.89.95c-.59.19-1.56-.19-2.05.43a9.18,9.18,0,0,1-4.13,2.54c-1.77.35-3-.22-3.05-.73s.44-1.35,2.05-2.4a11.91,11.91,0,0,0,3-3.62Z" transform="translate(-188.88 -84.6)"/><path class="cls-69" d="M449.28,245.55c-.24.3-3.21,1-3.7,1.62a12.23,12.23,0,0,1-4.73,2.66c-1.28.22-2.26-.42-2.14-.91.18-.7,1.35-1.35,2.37-2.13a11.73,11.73,0,0,0,2.14-2.59l6.09-.43Z" transform="translate(-188.88 -84.6)"/><path class="cls-82" d="M445.61,203.84a51.65,51.65,0,0,0-3.47,8c-.72,2.81-3,10.36-2.62,13.27.3,2.46,1.47,4.6,2,7.55.44,2.34,1.32,9.86.81,11.33-.28.82.61,1.17,3.25.92,2-.19,3.92.37,3.92-.28s-.6-9.41-1.22-13a35.16,35.16,0,0,0-1.91-6.71l6.09-12.78A103.89,103.89,0,0,0,451,223.57c-.3,5.24-1.25,8.1-.17,10.05s8.85,7.22,10.7,9.1a16.52,16.52,0,0,1,2.72,4.37c.56.46,2.09-.05,3.38-.35a7,7,0,0,0,3.18-1.71c.13-.49-1.13-2.94-2.62-4.88a63.7,63.7,0,0,0-6.68-7c-1.41-1.13-3.84-2.89-3.84-2.89s3.65-9.52,4.07-12.8,1.87-8,1.38-12.09a6.35,6.35,0,0,0-3.44-5.31s-5.28,4.13-7.7,4.66S445.61,203.84,445.61,203.84Z" transform="translate(-188.88 -84.6)"/><path class="cls-80" d="M446.4,224.88l6.09-12.78-.32-5a9.84,9.84,0,0,0-1.78,3.05c-1.43,3.15-6.86,12.87-6.46,14.8s2.85,5.39,3.78,19.93c1.05.06,1.82.13,1.82-.28,0-.66-.6-9.41-1.22-13A35.16,35.16,0,0,0,446.4,224.88Z" transform="translate(-188.88 -84.6)"/><path class="cls-80" d="M468.63,246.42a6,6,0,0,0,2.2-1.39c.13-.49-1.13-2.94-2.62-4.88a62.7,62.7,0,0,0-6.68-7c-1.41-1.14-3.84-2.9-3.84-2.9s3.65-9.52,4.07-12.8,1.87-8,1.38-12.09a7,7,0,0,0-1.84-4.12l-4.1,2.47a86.84,86.84,0,0,1,.82,11.33c-.16,8.19-4.12,14.7-3,16.63S464.88,236.67,468.63,246.42Z" transform="translate(-188.88 -84.6)"/><path class="cls-83" d="M423,215.24a20.21,20.21,0,0,1-1.87,3.71c-.46.5-2.5,2.56-2.6,3.47a9.06,9.06,0,0,0,1.25,4.23c.52.44,1.06,1,1.47,1s.82-.2.82-.2a3.88,3.88,0,0,0,1.25-.2c.44-.19.44-.66.17-.71a4.39,4.39,0,0,1-1.1-.29c-.35-.17-1.11-1.75-1.11-1.75l.2-.27s.36,1.55.91,1.65.22-1.52.24-1.77a17.81,17.81,0,0,1,.79-3.66c.34-.49,4.62-6.05,6.14-9.12S423,215.24,423,215.24Z" transform="translate(-188.88 -84.6)"/><path class="cls-84" d="M421.27,218.19l2.91,1.54,1.05-1.28s3.71-4.24,5.12-7.45S436,198.34,436,198.34a25.39,25.39,0,0,0,5.11,3.83c2.46,1.25,3.55,1.74,3.71,2.23a1.63,1.63,0,0,1-.08,1s4.93,2.72,8.28,1.72a14.47,14.47,0,0,0,8.35-6.49s-4.24-5-6.27-7.56-2.85-3.54-6.46-4.49-13-2.92-15.85.85-2.92,7.24-3.77,10.39-1.18,5.6-2.13,6.84a76.3,76.3,0,0,0-4.78,8.78,8.55,8.55,0,0,0-.36,1.71Z" transform="translate(-188.88 -84.6)"/><path class="cls-85" d="M440.4,187.13c.92,1.18,1.52,2,2.15,2.17,1.07.28,2.48,2.52.08,4.54-2.06,1.73-4.16,1.09-5.67-.65S440.4,187.13,440.4,187.13Z" transform="translate(-188.88 -84.6)"/><path class="cls-86" d="M440.06,189.88c.61,5.6.45,6.09-1,6.42s-3.42-1.7-3.52-4.18S439.82,187.65,440.06,189.88Z" transform="translate(-188.88 -84.6)"/><path class="cls-87" d="M459.3,213.93a10.58,10.58,0,0,1-.53,2.16c-.33.69-1.56,2.58-1.59,2.9s0,1.18,0,1.68-.44,1.5-.15,1.75.76-.89.76-.89-.16,1-.19,1.25a14.27,14.27,0,0,0-.06,1.58c0,.22.39,1.31.72,1.22s.25-.91.2-1.25a16.3,16.3,0,0,1,.51-3,15.35,15.35,0,0,1-.1,1.82,7.11,7.11,0,0,0,.25,1.84c.15.25.46.94.83.83s.11-.89,0-1.12a5.18,5.18,0,0,1-.09-1.5,8.83,8.83,0,0,1,.39-1.9c.12,0-.17,1.33-.14,1.63a4.59,4.59,0,0,0,.31,1.45c.19.29.92.6,1,.44s-.32-.93-.34-1a7.8,7.8,0,0,1,0-1.06,8.45,8.45,0,0,1,.27-1.43c.11-.12.06.68.09,1a6.1,6.1,0,0,0,.12,1.13c.09.26.41.75.63.74s0-.92,0-1.34.18-1.73.26-2.69a19.72,19.72,0,0,0,0-3.08c-.09-.8-.28-1.56-.25-1.88s.2-1.18.2-1.18Z" transform="translate(-188.88 -84.6)"/><path class="cls-88" d="M432.57,183c-1.3,1.08-2.62,2.62-1.11,6.46s3,5.89,4.42,5.57a9.67,9.67,0,0,0,4.16-3.25c.36-.72,1.8-5.11.16-7.89S434.8,181.14,432.57,183Z" transform="translate(-188.88 -84.6)"/><path class="cls-89" d="M430.57,186.74c.28.91,2.79,1.18,4.49.46s2.92,1.37,2.92,1.37l.82-.32s.49-2,1.27-1.87.92,1.15.82,1.77.53-.23.53-1-.65-6.22-5.47-6.22A5.07,5.07,0,0,0,430.57,186.74Z" transform="translate(-188.88 -84.6)"/><path class="cls-90" d="M457.69,204.9c-.16,5.49,1.12,11.67,1.79,11,1.22-1.19,2.48-15.22,2.48-15.22s-4.85-5-6.88-7.6l-.57-.72c-3.64-.86-6.74-.77-7.08,1.84-.24,1.8,1.22,3.36,5.15,5.45C455,201,456.8,203.68,457.69,204.9Z" transform="translate(-188.88 -84.6)"/><path class="cls-91" d="M450,190.48c-2.43.33-4.45,4.92.23,6.82a49.81,49.81,0,0,1,9.11,5.11,25.12,25.12,0,0,1,.07,3.67c-.1,2.23-.82,5.67-.69,6.29s.3,1.22.3,1.22l-.14,1,3.51.52.23-1a23.93,23.93,0,0,0,.88-2.59c.46-1.6,1.54-9,1.28-10.58s-3.86-4.39-6.65-6.32S454,189.94,450,190.48Z" transform="translate(-188.88 -84.6)"/><path class="cls-80" d="M432.33,204c-1.11,3.43-1.14,2.82-1.52,3.55a72.28,72.28,0,0,0-4.28,6.82c-.78,1.64-2,3.69-2.85,5.08l.5.26,1.05-1.28s3.71-4.24,5.12-7.45S436,198.34,436,198.34l-.94-1.41S433.44,200.59,432.33,204Z" transform="translate(-188.88 -84.6)"/><path class="cls-80" d="M438,188.57l.82-.32s.49-2,1.27-1.87.92,1.15.82,1.77.53-.23.53-1-.45-4.47-3.33-5.77c1,1.19,1.29,2.3.84,4.66A25.7,25.7,0,0,1,438,188.57Z" transform="translate(-188.88 -84.6)"/><path class="cls-92" d="M421.46,224.21l0-1.29s-.69.53-.61,1.09a9.2,9.2,0,0,0,1.37,2.19l-.94-1.72Z" transform="translate(-188.88 -84.6)"/><path class="cls-93" d="M422.76,227.37a3.19,3.19,0,0,1-1-.28,13.87,13.87,0,0,1-1.35-1.68,19.13,19.13,0,0,0,1.09,1.78,4,4,0,0,0,.59.24Z" transform="translate(-188.88 -84.6)"/><path class="cls-94" d="M421.06,227.65s-.87-.61-1-.92-.43-1-.43-1l.23,1.06.86.74Z" transform="translate(-188.88 -84.6)"/><path d="M523.14,152.15a2.49,2.49,0,0,1,1.53-1.45,1.59,1.59,0,0,1,2.13.92,11.86,11.86,0,0,1,.58,2.08l-.19.44a15.74,15.74,0,0,0,.64,2.63,8,8,0,0,1,1.23,4.77,2,2,0,0,1-3.58.93c-1.21-1.7-1.38-5-1.38-5Z" transform="translate(-188.88 -84.6)"/><path d="M524.21,151c.72-.26,1.7.09,2.27,2.67s1.47,4.5,1.75,5.78.85,3.62-1.63,3.55c-1.66-.05-2.32-3-2.51-5.68S522.36,151.62,524.21,151Z" transform="translate(-188.88 -84.6)"/><path class="cls-95" d="M541.56,153.49s.07-1.7,1-2,2.2,0,2.48.68a31.18,31.18,0,0,1,.71,3.69c.42,2.09,1,4.53,0,6.39-.59,1.1-3.38,1.77-4,.07s.25-4.26.28-5.86S541.59,154.48,541.56,153.49Z" transform="translate(-188.88 -84.6)"/><path d="M542.84,152c1.45-.53,2.13.09,2.43,2.41s1.05,4.74.43,7.22c-.31,1.24-3.08,2.46-3.79.38-.8-2.37.62-4.23.31-6.65S541.92,152.33,542.84,152Z" transform="translate(-188.88 -84.6)"/><path class="cls-96" d="M513.65,130.52l14.88-1.63s1.67,4.33,2.52,6.71,3.51,6.85,4.4,9.48,2.45,7.66,2.45,7.66,1,0,2.45.18,3.13-1.35,4.19,0,1.31,5.22.53,5.86-2,.19-3.26.21c-1.54,0-3,1.38-4.65,1.42s-2.24-1-4.62-4.08-10.08-13.92-10.08-13.92l-2.1,9.66a18.84,18.84,0,0,0,3.48-1.08c.71-.46,1.6.44,2,2.6s-.25,4.12-1.28,4.3-2.31-.36-3.27.18-3.87,2.69-5.61,2.09-1.81-2.06-2.38-4.86a40.21,40.21,0,0,1-1-12.93C512.84,135.88,513.65,130.52,513.65,130.52Z" transform="translate(-188.88 -84.6)"/><path class="cls-80" d="M545.53,157.09a7.58,7.58,0,0,0-1-4.13c-1.06-1.39-2.73.1-4.19,0s-2.45-.18-2.45-.18-1.56-5-2.45-7.66-3.55-7.1-4.4-9.48-2.52-6.71-2.52-6.71l-3.36.37a31.9,31.9,0,0,0,1.19,6.62c.86,2.49,10.37,19.81,10.8,20.66s-.08,2.35,2.34,1.78C541.53,157.84,544.05,156.82,545.53,157.09Z" transform="translate(-188.88 -84.6)"/><path class="cls-80" d="M521.11,138.22c-.29-1.42-.57-4.33-.57-4.33l-1.92-.07a20.73,20.73,0,0,0,.64,4.9,17.13,17.13,0,0,0,1.07,2.34s-1.78,3.48-1.71,6-1,8.73-.85,9.23,2.77-.21,5.18.07c.84.1,1.83.24,2.76.38a5.94,5.94,0,0,0,.16-3.08c-.43-2.16-1.32-3.06-2-2.6a18.84,18.84,0,0,1-3.48,1.08l2.1-9.66A37.52,37.52,0,0,1,521.11,138.22Z" transform="translate(-188.88 -84.6)"/><path class="cls-97" d="M542.45,94.59c-.05-1.21-.4-2.73-.71-2.91s-1.25.18-1.6-.18S539,90,539.07,89.62a7.39,7.39,0,0,1,2.77-1.35,3.06,3.06,0,0,1,2.42,2.12,14.57,14.57,0,0,1,.6,3.78c0,1-.32,2.73-.36,4.22s.15,8.1-1.17,9.23-7.59,4.16-8.77,5.5-1.88,2.24-1.88,2.24l-1.06-7.56,5.29-1.42c1.31-.36,3.12-.92,3.12-.92a22,22,0,0,1,.82-4.94C541.63,97.72,542.48,95.59,542.45,94.59Z" transform="translate(-188.88 -84.6)"/><path class="cls-98" d="M509.5,90.12c-.18.28-1.21,4.19-1.95,6.53s-1.6,4.51-1.6,4.51a16.21,16.21,0,0,1,4.08,2c1.32,1.07,4.26,1.67,5.82,2.45a14.64,14.64,0,0,1,2.42,1.46l-7.1,3.26s-5.08-4.22-6.68-5-3.83-2.77-3.58-4,5.93-11.75,6.32-12.18,2.09-3.62,3.12-4.26,2.81.25,3.3.64,2,.46,1.49,1.35a9.44,9.44,0,0,1-3.4,2.45A15.23,15.23,0,0,1,509.5,90.12Z" transform="translate(-188.88 -84.6)"/><path class="cls-99" d="M520.29,107a42,42,0,0,1-5.07-1.88,50.14,50.14,0,0,1-6-2.8,15.35,15.35,0,0,0-3-1.1s2.48-6.86,2.8-8.31l.32-1.46.07-.89-2.77-1.45-.39,1a2.28,2.28,0,0,0-1.17,1.1c-.39.82-4,8.62-4.44,9.48-.78,1.41,0,2.91,1.71,3.8s7,6.25,7.63,8.23,1.92,4.19,2.13,6.32,1,6.82.71,9.09-.42,3.23,0,3.73.61.5.61.5l-.22,1.06a40.86,40.86,0,0,0,9.45.36,10.63,10.63,0,0,0,6.49-3.16l-.35-1.1a3.08,3.08,0,0,0,.25-1.49c0-1-.15-5.33,1.1-7.64s4.73-6.65,6.29-7.5,7.34-3.69,8-5.4.66-8.6.66-10.13a12.81,12.81,0,0,0-.23-2.25v-.53h-2.52l-.25.68a1.93,1.93,0,0,0-.46.74,26.65,26.65,0,0,0-1.37,4.82c-.14,1.29-.52,4.27-.52,4.27L536,106.31a25.87,25.87,0,0,1-5.82,1.24A31,31,0,0,1,520.29,107Z" transform="translate(-188.88 -84.6)"/><path class="cls-80" d="M545.2,97.37a12.81,12.81,0,0,0-.23-2.25v-.53h-.89l-.2,1a40.75,40.75,0,0,0-.38,6.25c.09,3,.33,4.78.09,5.3s-10.23,4.69-11.62,5.21c-3.71,1.37-7.12,8.24-7.1,12.85a48.15,48.15,0,0,0,.8,7.78,10.06,10.06,0,0,0,3.53-2.38l-.35-1.1a3.08,3.08,0,0,0,.25-1.49c0-1-.15-5.33,1.1-7.64s4.73-6.65,6.29-7.5,7.34-3.69,8-5.4S545.2,98.9,545.2,97.37Z" transform="translate(-188.88 -84.6)"/><path class="cls-100" d="M510.81,86.92c0-.49.25-1.27.39-1.24s1.64.75,1.6.92-.46.71-.67.61-.82-.71-1-.53A3.53,3.53,0,0,0,510.81,86.92Z" transform="translate(-188.88 -84.6)"/><path class="cls-101" d="M541.79,89.7s-1.42.19-1.46.34a8,8,0,0,0,1.84.33Z" transform="translate(-188.88 -84.6)"/><path class="cls-80" d="M509.46,108.47s-3-2.84-4.54-4c-1.22-1-3.34-1.28-4.42-1.89a3.67,3.67,0,0,0,1.9,2c1.55.79,6.09,5.34,7.36,7.64C509.54,110.42,509.46,108.47,509.46,108.47Z" transform="translate(-188.88 -84.6)"/><path class="cls-102" d="M519,106.73c-1.13,0-3.48,1.39-2,3s7.31,2.06,9.55-.25-3.26-2-3.26-2Z" transform="translate(-188.88 -84.6)"/><path class="cls-103" d="M523.81,95.2c-1.6.55-2.81,2.76-3.41,4.43a12.26,12.26,0,0,0-.57,3.66c-.07.57-.43,2.7-.92,3.2s-1.78,1.45-1.74,2.09,1.38,1.85,3.76,1.92,5.36-1,5.68-1.85-1.21-1.35-.78-2.52c.33-.9,2.88-2.24,3.2-3.59a9.36,9.36,0,0,0-.18-5.29A4.32,4.32,0,0,0,523.81,95.2Z" transform="translate(-188.88 -84.6)"/><path class="cls-104" d="M523,95.48c-.09.09,3.19-.89,5.08,1.63a3.07,3.07,0,0,1,.5,2.74c-.24.62-.82,1.84-.82,1.84l.25.18s1.1-.39,1,.32-1.53,2-1.7,2.24a4.6,4.6,0,0,0,2.41-2.63c1.11-2.77.67-5.61-2-6.71C524.94,93.92,523.27,95.16,523,95.48Z" transform="translate(-188.88 -84.6)"/><path class="cls-105" d="M521.71,107.52c-1.61-.3-1.81-5.54-1.63-5,.39,1.07,3.9,2.81,5.18,1.46C525.63,103.55,522.88,107.73,521.71,107.52Z" transform="translate(-188.88 -84.6)"/><path class="cls-81" d="M543.65,168.81c0,2.82-4.44,5.1-9.92,5.1s-9.93-2.28-9.93-5.1,4.45-5.1,9.93-5.1S543.65,166,543.65,168.81Z" transform="translate(-188.88 -84.6)"/><path class="cls-106" d="M340.18,324.28a.55.55,0,0,1-.25-.07l-6.22-3.69,30.11-17.39a.5.5,0,0,1,.5.87l-28.63,16.53,4.75,2.82a.5.5,0,0,1-.26.93Z" transform="translate(-188.88 -84.6)"/><path class="cls-107" d="M571.77,198.9a.5.5,0,0,1-.5-.5V165.69l-13.22-7.29a.49.49,0,0,1-.19-.68.5.5,0,0,1,.68-.19l13.73,7.56V198.4A.5.5,0,0,1,571.77,198.9Z" transform="translate(-188.88 -84.6)"/><path class="cls-108" d="M538.36,317.77l15.89-9.33a2.87,2.87,0,0,0,0-4.95L524.76,289l-22,12.43,32.72,16.31A2.85,2.85,0,0,0,538.36,317.77Z" transform="translate(-188.88 -84.6)"/><path class="cls-109" d="M525.61,289.66,504,301.89l31.63,15.8a2.88,2.88,0,0,0,2.83,0l15.61-9.16a2.8,2.8,0,0,0,.18-4.8Z" transform="translate(-188.88 -84.6)"/><path class="cls-110" d="M526.47,290.29l-21.26,12,30.53,15.29a2.9,2.9,0,0,0,2.77-.08l15.35-9c1.72-1,2-3.65.34-4.66Z" transform="translate(-188.88 -84.6)"/><path class="cls-111" d="M527.32,290.93l-20.88,11.85,29.43,14.79a3,3,0,0,0,2.72-.13l15.08-8.82c1.63-.94,2.12-3.56.49-4.51Z" transform="translate(-188.88 -84.6)"/><path class="cls-112" d="M528.18,291.57l-20.51,11.66L536,317.5a3,3,0,0,0,2.66-.17l14.82-8.65c1.54-.89,2.18-3.46.65-4.36Z" transform="translate(-188.88 -84.6)"/><path class="cls-113" d="M529,292.21,508.9,303.68l27.24,13.76a3.07,3.07,0,0,0,2.6-.22l14.55-8.48c1.45-.84,2.25-3.37.8-4.22Z" transform="translate(-188.88 -84.6)"/><path class="cls-114" d="M529.88,292.85l-19.75,11.27,26.14,13.25a3.05,3.05,0,0,0,2.54-.26l14.28-8.31c1.36-.78,2.32-3.28,1-4.07Z" transform="translate(-188.88 -84.6)"/><path class="cls-115" d="M530.74,293.48l-19.38,11.09,25,12.74a3.17,3.17,0,0,0,2.48-.31l14-8.14c1.27-.73,2.39-3.18,1.13-3.92Z" transform="translate(-188.88 -84.6)"/><path class="cls-116" d="M531.59,294.12l-19,10.9,23.95,12.22a3.24,3.24,0,0,0,2.43-.35l13.75-8c1.18-.68,2.45-3.09,1.28-3.78Z" transform="translate(-188.88 -84.6)"/><path class="cls-117" d="M532.45,294.76l-18.64,10.7,22.85,11.72a3.36,3.36,0,0,0,2.37-.4l13.49-7.8c1.08-.63,2.52-3,1.44-3.63Z" transform="translate(-188.88 -84.6)"/><path class="cls-118" d="M533.3,295.4,515,305.91l21.75,11.2c.47.28,1.85-.17,2.32-.44L552.33,309c1-.58,2.59-2.9,1.59-3.49Z" transform="translate(-188.88 -84.6)"/><path class="cls-119" d="M534.16,296l-17.89,10.31,20.66,10.7c.42.25,1.83-.24,2.25-.49l13-7.46c.91-.52,2.66-2.81,1.76-3.34Z" transform="translate(-188.88 -84.6)"/><path class="cls-120" d="M535,296.68,517.5,306.8,537.06,317c.38.23,1.81-.31,2.2-.53l12.68-7.29c.82-.47,2.73-2.72,1.91-3.19Z" transform="translate(-188.88 -84.6)"/><path class="cls-121" d="M535.87,297.31l-17.14,9.94,18.46,9.67c.34.2,1.8-.38,2.14-.58l12.42-7.12c.72-.42,2.79-2.62,2.07-3.05Z" transform="translate(-188.88 -84.6)"/><path class="cls-122" d="M536.72,298,520,307.69l17.36,9.16c.3.18,1.79-.45,2.08-.62l12.16-7c.63-.37,2.86-2.53,2.23-2.9Z" transform="translate(-188.88 -84.6)"/><path class="cls-123" d="M537.58,298.59l-16.4,9.55,16.27,8.65c.26.15,1.77-.52,2-.67l11.89-6.78c.54-.32,2.92-2.43,2.38-2.75Z" transform="translate(-188.88 -84.6)"/><path class="cls-124" d="M538.43,299.23l-16,9.36,15.17,8.13c.22.13,1.76-.59,2-.71l11.62-6.61c.46-.27,3-2.34,2.55-2.61Z" transform="translate(-188.88 -84.6)"/><path class="cls-125" d="M539.29,299.87,523.64,309l14.08,7.63a7.61,7.61,0,0,0,1.91-.76L551,309.46c.36-.21,3.06-2.25,2.7-2.46Z" transform="translate(-188.88 -84.6)"/><path class="cls-126" d="M540.14,300.51l-15.27,9,13,7.11a9.86,9.86,0,0,0,1.85-.8l11.09-6.27c.27-.16,3.13-2.15,2.86-2.31Z" transform="translate(-188.88 -84.6)"/><path class="cls-127" d="M541,301.14l-14.9,8.78L538,316.53a15.34,15.34,0,0,0,1.8-.85l10.82-6.11a21.09,21.09,0,0,0,3-2.16Z" transform="translate(-188.88 -84.6)"/><path class="cls-128" d="M541.85,301.78l-14.52,8.59,10.78,6.1s1.7-.88,1.74-.9l10.56-5.94c.09-.05,3.26-2,3.17-2Z" transform="translate(-188.88 -84.6)"/><polygon class="cls-129" points="349.36 231.8 364.67 223.22 353.82 217.82 339.68 226.21 349.36 231.8"/><path class="cls-108" d="M503.08,231.42l7.84-4.82,7.85-4.82a2.87,2.87,0,0,1,4.38,2.31l1.13,20.77,1.13,20.78-10.65,6.79-10.65,6.79-1.19-22.62L501.73,234A2.87,2.87,0,0,1,503.08,231.42Z" transform="translate(-188.88 -84.6)"/><path class="cls-109" d="M511,226.84l7.69-4.71a2.81,2.81,0,0,1,4.31,2.13l.56,10.12.57,10.13.87,19.91L514.76,271l-10.48,6.68-.61-11-.61-11-.9-21.67a2.78,2.78,0,0,1,1.31-2.45Z" transform="translate(-188.88 -84.6)"/><path class="cls-110" d="M511.14,227.08l7.52-4.59c1.69-1.06,4.16-.05,4.24,1.94l.57,9.86.57,9.86.61,19-9.9,6.3-10.3,6.55-.62-10.72-.63-10.73-.62-20.72a2.7,2.7,0,0,1,1.28-2.34Z" transform="translate(-188.88 -84.6)"/><path class="cls-111" d="M511.25,227.32l7.36-4.48c1.6-1,4.09-.12,4.17,1.76l.57,9.6.57,9.59.34,18.19-9.51,6-10.13,6.44L504,264l-.63-10.43L503,233.84a2.62,2.62,0,0,1,1.25-2.24Z" transform="translate(-188.88 -84.6)"/><path class="cls-112" d="M511.36,227.55l7.2-4.36c1.51-.94,4-.2,4.09,1.58l.58,9.33.57,9.34.08,17.32-9.13,5.81-10,6.31-.65-10.14-.65-10.14-.06-18.81a2.59,2.59,0,0,1,1.22-2.14Z" transform="translate(-188.88 -84.6)"/><path class="cls-113" d="M511.47,227.79l7-4.24c1.42-.89,4-.29,4,1.38l.57,9.08.58,9.07-.18,16.46-8.75,5.56L505,271.3l-.66-9.85-.66-9.85.22-17.86a2.51,2.51,0,0,1,1.18-2Z" transform="translate(-188.88 -84.6)"/><path class="cls-114" d="M511.58,228l6.87-4.13c1.33-.83,3.89-.36,4,1.2l.57,8.81.58,8.82-.44,15.59-8.37,5.32-9.62,6.07-.67-9.56-.68-9.55.51-16.9a2.39,2.39,0,0,1,1.15-1.93Z" transform="translate(-188.88 -84.6)"/><path class="cls-115" d="M511.69,228.27l6.71-4c1.24-.77,3.82-.44,3.88,1l.58,8.55.58,8.55-.71,14.73-8,5.07-9.45,6-.69-9.27-.69-9.27.79-15.94a2.3,2.3,0,0,1,1.12-1.82Z" transform="translate(-188.88 -84.6)"/><path class="cls-116" d="M511.8,228.51l6.55-3.9c1.15-.72,3.75-.53,3.81.83l.58,8.29.58,8.28-1,13.88-7.6,4.82-9.28,5.83-.7-9-.7-9,1.07-15a2.26,2.26,0,0,1,1.08-1.71Z" transform="translate(-188.88 -84.6)"/><path class="cls-117" d="M511.91,228.75l6.38-3.79c1.07-.66,3.69-.6,3.74.65l.59,8,.58,8-1.23,13-7.23,4.57L505.65,265l-.72-8.68-.72-8.68,1.36-14a2.15,2.15,0,0,1,1.05-1.61Z" transform="translate(-188.88 -84.6)"/><path class="cls-118" d="M512,229l6.22-3.68c1-.61,3.62-.68,3.67.47l.58,7.76.59,7.76-1.49,12.15-6.85,4.32-8.92,5.6-.73-8.39-.74-8.39L506,233.51a2.16,2.16,0,0,1,1-1.51Z" transform="translate(-188.88 -84.6)"/><path class="cls-119" d="M512.13,229.22l6.06-3.55c.89-.56,3.55-.77,3.59.28l.59,7.49.59,7.5-1.76,11.29-6.46,4.08L506,261.78l-.75-8.09-.74-8.1,1.92-12.12a2.06,2.06,0,0,1,1-1.41Z" transform="translate(-188.88 -84.6)"/><path class="cls-120" d="M512.24,229.46l5.89-3.44c.8-.5,3.49-.84,3.53.1l.59,7.23.59,7.24-2,10.42-6.08,3.83-8.58,5.36-.76-7.81-.76-7.8,2.2-11.17c0-.44.58-1.07,1-1.3Z" transform="translate(-188.88 -84.6)"/><path class="cls-121" d="M512.35,229.7l5.73-3.33c.71-.44,3.42-.92,3.45-.09l.6,7,.59,7-2.28,9.56-5.7,3.59-8.41,5.23-.77-7.51-.78-7.51,2.49-10.22c0-.39.58-1,.92-1.19Z" transform="translate(-188.88 -84.6)"/><path class="cls-122" d="M512.46,229.94l5.57-3.21c.62-.39,3.35-1,3.38-.28l.59,6.71.6,6.71-2.54,8.7-5.32,3.34L506.5,257l-.79-7.22-.78-7.22,2.77-9.26c0-.35.59-.91.88-1.09Z" transform="translate(-188.88 -84.6)"/><path class="cls-123" d="M512.58,230.18l5.4-3.1c.53-.33,3.28-1.08,3.3-.46l.6,6.45.6,6.45-2.81,7.83-4.93,3.1-8.07,5-.8-6.93-.8-6.92,3.05-8.31c0-.3.6-.83.85-1Z" transform="translate(-188.88 -84.6)"/><path class="cls-124" d="M512.69,230.42l5.23-3c.45-.27,3.22-1.16,3.24-.64l.6,6.19.6,6.18-3.07,7L514.73,249l-7.89,4.88-.81-6.64-.81-6.63,3.33-7.36c0-.24.61-.75.82-.88Z" transform="translate(-188.88 -84.6)"/><path class="cls-125" d="M512.8,230.66l5.07-2.87c.36-.22,3.15-1.25,3.17-.83l.6,5.92.6,5.92-3.33,6.12-4.18,2.6L507,252.27l-.82-6.34-.83-6.34,3.61-6.4c0-.2.62-.67.79-.78Z" transform="translate(-188.88 -84.6)"/><path class="cls-126" d="M512.91,230.89l4.91-2.75c.26-.16,3.08-1.32,3.09-1l.6,5.66.61,5.66-3.59,5.25-3.8,2.35-7.55,4.63-.84-6.05-.84-6,3.9-5.45c0-.15.63-.59.75-.67Z" transform="translate(-188.88 -84.6)"/><path class="cls-127" d="M513,231.13l4.74-2.63c.18-.12,3-1.41,3-1.2l.6,5.39.61,5.4-3.85,4.39-3.42,2.1-7.37,4.52-.86-5.76-.85-5.76,4.18-4.49c0-.09.63-.51.72-.56Z" transform="translate(-188.88 -84.6)"/><path class="cls-128" d="M513.13,231.37l4.58-2.52a30.5,30.5,0,0,1,2.95-1.38l.61,5.13.61,5.14-4.12,3.52-3,1.86-7.2,4.39-.87-5.46-.87-5.47,4.46-3.53a4.87,4.87,0,0,1,.69-.46Z" transform="translate(-188.88 -84.6)"/><polygon class="cls-129" points="317.05 150.98 324.36 147 331.66 143.03 332.27 147.9 332.88 152.78 325.85 157.05 318.82 161.32 317.94 156.15 317.05 150.98"/><polygon class="cls-130" points="333.55 138.28 366.22 222.76 363.19 221.67 330.53 137.19 333.55 138.28"/><polygon class="cls-130" points="333.54 138.28 366.21 222.76 368.33 221.56 335.67 137.09 333.54 138.28"/><polygon class="cls-130" points="335.67 137.09 333.54 138.28 330.53 137.19 332.66 135.99 335.67 137.09"/><polygon class="cls-130" points="329.64 179.14 330.52 181.42 327.5 180.34 326.62 178.06 329.64 179.14"/><polygon class="cls-130" points="329.64 179.14 330.52 181.42 346.78 172.34 345.9 170.07 329.64 179.14"/><polygon class="cls-130" points="345.9 170.07 329.64 179.14 326.62 178.06 342.89 168.97 345.9 170.07"/><polygon class="cls-130" points="333.18 188.31 334.06 190.59 331.03 189.5 330.15 187.22 333.18 188.31"/><polygon class="cls-130" points="333.17 188.31 334.05 190.59 350.31 181.51 349.44 179.24 333.17 188.31"/><polygon class="cls-130" points="349.44 179.24 333.17 188.31 330.15 187.22 346.43 178.14 349.44 179.24"/><polygon class="cls-130" points="336.73 197.51 337.61 199.79 334.58 198.71 333.7 196.43 336.73 197.51"/><polygon class="cls-130" points="336.72 197.51 337.6 199.79 353.86 190.72 352.99 188.44 336.72 197.51"/><polygon class="cls-130" points="352.99 188.44 336.72 197.51 333.7 196.43 349.98 187.35 352.99 188.44"/><polygon class="cls-130" points="340.27 206.68 341.15 208.96 338.12 207.87 337.24 205.59 340.27 206.68"/><polygon class="cls-130" points="340.26 206.68 341.14 208.96 357.4 199.88 356.52 197.61 340.26 206.68"/><polygon class="cls-130" points="356.52 197.61 340.26 206.68 337.24 205.59 353.52 196.51 356.52 197.61"/><polygon class="cls-130" points="318.8 151.62 319.68 153.9 316.66 152.81 315.78 150.53 318.8 151.62"/><polygon class="cls-130" points="318.8 151.62 319.68 153.9 335.94 144.82 335.06 142.54 318.8 151.62"/><polygon class="cls-130" points="335.06 142.54 318.8 151.62 315.78 150.53 332.05 141.45 335.06 142.54"/><polygon class="cls-130" points="322.34 160.78 323.22 163.06 320.19 161.98 319.31 159.69 322.34 160.78"/><polygon class="cls-130" points="322.33 160.78 323.21 163.06 339.47 153.99 338.6 151.71 322.33 160.78"/><polygon class="cls-130" points="338.6 151.71 322.33 160.78 319.31 159.69 335.59 150.62 338.6 151.71"/><polygon class="cls-130" points="325.89 169.99 326.77 172.27 323.75 171.18 322.87 168.9 325.89 169.99"/><polygon class="cls-130" points="325.88 169.99 326.76 172.27 343.02 163.19 342.15 160.91 325.88 169.99"/><polygon class="cls-130" points="342.15 160.91 325.88 169.99 322.87 168.9 339.14 159.82 342.15 160.91"/><polygon class="cls-130" points="343.79 215.81 344.67 218.09 341.65 217 340.77 214.72 343.79 215.81"/><polygon class="cls-130" points="343.78 215.81 344.66 218.09 360.92 209.01 360.05 206.74 343.78 215.81"/><polygon class="cls-130" points="360.05 206.74 343.78 215.81 340.77 214.72 357.04 205.64 360.05 206.74"/><polygon class="cls-130" points="347.33 224.98 348.21 227.26 345.18 226.17 344.3 223.89 347.33 224.98"/><polygon class="cls-130" points="347.32 224.98 348.2 227.26 364.46 218.18 363.58 215.91 347.32 224.98"/><polygon class="cls-130" points="363.58 215.91 347.32 224.98 344.3 223.89 360.58 214.81 363.58 215.91"/><polygon class="cls-130" points="315.16 148.57 347.83 233.03 344.8 231.94 312.13 147.48 315.16 148.57"/><polygon class="cls-130" points="315.15 148.57 347.82 233.03 349.94 231.83 317.28 147.37 315.15 148.57"/><polygon class="cls-130" points="317.28 147.37 315.15 148.57 312.13 147.48 314.27 146.28 317.28 147.37"/><path class="cls-108" d="M350.32,388.66l-15.88-9.33a2.87,2.87,0,0,1,0-4.95l21-12.85,22,12.43L365.3,381.3l-12.09,7.35A2.9,2.9,0,0,1,350.32,388.66Z" transform="translate(-188.88 -84.6)"/><path class="cls-109" d="M354.88,362.08l10.81,6.12,10.81,6.12-11.84,7.2-11.76,6.85a2.84,2.84,0,0,1-2.81,0l-3-1.75-12.46-7.31a2.78,2.78,0,0,1-.13-4.78Z" transform="translate(-188.88 -84.6)"/><path class="cls-110" d="M354.37,362.63l10.63,6,10.62,6L364,381.73l-11.43,6.37a2.8,2.8,0,0,1-2.72-.05l-2.9-1.7-12.12-7.1a2.7,2.7,0,0,1-.22-4.6Z" transform="translate(-188.88 -84.6)"/><path class="cls-111" d="M353.86,363.19l10.44,5.92L374.74,375,363.38,382l-11.1,5.87a2.75,2.75,0,0,1-2.64-.08l-2.82-1.65-11.76-6.88c-1.63-.94-1.95-3.47-.33-4.42Z" transform="translate(-188.88 -84.6)"/><path class="cls-112" d="M353.36,363.74l10.25,5.83,10.25,5.83-11.12,6.76L352,387.55a2.74,2.74,0,0,1-2.55-.11l-2.73-1.6-11.41-6.67c-1.54-.89-2-3.35-.44-4.25Z" transform="translate(-188.88 -84.6)"/><path class="cls-113" d="M352.85,364.29,362.92,370,373,375.76l-10.89,6.62-10.45,4.9a2.71,2.71,0,0,1-2.47-.15l-2.65-1.54-11.06-6.46c-1.45-.84-2-3.22-.53-4.07Z" transform="translate(-188.88 -84.6)"/><path class="cls-114" d="M352.35,364.85l9.88,5.64,9.88,5.63-10.65,6.47L351.34,387a2.7,2.7,0,0,1-2.39-.17l-2.56-1.5-10.71-6.25c-1.36-.78-2-3.09-.64-3.89Z" transform="translate(-188.88 -84.6)"/><path class="cls-115" d="M351.84,365.4l9.69,5.54,9.7,5.55-10.4,6.32-9.8,3.92a2.68,2.68,0,0,1-2.3-.21l-2.48-1.44-10.37-6c-1.26-.73-2-3-.74-3.71Z" transform="translate(-188.88 -84.6)"/><path class="cls-116" d="M351.34,366l9.5,5.45,9.51,5.45L360.19,383l-9.47,3.43a2.69,2.69,0,0,1-2.22-.23l-2.4-1.39-10-5.83c-1.18-.68-2-2.84-.85-3.53Z" transform="translate(-188.88 -84.6)"/><path class="cls-117" d="M350.83,366.51l9.32,5.35,9.32,5.35-9.92,6-9.14,2.95a2.72,2.72,0,0,1-2.14-.27L346,384.57,336.3,379c-1.09-.63-2-2.72-.95-3.36Z" transform="translate(-188.88 -84.6)"/><path class="cls-118" d="M350.33,367.06l9.13,5.25,9.13,5.26-9.68,5.88-8.81,2.46a2.8,2.8,0,0,1-2.06-.3l-2.22-1.29-9.32-5.4c-1-.58-2-2.6-1.05-3.18Z" transform="translate(-188.88 -84.6)"/><path class="cls-119" d="M349.82,367.61l8.94,5.16,8.95,5.16-9.44,5.73-8.48,2a2.78,2.78,0,0,1-2-.33l-2.15-1.24-9-5.18c-.91-.53-2.06-2.47-1.16-3Z" transform="translate(-188.88 -84.6)"/><path class="cls-120" d="M349.31,368.17l8.76,5.06,8.76,5.06-9.2,5.59-8.15,1.48c-.39.22-1.51-.14-1.89-.36l-2.06-1.19-8.61-5c-.82-.47-2.08-2.35-1.26-2.83Z" transform="translate(-188.88 -84.6)"/><path class="cls-121" d="M348.81,368.72l8.57,5,8.57,5-9,5.44-7.83,1c-.33.2-1.46-.19-1.8-.39l-2-1.13-8.26-4.76c-.72-.42-2.08-2.23-1.36-2.65Z" transform="translate(-188.88 -84.6)"/><path class="cls-122" d="M348.3,369.27l8.39,4.87,8.38,4.87-8.71,5.3-7.51.5c-.29.17-1.42-.25-1.72-.42l-1.89-1.09-7.91-4.55c-.63-.36-2.1-2.09-1.47-2.47Z" transform="translate(-188.88 -84.6)"/><path class="cls-123" d="M347.8,369.83,356,374.6l8.2,4.77-8.47,5.15-7.18,0c-.25.15-1.38-.31-1.63-.46l-1.81-1-7.56-4.34c-.55-.31-2.12-2-1.57-2.29Z" transform="translate(-188.88 -84.6)"/><path class="cls-124" d="M347.29,370.38l8,4.68,8,4.68-8.23,5-6.85-.48c-.21.13-1.34-.36-1.55-.48l-1.73-1-7.21-4.12c-.45-.26-2.12-1.85-1.67-2.11Z" transform="translate(-188.88 -84.6)"/><path class="cls-125" d="M346.78,370.93l7.83,4.58,7.82,4.59-8,4.85-6.52-1c-.17.1-1.3-.42-1.47-.52l-1.64-.93L338,378.63c-.36-.21-2.14-1.73-1.78-1.94Z" transform="translate(-188.88 -84.6)"/><path class="cls-126" d="M346.28,371.49l7.63,4.48,7.64,4.49-7.75,4.71-6.19-1.46a5.32,5.32,0,0,1-1.39-.54l-1.55-.88-6.51-3.7c-.28-.16-2.16-1.6-1.89-1.76Z" transform="translate(-188.88 -84.6)"/><path class="cls-127" d="M345.77,372l7.45,4.39,7.45,4.39-7.51,4.56-5.86-1.94a8.26,8.26,0,0,1-1.31-.57l-1.47-.84-6.16-3.48c-.18-.11-2.16-1.48-2-1.58Z" transform="translate(-188.88 -84.6)"/><path class="cls-128" d="M345.27,372.59l7.26,4.3,7.26,4.29-7.26,4.42L347,383.17c-.05,0-1.18-.59-1.22-.61l-1.39-.78-5.81-3.27a22.9,22.9,0,0,1-2.09-1.41Z" transform="translate(-188.88 -84.6)"/><polygon class="cls-129" points="163.01 301.21 155.35 296.92 147.7 292.63 155.88 288.54 162.96 292.74 170.03 296.94 163.01 301.21"/><path class="cls-108" d="M371.89,334.79,364,330l-7.85-4.82a2.86,2.86,0,0,0-4.38,2.31l-1.19,10.93-1.2,10.94,10.65,6.79,10.65,6.79L372,350.13l1.25-12.79A2.86,2.86,0,0,0,371.89,334.79Z" transform="translate(-188.88 -84.6)"/><path class="cls-109" d="M351.9,327.63l-1.18,10.55-1.19,10.55L360,355.38,370.51,362l1.29-12.44,1-12.27a2.82,2.82,0,0,0-1.33-2.46l-7.59-4.66-7.69-4.7A2.81,2.81,0,0,0,351.9,327.63Z" transform="translate(-188.88 -84.6)"/><path class="cls-110" d="M352,327.81,350.82,338l-1.17,10.16L360,354.64l10.33,6.52,1.33-12.08.78-11.76A2.75,2.75,0,0,0,371.1,335l-7.35-4.5-7.52-4.59C354.54,324.82,352.08,325.82,352,327.81Z" transform="translate(-188.88 -84.6)"/><path class="cls-111" d="M352.08,328l-1.16,9.77-1.16,9.77,10.16,6.38,10.16,6.37,1.37-11.73.55-11.24a2.7,2.7,0,0,0-1.29-2.26l-7.1-4.34-7.36-4.48C354.65,325.23,352.16,326.11,352.08,328Z" transform="translate(-188.88 -84.6)"/><path class="cls-112" d="M352.17,328.16,351,337.55l-1.15,9.38,10,6.24,10,6.23L371.28,348l.3-10.73a2.63,2.63,0,0,0-1.26-2.17L363.46,331l-7.19-4.36C354.76,325.65,352.25,326.39,352.17,328.16Z" transform="translate(-188.88 -84.6)"/><path class="cls-113" d="M352.26,328.34l-1.14,9-1.13,9,9.83,6.09,9.84,6.1,1.44-11,.07-10.23a2.56,2.56,0,0,0-1.24-2.06l-6.61-4-7-4.25C354.86,326.07,352.33,326.67,352.26,328.34Z" transform="translate(-188.88 -84.6)"/><path class="cls-114" d="M352.35,328.52l-1.12,8.61-1.13,8.61,9.67,5.95,9.67,6L370.93,347l-.17-9.71a2.57,2.57,0,0,0-1.22-2l-6.37-3.85-6.87-4.14C355,326.48,352.42,327,352.35,328.52Z" transform="translate(-188.88 -84.6)"/><path class="cls-115" d="M352.44,328.69l-1.11,8.23-1.11,8.22,9.5,5.81,9.51,5.82,1.52-10.31-.4-9.2a2.49,2.49,0,0,0-1.21-1.87l-6.11-3.7-6.71-4C355.08,326.9,352.5,327.23,352.44,328.69Z" transform="translate(-188.88 -84.6)"/><path class="cls-116" d="M352.53,328.87l-1.1,7.84-1.1,7.83,9.34,5.68,9.35,5.67,1.56-10-.64-8.68a2.5,2.5,0,0,0-1.19-1.78l-5.87-3.53-6.54-3.9C355.18,327.32,352.59,327.51,352.53,328.87Z" transform="translate(-188.88 -84.6)"/><path class="cls-117" d="M352.62,329.05l-1.09,7.44-1.09,7.45,9.18,5.54L368.8,355l1.6-9.6-.88-8.18a2.43,2.43,0,0,0-1.16-1.67l-5.62-3.38-6.38-3.78C355.29,327.73,352.67,327.79,352.62,329.05Z" transform="translate(-188.88 -84.6)"/><path class="cls-118" d="M352.71,329.22l-1.08,7.06-1.07,7.07,9,5.39,9,5.4,1.64-9.26-1.12-7.66c0-.54-.68-1.29-1.14-1.57l-5.38-3.22-6.22-3.67C355.4,328.15,352.76,328.07,352.71,329.22Z" transform="translate(-188.88 -84.6)"/><path class="cls-119" d="M352.8,329.4l-1.07,6.67-1.06,6.68,8.85,5.25,8.85,5.26,1.68-8.9-1.35-7.15c0-.49-.7-1.22-1.12-1.48l-5.13-3.05-6.06-3.56C355.51,328.57,352.84,328.35,352.8,329.4Z" transform="translate(-188.88 -84.6)"/><path class="cls-120" d="M352.89,329.58l-1.05,6.28-1.06,6.29,8.69,5.12,8.69,5.11,1.72-8.55-1.59-6.63c0-.44-.73-1.15-1.1-1.38l-4.89-2.9-5.89-3.44C355.61,329,352.93,328.64,352.89,329.58Z" transform="translate(-188.88 -84.6)"/><path class="cls-121" d="M353,329.75l-1,5.9-1,5.9,8.52,5,8.53,5,1.75-8.19-1.82-6.12c0-.4-.75-1.08-1.08-1.29l-4.64-2.73-5.73-3.33C355.72,329.4,353,328.92,353,329.75Z" transform="translate(-188.88 -84.6)"/><path class="cls-122" d="M353.07,329.93l-1,5.51L351,341l8.36,4.84,8.36,4.84,1.8-7.85-2.07-5.61c0-.34-.76-1-1.06-1.18L362,333.42l-5.56-3.22C355.83,329.82,353.1,329.2,353.07,329.93Z" transform="translate(-188.88 -84.6)"/><path class="cls-123" d="M353.16,330.11l-1,5.12-1,5.13,8.2,4.69,8.2,4.7,1.83-7.49-2.3-5.1c0-.29-.79-.93-1-1.09l-4.14-2.41-5.41-3.1C355.93,330.23,353.18,329.48,353.16,330.11Z" transform="translate(-188.88 -84.6)"/><path class="cls-124" d="M353.25,330.28l-1,4.74-1,4.74,8,4.55,8,4.56,1.86-7.13-2.53-4.59c0-.25-.81-.86-1-1l-3.9-2.25-5.24-3C356,330.65,353.27,329.76,353.25,330.28Z" transform="translate(-188.88 -84.6)"/><path class="cls-125" d="M353.34,330.46l-1,4.35-1,4.35,7.87,4.42,7.87,4.41,1.91-6.78-2.77-4.07c0-.2-.83-.79-1-.89l-3.65-2.1-5.08-2.86C356.15,331.07,353.35,330,353.34,330.46Z" transform="translate(-188.88 -84.6)"/><path class="cls-126" d="M353.43,330.64l-1,4-1,4,7.71,4.28,7.71,4.27,1.94-6.42-3-3.57c0-.14-.86-.71-1-.79l-3.41-1.93-4.91-2.75C356.25,331.48,353.44,330.32,353.43,330.64Z" transform="translate(-188.88 -84.6)"/><path class="cls-127" d="M353.51,330.81l-1,3.58-1,3.57,7.54,4.14,7.55,4.14,2-6.08-3.25-3.05c0-.1-.87-.64-.95-.69l-3.16-1.77L356.54,332C356.36,331.9,353.52,330.6,353.51,330.81Z" transform="translate(-188.88 -84.6)"/><path class="cls-128" d="M353.6,331l-1,3.19-1,3.19,7.38,4,7.38,4,2-5.72L365,337.1a9.48,9.48,0,0,0-.94-.6l-2.91-1.61-4.59-2.52A28.43,28.43,0,0,0,353.6,331Z" transform="translate(-188.88 -84.6)"/><polygon class="cls-129" points="179.42 254.51 172.12 250.53 164.81 246.56 162.93 252.16 170.14 256.02 177.36 259.88 179.42 254.51"/><polygon class="cls-130" points="163.59 243.54 144.7 293.65 147.73 292.56 166.62 242.45 163.59 243.54"/><polygon class="cls-130" points="163.6 243.54 144.71 293.65 142.59 292.44 161.48 242.34 163.6 243.54"/><polygon class="cls-130" points="161.48 242.34 163.6 243.54 166.62 242.45 164.48 241.25 161.48 242.34"/><polygon class="cls-130" points="177.74 259.2 176.86 261.48 179.89 260.39 180.77 258.11 177.74 259.2"/><polygon class="cls-130" points="177.75 259.2 176.87 261.48 160.61 252.4 161.49 250.13 177.75 259.2"/><polygon class="cls-130" points="161.49 250.13 177.75 259.2 180.77 258.11 164.5 249.03 161.49 250.13"/><polygon class="cls-130" points="174.19 268.4 173.31 270.68 176.34 269.59 177.22 267.31 174.19 268.4"/><polygon class="cls-130" points="174.2 268.4 173.32 270.68 157.06 261.6 157.94 259.33 174.2 268.4"/><polygon class="cls-130" points="157.94 259.33 174.2 268.4 177.22 267.31 160.94 258.23 157.94 259.33"/><polygon class="cls-130" points="170.66 277.57 169.78 279.85 172.8 278.76 173.68 276.48 170.66 277.57"/><polygon class="cls-130" points="170.66 277.57 169.78 279.85 153.52 270.77 154.4 268.5 170.66 277.57"/><polygon class="cls-130" points="154.4 268.5 170.66 277.57 173.68 276.48 157.41 267.4 154.4 268.5"/><polygon class="cls-130" points="167.13 286.7 166.25 288.98 169.28 287.89 170.16 285.61 167.13 286.7"/><polygon class="cls-130" points="167.14 286.7 166.26 288.98 150 279.9 150.88 277.63 167.14 286.7"/><polygon class="cls-130" points="150.88 277.63 167.14 286.7 170.16 285.61 153.88 276.53 150.88 277.63"/><polygon class="cls-130" points="163.6 295.87 162.72 298.15 165.74 297.06 166.62 294.78 163.6 295.87"/><polygon class="cls-130" points="163.6 295.87 162.72 298.15 146.46 289.07 147.34 286.79 163.6 295.87"/><polygon class="cls-130" points="147.34 286.79 163.6 295.87 166.62 294.78 150.35 285.7 147.34 286.79"/><polygon class="cls-130" points="181.99 253.82 163.1 303.92 166.12 302.83 185.01 252.73 181.99 253.82"/><polygon class="cls-130" points="181.99 253.82 163.1 303.92 160.98 302.72 179.87 252.63 181.99 253.82"/><polygon class="cls-130" points="179.87 252.63 181.99 253.82 185.01 252.73 182.88 251.53 179.87 252.63"/><path class="cls-131" d="M526.56,237.87a3.15,3.15,0,1,1-3.26-2.34A2.86,2.86,0,0,1,526.56,237.87Z" transform="translate(-188.88 -84.6)"/><path class="cls-132" d="M522.63,259.58a5.32,5.32,0,0,0-.9-.76c-.25-.11-.39-.22-.67-.1s0,.61,0,.61-.25-.51-.5-.42-.26.23-.25.3.08.36.08.36-.31-.33-.58-.22-.18.45-.18.45l.09.17s-.31-.26-.55,0,.14,1,.31,1.3a12.3,12.3,0,0,0,1.47,2.11c.6.61,1.44,1.32,1.44,1.32s1.91-2,1.83-2.64a2.65,2.65,0,0,1,.17-1.51,11,11,0,0,1,1-1.3c.36-.36.22-.69-.48-.48s-1.08,1-1.34,1.2S522.84,259.78,522.63,259.58Z" transform="translate(-188.88 -84.6)"/><path class="cls-133" d="M520,260.42a1.59,1.59,0,0,0-.17-.39,1.54,1.54,0,0,1-.18-.51.57.57,0,0,0,0,.28l.06.13A1.59,1.59,0,0,1,520,260.42Z" transform="translate(-188.88 -84.6)"/><path class="cls-134" d="M520.74,260a2.91,2.91,0,0,0-.27-.5c0,.09.07.18.07.18a1.62,1.62,0,0,0-.43-.33A2.31,2.31,0,0,1,520.74,260Z" transform="translate(-188.88 -84.6)"/><path class="cls-135" d="M519.84,261.19a3.22,3.22,0,0,1-.57-.83h0a1.86,1.86,0,0,1,.05.3,3.37,3.37,0,0,0,.2.57,12.3,12.3,0,0,0,1.47,2.11c.25.25.54.52.8.76,0,0,0,0,.06,0a3,3,0,0,0-.22-.58A21.37,21.37,0,0,0,519.84,261.19Z" transform="translate(-188.88 -84.6)"/><path class="cls-136" d="M519.65,259.85h0Z" transform="translate(-188.88 -84.6)"/><path class="cls-137" d="M521.37,259.66a5.42,5.42,0,0,1-.31-.59c-.06-.13-.08-.19-.1-.24a.58.58,0,0,0,.07.38C521,259.09,521.37,259.66,521.37,259.66Z" transform="translate(-188.88 -84.6)"/><path class="cls-138" d="M528.34,238.56c-.61-.4-3.87,2.66-2.37,3.53S529.67,239.45,528.34,238.56Z" transform="translate(-188.88 -84.6)"/><path class="cls-139" d="M539.18,247.92c-1-1.75-2-2.63-4.32-4.14s-7-4.11-7.47-4.94a20.46,20.46,0,0,0-1.88-2.68,6.89,6.89,0,0,0-1.49-.95,2.63,2.63,0,0,0-1.15-.3c-.64.05,0,.46.46.69s.94.59.94.59l-.82-.51a3.49,3.49,0,0,0-1.45-.5c-.41-.05-1.21.22-.38.51a6.69,6.69,0,0,1,1.16.59c1,.57.84.63.84.63s-.48-.33-1.13-.72a6.29,6.29,0,0,0-1.53-.46c-.48-.11-1.24.39-.38.66a4,4,0,0,1,1.26.51,10.42,10.42,0,0,1,.87.6l-.78-.47a4.51,4.51,0,0,0-1.44-.43c-.71-.19-1.3.27-.41.69s1.08.49,1.55.76,1.08.62,1,.94-.26,0-.86-.13a1.44,1.44,0,0,0-1.46.47c0,.24.57.3,1.11.4s1.29.82,2.12,1,1.35.19,1.62.29a38.67,38.67,0,0,1,4.81,3.47,43.33,43.33,0,0,0,5.29,3.72Z" transform="translate(-188.88 -84.6)"/><path class="cls-140" d="M528.06,239.18a4.31,4.31,0,0,1-.77,1.52,3.26,3.26,0,0,1-1.24.89l2,1.68,1.79-3.08Z" transform="translate(-188.88 -84.6)"/><path class="cls-141" d="M528.34,238.56c.12,1.11-.92,3.31-2.57,3.32-.46,0,2.49,2.35,3.31,3.33,1.2,1.42,4.48,5.36,5.67,6.44s9.72-.81,9.44-3.05-1.81-2.32-4-2.55-3.17.68-4.77-.82S528.3,238.23,528.34,238.56Z" transform="translate(-188.88 -84.6)"/><path class="cls-69" d="M542.8,296.46s1,1.55.4,2.1a3.41,3.41,0,0,1-2.64.86,5,5,0,0,0-2.39-.23,13.64,13.64,0,0,1-6-1.34c-.93-.71-.49-1.9,1.3-2.22a43.66,43.66,0,0,1,4.82-.69C538.79,295,542.8,296.46,542.8,296.46Z" transform="translate(-188.88 -84.6)"/><path class="cls-69" d="M542.34,297.91c-1.59.61-2.23.29-3.83.36s-6.33-.58-6.5-1.56.88-1,1.73-1.17,3.56-.62,3.77-.68,5,.81,5,.81.67,1.33.43,1.61S542.77,297.75,542.34,297.91Z" transform="translate(-188.88 -84.6)"/><path class="cls-142" d="M544.54,279.44l-6.46,2.22s2.3,4.88,2.91,6.89,2.4,8,1.45,8.61-5.17-.21-5.69-.71a2.77,2.77,0,0,1-.77-2.06,16.15,16.15,0,0,0-2.3-6.5c-1.52-2.29-4.64-7-3.37-10.09s10.21-7.17,10.21-7.17Z" transform="translate(-188.88 -84.6)"/><path class="cls-80" d="M544.54,279.44l-6.46,2.22s2.3,4.88,2.91,6.89,2.4,8,1.45,8.61a4.19,4.19,0,0,1-2.15.16c.11-2.15.12-5.69-.73-7.71a57.88,57.88,0,0,0-5-8.14L543,276Z" transform="translate(-188.88 -84.6)"/><path class="cls-69" d="M555.08,302.3a4.1,4.1,0,0,1,.48,1.92,2.11,2.11,0,0,1-2.41,1.06c-1.11-.28-1.76-1.22-2.2-1.42s-2.63,0-4.52-1-2-2.57-.38-2.93a13.73,13.73,0,0,1,5.84.25A17.24,17.24,0,0,1,555.08,302.3Z" transform="translate(-188.88 -84.6)"/><path class="cls-69" d="M554.62,303.93c-1.1.48-2.76-.22-3.56-.65s-1.93.11-3.74-.79-2.52-1.64-1.89-2.19,3.22-1,5.45-.3,3.74,1.18,3.74,1.18.8,1.39.62,1.77S555.25,303.66,554.62,303.93Z" transform="translate(-188.88 -84.6)"/><path class="cls-142" d="M547.55,269.62a26.89,26.89,0,0,1,2,8.27c.39,4.76,3.21,13.92,4.1,17.18s2.87,7.08,1.37,8.27c-.87.67-2.65.75-4.32-.52s-2.26-2.72-2.16-3,.09-1.63-1-4.26-3.52-9-3.89-11.23-4.07-12.55-4.07-12.55Z" transform="translate(-188.88 -84.6)"/><path class="cls-80" d="M543.65,284.29c.37,2.18,2.8,8.61,3.89,11.23s1.11,3.94,1,4.26.49,1.77,2.16,3a4.8,4.8,0,0,0,1.95.92,15.42,15.42,0,0,1-2.91-6.8c-1.16-5.63-3.81-12.56-4.78-16.45-.57-2.27-.93-6.71-1.51-9.5l-3.88.75S543.29,282.11,543.65,284.29Z" transform="translate(-188.88 -84.6)"/><path class="cls-143" d="M530.93,236.45c-1,.74-1.92,1.83-1.45,4.57s.68,4,1.3,4.31,1-.19,1.21.56a8.67,8.67,0,0,1,.27,2l5.69-2.47a2.84,2.84,0,0,1-.39-1.93c.19-1.06,1.55-3.29-.3-5.85A4.81,4.81,0,0,0,530.93,236.45Z" transform="translate(-188.88 -84.6)"/><path class="cls-144" d="M529.08,239.21c.08.52.55,1.3,1.3,1.22a1.12,1.12,0,0,1,1.18,1.16c-.08.44.05.53.05.53s.5-.33.83.06.18,1.38.08,1.77,1.34,1.24,2.36,1.13,2.37-.48,2.71-1.08a5.73,5.73,0,0,0,.51-5.32,5,5,0,0,0-6.26-2.94C529.55,236.66,529,238.46,529.08,239.21Z" transform="translate(-188.88 -84.6)"/><path class="cls-145" d="M531.58,249.65s.22-2.37,1.5-2.9,2.49-.58,3.31-1.16a3.55,3.55,0,0,0,1.17-1.44s1.08.08.49,1.16S531.58,249.65,531.58,249.65Z" transform="translate(-188.88 -84.6)"/><path class="cls-146" d="M536.13,246.6a16.13,16.13,0,0,0,2.29-1.65,25.07,25.07,0,0,1,3-.44,3.15,3.15,0,0,1,3.26,2.72,45,45,0,0,1,.2,7.76,17.43,17.43,0,0,0,1.35,7.83c1.06,2.77,4.06,8.7,4,9.41s-1.1,3.43-4.43,5.36-9.23,3.37-12.15,1.07c-2.64-2.08-.82-7.6-2-15-.75-4.66-3.17-8.36-1.67-11.14a12.79,12.79,0,0,1,4.64-5.2A13.17,13.17,0,0,0,536.13,246.6Z" transform="translate(-188.88 -84.6)"/><path class="cls-80" d="M531.44,249.84a5,5,0,0,1,2.41-2.47,11.76,11.76,0,0,0,3.6-1.78,2.09,2.09,0,0,0,.67-1.23l1.71.29a2.68,2.68,0,0,1-1.61,3c-2.11,1.11-4.63,1.56-6.08,2.81a15.48,15.48,0,0,0-2.14,2.24Z" transform="translate(-188.88 -84.6)"/><path class="cls-142" d="M531.44,249.84a5,5,0,0,1,2.41-2.47,11.76,11.76,0,0,0,3.6-1.78,2.09,2.09,0,0,0,.67-1.23l1.71.29s.27,1.56-1.84,2.67-5,1.85-6.2,3.18a22.05,22.05,0,0,0-1.79,2.18Z" transform="translate(-188.88 -84.6)"/><path class="cls-147" d="M539.65,244.62c0,.32,0,1.63-1.84,2.59-2.1,1.11-5,1.86-6.2,3.19-.46.5-.82.93-1.1,1.28l-.51,1a22.05,22.05,0,0,1,1.79-2.18c1.22-1.33,4.1-2.08,6.21-3.18s1.83-2.67,1.83-2.67Z" transform="translate(-188.88 -84.6)"/><path class="cls-148" d="M534.73,253.41c-2-2-3.83.26-5.12,2.11.32,1.53,1.63,5.33,2.09,8.18,1.18,7.36-.64,12.88,2,15a7.69,7.69,0,0,0,5.68,1.08,30.8,30.8,0,0,1-1.12-3.67c-.94-4-.16-6.4-.7-11.86S537.29,256,534.73,253.41Z" transform="translate(-188.88 -84.6)"/><path class="cls-80" d="M538.18,238.89a6.13,6.13,0,0,1-2.58,1.71,9.6,9.6,0,0,1-4.11.54.75.75,0,0,1,.07.45c-.08.44.05.53.05.53s.5-.33.83.06.18,1.38.08,1.77,1.34,1.24,2.36,1.13,2.37-.48,2.71-1.08A5.78,5.78,0,0,0,538.18,238.89Z" transform="translate(-188.88 -84.6)"/><path class="cls-149" d="M533.07,251.73a3.48,3.48,0,0,1,2.9,4.71c-.76,2.62-4,9.31-5.44,10.72a4,4,0,0,1-5.11.76c-1.9-1-3.91-1.81-4.07-3.38s1.69-3.1,2.66-3.14,2.66,1,3.1.6,1.73-5.19,2.22-6.81S530.61,251.41,533.07,251.73Z" transform="translate(-188.88 -84.6)"/></g></g></svg>