<svg xmlns="http://www.w3.org/2000/svg" xmlns:xlink="http://www.w3.org/1999/xlink" viewBox="0 0 500 500"><defs><style>.cls-1{fill:#fff;}.cls-2{fill:#ff9343;}.cls-3{fill:#ddf0fe;}.cls-4{fill:url(#linear-gradient);}.cls-5{fill:#de6a25;}.cls-11,.cls-14,.cls-6,.cls-7,.cls-8{fill:none;stroke-linecap:round;}.cls-6,.cls-7,.cls-8{stroke-linejoin:round;stroke-width:2.85px;}.cls-6{stroke:url(#linear-gradient-2);}.cls-7{stroke:url(#linear-gradient-3);}.cls-8{stroke:url(#linear-gradient-4);}.cls-9{fill:#e5b389;}.cls-10{fill:#020202;}.cls-11{stroke:#161c2c;stroke-width:0.87px;}.cls-11,.cls-14{stroke-miterlimit:10;}.cls-12{fill:url(#linear-gradient-5);}.cls-13{fill:#161c2c;}.cls-14{stroke:#508dad;stroke-width:0.76px;}</style><linearGradient id="linear-gradient" x1="75.98" y1="236.97" x2="357.98" y2="236.97" gradientUnits="userSpaceOnUse"><stop offset="0" stop-color="#db541d"/><stop offset="0.14" stop-color="#be4911"/><stop offset="0.32" stop-color="#a8410f"/><stop offset="0.54" stop-color="#973d0e"/><stop offset="0.77" stop-color="#622809"/><stop offset="1" stop-color="#492108"/></linearGradient><linearGradient id="linear-gradient-2" x1="275.41" y1="185.93" x2="327.8" y2="185.93" xlink:href="#linear-gradient"/><linearGradient id="linear-gradient-3" x1="275.41" y1="278.14" x2="327.8" y2="278.14" xlink:href="#linear-gradient"/><linearGradient id="linear-gradient-4" x1="275.41" y1="381.29" x2="327.8" y2="381.29" xlink:href="#linear-gradient"/><linearGradient id="linear-gradient-5" x1="336.79" y1="349.33" x2="432.06" y2="349.33" xlink:href="#linear-gradient"/></defs><g id="BACKGROUND"><rect class="cls-1" width="500" height="500"/><path class="cls-2" d="M152.53,448.69s-31.91-3.6-36.72-43.15S40,343.38,37,284.19s22.37-83.5,46.68-93.34S104.77,130,104.39,86.49,139.22.77,193.22,22.78,250,111.5,278,119s58-51.4,111-42.2,88,41,76,91.11-57,74.46-40,122.27,37.93,53.62,37,91.11C461.5,401.5,502.05,466.38,152.53,448.69Z"/><path class="cls-2" d="M77.37,107s5,14.5,4.32,37S60.5,189.78,45,193.39,25.52,167,36.76,157.5,45,132,46,112.5,73.68,87.9,77.37,107Z"/><path class="cls-3" d="M443,242s-12.5,20.52-6.5,39.26,30.5,23.12,34.5,2.93S467.5,217.5,443,242Z"/></g><g id="OBJECTS"><ellipse class="cls-2" cx="253.25" cy="454.62" rx="230.25" ry="8.17"/><path class="cls-4" d="M171.83,73.6c-.08-1.1-.13-2.21-.13-3.32a47.5,47.5,0,0,1,95,0c0,1.11-.05,2.22-.13,3.32H358V451.16H76V73.6Z"/><rect class="cls-1" x="93.31" y="92.96" width="247.34" height="337.9" transform="translate(433.95 523.82) rotate(180)"/><path class="cls-5" d="M170.88,79.85v21.6h96.19V79.85H237.7c-1-4.68-9-8.32-18.72-8.32s-17.68,3.64-18.73,8.32Zm45.87-3A2.23,2.23,0,1,1,219,79,2.22,2.22,0,0,1,216.75,76.8Z"/><rect class="cls-5" x="271" y="167.91" width="42.28" height="42.28" rx="7.11" transform="translate(584.28 378.09) rotate(180)"/><polyline class="cls-6" points="276.84 186.28 291.45 199.25 326.37 172.61"/><rect class="cls-5" x="271" y="260.12" width="42.28" height="42.28" rx="7.11" transform="translate(584.28 562.52) rotate(180)"/><polyline class="cls-7" points="276.84 278.5 291.45 291.46 326.37 264.82"/><rect class="cls-5" x="271" y="363.27" width="42.28" height="42.28" rx="7.11" transform="translate(584.28 768.81) rotate(180)"/><polyline class="cls-8" points="276.84 381.64 291.45 394.61 326.37 367.97"/><rect class="cls-5" x="125" y="172.61" width="134.84" height="5.86" rx="1.15" transform="translate(384.84 351.07) rotate(180)"/><rect class="cls-5" x="149.56" y="126.5" width="134.84" height="5.86" rx="1.15" transform="translate(433.95 258.86) rotate(180)"/><rect class="cls-5" x="125" y="183" width="134.84" height="5.86" rx="1.15" transform="translate(384.84 371.86) rotate(180)"/><rect class="cls-5" x="170.69" y="193.39" width="89.14" height="5.86" rx="1.44" transform="translate(430.53 392.64) rotate(180)"/><rect class="cls-5" x="125" y="267.94" width="134.84" height="5.86" rx="1.15" transform="translate(384.84 541.73) rotate(180)"/><rect class="cls-5" x="125" y="278.33" width="134.84" height="5.86" rx="1.15" transform="translate(384.84 562.52) rotate(180)"/><rect class="cls-5" x="170.69" y="288.72" width="89.14" height="5.86" rx="1.44" transform="translate(430.53 583.31) rotate(180)"/><rect class="cls-5" x="125" y="371.08" width="134.84" height="5.86" rx="1.15" transform="translate(384.84 748.03) rotate(180)"/><rect class="cls-5" x="125" y="381.48" width="134.84" height="5.86" rx="1.15" transform="translate(384.84 768.81) rotate(180)"/><rect class="cls-5" x="170.69" y="391.87" width="89.14" height="5.86" rx="1.44" transform="translate(430.53 789.6) rotate(180)"/><path class="cls-9" d="M381.38,114s-1.52,6.74-2.18,12.83-4.13,14.57-3,20.66,5,13.92,11.09,15.88,13.49,2,18.05-1.3a24.45,24.45,0,0,0,7-8.27s7.83-3,5.87-11.31-8.48-4.57-8.92-.87-.65,5.44-.65,5.44l-2.4-.87,1.75-10.44s-6.31-.65-2.18-19.14c0,0-3.92-.66-6.09-2.61,0,0-7,1.52-11.75,0S381.38,114,381.38,114Z"/><path class="cls-10" d="M417.05,107.2s-3-10.87-16.31-10.65-14.36,3.91-19.14,5.32-13.71,6.86-11.75,13.82c1.31,3.26,3.26,1.52,3.26,1.52s-1.3,6.31,1.74,6.74a6.13,6.13,0,0,0,4.9-1.32h0c.72-4.65,1.63-8.68,1.63-8.68s1.74-1.53,6.52,0,11.75,0,11.75,0c2.17,2,6.09,2.61,6.09,2.61-4.13,18.49,2.18,19.14,2.18,19.14l-1.75,10.44,2.4.87s.21-1.74.65-5.44,7-7.39,8.92.87-5.87,11.31-5.87,11.31a22.08,22.08,0,0,1-1.55,2.59s7.85.89,15-11.72S439.24,107.86,417.05,107.2Z"/><path class="cls-11" d="M399.65,114a10.13,10.13,0,0,0,5.22-3"/><path class="cls-11" d="M405.74,116.56a5.92,5.92,0,0,0,6.09,0"/><path class="cls-5" d="M350.56,202.26s7.83-20.71,12.47-22.83,23.16-7.77,23.16-7.77L402.26,173s25,5.22,30.17,9.28S448,219.37,448,219.37s-10.44,7.83-22.33,6.38l-1.16,36.54s-12.33-.87-18.78,4.06S388,282.59,363.32,271c0,0,3.78-20.59,4.07-30.45s-.87-23.78-.87-23.78l-1.45,3.77S352.88,218.21,350.56,202.26Z"/><path class="cls-9" d="M386.19,162.91v8.75l-1.55.87s-1.59,6.24,3.34,6.82,9.86-1.74,14.28-6.38v-9.38S396.45,166.49,386.19,162.91Z"/><path class="cls-12" d="M429.45,358c.43-10.44-4.93-95.71-4.93-95.71s-12.33-.87-18.78,4.06S388,282.59,363.32,271c0,0-10.87,72.21-12.76,84s-13.77,78.74-13.77,78.74c15.22,5.22,27,1.35,27,1.35l26.1-114.89c5.66,25.67,16.53,113.54,16.53,113.54,12.18,3.05,25.67,0,25.67,0S429,368.44,429.45,358Z"/><path class="cls-13" d="M341.06,441.79a161.59,161.59,0,0,1-15.78,5.9c-8,2.45-13.07,3.08-14.17,6s11.66,4.4,33.49,2.57a18.7,18.7,0,0,1,7.81.5c.45.09,8.18,0,8.18,0s.33-6.76-1.25-10.07a32.52,32.52,0,0,0-2.46-4.52S349.7,447.88,341.06,441.79Z"/><path class="cls-9" d="M341.06,441.79l1.19-6.56A46.46,46.46,0,0,0,358,436l-1.14,6.15S351.41,448.14,341.06,441.79Z"/><path class="cls-13" d="M413.09,443.27s-2,7.22-.52,11.14,33.66,2.27,33.59,1.69,1-5.65-5.87-6.94-10.68-2.56-12.09-7.37C427,437.61,413.58,441.09,413.09,443.27Z"/><path class="cls-9" d="M413.42,442.75l-.78-8s9.89.42,14-.15l.45,5.87S421.46,437.89,413.42,442.75Z"/><path class="cls-9" d="M425.68,225.75l1.16,3.48S421.4,240.54,419,248.8s-4.35,18.06-5.66,20.89-6.59,4.29-6.59,4.29,4,13.52,14.43,17.66c0,0,1.56-11.29,4-17.82s21.18-36.33,23.79-43.94c1.31-4.13-2.3-9.64-2.3-9.64A36.11,36.11,0,0,1,425.68,225.75Z"/><path class="cls-9" d="M350.78,203.55,346.36,211s-4.57-15.23-9.57-23.93c-4.2-7.31-5.33-11.54-5.59-12.7,0,0,1-3.09,3.27-4.23s1.77-3.42,3.8-8.12,3.94-7,1.91-7.24-5.71,3.56-6.6,5.72-9.78,2.79-12.32-.64-2.15-9.77-3.55-12.31-2.92,1.14-2.92,3.43V157s-1.39-5.61-3.29-8.28-2.32.63-1.5,4.87c.78,4,1.95,9.42,6.67,13.4,3.15,2.66,4.45,7.39,4.9,9.57h0s.08.42.21,1.16h0c.84,4.65,4,22.21,6.1,31,2.39,10.23,10.66,28.93,19.14,30.67s18.06-18.92,18.06-18.92S354.33,219,350.78,203.55Z"/><path class="cls-14" d="M366.52,216.76l-1.45-17.4"/><path class="cls-14" d="M425.68,225.75h-2.47s-6.81-13.2-8.84-23.78"/><path class="cls-11" d="M389.86,320.15A145.23,145.23,0,0,0,386,299.48"/><path class="cls-11" d="M405.52,269.69s3.92,19.79,19.14,23.05"/></g></svg>