<svg xmlns="http://www.w3.org/2000/svg" xmlns:xlink="http://www.w3.org/1999/xlink" viewBox="0 0 3710 3710"><defs><style>.cls-1{fill:#fd6a18;}.cls-2{fill:url(#linear-gradient);}.cls-3{isolation:isolate;}.cls-4{fill:transparent;}.cls-5{clip-path:url(#clip-path);}.cls-6{opacity:0.5;}.cls-6,.cls-9{mix-blend-mode:soft-light;}.cls-7{fill:#f9aa41;}.cls-8{clip-path:url(#clip-path-2);}.cls-14,.cls-9{opacity:0.8;}.cls-10{fill:#7a3100;}.cls-11{fill:url(#linear-gradient-3);}.cls-12{fill:#963004;}.cls-13{fill:url(#linear-gradient-4);}.cls-15{fill:#a04805;}.cls-16{fill:url(#linear-gradient-5);}.cls-17{fill:url(#linear-gradient-6);}.cls-18{fill:url(#linear-gradient-7);}.cls-19{fill:url(#linear-gradient-8);}.cls-20{fill:url(#linear-gradient-9);}.cls-21{fill:url(#linear-gradient-10);}.cls-22{fill:#020202;}.cls-23{fill:url(#linear-gradient-11);}.cls-24{fill:url(#linear-gradient-12);}.cls-25{fill:url(#linear-gradient-13);}.cls-26{fill:url(#linear-gradient-14);}.cls-27{fill:url(#linear-gradient-15);}.cls-28{fill:url(#linear-gradient-16);}.cls-29{fill:url(#linear-gradient-17);}.cls-30{fill:#9d3060;}.cls-31{fill:url(#linear-gradient-18);}.cls-32{fill:#fc8;}.cls-33{fill:url(#linear-gradient-19);}.cls-34{fill:url(#linear-gradient-20);}.cls-35{opacity:0.3;mix-blend-mode:multiply;}.cls-36{fill:url(#linear-gradient-21);}.cls-37{fill:url(#linear-gradient-22);}.cls-38{fill:url(#linear-gradient-23);}.cls-39{fill:url(#linear-gradient-24);}.cls-40{fill:url(#linear-gradient-25);}</style><linearGradient id="linear-gradient" x1="2547.42" y1="1620.09" x2="1933.32" y2="2827.59" gradientUnits="userSpaceOnUse"><stop offset="0" stop-color="#ffc444"/><stop offset="1" stop-color="#f36f56"/></linearGradient><clipPath id="clip-path"><path class="cls-1" d="M1919.16,2431.51c-142.7,7.89-414.7-562.38-224.66-865.81,79.3-126.62,199-142.79,249.58-304,45.16-143.87-30.17-194.58-6.5-354.82,33.28-225.32,233.1-469.58,417.14-450.85,92.35,9.4,195.65,86.53,225.5,196.1,23.9,87.76-48.67,177-23,194.81,21.06,14.6,63.8-44.87,101.4-33.79,55.45,16.35,93.72,184.38,43.6,325.32-85.81,241.29-376.12,249.73-388,423.63-7.56,110.84,107.8,145.37,88.8,259.57-16.72,100.47-113.64,119.57-237.7,243.95C1971,2260.42,1995.67,2427.29,1919.16,2431.51Z"/></clipPath><clipPath id="clip-path-2"><path class="cls-2" d="M1875.83,2747.22c-46.69-227.78-40.17-404.29-26.55-519.45,10.69-90.39,34.48-216.72,98.79-232.6,30.81-7.61,48.39,15.71,80.55,6.29,60.74-17.81,59.18-118.87,97.51-192.38C2191.71,1683.32,2402.8,1583,2554,1657.35c182,89.54,201.37,395.09,103.49,489.25-58,55.8-161.78,41.81-167.42,82.39-5.68,40.83,98.32,63,105.61,128.44,7.55,67.77-94.42,129.2-100.61,132.84-123.58,72.65-220.8-2.5-356.42,31C2065,2539.5,1969.16,2592.39,1875.83,2747.22Z"/></clipPath><linearGradient id="linear-gradient-3" x1="1874.4" y1="796.81" x2="814.45" y2="4405.32" gradientUnits="userSpaceOnUse"><stop offset="0" stop-color="#fc530f"/><stop offset="0.14" stop-color="#dc4800"/><stop offset="0.32" stop-color="#c33f00"/><stop offset="0.54" stop-color="#b03a00"/><stop offset="0.77" stop-color="#712300"/><stop offset="1" stop-color="#521b00"/></linearGradient><linearGradient id="linear-gradient-4" x1="1477.21" y1="707.93" x2="231.49" y2="4081.77" gradientUnits="userSpaceOnUse"><stop offset="0" stop-color="#311944"/><stop offset="1" stop-color="#893976"/></linearGradient><linearGradient id="linear-gradient-5" x1="2746.51" y1="1683.62" x2="2753.69" y2="1788" gradientUnits="userSpaceOnUse"><stop offset="0" stop-color="#f36f56"/><stop offset="1" stop-color="#ffc444"/></linearGradient><linearGradient id="linear-gradient-6" x1="3769.96" y1="-524.59" x2="3921.59" y2="-524.59" gradientTransform="matrix(0.8, 0.6, -0.6, 0.8, -944.74, -857.88)" xlink:href="#linear-gradient-3"/><linearGradient id="linear-gradient-7" x1="3769.95" y1="-79.63" x2="3921.59" y2="-79.63" gradientTransform="matrix(0.8, 0.6, -0.6, 0.8, -944.74, -857.88)" xlink:href="#linear-gradient-3"/><linearGradient id="linear-gradient-8" x1="3769.94" y1="136.64" x2="3921.58" y2="136.64" gradientTransform="matrix(0.8, 0.6, -0.6, 0.8, -944.74, -857.88)" xlink:href="#linear-gradient-3"/><linearGradient id="linear-gradient-9" x1="3784.87" y1="-299" x2="3911.64" y2="-299" gradientTransform="matrix(0.8, 0.6, -0.6, 0.8, -944.74, -857.88)" xlink:href="#linear-gradient-3"/><linearGradient id="linear-gradient-10" x1="-4349.41" y1="-299.24" x2="-4222.63" y2="-299.24" gradientTransform="matrix(-0.8, -0.6, -0.6, 0.8, -1295.45, -1119.87)" xlink:href="#linear-gradient-3"/><linearGradient id="linear-gradient-11" x1="2829.27" y1="1590.09" x2="2839.05" y2="1952.15" gradientTransform="matrix(1, 0.05, -0.05, 1, 185.58, -55.8)" xlink:href="#linear-gradient-5"/><linearGradient id="linear-gradient-12" x1="-280.07" y1="1391.15" x2="-196.99" y2="1478.72" gradientTransform="matrix(-0.97, -0.26, -0.26, 0.97, 3092.86, 402.95)" xlink:href="#linear-gradient-5"/><linearGradient id="linear-gradient-13" x1="2455.5" y1="1780.97" x2="2475.73" y2="1845.56" xlink:href="#linear-gradient-5"/><linearGradient id="linear-gradient-14" x1="-57.68" y1="3220.62" x2="-57.68" y2="2876.93" gradientTransform="matrix(-1, 0.01, 0.01, 1, 2839.18, -14.86)" xlink:href="#linear-gradient"/><linearGradient id="linear-gradient-15" x1="63.41" y1="3207.79" x2="63.41" y2="2864.08" gradientTransform="matrix(-1, 0.01, 0.01, 1, 2839.18, -14.86)" xlink:href="#linear-gradient"/><linearGradient id="linear-gradient-16" x1="2436.02" y1="2151.53" x2="3108.75" y2="2151.53" xlink:href="#linear-gradient-3"/><linearGradient id="linear-gradient-17" x1="2474.21" y1="2265.41" x2="2941.26" y2="2265.41" xlink:href="#linear-gradient-3"/><linearGradient id="linear-gradient-18" x1="598.7" y1="870.27" x2="1208.05" y2="870.27" xlink:href="#linear-gradient"/><linearGradient id="linear-gradient-19" x1="2700.51" y1="3162.33" x2="2691.6" y2="2817.7" gradientTransform="matrix(-1, 0, 0, 1, 3763.57, 0)" xlink:href="#linear-gradient-3"/><linearGradient id="linear-gradient-20" x1="2898.67" y1="3157.21" x2="2889.75" y2="2812.58" gradientTransform="matrix(-1, 0, 0, 1, 3763.57, 0)" xlink:href="#linear-gradient-3"/><linearGradient id="linear-gradient-21" x1="2864.35" y1="1923.58" x2="2967.34" y2="2553.42" gradientTransform="matrix(-1, 0, 0, 1, 3763.57, 0)" xlink:href="#linear-gradient"/><linearGradient id="linear-gradient-22" x1="959.14" y1="2135.7" x2="1339.09" y2="2135.7" xlink:href="#linear-gradient"/><linearGradient id="linear-gradient-23" x1="2029.57" y1="1296.54" x2="2008.78" y2="1352" gradientTransform="matrix(-0.86, 0.5, 0.5, 0.86, 2082.96, -259.51)" xlink:href="#linear-gradient-5"/><linearGradient id="linear-gradient-24" x1="2022.49" y1="1226.35" x2="1952.18" y2="1313.49" gradientTransform="matrix(-0.86, 0.5, 0.5, 0.86, 2082.96, -259.51)" xlink:href="#linear-gradient-5"/><linearGradient id="linear-gradient-25" x1="991.3" y1="2134.23" x2="1339.09" y2="2134.23" xlink:href="#linear-gradient"/></defs><g class="cls-3"><g id="Background"><rect class="cls-4" width="3710" height="3710"/></g><g id="Illustration"><path class="cls-1" d="M1919.16,2431.51c-142.7,7.89-414.7-562.38-224.66-865.81,79.3-126.62,199-142.79,249.58-304,45.16-143.87-30.17-194.58-6.5-354.82,33.28-225.32,233.1-469.58,417.14-450.85,92.35,9.4,195.65,86.53,225.5,196.1,23.9,87.76-48.67,177-23,194.81,21.06,14.6,63.8-44.87,101.4-33.79,55.45,16.35,93.72,184.38,43.6,325.32-85.81,241.29-376.12,249.73-388,423.63-7.56,110.84,107.8,145.37,88.8,259.57-16.72,100.47-113.64,119.57-237.7,243.95C1971,2260.42,1995.67,2427.29,1919.16,2431.51Z"/><g class="cls-5"><g class="cls-6"><path class="cls-4" d="M1955.31,2556.87a7.15,7.15,0,0,1-8.3-10.23c0-4.31-2.82-18.29-6.1-34.31-18.49-90.18-67.59-329.71-18.8-710.87,61.36-479.36,252.65-1002.23,568.57-1554.08a7.14,7.14,0,0,1,12.39,7.09c-339.42,592.9-710,1465.4-548.17,2255,7.32,35.72,8.64,42.16,2.47,46.42A7.1,7.1,0,0,1,1955.31,2556.87Z"/><path class="cls-4" d="M2052.63,1293.35a7.14,7.14,0,0,1-4.35-13.6c306.35-107.13,488-216.85,586.5-290,106.62-79.24,141.29-133.85,141.63-134.4a7.14,7.14,0,0,1,12.13,7.52c-1.41,2.29-35.81,56.8-144.07,137.47-99.31,74-282.54,184.89-591.48,292.92Z"/><path class="cls-4" d="M2163.79,948.86a7,7,0,0,1-4.45-.15C2076,918.19,2018.48,814.83,1988.5,641.5c-22.11-127.76-20.26-248.37-20.24-249.57a7.14,7.14,0,1,1,14.28.25c-.08,4.73-6.14,474.36,181.71,543.13a7.13,7.13,0,0,1-.46,13.55Z"/><path class="cls-4" d="M1921.66,1894.47a7.12,7.12,0,0,1-6.07-1c-115.38-79.92-171.15-219.57-197.62-322.65-28.56-111.23-30.09-205.09-30.1-206a7.14,7.14,0,0,1,14.28-.19c0,.92,1.54,93.35,29.74,203,25.87,100.62,80.16,236.8,191.83,314.16a7.14,7.14,0,0,1-2.06,12.72Z"/></g></g><path class="cls-7" d="M1875.83,2747.22c-46.69-227.78-40.17-404.29-26.55-519.45,10.69-90.39,34.48-216.72,98.79-232.6,30.81-7.61,48.39,15.71,80.55,6.29,60.74-17.81,59.18-118.87,97.51-192.38C2191.71,1683.32,2402.8,1583,2554,1657.35c182,89.54,201.37,395.09,103.49,489.25-58,55.8-161.78,41.81-167.42,82.39-5.68,40.83,98.32,63,105.61,128.44,7.55,67.77-94.42,129.2-100.61,132.84-123.58,72.65-220.8-2.5-356.42,31C2065,2539.5,1969.16,2592.39,1875.83,2747.22Z"/><path class="cls-2" d="M1875.83,2747.22c-46.69-227.78-40.17-404.29-26.55-519.45,10.69-90.39,34.48-216.72,98.79-232.6,30.81-7.61,48.39,15.71,80.55,6.29,60.74-17.81,59.18-118.87,97.51-192.38C2191.71,1683.32,2402.8,1583,2554,1657.35c182,89.54,201.37,395.09,103.49,489.25-58,55.8-161.78,41.81-167.42,82.39-5.68,40.83,98.32,63,105.61,128.44,7.55,67.77-94.42,129.2-100.61,132.84-123.58,72.65-220.8-2.5-356.42,31C2065,2539.5,1969.16,2592.39,1875.83,2747.22Z"/><g class="cls-8"><g class="cls-9"><path class="cls-4" d="M1850.3,2931.45l3.54.13c20.25-545.08,361.7-1019.07,913.38-1267.93l-1.45-3.23c-261.46,117.94-484,293.39-643.51,507.39C1954.54,2392.78,1860.5,2656.85,1850.3,2931.45Z"/><path class="cls-4" d="M1683.31,2140.81c99.86,110.84,196.9,327.17,216.32,482.25l3.51-.45c-19.49-155.68-116.93-372.88-217.2-484.17Z"/><path class="cls-4" d="M1855.5,2824.49l3.36,1.11c25.4-77.16,88.83-138.52,188.53-182.38,73.11-32.15,163.65-54.32,269.13-65.88l-.39-3.52c-105.83,11.6-196.73,33.86-270.16,66.16C1945.31,2684.25,1881.22,2746.33,1855.5,2824.49Z"/><path class="cls-4" d="M2146.08,2138.31l3.3,1.28c55.36-143,17.75-299.77-23.55-406.13l-3.3,1.29C2163.6,1840.51,2201,1996.39,2146.08,2138.31Z"/><path class="cls-4" d="M2392.24,1888.12l1.67,3.13c152.51-81.1,331.45-51.83,424.53-27.17l.91-3.42C2725.76,1835.87,2545.83,1806.46,2392.24,1888.12Z"/></g></g><path class="cls-10" d="M2008.55,797.34l261.15,2170.6c3.91,32.54-18.52,61.72-49.94,64.84L1132.05,3152.19c-66.63,4.14-103.11-29.9-107.23-64.5L750.65,780c-4.09-34.41,28.6-65.58,95.52-65.58l1097.6,23.12C1975.55,738.05,2004.65,765,2008.55,797.34Z"/><path class="cls-11" d="M2057.5,793.61l262.58,2181.45c3.94,32.71-18.57,62-50.1,65.17L1142.33,3152.5c-35.36,3.52-67.75-22.05-71.89-56.84L794.73,776c-4.11-34.59,21.85-62.39,57.59-61.79l1140.15,19.24C2024.36,734,2053.59,761.07,2057.5,793.61Z"/><path class="cls-12" d="M2036.11,913.94l243.37,2022.63c3.68,30.56-17.4,57.91-46.92,60.78L1172.05,3100.44c-32.87,3.19-63-20.68-66.83-53.06L850.42,904.58c-3.83-32.21,20.27-58.27,53.47-57.92l1071.4,11.41C2005.12,858.39,2032.45,883.53,2036.11,913.94Z"/><path class="cls-13" d="M1467.4,792.11c1.39,11.61-6.94,20.91-18.62,20.76s-22.32-9.7-23.71-21.34,7-20.93,18.67-20.75S1466,780.5,1467.4,792.11Z"/><g class="cls-6"><path class="cls-4" d="M1852.75,2271.66c-217.11-401.41-541.44-521.56-639.09-935.25-52.78-223.62-16.82-437.65,43.75-615.34l-405.09-6.83c-35.74-.6-61.7,27.2-57.59,61.79l275.71,2319.63c4.14,34.79,36.53,60.36,71.89,56.84l886.44-88.25C2035.32,2704.57,1949.53,2450.59,1852.75,2271.66Z"/></g><g class="cls-14"><path class="cls-1" d="M1911.84,1995c-1.18-11.56-10.51-21.29-20.84-21l-606.87,16.18c-10.86.29-18.66,10.75-17.4,22.62l7,66.18c1.26,11.86,11.08,21.25,21.93,20.91l606.17-18.9c10.31-.32,17.72-10,16.55-21.53Z"/><path class="cls-1" d="M1866.74,2136.86c-1.18-11.57-10.49-20.76-20.85-20.42l-481.33,15.69c-10.8.35-18.56,10.3-17.31,22.12l33.34,316.55c1.24,11.77,11,20.92,21.71,20.41l479.46-22.75c10.32-.49,17.75-10.25,16.57-21.77Zm-140.39,240.61c1.54,14.88-8.14,26.48-21.57,27.08l-135.81,6c-13.59.61-25.87-10.11-27.43-25.1l-15.75-151.7c-1.57-15,8.19-28.42,21.82-28.91l136.11-4.88c13.45-.48,25.63,12,27.17,26.94Z"/><path class="cls-4" d="M1610.19,2380.84a19.28,19.28,0,0,1-14.07-5.56l-39.8-37.87c-8.31-7.9-9.69-21.22-3.1-29.73s18.67-9,27-1.09l24.76,23.62,61.54-79.63c6.54-8.45,18.49-8.9,26.7-1s9.58,21.12,3.06,29.57l-73.26,95A16.94,16.94,0,0,1,1610.19,2380.84Z"/><path class="cls-1" d="M1894.71,1341H1144.58c-51.12,0-90.24,41.37-84.62,94l21.67,202.93c5.6,52.46,53.63,95.39,104.52,94.57l747-12c47.63-.76,82.55-42.7,77.46-93.19l-19.7-195.7C1985.78,1381,1942.55,1341,1894.71,1341Z"/></g><path class="cls-15" d="M2759.43,1701.29s-20.76,154.5,142,263.43L2728.24,2006s-55.44-103.67-15.3-275.39Z"/><path class="cls-16" d="M2728.94,1730.65s-9.33-23.05-7.83-33.42,26.21-24.22,43-38.52-.63,14.38-4.55,20.9-17.64,16.31-15.67,38.49Z"/><rect class="cls-4" x="1958.64" y="1056.07" width="1001.77" height="790.48" transform="translate(-175.77 2551.68) rotate(-53.21)"/><path class="cls-1" d="M2459.83,1127.16l-111.47-83.37,83.37-111.47,111.48,83.37Zm-76.68-88.39,71.67,53.6,53.59-71.66-71.66-53.6Z"/><rect class="cls-1" x="2702.61" y="1010.46" width="62.14" height="472.3" transform="translate(98.11 2689.12) rotate(-53.21)"/><path class="cls-1" d="M2328.82,1302.34,2217.34,1219l83.38-111.48,111.47,83.37ZM2252.14,1214l71.66,53.59,53.6-71.66-71.66-53.59Z"/><rect class="cls-1" x="2571.59" y="1185.64" width="62.14" height="472.3" transform="translate(-94.71 2654.46) rotate(-53.21)"/><path class="cls-1" d="M2197.8,1477.51l-111.47-83.37,83.37-111.47L2281.18,1366Zm-76.68-88.39,71.67,53.6,53.59-71.66-71.66-53.6Z"/><rect class="cls-1" x="2440.58" y="1360.81" width="62.14" height="472.3" transform="translate(-287.54 2619.8) rotate(-53.21)"/><path class="cls-1" d="M2066.79,1652.69l-111.48-83.37,83.38-111.48,111.47,83.37Zm-76.68-88.39,71.66,53.6,53.6-71.67-71.66-53.59Z"/><rect class="cls-1" x="2309.56" y="1535.99" width="62.14" height="472.3" transform="translate(-480.37 2585.15) rotate(-53.21)"/><path class="cls-17" d="M2379.2,1057.55l-.16-.12a12,12,0,0,1-5-8.86l-2.51-41.26a12.39,12.39,0,1,1,24.75-1.36l1.57,27.15,132.74-26.36a12.43,12.43,0,0,1,4.84,24.38L2388.88,1060A12.17,12.17,0,0,1,2379.2,1057.55Z"/><path class="cls-18" d="M2112.71,1413.87l-.16-.12a11.94,11.94,0,0,1-5-8.86l-2.51-41.26a12.39,12.39,0,1,1,24.75-1.36l1.58,27.16,132.74-26.37a12.43,12.43,0,0,1,4.84,24.38l-146.56,28.91A12.13,12.13,0,0,1,2112.71,1413.87Z"/><path class="cls-19" d="M1983.18,1587.05l-.16-.12a11.93,11.93,0,0,1-5-8.86l-2.51-41.26a12.39,12.39,0,1,1,24.75-1.35l1.57,27.15,132.74-26.37a12.43,12.43,0,0,1,4.84,24.39l-146.56,28.91A12.14,12.14,0,0,1,1983.18,1587.05Z"/><path class="cls-20" d="M2318.86,1288.68a12.37,12.37,0,0,1-4.86-8.18l-20.57-142.65a12.43,12.43,0,1,1,24.6-3.55L2338.6,1277a12.42,12.42,0,0,1-19.74,11.73Z"/><path class="cls-21" d="M2237.24,1227.64a12.43,12.43,0,0,1,5.67-22.26l142.66-20.57a12.43,12.43,0,1,1,3.55,24.6L2246.46,1230A12.42,12.42,0,0,1,2237.24,1227.64Z"/><path class="cls-22" d="M2920.39,1852.94c-7.32-14.41-10.34-14.33-12.13-21.94-4.1-17.34,6.48-39.37,15.45-39.67,5.78-.2,6.26,8.79,18.5,22.8,15,17.17,24.1,14.91,32.92,29.81,2.06,3.49,11.36,19.18,5.64,30.88-7.29,15-36,17.31-48.05,5.79C2927,1875.14,2929.41,1870.7,2920.39,1852.94Z"/><path class="cls-23" d="M2947.82,1866.35s-6,31.84-1.72,57.73c3.84,23.4,47.19,47.71,55.5,54.68s-22,14.54-49.88,10.9-104-28-115.63-41.63,13.48-6.89,34.56-9.47,41.21-37.91,41.83-55.94S2947.82,1866.35,2947.82,1866.35Z"/><path class="cls-24" d="M2934.13,1889s-18.33,8-34.57-4.94c-14.55-11.63,7.08-47.35,21.87-47.8,4.93-.15,12.14,3.38,16.39,8.55,2.51,3.06,2.66,5.09,6.86,10,3.88,4.53,5.58,4.93,6.17,7.14.73,2.75-.53,7.34-10.49,15.25,5-.91,9.24.39,10.9,3.29a6.4,6.4,0,0,1,.65,3.39C2951.31,1889.23,2944.27,1891.72,2934.13,1889Z"/><path class="cls-25" d="M2470.41,1779.35s-12.91-1.8-8.88-26.45c3.15-19.32.76-25.82-3.8-22.39s-5.2,14.59-5.2,14.59-16.64-14.19-23.49-32.79-11.25-2.93-12.72,6.37,9.79,38.16,16.15,43.54,15.65,29.11,15.65,29.11Z"/><path class="cls-22" d="M2947.74,3142.53c6.64,13.54,4.78,19.36,3.12,21.92-4.84,7.51-16.51.42-47,4a51.43,51.43,0,0,1-18.9-.66c-7.28-1.72-15.88-5.6-15.51-7.55.13-.71,1.43-1,1.92-1.1,8.45-1.8,61.36-18,61.36-18Z"/><path class="cls-26" d="M2951.8,3112.75l-4.73,30.28s-13,9.19-16.42-2c-2.46-8-2.39-29.66-2.39-29.66Z"/><polygon class="cls-27" points="2803.52 3114.83 2816.29 3149.69 2834.84 3146.74 2830.54 3114.45 2803.52 3114.83"/><path class="cls-22" d="M2822.07,3168.89c9-10.66,17-9.69,18.61-17,1.28-5.76-2.25-12.81-7.56-15.49-7.48-3.77-16.53,2.11-18.57,3.44-13.89,9-10.11,23.15-23.21,29.27-2.63,1.24-6.81,2.54-11.21,6.67-1.87,1.75-6.5,6.09-5.42,9.08,1.26,3.46,9.51,3.34,17.36,3.22,9.42-.13,14.13-.2,18.67-3C2817,3181.13,2815.13,3177.12,2822.07,3168.89Z"/><path class="cls-10" d="M3051.08,2388.52a999.66,999.66,0,0,1-25,179.55c-12.34,52.72-19.06,61.74-23.34,98.28-9.31,79.53,16.13,91.49,18.91,181.67,3.07,99.58-25.07,178.06-36.11,208a571.31,571.31,0,0,1-27.1,61.89c-9.29,7.76-23.17,4.4-37.81,1.1-3.48-90.33-8.41-175.38-11.89-265.71q-21.84-204.15-43.67-408.27Z"/><path class="cls-10" d="M2920.64,3119c-3.48-90.33-8.41-175.38-11.89-265.71q-21.84-204.15-43.67-408.27l186-56.5c-.23,4.66-.56,9.15-.84,13.73-88,73.16-106.17,132.22-106.19,172.77,0,49.18,26.32,74.12,19.54,145.28-4.85,50.88-20.36,59.54-21.34,105.52-1.26,59.22,23.44,93.06,35.08,127.54,11.26,33.33,14.51,80.27-10,146.4-3.18,6.81-6.18,12.91-8.85,18.14C2949.16,3125.65,2935.28,3122.3,2920.64,3119Z"/><path class="cls-10" d="M2945.91,2441.15c-55.79,68.32-87.62,132.19-106,176.93-22.09,53.84-38.1,94.19-33.08,146.45,5.52,57.51,31.6,78.18,48.93,127.21,16.79,47.55,25,120.72-18.85,229.61l-33.08,11.45c-7.33-29.42-19.19-73.44-36.91-125.85-35.12-103.87-70.13-172.22-79.6-193.45-33.34-74.76-36.71-208.24,102.07-465.77Q2867.67,2394.43,2945.91,2441.15Z"/><path class="cls-28" d="M2436,1786l44.05-30.84c17.86,109.81,58.46,152.9,92.95,171.76,83.2,45.47,157.46-35.57,316.71-2.5,43.88,9.12,120.38,26.09,162.79,88.61,11.15,16.43,15.12,28.88,33.63,146.76,23.67,150.7,24.51,177,21.17,209.44-6.1,59.38-9.8,95.37-37.18,127.22-72.7,84.57-227.23,41-246.6,35.22-35.79-10.6-91.42-27.07-113.52-74.37-10.4-22.25-9.29-42.59,6.69-124,31.66-161.19,35.7-171.63,26.87-189.28-29.83-59.57-124.32-25.48-204.14-80.88C2492.77,2030.73,2440.16,1960.15,2436,1786Z"/><path class="cls-29" d="M2896,2510.1c-15.58-32,5.36-61.41-17.61-99.82-29.28-49-82-32.33-101.77-68.5-33.9-61.86,99.52-148.12,72.41-246.6-12.94-47-58.14-81-95.9-93.94-83.83-28.63-138.66,44.34-217.24,21.53-18.63-5.41-40-16.62-61.63-39.87,19.11,40.32,42.85,64.69,65.23,80.22,79.82,55.4,174.31,21.31,204.14,80.88,8.83,17.65,4.79,28.09-26.87,189.28-16,81.38-17.09,101.72-6.69,124,22.1,47.3,77.73,63.77,113.52,74.37,10.6,3.15,61.71,17.59,117.72,16.19C2916.27,2537.66,2902.82,2524.19,2896,2510.1Z"/><path class="cls-30" d="M1172,840.05c0,168.48-135.76,314.13-303.74,325.36-168.56,11.27-305.62-117-305.62-286.51S699.7,563.65,868.26,553.42C1036.24,543.23,1172,671.58,1172,840.05Z"/><path class="cls-31" d="M1208.05,850.85c0,168.47-135.75,314.13-303.74,325.36-168.55,11.26-305.61-117-305.61-286.52S735.76,574.44,904.31,564.22C1072.3,554,1208.05,682.37,1208.05,850.85Z"/><path class="cls-4" d="M893.58,1035.79a35,35,0,0,1-32.34-16.26L746.39,835.1c-10.77-17.29-5-41,12.94-52.87s41.13-7.56,51.88,9.71l79.65,128L996,705.92c9.43-19.21,32.1-28,50.61-19.69s25.86,30.64,16.45,49.83L927.19,1012.91a40.92,40.92,0,0,1-32.28,22.77C894.47,1035.73,894,1035.76,893.58,1035.79Z"/><path class="cls-22" d="M1022.78,3205.68s-2.23,17.74-.74,23.68,53.07,10.23,70.58,8.17-10.43-20-21.58-23.3S1022.78,3205.68,1022.78,3205.68Z"/><path class="cls-32" d="M1048.74,3176.09l-5.44,35.58s-13.86,6.23-20.52.08l-.74-37.25Z"/><path class="cls-22" d="M758,3174.5s11,8.12,8,17.84-28.45,48.69-46.65,59.75-12.49-12-7.2-26.33,18.83-46,24.11-51.26S758,3174.5,758,3174.5Z"/><path class="cls-32" d="M777.7,3135.4c-5.29,14.75-10.38,26.87-14.36,35.81-8.8,19.78-13.62,27.2-19.07,33.64-4.75,5.6-16,17.56-19,15.57s5.17-16.56,21-59.14c2.31-6.18,9.58-25.88,9.58-25.88H777.7Z"/><path class="cls-33" d="M1156.74,2519.31a922.06,922.06,0,0,1,2,164.39c-7.06,91-25.25,148.51-48,245.49-13.94,59.27-32.72,146.5-49.72,255.59a48,48,0,0,1-30.49,6,46.24,46.24,0,0,1-18.31-7c-44.59-136.27-31.42-220.71-9.9-273.32,9.17-22.43,20.29-40.12,26.24-74.6,7.86-45.6-1.86-71.1-15.73-176.75-9.89-75.3-8.18-86.94-1.6-98.23C1037.45,2515.75,1117.88,2516.63,1156.74,2519.31Z"/><path class="cls-34" d="M1003.24,2535.15c-27.32,141.09-54.13,215.19-74.42,257.1a703.63,703.63,0,0,0-37.49,91.49c-14,42.32-19.79,73.45-22.77,87.15-9.42,43.24-32.7,106.39-95.33,189.21-.79.46-11.46,6.5-21.68,1.11a20.9,20.9,0,0,1-8.76-9.1c8.19-79.18,17.59-145.72,25.75-197.07,1.71-10.77,9.25-57.89,21.07-120.15,4.63-24.36,11.41-60.06,19.53-96.73,10.11-45.66,25.62-107.78,49.51-182.21Z"/><path class="cls-22" d="M1026.51,1977.11c15.49-14.32,45.13-30.83,60-69.21,4.48-11.55,20.33-52.48-3.06-83.79-13.88-18.59-39.66-31.21-62.39-26.74-19.42,3.82-22.45,17.34-55.45,44.57-12.85,10.59-33.49,27.62-56.47,37.09-39.37,16.23-63,1-102.55,2.7-48.55,2.14-105,29.24-132.13,68.64-48.24,69.94,21.63,140.89-31.2,222.82C626,2200,617.42,2194,576.42,2246s-61.59,78.05-57.94,109.93c5.07,44.24,52.73,86.51,97.61,89.38,43.83,2.81,71.7-31.68,94-16.6,15.88,10.74,6.8,31.62,23.67,56.72,21.75,32.35,64.49,38.8,71.4,39.84,64.07,9.66,150.47-65.47,187.17-154.49C1058.51,2210.24,942.28,2055,1026.51,1977.11Z"/><path class="cls-1" d="M1289.44,2021.68c.43-44.81-101.35-80.62-147.92-92.15-72.45-18-130.46-6.68-144.55-3.7-90.35,19.14-146.62,73.36-167.8,96.14,17.34,11.29,65.2,45.75,88.9,111.12,7.38,20.33,29.16,89.86-2,155-18,37.53-49.71,65.7-73.83,87.1-36.18,32.09-54.91,37-67,65.78-13.21,31.31.1,46.58-16.3,68-17.62,23-38.26,12.32-68.11,35.6-30.59,23.84-19.7,43.47-47.54,69.82-40.44,38.28-94.06,25.85-96.55,43.07-2.15,14.82,35.95,34.93,68.33,43.08,64.11,16.15,120-11,136.66-19.31,46-23.13,38.09-38.1,73.19-55.73,58.78-29.53,98.94,3.33,232.82,6.71,72.49,1.84,109.15,2.25,129.23-22.28,18.34-22.4,8.7-47-2.3-152.89-5.24-50.4-7.13-101.11-11-151.64-10.92-142.93-11.26-155.51-1.56-175.27C1206.82,2059.32,1289.05,2061.89,1289.44,2021.68Z"/><g class="cls-35"><path class="cls-1" d="M643.26,2614.38c27.84-26.35,17-46,47.54-69.82,29.85-23.28,50.49-12.58,68.11-35.6,16.4-21.43,3.09-36.7,16.3-68,12.13-28.75,30.86-33.69,67-65.78,24.12-21.4,55.87-49.57,73.83-87.1,31.15-65.12,9.37-134.65,2-155-23.7-65.37-71.56-99.83-88.9-111.12,1.67-1.8,3.64-3.85,5.75-6,114.26,15.7,180.88,81.72,189.11,101.27,19,45.19-11.1,61.79-11.88,192.12-.37,62.3,6.35,86.9-13.86,112.9-23.12,29.74-49.76,20.53-83.19,59.42-25.68,29.87-21.57,48.81-45.55,61.39-25.79,13.53-42.22-2.24-71.31,4-48.59,10.36-59,66.39-91.1,97.05-24.3,23.18-69.21,39.38-157.79,22-2.05-3-3-5.9-2.64-8.63C549.2,2640.23,602.82,2652.66,643.26,2614.38Z"/></g><path class="cls-36" d="M989.37,2152.4c12.15,25.79-43.66,85.86-105.7,114.39-12.63,5.81-103.4,47.55-143.85,7.42C706.39,2241,728,2172.47,735.67,2148c37.81-120.2,154-181.35,202.63-203.41,36.32,90.83,14.93,131.3,6.51,143.94-8.8,13.2-33.34,40.93-59.42,65.36-18.34,17.18-29.76,25.55-28.22,28.23,1.91,3.33,23.41-3,106.91-43.61C973.76,2140.07,985.22,2143.59,989.37,2152.4Z"/><path class="cls-37" d="M1338.75,2004.21l-41,204a16.74,16.74,0,0,1-12.9,13.08L979.4,2286.88a16.75,16.75,0,0,1-20.21-17.67l16.13-207.5a16.71,16.71,0,0,1,12.67-15c48.46-12,235-56.75,333.35-62.57A16.73,16.73,0,0,1,1338.75,2004.21Z"/><path class="cls-38" d="M1034.05,1855.2s-5.76,46.07-22.76,56.62-44.49,24.34-47.52,28.08,105.33,15.39,159-11.71h0c-17.7-3.69-22.51-5-22.51-5a99.56,99.56,0,0,1-22.74-9,77.27,77.27,0,0,1-25-23.12l.2-25.51Z"/><path class="cls-39" d="M1031.47,1871.51s11.08,15.22,28.47,8.88c15.57-5.68,6.27-45.88-6.07-50.47-4.12-1.53-11.68-.85-16.74,2.3-3.55,2.22-13.05,14-7.61,27.23-3.93-1.14-7.39-.1-8.26,1.85-1.1,2.47,2.23,5.83,3,6.59A13.16,13.16,0,0,0,1031.47,1871.51Z"/><path class="cls-40" d="M1063.65,2180.62c32.81-9.25,60,13.72,86.15-4.46,26.78-18.62,9.3-50.42,37.14-81.7,29.76-33.44,67.52-17.06,95.07-47.53,10.23-11.32,19.43-29.75,19.57-61.18,6.9-.67,13.51-1.2,19.76-1.57a16.73,16.73,0,0,1,17.41,20l-41,204a16.72,16.72,0,0,1-12.9,13.07l-293.58,63C1012,2211.59,1039.69,2187.37,1063.65,2180.62Z"/><path class="cls-32" d="M1319.31,2112.75s19.49-18,21.61-38.93-12.59-37.67-26.84-41.93-21.85,2-12.28,22.62S1326.53,2088.49,1319.31,2112.75Z"/></g></g></svg>