<svg xmlns="http://www.w3.org/2000/svg" xmlns:xlink="http://www.w3.org/1999/xlink" viewBox="0 0 431.28 449.08"><defs><style>.cls-1,.cls-14,.cls-8{fill:#f7a166;}.cls-2,.cls-24,.cls-26,.cls-27,.cls-28,.cls-3,.cls-4,.cls-40,.cls-47,.cls-48,.cls-49,.cls-51,.cls-7{fill:none;}.cls-24,.cls-25,.cls-26,.cls-27,.cls-28,.cls-3,.cls-4,.cls-40,.cls-47,.cls-48,.cls-49,.cls-5,.cls-51,.cls-7,.cls-8{stroke-miterlimit:10;}.cls-3,.cls-4,.cls-7{stroke-width:1.11px;}.cls-3{stroke:url(#linear-gradient);}.cls-4{stroke:url(#linear-gradient-2);}.cls-5{fill:url(#linear-gradient-3);stroke:url(#linear-gradient-4);}.cls-6{fill:#fd6a18;}.cls-7{stroke:#fff;}.cls-8{stroke:#a1c2ff;stroke-width:0.55px;}.cls-14,.cls-22,.cls-8{opacity:0.39;}.cls-9{fill:#e6f4ff;}.cls-10{fill:url(#linear-gradient-5);}.cls-11{fill:#7a3100;}.cls-12{fill:#ffd097;}.cls-13{fill:#fff;}.cls-15{fill:url(#linear-gradient-6);}.cls-16{fill:url(#linear-gradient-7);}.cls-17{fill:url(#linear-gradient-8);}.cls-18{fill:url(#linear-gradient-9);}.cls-19{fill:url(#linear-gradient-10);}.cls-20{fill:url(#linear-gradient-11);}.cls-21{fill:#ff8d02;}.cls-22{fill:#a1c2ff;}.cls-23{fill:url(#linear-gradient-12);}.cls-24,.cls-26,.cls-27,.cls-28{stroke-width:0.28px;}.cls-24{stroke:url(#linear-gradient-13);}.cls-25{fill:#4361c4;stroke:url(#linear-gradient-14);}.cls-26{stroke:url(#linear-gradient-15);}.cls-27{stroke:url(#linear-gradient-16);}.cls-28{stroke:url(#linear-gradient-17);}.cls-29{fill:url(#linear-gradient-18);}.cls-30{fill:url(#linear-gradient-19);}.cls-31{fill:url(#linear-gradient-20);}.cls-32{fill:#723105;}.cls-33{clip-path:url(#clip-path);}.cls-34{fill:#020202;}.cls-35{clip-path:url(#clip-path-2);}.cls-36{fill:#f9a858;}.cls-37{fill:#f9fbfc;}.cls-38{fill:#bfd9ff;}.cls-39{fill:url(#linear-gradient-21);}.cls-40{stroke:#505e83;stroke-width:0.52px;}.cls-41{fill:#ffdcc0;}.cls-42{fill:#16142a;}.cls-43{fill:#ff7759;}.cls-44{fill:#ff8d68;}.cls-45{fill:url(#linear-gradient-22);}.cls-46{fill:#511602;}.cls-47{stroke:#e66657;}.cls-47,.cls-48{stroke-width:0.67px;}.cls-48{stroke:url(#linear-gradient-23);}.cls-49{stroke:#a6d0f4;}.cls-49,.cls-51{stroke-width:0.53px;}.cls-50{fill:#eb7754;}.cls-51{stroke:#663136;}</style><linearGradient id="linear-gradient" x1="359.08" y1="299.7" x2="655.84" y2="299.7" gradientUnits="userSpaceOnUse"><stop offset="0" stop-color="#fc530f"/><stop offset="0.14" stop-color="#dc4800"/><stop offset="0.32" stop-color="#c33f00"/><stop offset="0.54" stop-color="#b03a00"/><stop offset="0.77" stop-color="#712300"/><stop offset="1" stop-color="#521b00"/></linearGradient><linearGradient id="linear-gradient-2" x1="280.52" y1="148.52" x2="384.07" y2="148.52" gradientTransform="translate(426.46 -203.07) rotate(80.91)" xlink:href="#linear-gradient"/><linearGradient id="linear-gradient-3" x1="393.92" y1="231.83" x2="711.3" y2="231.83" xlink:href="#linear-gradient"/><linearGradient id="linear-gradient-4" x1="393.42" y1="231.83" x2="711.8" y2="231.83" xlink:href="#linear-gradient"/><linearGradient id="linear-gradient-5" x1="505.4" y1="93.45" x2="563.55" y2="93.45" gradientTransform="translate(191.82 -327.24) rotate(40.92)" xlink:href="#linear-gradient"/><linearGradient id="linear-gradient-6" x1="308.73" y1="38.93" x2="370.31" y2="38.93" xlink:href="#linear-gradient"/><linearGradient id="linear-gradient-7" x1="306.24" y1="45.76" x2="343.75" y2="45.76" xlink:href="#linear-gradient"/><linearGradient id="linear-gradient-8" x1="303.99" y1="51.95" x2="314.49" y2="51.95" xlink:href="#linear-gradient"/><linearGradient id="linear-gradient-9" x1="569.55" y1="118.2" x2="579.03" y2="118.2" xlink:href="#linear-gradient"/><linearGradient id="linear-gradient-10" x1="584.82" y1="118.2" x2="594.31" y2="118.2" xlink:href="#linear-gradient"/><linearGradient id="linear-gradient-11" x1="600.09" y1="118.2" x2="609.58" y2="118.2" xlink:href="#linear-gradient"/><linearGradient id="linear-gradient-12" x1="291.07" y1="115.08" x2="324.08" y2="115.08" xlink:href="#linear-gradient"/><linearGradient id="linear-gradient-13" x1="283.21" y1="111.55" x2="329.3" y2="111.55" xlink:href="#linear-gradient"/><linearGradient id="linear-gradient-14" x1="590.96" y1="158.74" x2="595" y2="158.74" xlink:href="#linear-gradient"/><linearGradient id="linear-gradient-15" x1="281.33" y1="109.98" x2="312.34" y2="109.98" xlink:href="#linear-gradient"/><linearGradient id="linear-gradient-16" x1="304.8" y1="126.31" x2="332.79" y2="126.31" xlink:href="#linear-gradient"/><linearGradient id="linear-gradient-17" x1="312.45" y1="101.13" x2="324.24" y2="101.13" xlink:href="#linear-gradient"/><linearGradient id="linear-gradient-18" x1="571.98" y1="144.58" x2="577.07" y2="144.58" xlink:href="#linear-gradient"/><linearGradient id="linear-gradient-19" x1="582.78" y1="181.61" x2="587.87" y2="181.61" xlink:href="#linear-gradient"/><linearGradient id="linear-gradient-20" x1="611.14" y1="156.43" x2="616.23" y2="156.43" xlink:href="#linear-gradient"/><clipPath id="clip-path" transform="translate(-280.52 -42.46)"><ellipse class="cls-1" cx="614.02" cy="249.42" rx="31.81" ry="21.3" transform="translate(-19.14 445.2) rotate(-39.29)"/></clipPath><clipPath id="clip-path-2" transform="translate(-280.52 -42.46)"><ellipse class="cls-2" cx="577.61" cy="336.12" rx="32.51" ry="21.76" transform="translate(-82.28 441.74) rotate(-39.29)"/></clipPath><linearGradient id="linear-gradient-21" x1="487.51" y1="232.59" x2="520.11" y2="232.59" gradientTransform="translate(280.13 -275.23) rotate(41.45)" xlink:href="#linear-gradient"/><linearGradient id="linear-gradient-22" x1="343.4" y1="229.96" x2="422.25" y2="229.96" xlink:href="#linear-gradient"/><linearGradient id="linear-gradient-23" x1="356.36" y1="234.1" x2="365.56" y2="234.1" xlink:href="#linear-gradient"/></defs><g id="OBJECTS"><path class="cls-3" d="M364.41,230c14.08-61.9,78.44-99,138.86-79.61,1.22.39,2.44.8,3.68,1.22,79,27.15,53.07,107.38,92.57,132.07s67.88,60.48,50.6,107.38-122.19,91.33-204.89,40.73C380.23,392,346.49,308.75,364.41,230Z" transform="translate(-280.52 -42.46)"/><circle class="cls-4" cx="332.3" cy="148.52" r="51.22" transform="translate(-147.36 410.73) rotate(-80.91)"/><path class="cls-5" d="M578.63,379.94H399.48a5.55,5.55,0,0,1-5.07-7.82L521.52,87a5.57,5.57,0,0,1,5.08-3.29H705.74a5.55,5.55,0,0,1,5.08,7.81L583.7,376.65A5.55,5.55,0,0,1,578.63,379.94Z" transform="translate(-280.52 -42.46)"/><path class="cls-6" d="M632.93,178.83,690.74,49.15a4.75,4.75,0,0,0-4.34-6.69H524.18a15.25,15.25,0,0,0-13.93,9L451.56,183.14a4.76,4.76,0,0,0,4.34,6.7H616A18.59,18.59,0,0,0,632.93,178.83Z" transform="translate(-280.52 -42.46)"/><path class="cls-7" d="M612,267.69,669.76,138a4.76,4.76,0,0,0-4.34-6.7H503.2a15.26,15.26,0,0,0-13.93,9L430.58,272a4.75,4.75,0,0,0,4.34,6.69H595A18.58,18.58,0,0,0,612,267.69Z" transform="translate(-280.52 -42.46)"/><polyline class="cls-8" points="257.9 179.42 265.3 179.42 245.4 218.3 125.06 218.3 129.92 208.81"/><ellipse class="cls-9" cx="534.47" cy="93.45" rx="36.53" ry="27.45" transform="translate(-211.12 330.46) rotate(-40.92)"/><ellipse class="cls-10" cx="534.47" cy="93.45" rx="32.23" ry="24.22" transform="translate(-211.12 330.46) rotate(-40.92)"/><path class="cls-11" d="M535,99s-14.68,2.43-21,4.9c-4.25,2.57-4.93,4.6-5.95,7.66v0c3.41,6,9.91,9.76,18.39,9.76,11,0,22.23-6.32,29.44-15.5C552,100.12,535,99,535,99Z" transform="translate(-280.52 -42.46)"/><path class="cls-12" d="M529.82,92.8l-2.53,10.69a2,2,0,0,0,1.61,2.67,12.05,12.05,0,0,0,8.51-1.86,3.8,3.8,0,0,0,1.77-2.79c.36-5,1.37-15.23,1.37-15.23Z" transform="translate(-280.52 -42.46)"/><path class="cls-12" d="M527.54,81.46s-6.9,14-5.56,17.71c1.56,2.56,15.42-3.19,17.69-6.93s7.49-10.52,3.42-14.76S532.75,74.68,527.54,81.46Z" transform="translate(-280.52 -42.46)"/><path d="M527.54,81.46s-1.22-4.93,3-7.84S540,71.3,542,74.2a32.68,32.68,0,0,1,2.1,3.35,3.9,3.9,0,0,1,2.73,2.61c.69,2.18-3.66,7.7-5.42,9.3S540,91.1,540,91.1l-.6-.77a35,35,0,0,1,1.19-6.68c.23-1.31-1.26-3.2-3.89-3.63S533.05,82,527.54,81.46Z" transform="translate(-280.52 -42.46)"/><path class="cls-12" d="M541,87.81a2.44,2.44,0,0,1,2.67-1.27c1.69.56-1.69,5.9-3.49,5.53S541,87.81,541,87.81Z" transform="translate(-280.52 -42.46)"/><path class="cls-13" d="M539.31,99.48s-3.69,4.07-7.32,5.23c-.63.2-1.57,1.46-1.57,1.46l-.67-1.75s-2.49-1.45-1.76-4l-.5.39-1.33,3.29a20.48,20.48,0,0,0-.94,4.27l3.34-1.84a6.53,6.53,0,0,0,3.65.09s.69,2.33,1.32,2.52,5.66-4.55,6.42-6.2a6.22,6.22,0,0,0,.66-3.29Z" transform="translate(-280.52 -42.46)"/><path class="cls-14" d="M645.71,105.63H575.43c-2.15,0-3.27-1.75-2.48-3.91L582.9,74.4a6.17,6.17,0,0,1,5.32-3.91h70.27c2.16,0,3.27,1.75,2.49,3.91l-10,27.32A6.17,6.17,0,0,1,645.71,105.63Z" transform="translate(-280.52 -42.46)"/><polygon class="cls-15" points="369.24 40.4 308.73 40.4 309.8 37.47 370.31 37.47 369.24 40.4"/><polygon class="cls-16" points="342.68 47.23 306.24 47.23 307.31 44.3 343.75 44.3 342.68 47.23"/><polygon class="cls-17" points="313.43 53.41 303.99 53.41 305.06 50.48 314.49 50.48 313.43 53.41"/><path class="cls-18" d="M578.69,118.2a7.33,7.33,0,0,1-6.18,4.4c-2.42,0-3.6-2-2.62-4.4a7.33,7.33,0,0,1,6.18-4.4C578.5,113.8,579.67,115.77,578.69,118.2Z" transform="translate(-280.52 -42.46)"/><path class="cls-19" d="M594,118.2a7.31,7.31,0,0,1-6.17,4.4c-2.43,0-3.6-2-2.62-4.4a7.31,7.31,0,0,1,6.17-4.4C593.77,113.8,594.94,115.77,594,118.2Z" transform="translate(-280.52 -42.46)"/><path class="cls-20" d="M609.24,118.2a7.34,7.34,0,0,1-6.18,4.4c-2.43,0-3.6-2-2.62-4.4a7.33,7.33,0,0,1,6.17-4.4C609,113.8,610.22,115.77,609.24,118.2Z" transform="translate(-280.52 -42.46)"/><path class="cls-21" d="M624.51,118.2a7.33,7.33,0,0,1-6.17,4.4c-2.43,0-3.61-2-2.62-4.4a7.31,7.31,0,0,1,6.17-4.4C624.32,113.8,625.49,115.77,624.51,118.2Z" transform="translate(-280.52 -42.46)"/><path class="cls-22" d="M639.78,118.2a7.31,7.31,0,0,1-6.17,4.4c-2.43,0-3.6-2-2.62-4.4a7.31,7.31,0,0,1,6.17-4.4C639.59,113.8,640.76,115.77,639.78,118.2Z" transform="translate(-280.52 -42.46)"/><polygon class="cls-22" points="322.97 89.11 303.58 109.26 283.49 117.22 306.26 133.94 329.15 114.41 322.97 89.11"/><polygon class="cls-23" points="318.38 100.81 303.58 109.26 291.07 117.17 308.04 129.35 324.08 114.7 318.38 100.81"/><polygon class="cls-24" points="322.97 89.11 303.58 109.26 283.49 117.22 306.2 134.09 329.15 114.41 322.97 89.11"/><path class="cls-25" d="M594.38,158.74a2.32,2.32,0,0,1-2,1.41c-.78,0-1.15-.63-.84-1.41a2.36,2.36,0,0,1,2-1.4C594.32,157.34,594.7,158,594.38,158.74Z" transform="translate(-280.52 -42.46)"/><polyline class="cls-26" points="294.8 102.38 311.96 115.97 281.33 117.54"/><polyline class="cls-27" points="304.93 138.78 312.58 115.97 332.77 113.94"/><line class="cls-28" x1="324.11" y1="86.29" x2="312.58" y2="115.97"/><path class="cls-29" d="M576.88,144.58a3.94,3.94,0,0,1-3.31,2.36c-1.3,0-1.93-1.06-1.41-2.36a3.94,3.94,0,0,1,3.31-2.36C576.78,142.22,577.41,143.28,576.88,144.58Z" transform="translate(-280.52 -42.46)"/><path class="cls-21" d="M563,160a3.94,3.94,0,0,1-3.32,2.36c-1.3,0-1.93-1.06-1.4-2.36a3.93,3.93,0,0,1,3.31-2.36C562.89,157.65,563.52,158.71,563,160Z" transform="translate(-280.52 -42.46)"/><path class="cls-30" d="M587.68,181.61a3.94,3.94,0,0,1-3.31,2.36c-1.31,0-1.93-1.06-1.41-2.36a3.94,3.94,0,0,1,3.31-2.36C587.58,179.25,588.21,180.31,587.68,181.61Z" transform="translate(-280.52 -42.46)"/><path class="cls-31" d="M616,156.43a3.94,3.94,0,0,1-3.31,2.36c-1.3,0-1.93-1.06-1.41-2.36a3.94,3.94,0,0,1,3.32-2.36C615.94,154.07,616.57,155.13,616,156.43Z" transform="translate(-280.52 -42.46)"/><path class="cls-21" d="M607.25,128a3.92,3.92,0,0,1-3.32,2.36c-1.3,0-1.93-1-1.4-2.36a3.93,3.93,0,0,1,3.31-2.36C607.14,125.6,607.77,126.66,607.25,128Z" transform="translate(-280.52 -42.46)"/><polygon class="cls-32" points="273.15 105.2 214.32 105.2 218.82 94.07 277.64 94.07 273.15 105.2"/><polygon class="cls-14" points="237.73 130.24 204.21 130.24 206.13 125.47 239.65 125.47 237.73 130.24"/><polygon class="cls-14" points="232.7 120.7 208.06 120.7 212.56 109.57 237.2 109.57 232.7 120.7"/><path class="cls-6" d="M643.87,281.89l28.79-64.57A2.37,2.37,0,0,0,670.5,214H589.73a7.59,7.59,0,0,0-6.93,4.5L553.57,284a2.37,2.37,0,0,0,2.17,3.33h79.69A9.24,9.24,0,0,0,643.87,281.89Z" transform="translate(-280.52 -42.46)"/><ellipse class="cls-22" cx="614.02" cy="249.42" rx="31.81" ry="21.3" transform="translate(-299.67 402.74) rotate(-39.29)"/><ellipse class="cls-1" cx="614.02" cy="249.42" rx="31.81" ry="21.3" transform="translate(-299.67 402.74) rotate(-39.29)"/><g class="cls-33"><path class="cls-11" d="M616.18,252.13s13.09,6.5,14.48,12.47-4.43,21.69-4.43,21.69H574.18s8.53-18.44,15.16-22.78,19.44-7.65,19.44-7.65Z" transform="translate(-280.52 -42.46)"/><path class="cls-12" d="M610.81,247.89l-4.09,8.83c-.51,1.1-.21,2.11.75,2.4a9.41,9.41,0,0,0,7-.81,3.81,3.81,0,0,0,1.94-2.2c1.26-4.2,4.06-12.77,4.06-12.77Z" transform="translate(-280.52 -42.46)"/><path class="cls-12" d="M611.24,238.1s-8.15,11.19-7.83,14.49c.71,2.3,12.72-1.32,15.23-4.28s7.94-8.24,5.59-12.19S616.67,232.83,611.24,238.1Z" transform="translate(-280.52 -42.46)"/><path class="cls-34" d="M611.59,236.45a4.25,4.25,0,0,0-.29.44c-.48.8-1.18,2.4.78,2.51l2.61.14s4.19-2.39,5.84.14c1.23,2.53-2.77,4.07-2.44,5.33s.17,1-.4,1.69a6.44,6.44,0,0,1-2.9,2.67c-1.88.84-3.37.7-5.17,1.68s-5.28-.14-5.64-1c-.84-.7-1.33.84-1.86,1.82s-2.2,1.27-.6,2.53,2.77,1.83,5.56.14,2.87-1.54,5.68-2.24a9.58,9.58,0,0,0,6-3.87c1.07-1.75,1.42-4,2.32-4.84s1.4,0,1,1,3.43-.84,4.34-3.79-.69-2.8-.85-4.49,1.76-3.65-.29-5.19-4,.42-4.68-.57-3.9-1.12-6.44,1a7.7,7.7,0,0,0-2.68,5.09" transform="translate(-280.52 -42.46)"/><path class="cls-12" d="M620.57,243.84s1.1-1.42,2.34-.84-2.48,4.84-3.82,4.37S620.57,243.84,620.57,243.84Z" transform="translate(-280.52 -42.46)"/><path class="cls-34" d="M603.11,250.49s1.19-4.35,4.23-4.91,4.4,1.26,4.2,2.8a2.56,2.56,0,0,0,1.14,2.39S605,254.42,603.11,250.49Z" transform="translate(-280.52 -42.46)"/></g><path class="cls-6" d="M607.66,369.05l28.79-64.56a2.37,2.37,0,0,0-2.16-3.34H553.52a7.59,7.59,0,0,0-6.93,4.5L517.36,371.2a2.37,2.37,0,0,0,2.17,3.33h79.69A9.24,9.24,0,0,0,607.66,369.05Z" transform="translate(-280.52 -42.46)"/><ellipse class="cls-14" cx="577.61" cy="336.12" rx="32.51" ry="21.76" transform="translate(-362.8 399.28) rotate(-39.29)"/><g class="cls-35"><path class="cls-34" d="M585,328.56s4-1.88,4.5.41a4.37,4.37,0,0,1-1.22,3.92s3.58-1,4.54,2.07-1.92,4.52-.73,5.61,3.66,3.42.2,7.29-8.51,8.32-14.36,5.46-4-16.8-4-16.8l1.43-4.07Z" transform="translate(-280.52 -42.46)"/><path class="cls-34" d="M581.17,316.88s-8.83.74-11.62,6.92,2.76,6.62,2.76,6.62Z" transform="translate(-280.52 -42.46)"/><path class="cls-12" d="M523.8,358.92l.56,1a136.3,136.3,0,0,0,12.86,13.31h12.61c6.58-6,15.55-16.44,15.59-16.86.06-.61,7.91-9.15,6.18-12.63s-4-2.92-4-2.92-2.56.35-5.43,3.32-17,24.94-17,24.94a20.43,20.43,0,0,0-5.16-5.78c-3.35-2.5-13.15-7.78-13.15-7.78s.6-4.24.54-5.05-2.49-4.51-3.23-3.72,1,4.28,1,4.28S523.23,357.89,523.8,358.92Z" transform="translate(-280.52 -42.46)"/><path class="cls-11" d="M555.34,367.1s.37,2.7,1.1,6.15h25c.55-5.65,1.72-17,2.42-19.7.94-3.63.11-11.34.41-13.46s-5.75-1.34-5.75-1.34l-7.89.13-1.27.55a10.05,10.05,0,0,0-4.36,3.64c-1,1.5-2.41,3.67-4.35,6.53-3.11,2.36-10,6.46-9.47,11.64S555.34,367.1,555.34,367.1Z" transform="translate(-280.52 -42.46)"/><path class="cls-12" d="M573.31,334.08s-7,8.66-8.92,19.55c2.28-.7,9.22-7.07,13.31-11,1.73-1.63,1.89-2.53,1.57-4.21-.15-.82.57-3.11,1.54-5.73C581.45,329.09,573.31,334.08,573.31,334.08Z" transform="translate(-280.52 -42.46)"/><path class="cls-12" d="M595.27,369.49s1.09,1.5,2.89,3.76h11.19c-2.16-2.86-3.87-5.17-4.4-6-1.83-2.77-14.64-30.69-22.44-27.22-1.44.64-6.65,5-4.53,9.93S595.27,369.49,595.27,369.49Z" transform="translate(-280.52 -42.46)"/><path class="cls-12" d="M573,322.66a57,57,0,0,0-5.51,8.2c-1.44,2.79-.46,5.35,2.22,5.64,3.85.41,9.72-.55,11.65-2.75,2.87-3.28,9-9.08,6.52-13.58s-7.94-3.92-13.89,1.42A9.1,9.1,0,0,0,573,322.66Z" transform="translate(-280.52 -42.46)"/><path class="cls-34" d="M575.6,319.8s-3.87,6.32,7.11,10.35l1.38.62s4.79-3.81,4.86-7.84-2-5.49-4.1-6.37S577.06,318.29,575.6,319.8Z" transform="translate(-280.52 -42.46)"/><path class="cls-12" d="M582.4,331.06s2.78-1.92,2.75-.15-3.93,3.66-4.34,2.92S582.4,331.06,582.4,331.06Z" transform="translate(-280.52 -42.46)"/></g><path class="cls-32" d="M519.9,315.54h-89c-2.73,0-4.05-2.21-2.95-4.94L434.32,295a8.22,8.22,0,0,1,6.94-4.94h89c2.73,0,4,2.21,2.94,4.94l-6.32,15.65A8.22,8.22,0,0,1,519.9,315.54Z" transform="translate(-280.52 -42.46)"/><polygon class="cls-13" points="238.68 261.55 162.08 261.55 163.57 257.85 240.18 257.85 238.68 261.55"/><path class="cls-36" d="M448,57.8h-3c-.53,0-.79-.43-.57-1l1.21-3a1.62,1.62,0,0,1,1.36-1h3c.53,0,.79.43.57,1l-1.21,3A1.6,1.6,0,0,1,448,57.8Z" transform="translate(-280.52 -42.46)"/><path class="cls-36" d="M478.81,57.8h-3c-.53,0-.79-.43-.57-1l1.21-3a1.61,1.61,0,0,1,1.36-1h3c.54,0,.79.43.58,1l-1.22,3A1.59,1.59,0,0,1,478.81,57.8Z" transform="translate(-280.52 -42.46)"/><path class="cls-36" d="M442.22,72h-3c-.53,0-.79-.43-.58-1l1.22-3a1.62,1.62,0,0,1,1.35-1h3c.54,0,.79.44.58,1l-1.22,3A1.6,1.6,0,0,1,442.22,72Z" transform="translate(-280.52 -42.46)"/><path class="cls-36" d="M457.65,72h-3c-.53,0-.79-.43-.58-1l1.22-3a1.61,1.61,0,0,1,1.35-1h3c.53,0,.79.44.58,1L459,71A1.61,1.61,0,0,1,457.65,72Z" transform="translate(-280.52 -42.46)"/><path class="cls-36" d="M473.07,72h-3c-.54,0-.79-.43-.58-1l1.22-3a1.61,1.61,0,0,1,1.35-1h3c.53,0,.79.44.57,1l-1.21,3A1.61,1.61,0,0,1,473.07,72Z" transform="translate(-280.52 -42.46)"/><path class="cls-36" d="M485.42,72h-3c-.53,0-.79-.43-.58-1l1.22-3a1.61,1.61,0,0,1,1.35-1h3c.53,0,.79.44.58,1l-1.22,3A1.6,1.6,0,0,1,485.42,72Z" transform="translate(-280.52 -42.46)"/><path class="cls-36" d="M436.48,86.19h-3c-.53,0-.79-.44-.57-1l1.22-3a1.6,1.6,0,0,1,1.35-1h3c.53,0,.79.43.57,1l-1.21,3A1.62,1.62,0,0,1,436.48,86.19Z" transform="translate(-280.52 -42.46)"/><path class="cls-36" d="M424.14,86.19h-3c-.53,0-.79-.44-.57-1l1.21-3a1.61,1.61,0,0,1,1.36-1h3c.53,0,.78.43.57,1l-1.22,3A1.61,1.61,0,0,1,424.14,86.19Z" transform="translate(-280.52 -42.46)"/><path class="cls-36" d="M451.91,86.19h-3c-.53,0-.79-.44-.57-1l1.21-3a1.62,1.62,0,0,1,1.36-1h3c.53,0,.79.43.57,1l-1.21,3A1.63,1.63,0,0,1,451.91,86.19Z" transform="translate(-280.52 -42.46)"/><path class="cls-36" d="M467.34,86.19h-3c-.53,0-.79-.44-.57-1l1.21-3a1.61,1.61,0,0,1,1.36-1h3c.54,0,.79.43.58,1l-1.22,3A1.61,1.61,0,0,1,467.34,86.19Z" transform="translate(-280.52 -42.46)"/><path class="cls-37" d="M430.75,100.38h-3c-.53,0-.79-.43-.57-1l1.21-3a1.6,1.6,0,0,1,1.35-1h3c.54,0,.79.43.58,1l-1.22,3A1.6,1.6,0,0,1,430.75,100.38Z" transform="translate(-280.52 -42.46)"/><path class="cls-11" d="M449.18,336.44h-4.24c-.75,0-1.12-.61-.81-1.36l1.71-4.24a2.26,2.26,0,0,1,1.91-1.36H452c.75,0,1.11.61.81,1.36l-1.71,4.24A2.28,2.28,0,0,1,449.18,336.44Z" transform="translate(-280.52 -42.46)"/><path class="cls-11" d="M492.67,336.44h-4.24c-.75,0-1.11-.61-.81-1.36l1.71-4.24a2.28,2.28,0,0,1,1.91-1.36h4.24c.75,0,1.11.61.81,1.36l-1.71,4.24A2.28,2.28,0,0,1,492.67,336.44Z" transform="translate(-280.52 -42.46)"/><path class="cls-12" d="M441.09,356.44h-4.24c-.75,0-1.11-.6-.81-1.36l1.72-4.24a2.25,2.25,0,0,1,1.91-1.35h4.24c.75,0,1.11.6.81,1.35L443,355.08A2.23,2.23,0,0,1,441.09,356.44Z" transform="translate(-280.52 -42.46)"/><path class="cls-21" d="M462.84,356.44H458.6c-.75,0-1.11-.6-.81-1.36l1.71-4.24a2.27,2.27,0,0,1,1.91-1.35h4.24c.75,0,1.12.6.81,1.35l-1.71,4.24A2.25,2.25,0,0,1,462.84,356.44Z" transform="translate(-280.52 -42.46)"/><path class="cls-12" d="M484.59,356.44h-4.24c-.75,0-1.12-.6-.81-1.36l1.71-4.24a2.25,2.25,0,0,1,1.91-1.35h4.24c.75,0,1.11.6.81,1.35l-1.72,4.24A2.23,2.23,0,0,1,484.59,356.44Z" transform="translate(-280.52 -42.46)"/><path class="cls-12" d="M502,356.44h-4.24c-.75,0-1.11-.6-.81-1.36l1.72-4.24a2.24,2.24,0,0,1,1.9-1.35h4.24c.76,0,1.12.6.81,1.35l-1.71,4.24A2.25,2.25,0,0,1,502,356.44Z" transform="translate(-280.52 -42.46)"/><path class="cls-12" d="M433,376.45h-4.24c-.75,0-1.11-.61-.81-1.36l1.71-4.24a2.28,2.28,0,0,1,1.91-1.36h4.24c.75,0,1.12.61.81,1.36l-1.71,4.24A2.26,2.26,0,0,1,433,376.45Z" transform="translate(-280.52 -42.46)"/><path class="cls-38" d="M415.62,376.45h-4.25c-.75,0-1.11-.61-.8-1.36l1.71-4.24a2.26,2.26,0,0,1,1.91-1.36h4.24c.75,0,1.11.61.81,1.36l-1.72,4.24A2.25,2.25,0,0,1,415.62,376.45Z" transform="translate(-280.52 -42.46)"/><path class="cls-12" d="M454.76,376.45h-4.24c-.75,0-1.12-.61-.81-1.36l1.71-4.24a2.26,2.26,0,0,1,1.91-1.36h4.24c.75,0,1.11.61.81,1.36l-1.71,4.24A2.28,2.28,0,0,1,454.76,376.45Z" transform="translate(-280.52 -42.46)"/><path class="cls-21" d="M476.5,376.45h-4.24c-.75,0-1.11-.61-.81-1.36l1.72-4.24a2.25,2.25,0,0,1,1.9-1.36h4.25c.75,0,1.11.61.81,1.36l-1.72,4.24A2.26,2.26,0,0,1,476.5,376.45Z" transform="translate(-280.52 -42.46)"/><path class="cls-21" d="M424.93,396.46h-4.24c-.75,0-1.11-.61-.81-1.36l1.71-4.24a2.28,2.28,0,0,1,1.91-1.36h4.24c.75,0,1.11.61.81,1.36l-1.71,4.24A2.28,2.28,0,0,1,424.93,396.46Z" transform="translate(-280.52 -42.46)"/><polygon class="cls-14" points="242.62 209.74 122.28 209.74 142.19 170.86 262.53 170.86 242.62 209.74"/><ellipse class="cls-39" cx="503.81" cy="232.59" rx="17.9" ry="13.96" transform="translate(-308.31 349.27) rotate(-41.45)"/><path class="cls-13" d="M499.73,240.63a1.48,1.48,0,0,1-1.23-.57l-4.09-5.44a2.08,2.08,0,0,1,.69-2.75,1.93,1.93,0,0,1,2.75,0l3,4.07,10.91-8.74a1.93,1.93,0,0,1,2.75,0,2.09,2.09,0,0,1-.68,2.75l-12.63,10.11A2.48,2.48,0,0,1,499.73,240.63Z" transform="translate(-280.52 -42.46)"/><path class="cls-40" d="M409,139.34a5,5,0,1,1-5-5.53A5.27,5.27,0,0,1,409,139.34Z" transform="translate(-280.52 -42.46)"/><path class="cls-13" d="M356.65,169.2s-8,.54-13.92,8.57,2.68,37.51,28.28,49.41c16.67,6.55,17.86-8.33,13.69-18.75S368.48,171.65,356.65,169.2Z" transform="translate(-280.52 -42.46)"/><path class="cls-41" d="M470.43,484.69c0,3.78-36.51,6.84-81.55,6.84s-81.54-3.06-81.54-6.84,36.51-6.85,81.54-6.85S470.43,480.9,470.43,484.69Z" transform="translate(-280.52 -42.46)"/><path class="cls-42" d="M359.09,462.53s1.73-3.71,8.16-2.72,7.16,2.22,7.9,5.43,3,6.68,4.45,7.42,6.92,4.45,11.37,5.19,4.94,3.46,4,4.69-17.8,2.23-21.51,1.73c0,0-12.6-.24-15.56-1.23S358.84,463.76,359.09,462.53Z" transform="translate(-280.52 -42.46)"/><path class="cls-42" d="M391.29,462.53s1.73-3.71,8.15-2.72,7.17,2.22,7.91,5.43,3,6.68,4.45,7.42,6.92,4.45,11.37,5.19,4.94,3.46,3.95,4.69-17.79,2.23-21.5,1.73c0,0-12.6-.24-15.57-1.23S391,463.76,391.29,462.53Z" transform="translate(-280.52 -42.46)"/><path class="cls-11" d="M353.14,370.51a12.17,12.17,0,0,1,8.93-13.67c10.81-3.44,12.85,1.56,16.13,10.89s-2.77,97.49-2.77,97.49-13.17.3-16.36-1.59c0,0-8.8-58.49-8.15-72.74S353.14,370.51,353.14,370.51Z" transform="translate(-280.52 -42.46)"/><path class="cls-43" d="M403.75,143.09s2.53,3.43,2.53,5.21-3.42,1.79-3.42,1.79Z" transform="translate(-280.52 -42.46)"/><path class="cls-44" d="M391.57,108.24s7.31,1.87,11.45,13.09,1.38,35.09-1.38,37.9-11.15,1.73-22.78-2.11c-12.29-4.06-16.44-16.83-18.64-25.26C356,115.72,370.05,99.11,391.57,108.24Z" transform="translate(-280.52 -42.46)"/><path class="cls-44" d="M365.34,170.21,371.28,149s11.86-3.46,19.27,4.45l2.47,3.46V170.7A79.25,79.25,0,0,1,365.34,170.21Z" transform="translate(-280.52 -42.46)"/><path class="cls-11" d="M348.79,284.63a195.73,195.73,0,0,0,0,55.61c4.45,29.65,13.34,32.62,21.5,32.62s10.38-23.73,11.86-34.11,7.41-46-3.71-54.12S354.72,275.73,348.79,284.63Z" transform="translate(-280.52 -42.46)"/><path class="cls-11" d="M379.93,319.48s-8.9-23.73,6.67-34.11,27.43-8.89,31.14,8.16,4.45,75.62-.74,87.48S393.27,374.34,379.93,319.48Z" transform="translate(-280.52 -42.46)"/><path class="cls-13" d="M362.21,170.1s1.65-5.82,3.13-6.32,19.78-2.47,29.66,3.46c4.45,3.46,4,5.93,4,5.93S369.45,167.51,362.21,170.1Z" transform="translate(-280.52 -42.46)"/><path class="cls-32" d="M416.55,284.63s1.49,3.57.6,4.76c-1.19,1.19-34.83,13.1-70.25,4.47-.6,0,.89-5.95.89-5.95Z" transform="translate(-280.52 -42.46)"/><path class="cls-45" d="M346.56,231c-1-6.92-3.95-41-3-46,.92-4.62,4.87-13.13,13-15.84a16.41,16.41,0,0,1,1.77-.48s30.65-2,52.4,7.42c0,0,7.44,6.18,8.82,37.69,0,0-.41,5.32-1.6,16.63s.59,19.64,2.38,31,5.36,22.63-7.74,25c-12.5,2.38-47,8.33-67.27,2.38-4.17-3,1.79-16.67,1.79-27.39S346.56,231,346.56,231Z" transform="translate(-280.52 -42.46)"/><path class="cls-11" d="M394,372.12a12.18,12.18,0,0,1,10.38-12.61c11.12-2.22,12.61,3,14.83,12.61s-11,93.69-11,93.69-14.55.84-17.52-1.38c0,0-3.4-58.21-1.18-72.29S394,372.12,394,372.12Z" transform="translate(-280.52 -42.46)"/><path class="cls-46" d="M377,313.92s10.38,33.36,18.16,49.67" transform="translate(-280.52 -42.46)"/><path class="cls-46" d="M398.09,370.26s6.3-3.7,12.6,0" transform="translate(-280.52 -42.46)"/><path class="cls-46" d="M397,374.34s5.19-3,14.08,3.34" transform="translate(-280.52 -42.46)"/><path class="cls-46" d="M358.05,365.82s4.08-3.71,13.35.37" transform="translate(-280.52 -42.46)"/><path class="cls-46" d="M361,369.52A11.15,11.15,0,0,1,372.51,371" transform="translate(-280.52 -42.46)"/><line class="cls-46" x1="94.21" y1="333" x2="91.99" y2="408.62"/><path class="cls-46" d="M405.38,312.06s8.4,4.95,11.86-3" transform="translate(-280.52 -42.46)"/><path class="cls-46" d="M413.78,313.05s4,30.65,3,50.91" transform="translate(-280.52 -42.46)"/><path class="cls-47" d="M388.27,154.33s2.59,6.67,11.3,5.56" transform="translate(-280.52 -42.46)"/><path class="cls-34" d="M399.45,113.14s4.22,5.81,4.49,9.24-5.28,6.86-6.07,9,1,4.76.23,6.08a12.23,12.23,0,0,0-1.05,4l.28,3a2.16,2.16,0,0,1-1.72,2.3l-.64.12a1.92,1.92,0,0,1-2.16-1.16c-.95-2.39-2.91-6.84-4.45-7.23-2.11-.53-4.22,3.17-5,5-.45,1-1.57,3.85-2.46,6.11a5.54,5.54,0,0,1-4.75,3.47,26.72,26.72,0,0,1-6,0c-1.85-.53-11.31-18-11.58-26.47s5.54-16.89,11.61-19.53S388.1,102.06,399.45,113.14Z" transform="translate(-280.52 -42.46)"/><path class="cls-48" d="M356.69,186.52c0,2.37,9.95,38.2,8.37,44.53s-6,50.6-6,50.6" transform="translate(-280.52 -42.46)"/><path class="cls-49" d="M356.72,170.33" transform="translate(-280.52 -42.46)"/><path class="cls-34" d="M384.26,101.65s5.8.22,7.81-2.68,8.48-3.57,13.17,1.11,4.47,13.4.45,16.52c0,0,4.68-.89,5.35,2.46s-5.13,8.48-12.05,10c0,0-11.16-3.12-14.51-1.11s-25.9-.22-25.9-.22-4.91-4.47-3.57-8.49,2.68.23,2.68.23-1.12-5.59,6.25-13.62S381.58,102.32,384.26,101.65Z" transform="translate(-280.52 -42.46)"/><path class="cls-50" d="M493.87,221.3l15.85.67s-.45,1.57-2.9,2-11.61,1.57-11.61,1.57Z" transform="translate(-280.52 -42.46)"/><path class="cls-44" d="M495.88,224.65s5.35-.89,6.47-.67,2.23,6.7,2.23,6.7l-4.24,4.47s-1.56-.67,0-3.13l.89-1.56L494.76,228Z" transform="translate(-280.52 -42.46)"/><path class="cls-44" d="M480.47,228.45l6.7-.89s5.58-5.59,6.7-6.26,6.7,8,7.36,9.16c0,.89-3.34,3.79-6.69,4.24s-4.47-.45-4.47-.45l-7.36,2.9Z" transform="translate(-280.52 -42.46)"/><path class="cls-13" d="M410.82,176.14s-15-.15-14.51,18.15,31.7,48.22,40.18,51.79,44.65-6.25,47.78-8,2.23-9.38-2.68-11.16l-37.06-1.79S421.31,177.63,410.82,176.14Z" transform="translate(-280.52 -42.46)"/><path class="cls-49" d="M445.13,228.08s4.46,4.76,3.27,11" transform="translate(-280.52 -42.46)"/><path class="cls-49" d="M447.51,227.18s7.44,2.38,8,10.42" transform="translate(-280.52 -42.46)"/><line class="cls-40" x1="128.44" y1="96.88" x2="112.96" y2="96.88"/><path class="cls-43" d="M395.31,141.18s-1.05-4.56-4.91-2.46.7,13,3.86,12.28S396,142.93,395.31,141.18Z" transform="translate(-280.52 -42.46)"/><path class="cls-51" d="M363.05,119.73s10.71-2.46,18.3,5.58" transform="translate(-280.52 -42.46)"/><path class="cls-51" d="M364.46,118.09a12.91,12.91,0,0,1,12.5-2.83" transform="translate(-280.52 -42.46)"/><path class="cls-51" d="M363.42,121.81a7.88,7.88,0,0,1,5.51,4" transform="translate(-280.52 -42.46)"/><path class="cls-51" d="M395.86,100.53s10.72,3.35,8.26,13.17" transform="translate(-280.52 -42.46)"/></g></svg>