<svg xmlns="http://www.w3.org/2000/svg" xmlns:xlink="http://www.w3.org/1999/xlink" viewBox="0 0 411.51 343.2"><defs><style>.cls-1{isolation:isolate;}.cls-2{opacity:0.45;mix-blend-mode:multiply;}.cls-3{fill:#00bad3;}.cls-4{fill:url(#linear-gradient);}.cls-5{fill:url(#linear-gradient-2);}.cls-6{fill:url(#linear-gradient-3);}.cls-7{fill:#fff;}.cls-8{fill:#546e7a;}.cls-9{fill:#662f02;}.cls-10{fill:#f7f7f7;}.cls-11{fill:url(#linear-gradient-4);}.cls-12{fill:url(#linear-gradient-5);}.cls-13{fill:url(#linear-gradient-6);}.cls-14{opacity:0.82;}.cls-15{fill:#ff7900;}.cls-16{fill:#eb407a;}.cls-17{fill:url(#linear-gradient-7);}.cls-18{fill:url(#linear-gradient-8);}.cls-19{fill:url(#linear-gradient-9);}.cls-20{fill:url(#linear-gradient-10);}.cls-21{fill:url(#linear-gradient-11);}.cls-22{fill:url(#linear-gradient-12);}.cls-23{fill:url(#linear-gradient-13);}.cls-24{fill:url(#linear-gradient-14);}.cls-25{fill:url(#linear-gradient-15);}.cls-26{fill:url(#linear-gradient-16);}.cls-27{fill:url(#linear-gradient-17);}.cls-28{fill:url(#linear-gradient-18);}.cls-29{fill:url(#linear-gradient-19);}.cls-30{fill:#7f3300;}.cls-31{fill:url(#linear-gradient-20);}.cls-32{fill:url(#linear-gradient-21);}.cls-33{fill:#e7e2e3;mix-blend-mode:overlay;}.cls-34{fill:#703908;}.cls-35{fill:none;}.cls-36{fill:#ff350e;}.cls-37{fill:#fec007;}.cls-38{fill:url(#linear-gradient-22);}.cls-39{fill:url(#linear-gradient-23);}.cls-40{fill:url(#linear-gradient-24);}.cls-41{fill:url(#linear-gradient-25);}.cls-42{fill:url(#linear-gradient-26);}.cls-43{fill:url(#linear-gradient-27);}.cls-44{fill:#ff9945;}.cls-45{fill:url(#linear-gradient-28);}.cls-46{fill:url(#linear-gradient-29);}.cls-47{fill:url(#linear-gradient-30);}.cls-48{fill:#795548;}.cls-49{fill:url(#linear-gradient-31);}.cls-50{fill:#9bcb66;}.cls-51{fill:url(#linear-gradient-32);}.cls-52{fill:url(#linear-gradient-33);}.cls-53{fill:url(#linear-gradient-34);}.cls-54{fill:url(#linear-gradient-35);}.cls-55{fill:url(#linear-gradient-36);}</style><linearGradient id="linear-gradient" x1="79.98" y1="147.12" x2="142.94" y2="147.12" gradientUnits="userSpaceOnUse"><stop offset="0" stop-color="#fa5310"/><stop offset="0.14" stop-color="#da4700"/><stop offset="0.32" stop-color="#c13f00"/><stop offset="0.54" stop-color="#ad3b00"/><stop offset="0.77" stop-color="#712300"/><stop offset="1" stop-color="#521b00"/></linearGradient><linearGradient id="linear-gradient-2" x1="30.33" y1="34.52" x2="98.97" y2="34.52" xlink:href="#linear-gradient"/><linearGradient id="linear-gradient-3" x1="92.73" y1="102.02" x2="98.97" y2="102.02" xlink:href="#linear-gradient"/><linearGradient id="linear-gradient-4" x1="53.65" y1="180.88" x2="116.61" y2="180.88" xlink:href="#linear-gradient"/><linearGradient id="linear-gradient-5" x1="3.99" y1="68.28" x2="72.64" y2="68.28" xlink:href="#linear-gradient"/><linearGradient id="linear-gradient-6" x1="66.39" y1="135.78" x2="72.64" y2="135.78" xlink:href="#linear-gradient"/><linearGradient id="linear-gradient-7" x1="295.38" y1="93.43" x2="312.35" y2="93.43" xlink:href="#linear-gradient"/><linearGradient id="linear-gradient-8" x1="277.54" y1="62.44" x2="294.52" y2="62.44" xlink:href="#linear-gradient"/><linearGradient id="linear-gradient-9" x1="301.43" y1="71.16" x2="312.49" y2="71.16" xlink:href="#linear-gradient"/><linearGradient id="linear-gradient-10" x1="271.38" y1="81.12" x2="307.39" y2="81.12" xlink:href="#linear-gradient"/><linearGradient id="linear-gradient-11" x1="295.38" y1="86.58" x2="306.17" y2="86.58" xlink:href="#linear-gradient"/><linearGradient id="linear-gradient-12" x1="362.9" y1="61.48" x2="379.88" y2="61.48" xlink:href="#linear-gradient"/><linearGradient id="linear-gradient-13" x1="345.07" y1="30.48" x2="362.04" y2="30.48" xlink:href="#linear-gradient"/><linearGradient id="linear-gradient-14" x1="368.96" y1="39.2" x2="380.01" y2="39.2" xlink:href="#linear-gradient"/><linearGradient id="linear-gradient-15" x1="338.9" y1="49.16" x2="374.91" y2="49.16" xlink:href="#linear-gradient"/><linearGradient id="linear-gradient-16" x1="362.9" y1="54.62" x2="373.7" y2="54.62" xlink:href="#linear-gradient"/><linearGradient id="linear-gradient-17" x1="304.63" y1="351.84" x2="312.98" y2="351.84" xlink:href="#linear-gradient"/><linearGradient id="linear-gradient-18" x1="172.62" y1="74.09" x2="184.42" y2="74.09" xlink:href="#linear-gradient"/><linearGradient id="linear-gradient-19" x1="257.08" y1="192.46" x2="263.59" y2="192.46" xlink:href="#linear-gradient"/><linearGradient id="linear-gradient-20" x1="169.7" y1="216.01" x2="307.55" y2="216.01" xlink:href="#linear-gradient"/><linearGradient id="linear-gradient-21" x1="299.39" y1="151.55" x2="313.52" y2="151.55" xlink:href="#linear-gradient"/><linearGradient id="linear-gradient-22" x1="365.92" y1="334.08" x2="455.48" y2="334.08" xlink:href="#linear-gradient"/><linearGradient id="linear-gradient-23" x1="344.12" y1="338.4" x2="433.68" y2="338.4" xlink:href="#linear-gradient"/><linearGradient id="linear-gradient-24" x1="319.67" y1="342.72" x2="409.23" y2="342.72" xlink:href="#linear-gradient"/><linearGradient id="linear-gradient-25" x1="193.11" y1="211.09" x2="261.09" y2="211.09" xlink:href="#linear-gradient"/><linearGradient id="linear-gradient-26" x1="210.87" y1="167.44" x2="217.12" y2="167.44" xlink:href="#linear-gradient"/><linearGradient id="linear-gradient-27" x1="143.46" y1="97.45" x2="217.12" y2="97.45" xlink:href="#linear-gradient"/><linearGradient id="linear-gradient-28" x1="263.67" y1="271.93" x2="277.81" y2="271.93" xlink:href="#linear-gradient"/><linearGradient id="linear-gradient-29" x1="223.86" y1="237.43" x2="269.63" y2="237.43" xlink:href="#linear-gradient"/><linearGradient id="linear-gradient-30" x1="215.55" y1="264.37" x2="271.84" y2="264.37" xlink:href="#linear-gradient"/><linearGradient id="linear-gradient-31" x1="261.48" y1="321.8" x2="293.86" y2="321.8" xlink:href="#linear-gradient"/><linearGradient id="linear-gradient-32" x1="107.52" y1="37.5" x2="125.98" y2="37.5" xlink:href="#linear-gradient"/><linearGradient id="linear-gradient-33" x1="118.11" y1="55.87" x2="162.45" y2="55.87" xlink:href="#linear-gradient"/><linearGradient id="linear-gradient-34" x1="99.19" y1="48.43" x2="161.41" y2="48.43" xlink:href="#linear-gradient"/><linearGradient id="linear-gradient-35" x1="153.96" y1="35.16" x2="169.5" y2="35.16" xlink:href="#linear-gradient"/><linearGradient id="linear-gradient-36" x1="252.42" y1="199.27" x2="268.17" y2="199.27" xlink:href="#linear-gradient"/></defs><g class="cls-1"><g id="Objects"><g class="cls-2"><polygon class="cls-3" points="0.28 135.61 6.25 132.14 68.93 168.33 62.96 171.8 0.28 135.61"/></g><path class="cls-4" d="M80.26,79.62l62.68,36.19-.28,98.82L80,178.44Z" transform="translate(-49.93 -61.46)"/><polygon class="cls-5" points="30.33 18.16 36.29 14.69 98.97 50.88 93.01 54.35 30.33 18.16"/><polygon class="cls-6" points="93.01 54.35 98.97 50.88 98.7 149.7 92.73 153.17 93.01 54.35"/><polygon class="cls-7" points="86.32 137.49 86.31 140.75 56.6 123.6 56.61 120.34 86.32 137.49"/><polygon class="cls-7" points="86.47 84.89 86.46 88.14 45.14 64.29 45.15 61.03 86.47 84.89"/><polygon class="cls-7" points="86.36 124.77 86.35 128.02 56.64 110.87 56.65 107.61 86.36 124.77"/><polygon class="cls-7" points="86.37 118.72 86.36 121.97 56.66 104.82 56.67 101.56 86.37 118.72"/><polygon class="cls-7" points="86.43 97.72 86.42 100.97 35.52 71.58 35.52 68.32 86.43 97.72"/><polygon class="cls-7" points="86.45 91.3 86.44 94.56 35.53 65.17 35.54 61.91 86.45 91.3"/><polygon class="cls-7" points="86.34 131.44 86.33 134.69 56.62 117.54 56.63 114.29 86.34 131.44"/><polygon class="cls-7" points="86.41 104.13 86.4 107.38 35.5 77.99 35.51 74.73 86.41 104.13"/><polygon class="cls-8" points="65.31 56.51 65.3 59.77 35.6 42.62 35.61 39.36 65.31 56.51"/><polygon class="cls-8" points="65.33 50.46 65.32 53.72 35.61 36.57 35.62 33.31 65.33 50.46"/><path class="cls-9" d="M50.21,75.23l62.68,36.19-.28,98.82L49.93,174.05Z" transform="translate(-49.93 -61.46)"/><polygon class="cls-9" points="0.28 13.77 6.25 10.3 68.93 46.49 62.96 49.96 0.28 13.77"/><polygon class="cls-9" points="62.96 49.96 68.93 46.49 68.65 145.31 62.68 148.78 62.96 49.96"/><polygon class="cls-8" points="56.27 133.1 56.26 136.36 26.56 119.21 26.57 115.95 56.27 133.1"/><polygon class="cls-8" points="56.42 80.5 56.41 83.76 15.1 59.9 15.1 56.65 56.42 80.5"/><polygon class="cls-8" points="56.31 120.38 56.3 123.63 26.59 106.48 26.6 103.22 56.31 120.38"/><polygon class="cls-8" points="56.33 114.33 56.32 117.58 26.61 100.43 26.62 97.17 56.33 114.33"/><polygon class="cls-8" points="56.38 93.33 56.38 96.58 5.47 67.19 5.48 63.94 56.38 93.33"/><polygon class="cls-8" points="56.4 86.91 56.39 90.17 5.49 60.78 5.5 57.52 56.4 86.91"/><polygon class="cls-8" points="56.29 127.05 56.28 130.3 26.57 113.15 26.59 109.9 56.29 127.05"/><polygon class="cls-8" points="56.37 99.74 56.36 103 5.45 73.6 5.46 70.35 56.37 99.74"/><polygon class="cls-10" points="35.27 52.12 35.26 55.38 5.55 38.23 5.56 34.97 35.27 52.12"/><polygon class="cls-7" points="35.28 46.07 35.27 49.33 5.57 32.18 5.58 28.92 35.28 46.07"/><path class="cls-11" d="M53.93,113.38l62.68,36.19-.28,98.82L53.65,212.2Z" transform="translate(-49.93 -61.46)"/><polygon class="cls-12" points="3.99 51.92 9.96 48.45 72.64 84.64 66.67 88.11 3.99 51.92"/><polygon class="cls-13" points="66.67 88.11 72.64 84.64 72.36 183.46 66.39 186.93 66.67 88.11"/><polygon class="cls-7" points="59.99 171.25 59.98 174.51 30.27 157.36 30.28 154.1 59.99 171.25"/><polygon class="cls-10" points="60.13 118.65 60.13 121.91 18.81 98.05 18.82 94.79 60.13 118.65"/><polygon class="cls-7" points="60.02 158.53 60.01 161.78 30.31 144.63 30.32 141.37 60.02 158.53"/><polygon class="cls-7" points="60.04 152.47 60.03 155.73 30.32 138.58 30.33 135.32 60.04 152.47"/><polygon class="cls-7" points="60.1 131.48 60.09 134.73 9.18 105.34 9.19 102.08 60.1 131.48"/><polygon class="cls-7" points="60.12 125.06 60.11 128.32 9.2 98.93 9.21 95.67 60.12 125.06"/><polygon class="cls-7" points="60 165.2 59.99 168.45 30.29 151.3 30.3 148.05 60 165.2"/><polygon class="cls-7" points="60.08 137.89 60.07 141.14 9.16 111.75 9.17 108.5 60.08 137.89"/><polygon class="cls-7" points="38.98 90.27 38.97 93.53 9.26 76.38 9.27 73.12 38.98 90.27"/><polygon class="cls-10" points="39 84.22 38.99 87.48 9.28 70.33 9.29 67.07 39 84.22"/><g class="cls-14"><path class="cls-15" d="M328.18,61.46l83,47.92-.37,130.84-83-47.92Z" transform="translate(-49.93 -61.46)"/></g><g class="cls-14"><path class="cls-15" d="M272.68,90.86l83,47.92-.36,130.84-83-47.92Z" transform="translate(-49.93 -61.46)"/></g><g class="cls-1"><polygon class="cls-16" points="271.38 84.41 276.48 81.45 288.49 74.67 283.39 77.64 271.38 84.41"/><polygon class="cls-17" points="295.38 84.59 300.48 81.63 312.35 102.27 307.25 105.23 295.38 84.59"/><polygon class="cls-16" points="271.51 56.99 276.62 54.03 282.65 50.63 277.55 53.6 271.51 56.99"/><polygon class="cls-18" points="277.55 53.6 282.65 50.63 294.52 71.27 289.42 74.24 277.55 53.6"/><polygon class="cls-19" points="301.43 67.46 306.54 64.5 312.49 74.86 307.39 77.82 301.43 67.46"/><polygon class="cls-16" points="289.42 74.24 294.52 71.27 306.54 64.5 301.43 67.46 289.42 74.24"/><polygon class="cls-20" points="277.55 53.6 289.42 74.24 301.43 67.46 307.39 77.82 295.38 84.59 307.25 105.23 301.22 108.63 289.35 88 277.34 94.77 271.38 84.41 283.39 77.64 271.51 56.99 277.55 53.6"/></g><polygon class="cls-21" points="300.48 81.63 295.38 84.59 298.62 90.2 306.17 91.53 300.48 81.63"/><g class="cls-1"><polygon class="cls-16" points="338.9 52.46 344 49.49 356.01 42.72 350.91 45.69 338.9 52.46"/><polygon class="cls-22" points="362.9 52.64 368 49.67 379.88 70.31 374.77 73.28 362.9 52.64"/><polygon class="cls-16" points="339.04 25.04 344.14 22.07 350.17 18.68 345.07 21.64 339.04 25.04"/><polygon class="cls-23" points="345.07 21.64 350.17 18.68 362.04 39.32 356.94 42.28 345.07 21.64"/><polygon class="cls-24" points="368.96 35.51 374.06 32.54 380.01 42.9 374.91 45.87 368.96 35.51"/><polygon class="cls-16" points="356.94 42.28 362.04 39.32 374.06 32.54 368.96 35.51 356.94 42.28"/><polygon class="cls-25" points="345.07 21.64 356.94 42.28 368.96 35.51 374.91 45.87 362.9 52.64 374.77 73.28 368.74 76.68 356.87 56.04 344.86 62.82 338.9 52.46 350.91 45.69 339.04 25.04 345.07 21.64"/></g><polygon class="cls-26" points="368 49.67 362.9 52.64 366.14 58.25 373.7 59.57 368 49.67"/><g class="cls-1"><path class="cls-27" d="M310.59,352.74l-6,3.47c1.47-.86,2.38-2.68,2.39-5.26l6-3.47C313,350.07,312.06,351.88,310.59,352.74Z" transform="translate(-49.93 -61.46)"/><path class="cls-28" d="M172.62,75.82l6-3.47c1.49-.87,3.55-.74,5.83.57l-6,3.47C176.18,75.07,174.11,75,172.62,75.82Z" transform="translate(-49.93 -61.46)"/><polygon class="cls-29" points="257.62 98.9 263.59 95.43 263.05 286.02 257.08 289.49 257.62 98.9"/><polygon class="cls-30" points="128.52 14.93 134.49 11.46 255.42 81.28 249.45 84.75 128.52 14.93"/><path class="cls-31" d="M299.39,146.21c4.52,2.62,8.18,8.95,8.16,14.15L307,351c0,5.2-3.7,7.3-8.22,4.69L177.87,285.81c-4.53-2.61-8.19-8.95-8.17-14.15l.53-190.58c0-5.21,3.7-7.31,8.23-4.69Z" transform="translate(-49.93 -61.46)"/><path class="cls-32" d="M299.39,146.21l6-3.46c4.53,2.61,8.19,8.94,8.17,14.14l-6,3.47C307.57,155.16,303.91,148.83,299.39,146.21Z" transform="translate(-49.93 -61.46)"/></g><polygon class="cls-33" points="251.59 96.44 251.11 266.85 125.8 194.5 125.8 24.09 251.59 96.44"/><path class="cls-34" d="M213.44,127.69l70.68,40.81-.31,111.44-70.69-40.82Z" transform="translate(-49.93 -61.46)"/><path class="cls-35" d="M294.09,238.08c-4-7-9.29-12.31-14.57-15.36s-10.56-3.78-14.6-1.48c-8.08,4.61-8.13,19.62-.1,33.52,4,7,9.29,12.32,14.57,15.37s10.56,3.78,14.6,1.48C302.07,267,302.12,252,294.09,238.08Z" transform="translate(-49.93 -61.46)"/><path class="cls-36" d="M298.87,285.45l-1.63.92v1.79l4,6.91,0-11Z" transform="translate(-49.93 -61.46)"/><path class="cls-36" d="M299.42,235c-5.47-9.48-12.67-16.8-19.87-21s-14.42-5.16-19.93-2c-11,6.28-11.09,26.76-.13,45.74,5.48,9.49,12.67,16.8,19.87,21,6.17,3.56,12.34,4.81,17.45,3.12l2.06,3.57,2.39-1.37.13-45.38C300.78,237.48,300.12,236.26,299.42,235ZM294,271.61c-4,2.3-9.32,1.56-14.6-1.48s-10.55-8.41-14.57-15.37c-8-13.9-8-28.91.1-33.52,4-2.3,9.32-1.57,14.6,1.48s10.55,8.41,14.57,15.36C302.12,252,302.07,267,294,271.61Z" transform="translate(-49.93 -61.46)"/><g class="cls-1"><path class="cls-37" d="M366.11,277.26l6-3.47,9-5.12-6,3.47Z" transform="translate(-49.93 -61.46)"/><path class="cls-30" d="M402.72,288.09l6-3.47c2.88,5,5.38,9.31,8.93,15.47l-6,3.47Z" transform="translate(-49.93 -61.46)"/><polygon class="cls-30" points="325.16 210.68 331.13 207.21 358.75 223.16 352.78 226.63 325.16 210.68"/><path class="cls-38" d="M411.65,303.56l43.83,25.3L455.29,396l-43.83-25.31-45.54-26.3.19-67.15,9-5.12,27.63,15.95Z" transform="translate(-49.93 -61.46)"/><polygon class="cls-30" points="405.54 267.4 411.51 263.93 411.32 331.09 405.35 334.55 405.54 267.4"/><polygon class="cls-30" points="361.71 242.09 367.68 238.63 411.51 263.93 405.54 267.4 361.71 242.09"/></g><polygon class="cls-7" points="398.63 315.24 398.61 322.64 358.33 299.38 358.35 291.98 398.63 315.24"/><g class="cls-1"><path class="cls-37" d="M344.31,281.58l6-3.46,9-5.13-6,3.47Z" transform="translate(-49.93 -61.46)"/><path class="cls-30" d="M380.92,292.41l6-3.47c2.87,5,5.37,9.31,8.93,15.47l-6,3.47Z" transform="translate(-49.93 -61.46)"/><polygon class="cls-30" points="303.36 215 309.33 211.53 336.95 227.48 330.99 230.95 303.36 215"/><path class="cls-39" d="M389.85,307.88l43.83,25.3-.19,67.16L389.66,375l-45.54-26.29.19-67.16,9-5.12,27.63,16Z" transform="translate(-49.93 -61.46)"/><polygon class="cls-30" points="383.75 271.72 389.71 268.25 389.52 335.41 383.56 338.88 383.75 271.72"/><polygon class="cls-30" points="339.91 246.42 345.88 242.95 389.71 268.25 383.75 271.72 339.91 246.42"/></g><polygon class="cls-7" points="376.84 319.56 376.81 326.96 336.53 303.7 336.55 296.3 376.84 319.56"/><g class="cls-1"><path class="cls-37" d="M319.86,285.91l6-3.47,9-5.12-6,3.46Z" transform="translate(-49.93 -61.46)"/><path class="cls-30" d="M356.47,296.73l6-3.46,8.93,15.46-6,3.47Z" transform="translate(-49.93 -61.46)"/><polygon class="cls-30" points="278.91 219.32 284.88 215.85 312.51 231.8 306.54 235.27 278.91 219.32"/><path class="cls-40" d="M365.4,312.2l43.83,25.31L409,404.66l-43.83-25.31-45.54-26.29.19-67.15,9-5.13,27.62,16Z" transform="translate(-49.93 -61.46)"/><polygon class="cls-30" points="359.3 276.05 365.26 272.58 365.08 339.73 359.11 343.2 359.3 276.05"/><polygon class="cls-30" points="315.47 250.74 321.43 247.27 365.26 272.58 359.3 276.05 315.47 250.74"/></g><polygon class="cls-7" points="352.39 323.88 352.37 331.28 312.08 308.02 312.1 300.62 352.39 323.88"/><polygon class="cls-7" points="207.28 121.7 207.09 191.75 147.11 157.12 147.31 87.07 207.28 121.7"/><g class="cls-1"><polygon class="cls-34" points="147.11 157.12 153.07 153.65 213.05 188.28 207.09 191.75 147.11 157.12"/><polygon class="cls-34" points="147.31 87.07 153.27 83.6 153.07 153.65 147.11 157.12 147.31 87.07"/><polygon class="cls-7" points="147.31 87.07 153.27 83.6 213.25 118.23 207.28 121.7 147.31 87.07"/><polygon class="cls-7" points="207.28 121.7 213.25 118.23 213.05 188.28 207.09 191.75 207.28 121.7"/><path class="cls-41" d="M193.4,141.1l67.69,39.08-.29,100.91L193.11,242ZM257,253.21l.2-70.05-60-34.63-.2,70.05,60,34.63" transform="translate(-49.93 -61.46)"/><polygon class="cls-42" points="211.15 118.72 217.12 115.25 216.84 216.16 210.87 219.62 211.15 118.72"/><polygon class="cls-43" points="143.47 79.64 149.43 76.17 217.12 115.25 211.15 118.72 143.47 79.64"/></g><path class="cls-36" d="M235.89,204.26a1.19,1.19,0,0,1,.35.3C245,215,248.8,217.27,248.76,231.32c-3.58.64-9.64-1.45-20.9-8S210.54,212,207,207.2c0-14.06,3.82-12,12.63-12.24a.69.69,0,0,1,.35.1,1.58,1.58,0,0,1,.58.64c1.84,3.59,5.53,6.1,7.38,7.16s5.53,2.82,7.39,1.37A.52.52,0,0,1,235.89,204.26Z" transform="translate(-49.93 -61.46)"/><path class="cls-36" d="M228,176.44c5.8,3.35,10.47,11.45,10.45,18.11s-4.72,9.35-10.52,6-10.47-11.46-10.46-18.11S222.2,173.09,228,176.44Z" transform="translate(-49.93 -61.46)"/><polygon class="cls-44" points="179.9 192.95 179.88 196.38 146.97 177.38 146.98 173.94 179.9 192.95"/><polygon class="cls-44" points="207.01 208.6 207 212.04 182.49 197.89 182.5 194.45 207.01 208.6"/><polygon class="cls-44" points="164.55 177.47 164.54 180.91 146.99 170.78 147 167.34 164.55 177.47"/><polygon class="cls-44" points="186.42 190.1 186.41 193.54 168.86 183.41 168.87 179.97 186.42 190.1"/><polygon class="cls-44" points="193.13 187.59 193.12 191.02 147.01 164.4 147.02 160.96 193.13 187.59"/><g class="cls-1"><path class="cls-36" d="M229.16,237.78l6-3.47c-8.08,4.61-8.13,19.61-.1,33.52,4,6.95,9.29,12.32,14.57,15.36s10.56,3.79,14.6,1.48l-6,3.47c-4,2.3-9.32,1.57-14.6-1.48s-10.55-8.41-14.57-15.36C221,257.39,221.08,242.38,229.16,237.78Z" transform="translate(-49.93 -61.46)"/><polygon class="cls-36" points="215.81 234.28 221.77 230.81 223.83 234.38 217.87 237.85 215.81 234.28"/><path class="cls-45" d="M263.67,251.58l6-3.47c10.17,17.61,10.84,36.51,2.08,44.16l-6,3.47C274.51,288.09,273.83,269.19,263.67,251.58Z" transform="translate(-49.93 -61.46)"/><path class="cls-46" d="M223.86,228.6l6-3.47c5.51-3.14,12.73-2.14,19.93,2s14.4,11.47,19.87,21l-6,3.47c-5.48-9.49-12.68-16.8-19.88-21S229.38,225.46,223.86,228.6Z" transform="translate(-49.93 -61.46)"/><path class="cls-47" d="M263.67,251.58c10.16,17.61,10.84,36.51,2.07,44.16l2.06,3.57L263.11,302l-2.06-3.56c-5.11,1.68-11.28.44-17.45-3.12-7.2-4.16-14.39-11.48-19.87-21-11-19-10.9-39.46.13-45.74,5.52-3.14,12.73-2.14,19.93,2S258.19,242.09,263.67,251.58Zm-5.44,36.56c8.09-4.6,8.13-19.61.1-33.52-4-7-9.29-12.31-14.57-15.36s-10.56-3.78-14.6-1.48c-8.08,4.6-8.12,19.61-.1,33.52,4,6.95,9.29,12.31,14.57,15.36s10.56,3.78,14.6,1.48" transform="translate(-49.93 -61.46)"/></g><polygon class="cls-48" points="211.55 241.45 217.52 237.98 219.15 237.05 213.18 240.52 211.55 241.45"/><polygon class="cls-48" points="213.18 240.52 219.15 237.05 223.83 234.38 217.87 237.85 213.18 240.52"/><polygon class="cls-48" points="217.87 237.85 223.83 234.38 225.46 233.45 219.49 236.92 217.87 237.85"/><path class="cls-30" d="M293.86,338.91l6-3.47c0,.7,0,1.09,0,1.79l-6,3.47Z" transform="translate(-49.93 -61.46)"/><path class="cls-30" d="M269.43,298.38l6-3.47,1.56.9-6,3.47Z" transform="translate(-49.93 -61.46)"/><path class="cls-49" d="M271,299.28l22.87,39.63v1.79l-7.95,4.52-1.56-.9L261.48,304.7c0-.7,0-1.09,0-1.79l1.62-.93,4.69-2.67,1.63-.93Z" transform="translate(-49.93 -61.46)"/><polygon class="cls-30" points="221.05 237.82 227.02 234.35 249.9 273.98 243.93 277.45 221.05 237.82"/><polygon class="cls-34" points="157.42 42.27 151.53 45.59 145.78 35.58 134.32 28.99 131.79 30.41 151.69 65.06 174.63 52.17 157.42 42.27"/><g class="cls-1"><polygon class="cls-50" points="99.19 34.31 106.24 30.21 114.57 25.52 107.52 29.61 99.19 34.31"/><polygon class="cls-51" points="107.52 29.61 114.57 25.52 125.98 45.39 118.93 49.48 107.52 29.61"/><polygon class="cls-52" points="118.11 67.24 119.09 68.95 162.45 44.6 161.41 42.78 118.11 67.24"/><polygon class="cls-53" points="153.96 29.82 118.93 49.48 107.52 29.61 99.19 34.31 118.11 67.24 161.41 42.78 153.96 29.82"/><polygon class="cls-54" points="153.96 29.82 161.01 25.72 169.5 40.5 162.45 44.6 153.96 29.82"/><polygon class="cls-9" points="118.93 49.48 125.98 45.39 161.01 25.72 153.96 29.82 118.93 49.48"/></g><path class="cls-15" d="M229.49,294.48a12.77,12.77,0,0,1,5.79,10c0,3.69-2.62,5.18-5.83,3.32a12.76,12.76,0,0,1-5.78-10C223.68,294.12,226.29,292.63,229.49,294.48Z" transform="translate(-49.93 -61.46)"/><polygon class="cls-55" points="252.51 184.04 268.17 208.34 252.42 214.5 252.44 207.78 261.25 204.35 252.49 190.75 252.51 184.04"/><polygon class="cls-36" points="121.39 113.47 121.37 120.18 112.56 123.63 121.32 137.21 121.31 143.93 105.64 119.63 121.39 113.47"/></g></g></svg>