<svg xmlns="http://www.w3.org/2000/svg" xmlns:xlink="http://www.w3.org/1999/xlink" viewBox="0 0 413.12 283.19"><defs><style>.cls-1{fill:#a84e11;}.cls-2{fill:url(#linear-gradient);}.cls-3{fill:url(#linear-gradient-2);}.cls-11,.cls-13,.cls-17,.cls-18,.cls-20,.cls-28,.cls-29,.cls-30,.cls-39,.cls-4,.cls-43,.cls-45,.cls-46,.cls-50,.cls-6,.cls-7{fill:#fff;}.cls-4{opacity:0.3;}.cls-5{fill:#d85b07;}.cls-11,.cls-13,.cls-7{font-size:4.16px;}.cls-11,.cls-13,.cls-17,.cls-18,.cls-20,.cls-43,.cls-45,.cls-46,.cls-7{font-family:Montserrat-SemiBold, Montserrat SemiBold;font-weight:600;}.cls-14,.cls-7{letter-spacing:0.34em;}.cls-8{letter-spacing:0.31em;}.cls-9{letter-spacing:0.34em;}.cls-10{letter-spacing:0.33em;}.cls-11{letter-spacing:0.12em;}.cls-12,.cls-22,.cls-23,.cls-26,.cls-27,.cls-34,.cls-38,.cls-52{fill:none;}.cls-12,.cls-34,.cls-38,.cls-52{stroke:#fff;}.cls-12,.cls-26,.cls-27,.cls-34,.cls-38,.cls-49,.cls-52{stroke-linecap:round;stroke-linejoin:round;}.cls-12{stroke-width:0.5px;}.cls-13{letter-spacing:0.33em;}.cls-15{letter-spacing:0.26em;}.cls-16{letter-spacing:0.35em;}.cls-17,.cls-18{font-size:3.18px;}.cls-17,.cls-19{letter-spacing:0.34em;}.cls-18{letter-spacing:0.3em;}.cls-20{font-size:1.59px;letter-spacing:0.3em;}.cls-21{letter-spacing:0.34em;}.cls-22,.cls-23{stroke-miterlimit:10;}.cls-22{stroke:url(#New_Gradient_Swatch_4);}.cls-23{stroke:url(#New_Gradient_Swatch_4-2);}.cls-24{fill:url(#linear-gradient-3);}.cls-25{fill:#d35500;}.cls-26{stroke:#a85022;}.cls-26,.cls-27{stroke-width:3px;}.cls-27{stroke:url(#New_Gradient_Swatch_5);}.cls-28{font-size:12.18px;letter-spacing:0.02em;}.cls-28,.cls-39{font-family:Montserrat-Bold, Montserrat;font-weight:700;}.cls-29,.cls-30{font-size:2.4px;font-family:Montserrat-Medium, Montserrat;font-weight:500;}.cls-29,.cls-31{letter-spacing:0.18em;}.cls-30{letter-spacing:0.17em;}.cls-32{fill:url(#linear-gradient-4);}.cls-33{fill:url(#linear-gradient-5);}.cls-34{stroke-width:0.75px;}.cls-35{fill:url(#linear-gradient-6);}.cls-36{fill:url(#New_Gradient_Swatch_5-2);}.cls-37{fill:url(#linear-gradient-7);}.cls-38{stroke-width:0.25px;}.cls-39{font-size:4.75px;letter-spacing:0.26em;}.cls-40{letter-spacing:0.27em;}.cls-41{letter-spacing:0.25em;}.cls-42{fill:#d86d25;}.cls-43{font-size:1.98px;letter-spacing:0.3em;}.cls-44{letter-spacing:0.34em;}.cls-45,.cls-46{font-size:2.12px;}.cls-45{letter-spacing:0.2em;}.cls-46{letter-spacing:0.19em;}.cls-47{letter-spacing:0.2em;}.cls-48{letter-spacing:0.12em;}.cls-49{stroke:#ed7321;fill:url(#linear-gradient-8);}.cls-50{opacity:0.35;}.cls-51{fill:url(#linear-gradient-9);}</style><linearGradient id="linear-gradient" x1="542.99" y1="71.17" x2="510.9" y2="247.26" gradientUnits="userSpaceOnUse"><stop offset="0" stop-color="#dd541c"/><stop offset="0.14" stop-color="#c14911"/><stop offset="0.32" stop-color="#ab410f"/><stop offset="0.54" stop-color="#9a3c0e"/><stop offset="0.77" stop-color="#632709"/><stop offset="1" stop-color="#492007"/></linearGradient><linearGradient id="linear-gradient-2" x1="416.34" y1="194.37" x2="550.53" y2="194.37" gradientTransform="matrix(1, 0, -0.16, 1, 61.9, 0)" gradientUnits="userSpaceOnUse"><stop offset="0" stop-color="#531a06"/><stop offset="1" stop-color="#c53f0f"/></linearGradient><linearGradient id="New_Gradient_Swatch_4" x1="450.98" y1="221.44" x2="538.36" y2="221.44" gradientTransform="matrix(1, 0, -0.16, 1, -246, -40.81)" gradientUnits="userSpaceOnUse"><stop offset="0" stop-color="#eb6592"/><stop offset="1" stop-color="#b7215a"/></linearGradient><linearGradient id="New_Gradient_Swatch_4-2" x1="450.98" y1="254.03" x2="538.35" y2="254.03" xlink:href="#New_Gradient_Swatch_4"/><linearGradient id="linear-gradient-3" x1="576.82" y1="159.29" x2="668.41" y2="159.29" gradientTransform="matrix(1, 0, -0.16, 1, 61.9, 0)" xlink:href="#linear-gradient"/><linearGradient id="New_Gradient_Swatch_5" x1="621.12" y1="163.81" x2="647.19" y2="163.81" gradientTransform="matrix(1, 0, -0.16, 1, 61.9, 0)" gradientUnits="userSpaceOnUse"><stop offset="0" stop-color="#ffba1f"/><stop offset="1" stop-color="#ef6600"/></linearGradient><linearGradient id="linear-gradient-4" x1="589.22" y1="190.24" x2="593.54" y2="190.24" gradientTransform="matrix(1, 0, -0.16, 1, 61.9, 0)" xlink:href="#linear-gradient"/><linearGradient id="linear-gradient-5" x1="630.35" y1="190.24" x2="634.67" y2="190.24" gradientTransform="matrix(1, 0, -0.16, 1, 61.9, 0)" xlink:href="#linear-gradient"/><linearGradient id="linear-gradient-6" x1="565.17" y1="276.14" x2="632.6" y2="276.14" gradientTransform="matrix(1, 0, -0.16, 1, 61.9, 0)" xlink:href="#linear-gradient"/><linearGradient id="New_Gradient_Swatch_5-2" x1="572.49" y1="262.84" x2="626" y2="262.84" xlink:href="#New_Gradient_Swatch_5"/><linearGradient id="linear-gradient-7" x1="302.41" y1="155.83" x2="400.55" y2="155.83" gradientTransform="matrix(1, 0, -0.16, 1, 61.9, 0)" xlink:href="#linear-gradient"/><linearGradient id="linear-gradient-8" x1="351.45" y1="137.66" x2="432.35" y2="137.66" xlink:href="#linear-gradient"/><linearGradient id="linear-gradient-9" x1="344.69" y1="225.5" x2="356.73" y2="225.5" gradientTransform="matrix(0.73, 0.68, -0.79, 0.63, 299.01, -154.4)" xlink:href="#linear-gradient"/></defs><g id="OBJECTS"><path class="cls-1" d="M599.38,125.93h-2.22a1.08,1.08,0,0,1-1.09-1.29l2-12.91a1.57,1.57,0,0,1,1.49-1.29h2.22a1.08,1.08,0,0,1,1.09,1.29l-2,12.91A1.57,1.57,0,0,1,599.38,125.93Z" transform="translate(-307.9 -40.81)"/><path class="cls-2" d="M557.24,309.83H448c-6.87,0-11.58-5.57-10.51-12.45l32-206A15.1,15.1,0,0,1,483.85,78.9H593.13c6.88,0,11.58,5.58,10.51,12.45l-32,206A15.09,15.09,0,0,1,557.24,309.83Z" transform="translate(-307.9 -40.81)"/><path class="cls-1" d="M460.65,120.35h-2.22a1.08,1.08,0,0,1-1.09-1.29l2-12.91a1.57,1.57,0,0,1,1.49-1.29h2.21a1.07,1.07,0,0,1,1.09,1.29l-2,12.91A1.57,1.57,0,0,1,460.65,120.35Z" transform="translate(-307.9 -40.81)"/><path class="cls-1" d="M457,144.16h-2.22a1.08,1.08,0,0,1-1.09-1.29l2-12.91a1.57,1.57,0,0,1,1.49-1.29h2.21a1.08,1.08,0,0,1,1.09,1.29l-2,12.91A1.57,1.57,0,0,1,457,144.16Z" transform="translate(-307.9 -40.81)"/><path class="cls-3" d="M551.82,309.83H442.54c-6.88,0-11.58-5.57-10.52-12.45l32-206A15.1,15.1,0,0,1,478.43,78.9H587.72c6.87,0,11.58,5.58,10.51,12.45l-32,206A15.09,15.09,0,0,1,551.82,309.83Z" transform="translate(-307.9 -40.81)"/><path class="cls-1" d="M552.48,304.43H443.56a6.23,6.23,0,0,1-6.3-7.46l31.89-205.2a9,9,0,0,1,8.62-7.47H586.7a6.23,6.23,0,0,1,6.3,7.47L561.1,297A9,9,0,0,1,552.48,304.43Z" transform="translate(-307.9 -40.81)"/><path class="cls-4" d="M578.77,133.1H470.53a1.85,1.85,0,0,1-1.88-2.22l6-38.87a2.7,2.7,0,0,1,2.57-2.23H585.51A1.86,1.86,0,0,1,587.39,92l-6,38.87A2.69,2.69,0,0,1,578.77,133.1Z" transform="translate(-307.9 -40.81)"/><path class="cls-4" d="M507.34,129.26H473.78a.87.87,0,0,1-.87-1l5.21-33.55a1.26,1.26,0,0,1,1.2-1h33.55a.86.86,0,0,1,.88,1l-5.21,33.55A1.27,1.27,0,0,1,507.34,129.26Z" transform="translate(-307.9 -40.81)"/><path class="cls-1" d="M496.68,112.33a8.46,8.46,0,0,0,4.43-6,5.83,5.83,0,0,0-5.9-7,8.47,8.47,0,0,0-8.06,7,5.88,5.88,0,0,0,2.56,6,14.42,14.42,0,0,0-10,11.24h23.53C504,118.29,501.24,113.82,496.68,112.33Z" transform="translate(-307.9 -40.81)"/><path class="cls-5" d="M545.37,95.86H520.62a.88.88,0,0,1-.9-1.06v-.11A1.3,1.3,0,0,1,521,93.63h24.75a.88.88,0,0,1,.9,1.06l0,.11A1.28,1.28,0,0,1,545.37,95.86Z" transform="translate(-307.9 -40.81)"/><path class="cls-4" d="M578.81,104.88H519.22a.88.88,0,0,1-.9-1.06v-.1a1.3,1.3,0,0,1,1.23-1.07h59.6a.89.89,0,0,1,.9,1.07v.1A1.29,1.29,0,0,1,578.81,104.88Z" transform="translate(-307.9 -40.81)"/><path class="cls-4" d="M578.05,109.81h-59.6a.89.89,0,0,1-.9-1.07l0-.1a1.29,1.29,0,0,1,1.23-1.07h59.6a.89.89,0,0,1,.9,1.07l0,.1A1.29,1.29,0,0,1,578.05,109.81Z" transform="translate(-307.9 -40.81)"/><path class="cls-4" d="M577.29,114.73h-59.6a.89.89,0,0,1-.9-1.07v-.1a1.3,1.3,0,0,1,1.24-1.07h59.59a.89.89,0,0,1,.9,1.07v.1A1.3,1.3,0,0,1,577.29,114.73Z" transform="translate(-307.9 -40.81)"/><path class="cls-6" d="M569.81,129.28a.9.9,0,0,1-.86.74.61.61,0,0,1-.62-.74.89.89,0,0,1,.85-.74A.62.62,0,0,1,569.81,129.28Z" transform="translate(-307.9 -40.81)"/><path class="cls-6" d="M573,129.28a.89.89,0,0,1-.85.74.62.62,0,0,1-.63-.74.91.91,0,0,1,.86-.74A.61.61,0,0,1,573,129.28Z" transform="translate(-307.9 -40.81)"/><ellipse class="cls-6" cx="575.4" cy="129.28" rx="0.8" ry="0.69" transform="translate(-242.71 384.25) rotate(-42.77)"/><text class="cls-7" transform="matrix(0.99, 0, -0.15, 0.99, 202.63, 104.4)">JAN<tspan class="cls-8" x="11.07" y="0">U</tspan><tspan class="cls-9" x="15.03" y="0">A</tspan><tspan class="cls-10" x="18.99" y="0">R</tspan><tspan class="cls-9" x="22.6" y="0">Y</tspan></text><path class="cls-4" d="M472.06,172.68h-4.67a3.18,3.18,0,0,1-3.22-3.81l1.76-11.38a4.63,4.63,0,0,1,4.41-3.81H475a3.18,3.18,0,0,1,3.22,3.81l-1.77,11.38A4.62,4.62,0,0,1,472.06,172.68Z" transform="translate(-307.9 -40.81)"/><text class="cls-11" transform="matrix(0.99, 0, -0.15, 0.99, 160.77, 123.7)">11</text><path class="cls-4" d="M491.57,172.68H486.9a3.19,3.19,0,0,1-3.23-3.81l1.77-11.38a4.63,4.63,0,0,1,4.41-3.81h4.68a3.18,3.18,0,0,1,3.22,3.81L496,168.87A4.62,4.62,0,0,1,491.57,172.68Z" transform="translate(-307.9 -40.81)"/><text class="cls-11" transform="matrix(0.99, 0, -0.15, 0.99, 180.28, 123.7)">12</text><path class="cls-4" d="M511.08,172.68h-4.67a3.19,3.19,0,0,1-3.23-3.81L505,157.49a4.63,4.63,0,0,1,4.41-3.81H514a3.19,3.19,0,0,1,3.22,3.81l-1.77,11.38A4.62,4.62,0,0,1,511.08,172.68Z" transform="translate(-307.9 -40.81)"/><text class="cls-11" transform="matrix(0.99, 0, -0.15, 0.99, 199.79, 123.7)">13</text><path class="cls-4" d="M530.59,172.68h-4.68a3.18,3.18,0,0,1-3.22-3.81l1.77-11.38a4.63,4.63,0,0,1,4.41-3.81h4.67a3.19,3.19,0,0,1,3.23,3.81L535,168.87A4.62,4.62,0,0,1,530.59,172.68Z" transform="translate(-307.9 -40.81)"/><text class="cls-11" transform="matrix(0.99, 0, -0.15, 0.99, 219.3, 123.7)">14</text><path class="cls-4" d="M550.1,172.68h-4.68a3.18,3.18,0,0,1-3.22-3.81L544,157.49a4.63,4.63,0,0,1,4.41-3.81h4.67a3.18,3.18,0,0,1,3.22,3.81l-1.76,11.38A4.62,4.62,0,0,1,550.1,172.68Z" transform="translate(-307.9 -40.81)"/><text class="cls-11" transform="matrix(0.99, 0, -0.15, 0.99, 238.81, 123.7)">15</text><path class="cls-4" d="M569.61,172.68h-4.68a3.18,3.18,0,0,1-3.22-3.81l1.77-11.38a4.63,4.63,0,0,1,4.41-3.81h4.67a3.18,3.18,0,0,1,3.22,3.81L574,168.87A4.63,4.63,0,0,1,569.61,172.68Z" transform="translate(-307.9 -40.81)"/><text class="cls-11" transform="matrix(0.99, 0, -0.15, 0.99, 258.31, 123.7)">16</text><polygon class="cls-12" points="180.63 257.72 173.09 257.72 173.98 252 178.19 249.17 181.51 252 180.63 257.72"/><path class="cls-12" d="M485.77,298.54h-2l.27-1.72a1.16,1.16,0,0,1,1.11-1h.09a.8.8,0,0,1,.82,1Z" transform="translate(-307.9 -40.81)"/><polygon class="cls-12" points="146.37 251.83 144.04 251.83 146.73 249.5 146.37 251.83"/><polygon class="cls-12" points="150.37 257.72 143.13 257.72 144.04 251.83 146.73 249.5 151.65 249.5 150.37 257.72"/><line class="cls-12" x1="145.21" y1="253.43" x2="149.62" y2="253.43"/><line class="cls-12" x1="144.99" y1="254.81" x2="149.41" y2="254.81"/><line class="cls-12" x1="144.78" y1="256.19" x2="149.19" y2="256.19"/><path class="cls-12" d="M517.31,292.47a2.37,2.37,0,0,1-2,2.16c-.93,0-1.53-1-1.35-2.16a2.38,2.38,0,0,1,2-2.15C516.89,290.32,517.5,291.28,517.31,292.47Z" transform="translate(-307.9 -40.81)"/><path class="cls-12" d="M511.32,298.07a4.16,4.16,0,0,1,4-3.44,2.88,2.88,0,0,1,2.91,3.44" transform="translate(-307.9 -40.81)"/><path class="cls-12" d="M547,297.45h-6l.67-4.27a3.46,3.46,0,0,1,3.3-2.86h.28a2.39,2.39,0,0,1,2.42,2.86Z" transform="translate(-307.9 -40.81)"/><path class="cls-12" d="M545.34,297.54a1.62,1.62,0,0,1-1.55,1.34,1.13,1.13,0,0,1-1.14-1.34" transform="translate(-307.9 -40.81)"/><text class="cls-13" transform="matrix(0.99, 0, -0.15, 0.99, 156.43, 147.52)">D<tspan class="cls-14" x="4.13" y="0">AI</tspan><tspan class="cls-15" x="10.5" y="0">L</tspan><tspan class="cls-9" x="13.52" y="0">Y R</tspan><tspan class="cls-16" x="23.14" y="0">E</tspan><tspan class="cls-14" x="26.64" y="0">VI</tspan><tspan class="cls-16" x="32.78" y="0">E</tspan><tspan class="cls-9" x="36.28" y="0">W</tspan></text><text class="cls-17" transform="matrix(0.99, 0, -0.15, 0.99, 152.52, 165.25)">09.00</text><text class="cls-17" transform="matrix(0.99, 0, -0.15, 0.99, 149.97, 181.69)">10.00</text><text class="cls-17" transform="matrix(0.99, 0, -0.15, 0.99, 147.41, 198.12)">11.00</text><text class="cls-17" transform="matrix(0.99, 0, -0.15, 0.99, 144.86, 214.56)">12.00</text><text class="cls-17" transform="matrix(0.99, 0, -0.15, 0.99, 142.3, 231)">13.00</text><path class="cls-4" d="M564.72,213H481a2,2,0,0,1-2.06-2.44l1.92-12.33a3,3,0,0,1,2.82-2.45H567.4a2,2,0,0,1,2.06,2.45l-1.92,12.33A3,3,0,0,1,564.72,213Z" transform="translate(-307.9 -40.81)"/><text class="cls-18" transform="matrix(0.99, 0, -0.15, 0.99, 177.78, 160.11)">L<tspan class="cls-19" x="2.46" y="0">OREM IPSUM</tspan></text><text class="cls-20" transform="matrix(0.99, 0, -0.15, 0.99, 176.24, 162.86)">L<tspan class="cls-21" x="1.23" y="0">OREM IPSUM</tspan></text><path class="cls-1" d="M561.72,208.5a1.65,1.65,0,0,0,.85-1.15,1.11,1.11,0,0,0-1.13-1.32,1.6,1.6,0,0,0-1.53,1.32,1.11,1.11,0,0,0,.49,1.15,2.75,2.75,0,0,0-1.91,2.14H563A1.87,1.87,0,0,0,561.72,208.5Z" transform="translate(-307.9 -40.81)"/><path class="cls-1" d="M555.53,208.5a1.62,1.62,0,0,0,.85-1.15,1.11,1.11,0,0,0-1.12-1.32,1.61,1.61,0,0,0-1.54,1.32,1.14,1.14,0,0,0,.49,1.15,2.76,2.76,0,0,0-1.91,2.14h4.48A1.88,1.88,0,0,0,555.53,208.5Z" transform="translate(-307.9 -40.81)"/><path class="cls-4" d="M559.69,245.31H475.93a2,2,0,0,1-2.06-2.44l1.92-12.34a3,3,0,0,1,2.82-2.44h83.76a2,2,0,0,1,2.06,2.44l-1.92,12.34A3,3,0,0,1,559.69,245.31Z" transform="translate(-307.9 -40.81)"/><text class="cls-18" transform="matrix(0.99, 0, -0.15, 0.99, 172.75, 192.47)">L<tspan class="cls-19" x="2.46" y="0">OREM IPSUM</tspan></text><text class="cls-20" transform="matrix(0.99, 0, -0.15, 0.99, 171.21, 195.22)">L<tspan class="cls-21" x="1.23" y="0">OREM IPSUM</tspan></text><path class="cls-1" d="M556.69,240.86a1.62,1.62,0,0,0,.85-1.15,1.12,1.12,0,0,0-1.13-1.33,1.61,1.61,0,0,0-1.53,1.33,1.12,1.12,0,0,0,.49,1.15,2.74,2.74,0,0,0-1.91,2.14h4.48A1.87,1.87,0,0,0,556.69,240.86Z" transform="translate(-307.9 -40.81)"/><path class="cls-1" d="M550.51,240.86a1.63,1.63,0,0,0,.84-1.15,1.11,1.11,0,0,0-1.12-1.33,1.62,1.62,0,0,0-1.54,1.33,1.14,1.14,0,0,0,.49,1.15,2.74,2.74,0,0,0-1.91,2.14h4.48A1.88,1.88,0,0,0,550.51,240.86Z" transform="translate(-307.9 -40.81)"/><path class="cls-4" d="M554.58,278.18H470.82a2,2,0,0,1-2.06-2.44l1.92-12.33A3,3,0,0,1,473.5,261h83.76a2,2,0,0,1,2.06,2.44l-1.92,12.33A3,3,0,0,1,554.58,278.18Z" transform="translate(-307.9 -40.81)"/><text class="cls-18" transform="matrix(0.99, 0, -0.15, 0.99, 167.64, 225.34)">L<tspan class="cls-19" x="2.46" y="0">OREM IPSUM</tspan></text><text class="cls-20" transform="matrix(0.99, 0, -0.15, 0.99, 166.1, 228.09)">L<tspan class="cls-21" x="1.23" y="0">OREM IPSUM</tspan></text><path class="cls-1" d="M551.58,273.73a1.6,1.6,0,0,0,.85-1.15,1.11,1.11,0,0,0-1.13-1.32,1.6,1.6,0,0,0-1.53,1.32,1.11,1.11,0,0,0,.49,1.15,2.76,2.76,0,0,0-1.91,2.14h4.48A1.88,1.88,0,0,0,551.58,273.73Z" transform="translate(-307.9 -40.81)"/><path class="cls-1" d="M545.4,273.73a1.61,1.61,0,0,0,.84-1.15,1.11,1.11,0,0,0-1.12-1.32,1.61,1.61,0,0,0-1.54,1.32,1.13,1.13,0,0,0,.49,1.15,2.76,2.76,0,0,0-1.91,2.14h4.48A1.88,1.88,0,0,0,545.4,273.73Z" transform="translate(-307.9 -40.81)"/><line class="cls-22" x1="170.56" y1="180.63" x2="257.94" y2="180.63"/><line class="cls-23" x1="165.5" y1="213.22" x2="252.88" y2="213.22"/><path class="cls-24" d="M690.11,198.18H617.33a7.84,7.84,0,0,1-7.94-9.4l9.16-59a11.4,11.4,0,0,1,10.87-9.4H702.2a7.85,7.85,0,0,1,7.94,9.4l-9.17,59A11.4,11.4,0,0,1,690.11,198.18Z" transform="translate(-307.9 -40.81)"/><path class="cls-25" d="M664.94,126c-15.19,0-29.41,12.32-31.78,27.51s8,27.51,23.23,27.51,29.42-12.32,31.79-27.51S680.14,126,664.94,126Zm-7.11,45.73c-10.06,0-17-8.16-15.39-18.22s11-18.23,21.06-18.23,17,8.17,15.4,18.23S667.9,171.68,657.83,171.68Z" transform="translate(-307.9 -40.81)"/><path class="cls-26" d="M650.49,134.48a26.11,26.11,0,0,1,13.77-4.1c12.74,0,21.46,10.34,19.48,23.08s-13.91,23.07-26.66,23.07" transform="translate(-307.9 -40.81)"/><path class="cls-27" d="M684,151.09a21.67,21.67,0,0,1-.25,2.37c-2,12.74-13.91,23.07-26.66,23.07" transform="translate(-307.9 -40.81)"/><text class="cls-28" transform="matrix(0.99, 0, -0.15, 0.99, 338.45, 116.76)">60%</text><text class="cls-29" transform="matrix(0.99, 0, -0.15, 0.99, 347.24, 121.92)">USED</text><text class="cls-30" transform="matrix(0.99, 0, -0.15, 0.99, 320.54, 150.29)">L<tspan class="cls-31" x="1.83" y="0">OREM IPSUM</tspan></text><path class="cls-32" d="M625.88,190.24a2.61,2.61,0,0,1-2.5,2.16,1.8,1.8,0,0,1-1.82-2.16,2.61,2.61,0,0,1,2.49-2.16A1.8,1.8,0,0,1,625.88,190.24Z" transform="translate(-307.9 -40.81)"/><text class="cls-30" transform="matrix(0.99, 0, -0.15, 0.99, 361.67, 150.29)">L<tspan class="cls-31" x="1.83" y="0">OREM IPSUM</tspan></text><path class="cls-33" d="M667,190.24a2.61,2.61,0,0,1-2.5,2.16,1.8,1.8,0,0,1-1.82-2.16,2.61,2.61,0,0,1,2.49-2.16A1.8,1.8,0,0,1,667,190.24Z" transform="translate(-307.9 -40.81)"/><path class="cls-34" d="M665.81,120.37l1.76-11.27a3.53,3.53,0,0,0-3.56-4.22h-54" transform="translate(-307.9 -40.81)"/><path class="cls-6" d="M664.85,120.37a.8.8,0,0,0,.81,1,1.16,1.16,0,0,0,1.12-1,.8.8,0,0,0-.82-1A1.16,1.16,0,0,0,664.85,120.37Z" transform="translate(-307.9 -40.81)"/><path class="cls-35" d="M635.27,324H585.6a7.42,7.42,0,0,1-7.5-8.89l12.12-78a10.76,10.76,0,0,1,10.26-8.89h49.67a7.42,7.42,0,0,1,7.5,8.89l-12.12,78A10.77,10.77,0,0,1,635.27,324Z" transform="translate(-307.9 -40.81)"/><path class="cls-25" d="M619.25,311.47a8.33,8.33,0,0,1-7.93,6.87,5.74,5.74,0,0,1-5.81-6.87,8.33,8.33,0,0,1,7.94-6.87A5.73,5.73,0,0,1,619.25,311.47Z" transform="translate(-307.9 -40.81)"/><path class="cls-25" d="M626,311.47a5.73,5.73,0,0,0,5.8,6.87,8.34,8.34,0,0,0,7.94-6.87,5.74,5.74,0,0,0-5.81-6.87A8.32,8.32,0,0,0,626,311.47Z" transform="translate(-307.9 -40.81)"/><polygon class="cls-6" points="325.96 270.65 321.93 268.1 321.13 273.21 325.96 270.65 321.93 268.1 321.13 273.21 325.96 270.65"/><polygon class="cls-6" points="329.81 270.65 325.78 268.1 324.99 273.21 329.81 270.65 325.78 268.1 324.99 273.21 329.81 270.65"/><ellipse class="cls-25" cx="591.95" cy="311.47" rx="7.42" ry="6.36" transform="translate(-361.97 444.07) rotate(-42.78)"/><polygon class="cls-6" points="283 270.65 287.83 268.1 287.03 273.21 283 270.65 287.83 268.1 287.03 273.21 283 270.65"/><polygon class="cls-6" points="279.15 270.65 283.98 268.1 283.18 273.21 279.15 270.65 283.98 268.1 283.18 273.21 279.15 270.65"/><polygon class="cls-6" points="305.11 270.65 301.07 268.1 300.28 273.21 305.11 270.65 301.07 268.1 300.28 273.21 305.11 270.65"/><polygon class="cls-6" points="305.35 273.21 304.44 273.21 305.24 268.1 306.15 268.1 305.35 273.21"/><polygon class="cls-6" points="307.11 273.21 306.2 273.21 307 268.1 307.91 268.1 307.11 273.21"/><text class="cls-18" transform="matrix(0.99, 0, -0.15, 0.99, 282.83, 256.07)">L<tspan class="cls-19" x="2.46" y="0">OREM IPSUM</tspan></text><text class="cls-20" transform="matrix(0.99, 0, -0.15, 0.99, 281.29, 258.82)">L<tspan class="cls-21" x="1.23" y="0">OREM IPSUM</tspan></text><path class="cls-6" d="M635.8,300.34a.77.77,0,0,1-.73.62.51.51,0,0,1-.52-.62.75.75,0,0,1,.72-.63A.53.53,0,0,1,635.8,300.34Z" transform="translate(-307.9 -40.81)"/><path class="cls-6" d="M638.46,300.34a.75.75,0,0,1-.72.62.53.53,0,0,1-.53-.62.77.77,0,0,1,.73-.63A.52.52,0,0,1,638.46,300.34Z" transform="translate(-307.9 -40.81)"/><path class="cls-6" d="M641.13,300.34a.75.75,0,0,1-.72.62.53.53,0,0,1-.53-.62.77.77,0,0,1,.73-.63A.52.52,0,0,1,641.13,300.34Z" transform="translate(-307.9 -40.81)"/><path class="cls-4" d="M650.7,239.41l-7.28,46.85a4,4,0,0,1-3.85,3.34H592.71a2.78,2.78,0,0,1-2.81-3.34l7.28-46.85a4,4,0,0,1,3.85-3.33h46.86A2.78,2.78,0,0,1,650.7,239.41Z" transform="translate(-307.9 -40.81)"/><path class="cls-36" d="M650.7,239.41l-7.28,46.85a4,4,0,0,1-3.85,3.34H592.71a2.78,2.78,0,0,1-2.81-3.34l2.18-14a34.52,34.52,0,0,0,16.07-2.85,33,33,0,0,0,15.54-14.05c2.43-4.52,3.49-9.43,5.44-14.12a29.21,29.21,0,0,1,2.7-5.12h16.06A2.78,2.78,0,0,1,650.7,239.41Z" transform="translate(-307.9 -40.81)"/><path class="cls-25" d="M649.6,246.47l-6.18,39.79a4,4,0,0,1-3.85,3.34H592.71a2.78,2.78,0,0,1-2.81-3.34l.59-3.8a43.43,43.43,0,0,0,19.31-8.74c8.07-6.39,13.9-15.45,22.38-21.22A35.1,35.1,0,0,1,649.6,246.47Z" transform="translate(-307.9 -40.81)"/><path class="cls-34" d="M625.32,228.25,627.07,217a3.51,3.51,0,0,0-3.56-4.21H586" transform="translate(-307.9 -40.81)"/><path class="cls-6" d="M624.35,228.25a.8.8,0,0,0,.82,1,1.16,1.16,0,0,0,1.11-1,.8.8,0,0,0-.81-1A1.17,1.17,0,0,0,624.35,228.25Z" transform="translate(-307.9 -40.81)"/><path class="cls-37" d="M415.55,244.55H335.2a7.42,7.42,0,0,1-7.51-8.89L352.5,76a10.8,10.8,0,0,1,10.28-8.9h80.35a7.43,7.43,0,0,1,7.51,8.9L425.83,235.66A10.79,10.79,0,0,1,415.55,244.55Z" transform="translate(-307.9 -40.81)"/><path class="cls-6" d="M433.75,76.57a.91.91,0,0,1-.86.74.61.61,0,0,1-.62-.74.89.89,0,0,1,.85-.74A.62.62,0,0,1,433.75,76.57Z" transform="translate(-307.9 -40.81)"/><path class="cls-6" d="M436.91,76.57a.89.89,0,0,1-.85.74.62.62,0,0,1-.63-.74.9.9,0,0,1,.86-.74A.61.61,0,0,1,436.91,76.57Z" transform="translate(-307.9 -40.81)"/><path class="cls-6" d="M440.08,76.57a.91.91,0,0,1-.86.74.62.62,0,0,1-.63-.74.91.91,0,0,1,.86-.74A.62.62,0,0,1,440.08,76.57Z" transform="translate(-307.9 -40.81)"/><line class="cls-38" x1="57.31" y1="35.75" x2="54.93" y2="35.75"/><polyline class="cls-38" points="56.06 37.09 54.93 35.75 56.47 34.42"/><path class="cls-1" d="M432,115.63H358.79a1.69,1.69,0,0,1-1.71-2L361.52,85a2.46,2.46,0,0,1,2.35-2H437.1a1.69,1.69,0,0,1,1.72,2l-4.44,28.58A2.46,2.46,0,0,1,432,115.63Z" transform="translate(-307.9 -40.81)"/><text class="cls-39" transform="matrix(0.99, 0, -0.15, 0.99, 72.35, 59.91)">$<tspan class="cls-40" x="4.27" y="0">2</tspan><tspan x="8.36" y="0">,50</tspan><tspan class="cls-41" x="19.37" y="0">0.</tspan><tspan x="26.19" y="0">00</tspan></text><path class="cls-6" d="M366.17,110.12a3.31,3.31,0,0,1-3.16,2.73,2.28,2.28,0,0,1-2.3-2.73,3.3,3.3,0,0,1,3.15-2.73A2.28,2.28,0,0,1,366.17,110.12Z" transform="translate(-307.9 -40.81)"/><path class="cls-42" d="M364,109.93a1.22,1.22,0,0,0,.63-.85.83.83,0,0,0-.84-1,1.18,1.18,0,0,0-1.13,1,.82.82,0,0,0,.36.85,2,2,0,0,0-1.42,1.59h3.32A1.38,1.38,0,0,0,364,109.93Z" transform="translate(-307.9 -40.81)"/><text class="cls-43" transform="matrix(0.99, 0, -0.15, 0.99, 82.8, 49.14)">L<tspan class="cls-44" x="1.53" y="0">OREM IPSUM</tspan></text><text class="cls-43" transform="matrix(0.99, 0, -0.15, 0.99, 79.46, 70.66)">L<tspan class="cls-44" x="1.53" y="0">OREM IPSUM</tspan></text><text class="cls-45" transform="matrix(0.99, 0, -0.15, 0.99, 39.42, 122.4)">JAN</text><text class="cls-45" transform="matrix(0.99, 0, -0.15, 0.99, 54.93, 122.4)">FEB</text><text class="cls-46" transform="matrix(0.99, 0, -0.15, 0.99, 69.88, 122.4)">M<tspan class="cls-47" x="2.11" y="0">AR</tspan></text><text class="cls-46" transform="matrix(0.99, 0, -0.15, 0.99, 85.35, 122.4)">M<tspan class="cls-48" x="2.11" y="0">A</tspan><tspan class="cls-47" x="3.66" y="0">Y</tspan></text><text class="cls-45" transform="matrix(0.99, 0, -0.15, 0.99, 100.95, 122.4)">JUN</text><text class="cls-45" transform="matrix(0.99, 0, -0.15, 0.99, 116.54, 122.4)">JUL</text><path class="cls-49" d="M351.45,138.16c2.44,0,5-.33,6.36,1.5s1.72,4.27,2.26,6.56c.24,1.05.7,2.22,1.8,2.33,1.44.14,2.54-1.6,3.15-3q3.68-8.52,7.34-17a15.39,15.39,0,0,1,2.46-4.33,5.13,5.13,0,0,1,4.35-1.93c2.36.41,3,3.23,3.23,5.6q1.05,10.31,2.12,20.59c.18,1.75.5,3.72,2,4.44a4.13,4.13,0,0,0,4-.75,9.53,9.53,0,0,0,2.71-3.52,21.74,21.74,0,0,1,2.29-4.28c1-1.29,2.79-2.26,4.16-1.76a14.19,14.19,0,0,0,1.37.64c1.5.41,3.09-1.11,4.16-2.49a61.08,61.08,0,0,0,8-13.64,6.48,6.48,0,0,1,1.19-2.09,1.93,1.93,0,0,1,2.11-.61c.58.32.7,1.09.77,1.77q1.05,10.29,2.09,20.57c.21,2,.9,4.47,3,4.41a4,4,0,0,0,2.78-1.7,16.1,16.1,0,0,0,1.56-3c1.36-3,3.87-8.14,5.63-8.14" transform="translate(-307.9 -40.81)"/><path class="cls-50" d="M417.22,208.33H344.79a3.55,3.55,0,0,1-3.59-4.25l4.38-28.14a5.15,5.15,0,0,1,4.91-4.26h72.42a3.55,3.55,0,0,1,3.59,4.26l-4.37,28.14A5.16,5.16,0,0,1,417.22,208.33Z" transform="translate(-307.9 -40.81)"/><path class="cls-5" d="M375.53,178.77H350.78a.89.89,0,0,1-.9-1.07v-.1a1.31,1.31,0,0,1,1.24-1.07h24.75a.89.89,0,0,1,.9,1.07l0,.1A1.29,1.29,0,0,1,375.53,178.77Z" transform="translate(-307.9 -40.81)"/><path class="cls-4" d="M419,187.79H349.38a.89.89,0,0,1-.9-1.07v-.1a1.3,1.3,0,0,1,1.24-1.07h69.63a.9.9,0,0,1,.91,1.07l0,.1A1.29,1.29,0,0,1,419,187.79Z" transform="translate(-307.9 -40.81)"/><path class="cls-4" d="M418.25,192.71H348.61a.89.89,0,0,1-.9-1.07l0-.1a1.28,1.28,0,0,1,1.23-1.06H418.6a.88.88,0,0,1,.9,1.06l0,.1A1.29,1.29,0,0,1,418.25,192.71Z" transform="translate(-307.9 -40.81)"/><path class="cls-4" d="M417.49,197.63H347.85a.89.89,0,0,1-.9-1.06v-.11a1.29,1.29,0,0,1,1.24-1.06h69.63a.89.89,0,0,1,.91,1.06l0,.11A1.29,1.29,0,0,1,417.49,197.63Z" transform="translate(-307.9 -40.81)"/><path class="cls-6" d="M411,204.46a.8.8,0,0,1-.76.66.55.55,0,0,1-.56-.66.81.81,0,0,1,.76-.66A.55.55,0,0,1,411,204.46Z" transform="translate(-307.9 -40.81)"/><path class="cls-6" d="M413.83,204.46a.8.8,0,0,1-.76.66.55.55,0,0,1-.56-.66.81.81,0,0,1,.76-.66A.55.55,0,0,1,413.83,204.46Z" transform="translate(-307.9 -40.81)"/><path class="cls-6" d="M416.65,204.46a.8.8,0,0,1-.76.66.55.55,0,0,1-.56-.66.8.8,0,0,1,.76-.66A.55.55,0,0,1,416.65,204.46Z" transform="translate(-307.9 -40.81)"/><ellipse class="cls-51" cx="377.57" cy="225.5" rx="6.5" ry="5.57" transform="translate(-360.62 275.59) rotate(-42.78)"/><path class="cls-6" d="M380.92,224.74h-2.47l.39-2.47a.64.64,0,0,0-.65-.76.94.94,0,0,0-.89.76l-.38,2.47h-2.46a.93.93,0,0,0-.89.76.64.64,0,0,0,.65.77h2.46l-.38,2.46a.64.64,0,0,0,.65.77.92.92,0,0,0,.88-.77l.39-2.46h2.46a.94.94,0,0,0,.89-.77A.64.64,0,0,0,380.92,224.74Z" transform="translate(-307.9 -40.81)"/><path class="cls-42" d="M361.27,225.5a4.85,4.85,0,0,1-4.62,4,3.34,3.34,0,0,1-3.38-4,4.85,4.85,0,0,1,4.62-4A3.34,3.34,0,0,1,361.27,225.5Z" transform="translate(-307.9 -40.81)"/><line class="cls-12" x1="50.46" y1="184.69" x2="48.28" y2="184.69"/><polyline class="cls-12" points="49.31 185.91 48.28 184.69 49.69 183.47"/><path class="cls-42" d="M393.87,225.5a3.34,3.34,0,0,0,3.37,4,4.84,4.84,0,0,0,4.62-4,3.33,3.33,0,0,0-3.37-4A4.84,4.84,0,0,0,393.87,225.5Z" transform="translate(-307.9 -40.81)"/><line class="cls-12" x1="88.87" y1="184.69" x2="91.05" y2="184.69"/><polyline class="cls-12" points="89.64 185.91 91.05 184.69 90.02 183.47"/><path class="cls-34" d="M374.87,244.53l-1.76,11.27a3.52,3.52,0,0,0,3.56,4.21h53.95" transform="translate(-307.9 -40.81)"/><path class="cls-6" d="M375.83,244.53a.8.8,0,0,0-.81-1,1.16,1.16,0,0,0-1.12,1,.8.8,0,0,0,.82,1A1.16,1.16,0,0,0,375.83,244.53Z" transform="translate(-307.9 -40.81)"/><ellipse class="cls-4" cx="667.26" cy="279.6" rx="22.53" ry="18.89" transform="translate(-321.58 483.18) rotate(-42.48)"/><polygon class="cls-52" points="366.55 247.91 348.94 247.91 351.3 234.53 361.27 227.92 368.91 234.53 366.55 247.91"/><path class="cls-52" d="M668,288.72h-4.72l.93-5.29a1.2,1.2,0,0,1,1.13-1h2.8a.8.8,0,0,1,.8,1Z" transform="translate(-307.9 -40.81)"/><ellipse class="cls-4" cx="328.85" cy="254.03" rx="22.53" ry="18.89" transform="translate(-393.14 247.94) rotate(-42.48)"/><polygon class="cls-52" points="18.74 208.57 13.31 208.57 19.7 203.13 18.74 208.57"/><polygon class="cls-52" points="27.8 222.35 10.88 222.35 13.31 208.57 19.7 203.13 31.19 203.13 27.8 222.35"/><line class="cls-52" x1="15.95" y1="212.31" x2="26.27" y2="212.31"/><line class="cls-52" x1="15.38" y1="215.53" x2="25.7" y2="215.53"/><line class="cls-52" x1="14.82" y1="218.75" x2="25.13" y2="218.75"/><ellipse class="cls-4" cx="491.51" cy="61.44" rx="22.53" ry="18.89" transform="translate(-220.39 307.24) rotate(-42.48)"/><path class="cls-52" d="M496.35,56.4c-.49,2.78-2.66,5-4.84,5s-3.54-2.26-3.05-5,2.66-5,4.83-5S496.84,53.61,496.35,56.4Z" transform="translate(-307.9 -40.81)"/><path class="cls-52" d="M482.06,69.48a10,10,0,0,1,9.45-8,6.56,6.56,0,0,1,6.62,8" transform="translate(-307.9 -40.81)"/><ellipse class="cls-4" cx="700.07" cy="103.77" rx="22.53" ry="18.89" transform="translate(-194.23 459.19) rotate(-42.48)"/><path class="cls-52" d="M705.92,110.35h-14l1.7-9.66a8.73,8.73,0,0,1,8.25-7h0a5.72,5.72,0,0,1,5.77,7Z" transform="translate(-307.9 -40.81)"/><path class="cls-52" d="M702,110.56a3.93,3.93,0,0,1-3.7,3.14,2.56,2.56,0,0,1-2.59-3.14" transform="translate(-307.9 -40.81)"/></g></svg>