<svg xmlns="http://www.w3.org/2000/svg" xmlns:xlink="http://www.w3.org/1999/xlink" viewBox="0 0 452.53 313.26"><defs><style>.cls-1{isolation:isolate;}.cls-2{fill:url(#linear-gradient);}.cls-3{fill:url(#linear-gradient-2);}.cls-4{fill:url(#linear-gradient-3);}.cls-5,.cls-59,.cls-64,.cls-69{opacity:0.3;}.cls-19,.cls-33,.cls-46,.cls-5,.cls-57,.cls-59,.cls-6,.cls-64,.cls-69,.cls-77,.cls-89{mix-blend-mode:multiply;}.cls-5{fill:url(#linear-gradient-4);}.cls-19,.cls-6{opacity:0.87;}.cls-6{fill:url(#linear-gradient-5);}.cls-7{fill:url(#linear-gradient-6);}.cls-8{fill:#ff530e;}.cls-9{fill:url(#linear-gradient-7);}.cls-10{fill:url(#linear-gradient-8);}.cls-11{fill:url(#linear-gradient-9);}.cls-12,.cls-49,.cls-54,.cls-55,.cls-56,.cls-82,.cls-83,.cls-87{fill:#fff;}.cls-13{fill:url(#linear-gradient-10);}.cls-14{fill:#f8b2ac;}.cls-15{fill:url(#linear-gradient-11);}.cls-16{fill:url(#linear-gradient-12);}.cls-17{fill:url(#linear-gradient-13);}.cls-18{fill:url(#linear-gradient-14);}.cls-19{fill:url(#linear-gradient-15);}.cls-20{fill:url(#linear-gradient-16);}.cls-21{fill:url(#linear-gradient-17);}.cls-22{fill:url(#linear-gradient-18);}.cls-23{fill:url(#linear-gradient-19);}.cls-24{fill:url(#linear-gradient-20);}.cls-25{fill:url(#linear-gradient-21);}.cls-26{fill:url(#linear-gradient-22);}.cls-27{fill:url(#linear-gradient-23);}.cls-28{fill:url(#linear-gradient-24);}.cls-29{fill:url(#linear-gradient-25);}.cls-30{fill:url(#linear-gradient-26);}.cls-31{fill:url(#linear-gradient-27);}.cls-32{fill:url(#linear-gradient-28);}.cls-33,.cls-46,.cls-57,.cls-77,.cls-89{opacity:0.5;}.cls-33{fill:url(#linear-gradient-29);}.cls-34{fill:url(#linear-gradient-30);}.cls-35{fill:url(#linear-gradient-31);}.cls-36{fill:#ffd5b3;}.cls-37{fill:url(#linear-gradient-32);}.cls-38{fill:url(#linear-gradient-33);}.cls-39{fill:url(#linear-gradient-34);}.cls-40{fill:url(#linear-gradient-35);}.cls-41{fill:url(#linear-gradient-36);}.cls-42{fill:url(#linear-gradient-37);}.cls-43{fill:url(#linear-gradient-38);}.cls-44{fill:url(#linear-gradient-39);}.cls-45{fill:url(#linear-gradient-40);}.cls-46{fill:url(#linear-gradient-41);}.cls-47{fill:url(#linear-gradient-42);}.cls-48{fill:url(#linear-gradient-43);}.cls-49,.cls-54,.cls-55,.cls-56,.cls-82,.cls-83,.cls-87{stroke-miterlimit:10;stroke-width:0.5px;}.cls-49{stroke:url(#linear-gradient-44);}.cls-50{fill:url(#linear-gradient-45);}.cls-51{fill:url(#linear-gradient-46);}.cls-52{fill:url(#linear-gradient-47);}.cls-53{fill:url(#linear-gradient-48);}.cls-54{stroke:url(#linear-gradient-49);}.cls-55{stroke:url(#linear-gradient-50);}.cls-56{stroke:url(#linear-gradient-51);}.cls-57{fill:url(#linear-gradient-52);}.cls-58{fill:url(#linear-gradient-53);}.cls-59{fill:url(#linear-gradient-54);}.cls-60{fill:url(#linear-gradient-55);}.cls-61{fill:url(#linear-gradient-56);}.cls-62{fill:url(#linear-gradient-57);}.cls-63{fill:url(#linear-gradient-58);}.cls-64{fill:url(#linear-gradient-59);}.cls-65{fill:url(#linear-gradient-60);}.cls-66{fill:url(#linear-gradient-61);}.cls-67{fill:url(#linear-gradient-62);}.cls-68{fill:url(#linear-gradient-63);}.cls-69{fill:url(#linear-gradient-64);}.cls-70{fill:url(#linear-gradient-65);}.cls-71{fill:url(#linear-gradient-66);}.cls-72{fill:url(#linear-gradient-67);}.cls-73{fill:url(#linear-gradient-68);}.cls-74{fill:url(#linear-gradient-69);}.cls-75{fill:url(#linear-gradient-70);}.cls-76{fill:url(#linear-gradient-71);}.cls-77{fill:url(#linear-gradient-72);}.cls-78{fill:url(#linear-gradient-73);}.cls-79{fill:url(#linear-gradient-74);}.cls-80{fill:url(#linear-gradient-75);}.cls-81{fill:url(#linear-gradient-76);}.cls-82{stroke:url(#linear-gradient-77);}.cls-83{stroke:url(#linear-gradient-78);}.cls-84{fill:url(#linear-gradient-79);}.cls-85{fill:url(#linear-gradient-80);}.cls-86{fill:url(#linear-gradient-81);}.cls-87{stroke:url(#linear-gradient-82);}.cls-88{fill:url(#linear-gradient-83);}.cls-89{fill:url(#linear-gradient-88);}.cls-90{fill:url(#linear-gradient-89);}.cls-91{fill:url(#linear-gradient-90);}.cls-92{fill:url(#linear-gradient-91);}.cls-93{fill:url(#linear-gradient-92);}.cls-94{fill:url(#linear-gradient-93);}.cls-95{fill:url(#linear-gradient-94);}</style><linearGradient id="linear-gradient" x1="379.68" y1="355.41" x2="431.53" y2="355.41" gradientUnits="userSpaceOnUse"><stop offset="0" stop-color="#ff530e"/><stop offset="0.14" stop-color="#e04700"/><stop offset="0.32" stop-color="#c73f00"/><stop offset="0.54" stop-color="#b33900"/><stop offset="0.77" stop-color="#722200"/><stop offset="1" stop-color="#531a00"/></linearGradient><linearGradient id="linear-gradient-2" x1="421.19" y1="227.06" x2="463.96" y2="367.1" xlink:href="#linear-gradient"/><linearGradient id="linear-gradient-3" x1="404.7" y1="385.09" x2="404.7" y2="279.26" gradientUnits="userSpaceOnUse"><stop offset="0" stop-color="#ffbe4a"/><stop offset="1" stop-color="#ffec79"/></linearGradient><linearGradient id="linear-gradient-4" x1="433.56" y1="225.72" x2="444.97" y2="365.13" gradientUnits="userSpaceOnUse"><stop offset="0.02" stop-color="#dbb86f"/><stop offset="0.06" stop-color="#d9b26e"/><stop offset="0.12" stop-color="#d4a16b"/><stop offset="0.2" stop-color="#cb8466"/><stop offset="0.27" stop-color="#bf5d5f"/><stop offset="0.34" stop-color="#b33858"/><stop offset="0.67" stop-color="#56285b"/><stop offset="0.77" stop-color="#522556"/><stop offset="0.88" stop-color="#471c47"/><stop offset="0.99" stop-color="#360f31"/></linearGradient><linearGradient id="linear-gradient-5" x1="229.48" y1="279.49" x2="229.48" y2="300.01" gradientUnits="userSpaceOnUse"><stop offset="0.02" stop-color="#905c95"/><stop offset="0.02" stop-color="#905c95" stop-opacity="0.98"/><stop offset="0.12" stop-color="#905c95" stop-opacity="0.72"/><stop offset="0.22" stop-color="#905c95" stop-opacity="0.5"/><stop offset="0.33" stop-color="#905c95" stop-opacity="0.31"/><stop offset="0.46" stop-color="#905c95" stop-opacity="0.17"/><stop offset="0.59" stop-color="#905c95" stop-opacity="0.08"/><stop offset="0.75" stop-color="#905c95" stop-opacity="0.02"/><stop offset="1" stop-color="#905c95" stop-opacity="0"/></linearGradient><linearGradient id="linear-gradient-6" x1="88.26" y1="167.75" x2="107.03" y2="345.54" xlink:href="#linear-gradient"/><linearGradient id="linear-gradient-7" x1="214.11" y1="77.21" x2="238.5" y2="149.92" gradientUnits="userSpaceOnUse"><stop offset="0" stop-color="#df4000"/><stop offset="1" stop-color="#1d0b00"/></linearGradient><linearGradient id="linear-gradient-8" x1="320.86" y1="368.48" x2="138.42" y2="236.78" xlink:href="#linear-gradient"/><linearGradient id="linear-gradient-9" x1="218.74" y1="263.38" x2="218.74" y2="114.77" xlink:href="#linear-gradient-7"/><linearGradient id="linear-gradient-10" x1="277.62" y1="208.05" x2="166.59" y2="417.29" xlink:href="#linear-gradient-7"/><linearGradient id="linear-gradient-11" x1="111.11" y1="380.78" x2="444.75" y2="380.78" xlink:href="#linear-gradient-7"/><linearGradient id="linear-gradient-12" x1="222.25" y1="368.72" x2="544.1" y2="402.47" gradientUnits="userSpaceOnUse"><stop offset="0" stop-color="#601300"/><stop offset="1" stop-color="#e53d00"/></linearGradient><linearGradient id="linear-gradient-13" x1="225.47" y1="266.1" x2="393.8" y2="266.1" gradientUnits="userSpaceOnUse"><stop offset="0" stop-color="#ff4500"/><stop offset="1" stop-color="#841c00"/></linearGradient><linearGradient id="linear-gradient-14" x1="279.31" y1="266.1" x2="352.58" y2="266.1" xlink:href="#linear-gradient-13"/><linearGradient id="linear-gradient-15" x1="94.64" y1="298.63" x2="94.64" y2="312.9" xlink:href="#linear-gradient-5"/><linearGradient id="linear-gradient-16" x1="209.93" y1="383.97" x2="36.08" y2="383.97" xlink:href="#linear-gradient"/><linearGradient id="linear-gradient-17" x1="179.5" y1="383.97" x2="-130.09" y2="383.97" xlink:href="#linear-gradient-12"/><linearGradient id="linear-gradient-18" x1="234.38" y1="285.35" x2="-122.76" y2="285.35" xlink:href="#linear-gradient-4"/><linearGradient id="linear-gradient-19" x1="234.38" y1="296.08" x2="-122.76" y2="296.08" xlink:href="#linear-gradient-4"/><linearGradient id="linear-gradient-20" x1="234.38" y1="296.2" x2="-122.76" y2="296.2" xlink:href="#linear-gradient-4"/><linearGradient id="linear-gradient-21" x1="234.38" y1="296.06" x2="-122.76" y2="296.06" xlink:href="#linear-gradient-4"/><linearGradient id="linear-gradient-22" x1="234.38" y1="296.01" x2="-122.76" y2="296.01" xlink:href="#linear-gradient-4"/><linearGradient id="linear-gradient-23" x1="234.38" y1="296.03" x2="-122.76" y2="296.03" xlink:href="#linear-gradient-4"/><linearGradient id="linear-gradient-24" x1="234.38" y1="296.1" x2="-122.76" y2="296.1" xlink:href="#linear-gradient-4"/><linearGradient id="linear-gradient-25" x1="234.38" y1="296.16" x2="-122.76" y2="296.16" xlink:href="#linear-gradient-4"/><linearGradient id="linear-gradient-26" x1="234.38" y1="296.18" x2="-122.76" y2="296.18" xlink:href="#linear-gradient-4"/><linearGradient id="linear-gradient-27" x1="234.38" y1="296.12" x2="-122.76" y2="296.12" xlink:href="#linear-gradient-4"/><linearGradient id="linear-gradient-28" x1="234.38" y1="296.14" x2="-122.76" y2="296.14" xlink:href="#linear-gradient-4"/><linearGradient id="linear-gradient-29" x1="96.27" y1="198.76" x2="139.54" y2="198.76" gradientUnits="userSpaceOnUse"><stop offset="0.02" stop-color="#db886f"/><stop offset="0.07" stop-color="#d58373"/><stop offset="0.15" stop-color="#c47480"/><stop offset="0.24" stop-color="#a75c95"/><stop offset="0.33" stop-color="#803ab1"/><stop offset="0.34" stop-color="#7e38b3"/><stop offset="0.62" stop-color="#2c285b"/><stop offset="0.69" stop-color="#272252"/><stop offset="0.87" stop-color="#1b143d"/><stop offset="0.99" stop-color="#170f36"/></linearGradient><linearGradient id="linear-gradient-30" x1="85.57" y1="144.05" x2="171.6" y2="281.7" gradientUnits="userSpaceOnUse"><stop offset="0" stop-color="#fff"/><stop offset="0.2" stop-color="#fefcfd"/><stop offset="0.37" stop-color="#f9f2f7"/><stop offset="0.51" stop-color="#f1e1ec"/><stop offset="0.65" stop-color="#e6cadd"/><stop offset="0.78" stop-color="#d8abc9"/><stop offset="0.91" stop-color="#c786b2"/><stop offset="1" stop-color="#b9679e"/></linearGradient><linearGradient id="linear-gradient-31" x1="105.42" y1="93.83" x2="114.62" y2="236.5" xlink:href="#linear-gradient"/><linearGradient id="linear-gradient-32" x1="85.8" y1="220.92" x2="95.35" y2="329.74" gradientTransform="translate(36.12 -9.11) rotate(7.09)" xlink:href="#linear-gradient-30"/><linearGradient id="linear-gradient-33" x1="95.92" y1="220.04" x2="105.46" y2="328.86" gradientTransform="translate(37.38 -10.64) rotate(7.33)" xlink:href="#linear-gradient-30"/><linearGradient id="linear-gradient-34" x1="105.3" y1="219.21" x2="114.85" y2="328.03" gradientTransform="translate(46.43 -13.93) rotate(9.05)" xlink:href="#linear-gradient-30"/><linearGradient id="linear-gradient-35" x1="113.99" y1="218.45" x2="123.54" y2="327.27" gradientTransform="translate(52.24 -16.65) rotate(10.14)" xlink:href="#linear-gradient-30"/><linearGradient id="linear-gradient-36" x1="122.5" y1="217.71" x2="132.04" y2="326.53" gradientTransform="translate(48.29 -17.12) rotate(9.38)" xlink:href="#linear-gradient-30"/><linearGradient id="linear-gradient-37" x1="130.35" y1="217.02" x2="139.9" y2="325.84" gradientTransform="translate(43.13 -16.84) rotate(8.39)" xlink:href="#linear-gradient-30"/><linearGradient id="linear-gradient-38" x1="93.95" y1="309.81" x2="140.11" y2="309.81" xlink:href="#linear-gradient"/><linearGradient id="linear-gradient-39" x1="94.53" y1="316.64" x2="140.69" y2="316.64" xlink:href="#linear-gradient"/><linearGradient id="linear-gradient-40" x1="95.52" y1="323.46" x2="141.68" y2="323.46" xlink:href="#linear-gradient"/><linearGradient id="linear-gradient-41" x1="301.57" y1="229.2" x2="361.84" y2="229.2" xlink:href="#linear-gradient-29"/><linearGradient id="linear-gradient-42" x1="350.86" y1="182.84" x2="350.86" y2="298.58" xlink:href="#linear-gradient-30"/><linearGradient id="linear-gradient-43" x1="423.22" y1="138.76" x2="214.2" y2="293.86" xlink:href="#linear-gradient"/><linearGradient id="linear-gradient-44" x1="323.87" y1="217.48" x2="340.6" y2="217.48" xlink:href="#linear-gradient-4"/><linearGradient id="linear-gradient-45" x1="326.7" y1="125.89" x2="326.7" y2="279.79" xlink:href="#linear-gradient"/><linearGradient id="linear-gradient-46" x1="344.95" y1="319.39" x2="379.43" y2="319.39" xlink:href="#linear-gradient"/><linearGradient id="linear-gradient-47" x1="345.57" y1="324.75" x2="380.05" y2="324.75" xlink:href="#linear-gradient"/><linearGradient id="linear-gradient-48" x1="346.18" y1="330.1" x2="380.66" y2="330.1" xlink:href="#linear-gradient"/><linearGradient id="linear-gradient-49" x1="349.3" y1="211.27" x2="353.71" y2="211.27" xlink:href="#linear-gradient-4"/><linearGradient id="linear-gradient-50" x1="354.39" y1="217.01" x2="358.8" y2="217.01" xlink:href="#linear-gradient-4"/><linearGradient id="linear-gradient-51" x1="361.99" y1="222.43" x2="366.4" y2="222.43" xlink:href="#linear-gradient-4"/><linearGradient id="linear-gradient-52" x1="307.04" y1="250.35" x2="354.55" y2="250.35" xlink:href="#linear-gradient-29"/><linearGradient id="linear-gradient-53" x1="374.34" y1="88.68" x2="374.34" y2="268.19" gradientUnits="userSpaceOnUse"><stop offset="0" stop-color="#fff"/><stop offset="0.19" stop-color="#f4e7f0"/><stop offset="0.6" stop-color="#d8aac9"/><stop offset="1" stop-color="#b9679e"/></linearGradient><linearGradient id="linear-gradient-54" x1="325.66" y1="124.81" x2="411.71" y2="124.81" xlink:href="#linear-gradient-29"/><linearGradient id="linear-gradient-55" x1="362.61" y1="88.68" x2="362.61" y2="268.19" xlink:href="#linear-gradient-53"/><linearGradient id="linear-gradient-56" x1="298.18" y1="194.63" x2="378.32" y2="93.7" xlink:href="#linear-gradient"/><linearGradient id="linear-gradient-57" x1="299.83" y1="195.94" x2="379.96" y2="95.01" xlink:href="#linear-gradient"/><linearGradient id="linear-gradient-58" x1="301.48" y1="197.24" x2="381.61" y2="96.32" xlink:href="#linear-gradient"/><linearGradient id="linear-gradient-59" x1="323.25" y1="229.31" x2="391.25" y2="229.31" xlink:href="#linear-gradient-29"/><linearGradient id="linear-gradient-60" x1="354.2" y1="197.88" x2="354.2" y2="377.38" xlink:href="#linear-gradient-53"/><linearGradient id="linear-gradient-61" x1="334.03" y1="143.38" x2="376.91" y2="50.68" xlink:href="#linear-gradient"/><linearGradient id="linear-gradient-62" x1="337.22" y1="144.85" x2="380.1" y2="52.15" xlink:href="#linear-gradient-7"/><linearGradient id="linear-gradient-63" x1="340.41" y1="146.33" x2="383.29" y2="53.63" xlink:href="#linear-gradient"/><linearGradient id="linear-gradient-64" x1="322.34" y1="229.11" x2="363.99" y2="229.11" xlink:href="#linear-gradient-29"/><linearGradient id="linear-gradient-65" x1="338.65" y1="87" x2="338.65" y2="264.54" gradientUnits="userSpaceOnUse"><stop offset="0" stop-color="#fff"/><stop offset="0.15" stop-color="#fdfafc"/><stop offset="0.31" stop-color="#f7edf3"/><stop offset="0.48" stop-color="#ecd6e5"/><stop offset="0.67" stop-color="#ddb6d1"/><stop offset="0.85" stop-color="#cb8eb7"/><stop offset="1" stop-color="#b9679e"/></linearGradient><linearGradient id="linear-gradient-66" x1="324.21" y1="119.48" x2="431.91" y2="228.53" xlink:href="#linear-gradient"/><linearGradient id="linear-gradient-67" x1="316.04" y1="102.86" x2="420.94" y2="207.49" xlink:href="#linear-gradient"/><linearGradient id="linear-gradient-68" x1="320.48" y1="98.42" x2="425.37" y2="203.05" xlink:href="#linear-gradient"/><linearGradient id="linear-gradient-69" x1="322.27" y1="96.62" x2="427.16" y2="201.25" xlink:href="#linear-gradient"/><linearGradient id="linear-gradient-70" x1="324.03" y1="94.86" x2="428.92" y2="199.49" xlink:href="#linear-gradient"/><linearGradient id="linear-gradient-71" x1="353.24" y1="-1.84" x2="353.24" y2="157.35" gradientUnits="userSpaceOnUse"><stop offset="0.01" stop-color="#170f36"/><stop offset="0.13" stop-color="#1b143d"/><stop offset="0.31" stop-color="#272252"/><stop offset="0.38" stop-color="#2c285b"/><stop offset="0.66" stop-color="#7e38b3"/><stop offset="0.67" stop-color="#803ab1"/><stop offset="0.76" stop-color="#a75c95"/><stop offset="0.85" stop-color="#c47480"/><stop offset="0.93" stop-color="#d58373"/><stop offset="0.98" stop-color="#db886f"/></linearGradient><linearGradient id="linear-gradient-72" x1="149.61" y1="197.3" x2="298.36" y2="197.3" xlink:href="#linear-gradient-29"/><linearGradient id="linear-gradient-73" x1="262.26" y1="144.68" x2="139.22" y2="329.45" gradientUnits="userSpaceOnUse"><stop offset="0" stop-color="#fff"/><stop offset="0.14" stop-color="#fdfafc"/><stop offset="0.3" stop-color="#f6ebf2"/><stop offset="0.49" stop-color="#ead2e2"/><stop offset="0.69" stop-color="#daafcc"/><stop offset="0.89" stop-color="#c682af"/><stop offset="1" stop-color="#b9679e"/></linearGradient><linearGradient id="linear-gradient-74" x1="176.34" y1="195.91" x2="467.44" y2="-51.38" xlink:href="#linear-gradient"/><linearGradient id="linear-gradient-75" x1="234.79" y1="279.41" x2="346.63" y2="417.02" xlink:href="#linear-gradient-4"/><linearGradient id="linear-gradient-76" x1="239.83" y1="255.34" x2="239.83" y2="383.56" xlink:href="#linear-gradient"/><linearGradient id="linear-gradient-77" x1="201.09" y1="313.16" x2="201.09" y2="317.39" gradientTransform="translate(20.81 -12.35) rotate(3.71)" xlink:href="#linear-gradient-4"/><linearGradient id="linear-gradient-78" x1="278.58" y1="311.08" x2="278.58" y2="315.32" gradientTransform="translate(20.84 -17.36) rotate(3.71)" xlink:href="#linear-gradient-4"/><linearGradient id="linear-gradient-79" x1="237.44" y1="255.34" x2="237.44" y2="383.56" gradientTransform="translate(18.4 -14.72) rotate(3.69)" xlink:href="#linear-gradient"/><linearGradient id="linear-gradient-80" x1="201.83" y1="165.64" x2="201.83" y2="197.14" xlink:href="#linear-gradient-29"/><linearGradient id="linear-gradient-81" x1="270.1" y1="165.64" x2="270.1" y2="197.14" xlink:href="#linear-gradient-29"/><linearGradient id="linear-gradient-82" x1="237.44" y1="274.59" x2="237.44" y2="281" gradientTransform="translate(43.71 -32.07) rotate(8.51)" xlink:href="#linear-gradient-4"/><linearGradient id="linear-gradient-83" x1="212.08" y1="218.62" x2="276.63" y2="218.62" xlink:href="#linear-gradient"/><linearGradient id="linear-gradient-88" x1="171.29" y1="229.31" x2="204.09" y2="229.31" xlink:href="#linear-gradient-29"/><linearGradient id="linear-gradient-89" x1="207.07" y1="125.35" x2="151.84" y2="386.03" xlink:href="#linear-gradient"/><linearGradient id="linear-gradient-90" x1="270.8" y1="120.11" x2="184.82" y2="240.88" xlink:href="#linear-gradient-7"/><linearGradient id="linear-gradient-91" x1="249.29" y1="35.31" x2="143.36" y2="176.04" xlink:href="#linear-gradient-7"/><linearGradient id="linear-gradient-92" x1="112.14" y1="176.98" x2="140.6" y2="176.98" xlink:href="#linear-gradient-3"/><linearGradient id="linear-gradient-93" x1="437.63" y1="347.83" x2="437.63" y2="373.7" gradientTransform="matrix(0.96, 0.3, -0.3, 0.96, 86.23, -191.52)" xlink:href="#linear-gradient-3"/><linearGradient id="linear-gradient-94" x1="75.79" y1="354.51" x2="92.07" y2="354.51" xlink:href="#linear-gradient-3"/></defs><g class="cls-1"><g id="OBJECTS"><path class="cls-2" d="M427.87,339.76l-5.07-.95s-15.48-.16-19.86,2.94c-7.5,5.31,1.2,21.28-12.86,29.78,0,0,13.76,1,17.61.18S425.69,370.2,427.87,339.76Z" transform="translate(-1.47 -109.19)"/><path class="cls-3" d="M422.8,338.81s5.65-15.55,9.92-87.83c1.32-22.31,17.41-31.48,20-26.8,4.93,9-4.22,60.09-24.82,115.58Z" transform="translate(-1.47 -109.19)"/><path class="cls-4" d="M417.1,359.6c1-4.43-3-5.53-7.62-1.61s-8.55,4.1-7.64,0-2.7-4.7-2.7-4.7h0c-.44,6.29-1.14,13.44-9.06,18.23,0,0,13.76,1,17.61.18,2.06-.42,7.08-.83,11.64-5.8A5.67,5.67,0,0,1,417.1,359.6Z" transform="translate(-1.47 -109.19)"/><path class="cls-5" d="M452.69,224.18c-.92-1.69-3.6-1.57-6.71.31,3.73,10-3.71,52.8-20.45,101.51-1.61,9.73-2.73,12.81-2.73,12.81l5.07.95C448.47,284.27,457.62,233.18,452.69,224.18Z" transform="translate(-1.47 -109.19)"/><polygon class="cls-6" points="443.9 280.23 305.94 300.52 15.06 300.52 133.29 281.81 443.9 280.23"/><path class="cls-7" d="M100.27,359.83,84,231.3a13.12,13.12,0,0,1,2.76-9.84h0A13.13,13.13,0,0,1,97,216.52l5.39,0,18.3,154.69-9.56-.06h0A13.15,13.15,0,0,1,100.27,359.83Z" transform="translate(-1.47 -109.19)"/><path class="cls-8" d="M363.84,371.13l-14.49-148.6a8.13,8.13,0,0,0-8.13-7.33l-241.3,1.31a8.12,8.12,0,0,0-8,9.18l18.27,138.39a8.11,8.11,0,0,0,8,7.05" transform="translate(-1.47 -109.19)"/><circle class="cls-9" cx="225.96" cy="112.54" r="4.07"/><path class="cls-10" d="M357.71,371.13,345.21,243a18.72,18.72,0,0,0-18.91-16.91L99.62,229.39l19,144Z" transform="translate(-1.47 -109.19)"/><polygon class="cls-11" points="100.16 135.18 338.97 130.81 337.88 121.05 98.51 122.71 100.16 135.18"/><circle class="cls-12" cx="112.58" cy="128.24" r="2.79"/><circle class="cls-12" cx="121.14" cy="128.11" r="2.79"/><circle class="cls-12" cx="129.69" cy="127.99" r="2.79"/><path class="cls-13" d="M339.83,234.51,355,371.19l2.72-.06L344.24,233a7.83,7.83,0,0,0-7.91-7.07L99.66,229.39l.34,2.51,235.06-1.63A4.76,4.76,0,0,1,339.83,234.51Z" transform="translate(-1.47 -109.19)"/><polygon class="cls-14" points="118.09 264.22 118.09 264.23 154.76 263.87 118.09 264.22"/><path class="cls-15" d="M111.11,371.13H444.75l-3.46,7.32a21,21,0,0,1-18.93,12H122.8a10.59,10.59,0,0,1-10.52-9.35Z" transform="translate(-1.47 -109.19)"/><path class="cls-16" d="M212.49,371.13l4.57,10.45a14.76,14.76,0,0,0,13.51,8.85H426.28A14.76,14.76,0,0,0,439.61,382l5.14-10.86Z" transform="translate(-1.47 -109.19)"/><polygon class="cls-17" points="280.41 261.94 283.81 270.25 370.21 270.25 373.89 261.94 280.41 261.94"/><polygon class="cls-18" points="359.99 261.94 358.24 270.25 370.21 270.25 373.89 261.94 359.99 261.94"/><polygon class="cls-19" points="189.28 299.14 93.31 313.26 0 313.26 82.25 300.24 189.28 299.14"/><path class="cls-20" d="M86.7,397.23l-.09,12.25,103-1.15-.92-13.59-5.07.12c-1.72-6.63-11.19-36.17-43.73-36.4-35.14-.25-47.47,35.69-48.43,38.66ZM162.77,388l-48.43,1s4-18.4,23.46-18.06C156.41,371.32,162.77,388,162.77,388Z" transform="translate(-1.47 -109.19)"/><path class="cls-21" d="M82.62,397.18l-.08,12.35,103-1.15-.92-13.7-5.08.13c-1.72-6.64-11.18-36.18-43.72-36.41-35.14-.25-47.48,35.7-48.44,38.66ZM158.69,388l-48.43,1s4.06-18.41,23.46-18.07C152.34,371.26,158.69,388,158.69,388Z" transform="translate(-1.47 -109.19)"/><polygon class="cls-22" points="178.02 285.62 85.86 287.87 177.21 282.83 178.02 285.62"/><polygon class="cls-23" points="147.71 292.56 148.4 292.57 148.35 299.58 147.66 299.59 147.71 292.56"/><polygon class="cls-24" points="85.86 292.12 86.55 292.13 86.49 300.27 85.8 300.28 85.86 292.12"/><polygon class="cls-25" points="157.97 299.48 158.02 292.64 158.71 292.64 158.66 299.47 157.97 299.48"/><polygon class="cls-26" points="178.59 299.24 178.64 292.78 179.33 292.79 179.28 299.24 178.59 299.24"/><polygon class="cls-27" points="168.28 299.36 168.33 292.71 169.02 292.71 168.97 299.35 168.28 299.36"/><polygon class="cls-28" points="137.4 292.49 138.09 292.49 138.04 299.7 137.35 299.7 137.4 292.49"/><polygon class="cls-29" points="106.48 292.27 107.17 292.27 107.11 300.04 106.42 300.05 106.48 292.27"/><polygon class="cls-30" points="96.11 300.17 96.17 292.2 96.86 292.2 96.8 300.16 96.11 300.17"/><polygon class="cls-31" points="127.09 292.42 127.78 292.42 127.73 299.81 127.04 299.82 127.09 292.42"/><polygon class="cls-32" points="116.79 292.34 117.47 292.35 117.42 299.93 116.73 299.94 116.79 292.34"/><polygon class="cls-33" points="106.34 236.97 139.54 236.17 131.52 168.84 133.58 168.84 132.53 160.55 96.27 160.66 106.34 236.97"/><polygon class="cls-34" points="146.76 227.89 137.27 148.26 80.06 148.44 89.71 229.19 146.76 227.89"/><polygon class="cls-35" points="138.38 156.99 137.27 148.26 80.06 148.44 81.19 157.39 138.38 156.99"/><circle class="cls-12" cx="88.28" cy="152.82" r="1.83"/><polygon class="cls-36" points="88.28 162.95 132.97 162.45 136.94 189.98 91.6 192.46 88.28 162.95"/><rect class="cls-37" x="91.12" y="272.03" width="0.94" height="29.74" transform="translate(-36.18 -95.69) rotate(-7.09)"/><rect class="cls-38" x="101.27" y="271.52" width="0.94" height="29.75" transform="translate(-37.19 -93.87) rotate(-7.33)"/><rect class="cls-39" x="110.72" y="271.77" width="0.94" height="29.08" transform="matrix(0.99, -0.16, 0.16, 0.99, -45.13, -88.13)"/><rect class="cls-40" x="119.45" y="271.64" width="0.94" height="28.81" transform="translate(-49.96 -83.61) rotate(-10.14)"/><rect class="cls-41" x="127.99" y="271.45" width="0.94" height="28.55" transform="translate(-46.32 -84.43) rotate(-9.38)"/><rect class="cls-42" x="135.89" y="271.49" width="0.94" height="28.09" transform="translate(-41.68 -86.23) rotate(-8.39)"/><path class="cls-8" d="M95.5,298.62l-1-.29c0-.13,4.29-13.54,20.24-13.18,6.45.17,11.32-1.63,14.12-5.17a10.79,10.79,0,0,0,2.3-5.37l1,.07c0,.12-1,11.48-16.64,11.48h-.8C99.61,285.78,95.54,298.5,95.5,298.62Z" transform="translate(-1.47 -109.19)"/><circle class="cls-12" cx="113.22" cy="176.5" r="1.2"/><circle class="cls-12" cx="93.55" cy="189.29" r="1.2"/><circle class="cls-12" cx="130.17" cy="165.46" r="1.2"/><path class="cls-43" d="M95,312.19a1.07,1.07,0,0,1-.06-2.13l44-2.64a1.08,1.08,0,0,1,1.13,1,1.06,1.06,0,0,1-1,1.13l-44,2.63Z" transform="translate(-1.47 -109.19)"/><path class="cls-44" d="M95.6,319a1.07,1.07,0,0,1-.07-2.14l44-2.63a1.07,1.07,0,0,1,.12,2.14l-44,2.63Z" transform="translate(-1.47 -109.19)"/><path class="cls-45" d="M96.58,325.85a1.07,1.07,0,0,1-.06-2.14l44-2.63a1.07,1.07,0,1,1,.13,2.14l-44,2.63Z" transform="translate(-1.47 -109.19)"/><circle class="cls-12" cx="123.28" cy="200.16" r="1.62"/><circle class="cls-12" cx="130.88" cy="206.68" r="1.62"/><circle class="cls-12" cx="114.84" cy="214.45" r="1.62"/><polygon class="cls-46" points="356.17 199.17 301.57 199.34 309.14 259.23 361.84 257.27 356.17 199.17"/><polygon class="cls-47" points="391.21 249.78 383.68 190.16 310.52 190.4 318.09 250.28 391.21 249.78"/><polygon class="cls-48" points="384.83 199.24 383.68 190.16 310.52 190.4 311.87 201.12 384.83 199.24"/><circle class="cls-12" cx="319.73" cy="195.13" r="2.45"/><polygon class="cls-49" points="340.32 223.53 338.5 210.97 324.16 211.04 326.03 223.99 340.32 223.53"/><polygon class="cls-50" points="334.78 218.88 332.97 206.32 318.62 206.39 320.49 219.34 334.78 218.88"/><path class="cls-51" d="M346.42,321a1.47,1.47,0,1,1,0-2.93l31.54-.31h0a1.47,1.47,0,0,1,0,2.94l-31.54.3Z" transform="translate(-1.47 -109.19)"/><path class="cls-52" d="M347,326.37a1.47,1.47,0,0,1,0-2.94l31.54-.3h0a1.47,1.47,0,0,1,0,2.93l-31.54.31Z" transform="translate(-1.47 -109.19)"/><path class="cls-53" d="M347.65,331.72a1.47,1.47,0,0,1,0-2.94l31.55-.3h0a1.47,1.47,0,1,1,0,2.93l-31.54.31Z" transform="translate(-1.47 -109.19)"/><polygon class="cls-54" points="349.55 211.63 351.11 209.79 353.29 211.35 353.43 212.68 349.55 212.83 349.55 211.63"/><polygon class="cls-55" points="354.64 217.37 356.19 215.53 358.37 217.09 358.52 218.42 354.64 218.56 354.64 217.37"/><polygon class="cls-56" points="362.24 222.79 363.79 220.96 365.97 222.51 366.12 223.84 362.24 223.99 362.24 222.79"/><polygon class="cls-36" points="322.18 231.96 381.9 231.39 383.11 242.1 323.67 242.88 322.18 231.96"/><path class="cls-57" d="M349.35,222.53a8.13,8.13,0,0,0-8.13-7.33l-34.18.19,2,28.53h-.12l1.4,18.7,1.41,20.44,27.88-1.16,2.5,3.47L344,283.9l2.17,1.59,1.19-1.81.06,0,.13-.21,2.23.67.61-2.09h.15l.18-.64,2.56-.11-.17-4.35,1.43-1.09Z" transform="translate(-1.47 -109.19)"/><polygon class="cls-58" points="423.72 113.8 397.15 77.36 324.96 132.17 351.34 168.75 423.72 113.8"/><polygon class="cls-8" points="401.45 130.71 375.07 94.13 388.79 83.71 415.17 120.29 401.45 130.71"/><polygon class="cls-8" points="383.18 144.58 356.8 108 370.52 97.58 396.89 134.16 383.18 144.58"/><polygon class="cls-8" points="364.9 158.45 338.53 121.87 352.25 111.45 378.62 148.03 364.9 158.45"/><polygon class="cls-59" points="390.94 82.08 328.71 129.32 325.66 133.13 346.03 161.39 352.93 167.54 359.5 162.55 411.71 97.32 411.42 96.92 390.94 82.08"/><polygon class="cls-60" points="405.88 91.89 367.28 69.25 319.34 142.41 355.44 168.87 405.88 91.89"/><polygon class="cls-61" points="390.44 115.58 353.63 90.19 363.16 75.66 399.96 101.05 390.44 115.58"/><polygon class="cls-62" points="377.76 134.93 340.95 109.54 350.47 95.01 387.28 120.4 377.76 134.93"/><polygon class="cls-63" points="365.07 154.28 328.27 128.89 337.79 114.36 374.6 139.75 365.07 154.28"/><path class="cls-64" d="M358.16,276.27l4.45-6.79,28.64-78.18-4.71-2.76-20.28-6.19-42.7,65.17a17.66,17.66,0,0,0-.16,5.61l28,20.55Z" transform="translate(-1.47 -109.19)"/><path class="cls-65" d="M386.27,187.82l-43.41-9.88-20,69.18a17.45,17.45,0,0,0,11.41,21.61l26.28,8Z" transform="translate(-1.47 -109.19)"/><polygon class="cls-66" points="377.02 106.02 334.5 93.06 339.37 76.28 381.88 89.23 377.02 106.02"/><polygon class="cls-67" points="370.55 128.37 328.03 115.42 332.89 98.63 375.41 111.59 370.55 128.37"/><polygon class="cls-68" points="364.08 150.73 321.56 137.77 326.42 120.99 368.94 133.94 364.08 150.73"/><path class="cls-69" d="M363.23,267.93l.76-84.37-22.8.14-18.14,63.2a17.46,17.46,0,0,0,11.42,21.61l18.7,5.7,8.11.44Z" transform="translate(-1.47 -109.19)"/><polygon class="cls-70" points="358.97 74.89 314.78 77.36 320.9 166.44 362.51 164.71 358.97 74.89"/><polygon class="cls-71" points="361.01 125.52 318.14 127.3 319.55 146 361.78 145.03 361.01 125.52"/><polygon class="cls-72" points="339.23 112.51 321.63 113.24 321.99 122.27 339.59 121.54 339.23 112.51"/><polygon class="cls-73" points="333.74 104.12 321.29 104.63 321.38 106.85 333.83 106.33 333.74 104.12"/><polygon class="cls-74" points="331.55 99.38 321.1 99.81 321.19 102.03 331.63 101.59 331.55 99.38"/><polygon class="cls-75" points="329.2 94.65 320.91 94.99 321 97.21 329.29 96.86 329.2 94.65"/><ellipse class="cls-76" cx="353.24" cy="155.86" rx="3.25" ry="3.33"/><polygon class="cls-77" points="298.36 238.67 290.16 154.61 149.6 156.68 160.6 240 298.36 238.67"/><polygon class="cls-78" points="307.3 229.73 299.11 145.66 158.55 147.74 169.55 231.05 307.3 229.73"/><polygon class="cls-79" points="159.32 157.51 300.28 154.91 299.31 145.13 157.99 147.21 159.32 157.51"/><circle class="cls-12" cx="167.43" cy="151.81" r="2.4"/><path class="cls-80" d="M238.64,283.92l8.53,11.58.68-.5s-6.53-8.79-8.24-11.61c-1.52-2.5.66-2.62,1.83-1.63s-.17,1.81-.17,1.81,2.45,2.77,11.25,6.45a15.89,15.89,0,0,0,0,8.16l-3.4,2.41s-4.91-2.16-8-2.14a44.58,44.58,0,0,0-2.69-12.95s-1.29,1.66-2-.31S237.52,282.49,238.64,283.92Z" transform="translate(-1.47 -109.19)"/><polygon class="cls-8" points="245.26 192.52 252.31 186.31 255.4 189.88 247.47 195.42 245.26 192.52"/><path class="cls-81" d="M201.58,315.38l-1-.21c.08-.36,8.24-36,36.8-37.88s41.53,35.37,41.66,35.75l-.95.32c-.13-.37-12.82-36.89-40.64-35.07S201.66,315,201.58,315.38Z" transform="translate(-1.47 -109.19)"/><rect class="cls-82" x="199.35" y="313.53" width="3.48" height="3.48" transform="translate(-21.44 -95.53) rotate(-3.71)"/><rect class="cls-83" x="276.84" y="311.46" width="3.48" height="3.48" transform="translate(-21.14 -90.52) rotate(-3.71)"/><rect class="cls-84" x="203.23" y="277.29" width="68.42" height="1" transform="matrix(1, -0.06, 0.06, 1, -18.88, -93.31)"/><circle class="cls-85" cx="201.83" cy="170.81" r="1.53"/><circle class="cls-86" cx="270.1" cy="166.39" r="1.53"/><rect class="cls-87" x="234.87" y="275.22" width="5.14" height="5.14" transform="translate(-39.95 -71.01) rotate(-8.51)"/><polygon class="cls-88" points="212.31 215.16 221.88 215.16 222.12 222.09 212.55 222.09 212.31 215.16"/><polygon class="cls-88" points="225.35 215.16 234.93 215.16 235.17 222.09 225.59 222.09 225.35 215.16"/><polygon class="cls-88" points="238.4 215.16 247.98 215.16 248.22 222.09 238.64 222.09 238.4 215.16"/><polygon class="cls-88" points="251.45 215.16 261.02 215.16 261.27 222.09 251.69 222.09 251.45 215.16"/><polygon class="cls-88" points="264.78 215.16 274.35 215.16 274.59 222.09 265.02 222.09 264.78 215.16"/><path class="cls-89" d="M174.65,234.79l2.49-.24c.71,2.84,1.47,5.78,1.47,5.78a19.05,19.05,0,0,0,21-1.77l.93-6.27,2.8-.28.76-13.34-4,.39a25.55,25.55,0,0,1,1-3.12l-27.91.15a31,31,0,0,1,2.52,5.33l-4.45.43Z" transform="translate(-1.47 -109.19)"/><path class="cls-90" d="M189.38,215.17l24.06-2.33s-6-7.92,10.05-27.24c14.6-17.62.24-55.75-27.44-52.5-23.4,2.74-30.77,24.89-28.62,38.51S192.56,199.75,189.38,215.17Z" transform="translate(-1.47 -109.19)"/><path class="cls-12" d="M222.63,160.19s-4-18.43-16.6-22l-6.48,5.44s12.91,4,19.35,19.2Z" transform="translate(-1.47 -109.19)"/><path class="cls-12" d="M219.87,165.6l4-1.89a17.45,17.45,0,0,1,.81,8.31l-3.78-.07Z" transform="translate(-1.47 -109.19)"/><rect class="cls-12" x="189.23" y="193.08" width="40.59" height="1.08" transform="translate(-20.34 255.38) rotate(-79.55)"/><rect class="cls-12" x="191.04" y="177.37" width="1.08" height="37.93" transform="translate(-52.12 -41.59) rotate(-17.71)"/><path class="cls-12" d="M188.31,189a7.35,7.35,0,0,1-4.72-1,5.05,5.05,0,0,1-2.46-3.61,4,4,0,0,1,2.52-4,4.81,4.81,0,0,1,5.3.63l-.77.75a3.76,3.76,0,0,0-4.09-.4,2.94,2.94,0,0,0-1.88,2.93,4,4,0,0,0,1.95,2.78c1.28.8,3.58,1.44,7.32,0a5.92,5.92,0,0,0,2.35-1.66,9.7,9.7,0,0,1-4.18-5.6c-1.4-4.17-1.12-9.71,1.54-11.3a2.16,2.16,0,0,1,2.34.06c2.28,1.44,3.88,6.82,3.43,11.5a11.73,11.73,0,0,1-1.48,4.89,5.56,5.56,0,0,0,2.11.15,8.07,8.07,0,0,0,4.89-2.93,23.84,23.84,0,0,1-.7-11c.71-4.17,2.37-6.54,4.45-6.33.94.1,2.51.77,2.53,4.24a23.8,23.8,0,0,1-5,13.25c.71,1.7,1.71,2.91,3,3.21,4.27,1,8.84-2.55,10.23-5.55.39-.84.86-2.37-.33-3.25a3,3,0,0,0-2.41-.61c-2.34.4-4.29,3.23-4.31,3.26l-.89-.61c.09-.13,2.23-3.23,5-3.71a4.08,4.08,0,0,1,3.23.81c1.32,1,1.56,2.63.67,4.56-1.55,3.34-6.66,7.29-11.46,6.15a5.51,5.51,0,0,1-3.53-3.36,8.74,8.74,0,0,1-5.22,2.89,6.19,6.19,0,0,1-2.86-.31,7.05,7.05,0,0,1-3,2.2A13.45,13.45,0,0,1,188.31,189Zm3.9-19.7a1.06,1.06,0,0,0-.46.16c-1.94,1.16-2.46,5.95-1.08,10,.45,1.34,1.57,3.93,3.79,5.09a10.79,10.79,0,0,0,1.43-4.58c.44-4.58-1.22-9.4-2.94-10.49A1.2,1.2,0,0,0,192.21,169.3Zm13.64-3.3c-1.32.13-2.45,2.16-3,5.44a22.89,22.89,0,0,0,.46,9.78,22.13,22.13,0,0,0,4.38-12.05c0-1.12-.21-3-1.55-3.17Z" transform="translate(-1.47 -109.19)"/><path class="cls-91" d="M188.7,214.14c.05.43,2.75,11,2.75,11a19.07,19.07,0,0,0,21-1.77L214.71,208Z" transform="translate(-1.47 -109.19)"/><polygon class="cls-92" points="182.66 97.46 215.47 94.28 214.7 107.62 186.03 110.4 182.66 97.46"/><rect class="cls-12" x="181.35" y="111.17" width="1.08" height="18.08" transform="translate(-35.68 -17.91) rotate(-25.84)"/><rect class="cls-12" x="157.41" y="134.07" width="1.07" height="20.12" transform="translate(-12.11 166.44) rotate(-80.34)"/><rect class="cls-12" x="153.41" y="178.22" width="11.35" height="1.08" transform="translate(-61.72 -26.12) rotate(-24.76)"/><rect class="cls-12" x="210.84" y="118.74" width="22.69" height="1.08" transform="translate(6.05 142.42) rotate(-59.88)"/><rect class="cls-12" x="234.52" y="150.74" width="15.2" height="1.08" transform="translate(-18.83 -76.99) rotate(-7.35)"/><rect class="cls-12" x="242.94" y="172.74" width="1.08" height="10.89" transform="translate(27.32 280.97) rotate(-80.83)"/><path class="cls-93" d="M133.47,171l7.13,1.28-4.93,5.31a13,13,0,0,0-3.27,6.54l-1.28,7.13-5.31-4.93a13,13,0,0,0-6.54-3.26l-7.13-1.29,4.93-5.31a13,13,0,0,0,3.26-6.54l1.29-7.13,5.31,4.93A13,13,0,0,0,133.47,171Z" transform="translate(-1.47 -109.19)"/><path class="cls-94" d="M403.72,279.56l2.91,3-4.09.83a7.42,7.42,0,0,0-3.73,2l-3,2.91-.83-4.09a7.42,7.42,0,0,0-2-3.73l-2.91-3,4.09-.84a7.42,7.42,0,0,0,3.73-2l3-2.91.83,4.09A7.42,7.42,0,0,0,403.72,279.56Z" transform="translate(-1.47 -109.19)"/><path class="cls-95" d="M87.93,350.91l4.14.62-2.76,3.15a7.52,7.52,0,0,0-1.77,3.83l-.63,4.14-3.15-2.75a7.45,7.45,0,0,0-3.83-1.78l-4.14-.62,2.76-3.16a7.53,7.53,0,0,0,1.78-3.83l.62-4.14,3.15,2.76A7.53,7.53,0,0,0,87.93,350.91Z" transform="translate(-1.47 -109.19)"/></g></g></svg>