<svg xmlns="http://www.w3.org/2000/svg" xmlns:xlink="http://www.w3.org/1999/xlink" viewBox="0 0 440.98 361.87"><defs><style>.cls-1{fill:#e8e1c8;}.cls-2{fill:url(#linear-gradient);}.cls-3{fill:url(#linear-gradient-2);}.cls-10,.cls-18,.cls-31,.cls-4{fill:#282740;}.cls-4{opacity:0.4;}.cls-5{fill:url(#linear-gradient-3);}.cls-6{fill:#f9a364;}.cls-7{fill:#be4c00;}.cls-8{fill:#fff;}.cls-9{fill:#ffd2ac;}.cls-10{opacity:0.1;}.cls-11{fill:#f4f0e1;}.cls-12{fill:#b7e5e5;}.cls-13{fill:#ed6332;}.cls-14{fill:url(#linear-gradient-4);}.cls-15{fill:url(#linear-gradient-5);}.cls-16{fill:#53538c;}.cls-17{fill:url(#linear-gradient-6);}.cls-18{opacity:0.2;}.cls-19{fill:url(#linear-gradient-7);}.cls-20{fill:url(#linear-gradient-8);}.cls-21{fill:url(#linear-gradient-9);}.cls-22{fill:url(#linear-gradient-10);}.cls-23{fill:url(#linear-gradient-11);}.cls-24{fill:url(#linear-gradient-12);}.cls-25{fill:url(#linear-gradient-13);}.cls-26{fill:url(#linear-gradient-14);}.cls-27{fill:url(#linear-gradient-15);}.cls-28{fill:url(#linear-gradient-16);}.cls-29{fill:#db3e0e;}.cls-30{fill:url(#linear-gradient-17);}.cls-32{fill:url(#linear-gradient-18);}.cls-33{fill:url(#linear-gradient-19);}.cls-34{fill:url(#linear-gradient-20);}.cls-35{fill:url(#linear-gradient-21);}.cls-36{fill:#d8b560;}</style><linearGradient id="linear-gradient" x1="160.4" y1="348.7" x2="263.6" y2="348.7" gradientUnits="userSpaceOnUse"><stop offset="0" stop-color="#dc4000"/><stop offset="1" stop-color="#1d0b00"/></linearGradient><linearGradient id="linear-gradient-2" x1="198.04" y1="400.06" x2="284.97" y2="400.06" xlink:href="#linear-gradient"/><linearGradient id="linear-gradient-3" x1="56" y1="220.37" x2="367.99" y2="220.37" xlink:href="#linear-gradient"/><linearGradient id="linear-gradient-4" x1="59.23" y1="376.98" x2="154.64" y2="376.98" xlink:href="#linear-gradient"/><linearGradient id="linear-gradient-5" x1="281.85" y1="305.98" x2="405.96" y2="305.98" xlink:href="#linear-gradient"/><linearGradient id="linear-gradient-6" x1="339.2" y1="303.7" x2="352.19" y2="303.7" xlink:href="#linear-gradient"/><linearGradient id="linear-gradient-7" x1="226.97" y1="193.17" x2="340.97" y2="193.17" xlink:href="#linear-gradient"/><linearGradient id="linear-gradient-8" x1="255.25" y1="167.01" x2="278.91" y2="167.01" xlink:href="#linear-gradient"/><linearGradient id="linear-gradient-9" x1="156.64" y1="243.75" x2="240.22" y2="243.75" xlink:href="#linear-gradient"/><linearGradient id="linear-gradient-10" x1="133.1" y1="187.04" x2="149.09" y2="187.04" xlink:href="#linear-gradient"/><linearGradient id="linear-gradient-11" x1="133.1" y1="201.04" x2="141.56" y2="201.04" xlink:href="#linear-gradient"/><linearGradient id="linear-gradient-12" x1="133.1" y1="208.04" x2="149.09" y2="208.04" xlink:href="#linear-gradient"/><linearGradient id="linear-gradient-13" x1="133.1" y1="215.04" x2="145.54" y2="215.04" xlink:href="#linear-gradient"/><linearGradient id="linear-gradient-14" x1="133.1" y1="194.04" x2="145.54" y2="194.04" xlink:href="#linear-gradient"/><linearGradient id="linear-gradient-15" x1="133.1" y1="222.04" x2="141.56" y2="222.04" xlink:href="#linear-gradient"/><linearGradient id="linear-gradient-16" x1="297.5" y1="212.62" x2="371.08" y2="212.62" xlink:href="#linear-gradient"/><linearGradient id="linear-gradient-17" x1="135.23" y1="136.47" x2="183.34" y2="136.47" xlink:href="#linear-gradient"/><linearGradient id="linear-gradient-18" x1="45.99" y1="174.48" x2="54.68" y2="174.48" xlink:href="#linear-gradient"/><linearGradient id="linear-gradient-19" x1="31.17" y1="175.34" x2="39.86" y2="175.34" xlink:href="#linear-gradient"/><linearGradient id="linear-gradient-20" x1="291.93" y1="65.41" x2="302.53" y2="65.41" xlink:href="#linear-gradient"/><linearGradient id="linear-gradient-21" x1="391.9" y1="202.67" x2="399.72" y2="202.67" xlink:href="#linear-gradient"/></defs><g id="OBJECTS"><path class="cls-1" d="M470.49,422.14a8.79,8.79,0,0,1-8.79,8.79H38.3a8.79,8.79,0,0,1-8.79-8.79h0a8.8,8.8,0,0,1,8.79-8.79H461.7a8.8,8.8,0,0,1,8.79,8.79Z" transform="translate(-29.51 -69.07)"/><rect class="cls-2" x="160.4" y="345.53" width="103.2" height="6.34" rx="1.15"/><path class="cls-3" d="M259.88,384.68H223.14c0,16.69-25.1,30.76-25.1,30.76H285S259.88,401.37,259.88,384.68Z" transform="translate(-29.51 -69.07)"/><path class="cls-4" d="M259.88,384.68H233a79,79,0,0,0,30,30.76h22S259.88,401.37,259.88,384.68Z" transform="translate(-29.51 -69.07)"/><rect class="cls-5" x="56" y="125.13" width="311.98" height="190.49" rx="2"/><rect class="cls-6" x="67.8" y="135.63" width="288.39" height="169.49" rx="2"/><path class="cls-7" d="M385.71,218.44V206.69a2,2,0,0,0-2-2H99.31a2,2,0,0,0-2,2v11.75Z" transform="translate(-29.51 -69.07)"/><circle class="cls-8" cx="88.61" cy="142.5" r="2.88"/><circle class="cls-8" cx="76.61" cy="142.5" r="2.88"/><circle class="cls-8" cx="100.61" cy="142.5" r="2.88"/><rect class="cls-9" x="89.57" y="160.03" width="244.86" height="49.35"/><rect class="cls-9" x="89.57" y="217.37" width="103.16" height="32.88"/><rect class="cls-9" x="89.57" y="257.53" width="103.16" height="4.85"/><rect class="cls-9" x="89.57" y="267.53" width="103.16" height="4.85"/><rect class="cls-9" x="89.57" y="277.53" width="103.16" height="4.85"/><rect class="cls-9" x="89.57" y="287.53" width="103.16" height="4.85"/><rect class="cls-9" x="202" y="217.37" width="51" height="55.01"/><rect class="cls-9" x="201.42" y="277.53" width="51.5" height="4.85"/><rect class="cls-9" x="201.42" y="287.53" width="51.5" height="4.85"/><rect class="cls-9" x="263.6" y="217.37" width="70.83" height="32.88"/><rect class="cls-9" x="263.6" y="257.53" width="69.59" height="4.85"/><rect class="cls-9" x="263.6" y="267.53" width="69.59" height="4.85"/><rect class="cls-9" x="263.6" y="277.53" width="69.59" height="4.85"/><rect class="cls-9" x="263.6" y="287.53" width="69.59" height="4.85"/><path class="cls-10" d="M398.33,381.32V194.83a2,2,0,0,0-2-2H369.27C361,341.31,210.67,383.32,210.67,383.32H396.33A2,2,0,0,0,398.33,381.32Z" transform="translate(-29.51 -69.07)"/><path class="cls-7" d="M111.58,323a2.9,2.9,0,0,0-2.6,1.9l-3.81,12.15a2.88,2.88,0,0,1-2.59,1.91H60.91a1.62,1.62,0,0,0-1.65,2l12.29,68a2.5,2.5,0,0,0,2.36,2h66a2.39,2.39,0,0,0,2.29-2l12.42-84a1.68,1.68,0,0,0-1.71-2Z" transform="translate(-29.51 -69.07)"/><polygon class="cls-8" points="110.92 319.7 43.92 319.7 43.92 224.71 98.06 224.71 110.92 237.71 110.92 319.7"/><polygon class="cls-11" points="98.06 224.71 110.92 237.71 98.06 237.71 98.06 224.71"/><rect class="cls-6" x="50.09" y="249.87" width="54.67" height="1.57"/><rect class="cls-6" x="50.09" y="256.16" width="54.67" height="1.57"/><rect class="cls-6" x="50.09" y="262.45" width="54.67" height="1.57"/><rect class="cls-6" x="50.09" y="268.73" width="54.67" height="1.57"/><rect class="cls-6" x="50.09" y="275.02" width="54.67" height="1.57"/><rect class="cls-12" x="50.09" y="281.31" width="54.67" height="1.57"/><path class="cls-13" d="M88.84,308.28A5.25,5.25,0,0,1,94.42,303a5.36,5.36,0,0,1,4.36,1.92L97,306.57a3,3,0,0,0-2.39-1.19,2.9,2.9,0,0,0,0,5.8A3,3,0,0,0,97,310l1.82,1.65a5.36,5.36,0,0,1-4.36,1.91A5.24,5.24,0,0,1,88.84,308.28Z" transform="translate(-29.51 -69.07)"/><path class="cls-13" d="M110.76,313.35l0-5.38-2.6,4.38h-1.28l-2.59-4.23v5.23H101.6V303.21H104l3.56,5.85,3.48-5.85h2.36l0,10.14Z" transform="translate(-29.51 -69.07)"/><path class="cls-13" d="M116.26,312.44l.95-2.12a6.31,6.31,0,0,0,3.34,1c1.19,0,1.66-.33,1.66-.83,0-1.6-5.77-.43-5.77-4.2,0-1.81,1.47-3.29,4.49-3.29a7.59,7.59,0,0,1,3.68.89l-.88,2.13a5.9,5.9,0,0,0-2.81-.78c-1.21,0-1.64.4-1.64.91,0,1.55,5.75.39,5.75,4.13,0,1.76-1.48,3.27-4.49,3.27A8.07,8.07,0,0,1,116.26,312.44Z" transform="translate(-29.51 -69.07)"/><path class="cls-14" d="M111.58,333a2.9,2.9,0,0,0-2.6,1.9l-3.81,12.15a2.88,2.88,0,0,1-2.59,1.91H60.91a1.62,1.62,0,0,0-1.65,2l12.29,68a2.5,2.5,0,0,0,2.36,2h66a2.39,2.39,0,0,0,2.29-2l12.42-84a1.68,1.68,0,0,0-1.71-2Z" transform="translate(-29.51 -69.07)"/><path class="cls-4" d="M142.2,419l12.42-84a1.68,1.68,0,0,0-1.71-2h-4c-6.71,63.83-55,79.62-77.78,83.53l.43,2.41a2.5,2.5,0,0,0,2.36,2h66A2.39,2.39,0,0,0,142.2,419Z" transform="translate(-29.51 -69.07)"/><rect class="cls-15" x="281.85" y="260.38" width="124.11" height="91.2" rx="1.92"/><rect class="cls-7" x="286.72" y="263.96" width="114.36" height="77.32" rx="1.77"/><path class="cls-16" d="M430.6,415.12a.68.68,0,0,1-.68.67h-113a.68.68,0,0,1-.68-.67h0a.68.68,0,0,1,.68-.68h113a.68.68,0,0,1,.68.68Z" transform="translate(-29.51 -69.07)"/><path class="cls-13" d="M392.17,415.12a.68.68,0,0,1-.68.67H316.91a.68.68,0,0,1-.68-.67h0a.68.68,0,0,1,.68-.68h74.58a.68.68,0,0,1,.68.68Z" transform="translate(-29.51 -69.07)"/><path class="cls-13" d="M393.89,415.19a2.64,2.64,0,1,1-2.64-2.64A2.65,2.65,0,0,1,393.89,415.19Z" transform="translate(-29.51 -69.07)"/><path class="cls-9" d="M403.84,372.77a30.43,30.43,0,1,1-30.43-30.43A30.42,30.42,0,0,1,403.84,372.77Z" transform="translate(-29.51 -69.07)"/><path class="cls-6" d="M397.19,372.77A23.78,23.78,0,1,1,373.41,349,23.77,23.77,0,0,1,397.19,372.77Z" transform="translate(-29.51 -69.07)"/><polygon class="cls-17" points="339.2 293.73 339.2 313.67 352.19 303.91 339.2 293.73"/><path class="cls-18" d="M433.55,420.65a1.94,1.94,0,0,0,1.92-1.93V331.37a1.93,1.93,0,0,0-1.92-1.92H422.28c0,60.49-31.18,83.31-48,91.2Z" transform="translate(-29.51 -69.07)"/><rect class="cls-8" x="192.99" y="71.64" width="122.94" height="81.59" rx="0.98"/><rect class="cls-6" x="197.46" y="76.41" width="113.99" height="72.05" rx="0.9"/><path class="cls-19" d="M316.14,170.12a6.08,6.08,0,0,0-9.46,0l-32.11,37.15a6.08,6.08,0,0,1-9.46,0l-14.61-16.9a6.09,6.09,0,0,0-9.45,0L227,206.65v10.93a.9.9,0,0,0,.9.89h112.2a.9.9,0,0,0,.9-.89V198.85Z" transform="translate(-29.51 -69.07)"/><path class="cls-20" d="M278.91,167a11.83,11.83,0,1,1-11.83-11.83A11.83,11.83,0,0,1,278.91,167Z" transform="translate(-29.51 -69.07)"/><path class="cls-10" d="M344.46,222.3a1,1,0,0,0,1-1V141.69a1,1,0,0,0-1-1H330.12c-2.59,47.81-22,70.7-38.61,81.59Z" transform="translate(-29.51 -69.07)"/><rect class="cls-7" x="127.13" y="171.03" width="83.58" height="60.26" rx="1.07"/><path class="cls-21" d="M240.22,247.41v-6.25a1.07,1.07,0,0,0-1.06-1.07H157.71a1.07,1.07,0,0,0-1.07,1.07v6.25Z" transform="translate(-29.51 -69.07)"/><path class="cls-8" d="M169.26,243.75a1.54,1.54,0,1,1-1.54-1.53A1.54,1.54,0,0,1,169.26,243.75Z" transform="translate(-29.51 -69.07)"/><path class="cls-8" d="M162.87,243.75a1.54,1.54,0,1,1-1.54-1.53A1.54,1.54,0,0,1,162.87,243.75Z" transform="translate(-29.51 -69.07)"/><path class="cls-8" d="M175.65,243.75a1.54,1.54,0,1,1-1.53-1.53A1.54,1.54,0,0,1,175.65,243.75Z" transform="translate(-29.51 -69.07)"/><rect class="cls-6" x="150.81" y="192.96" width="53.93" height="2.17"/><rect class="cls-22" x="133.1" y="185.96" width="15.99" height="2.17"/><rect class="cls-23" x="133.1" y="199.96" width="8.46" height="2.17"/><rect class="cls-24" x="133.1" y="206.96" width="15.99" height="2.17"/><rect class="cls-25" x="133.1" y="213.96" width="12.44" height="2.17"/><rect class="cls-6" x="158.23" y="185.96" width="31.05" height="2.17"/><rect class="cls-26" x="133.1" y="192.96" width="12.44" height="2.17"/><rect class="cls-6" x="145.15" y="199.96" width="36.69" height="2.17"/><rect class="cls-6" x="158.23" y="206.96" width="31.05" height="2.17"/><rect class="cls-6" x="150.81" y="213.96" width="53.93" height="2.17"/><rect class="cls-27" x="133.1" y="220.96" width="8.46" height="2.17"/><rect class="cls-6" x="145.15" y="220.96" width="36.69" height="2.17"/><path class="cls-4" d="M240.22,241.16a1.07,1.07,0,0,0-1.06-1.07h-20c-.48,37.27-26,54.37-37.74,60.26h57.73a1.07,1.07,0,0,0,1.06-1.06Z" transform="translate(-29.51 -69.07)"/><rect class="cls-7" x="267.99" y="139.9" width="73.58" height="40.26" rx="1.07"/><path class="cls-28" d="M371.08,216.28V210A1.07,1.07,0,0,0,370,209H298.57A1.07,1.07,0,0,0,297.5,210v6.25Z" transform="translate(-29.51 -69.07)"/><path class="cls-8" d="M310.12,212.62a1.54,1.54,0,1,1-1.53-1.53A1.54,1.54,0,0,1,310.12,212.62Z" transform="translate(-29.51 -69.07)"/><path class="cls-8" d="M303.73,212.62a1.54,1.54,0,1,1-1.53-1.53A1.54,1.54,0,0,1,303.73,212.62Z" transform="translate(-29.51 -69.07)"/><path class="cls-8" d="M316.51,212.62a1.54,1.54,0,1,1-1.53-1.53A1.54,1.54,0,0,1,316.51,212.62Z" transform="translate(-29.51 -69.07)"/><path class="cls-6" d="M336,224.18q-2.52,7.6-5,15.22c-.33,1,1.25,1.43,1.58.43q2.52-7.61,5-15.21c.33-1-1.25-1.43-1.58-.44Z" transform="translate(-29.51 -69.07)"/><path class="cls-6" d="M330,234.87q-2.07-1.44-4.16-2.86l4.16-2.86c.87-.59.05-2-.83-1.41L324,231.3a.83.83,0,0,0,0,1.42l5.18,3.56C330,236.88,330.83,235.46,330,234.87Z" transform="translate(-29.51 -69.07)"/><path class="cls-6" d="M338.63,234.87l4.15-2.86-4.15-2.86c-.87-.59-.05-2,.82-1.41l5.19,3.56a.83.83,0,0,1,0,1.42l-5.19,3.56C338.58,236.88,337.76,235.46,338.63,234.87Z" transform="translate(-29.51 -69.07)"/><path class="cls-4" d="M370,249.22a1.07,1.07,0,0,0,1.06-1.07V210A1.07,1.07,0,0,0,370,209H354c-1.21,23.66-14.71,35-25.82,40.26Z" transform="translate(-29.51 -69.07)"/><path class="cls-8" d="M407.16,314.4l-1.1,2.68L388.82,310a28.74,28.74,0,1,0-1.26,3.07l17.24,7.09-1.1,2.67,17,7,3.46-8.43Zm-23-4.52a24.31,24.31,0,1,1-13.25-31.73A24.33,24.33,0,0,1,384.17,309.88Z" transform="translate(-29.51 -69.07)"/><path class="cls-8" d="M353.86,283.16a5.33,5.33,0,1,0,7,2.86A5.33,5.33,0,0,0,353.86,283.16Z" transform="translate(-29.51 -69.07)"/><path class="cls-13" d="M449.61,199.64h-4a19.73,19.73,0,0,0-3.72-9l2.82-2.81a1,1,0,0,0,0-1.41l-2.64-2.65a1,1,0,0,0-1.42,0l-2.81,2.82a19.72,19.72,0,0,0-9-3.71v-4a1,1,0,0,0-1-1h-3.73a1,1,0,0,0-1,1v4a19.72,19.72,0,0,0-9,3.71l-2.82-2.82a1,1,0,0,0-1.41,0l-2.64,2.65a1,1,0,0,0,0,1.41l2.81,2.81a19.72,19.72,0,0,0-3.71,9h-4a1,1,0,0,0-1,1v3.74a1,1,0,0,0,1,1h4a19.68,19.68,0,0,0,3.71,9l-2.81,2.82a1,1,0,0,0,0,1.41l2.64,2.64a1,1,0,0,0,1.41,0l2.82-2.81a19.68,19.68,0,0,0,9,3.71v4a1,1,0,0,0,1,1h3.73a1,1,0,0,0,1-1v-4a19.72,19.72,0,0,0,9-3.71l2.81,2.81a1,1,0,0,0,1.42,0l2.64-2.64a1,1,0,0,0,0-1.41l-2.82-2.82a19.7,19.7,0,0,0,3.72-9h4a1,1,0,0,0,1-1v-3.74A1,1,0,0,0,449.61,199.64ZM426,217a14.5,14.5,0,1,1,14.5-14.5A14.5,14.5,0,0,1,426,217Z" transform="translate(-29.51 -69.07)"/><path class="cls-13" d="M409.68,161.13h-3.15a15.63,15.63,0,0,0-2.95-7.11l2.23-2.23a.8.8,0,0,0,0-1.13l-2.09-2.09a.79.79,0,0,0-1.12,0l-2.23,2.23a15.67,15.67,0,0,0-7.11-2.94V144.7a.8.8,0,0,0-.8-.79h-3a.8.8,0,0,0-.79.79v3.16a15.67,15.67,0,0,0-7.11,2.94l-2.23-2.23a.79.79,0,0,0-1.12,0l-2.1,2.09a.8.8,0,0,0,0,1.13l2.24,2.23a15.53,15.53,0,0,0-2.95,7.11h-3.16a.8.8,0,0,0-.79.79v3a.79.79,0,0,0,.79.79h3.16a15.53,15.53,0,0,0,2.95,7.11L376.15,175a.79.79,0,0,0,0,1.12l2.1,2.09a.79.79,0,0,0,1.12,0L381.6,176a15.51,15.51,0,0,0,7.11,2.94v3.16a.79.79,0,0,0,.79.79h3a.79.79,0,0,0,.8-.79v-3.16a15.56,15.56,0,0,0,7.11-2.94l2.23,2.23a.79.79,0,0,0,1.12,0l2.09-2.09a.79.79,0,0,0,0-1.12l-2.23-2.23a15.67,15.67,0,0,0,2.95-7.12h3.15a.79.79,0,0,0,.8-.79v-3A.8.8,0,0,0,409.68,161.13ZM391,171.28a7.88,7.88,0,1,1,7.88-7.88A7.88,7.88,0,0,1,391,171.28Z" transform="translate(-29.51 -69.07)"/><path class="cls-13" d="M185.28,418.4a4.18,4.18,0,0,1-4.19,4.29H179a4.19,4.19,0,0,1-4.19-4.29l1.52-65.24c.05-2.36,1.73-4.29,3.73-4.29s3.67,1.93,3.72,4.29Z" transform="translate(-29.51 -69.07)"/><path class="cls-29" d="M179,422.69h2.11a4.13,4.13,0,0,0,2.07-.56l-.72-30.91a2.43,2.43,0,1,0-4.81,0l-.72,30.91A4.19,4.19,0,0,0,179,422.69Z" transform="translate(-29.51 -69.07)"/><path class="cls-13" d="M188.86,325.67v12L180,346.41l-8.83-8.71v-12a19.18,19.18,0,1,0,17.65,0Z" transform="translate(-29.51 -69.07)"/><path class="cls-29" d="M180,358.14a23.39,23.39,0,0,1-17.7-8.06,19.18,19.18,0,0,0,35.39,0A23.39,23.39,0,0,1,180,358.14Z" transform="translate(-29.51 -69.07)"/><rect class="cls-13" x="86.37" y="79.36" width="82.86" height="46.15" rx="2.74"/><path class="cls-29" d="M196,148.43H118.63a2.63,2.63,0,0,0-1.09.23l37.24,27a4.62,4.62,0,0,0,5.07,0l37.24-27A2.62,2.62,0,0,0,196,148.43Z" transform="translate(-29.51 -69.07)"/><path class="cls-10" d="M196,148.43h-14c-3.44,28.68-25.91,40.94-42.91,46.14H196a2.75,2.75,0,0,0,2.74-2.74V151.17A2.75,2.75,0,0,0,196,148.43Z" transform="translate(-29.51 -69.07)"/><path class="cls-30" d="M159.29,110.63c-7.44,15.33-24.06,18.74-24.06,18.74,3.19,27.27,24.06,32.95,24.06,32.95s20.86-5.68,24.05-32.95C183.34,129.37,166.72,126,159.29,110.63Z" transform="translate(-29.51 -69.07)"/><path class="cls-6" d="M159.29,122.79c-4.53,9.35-14.67,11.42-14.67,11.42,1.95,16.62,14.67,20.08,14.67,20.08S172,150.83,174,134.21C174,134.21,163.82,132.14,159.29,122.79Z" transform="translate(-29.51 -69.07)"/><path class="cls-31" d="M165.68,134.23l-6.61,8.19-4.24-3.22c-1.33-1-2.62,1.24-1.31,2.23l5.11,3.89a1.27,1.27,0,0,0,1.57-.21l7.31-9.05C168.55,134.77,166.73,132.93,165.68,134.23Z" transform="translate(-29.51 -69.07)"/><path class="cls-10" d="M145.48,153.19a32.61,32.61,0,0,0,13.81,9.13s20.86-5.68,24.05-32.95a38.2,38.2,0,0,1-11-4.65C167.63,141.65,153.81,149.75,145.48,153.19Z" transform="translate(-29.51 -69.07)"/><path class="cls-8" d="M93.43,234.13a13.6,13.6,0,0,0-4.25.67,19,19,0,0,0-37.5,4.63,21,21,0,0,0,.13,2.26,10.64,10.64,0,0,0-2.05-.2,10.28,10.28,0,0,0,0,20.56H93.43a14,14,0,0,0,0-27.92Z" transform="translate(-29.51 -69.07)"/><path class="cls-18" d="M100.55,236.1a13.93,13.93,0,0,1-12.57,20H44.31a10.15,10.15,0,0,1-4.24-.93,10.27,10.27,0,0,0,9.69,6.89H93.43a13.95,13.95,0,0,0,7.12-26Z" transform="translate(-29.51 -69.07)"/><polygon class="cls-32" points="54.68 175.06 50.34 169.52 45.99 175.06 48.64 175.06 48.64 179.43 52.03 179.43 52.03 175.06 54.68 175.06"/><polygon class="cls-33" points="31.17 174.75 35.52 180.29 39.86 174.75 37.22 174.75 37.22 170.38 33.82 170.38 33.82 174.75 31.17 174.75"/><path class="cls-8" d="M346.8,127.79a13.3,13.3,0,0,0-4,.62,18,18,0,0,0-35.37,4.38,18.74,18.74,0,0,0,.13,2.13,9.43,9.43,0,0,0-1.93-.2,9.7,9.7,0,1,0,0,19.39H346.8a13.16,13.16,0,0,0,0-26.32Z" transform="translate(-29.51 -69.07)"/><path class="cls-18" d="M353.52,129.64a13.15,13.15,0,0,1-11.87,18.85H300.47a9.7,9.7,0,0,1-4-.87,9.7,9.7,0,0,0,9.15,6.49H346.8a13.16,13.16,0,0,0,6.72-24.47Z" transform="translate(-29.51 -69.07)"/><polygon class="cls-34" points="302.53 66.12 297.23 59.36 291.93 66.12 295.15 66.12 295.15 71.45 299.3 71.45 299.3 66.12 302.53 66.12"/><path class="cls-8" d="M439.59,267.08a8.86,8.86,0,0,0-2.79.44,12.5,12.5,0,0,0-24.63,3,12,12,0,0,0,.09,1.48,6.65,6.65,0,0,0-1.35-.13,6.75,6.75,0,0,0,0,13.5h28.68a9.17,9.17,0,0,0,0-18.33Z" transform="translate(-29.51 -69.07)"/><path class="cls-18" d="M444.26,268.37a9.07,9.07,0,0,1,.91,4,9.16,9.16,0,0,1-9.17,9.16H407.33a6.8,6.8,0,0,1-2.78-.6,6.74,6.74,0,0,0,6.36,4.52h28.68a9.16,9.16,0,0,0,4.67-17Z" transform="translate(-29.51 -69.07)"/><polygon class="cls-35" points="391.9 202.14 395.81 207.13 399.72 202.14 397.34 202.14 397.34 198.21 394.28 198.21 394.28 202.14 391.9 202.14"/><rect class="cls-36" x="51.99" y="89.89" width="1" height="5.8"/><rect class="cls-36" x="51.99" y="101.92" width="1" height="5.8"/><rect class="cls-36" x="55.61" y="98.3" width="5.8" height="1"/><rect class="cls-36" x="43.58" y="98.3" width="5.8" height="1"/><rect class="cls-36" x="83.36" y="163.11" width="5.8" height="1" transform="translate(-119.94 39.85) rotate(-45)"/><rect class="cls-36" x="74.85" y="171.62" width="5.8" height="1" transform="translate(-128.45 36.32) rotate(-45)"/><rect class="cls-36" x="85.76" y="169.22" width="1" height="5.8" transform="translate(-125.96 42.34) rotate(-45)"/><rect class="cls-36" x="77.25" y="160.71" width="1" height="5.8" transform="translate(-122.43 33.84) rotate(-45)"/><rect class="cls-36" x="76.87" y="58.68" width="0.61" height="3.56"/><rect class="cls-36" x="76.87" y="66.06" width="0.61" height="3.56"/><rect class="cls-36" x="79.09" y="63.84" width="3.56" height="0.61"/><rect class="cls-36" x="71.71" y="63.84" width="3.56" height="0.61"/><rect class="cls-36" x="107.52" y="130.3" width="3.56" height="0.61" transform="translate(-89.87 46.69) rotate(-45.07)"/><rect class="cls-36" x="102.3" y="135.51" width="3.56" height="0.61" transform="translate(-95.07 44.31) rotate(-45)"/><rect class="cls-36" x="108.99" y="134.04" width="0.61" height="3.56" transform="translate(-93.54 48.02) rotate(-45.01)"/><rect class="cls-36" x="103.77" y="128.82" width="0.61" height="3.56" transform="translate(-91.38 42.8) rotate(-45.01)"/><rect class="cls-36" x="421.59" y="164.43" width="1" height="5.8"/><rect class="cls-36" x="421.59" y="176.46" width="1" height="5.8"/><rect class="cls-36" x="425.21" y="172.84" width="5.8" height="1"/><rect class="cls-36" x="413.18" y="172.84" width="5.8" height="1"/><rect class="cls-36" x="452.96" y="237.65" width="5.8" height="1" transform="translate(-64.39 323.03) rotate(-45)"/><rect class="cls-36" x="444.45" y="246.16" width="5.8" height="1" transform="translate(-72.89 319.54) rotate(-45)"/><rect class="cls-36" x="455.36" y="243.76" width="1" height="5.8" transform="translate(-70.39 325.57) rotate(-45.01)"/><rect class="cls-36" x="446.85" y="235.25" width="1" height="5.8" transform="translate(-66.88 317.02) rotate(-45)"/><rect class="cls-36" x="403.55" y="230.76" width="0.61" height="3.56"/><rect class="cls-36" x="403.55" y="238.14" width="0.61" height="3.56"/><rect class="cls-36" x="405.77" y="235.92" width="3.56" height="0.61"/><rect class="cls-36" x="398.39" y="235.92" width="3.56" height="0.61"/><rect class="cls-36" x="434.2" y="302.38" width="3.56" height="0.61" transform="translate(-115.74 328.47) rotate(-45.07)"/><polygon class="cls-36" points="400.21 240.32 399.77 239.88 402.29 237.37 402.72 237.8 400.21 240.32"/><rect class="cls-36" x="435.67" y="306.13" width="0.61" height="3.56" transform="translate(-119.56 329.3) rotate(-44.99)"/><rect class="cls-36" x="430.45" y="300.91" width="0.61" height="3.56" transform="translate(-117.36 324.27) rotate(-45.01)"/><rect class="cls-36" x="196.52" y="16.88" width="1.35" height="7.83"/><rect class="cls-36" x="196.52" y="33.13" width="1.35" height="7.83"/><rect class="cls-36" x="201.41" y="28.25" width="7.83" height="1.35"/><rect class="cls-36" x="185.15" y="28.25" width="7.83" height="1.35"/><rect class="cls-36" x="228.54" y="91.57" width="7.83" height="1.35" transform="translate(-26.65 122.32) rotate(-45)"/><rect class="cls-36" x="217.05" y="103.06" width="7.83" height="1.35" transform="translate(-38.14 117.56) rotate(-45)"/><rect class="cls-36" x="231.78" y="99.82" width="1.35" height="7.84" transform="translate(-34.77 125.71) rotate(-45)"/><rect class="cls-36" x="220.29" y="88.32" width="1.35" height="7.83" transform="translate(-30.02 114.19) rotate(-45)"/><rect class="cls-36" x="403.86" y="80.65" width="0.61" height="3.56"/><rect class="cls-36" x="403.86" y="88.03" width="0.61" height="3.56"/><rect class="cls-36" x="406.07" y="85.81" width="3.56" height="0.61"/><rect class="cls-36" x="398.7" y="85.81" width="3.56" height="0.61"/><rect class="cls-36" x="434.51" y="152.27" width="3.56" height="0.61" transform="translate(-9.4 284.55) rotate(-45.06)"/><polygon class="cls-36" points="400.51 90.2 400.08 89.77 402.59 87.25 403.03 87.68 400.51 90.2"/><rect class="cls-36" x="435.98" y="156.01" width="0.61" height="3.56" transform="translate(-13.3 285.65) rotate(-45)"/><rect class="cls-36" x="430.76" y="150.79" width="0.61" height="3.56" transform="translate(-11.18 280.35) rotate(-44.99)"/><rect class="cls-36" x="348.55" y="37.67" width="1" height="5.8"/><rect class="cls-36" x="348.55" y="49.7" width="1" height="5.8"/><rect class="cls-36" x="352.16" y="46.08" width="5.8" height="1"/><rect class="cls-36" x="340.13" y="46.08" width="5.8" height="1"/><rect class="cls-36" x="379.91" y="110.9" width="5.8" height="1" transform="translate(3.84 234.25) rotate(-45)"/><rect class="cls-36" x="371.41" y="119.4" width="5.8" height="1" transform="translate(-4.65 230.75) rotate(-45)"/><rect class="cls-36" x="382.31" y="117" width="1" height="5.8" transform="translate(-2.15 236.79) rotate(-45.01)"/><rect class="cls-36" x="373.81" y="108.5" width="1" height="5.8" transform="translate(1.37 228.28) rotate(-45.01)"/><rect class="cls-36" x="17.37" y="132.09" width="0.61" height="3.56"/><rect class="cls-36" x="17.37" y="139.47" width="0.61" height="3.56"/><rect class="cls-36" x="19.59" y="137.25" width="3.56" height="0.61"/><rect class="cls-36" x="12.21" y="137.25" width="3.56" height="0.61"/><rect class="cls-36" x="48.02" y="203.7" width="3.56" height="0.61" transform="translate(-159.31 26.11) rotate(-45.07)"/><polygon class="cls-36" points="14.03 141.64 13.59 141.2 16.11 138.69 16.54 139.12 14.03 141.64"/><rect class="cls-36" x="49.49" y="207.45" width="0.61" height="3.56" transform="translate(-162.87 27.43) rotate(-45)"/><rect class="cls-36" x="44.27" y="202.23" width="0.61" height="3.56" transform="translate(-160.69 22.18) rotate(-44.99)"/><path class="cls-36" d="M80.6,107.7a2,2,0,1,1-2-2A2,2,0,0,1,80.6,107.7Z" transform="translate(-29.51 -69.07)"/><path class="cls-36" d="M129.89,71.72a2.66,2.66,0,1,1-2.65-2.65A2.65,2.65,0,0,1,129.89,71.72Z" transform="translate(-29.51 -69.07)"/><path class="cls-36" d="M457.38,320.51a2.66,2.66,0,1,1-2.66-2.65A2.66,2.66,0,0,1,457.38,320.51Z" transform="translate(-29.51 -69.07)"/><path class="cls-36" d="M412.51,122.79a2,2,0,1,1-2-2A2,2,0,0,1,412.51,122.79Z" transform="translate(-29.51 -69.07)"/><path class="cls-36" d="M257.28,124a2,2,0,1,1-2-2A2,2,0,0,1,257.28,124Z" transform="translate(-29.51 -69.07)"/><path class="cls-36" d="M321.75,79.43a2.66,2.66,0,1,1-2.66-2.66A2.66,2.66,0,0,1,321.75,79.43Z" transform="translate(-29.51 -69.07)"/><path class="cls-36" d="M52.45,299.83a2.65,2.65,0,1,1-2.65-2.65A2.65,2.65,0,0,1,52.45,299.83Z" transform="translate(-29.51 -69.07)"/><path class="cls-36" d="M178.94,100.49a2,2,0,1,1-2-2A2,2,0,0,1,178.94,100.49Z" transform="translate(-29.51 -69.07)"/></g></svg>