<svg xmlns="http://www.w3.org/2000/svg" xmlns:xlink="http://www.w3.org/1999/xlink" viewBox="0 0 262.41 244.88"><defs><style>.cls-1{fill:none;}.cls-2{isolation:isolate;}.cls-3{clip-path:url(#clip-path);}.cls-4{fill:url(#linear-gradient);}.cls-5{fill:url(#linear-gradient-2);}.cls-6{fill:#fff;}.cls-7{fill:url(#linear-gradient-3);}.cls-8{fill:url(#linear-gradient-4);}.cls-9{fill:url(#linear-gradient-5);}.cls-10{fill:url(#linear-gradient-6);}.cls-11{fill:url(#linear-gradient-7);}.cls-12{fill:url(#linear-gradient-8);}.cls-13{fill:url(#linear-gradient-9);}.cls-14{fill:url(#linear-gradient-10);}.cls-15{fill:url(#linear-gradient-11);}.cls-16{fill:url(#linear-gradient-12);}.cls-17{fill:url(#linear-gradient-13);}.cls-18{fill:url(#linear-gradient-14);}.cls-19{fill:url(#linear-gradient-15);}.cls-20{fill:url(#linear-gradient-16);}.cls-21{fill:url(#linear-gradient-17);}.cls-22{fill:url(#linear-gradient-18);}.cls-23{fill:url(#linear-gradient-19);}.cls-24{fill:url(#linear-gradient-20);}.cls-25{fill:url(#linear-gradient-21);}.cls-26{fill:#ff530e;}.cls-27,.cls-49{mix-blend-mode:multiply;}.cls-27{fill:url(#linear-gradient-22);}.cls-28{fill:url(#linear-gradient-23);}.cls-29{fill:url(#linear-gradient-24);}.cls-30{fill:url(#linear-gradient-25);}.cls-31{fill:url(#linear-gradient-26);}.cls-32{fill:url(#linear-gradient-27);}.cls-33{fill:url(#linear-gradient-28);}.cls-34{fill:url(#linear-gradient-29);}.cls-35{fill:url(#linear-gradient-30);}.cls-36{fill:url(#linear-gradient-31);}.cls-37{fill:url(#linear-gradient-32);}.cls-38{fill:url(#linear-gradient-33);}.cls-39{fill:url(#linear-gradient-34);}.cls-40{fill:url(#linear-gradient-35);}.cls-41{fill:url(#linear-gradient-36);}.cls-42{fill:url(#linear-gradient-37);}.cls-43{fill:url(#linear-gradient-38);}.cls-44{fill:url(#linear-gradient-39);}.cls-45{fill:url(#linear-gradient-40);}.cls-46{fill:url(#linear-gradient-41);}.cls-47{fill:url(#linear-gradient-42);}.cls-48{fill:url(#linear-gradient-43);}.cls-49{fill:url(#linear-gradient-44);}.cls-50{fill:url(#linear-gradient-45);}.cls-51{fill:url(#linear-gradient-46);}.cls-52{fill:url(#linear-gradient-47);}.cls-53{fill:url(#linear-gradient-48);}.cls-54{fill:url(#linear-gradient-49);}.cls-55{fill:url(#linear-gradient-50);}.cls-56{fill:url(#linear-gradient-51);}.cls-57{fill:url(#linear-gradient-52);}.cls-58{fill:url(#linear-gradient-53);}.cls-59{fill:url(#linear-gradient-54);}.cls-60{fill:url(#linear-gradient-55);}.cls-61{fill:url(#linear-gradient-56);}.cls-62{fill:url(#linear-gradient-57);}.cls-63{fill:url(#linear-gradient-58);}.cls-64{fill:url(#linear-gradient-59);}.cls-65{fill:url(#linear-gradient-60);}.cls-66{fill:url(#linear-gradient-61);}.cls-67{fill:url(#linear-gradient-62);}.cls-68{fill:url(#linear-gradient-63);}.cls-69{fill:url(#linear-gradient-64);}.cls-70{fill:url(#linear-gradient-65);}.cls-71{fill:url(#linear-gradient-66);}.cls-72{fill:url(#linear-gradient-67);}.cls-73{fill:url(#linear-gradient-68);}.cls-74{fill:url(#linear-gradient-69);}.cls-75{fill:url(#linear-gradient-70);}.cls-76{fill:url(#linear-gradient-71);}.cls-77{fill:url(#linear-gradient-72);}.cls-78{fill:url(#linear-gradient-73);}.cls-79{fill:url(#linear-gradient-74);}.cls-80{fill:url(#linear-gradient-75);}.cls-81{fill:url(#linear-gradient-76);}.cls-82{fill:url(#linear-gradient-77);}.cls-83{fill:url(#linear-gradient-78);}.cls-84{fill:url(#linear-gradient-79);}.cls-85{fill:url(#linear-gradient-80);}.cls-86{fill:url(#linear-gradient-81);}.cls-87{fill:url(#linear-gradient-82);}.cls-88{fill:url(#linear-gradient-83);}.cls-89{fill:url(#linear-gradient-84);}.cls-90{fill:url(#linear-gradient-85);}.cls-91{fill:url(#linear-gradient-86);}.cls-92{fill:url(#linear-gradient-87);}.cls-93{fill:url(#linear-gradient-88);}.cls-94{fill:url(#linear-gradient-89);}.cls-95{fill:url(#linear-gradient-90);}.cls-96{fill:url(#linear-gradient-91);}.cls-97{fill:url(#linear-gradient-92);}.cls-98{fill:url(#linear-gradient-93);}.cls-99{fill:url(#linear-gradient-94);}.cls-100{fill:url(#linear-gradient-95);}.cls-101{fill:url(#linear-gradient-96);}.cls-102{fill:url(#linear-gradient-97);}.cls-103{fill:#0a0a0a;}</style><clipPath id="clip-path" transform="translate(-200.9 -121.26)"><rect class="cls-1" x="21.84" y="52.69" width="458.99" height="294.62" rx="3"/></clipPath><linearGradient id="linear-gradient" x1="61.75" y1="276.55" x2="183.34" y2="102.84" gradientUnits="userSpaceOnUse"><stop offset="0" stop-color="#ff530e"/><stop offset="1" stop-color="#722200"/></linearGradient><linearGradient id="linear-gradient-2" x1="276.23" y1="994.87" x2="334.54" y2="994.87" gradientTransform="matrix(0.82, -0.57, 0.57, 0.82, -546.36, -451.29)" gradientUnits="userSpaceOnUse"><stop offset="0" stop-color="#fdbe54"/><stop offset="1" stop-color="#faec80"/></linearGradient><linearGradient id="linear-gradient-3" x1="270.73" y1="1011.94" x2="465.47" y2="1011.94" gradientTransform="matrix(0.82, -0.57, 0.57, 0.82, -740.99, -533.1)" gradientUnits="userSpaceOnUse"><stop offset="0" stop-color="#932b06"/><stop offset="1" stop-color="#ff530e"/></linearGradient><linearGradient id="linear-gradient-4" x1="364.25" y1="1089.94" x2="371.95" y2="1089.94" gradientTransform="matrix(0.82, -0.57, 0.57, 0.82, -584.83, -397.73)" gradientUnits="userSpaceOnUse"><stop offset="0" stop-color="#d7d7d7"/><stop offset="1" stop-color="#fff"/></linearGradient><linearGradient id="linear-gradient-5" x1="360.91" y1="931.78" x2="375.29" y2="931.78" gradientTransform="matrix(0.82, -0.57, 0.57, 0.82, -695.01, -547.6)" xlink:href="#linear-gradient-4"/><linearGradient id="linear-gradient-6" x1="304.89" y1="975.1" x2="394.34" y2="975.1" gradientTransform="matrix(0.57, 0.82, -0.82, 0.57, 921.68, -676.56)" gradientUnits="userSpaceOnUse"><stop offset="0" stop-color="#e04700"/><stop offset="1" stop-color="#722200"/></linearGradient><linearGradient id="linear-gradient-7" x1="374.57" y1="975.1" x2="434.81" y2="975.1" gradientTransform="matrix(0.57, 0.82, -0.82, 0.57, 945.17, -721.68)" xlink:href="#linear-gradient-6"/><linearGradient id="linear-gradient-8" x1="342.13" y1="1044.28" x2="431.58" y2="1044.28" gradientTransform="matrix(-0.57, -0.82, 0.82, -0.57, -272.91, 1154.26)" xlink:href="#linear-gradient-6"/><linearGradient id="linear-gradient-9" x1="260.92" y1="945.02" x2="294.22" y2="945.02" gradientTransform="matrix(0.82, -0.57, 0.57, 0.82, -718.97, -597.13)" gradientUnits="userSpaceOnUse"><stop offset="0" stop-color="#531a00"/><stop offset="1" stop-color="#c73f00"/></linearGradient><linearGradient id="linear-gradient-10" x1="301.66" y1="1044.28" x2="361.9" y2="1044.28" gradientTransform="matrix(-0.57, -0.82, 0.82, -0.57, -359.58, 1109.14)" xlink:href="#linear-gradient-6"/><linearGradient id="linear-gradient-11" x1="362.68" y1="1023.45" x2="365.52" y2="1023.45" gradientTransform="matrix(0.82, -0.57, 0.57, 0.82, -748.31, -533.31)" xlink:href="#linear-gradient-4"/><linearGradient id="linear-gradient-12" x1="362.68" y1="1027.68" x2="365.52" y2="1027.68" gradientTransform="matrix(0.82, -0.57, 0.57, 0.82, -750.74, -532.55)" xlink:href="#linear-gradient-4"/><linearGradient id="linear-gradient-13" x1="362.68" y1="1031.91" x2="365.52" y2="1031.91" gradientTransform="matrix(0.82, -0.57, 0.57, 0.82, -753.17, -531.78)" xlink:href="#linear-gradient-4"/><linearGradient id="linear-gradient-14" x1="362.68" y1="1036.15" x2="365.52" y2="1036.15" gradientTransform="matrix(0.82, -0.57, 0.57, 0.82, -755.59, -531.02)" xlink:href="#linear-gradient-4"/><linearGradient id="linear-gradient-15" x1="362.68" y1="1040.38" x2="365.52" y2="1040.38" gradientTransform="matrix(0.82, -0.57, 0.57, 0.82, -758.02, -530.25)" xlink:href="#linear-gradient-4"/><linearGradient id="linear-gradient-16" x1="362.68" y1="1044.61" x2="365.52" y2="1044.61" gradientTransform="matrix(0.82, -0.57, 0.57, 0.82, -760.45, -529.49)" xlink:href="#linear-gradient-4"/><linearGradient id="linear-gradient-17" x1="362.68" y1="1048.84" x2="365.52" y2="1048.84" gradientTransform="matrix(0.82, -0.57, 0.57, 0.82, -762.88, -528.72)" xlink:href="#linear-gradient-4"/><linearGradient id="linear-gradient-18" x1="362.68" y1="1053.08" x2="365.52" y2="1053.08" gradientTransform="matrix(0.82, -0.57, 0.57, 0.82, -765.31, -527.96)" xlink:href="#linear-gradient-4"/><linearGradient id="linear-gradient-19" x1="362.68" y1="1057.31" x2="365.52" y2="1057.31" gradientTransform="matrix(0.82, -0.57, 0.57, 0.82, -767.73, -527.19)" xlink:href="#linear-gradient-4"/><linearGradient id="linear-gradient-20" x1="362.68" y1="1061.54" x2="365.52" y2="1061.54" gradientTransform="matrix(0.82, -0.57, 0.57, 0.82, -770.16, -526.42)" xlink:href="#linear-gradient-4"/><linearGradient id="linear-gradient-21" x1="362.68" y1="1065.77" x2="365.52" y2="1065.77" gradientTransform="matrix(0.82, -0.57, 0.57, 0.82, -772.59, -525.66)" xlink:href="#linear-gradient-4"/><linearGradient id="linear-gradient-22" x1="295" y1="1029.39" x2="341.89" y2="1029.39" gradientTransform="matrix(0.82, -0.57, 0.57, 0.82, -559.46, -436.43)" gradientUnits="userSpaceOnUse"><stop offset="0" stop-color="#9db1c0"/><stop offset="1" stop-color="#edffff"/></linearGradient><linearGradient id="linear-gradient-23" x1="281.96" y1="1086.83" x2="372.91" y2="1086.83" gradientTransform="matrix(0.82, -0.57, 0.57, 0.82, -590.07, -421.45)" xlink:href="#linear-gradient"/><linearGradient id="linear-gradient-24" x1="281.76" y1="1118.74" x2="365.69" y2="1118.74" gradientTransform="matrix(0.82, -0.57, 0.57, 0.82, -807.86, -537.39)" xlink:href="#linear-gradient-6"/><linearGradient id="linear-gradient-25" x1="287.31" y1="1124.98" x2="369.28" y2="1124.98" gradientTransform="matrix(0.82, -0.57, 0.57, 0.82, -612.51, -414.38)" gradientUnits="userSpaceOnUse"><stop offset="0" stop-color="#ff530e"/><stop offset="1" stop-color="#ff530e"/></linearGradient><linearGradient id="linear-gradient-26" x1="287.29" y1="1085.14" x2="368.45" y2="1085.14" gradientTransform="matrix(-0.57, -0.82, 0.82, -0.57, -399.2, 1170.23)" xlink:href="#linear-gradient-4"/><linearGradient id="linear-gradient-27" x1="318.91" y1="1119.58" x2="334.84" y2="1119.58" gradientTransform="matrix(0.82, -0.57, 0.57, 0.82, -608.68, -415.58)" xlink:href="#linear-gradient-22"/><linearGradient id="linear-gradient-28" x1="325.43" y1="954.02" x2="328.27" y2="954.02" gradientTransform="matrix(0.82, -0.57, 0.57, 0.82, -715.22, -567.24)" xlink:href="#linear-gradient-4"/><linearGradient id="linear-gradient-29" x1="325.43" y1="958.25" x2="328.27" y2="958.25" gradientTransform="matrix(0.82, -0.57, 0.57, 0.82, -717.65, -566.47)" xlink:href="#linear-gradient-4"/><linearGradient id="linear-gradient-30" x1="325.43" y1="962.49" x2="328.27" y2="962.49" gradientTransform="matrix(0.82, -0.57, 0.57, 0.82, -720.08, -565.71)" xlink:href="#linear-gradient-4"/><linearGradient id="linear-gradient-31" x1="325.43" y1="966.72" x2="328.27" y2="966.72" gradientTransform="matrix(0.82, -0.57, 0.57, 0.82, -722.51, -564.94)" xlink:href="#linear-gradient-4"/><linearGradient id="linear-gradient-32" x1="325.43" y1="970.95" x2="328.27" y2="970.95" gradientTransform="matrix(0.82, -0.57, 0.57, 0.82, -724.93, -564.17)" xlink:href="#linear-gradient-4"/><linearGradient id="linear-gradient-33" x1="325.43" y1="975.18" x2="328.27" y2="975.18" gradientTransform="matrix(0.82, -0.57, 0.57, 0.82, -727.36, -563.41)" xlink:href="#linear-gradient-4"/><linearGradient id="linear-gradient-34" x1="325.43" y1="979.42" x2="328.27" y2="979.42" gradientTransform="matrix(0.82, -0.57, 0.57, 0.82, -729.79, -562.64)" xlink:href="#linear-gradient-4"/><linearGradient id="linear-gradient-35" x1="325.43" y1="983.65" x2="328.27" y2="983.65" gradientTransform="matrix(0.82, -0.57, 0.57, 0.82, -732.22, -561.88)" xlink:href="#linear-gradient-4"/><linearGradient id="linear-gradient-36" x1="325.43" y1="987.88" x2="328.27" y2="987.88" gradientTransform="matrix(0.82, -0.57, 0.57, 0.82, -734.65, -561.11)" xlink:href="#linear-gradient-4"/><linearGradient id="linear-gradient-37" x1="325.43" y1="992.11" x2="328.27" y2="992.11" gradientTransform="matrix(0.82, -0.57, 0.57, 0.82, -737.07, -560.35)" xlink:href="#linear-gradient-4"/><linearGradient id="linear-gradient-38" x1="325.43" y1="996.35" x2="328.27" y2="996.35" gradientTransform="matrix(0.82, -0.57, 0.57, 0.82, -739.5, -559.58)" xlink:href="#linear-gradient-4"/><linearGradient id="linear-gradient-39" x1="277.01" y1="1025.36" x2="334.5" y2="1025.36" gradientTransform="matrix(0.82, -0.57, 0.57, 0.82, -759.96, -566.43)" xlink:href="#linear-gradient-9"/><linearGradient id="linear-gradient-40" x1="367.23" y1="191.69" x2="389.76" y2="191.69" gradientTransform="matrix(1, 0, 0, 1, 0, 0)" xlink:href="#linear-gradient-9"/><linearGradient id="linear-gradient-41" x1="307.38" y1="1082.3" x2="341.92" y2="1082.3" gradientTransform="matrix(0.82, -0.57, 0.57, 0.82, -590.43, -423.15)" gradientUnits="userSpaceOnUse"><stop offset="0" stop-color="#975e2b"/><stop offset="1" stop-color="#dc9953"/></linearGradient><linearGradient id="linear-gradient-42" x1="331.56" y1="1089.96" x2="346.31" y2="1089.96" gradientTransform="matrix(0.82, -0.57, 0.57, 0.82, -589.28, -414.63)" gradientUnits="userSpaceOnUse"><stop offset="0" stop-color="#fdbe54"/><stop offset="1" stop-color="#ff530e"/></linearGradient><linearGradient id="linear-gradient-43" x1="324.23" y1="1084.63" x2="342.96" y2="1084.63" gradientTransform="matrix(0.82, -0.57, 0.57, 0.82, -587.82, -418.69)" xlink:href="#linear-gradient-9"/><linearGradient id="linear-gradient-44" x1="403.29" y1="993.66" x2="437.59" y2="993.66" gradientTransform="matrix(0.82, -0.57, 0.57, 0.82, -519.71, -388.82)" xlink:href="#linear-gradient-22"/><linearGradient id="linear-gradient-45" x1="459.09" y1="1064.67" x2="473.36" y2="1064.67" gradientTransform="matrix(0.82, -0.57, 0.57, 0.82, -552.1, -346.28)" xlink:href="#linear-gradient"/><linearGradient id="linear-gradient-46" x1="434.08" y1="977.72" x2="468.58" y2="977.72" gradientTransform="matrix(0.82, -0.57, 0.57, 0.82, -505.24, -370.8)" gradientUnits="userSpaceOnUse"><stop offset="0" stop-color="#d79981"/><stop offset="1" stop-color="#ffe9d1"/></linearGradient><linearGradient id="linear-gradient-47" x1="435.63" y1="228.49" x2="451.38" y2="228.49" gradientTransform="matrix(1, 0, 0, 1, 0, 0)" xlink:href="#linear-gradient-46"/><linearGradient id="linear-gradient-48" x1="464.58" y1="1068.27" x2="479.23" y2="1068.27" gradientTransform="matrix(0.82, -0.57, 0.57, 0.82, -553.13, -342.37)" xlink:href="#linear-gradient"/><linearGradient id="linear-gradient-49" x1="456.96" y1="1033.95" x2="490.66" y2="1033.95" gradientTransform="matrix(0.82, -0.57, 0.57, 0.82, -533.44, -347.72)" gradientUnits="userSpaceOnUse"><stop offset="0" stop-color="#c27f6a"/><stop offset="1" stop-color="#ffcfba"/></linearGradient><linearGradient id="linear-gradient-50" x1="441.29" y1="232.28" x2="457.29" y2="232.28" gradientTransform="matrix(1, 0, 0, 1, 0, 0)" xlink:href="#linear-gradient-46"/><linearGradient id="linear-gradient-51" x1="462.87" y1="1037.56" x2="496.57" y2="1037.56" gradientTransform="matrix(0.82, -0.57, 0.57, 0.82, -534.44, -343.68)" xlink:href="#linear-gradient-49"/><linearGradient id="linear-gradient-52" x1="455.25" y1="1013.44" x2="486.58" y2="1013.44" gradientTransform="matrix(0.82, -0.57, 0.57, 0.82, -521.9, -351.53)" xlink:href="#linear-gradient"/><linearGradient id="linear-gradient-53" x1="433.21" y1="176.02" x2="451.66" y2="176.02" gradientTransform="matrix(1, 0, 0, 1, 0, 0)" xlink:href="#linear-gradient-9"/><linearGradient id="linear-gradient-54" x1="465.65" y1="981.38" x2="486.05" y2="981.38" gradientTransform="matrix(0.82, -0.57, 0.57, 0.82, -503.33, -355.78)" xlink:href="#linear-gradient-9"/><linearGradient id="linear-gradient-55" x1="408.54" y1="985.13" x2="442.83" y2="985.13" gradientTransform="matrix(0.98, -0.21, 0.21, 0.98, -224.1, -694.27)" gradientUnits="userSpaceOnUse"><stop offset="0" stop-color="#fabd66"/><stop offset="1" stop-color="#faec80"/></linearGradient><linearGradient id="linear-gradient-56" x1="460.45" y1="1015.35" x2="487.97" y2="1015.35" gradientTransform="matrix(0.82, -0.57, 0.57, 0.82, -521.63, -349.17)" xlink:href="#linear-gradient"/><linearGradient id="linear-gradient-57" x1="437.87" y1="982.03" x2="473.81" y2="982.03" gradientTransform="matrix(0.82, -0.57, 0.57, 0.82, -506.25, -367.29)" xlink:href="#linear-gradient-46"/><linearGradient id="linear-gradient-58" x1="439.24" y1="983.01" x2="473.08" y2="983.01" gradientTransform="matrix(0.82, -0.57, 0.57, 0.82, -507.6, -366.84)" xlink:href="#linear-gradient-49"/><linearGradient id="linear-gradient-59" x1="431.12" y1="985.92" x2="439.35" y2="985.92" gradientTransform="matrix(0.82, -0.57, 0.57, 0.82, -513.08, -377.87)" xlink:href="#linear-gradient-46"/><linearGradient id="linear-gradient-60" x1="464.63" y1="959.06" x2="479.14" y2="959.06" gradientTransform="matrix(0.82, -0.57, 0.57, 0.82, -490.97, -362.44)" xlink:href="#linear-gradient-46"/><linearGradient id="linear-gradient-61" x1="402.55" y1="1117.12" x2="419.94" y2="1117.12" gradientTransform="matrix(0.82, -0.57, 0.57, 0.82, -592.89, -367.84)" xlink:href="#linear-gradient-9"/><linearGradient id="linear-gradient-62" x1="404.03" y1="1116.92" x2="422.68" y2="1116.92" gradientTransform="matrix(0.82, -0.57, 0.57, 0.82, -592.75, -366.46)" xlink:href="#linear-gradient"/><linearGradient id="linear-gradient-63" x1="414.85" y1="1107.12" x2="457.78" y2="1107.12" gradientTransform="matrix(0.82, -0.57, 0.57, 0.82, -582.22, -355.42)" xlink:href="#linear-gradient-9"/><linearGradient id="linear-gradient-64" x1="442.9" y1="1119.02" x2="451.37" y2="1119.02" gradientTransform="matrix(0.82, -0.57, 0.57, 0.82, -587.31, -347.55)" xlink:href="#linear-gradient-9"/><linearGradient id="linear-gradient-65" x1="441.61" y1="1119.18" x2="449.19" y2="1119.18" gradientTransform="matrix(0.82, -0.57, 0.57, 0.82, -587.85, -348.88)" xlink:href="#linear-gradient"/><linearGradient id="linear-gradient-66" x1="422.02" y1="1050.66" x2="424.43" y2="1050.66" gradientTransform="matrix(0.82, -0.57, 0.57, 0.82, -552.33, -373.22)" xlink:href="#linear-gradient-46"/><linearGradient id="linear-gradient-67" x1="433.9" y1="1050.66" x2="436.97" y2="1050.66" gradientTransform="matrix(0.82, -0.57, 0.57, 0.82, -550.12, -366.21)" xlink:href="#linear-gradient-49"/><linearGradient id="linear-gradient-68" x1="407.09" y1="1106.98" x2="434.8" y2="1106.98" gradientTransform="matrix(0.82, -0.57, 0.57, 0.82, -584.8, -364.42)" gradientUnits="userSpaceOnUse"><stop offset="0" stop-color="#531a00"/><stop offset="1" stop-color="#b33900"/></linearGradient><linearGradient id="linear-gradient-69" x1="438" y1="1073.39" x2="457.28" y2="1073.39" gradientTransform="matrix(0.82, -0.57, 0.57, 0.82, -562.38, -352.85)" xlink:href="#linear-gradient-46"/><linearGradient id="linear-gradient-70" x1="441.36" y1="1079.01" x2="459.98" y2="1079.01" gradientTransform="matrix(0.82, -0.57, 0.57, 0.82, -564.19, -350.72)" xlink:href="#linear-gradient-49"/><linearGradient id="linear-gradient-71" x1="441.82" y1="1067.43" x2="452.28" y2="1067.43" gradientTransform="matrix(0.82, -0.57, 0.57, 0.82, -557.85, -355.8)" xlink:href="#linear-gradient-9"/><linearGradient id="linear-gradient-72" x1="399.12" y1="1079.9" x2="423.16" y2="1079.9" gradientTransform="matrix(0.82, -0.57, 0.57, 0.82, -570.14, -377.44)" xlink:href="#linear-gradient-46"/><linearGradient id="linear-gradient-73" x1="401.38" y1="1068.98" x2="419.65" y2="1068.98" gradientTransform="matrix(0.82, -0.57, 0.57, 0.82, -564.74, -377.62)" xlink:href="#linear-gradient-9"/><linearGradient id="linear-gradient-74" x1="201.78" y1="131.55" x2="202.11" y2="123.39" gradientUnits="userSpaceOnUse"><stop offset="0" stop-color="#b0705f"/><stop offset="1" stop-color="#ffc0af"/></linearGradient><linearGradient id="linear-gradient-75" x1="408.93" y1="1078.75" x2="449.94" y2="1078.75" gradientTransform="matrix(0.82, -0.57, 0.57, 0.82, -767.9, -486.17)" xlink:href="#linear-gradient-9"/><linearGradient id="linear-gradient-76" x1="402.88" y1="251.05" x2="402.84" y2="259.93" xlink:href="#linear-gradient-74"/><linearGradient id="linear-gradient-77" x1="434.23" y1="1081.06" x2="447.66" y2="1081.06" gradientTransform="matrix(0.82, -0.57, 0.57, 0.82, -566.31, -358.38)" xlink:href="#linear-gradient-9"/><linearGradient id="linear-gradient-78" x1="422.98" y1="1050.33" x2="437.65" y2="1050.33" gradientTransform="matrix(0.82, -0.57, 0.57, 0.82, -551.45, -369.63)" xlink:href="#linear-gradient-46"/><linearGradient id="linear-gradient-79" x1="425.89" y1="1049.58" x2="437.87" y2="1049.58" gradientTransform="matrix(0.82, -0.57, 0.57, 0.82, -551.14, -368.81)" xlink:href="#linear-gradient-49"/><linearGradient id="linear-gradient-80" x1="406.71" y1="1091.85" x2="450.21" y2="1091.85" gradientTransform="matrix(0.82, -0.57, 0.57, 0.82, -775.77, -483.95)" xlink:href="#linear-gradient-4"/><linearGradient id="linear-gradient-81" x1="412.19" y1="1103.05" x2="445.1" y2="1103.05" gradientTransform="matrix(0.82, -0.57, 0.57, 0.82, -782.3, -481.9)" gradientUnits="userSpaceOnUse"><stop offset="0" stop-color="#829dae"/><stop offset="1" stop-color="#d2edfe"/></linearGradient><linearGradient id="linear-gradient-82" x1="270.15" y1="1103.82" x2="277.59" y2="1103.82" gradientTransform="matrix(0.82, -0.57, 0.57, 0.82, -610.05, -449.77)" xlink:href="#linear-gradient-49"/><linearGradient id="linear-gradient-83" x1="259.71" y1="1089.79" x2="264.63" y2="1089.79" gradientTransform="matrix(0.82, -0.57, 0.57, 0.82, -603.49, -458.5)" xlink:href="#linear-gradient-49"/><linearGradient id="linear-gradient-84" x1="251.72" y1="1079" x2="259.65" y2="1079" gradientTransform="matrix(0.82, -0.57, 0.57, 0.82, -598.63, -464.5)" xlink:href="#linear-gradient"/><linearGradient id="linear-gradient-85" x1="225.69" y1="1115.64" x2="240.62" y2="1115.64" gradientTransform="matrix(0.82, -0.57, 0.57, 0.82, -624.18, -470.15)" xlink:href="#linear-gradient"/><linearGradient id="linear-gradient-86" x1="226.78" y1="1117.38" x2="242.15" y2="1117.38" gradientTransform="matrix(0.82, -0.57, 0.57, 0.82, -624.33, -469.15)" xlink:href="#linear-gradient-9"/><linearGradient id="linear-gradient-87" x1="234.35" y1="1103.67" x2="266.06" y2="1103.67" gradientTransform="matrix(0.82, -0.57, 0.57, 0.82, -613.39, -460.05)" xlink:href="#linear-gradient-68"/><linearGradient id="linear-gradient-88" x1="241.26" y1="1054.19" x2="261.95" y2="1054.19" gradientTransform="matrix(0.82, -0.57, 0.57, 0.82, -586.01, -470.92)" xlink:href="#linear-gradient-46"/><linearGradient id="linear-gradient-89" x1="241.16" y1="1053.1" x2="261.85" y2="1053.1" gradientTransform="matrix(0.82, -0.57, 0.57, 0.82, -585.98, -471.06)" xlink:href="#linear-gradient-49"/><linearGradient id="linear-gradient-90" x1="225.49" y1="1122.3" x2="240.39" y2="1122.3" gradientTransform="matrix(0.82, -0.57, 0.57, 0.82, -627.99, -469.09)" xlink:href="#linear-gradient"/><linearGradient id="linear-gradient-91" x1="226.6" y1="1123.76" x2="242.11" y2="1123.76" gradientTransform="matrix(0.82, -0.57, 0.57, 0.82, -628.09, -468.07)" xlink:href="#linear-gradient-9"/><linearGradient id="linear-gradient-92" x1="233.55" y1="1108.85" x2="266.2" y2="1108.85" gradientTransform="matrix(0.82, -0.57, 0.57, 0.82, -616.64, -459.65)" xlink:href="#linear-gradient-9"/><linearGradient id="linear-gradient-93" x1="226.68" y1="1080.3" x2="260.34" y2="1080.3" gradientTransform="matrix(0.82, -0.57, 0.57, 0.82, -601.37, -470.03)" xlink:href="#linear-gradient-9"/><linearGradient id="linear-gradient-94" x1="242.73" y1="1079.97" x2="255.56" y2="1079.97" gradientTransform="matrix(0.82, -0.57, 0.57, 0.82, -601.51, -466.76)" xlink:href="#linear-gradient"/><linearGradient id="linear-gradient-95" x1="250.15" y1="1077.11" x2="271.61" y2="1077.11" gradientTransform="matrix(0.82, -0.57, 0.57, 0.82, -597.38, -460.52)" xlink:href="#linear-gradient-46"/><linearGradient id="linear-gradient-96" x1="245.86" y1="1074.72" x2="256.85" y2="1074.72" gradientTransform="matrix(0.82, -0.57, 0.57, 0.82, -597.47, -467.17)" xlink:href="#linear-gradient"/><linearGradient id="linear-gradient-97" x1="276.47" y1="1082.71" x2="287.58" y2="1082.71" gradientTransform="matrix(0.82, -0.57, 0.57, 0.82, -596.19, -448.58)" xlink:href="#linear-gradient-46"/></defs><g class="cls-2"><g id="Layer_1" data-name="Layer 1"><g class="cls-3"><path class="cls-4" d="M139,10.11h0A123.45,123.45,0,0,1,262.41,133.56V234.63a10.25,10.25,0,0,1-10.25,10.25H25.76a10.25,10.25,0,0,1-10.25-10.25V133.56A123.45,123.45,0,0,1,139,10.11Z"/></g><path class="cls-5" d="M299.7,176.45c.15.12.33.24.47.37,13.69,10.84,14.3,27.17-2.89,35.6a.21.21,0,0,1,0,.11,11.11,11.11,0,0,1-.58,1.8c-4.48,11.35-22.63,18.93-34.06,7a58.25,58.25,0,0,1-6.31-7.94c-.27-.42-.54-.83-.8-1.27a79.55,79.55,0,0,1-6.79-13.53c-.18-.44-.35-.89-.52-1.35a95.48,95.48,0,0,1-3.81-12.83c-.1-.48-.2-1-.31-1.43a94.2,94.2,0,0,1-1.92-16.22c0-.22,0-.43,0-.65.45-.08.91-.15,1.36-.2a87,87,0,0,1,18-.63l1.47.1a104.31,104.31,0,0,1,17.24,2.8c.48.11.94.24,1.4.36,7.21,1.93,13.36,4.52,17.38,7.39C299.23,176.1,299.46,176.28,299.7,176.45Z" transform="translate(-200.9 -121.26)"/><path class="cls-6" d="M287.37,202l12.8-25.18c-.14-.13-.32-.25-.47-.37s-.47-.35-.73-.52l-12.7,25c-3.77-3.7-7.67-7.26-11.56-10.67l6.88-21.72c-.46-.12-.92-.25-1.4-.36l-6.67,21c-4.69-4.05-9.35-7.82-13.76-11.23h0L263,165.38l-1.47-.1-3,11.74h0c-5.7-4.44-10.91-8.2-15-11.11a12.92,12.92,0,0,0-1.37.2c0,.23,0,.44,0,.65,3.79,2.67,9.22,6.59,15.41,11.4h0L244.06,183c.11.46.21,1,.31,1.43l14.4-5.15-.08-.19c4.22,3.28,8.75,7,13.34,11h0l-23.85,7.22c.17.46.34.91.52,1.35l24.62-7.46h0c4,3.51,8,7.2,11.94,11.06h0l-29.77,9.92c.26.44.53.85.8,1.27l30-10-.08-.27h0c3.64,3.64,7.16,7.4,10.46,11.23l.57-1.81c-3.11-3.6-6.44-7.09-9.87-10.52Z" transform="translate(-200.9 -121.26)"/><rect class="cls-7" x="77.95" width="126.12" height="169.48" rx="7.34"/><rect class="cls-6" x="82.42" y="8.63" width="117.18" height="146.81" rx="5"/><path class="cls-8" d="M338.06,284a3.85,3.85,0,1,1,3.85,3.85A3.85,3.85,0,0,1,338.06,284Z" transform="translate(-200.9 -121.26)"/><rect class="cls-9" x="132.58" y="4.07" width="16.86" height="1"/><rect class="cls-10" x="291.07" y="135.76" width="64.69" height="66.78" rx="3" transform="translate(-46.63 371.31) rotate(-90)"/><rect class="cls-11" x="346.15" y="153.59" width="64.69" height="31.12" rx="3" transform="translate(8.45 426.39) rotate(-90)"/><rect class="cls-12" x="328.32" y="204.95" width="64.69" height="66.78" rx="3" transform="translate(398.12 -243.58) rotate(90)"/><rect class="cls-13" x="34.26" y="9.99" width="32.43" height="15.64" rx="2.83"/><path class="cls-6" d="M244.09,136.59v4.7H243v-1.93h-2.13v1.93h-1.09v-4.7h1.09v1.85H243v-1.85Z" transform="translate(-200.9 -121.26)"/><path class="cls-6" d="M247.51,137.48H246v-.89h4.09v.89h-1.5v3.81h-1.09Z" transform="translate(-200.9 -121.26)"/><path class="cls-6" d="M256.3,141.29v-2.82l-1.38,2.32h-.49l-1.37-2.26v2.76h-1v-4.7h.9l1.75,2.92,1.73-2.92h.89l0,4.7Z" transform="translate(-200.9 -121.26)"/><path class="cls-6" d="M259.77,136.59h1.09v3.81h2.35v.89h-3.44Z" transform="translate(-200.9 -121.26)"/><rect class="cls-14" x="273.24" y="222.78" width="64.69" height="31.12" rx="3" transform="translate(343.04 -188.5) rotate(90)"/><rect class="cls-15" x="135.99" y="95.23" width="2.04" height="2.04"/><rect class="cls-16" x="135.99" y="99.46" width="2.04" height="2.04"/><rect class="cls-17" x="135.99" y="103.69" width="2.04" height="2.04"/><rect class="cls-18" x="135.99" y="107.93" width="2.04" height="2.04"/><rect class="cls-19" x="135.99" y="112.16" width="2.04" height="2.04"/><rect class="cls-20" x="135.99" y="116.39" width="2.04" height="2.04"/><rect class="cls-21" x="135.99" y="120.62" width="2.04" height="2.04"/><rect class="cls-22" x="135.99" y="124.86" width="2.04" height="2.04"/><rect class="cls-23" x="135.99" y="129.09" width="2.04" height="2.04"/><rect class="cls-24" x="135.99" y="133.32" width="2.04" height="2.04"/><rect class="cls-25" x="135.99" y="137.56" width="2.04" height="2.04"/><rect class="cls-26" x="144.59" y="95.23" width="10.14" height="2.04"/><rect class="cls-26" x="156.16" y="95.23" width="18.74" height="2.04"/><rect class="cls-26" x="150.98" y="99.46" width="10.14" height="2.04"/><rect class="cls-26" x="162.55" y="99.46" width="5.46" height="2.04"/><rect class="cls-26" x="169.44" y="99.46" width="14.11" height="2.04"/><rect class="cls-26" x="154.01" y="103.69" width="10.14" height="2.04"/><rect class="cls-26" x="144.59" y="107.93" width="10.14" height="2.04"/><rect class="cls-26" x="150.98" y="112.16" width="10.14" height="2.04"/><rect class="cls-26" x="162.55" y="112.16" width="5.46" height="2.04"/><rect class="cls-26" x="154.01" y="116.39" width="10.14" height="2.04"/><rect class="cls-26" x="165.59" y="116.39" width="9.31" height="2.04"/><rect class="cls-26" x="144.59" y="120.62" width="10.14" height="2.04"/><rect class="cls-26" x="150.98" y="124.86" width="10.14" height="2.04"/><rect class="cls-26" x="169.44" y="124.86" width="14.11" height="2.04"/><rect class="cls-26" x="154.01" y="129.09" width="10.14" height="2.04"/><rect class="cls-26" x="144.59" y="133.32" width="10.14" height="2.04"/><rect class="cls-26" x="156.16" y="133.32" width="18.74" height="2.04"/><rect class="cls-26" x="162.55" y="137.56" width="5.46" height="2.04"/><rect class="cls-26" x="169.44" y="137.56" width="14.11" height="2.04"/><path class="cls-27" d="M307.6,207.34v34.15a5,5,0,0,1-5,5H278.85V202.38h23.78A5,5,0,0,1,307.6,207.34Z" transform="translate(-200.9 -121.26)"/><path class="cls-28" d="M341.59,303.5V259.63a2.22,2.22,0,0,0-2.22-2.21H264a2.22,2.22,0,0,0-2.22,2.21V303.5Z" transform="translate(-200.9 -121.26)"/><polygon class="cls-29" points="150.81 197.58 50.74 197.58 60.87 179.71 140.69 179.71 150.81 197.58"/><path class="cls-30" d="M348.75,320.31H254.6a3.54,3.54,0,0,1-2.47-1l-.49-.47H351.71l-.49.47A3.54,3.54,0,0,1,348.75,320.31Z" transform="translate(-200.9 -121.26)"/><rect class="cls-31" x="283.2" y="242.59" width="36.95" height="73.22" transform="translate(379.98 -143.74) rotate(90)"/><path class="cls-32" d="M309.92,316.39H293.43a.49.49,0,0,1-.46-.67l2.14-5.54a1.19,1.19,0,0,1,1.11-.76h10.91a1.19,1.19,0,0,1,1.11.76l2.14,5.54A.49.49,0,0,1,309.92,316.39Z" transform="translate(-200.9 -121.26)"/><rect class="cls-33" x="98.74" y="25.8" width="2.04" height="2.04"/><rect class="cls-34" x="98.74" y="30.03" width="2.04" height="2.04"/><rect class="cls-35" x="98.74" y="34.26" width="2.04" height="2.04"/><rect class="cls-36" x="98.74" y="38.49" width="2.04" height="2.04"/><rect class="cls-37" x="98.74" y="42.73" width="2.04" height="2.04"/><rect class="cls-38" x="98.74" y="46.96" width="2.04" height="2.04"/><rect class="cls-39" x="98.74" y="51.19" width="2.04" height="2.04"/><rect class="cls-40" x="98.74" y="55.43" width="2.04" height="2.04"/><rect class="cls-41" x="98.74" y="59.66" width="2.04" height="2.04"/><rect class="cls-42" x="98.74" y="63.89" width="2.04" height="2.04"/><rect class="cls-43" x="98.74" y="68.12" width="2.04" height="2.04"/><rect class="cls-26" x="107.34" y="25.8" width="10.14" height="2.04"/><rect class="cls-26" x="118.91" y="25.8" width="18.74" height="2.04"/><rect class="cls-26" x="113.73" y="30.03" width="10.14" height="2.04"/><rect class="cls-26" x="125.3" y="30.03" width="5.46" height="2.04"/><rect class="cls-26" x="132.19" y="30.03" width="14.11" height="2.04"/><rect class="cls-26" x="116.76" y="34.26" width="10.14" height="2.04"/><rect class="cls-26" x="107.34" y="38.49" width="10.14" height="2.04"/><rect class="cls-26" x="113.73" y="42.73" width="10.14" height="2.04"/><rect class="cls-26" x="125.3" y="42.73" width="5.46" height="2.04"/><rect class="cls-26" x="132.19" y="42.73" width="14.11" height="2.04"/><rect class="cls-26" x="116.76" y="46.96" width="10.14" height="2.04"/><rect class="cls-26" x="128.34" y="46.96" width="9.31" height="2.04"/><rect class="cls-26" x="107.34" y="51.19" width="10.14" height="2.04"/><rect class="cls-26" x="118.91" y="51.19" width="18.74" height="2.04"/><rect class="cls-26" x="113.73" y="55.43" width="10.14" height="2.04"/><rect class="cls-26" x="132.19" y="55.43" width="14.11" height="2.04"/><rect class="cls-26" x="116.76" y="59.66" width="10.14" height="2.04"/><rect class="cls-26" x="107.34" y="63.89" width="10.14" height="2.04"/><rect class="cls-26" x="118.91" y="63.89" width="18.74" height="2.04"/><rect class="cls-26" x="125.3" y="68.12" width="5.46" height="2.04"/><rect class="cls-26" x="132.19" y="68.12" width="14.11" height="2.04"/><rect class="cls-44" x="56.62" y="76.11" width="44.08" height="44.08" rx="4.97"/><path class="cls-6" d="M274.93,217.24l-6,2.21,6,2.2v2.26l-8.64-3.28v-2.36l8.64-3.28Z" transform="translate(-200.9 -121.26)"/><path class="cls-6" d="M281.43,210.52H284l-6,17.1h-2.52Z" transform="translate(-200.9 -121.26)"/><path class="cls-6" d="M292.91,218.27v2.36l-8.63,3.28v-2.26l6-2.2-6-2.21V215Z" transform="translate(-200.9 -121.26)"/><path class="cls-45" d="M386.26,195.19H370.73a3.52,3.52,0,0,1-3.5-3.5h0a3.51,3.51,0,0,1,3.5-3.5h15.53a3.5,3.5,0,0,1,3.5,3.5h0A3.51,3.51,0,0,1,386.26,195.19Z" transform="translate(-200.9 -121.26)"/><path class="cls-6" d="M374.91,192.58a1.07,1.07,0,0,1-.55-1,1,1,0,0,1,.15-.56,1,1,0,0,1,.4-.39,1.28,1.28,0,0,1,.59-.14,1.3,1.3,0,0,1,.49.1,1,1,0,0,1,.37.27l-.31.29a.68.68,0,0,0-.53-.24.82.82,0,0,0-.35.08.69.69,0,0,0-.24.24.81.81,0,0,0,0,.7.69.69,0,0,0,.24.24.82.82,0,0,0,.35.08.66.66,0,0,0,.53-.25l.31.29a.93.93,0,0,1-.37.28,1.31,1.31,0,0,1-.5.1A1.27,1.27,0,0,1,374.91,192.58Z" transform="translate(-200.9 -121.26)"/><path class="cls-6" d="M377.48,192.65a1.16,1.16,0,0,1-.37-.18l.16-.36a1.37,1.37,0,0,0,.32.16,1.24,1.24,0,0,0,.37.06.62.62,0,0,0,.31-.07.17.17,0,0,0,.1-.16.14.14,0,0,0-.06-.12.36.36,0,0,0-.15-.08,1.64,1.64,0,0,0-.25-.07l-.39-.11a.61.61,0,0,1-.26-.19.44.44,0,0,1-.11-.33.54.54,0,0,1,.1-.33.64.64,0,0,1,.29-.24,1.22,1.22,0,0,1,.49-.09,1.75,1.75,0,0,1,.4.05,1.1,1.1,0,0,1,.33.14l-.15.37a1.17,1.17,0,0,0-.58-.17.55.55,0,0,0-.3.07.19.19,0,0,0-.1.17.16.16,0,0,0,.11.16,1.83,1.83,0,0,0,.35.11,3.33,3.33,0,0,1,.39.11.68.68,0,0,1,.26.18.44.44,0,0,1,.11.33.56.56,0,0,1-.1.33.73.73,0,0,1-.3.24,1.19,1.19,0,0,1-.49.09A1.85,1.85,0,0,1,377.48,192.65Z" transform="translate(-200.9 -121.26)"/><path class="cls-6" d="M380,192.65a1.28,1.28,0,0,1-.37-.18l.17-.36a1.2,1.2,0,0,0,.32.16,1.15,1.15,0,0,0,.37.06.55.55,0,0,0,.3-.07.17.17,0,0,0,.1-.16.14.14,0,0,0-.06-.12.27.27,0,0,0-.15-.08l-.24-.07-.4-.11a.61.61,0,0,1-.26-.19.49.49,0,0,1-.11-.33.61.61,0,0,1,.1-.33.73.73,0,0,1,.3-.24,1.19,1.19,0,0,1,.49-.09,1.74,1.74,0,0,1,.39.05,1.16,1.16,0,0,1,.34.14l-.15.37a1.21,1.21,0,0,0-.59-.17.6.6,0,0,0-.3.07.2.2,0,0,0-.09.17.15.15,0,0,0,.11.16,1.69,1.69,0,0,0,.34.11,3.33,3.33,0,0,1,.39.11.71.71,0,0,1,.27.18.49.49,0,0,1,.11.33.64.64,0,0,1-.1.33.7.7,0,0,1-.31.24,1.14,1.14,0,0,1-.48.09A2,2,0,0,1,380,192.65Z" transform="translate(-200.9 -121.26)"/><path class="cls-26" d="M385.43,153.61H381.8a.36.36,0,0,1,0-.71h3.63a.36.36,0,0,1,0,.71Z" transform="translate(-200.9 -121.26)"/><path class="cls-26" d="M380.21,153.61h-8.64a.36.36,0,1,1,0-.71h8.64a.36.36,0,1,1,0,.71Z" transform="translate(-200.9 -121.26)"/><path class="cls-26" d="M385.43,147.25H381.8a.36.36,0,0,1,0-.71h3.63a.36.36,0,0,1,0,.71Z" transform="translate(-200.9 -121.26)"/><path class="cls-26" d="M380.21,147.25h-8.64a.36.36,0,1,1,0-.71h8.64a.36.36,0,1,1,0,.71Z" transform="translate(-200.9 -121.26)"/><path class="cls-26" d="M375.19,150.64h-3.62a.36.36,0,1,1,0-.71h3.62a.36.36,0,1,1,0,.71Z" transform="translate(-200.9 -121.26)"/><path class="cls-26" d="M385.43,150.64h-8.65a.36.36,0,0,1,0-.71h8.65a.36.36,0,0,1,0,.71Z" transform="translate(-200.9 -121.26)"/><path class="cls-26" d="M385.43,166.61H381.8a.36.36,0,0,1,0-.71h3.63a.36.36,0,0,1,0,.71Z" transform="translate(-200.9 -121.26)"/><path class="cls-26" d="M380.21,166.61h-8.64a.36.36,0,1,1,0-.71h8.64a.36.36,0,1,1,0,.71Z" transform="translate(-200.9 -121.26)"/><path class="cls-26" d="M385.43,160.25H381.8a.36.36,0,0,1,0-.71h3.63a.36.36,0,0,1,0,.71Z" transform="translate(-200.9 -121.26)"/><path class="cls-26" d="M380.21,160.25h-8.64a.36.36,0,1,1,0-.71h8.64a.36.36,0,1,1,0,.71Z" transform="translate(-200.9 -121.26)"/><path class="cls-26" d="M375.19,163.64h-3.62a.36.36,0,1,1,0-.71h3.62a.36.36,0,1,1,0,.71Z" transform="translate(-200.9 -121.26)"/><path class="cls-26" d="M385.43,163.64h-8.65a.36.36,0,0,1,0-.71h8.65a.36.36,0,0,1,0,.71Z" transform="translate(-200.9 -121.26)"/><path class="cls-26" d="M385.43,179.61H381.8a.36.36,0,0,1,0-.71h3.63a.36.36,0,0,1,0,.71Z" transform="translate(-200.9 -121.26)"/><path class="cls-26" d="M380.21,179.61h-8.64a.36.36,0,1,1,0-.71h8.64a.36.36,0,1,1,0,.71Z" transform="translate(-200.9 -121.26)"/><path class="cls-26" d="M385.43,173.25H381.8a.36.36,0,0,1,0-.71h3.63a.36.36,0,0,1,0,.71Z" transform="translate(-200.9 -121.26)"/><path class="cls-26" d="M380.21,173.25h-8.64a.36.36,0,1,1,0-.71h8.64a.36.36,0,1,1,0,.71Z" transform="translate(-200.9 -121.26)"/><path class="cls-26" d="M375.19,176.64h-3.62a.36.36,0,1,1,0-.71h3.62a.36.36,0,1,1,0,.71Z" transform="translate(-200.9 -121.26)"/><path class="cls-26" d="M385.43,176.64h-8.65a.36.36,0,0,1,0-.71h8.65a.36.36,0,0,1,0,.71Z" transform="translate(-200.9 -121.26)"/><path class="cls-46" d="M313.45,271.59l-7.64,6.75-.75.66a6.37,6.37,0,0,0-3.38-.95,6.52,6.52,0,0,0-6.52,6.52,6.38,6.38,0,0,0,.86,3.23l-9.54,5.49A17.53,17.53,0,0,1,311.39,270,18.06,18.06,0,0,1,313.45,271.59Z" transform="translate(-200.9 -121.26)"/><path class="cls-47" d="M319.2,284.57a17.54,17.54,0,0,1-2.33,8.72l-9.53-5.48a6.52,6.52,0,0,0-.76-7.54l7.25-8.33A17.47,17.47,0,0,1,319.2,284.57Z" transform="translate(-200.9 -121.26)"/><path class="cls-48" d="M314.06,271.68l-.23.26-7.25,8.33-3.92,4.5a1.36,1.36,0,0,1-1,.47,1.37,1.37,0,0,1-.92-2.4l4.35-3.84.75-.66,7.64-6.75.27-.24A.24.24,0,0,1,314.06,271.68Z" transform="translate(-200.9 -121.26)"/><path class="cls-49" d="M405,223.74l-.74.31a2.54,2.54,0,0,1-3.33-1.35l-28.47-67.58a2.55,2.55,0,0,1,1.36-3.33l13-5.46a2.54,2.54,0,0,1,3.33,1.35L405,183Z" transform="translate(-200.9 -121.26)"/><path d="M438,144.81c-1.1,12.35-4.35,19.83-2.79,23.58s7.94-3.06,7.94-3.06l1.87-8.94Z" transform="translate(-200.9 -121.26)"/><path class="cls-50" d="M443.91,254.79l-.35.11c-2.84.8-7.57,1.24-10.15,3.24s2,3.63,6,3.16c1.61-.19,2.55-1.1,3.49-1.32,1.25-.28,2.28.13,3,0,1.32-.34,1.46-2.18,1.05-4.44S443.91,254.79,443.91,254.79Z" transform="translate(-200.9 -121.26)"/><path class="cls-51" d="M439.66,164.61c-7,3.29-11.65,6.83-17.79,9.27a133.31,133.31,0,0,1-14.29-.61c-.89-.22-1.74,1.51-.07,2s9.34,3.67,14.15,2.68c3.21-.65,16.4-4.73,18.61-6.51S443.58,162.77,439.66,164.61Z" transform="translate(-200.9 -121.26)"/><path class="cls-52" d="M449.5,200.59c-.57-.91-1-1.54-.64-2,0,0-1.92-2.17-5.74.41-2.56,1.47-5.76,16.54-4.24,27.44.84,3.9,4.09,22.43,4.62,25.24a11.52,11.52,0,0,0,.57,2,1.74,1.74,0,0,0-.12.14c-.72,1.26-4.73,2-5.86,2.33-4.12,1.16-2.66,4,1.38,2.84,3.63-1.05,5.61-1.15,6.75-3.24l.15-2.13c1.09-4.11,2.61-18.75-1.85-26.37,1.94-2.28,1.53-6.83,5.51-15.53C452.75,205.77,450.72,202.54,449.5,200.59Z" transform="translate(-200.9 -121.26)"/><path class="cls-53" d="M449.7,258.3l-.36.1c-2.92.83-7.78,1.28-10.42,3.34s2,3.72,6.16,3.23a35.6,35.6,0,0,0,3.69-.53c1.29-.3,2.23-.69,2.94-.87,1.35-.34,1.5-2.23,1.08-4.55S449.7,258.3,449.7,258.3Z" transform="translate(-200.9 -121.26)"/><path class="cls-54" d="M450,211.72c-4,8.7-3.57,13.25-5.51,15.53,4.79,8.18,2.68,24.47,1.61,27.11a.27.27,0,0,1-.07.08,3.55,3.55,0,0,1-.19-.69,17,17,0,0,1,.12-3.56,19,19,0,0,0-.22-3.28c-.33-2.67-.65-5.32-1-8a69.08,69.08,0,0,0-1.89-10.7,6.54,6.54,0,0,1-.39-3.08,6.93,6.93,0,0,1,.72-1.68,25.06,25.06,0,0,0,2-6.35,23.67,23.67,0,0,1,1-3.75c.34-.86.79-1.67,1.15-2.53a21.14,21.14,0,0,0,1.2-4.09c.41-1.89.45-4.22,1-6.15C450.72,202.54,452.75,205.77,450,211.72Z" transform="translate(-200.9 -121.26)"/><path class="cls-55" d="M455.41,204.2c-.57-.91-1-1.54-.64-2,0,0-1.92-2.16-5.74.42-2.56,1.47-5.76,16.54-4.24,27.44.84,3.9,4.09,22.43,4.63,25.24a13.46,13.46,0,0,0,.48,1.84,1.16,1.16,0,0,0-.16.2c-.74,1.29-4.85,2.06-6,2.39-4.23,1.18-2.45,4.49,1.69,3.29,3.74-1.08,5.49-1.55,6.66-3.71l.12-1.72c1.09-3.61,2.83-18.86-1.76-26.69,1.94-2.28,1.53-6.83,5.51-15.53C458.66,209.38,456.63,206.15,455.41,204.2Z" transform="translate(-200.9 -121.26)"/><path class="cls-56" d="M455.94,215.33c-4,8.7-3.57,13.25-5.51,15.53,4.79,8.18,2.68,24.47,1.61,27.11a.27.27,0,0,1-.07.08,3.55,3.55,0,0,1-.19-.69,17,17,0,0,1,.12-3.56,18.9,18.9,0,0,0-.22-3.28c-.33-2.67-.65-5.32-1-8a69.41,69.41,0,0,0-1.89-10.71,6.5,6.5,0,0,1-.39-3.07,6.93,6.93,0,0,1,.72-1.68,25,25,0,0,0,2-6.36,23.83,23.83,0,0,1,.95-3.74c.34-.86.79-1.67,1.15-2.53a21.14,21.14,0,0,0,1.2-4.09c.41-1.89.45-4.22,1-6.15C456.63,206.15,458.66,209.38,455.94,215.33Z" transform="translate(-200.9 -121.26)"/><path class="cls-57" d="M457.56,219.47a7.16,7.16,0,0,1-3.84,1.81c-2.34.45-7.41,4.78-10.35,4.15-6.28-1.34-7.37-3.24-7.83-3.32.62-5.14,2.62-21.2,3.87-26.84a8,8,0,0,0,.16-2.47c2.67-1.36,9.27-3.11,11.13-3.67,1.6,4.11,4.95,7.72,5.81,11.84A73.83,73.83,0,0,1,457.56,219.47Z" transform="translate(-200.9 -121.26)"/><path class="cls-58" d="M449.88,185.12a24.89,24.89,0,0,0,1.27,4,6.17,6.17,0,0,1-2.81,2.29h0c-2.95,1.33-7.05,1.37-8.82.21h0a13,13,0,0,0-.85-3.42c-1.37-3.65-4-7.77-5.37-14.06-.86-4.89,6.24-9.84,9.32-13.16a5.78,5.78,0,0,1,6.13-.94,7.61,7.61,0,0,0,2.92.61c-2.25,6.16-1,14.8-1.82,21.85a10,10,0,0,0,0,2.62Z" transform="translate(-200.9 -121.26)"/><path class="cls-59" d="M449.88,185.12a24.89,24.89,0,0,0,1.27,4,6.17,6.17,0,0,1-2.81,2.29h0a6.27,6.27,0,0,1-.42-.59,7.56,7.56,0,0,1-.88-2.19,10.32,10.32,0,0,1-.32-2.59,18.68,18.68,0,0,1,.45-3.31l.72-3.59c.74-3.75-.24-13.47.56-17.22.12-.55.19-1.22.3-1.89a7.61,7.61,0,0,0,2.92.61c-2.25,6.16-1,14.8-1.82,21.85a10,10,0,0,0,0,2.62Z" transform="translate(-200.9 -121.26)"/><rect class="cls-60" x="389.91" y="139.98" width="19.17" height="78.41" rx="2.54" transform="translate(-239.13 47.89) rotate(-22.84)"/><rect class="cls-26" x="387.7" y="148.76" width="8.16" height="1" transform="translate(-228.11 42.68) rotate(-22.86)"/><rect class="cls-26" x="392.39" y="149.81" width="4.08" height="1" transform="translate(-228.31 43.8) rotate(-22.86)"/><rect class="cls-26" x="393.17" y="151.65" width="4.08" height="1" transform="translate(-228.96 44.23) rotate(-22.86)"/><rect class="cls-26" x="393.94" y="153.49" width="4.08" height="1" transform="translate(-229.62 44.64) rotate(-22.86)"/><rect class="cls-26" x="394.72" y="155.34" width="4.08" height="1" transform="translate(-230.27 45.14) rotate(-22.86)"/><rect class="cls-26" x="391.58" y="157.97" width="8.16" height="1" transform="translate(-231.38 44.9) rotate(-22.86)"/><rect class="cls-26" x="396.27" y="159.02" width="4.08" height="1" transform="translate(-231.58 45.98) rotate(-22.86)"/><rect class="cls-26" x="397.05" y="160.87" width="4.08" height="1" transform="translate(-232.24 46.48) rotate(-22.86)"/><rect class="cls-26" x="397.83" y="162.71" width="4.08" height="1" transform="translate(-232.89 46.91) rotate(-22.86)"/><rect class="cls-26" x="398.6" y="164.55" width="4.08" height="1" transform="matrix(0.92, -0.39, 0.39, 0.92, -233.55, 47.32)"/><rect class="cls-26" x="395.46" y="167.19" width="8.16" height="1" transform="translate(-234.66 47.14) rotate(-22.86)"/><rect class="cls-26" x="400.16" y="168.24" width="4.08" height="1" transform="translate(-234.86 48.25) rotate(-22.86)"/><rect class="cls-26" x="400.93" y="170.08" width="4.08" height="1" transform="translate(-235.51 48.72) rotate(-22.86)"/><rect class="cls-26" x="401.71" y="171.93" width="4.08" height="1" transform="translate(-236.17 49.14) rotate(-22.86)"/><rect class="cls-26" x="402.49" y="173.77" width="4.08" height="1" transform="translate(-236.82 49.55) rotate(-22.86)"/><rect class="cls-26" x="399.34" y="176.4" width="8.16" height="1" transform="translate(-237.93 49.35) rotate(-22.86)"/><rect class="cls-26" x="404.04" y="177.45" width="4.08" height="1" transform="translate(-238.13 50.48) rotate(-22.86)"/><rect class="cls-26" x="404.81" y="179.3" width="4.08" height="1" transform="translate(-238.79 50.89) rotate(-22.86)"/><rect class="cls-26" x="405.59" y="181.14" width="4.08" height="1" transform="translate(-239.44 51.39) rotate(-22.86)"/><rect class="cls-26" x="406.37" y="182.98" width="4.08" height="1" transform="translate(-240.1 51.82) rotate(-22.86)"/><rect class="cls-26" x="403.22" y="185.62" width="8.16" height="1" transform="translate(-241.21 51.6) rotate(-22.86)"/><rect class="cls-26" x="407.92" y="186.67" width="4.08" height="1" transform="translate(-241.41 52.73) rotate(-22.86)"/><rect class="cls-26" x="408.7" y="188.51" width="4.08" height="1" transform="translate(-242.06 53.16) rotate(-22.86)"/><rect class="cls-26" x="409.47" y="190.36" width="4.08" height="1" transform="translate(-242.72 53.57) rotate(-22.86)"/><rect class="cls-26" x="410.25" y="192.2" width="4.08" height="1" transform="translate(-243.38 54.07) rotate(-22.86)"/><rect class="cls-26" x="407.11" y="194.83" width="8.16" height="1" transform="translate(-244.49 53.83) rotate(-22.86)"/><rect class="cls-26" x="410.99" y="204.05" width="8.16" height="1" transform="translate(-247.76 56.07) rotate(-22.86)"/><rect class="cls-26" x="411.8" y="195.89" width="4.08" height="1" transform="translate(-244.68 54.91) rotate(-22.86)"/><rect class="cls-26" x="412.58" y="197.73" width="4.08" height="1" transform="translate(-245.34 55.39) rotate(-22.86)"/><rect class="cls-26" x="413.36" y="199.57" width="4.08" height="1" transform="translate(-246 55.94) rotate(-22.87)"/><rect class="cls-26" x="414.13" y="201.42" width="4.08" height="1" transform="translate(-246.65 56.26) rotate(-22.86)"/><path class="cls-61" d="M457.3,223.64c-4.11,3.07-11.62,2.28-14.56,1.65,9.41-1.11,12.16-6.72,12.72-13.74.38-4.89-4.32-13.55-5.57-18.18-.68-2.49,1.78-2.39,1.77-3.13C460.78,200.79,458.14,219.16,457.3,223.64Z" transform="translate(-200.9 -121.26)"/><path class="cls-26" d="M439.51,191.62c1.42.59,7.92,1.52,11.64-2.49.71,1.2,2,2.46,2,3-1.54,1.25-9.34,5-13.63,2.18C439.5,193.23,439.51,191.62,439.51,191.62Z" transform="translate(-200.9 -121.26)"/><path class="cls-62" d="M445.3,173.23c-1.92,2.09-14.33,8.14-17.41,9.25-4.61,1.71-12.65-.22-14.39-.5a1.42,1.42,0,0,1-.86-.41,1,1,0,0,1,.61-1.63,134.37,134.37,0,0,0,14.23-1.56c5.69-3.33,9.81-7.55,16.18-11.85,2.63-1.77,3.31,1.52,2.72,4.23A5.22,5.22,0,0,1,445.3,173.23Z" transform="translate(-200.9 -121.26)"/><path class="cls-63" d="M445.3,173.23c-1.92,2.09-14.33,8.14-17.41,9.25-4.61,1.71-12.65-.22-14.39-.5a1.42,1.42,0,0,1-.86-.41,4.56,4.56,0,0,1,1.22-.12c3.33.11,6.67.8,10,.34a28.6,28.6,0,0,0,5.87-1.64,20.53,20.53,0,0,0,3.7-1.59c2.37-1.4,4.21-3.73,6.85-4.58.9-.27,1.85-.38,2.73-.69a8.3,8.3,0,0,0,3.41-2.53A5.22,5.22,0,0,1,445.3,173.23Z" transform="translate(-200.9 -121.26)"/><path class="cls-64" d="M413.86,179.93c-1.14,0-1.11-.62-1.4-1.43s-2.44-.85-3.27-1.05c.29.92.5,1,1.35,1.26s1.34.74,1.28,1c-.74.07-6.32-2-7.12-1.88,1,2.2-.6,3.43.82,4.28a5.52,5.52,0,0,0,5.52,0c.71-.47,2.84-.09,2.84-.09Z" transform="translate(-200.9 -121.26)"/><path class="cls-65" d="M440.19,143.78c-2.14.76-1.8,5.95-1.8,7.65a12.64,12.64,0,0,0,2.6,6.92,22.41,22.41,0,0,0,5-1.22c-.4,1.22-1.26,4.32-1.26,4.32l4.75,1.2,1.8-12.6S450.68,140,440.19,143.78Z" transform="translate(-200.9 -121.26)"/><path d="M438,147.13c-.58-3,0-4.76,1.27-6,1.46-1.48,3.17-2.27,8.74-1.39,6.91,1.1,7.3,5.51,5.35,10.76-.66,1.77,2.29,15.5,2.29,18.71-1.52,2.87-11.55.81-13.19-.18-3.06-1.63,5.45-19.45,5.06-20.87C446.14,143.19,442.66,143.51,438,147.13Z" transform="translate(-200.9 -121.26)"/><path class="cls-66" d="M381.56,319.8a2.2,2.2,0,0,1-1.58-.21c-.25-.2-1-.81-.54-3.42.66-3.46,2-5,4.05-8.15,1.91-3,2.9-4.33,4.25-4.4s3.55,1.92,3.55,1.92l-4.8,5.92Z" transform="translate(-200.9 -121.26)"/><path class="cls-67" d="M392.76,311.15a24.85,24.85,0,0,0-5.52,3.66c-1.11.84-3.14,3.26-4.17,4.18s-2,1-2.24.51a9.35,9.35,0,0,1,.8-4.9c1.5-3.26,2.94-4.79,4.73-7.44s2.89-2.87,3.92-2.41,4.06,1.55,4.06,1.55Z" transform="translate(-200.9 -121.26)"/><path class="cls-68" d="M424.8,289.9c-6.8,1-29.25,11-34.37,15.92-.88,3.34.32,5.81,1.78,6.39,3.17-.73,28.84-8.22,35.92-14C432.77,294.5,430,289.14,424.8,289.9Z" transform="translate(-200.9 -121.26)"/><path class="cls-69" d="M421.88,321.52a2.18,2.18,0,0,0,1.58.17c.29-.14,1.2-.55,1.32-3.21.15-3.52-.83-5.29-2.06-8.86-1.16-3.36-1.81-4.88-3.11-5.27s-3.9,1-3.9,1l3.3,6.87Z" transform="translate(-200.9 -121.26)"/><path class="cls-70" d="M413,310.52a24.3,24.3,0,0,1,4.52,4.84c.89,1.07,2.3,3.9,3.09,5s1.74,1.49,2.07,1a9.53,9.53,0,0,0,.35-5c-.71-3.52-1.75-5.34-2.88-8.34-1.08-2.84-2.15-3.45-3.26-3.24s-4.3.56-4.3.56Z" transform="translate(-200.9 -121.26)"/><path class="cls-71" d="M398.07,244.5c.21,1-.09,1.87-.66,2s-1.21-.58-1.41-1.55.09-1.87.66-2S397.87,243.52,398.07,244.5Z" transform="translate(-200.9 -121.26)"/><path class="cls-72" d="M410.27,245c-.25,1-.91,1.64-1.47,1.49s-.83-1.05-.58-2,.91-1.63,1.48-1.48S410.52,244,410.27,245Z" transform="translate(-200.9 -121.26)"/><path class="cls-73" d="M381,289.72c6.68,1.57,28.63,10.77,33.88,15.52,1,3.31-.17,5.81-1.62,6.43-3.19-.64-29-7.45-36.27-13C371.12,294.24,375.69,288.47,381,289.72Z" transform="translate(-200.9 -121.26)"/><path class="cls-74" d="M433.31,272.15c.19,1.36-5.51,8.18-12.54,13.91l-.52-.37-.21-.16-1.42-1c2.1-2.22,6.79-10,9.4-11.84-3.58-2.82-10.86-9.51-12.72-10.91,0-1.62.14-4.83.69-6.1v0a34.09,34.09,0,0,1,10.86,7.84A49.46,49.46,0,0,1,433.31,272.15Z" transform="translate(-200.9 -121.26)"/><path class="cls-75" d="M433.31,272.15c.19,1.36-5.51,8.18-12.54,13.91l-.52-.37c.23-.3.46-.57.62-.8q1.69-2.36,3.4-4.69l1.91-2.64a23.4,23.4,0,0,1,2.64-3.23,7.89,7.89,0,0,1,3.56-2.1,11.47,11.47,0,0,1-5.57-6.7,3.35,3.35,0,0,1-.18-1.47,1.8,1.8,0,0,1,.23-.58A49.46,49.46,0,0,1,433.31,272.15Z" transform="translate(-200.9 -121.26)"/><path class="cls-76" d="M416.09,254.59c-.44-.19-.77.1-1,.67-.84,1.93-.77,7-.77,7s5.44,4.07,9.26,7.35c1.79,1.23,6.93-2.74,5.76-4.12C425.92,261.18,421.53,257,416.09,254.59Z" transform="translate(-200.9 -121.26)"/><path class="cls-77" d="M385.71,285.53l1.41-1c-2.09-2.22-6.79-10-9.39-11.84,3.58-2.82,10.86-9.51,12.71-10.91,0-1.62-.13-4.83-.69-6.1v0c-6.25,2.83-12.08,7.75-17.31,16.51-.18,1.36,5.51,8.18,12.54,13.91Z" transform="translate(-200.9 -121.26)"/><path class="cls-78" d="M389.65,254.59c.44-.19.77.1,1,.67.84,1.93.77,7,.77,7s-5.44,4.07-9.26,7.35c-1.79,1.23-6.93-2.74-5.76-4.12C379.82,261.18,384.21,257,389.65,254.59Z" transform="translate(-200.9 -121.26)"/><rect class="cls-79" x="198.32" y="122.61" width="7.25" height="9.66"/><polygon class="cls-80" points="213.14 171.49 191.82 171.49 188.78 133.32 201.98 130.28 215.17 133.32 213.14 171.49"/><path class="cls-81" d="M402.87,259.28h0a3.61,3.61,0,0,1-3.61-3.6v-3.6h7.21v3.6A3.6,3.6,0,0,1,402.87,259.28Z" transform="translate(-200.9 -121.26)"/><path class="cls-82" d="M415.6,263.42a2.26,2.26,0,0,0-.42.31c-3.35,3.07-4.1,9.88-3.37,14a27.89,27.89,0,0,0,2.63,7.41Z" transform="translate(-200.9 -121.26)"/><path class="cls-83" d="M408.43,247.64c-1.44,3.1-3,4.68-4.27,5.32a2.9,2.9,0,0,1-1.25.35c-1.22,0-3.89-1.91-5.23-5.67-1.07-3-1.84-4.76-.92-7.34s3.41-3.37,6.15-3.37a9.55,9.55,0,0,1,1.92.2c2.06.42,3.9,1.4,4.52,2.36C410.16,240.76,410.44,243.34,408.43,247.64Z" transform="translate(-200.9 -121.26)"/><path class="cls-84" d="M408.43,247.64c-1.44,3.1-3,4.68-4.27,5.32.56-.81,1.45-1.46,1.78-2.4.43-1.24-.2-2.68.32-3.89.21-.51.6-.91.86-1.4a5.6,5.6,0,0,0,.28-3.15,2.7,2.7,0,0,0-.95-2.2,3.31,3.31,0,0,0-1.93-.18,7,7,0,0,1-5.26-2,7.59,7.59,0,0,1,2.48-.57c1,0,2.06,0,3.09,0,2.06.42,3.9,1.4,4.52,2.36C410.16,240.76,410.44,243.34,408.43,247.64Z" transform="translate(-200.9 -121.26)"/><path d="M410.75,241.87a14.42,14.42,0,0,1-1.4,3.4c.33-1.13-.46-1.12-.11-2.42.51-1.91-.24-4-1.4-4.52s-2.71,1.17-4.15,1.21c-2.53.06-3-1.72-5.37-.76-1.58.65-1.15,7.79-1.79,5.49-.65-3.09-2.27-6.32-.38-9a10.57,10.57,0,0,1,5.57-4.4c3.18-.92,6.44.47,8.6,4.09C411.43,236.58,411.48,239.25,410.75,241.87Z" transform="translate(-200.9 -121.26)"/><path class="cls-85" d="M183,154h37a.93.93,0,0,1,.93.93v20a0,0,0,0,1,0,0H182.11a0,0,0,0,1,0,0v-20A.93.93,0,0,1,183,154Z"/><rect class="cls-86" x="182.11" y="174.94" width="38.89" height="1.83"/><path class="cls-87" d="M244.87,292.72c.7,1,2.74.42,3.38.89s1.82,1.71,2.84,2.49c.29.47-.47.66-1.51.16-.67-.32-1.48-1.46-2.45-1.38.34.92,2.68,3.71,2.86,4.89a5,5,0,0,1-.85,3.47c-1.31-1.14-5.44-3.46-5.71-5.58a14.11,14.11,0,0,0-1-3.77Z" transform="translate(-200.9 -121.26)"/><path class="cls-88" d="M230.48,271.79s12,15.79,15.09,21.47c.29.54-1.92,1.71-2.38,1.3-5.24-4.7-16.37-20-16.37-20Z" transform="translate(-200.9 -121.26)"/><path class="cls-89" d="M229.89,266.05l-6.42,3.11,5.3,9.11c1.13,1.84,6.5-.46,6-1.71Z" transform="translate(-200.9 -121.26)"/><path class="cls-90" d="M202.26,315.59a1.88,1.88,0,0,1-1.17-.62c-.13-.23-.57-.93.57-2.8,1.52-2.48,3-3.1,6.28-4.77,2.61-1.34,2.7-2.87,3.77-2.54s2.18,2.51,2.18,2.51l-5.42,3.2Z" transform="translate(-200.9 -121.26)"/><path class="cls-91" d="M213.41,312.13a20.33,20.33,0,0,0-5.32,1.24c-1.11.33-3.37,1.62-4.43,2s-1.88.21-1.89-.25a7.82,7.82,0,0,1,2-3.57c2.1-2.08,3.27-1.92,5.43-3.46s3.44-2.3,4.1-1.65,2.69,2.37,2.69,2.37Z" transform="translate(-200.9 -121.26)"/><path class="cls-92" d="M209.43,282.5c-5.21,17.35,7.94,15.4,30.8,25.11-3.57-1.2-21.12-4.13-27.15-.52-.74,1.15-.9,4.17.53,5.14,3.78-.54,25.85,1.92,32.49,1.48,2.58-.18,5.66-4,.2-9.44-9.16-9.08-19.79-13.48-23.75-16.74C222.89,284.08,209.43,282.5,209.43,282.5Z" transform="translate(-200.9 -121.26)"/><path class="cls-93" d="M230.1,254.66a6.63,6.63,0,0,1-4.34-.66,10.4,10.4,0,0,0,.25,4.48c.11.48-.45.75-1.3.85h0a12.18,12.18,0,0,1-3.24-.19c-1.47-.28-2.67-.76-2.46-1.27,1.16-2.8.17-6.63-.34-8,.89-1.77-1.93-6.34.32-8.69,2.42-2.54,8.38-2.15,11.24-1.48a3.4,3.4,0,0,1,1.57.62,1.93,1.93,0,0,1,.24.59c.31,1.34-.62,3.18-.08,4.33C233,247.44,232.36,251.86,230.1,254.66Z" transform="translate(-200.9 -121.26)"/><path class="cls-94" d="M232,240.9a3.35,3.35,0,0,1-1.62,1c-2.24.78-4.15-1.07-5.64.51-.94.81-.7,2.15-.59,3.58a3.9,3.9,0,0,1-.39,2.77,9.91,9.91,0,0,0-1.72,2.44,4.08,4.08,0,0,0-.18,1.63c.06,1.29.36,2.56.32,3.84a4.62,4.62,0,0,1-.75,2.46c-1.47-.28-2.67-.76-2.46-1.27,1.16-2.8.17-6.63-.34-8,.89-1.77-1.93-6.34.32-8.69,2.42-2.54,8.38-2.15,11.24-1.48a3.4,3.4,0,0,1,1.57.62A1.93,1.93,0,0,1,232,240.9Z" transform="translate(-200.9 -121.26)"/><path class="cls-95" d="M202.34,322.42a1.81,1.81,0,0,1-1.21-.54c-.14-.22-.62-.89.4-2.83,1.35-2.57,2.83-3.28,6-5.16,2.52-1.5,2.52-3,3.6-2.77s2.34,2.37,2.34,2.37l-5.2,3.53Z" transform="translate(-200.9 -121.26)"/><path class="cls-96" d="M213.26,318.27a20.59,20.59,0,0,0-5.24,1.57c-1.08.4-3.26,1.83-4.3,2.3s-1.85.34-1.89-.13a7.82,7.82,0,0,1,1.81-3.68c2-2.21,3.14-2.13,5.19-3.8s3.29-2.52,4-1.9,2.83,2.19,2.83,2.19Z" transform="translate(-200.9 -121.26)"/><path class="cls-97" d="M207.41,289c-4.1,17.64,8.9,14.87,32.32,23.11-3.63-1-21.33-2.78-27.12,1.2-.67,1.19-.64,4.22.85,5.1,3.73-.78,25.92.28,32.51-.58,2.57-.34,5.4-4.37-.39-9.44-9.71-8.48-20.6-14.45-24.76-17.46C221,287.42,207.41,289,207.41,289Z" transform="translate(-200.9 -121.26)"/><path class="cls-98" d="M219.63,255.23s2.88,2.55,6.2,2.21c3,4.23,4.53,6.24,4.76,9.33-1.14,6.86-6.26,17.41-6.29,21.41-1.78,6.64-18.45,6-16.79,0,.57-2.17,5.26-16.35,6.52-23.67S219.63,255.23,219.63,255.23Z" transform="translate(-200.9 -121.26)"/><path class="cls-99" d="M224.3,288.18c-.81-.37-5-2.59-3.22-10.92.89-4.27-1.37-11.7-1.61-15.12a79.38,79.38,0,0,1,9.79,12.06Z" transform="translate(-200.9 -121.26)"/><path class="cls-100" d="M229.53,283.34c-4.33-2.21-8.53-17.77-8.89-18.81-.31-1.51-.21-2.58.27-3s1.57-.44,3,0a14.15,14.15,0,0,1,1.56.6s4.14,10.41,6.48,17.57c5.59-1.61,19.14-2,19.14-2l.6,2.25C247.18,280.83,233.47,285.34,229.53,283.34Z" transform="translate(-200.9 -121.26)"/><path class="cls-101" d="M231.4,275.41a25.84,25.84,0,0,0-5.16-14c-1.1-1.48-8.14-4.28-6.54,3.38,0,0,2.63,7.66,5.16,13.78C225.45,280.08,232.25,277.16,231.4,275.41Z" transform="translate(-200.9 -121.26)"/><path class="cls-102" d="M249.88,277.71c1.67-.35,2.12-1.95,3-2.88a8.34,8.34,0,0,1,2.89-1.56,1,1,0,0,1-.77,1.38c-.66.08-1.67,1.42-1.51,1.66,1.69,0,3.14-1.38,4.38-2s3-.34,3.18-.06c.58,1.13.27,1.63-1.22,3.31a5.81,5.81,0,0,1-4.56,1.94,13.31,13.31,0,0,0-3.56.42Z" transform="translate(-200.9 -121.26)"/><path class="cls-103" d="M222.26,245.32c3.24,2.64,3.91-4.68,7-3.55s6.11-1.86,4.9-6.1c-.91-3.17-3.88-5-6.4-2.19-3.24-1.54-7.61-3.51-8.82,1.5-2.74.65-7.35,4.61-3.47,7.76.24,3.23,1.2,7.16,4,7.59C220.56,248.15,216.2,240.39,222.26,245.32Z" transform="translate(-200.9 -121.26)"/></g></g></svg>