<svg xmlns="http://www.w3.org/2000/svg" xmlns:xlink="http://www.w3.org/1999/xlink" viewBox="0 0 247.36 308.63"><defs><style>.cls-1{mask:url(#mask);}.cls-112,.cls-2,.cls-4,.cls-57,.cls-8,.cls-80{mix-blend-mode:multiply;}.cls-2{fill:url(#linear-gradient);}.cls-3{mask:url(#mask-2);}.cls-4{fill:url(#linear-gradient-2);}.cls-5{isolation:isolate;}.cls-6{fill:url(#linear-gradient-3);}.cls-7{fill:url(#linear-gradient-4);}.cls-8{fill:url(#linear-gradient-5);}.cls-118,.cls-119,.cls-12,.cls-120,.cls-121,.cls-122,.cls-123,.cls-124,.cls-125,.cls-126,.cls-127,.cls-128,.cls-129,.cls-130,.cls-131,.cls-132,.cls-133,.cls-134,.cls-135,.cls-136,.cls-137,.cls-138,.cls-139,.cls-140,.cls-141,.cls-142,.cls-143,.cls-144,.cls-145,.cls-146,.cls-147,.cls-148,.cls-149,.cls-150,.cls-151,.cls-152,.cls-153,.cls-48,.cls-56,.cls-71,.cls-83,.cls-9,.cls-97{mix-blend-mode:color-dodge;}.cls-9{fill:url(#Radial_Gradient_1);}.cls-10,.cls-11,.cls-36{mix-blend-mode:overlay;}.cls-10{fill:url(#New_Gradient_Swatch_copy_9);}.cls-11{fill:url(#New_Gradient_Swatch_copy_8);}.cls-13{fill:url(#Radial_Gradient_1-2);}.cls-14{fill:url(#Radial_Gradient_1-3);}.cls-15{fill:url(#Radial_Gradient_1-4);}.cls-16{fill:url(#Radial_Gradient_1-5);}.cls-17{fill:url(#Radial_Gradient_1-6);}.cls-18{fill:url(#Radial_Gradient_1-7);}.cls-19{fill:url(#Radial_Gradient_1-8);}.cls-20{fill:url(#Radial_Gradient_1-9);}.cls-21{fill:url(#Radial_Gradient_1-10);}.cls-22{fill:url(#Radial_Gradient_1-11);}.cls-23{fill:url(#Radial_Gradient_1-12);}.cls-24{fill:url(#Radial_Gradient_1-13);}.cls-25{fill:url(#Radial_Gradient_1-14);}.cls-26{fill:url(#Radial_Gradient_1-15);}.cls-27{fill:url(#Radial_Gradient_1-16);}.cls-28{fill:url(#Radial_Gradient_1-17);}.cls-29{fill:#ebdef3;}.cls-30{fill:url(#New_Gradient_Swatch_copy_8-2);}.cls-31{fill:url(#New_Gradient_Swatch_copy_8-3);}.cls-32{fill:url(#New_Gradient_Swatch_copy_8-4);}.cls-33{fill:url(#Radial_Gradient_1-18);}.cls-34{fill:url(#Radial_Gradient_1-19);}.cls-35{fill:url(#Radial_Gradient_1-20);}.cls-37{fill:url(#New_Gradient_Swatch_copy_8-5);}.cls-38{fill:url(#New_Gradient_Swatch_copy_8-6);}.cls-39{fill:url(#New_Gradient_Swatch_copy_8-7);}.cls-40{fill:url(#New_Gradient_Swatch_copy_8-8);}.cls-41{fill:url(#New_Gradient_Swatch_copy_8-9);}.cls-42{fill:url(#New_Gradient_Swatch_copy_8-10);}.cls-43{fill:url(#New_Gradient_Swatch_copy_8-11);}.cls-44{fill:url(#New_Gradient_Swatch_copy_8-12);}.cls-45{fill:url(#New_Gradient_Swatch_copy_8-13);}.cls-46{fill:url(#New_Gradient_Swatch_copy_8-14);}.cls-47{fill:url(#linear-gradient-6);}.cls-48{fill:url(#radial-gradient);}.cls-119,.cls-124,.cls-129,.cls-134,.cls-139,.cls-144,.cls-49{opacity:0.6;}.cls-111,.cls-114,.cls-49,.cls-98,.cls-99{mix-blend-mode:screen;}.cls-49{fill:url(#radial-gradient-2);}.cls-50{fill:url(#linear-gradient-7);}.cls-51{fill:url(#linear-gradient-8);}.cls-52{fill:url(#linear-gradient-9);}.cls-53{fill:url(#linear-gradient-10);}.cls-54{fill:url(#linear-gradient-11);}.cls-55{fill:url(#linear-gradient-12);}.cls-56{fill:url(#radial-gradient-3);}.cls-57{opacity:0.3;}.cls-58,.cls-84{opacity:0;}.cls-58{fill:url(#linear-gradient-13);}.cls-59,.cls-85{opacity:0.09;}.cls-59{fill:url(#linear-gradient-14);}.cls-60,.cls-86{opacity:0.18;}.cls-60{fill:url(#linear-gradient-15);}.cls-61,.cls-87{opacity:0.27;}.cls-61{fill:url(#linear-gradient-16);}.cls-62,.cls-88{opacity:0.36;}.cls-62{fill:url(#linear-gradient-17);}.cls-63,.cls-89{opacity:0.45;}.cls-63{fill:url(#linear-gradient-18);}.cls-64,.cls-90{opacity:0.55;}.cls-64{fill:url(#linear-gradient-19);}.cls-65,.cls-91{opacity:0.64;}.cls-65{fill:url(#linear-gradient-20);}.cls-66,.cls-92{opacity:0.73;}.cls-66{fill:url(#linear-gradient-21);}.cls-67,.cls-93{opacity:0.82;}.cls-67{fill:url(#linear-gradient-22);}.cls-68,.cls-94{opacity:0.91;}.cls-68{fill:url(#linear-gradient-23);}.cls-69{fill:url(#linear-gradient-24);}.cls-70{fill:#ae3200;}.cls-71{fill:url(#radial-gradient-4);}.cls-72{fill:#fff;}.cls-73{fill:url(#linear-gradient-25);}.cls-74{fill:url(#linear-gradient-26);}.cls-75{fill:url(#linear-gradient-27);}.cls-76{fill:url(#linear-gradient-28);}.cls-77{fill:url(#linear-gradient-29);}.cls-78{fill:#414042;}.cls-79{fill:url(#linear-gradient-30);}.cls-80{fill:url(#linear-gradient-31);}.cls-81{fill:url(#linear-gradient-32);}.cls-151,.cls-82{fill:#ff530e;}.cls-83{fill:#975e2b;}.cls-84{fill:url(#linear-gradient-33);}.cls-85{fill:url(#linear-gradient-34);}.cls-86{fill:url(#linear-gradient-35);}.cls-87{fill:url(#linear-gradient-36);}.cls-88{fill:url(#linear-gradient-37);}.cls-89{fill:url(#linear-gradient-38);}.cls-90{fill:url(#linear-gradient-39);}.cls-91{fill:url(#linear-gradient-40);}.cls-92{fill:url(#linear-gradient-41);}.cls-93{fill:url(#linear-gradient-42);}.cls-94{fill:url(#linear-gradient-43);}.cls-95{fill:url(#linear-gradient-44);}.cls-96{fill:url(#linear-gradient-45);}.cls-97{fill:url(#radial-gradient-5);}.cls-112,.cls-98{opacity:0.5;}.cls-98{fill:url(#linear-gradient-46);}.cls-100{fill:url(#radial-gradient-6);}.cls-101{mask:url(#mask-3);}.cls-102{fill:url(#linear-gradient-47);}.cls-103{mask:url(#mask-4);}.cls-104{fill:url(#linear-gradient-48);}.cls-105{fill:url(#linear-gradient-49);}.cls-106{fill:url(#linear-gradient-50);}.cls-107{fill:url(#linear-gradient-51);}.cls-108{fill:url(#linear-gradient-52);}.cls-109{fill:url(#New_Gradient_Swatch_copy_35);}.cls-110{fill:url(#linear-gradient-53);}.cls-111{fill:url(#linear-gradient-54);}.cls-112{fill:url(#linear-gradient-55);}.cls-113{fill:url(#linear-gradient-56);}.cls-114{fill:url(#linear-gradient-57);}.cls-115{fill:url(#linear-gradient-58);}.cls-116{fill:url(#linear-gradient-59);}.cls-117{fill:url(#linear-gradient-60);}.cls-118,.cls-123,.cls-128,.cls-133,.cls-138,.cls-143,.cls-151,.cls-152{opacity:0.8;}.cls-118{fill:url(#linear-gradient-61);}.cls-119{fill:url(#linear-gradient-62);}.cls-120,.cls-125,.cls-130,.cls-135,.cls-140,.cls-145{opacity:0.4;}.cls-120{fill:url(#linear-gradient-63);}.cls-121,.cls-126,.cls-131,.cls-136,.cls-141,.cls-146{opacity:0.25;}.cls-121{fill:url(#linear-gradient-64);}.cls-122,.cls-127,.cls-132,.cls-137,.cls-142,.cls-147{opacity:0.15;}.cls-122{fill:url(#linear-gradient-65);}.cls-123{fill:url(#linear-gradient-66);}.cls-124{fill:url(#linear-gradient-67);}.cls-125{fill:url(#linear-gradient-68);}.cls-126{fill:url(#linear-gradient-69);}.cls-127{fill:url(#linear-gradient-70);}.cls-128{fill:url(#linear-gradient-71);}.cls-129{fill:url(#linear-gradient-72);}.cls-130{fill:url(#linear-gradient-73);}.cls-131{fill:url(#linear-gradient-74);}.cls-132{fill:url(#linear-gradient-75);}.cls-133{fill:url(#linear-gradient-76);}.cls-134{fill:url(#linear-gradient-77);}.cls-135{fill:url(#linear-gradient-78);}.cls-136{fill:url(#linear-gradient-79);}.cls-137{fill:url(#linear-gradient-80);}.cls-138{fill:url(#linear-gradient-81);}.cls-139{fill:url(#linear-gradient-82);}.cls-140{fill:url(#linear-gradient-83);}.cls-141{fill:url(#linear-gradient-84);}.cls-142{fill:url(#linear-gradient-85);}.cls-143{fill:url(#linear-gradient-86);}.cls-144{fill:url(#linear-gradient-87);}.cls-145{fill:url(#linear-gradient-88);}.cls-146{fill:url(#linear-gradient-89);}.cls-147{fill:url(#linear-gradient-90);}.cls-148{fill:url(#radial-gradient-7);}.cls-149{fill:url(#radial-gradient-8);}.cls-150{fill:url(#radial-gradient-9);}.cls-153{fill:url(#radial-gradient-10);}.cls-154{filter:url(#luminosity-noclip-4);}.cls-155{filter:url(#luminosity-noclip-3);}.cls-156{filter:url(#luminosity-noclip-2);}.cls-157{filter:url(#luminosity-noclip);}</style><filter id="luminosity-noclip" x="508.23" y="-8417" width="2.93" height="32766" filterUnits="userSpaceOnUse" color-interpolation-filters="sRGB"><feFlood flood-color="#fff" result="bg"/><feBlend in="SourceGraphic" in2="bg"/></filter><mask id="mask" x="508.23" y="-8417" width="2.93" height="32766" maskUnits="userSpaceOnUse"><g class="cls-157"/></mask><linearGradient id="linear-gradient" x1="7209.47" y1="332.89" x2="7181.39" y2="279.89" gradientTransform="matrix(-1, 0, 0, 1, 7707.63, 0)" gradientUnits="userSpaceOnUse"><stop offset="0"/><stop offset="1" stop-color="#fff"/></linearGradient><filter id="luminosity-noclip-2" x="508.29" y="-8417" width="2.77" height="32766" filterUnits="userSpaceOnUse" color-interpolation-filters="sRGB"><feFlood flood-color="#fff" result="bg"/><feBlend in="SourceGraphic" in2="bg"/></filter><mask id="mask-2" x="508.29" y="-8417" width="2.77" height="32766" maskUnits="userSpaceOnUse"><g class="cls-156"/></mask><linearGradient id="linear-gradient-2" x1="-3526.4" y1="2766.35" x2="-3537.62" y2="2745.16" gradientTransform="matrix(0.85, 0.01, -0.01, -0.84, 3551.13, 2627.17)" xlink:href="#linear-gradient"/><linearGradient id="linear-gradient-3" x1="399.88" y1="210.77" x2="412.47" y2="138.63" gradientUnits="userSpaceOnUse"><stop offset="0.03" stop-color="#070707"/><stop offset="0.19" stop-color="#2b1208"/><stop offset="0.55" stop-color="#872e0b"/><stop offset="1" stop-color="#ff530e"/></linearGradient><linearGradient id="linear-gradient-4" x1="719.18" y1="2107.87" x2="622.39" y2="2048.33" gradientTransform="matrix(0.87, 0.5, 0.5, 1.44, -1214.39, -3163.87)" gradientUnits="userSpaceOnUse"><stop offset="0.03" stop-color="#fff"/><stop offset="0.2" stop-color="#ffe5db"/><stop offset="0.57" stop-color="#ffa47f"/><stop offset="1" stop-color="#ff530e"/></linearGradient><linearGradient id="linear-gradient-5" x1="386.46" y1="171.78" x2="464.45" y2="171.52" gradientUnits="userSpaceOnUse"><stop offset="0" stop-color="#aa4927"/><stop offset="0.99" stop-color="#ff530e"/></linearGradient><radialGradient id="Radial_Gradient_1" cx="405.9" cy="170.2" r="59.96" gradientUnits="userSpaceOnUse"><stop offset="0" stop-color="#fff"/><stop offset="1"/></radialGradient><linearGradient id="New_Gradient_Swatch_copy_9" x1="-21.84" y1="2098.64" x2="-5.77" y2="2098.64" gradientTransform="matrix(0.87, 0.5, 0, 1.15, 451.73, -2202.13)" gradientUnits="userSpaceOnUse"><stop offset="0.04" stop-color="#9f19ab"/><stop offset="0.24" stop-color="#ae25b1"/><stop offset="0.65" stop-color="#d744bf"/><stop offset="1" stop-color="#ff63ce"/></linearGradient><linearGradient id="New_Gradient_Swatch_copy_8" x1="-11.71" y1="2098.64" x2="4.36" y2="2098.64" gradientTransform="matrix(0.87, 0.5, 0, 1.15, 451.73, -2202.13)" gradientUnits="userSpaceOnUse"><stop offset="0.04" stop-color="#ffa98c"/><stop offset="0.32" stop-color="#ffb892"/><stop offset="0.86" stop-color="#fee1a3"/><stop offset="1" stop-color="#feeca8"/></linearGradient><radialGradient id="Radial_Gradient_1-2" cx="363" cy="151.59" r="3.22" xlink:href="#Radial_Gradient_1"/><radialGradient id="Radial_Gradient_1-3" cx="367.89" cy="154" r="3.1" xlink:href="#Radial_Gradient_1"/><radialGradient id="Radial_Gradient_1-4" cx="372.78" cy="157.19" r="3.36" xlink:href="#Radial_Gradient_1"/><radialGradient id="Radial_Gradient_1-5" cx="377.67" cy="160.06" r="3.22" xlink:href="#Radial_Gradient_1"/><radialGradient id="Radial_Gradient_1-6" cx="387.45" cy="165.29" r="3.1" xlink:href="#Radial_Gradient_1"/><radialGradient id="Radial_Gradient_1-7" cx="392.34" cy="168.48" r="3.36" xlink:href="#Radial_Gradient_1"/><radialGradient id="Radial_Gradient_1-8" cx="397.23" cy="171.23" r="3.3" xlink:href="#Radial_Gradient_1"/><radialGradient id="Radial_Gradient_1-9" cx="402.12" cy="174.13" r="3.25" xlink:href="#Radial_Gradient_1"/><radialGradient id="Radial_Gradient_1-10" cx="411.89" cy="179.4" r="3.1" xlink:href="#Radial_Gradient_1"/><radialGradient id="Radial_Gradient_1-11" cx="416.78" cy="182.23" r="3.1" xlink:href="#Radial_Gradient_1"/><radialGradient id="Radial_Gradient_1-12" cx="421.67" cy="185.05" r="3.1" xlink:href="#Radial_Gradient_1"/><radialGradient id="Radial_Gradient_1-13" cx="426.56" cy="187.87" r="3.1" xlink:href="#Radial_Gradient_1"/><radialGradient id="Radial_Gradient_1-14" cx="436.34" cy="193.89" r="3.25" xlink:href="#Radial_Gradient_1"/><radialGradient id="Radial_Gradient_1-15" cx="441.23" cy="196.72" r="3.25" xlink:href="#Radial_Gradient_1"/><radialGradient id="Radial_Gradient_1-16" cx="446.12" cy="199.54" r="3.25" xlink:href="#Radial_Gradient_1"/><radialGradient id="Radial_Gradient_1-17" cx="451.01" cy="202.36" r="3.25" xlink:href="#Radial_Gradient_1"/><linearGradient id="New_Gradient_Swatch_copy_8-2" x1="-86.48" y1="2079.21" x2="-106.01" y2="2063.25" gradientTransform="matrix(0.87, 0.5, 0, 1.15, 99.61, -2283.53)" xlink:href="#New_Gradient_Swatch_copy_8"/><linearGradient id="New_Gradient_Swatch_copy_8-3" x1="-87.25" y1="2075.59" x2="-105.08" y2="2061.03" xlink:href="#New_Gradient_Swatch_copy_8"/><linearGradient id="New_Gradient_Swatch_copy_8-4" x1="-87.44" y1="2081.37" x2="-105.21" y2="2066.85" xlink:href="#New_Gradient_Swatch_copy_8"/><radialGradient id="Radial_Gradient_1-18" cx="368.36" cy="145.04" r="6.09" xlink:href="#Radial_Gradient_1"/><radialGradient id="Radial_Gradient_1-19" cx="16.24" cy="59.96" r="6.4" xlink:href="#Radial_Gradient_1"/><radialGradient id="Radial_Gradient_1-20" cx="368.72" cy="137.61" r="5.92" xlink:href="#Radial_Gradient_1"/><linearGradient id="New_Gradient_Swatch_copy_8-5" x1="-57.11" y1="2054.08" x2="-14.01" y2="2072.27" xlink:href="#New_Gradient_Swatch_copy_8"/><linearGradient id="New_Gradient_Swatch_copy_8-6" x1="-56.22" y1="2053.67" x2="-15.28" y2="2070.95" xlink:href="#New_Gradient_Swatch_copy_8"/><linearGradient id="New_Gradient_Swatch_copy_8-7" x1="-56.1" y1="2052.26" x2="-12.89" y2="2070.5" xlink:href="#New_Gradient_Swatch_copy_8"/><linearGradient id="New_Gradient_Swatch_copy_8-8" x1="-54.87" y1="2049.68" x2="-11.58" y2="2067.95" xlink:href="#New_Gradient_Swatch_copy_8"/><linearGradient id="New_Gradient_Swatch_copy_8-9" x1="-52.92" y1="2049.36" x2="-12.66" y2="2066.35" xlink:href="#New_Gradient_Swatch_copy_8"/><linearGradient id="New_Gradient_Swatch_copy_8-10" x1="-53.41" y1="2048.27" x2="-11.15" y2="2066.11" xlink:href="#New_Gradient_Swatch_copy_8"/><linearGradient id="New_Gradient_Swatch_copy_8-11" x1="-52.48" y1="2045.47" x2="-9.38" y2="2063.66" xlink:href="#New_Gradient_Swatch_copy_8"/><linearGradient id="New_Gradient_Swatch_copy_8-12" x1="-51.73" y1="2044.97" x2="-9.06" y2="2062.98" xlink:href="#New_Gradient_Swatch_copy_8"/><linearGradient id="New_Gradient_Swatch_copy_8-13" x1="-49.58" y1="2044.06" x2="-8.64" y2="2061.34" xlink:href="#New_Gradient_Swatch_copy_8"/><linearGradient id="New_Gradient_Swatch_copy_8-14" x1="-50.37" y1="2041.1" x2="-7.08" y2="2059.38" xlink:href="#New_Gradient_Swatch_copy_8"/><linearGradient id="linear-gradient-6" x1="403.52" y1="91.14" x2="515.52" y2="285.13" gradientUnits="userSpaceOnUse"><stop offset="0.06" stop-color="#080009"/><stop offset="0.14" stop-color="#0a0109"/><stop offset="0.18" stop-color="#120309"/><stop offset="0.21" stop-color="#1f0809"/><stop offset="0.24" stop-color="#320e0a"/><stop offset="0.26" stop-color="#4a160a"/><stop offset="0.28" stop-color="#68200b"/><stop offset="0.3" stop-color="#8b2c0c"/><stop offset="0.32" stop-color="#b53a0c"/><stop offset="0.34" stop-color="#e2490d"/><stop offset="0.35" stop-color="#ff530e"/><stop offset="0.37" stop-color="#fc520e"/><stop offset="0.39" stop-color="#f24f0d"/><stop offset="0.4" stop-color="#e0490c"/><stop offset="0.42" stop-color="#c8410a"/><stop offset="0.43" stop-color="#a93608"/><stop offset="0.45" stop-color="#832a05"/><stop offset="0.46" stop-color="#561b02"/><stop offset="0.47" stop-color="#330f00"/><stop offset="0.48" stop-color="#371000"/><stop offset="0.49" stop-color="#451400"/><stop offset="0.5" stop-color="#5a1a00"/><stop offset="0.51" stop-color="#792300"/><stop offset="0.52" stop-color="#a02e00"/><stop offset="0.53" stop-color="#d03c00"/><stop offset="0.53" stop-color="#e54200"/><stop offset="0.58" stop-color="#d93e00"/><stop offset="0.63" stop-color="#d43d00"/><stop offset="0.63" stop-color="#cf3c00"/><stop offset="0.69" stop-color="#b73500"/><stop offset="0.72" stop-color="#ae3200"/><stop offset="0.77" stop-color="#a22e00"/><stop offset="0.81" stop-color="#9d2d00"/><stop offset="0.9" stop-color="#591900"/><stop offset="1"/></linearGradient><radialGradient id="radial-gradient" cx="565.15" cy="164.33" r="195.18" gradientUnits="userSpaceOnUse"><stop offset="0" stop-color="#eb4b06"/><stop offset="0.15" stop-color="#e64906"/><stop offset="0.35" stop-color="#d64405"/><stop offset="0.56" stop-color="#bd3b04"/><stop offset="0.79" stop-color="#9a2f02"/><stop offset="1" stop-color="#722200"/></radialGradient><radialGradient id="radial-gradient-2" cx="532.5" cy="150.39" r="114.99" gradientUnits="userSpaceOnUse"><stop offset="0" stop-color="#f9c68a"/><stop offset="1" stop-color="#e06a00"/></radialGradient><linearGradient id="linear-gradient-7" x1="541.77" y1="257.27" x2="223.89" y2="157.76" gradientUnits="userSpaceOnUse"><stop offset="0.19" stop-color="#ff530e"/><stop offset="0.93" stop-color="#b33900"/></linearGradient><linearGradient id="linear-gradient-8" x1="545.91" y1="380.29" x2="384.49" y2="39.2" gradientUnits="userSpaceOnUse"><stop offset="0" stop-color="#975e2b"/><stop offset="0.18" stop-color="#c15a1f"/><stop offset="0.39" stop-color="#ee5513"/><stop offset="0.49" stop-color="#ff530e"/><stop offset="0.75" stop-color="#d0652f"/><stop offset="1" stop-color="#a07752"/></linearGradient><linearGradient id="linear-gradient-9" x1="427.6" y1="237.39" x2="528.97" y2="237.39" gradientUnits="userSpaceOnUse"><stop offset="0"/><stop offset="0.02" stop-color="#0a0300"/><stop offset="0.2" stop-color="#6d2304"/><stop offset="0.34" stop-color="#b63b07"/><stop offset="0.44" stop-color="#e44908"/><stop offset="0.49" stop-color="#f54f09"/><stop offset="1" stop-color="#d34302"/></linearGradient><linearGradient id="linear-gradient-10" x1="416.14" y1="118.9" x2="570.38" y2="413" gradientUnits="userSpaceOnUse"><stop offset="0.01" stop-color="#ff530e"/><stop offset="0.23" stop-color="#ef4d07"/><stop offset="0.43" stop-color="#c73f00"/><stop offset="0.63" stop-color="#b33900"/><stop offset="0.83" stop-color="#722200"/><stop offset="0.91" stop-color="#531a00"/></linearGradient><linearGradient id="linear-gradient-11" x1="-89.34" y1="10421.12" x2="-71.2" y2="10421.12" gradientTransform="matrix(-0.5, 1.44, -0.87, 0.5, 9523.54, -4890.48)" gradientUnits="userSpaceOnUse"><stop offset="0" stop-color="#311b61"/><stop offset="0.2" stop-color="#290f52"/><stop offset="0.49" stop-color="#200041"/><stop offset="1" stop-color="#0f001f"/></linearGradient><linearGradient id="linear-gradient-12" x1="543.65" y1="204.42" x2="531.14" y2="203.88" gradientUnits="userSpaceOnUse"><stop offset="0" stop-color="#a07752"/><stop offset="1" stop-color="#e84b06"/></linearGradient><radialGradient id="radial-gradient-3" cx="537.36" cy="199.08" r="7.35" gradientUnits="userSpaceOnUse"><stop offset="0" stop-color="#711f56"/><stop offset="0.16" stop-color="#6c1e52"/><stop offset="0.36" stop-color="#5c1946"/><stop offset="0.58" stop-color="#431233"/><stop offset="0.82" stop-color="#200918"/><stop offset="1"/></radialGradient><linearGradient id="linear-gradient-13" x1="371.33" y1="48.55" x2="508.57" y2="310.24" gradientUnits="userSpaceOnUse"><stop offset="0.01" stop-color="#9f19ab"/><stop offset="0.43" stop-color="#5f27bd"/><stop offset="0.9" stop-color="#3d065f"/></linearGradient><linearGradient id="linear-gradient-14" x1="371.68" y1="49.53" x2="508.25" y2="309.94" xlink:href="#linear-gradient-13"/><linearGradient id="linear-gradient-15" x1="372.03" y1="50.51" x2="507.93" y2="309.64" xlink:href="#linear-gradient-13"/><linearGradient id="linear-gradient-16" x1="372.38" y1="51.48" x2="507.61" y2="309.34" xlink:href="#linear-gradient-13"/><linearGradient id="linear-gradient-17" x1="372.73" y1="52.46" x2="507.29" y2="309.05" xlink:href="#linear-gradient-13"/><linearGradient id="linear-gradient-18" x1="373.08" y1="53.44" x2="506.97" y2="308.75" xlink:href="#linear-gradient-13"/><linearGradient id="linear-gradient-19" x1="373.43" y1="54.42" x2="506.65" y2="308.45" xlink:href="#linear-gradient-13"/><linearGradient id="linear-gradient-20" x1="373.78" y1="55.4" x2="506.33" y2="308.15" xlink:href="#linear-gradient-13"/><linearGradient id="linear-gradient-21" x1="374.13" y1="56.38" x2="506.01" y2="307.85" xlink:href="#linear-gradient-13"/><linearGradient id="linear-gradient-22" x1="374.48" y1="57.36" x2="505.69" y2="307.56" xlink:href="#linear-gradient-13"/><linearGradient id="linear-gradient-23" x1="374.83" y1="58.34" x2="505.37" y2="307.26" xlink:href="#linear-gradient-13"/><linearGradient id="linear-gradient-24" x1="375.18" y1="59.31" x2="505.05" y2="306.96" xlink:href="#linear-gradient-13"/><radialGradient id="radial-gradient-4" cx="478.28" cy="171.61" r="91.17" xlink:href="#radial-gradient-3"/><linearGradient id="linear-gradient-25" x1="496.47" y1="230.63" x2="513.96" y2="221.85" gradientTransform="translate(182.54 -227.49) rotate(30.31)" gradientUnits="userSpaceOnUse"><stop offset="0.01" stop-color="#ff530e"/><stop offset="0.43" stop-color="#842403"/><stop offset="0.9"/></linearGradient><linearGradient id="linear-gradient-26" x1="244.25" y1="209.14" x2="507.86" y2="209.14" gradientUnits="userSpaceOnUse"><stop offset="0.01"/><stop offset="0.43" stop-color="#ff530e"/><stop offset="0.9" stop-color="#842403"/></linearGradient><linearGradient id="linear-gradient-27" x1="-147.86" y1="2174.32" x2="-62.28" y2="2174.32" gradientTransform="matrix(0.87, 0.5, 0, 1.15, 566.87, -2253.51)" gradientUnits="userSpaceOnUse"><stop offset="0.05" stop-color="#e04700"/><stop offset="0.13" stop-color="#d74a05"/><stop offset="0.25" stop-color="#bf5113"/><stop offset="0.41" stop-color="#985e2a"/><stop offset="0.41" stop-color="#975e2b"/><stop offset="0.54" stop-color="#b77a3e"/><stop offset="0.7" stop-color="#dc9953"/><stop offset="0.73" stop-color="#e19e53"/><stop offset="0.78" stop-color="#efae54"/><stop offset="0.81" stop-color="#fdbe54"/><stop offset="1" stop-color="#ffc054"/></linearGradient><linearGradient id="linear-gradient-28" x1="-145.96" y1="2157.07" x2="-60.91" y2="2157.07" gradientTransform="matrix(0.87, 0.5, 0, 1.15, 566.87, -2253.51)" gradientUnits="userSpaceOnUse"><stop offset="0.05" stop-color="#e04700"/><stop offset="0.22" stop-color="#d74400"/><stop offset="0.41" stop-color="#c73f00"/><stop offset="0.61" stop-color="#ed993c"/><stop offset="0.7" stop-color="#fdbe54"/><stop offset="0.79" stop-color="#f8b954"/><stop offset="0.91" stop-color="#eaa953"/><stop offset="1" stop-color="#dc9953"/></linearGradient><linearGradient id="linear-gradient-29" x1="-144.59" y1="2174.32" x2="-59.01" y2="2174.32" gradientTransform="matrix(0.87, 0.5, 0, 1.15, 566.87, -2253.51)" gradientUnits="userSpaceOnUse"><stop offset="0.05" stop-color="#fdbe54"/><stop offset="0.41" stop-color="#ffc054"/><stop offset="0.56" stop-color="#ffd482"/><stop offset="0.7" stop-color="#ffe4a7"/><stop offset="0.75" stop-color="#fbdfa3"/><stop offset="0.81" stop-color="#eecf96"/><stop offset="0.88" stop-color="#d9b681"/><stop offset="0.95" stop-color="#bc9264"/><stop offset="1" stop-color="#a6784e"/></linearGradient><linearGradient id="linear-gradient-30" x1="-161.88" y1="2131.27" x2="-58.5" y2="2177.35" gradientTransform="matrix(0.87, 0.5, 0, 1.15, 566.87, -2253.51)" gradientUnits="userSpaceOnUse"><stop offset="0.05" stop-color="#dc9953"/><stop offset="0.13" stop-color="#d3914e"/><stop offset="0.26" stop-color="#bb7d40"/><stop offset="0.41" stop-color="#975e2b"/><stop offset="0.42" stop-color="#9a622e"/><stop offset="0.61" stop-color="#e2bf85"/><stop offset="0.7" stop-color="#ffe4a7"/><stop offset="0.75" stop-color="#fadfa3"/><stop offset="0.81" stop-color="#edcf97"/><stop offset="0.88" stop-color="#d6b683"/><stop offset="0.95" stop-color="#b89267"/><stop offset="1" stop-color="#a07752"/></linearGradient><linearGradient id="linear-gradient-31" x1="409.45" y1="179.59" x2="516.96" y2="227.51" gradientUnits="userSpaceOnUse"><stop offset="0.05" stop-color="#dc3daa"/><stop offset="0.12" stop-color="#de46a6"/><stop offset="0.23" stop-color="#e55e9d"/><stop offset="0.36" stop-color="#f0858d"/><stop offset="0.41" stop-color="#f49587"/><stop offset="0.56" stop-color="#fabf98"/><stop offset="0.7" stop-color="#ffe4a7"/><stop offset="0.73" stop-color="#fae4a9"/><stop offset="0.77" stop-color="#eae6b0"/><stop offset="0.82" stop-color="#d0e8ba"/><stop offset="0.87" stop-color="#adebc9"/><stop offset="0.92" stop-color="#7fefdc"/><stop offset="0.97" stop-color="#47f4f3"/><stop offset="1" stop-color="#2af6ff"/></linearGradient><linearGradient id="linear-gradient-32" x1="133.91" y1="155.75" x2="146.34" y2="146.58" gradientUnits="userSpaceOnUse"><stop offset="0.01" stop-color="#ce4100"/><stop offset="0.43" stop-color="#df4700"/><stop offset="0.9"/></linearGradient><linearGradient id="linear-gradient-33" x1="398.51" y1="140.72" x2="500.31" y2="334.84" xlink:href="#linear-gradient-13"/><linearGradient id="linear-gradient-34" x1="398.88" y1="142.09" x2="500.07" y2="335.05" xlink:href="#linear-gradient-13"/><linearGradient id="linear-gradient-35" x1="399.24" y1="143.46" x2="499.83" y2="335.27" xlink:href="#linear-gradient-13"/><linearGradient id="linear-gradient-36" x1="399.62" y1="144.83" x2="499.6" y2="335.48" xlink:href="#linear-gradient-13"/><linearGradient id="linear-gradient-37" x1="399.99" y1="146.19" x2="499.38" y2="335.71" xlink:href="#linear-gradient-13"/><linearGradient id="linear-gradient-38" x1="400.36" y1="147.54" x2="499.16" y2="335.93" xlink:href="#linear-gradient-13"/><linearGradient id="linear-gradient-39" x1="400.74" y1="148.89" x2="498.94" y2="336.16" xlink:href="#linear-gradient-13"/><linearGradient id="linear-gradient-40" x1="401.11" y1="150.24" x2="498.74" y2="336.39" xlink:href="#linear-gradient-13"/><linearGradient id="linear-gradient-41" x1="401.49" y1="151.58" x2="498.54" y2="336.63" xlink:href="#linear-gradient-13"/><linearGradient id="linear-gradient-42" x1="401.87" y1="152.91" x2="498.35" y2="336.88" xlink:href="#linear-gradient-13"/><linearGradient id="linear-gradient-43" x1="402.25" y1="154.24" x2="498.16" y2="337.12" xlink:href="#linear-gradient-13"/><linearGradient id="linear-gradient-44" x1="402.64" y1="155.56" x2="497.99" y2="337.38" xlink:href="#linear-gradient-13"/><linearGradient id="linear-gradient-45" x1="437.55" y1="223.37" x2="584.86" y2="504.26" gradientUnits="userSpaceOnUse"><stop offset="0.01" stop-color="#a07752"/><stop offset="0.22" stop-color="#a6784e"/><stop offset="0.43" stop-color="#975e2b"/><stop offset="0.65" stop-color="#dc9953"/><stop offset="0.79" stop-color="#fdbe54"/><stop offset="0.9" stop-color="#ffc054"/></linearGradient><radialGradient id="radial-gradient-5" cx="478.28" cy="254.44" r="91.17" xlink:href="#radial-gradient-3"/><linearGradient id="linear-gradient-46" x1="476.02" y1="317.41" x2="505.73" y2="265.94" gradientUnits="userSpaceOnUse"><stop offset="0"/><stop offset="1" stop-color="#e04700"/></linearGradient><radialGradient id="radial-gradient-6" cx="509.32" cy="281.81" r="88.35" gradientUnits="userSpaceOnUse"><stop offset="0" stop-color="#ff530e"/><stop offset="1" stop-color="#e04700"/></radialGradient><filter id="luminosity-noclip-3" x="508.23" y="282.46" width="2.93" height="57.18" filterUnits="userSpaceOnUse" color-interpolation-filters="sRGB"><feFlood flood-color="#fff" result="bg"/><feBlend in="SourceGraphic" in2="bg"/></filter><mask id="mask-3" x="156.11" y="201.06" width="2.93" height="57.18" maskUnits="userSpaceOnUse"><g class="cls-155"><g transform="translate(-352.12 -81.4)"><g class="cls-1"><polygon class="cls-2" points="508.23 337.5 511.15 339.64 511.15 283.63 509.4 282.46 508.23 282.6 508.23 337.5"/></g></g></g></mask><linearGradient id="linear-gradient-47" x1="7209.47" y1="332.89" x2="7181.39" y2="279.89" gradientTransform="matrix(-1, 0, 0, 1, 7355.51, -81.4)" gradientUnits="userSpaceOnUse"><stop offset="0"/><stop offset="1" stop-color="#ff530e"/></linearGradient><filter id="luminosity-noclip-4" x="508.29" y="264.99" width="2.77" height="18.62" filterUnits="userSpaceOnUse" color-interpolation-filters="sRGB"><feFlood flood-color="#fff" result="bg"/><feBlend in="SourceGraphic" in2="bg"/></filter><mask id="mask-4" x="156.17" y="183.59" width="2.77" height="18.62" maskUnits="userSpaceOnUse"><g class="cls-154"><g transform="translate(-352.12 -81.4)"><g class="cls-3"><polygon class="cls-4" points="510.79 265.73 508.29 264.99 508.56 283.21 510.06 283.62 511.06 283.58 510.79 265.73"/></g></g></g></mask><linearGradient id="linear-gradient-48" x1="-3526.4" y1="2766.35" x2="-3537.62" y2="2745.16" gradientTransform="matrix(0.85, 0.01, -0.01, -0.84, 3199.01, 2545.77)" gradientUnits="userSpaceOnUse"><stop offset="0" stop-color="#ff530e"/><stop offset="1" stop-color="#080009"/></linearGradient><linearGradient id="linear-gradient-49" x1="929.19" y1="6624.63" x2="901.05" y2="6640.22" gradientTransform="matrix(0.51, 0.86, 0.86, -0.51, -5672.59, 2853.63)" gradientUnits="userSpaceOnUse"><stop offset="0" stop-color="#271273"/><stop offset="0.14" stop-color="#1f0e5c"/><stop offset="0.4" stop-color="#120834"/><stop offset="0.64" stop-color="#080418"/><stop offset="0.85" stop-color="#020106"/><stop offset="1"/></linearGradient><linearGradient id="linear-gradient-50" x1="920.55" y1="6629.21" x2="901.01" y2="6640.32" gradientTransform="matrix(0.51, 0.86, 0.86, -0.51, -5672.59, 2853.63)" gradientUnits="userSpaceOnUse"><stop offset="0" stop-color="#82288f"/><stop offset="0.31" stop-color="#511959"/><stop offset="0.62" stop-color="#250c29"/><stop offset="0.86" stop-color="#0a030b"/><stop offset="1"/></linearGradient><linearGradient id="linear-gradient-51" x1="913.19" y1="6633.38" x2="901.12" y2="6640.42" gradientTransform="matrix(0.51, 0.86, 0.86, -0.51, -5672.59, 2853.63)" gradientUnits="userSpaceOnUse"><stop offset="0" stop-color="#dc3daa"/><stop offset="0.25" stop-color="#a32d7e"/><stop offset="0.77" stop-color="#2f0d24"/><stop offset="1"/></linearGradient><linearGradient id="linear-gradient-52" x1="7189.5" y1="271.49" x2="7200.48" y2="284.73" gradientTransform="matrix(-1, 0, 0, 1, 7707.63, 0)" gradientUnits="userSpaceOnUse"><stop offset="0.04" stop-color="#ae3200"/><stop offset="0.28" stop-color="#bd3803"/><stop offset="0.74" stop-color="#e6490a"/><stop offset="1" stop-color="#ff530e"/></linearGradient><linearGradient id="New_Gradient_Swatch_copy_35" x1="61.51" y1="2224.63" x2="48.69" y2="2212.16" gradientTransform="matrix(0.87, 0.5, 0, 1.15, 451.73, -2202.13)" gradientUnits="userSpaceOnUse"><stop offset="0" stop-color="#9f79c8"/><stop offset="0.14" stop-color="#a580cb"/><stop offset="0.33" stop-color="#b492d3"/><stop offset="0.55" stop-color="#cdb0e1"/><stop offset="0.58" stop-color="#d1b4e3"/><stop offset="0.76" stop-color="#dbc4e9"/><stop offset="1" stop-color="#ebdef3"/></linearGradient><linearGradient id="linear-gradient-53" x1="482.91" y1="346.98" x2="474.06" y2="330.31" gradientUnits="userSpaceOnUse"><stop offset="0" stop-color="#ff530e"/><stop offset="0.58" stop-color="#ff530e"/><stop offset="0.63" stop-color="#fe5e1e"/><stop offset="0.72" stop-color="#fb7b47"/><stop offset="0.85" stop-color="#f7aa8a"/><stop offset="1" stop-color="#f2e6df"/></linearGradient><linearGradient id="linear-gradient-54" x1="478.09" y1="339.4" x2="465.27" y2="339.09" gradientUnits="userSpaceOnUse"><stop offset="0" stop-color="#ff530e"/><stop offset="1"/></linearGradient><linearGradient id="linear-gradient-55" x1="467.54" y1="379.17" x2="489.91" y2="334.86" xlink:href="#linear-gradient-9"/><linearGradient id="linear-gradient-56" x1="438.64" y1="334.93" x2="545.93" y2="334.93" gradientUnits="userSpaceOnUse"><stop offset="0" stop-color="#d34302"/><stop offset="0.17" stop-color="#cc4102"/><stop offset="0.41" stop-color="#ba3b03"/><stop offset="0.68" stop-color="#9c3203"/><stop offset="0.98" stop-color="#742504"/><stop offset="0.98" stop-color="#7c3114"/><stop offset="0.99" stop-color="#90513d"/><stop offset="0.99" stop-color="#b28580"/><stop offset="1" stop-color="#dfccdb"/><stop offset="1" stop-color="#ebdef3"/></linearGradient><linearGradient id="linear-gradient-57" x1="172.4" y1="263.13" x2="193.81" y2="263.13" xlink:href="#linear-gradient-9"/><linearGradient id="linear-gradient-58" x1="439.13" y1="308.81" x2="464" y2="308.81" xlink:href="#linear-gradient-9"/><linearGradient id="linear-gradient-59" x1="143" y1="253.31" x2="172.68" y2="253.31" xlink:href="#linear-gradient-9"/><linearGradient id="linear-gradient-60" x1="113.97" y1="242.94" x2="140.9" y2="242.94" xlink:href="#linear-gradient-9"/><linearGradient id="linear-gradient-61" x1="58.69" y1="38.9" x2="64.88" y2="38.9" gradientUnits="userSpaceOnUse"><stop offset="0.17" stop-color="#f54f09"/><stop offset="0.82" stop-color="#d34302"/></linearGradient><linearGradient id="linear-gradient-62" x1="50.26" y1="34.08" x2="56.45" y2="34.08" xlink:href="#linear-gradient-61"/><linearGradient id="linear-gradient-63" x1="41.84" y1="29.26" x2="48.03" y2="29.26" xlink:href="#linear-gradient-61"/><linearGradient id="linear-gradient-64" x1="33.41" y1="24.44" x2="39.6" y2="24.44" xlink:href="#linear-gradient-61"/><linearGradient id="linear-gradient-65" x1="24.99" y1="19.62" x2="31.17" y2="19.62" xlink:href="#linear-gradient-61"/><linearGradient id="linear-gradient-66" x1="195.99" y1="121.45" x2="202.18" y2="121.45" gradientUnits="userSpaceOnUse"><stop offset="0" stop-color="#e69f80"/><stop offset="0.49" stop-color="#f54f09"/><stop offset="1" stop-color="#d34302"/></linearGradient><linearGradient id="linear-gradient-67" x1="187.57" y1="116.63" x2="193.76" y2="116.63" xlink:href="#linear-gradient-66"/><linearGradient id="linear-gradient-68" x1="179.14" y1="111.81" x2="185.33" y2="111.81" xlink:href="#linear-gradient-66"/><linearGradient id="linear-gradient-69" x1="170.72" y1="106.99" x2="176.9" y2="106.99" xlink:href="#linear-gradient-66"/><linearGradient id="linear-gradient-70" x1="162.29" y1="102.17" x2="168.48" y2="102.17" xlink:href="#linear-gradient-66"/><linearGradient id="linear-gradient-71" x1="211.57" y1="237.57" x2="217.76" y2="237.57" gradientUnits="userSpaceOnUse"><stop offset="0.1" stop-color="#f54f09"/><stop offset="0.92" stop-color="#d34302"/></linearGradient><linearGradient id="linear-gradient-72" x1="203.14" y1="232.75" x2="209.33" y2="232.75" xlink:href="#linear-gradient-71"/><linearGradient id="linear-gradient-73" x1="194.72" y1="227.93" x2="200.91" y2="227.93" xlink:href="#linear-gradient-71"/><linearGradient id="linear-gradient-74" x1="186.29" y1="223.11" x2="192.48" y2="223.11" xlink:href="#linear-gradient-71"/><linearGradient id="linear-gradient-75" x1="177.87" y1="218.29" x2="184.05" y2="218.29" xlink:href="#linear-gradient-71"/><linearGradient id="linear-gradient-76" x1="227.37" y1="189.26" x2="233.56" y2="189.26" gradientUnits="userSpaceOnUse"><stop offset="0.11" stop-color="#f54f09"/><stop offset="0.82" stop-color="#d34302"/></linearGradient><linearGradient id="linear-gradient-77" x1="218.95" y1="184.44" x2="225.13" y2="184.44" xlink:href="#linear-gradient-76"/><linearGradient id="linear-gradient-78" x1="210.52" y1="179.62" x2="216.71" y2="179.62" xlink:href="#linear-gradient-76"/><linearGradient id="linear-gradient-79" x1="202.1" y1="174.81" x2="208.28" y2="174.81" xlink:href="#linear-gradient-76"/><linearGradient id="linear-gradient-80" x1="193.67" y1="169.99" x2="199.86" y2="169.99" xlink:href="#linear-gradient-76"/><linearGradient id="linear-gradient-81" x1="76.05" y1="154.41" x2="82.23" y2="154.41" gradientUnits="userSpaceOnUse"><stop offset="0.16" stop-color="#f54f09"/><stop offset="0.89" stop-color="#d34302"/></linearGradient><linearGradient id="linear-gradient-82" x1="67.62" y1="149.59" x2="73.81" y2="149.59" xlink:href="#linear-gradient-81"/><linearGradient id="linear-gradient-83" x1="59.19" y1="144.77" x2="65.38" y2="144.77" xlink:href="#linear-gradient-81"/><linearGradient id="linear-gradient-84" x1="50.77" y1="139.95" x2="56.96" y2="139.95" xlink:href="#linear-gradient-81"/><linearGradient id="linear-gradient-85" x1="42.34" y1="135.13" x2="48.53" y2="135.13" xlink:href="#linear-gradient-81"/><linearGradient id="linear-gradient-86" x1="95.28" y1="246.21" x2="101.47" y2="246.21" xlink:href="#linear-gradient-9"/><linearGradient id="linear-gradient-87" x1="86.86" y1="241.39" x2="93.04" y2="241.39" xlink:href="#linear-gradient-9"/><linearGradient id="linear-gradient-88" x1="78.43" y1="236.57" x2="84.62" y2="236.57" xlink:href="#linear-gradient-9"/><linearGradient id="linear-gradient-89" x1="70.01" y1="231.75" x2="76.19" y2="231.75" xlink:href="#linear-gradient-9"/><linearGradient id="linear-gradient-90" x1="61.58" y1="226.93" x2="67.77" y2="226.93" xlink:href="#linear-gradient-9"/><radialGradient id="radial-gradient-7" cx="979.27" cy="699.17" r="14.79" gradientTransform="matrix(0.47, 0.88, 0.88, -0.47, -931.92, -337.44)" gradientUnits="userSpaceOnUse"><stop offset="0.09" stop-color="#fff"/><stop offset="0.09" stop-color="#ffede6"/><stop offset="0.11" stop-color="#ffc5ae"/><stop offset="0.13" stop-color="#ffa27d"/><stop offset="0.15" stop-color="#ff8655"/><stop offset="0.17" stop-color="#ff7036"/><stop offset="0.19" stop-color="#ff6020"/><stop offset="0.21" stop-color="#ff5613"/><stop offset="0.23" stop-color="#ff530e"/><stop offset="0.23" stop-color="#fa510e"/><stop offset="0.26" stop-color="#cb420b"/><stop offset="0.3" stop-color="#a03409"/><stop offset="0.34" stop-color="#792707"/><stop offset="0.38" stop-color="#581d05"/><stop offset="0.43" stop-color="#3d1403"/><stop offset="0.49" stop-color="#260c02"/><stop offset="0.55" stop-color="#150701"/><stop offset="0.62" stop-color="#090300"/><stop offset="0.73" stop-color="#020100"/><stop offset="1"/></radialGradient><radialGradient id="radial-gradient-8" cx="970.95" cy="693.86" r="11.2" gradientTransform="matrix(0.47, 0.88, 0.88, -0.47, -579.8, -256.04)" gradientUnits="userSpaceOnUse"><stop offset="0.09" stop-color="#fff"/><stop offset="0.1" stop-color="#e2dee7"/><stop offset="0.12" stop-color="#b0a5bf"/><stop offset="0.14" stop-color="#86749c"/><stop offset="0.16" stop-color="#634c80"/><stop offset="0.17" stop-color="#482d69"/><stop offset="0.19" stop-color="#35175a"/><stop offset="0.21" stop-color="#290a50"/><stop offset="0.23" stop-color="#25054d"/><stop offset="0.27" stop-color="#1d043c"/><stop offset="0.34" stop-color="#120226"/><stop offset="0.42" stop-color="#0a0115"/><stop offset="0.51" stop-color="#040109"/><stop offset="0.65" stop-color="#010002"/><stop offset="1"/></radialGradient><radialGradient id="radial-gradient-9" cx="964.79" cy="690.1" r="8.4" gradientTransform="matrix(-0.78, 0.62, 0.62, 0.78, 813.13, -871.77)" xlink:href="#radial-gradient-8"/><radialGradient id="radial-gradient-10" cx="861.08" cy="753.97" r="20.13" gradientTransform="matrix(-0.22, 0.97, 0.97, 0.22, -49.5, -862.14)" xlink:href="#radial-gradient-8"/></defs><g class="cls-5"><g id="Layer_1" data-name="Layer 1"><path class="cls-6" d="M454.35,237.05l-95-54.85c-3.35-1.93-6.06-7.11-6.06-11.57V109.22c0-4.45,2.71-6.5,6.06-4.57l95,54.86c3.35,1.93,6.06,7.1,6.06,11.56v61.41C460.41,236.94,457.7,239,454.35,237.05Z" transform="translate(-352.12 -81.4)"/><path class="cls-7" d="M453.19,237.4l-95-54.85c-3.34-1.93-6.05-7.11-6.05-11.57,0,0,2.71-67.91,6.05-66l95,54.86c3.34,1.92,6.05,7.1,6.05,11.56v61.41C459.24,237.29,456.53,239.33,453.19,237.4Z" transform="translate(-352.12 -81.4)"/><path class="cls-8" d="M455.23,238.58l-96.48-55.7c-3.4-2-3.4-80.71,0-78.75l96.48,55.71c3.4,2,6.15,7.21,6.15,11.74v62.36C461.38,238.46,458.63,240.54,455.23,238.58Z" transform="translate(-352.12 -81.4)"/><path class="cls-9" d="M453.19,159.86l-95-54.86c-2.54-1.47-4.72-.63-5.61,1.82,1-2,3-2.63,5.38-1.28l95,54.86c3.34,1.93,6.05,7.11,6.05,11.56v61.41a8,8,0,0,1-.44,2.75,7.34,7.34,0,0,0,.67-3.29V171.42C459.24,167,456.53,161.78,453.19,159.86Z" transform="translate(-352.12 -81.4)"/><path class="cls-10" d="M446.73,218.28c0,4.41-3.11,6.19-7,4a15.34,15.34,0,0,1-7-12c0-4.41,3.12-6.19,7-4A15.31,15.31,0,0,1,446.73,218.28Z" transform="translate(-352.12 -81.4)"/><path class="cls-11" d="M455.51,223.35c0,4.41-3.12,6.19-7,4a15.33,15.33,0,0,1-7-12c0-4.41,3.11-6.18,7-4A15.32,15.32,0,0,1,455.51,223.35Z" transform="translate(-352.12 -81.4)"/><g class="cls-12"><path class="cls-13" d="M362.67,150.89l1.25.72a1.35,1.35,0,0,1,.55.58,1.64,1.64,0,0,1,.21.91v2a.81.81,0,0,1-.17.63c-.17.18-.34.12-.59,0l-1.51-.87a1.71,1.71,0,0,1-.44-.42l-.26-.31a1.13,1.13,0,0,1-.39-.74c0-.24.15-.38.33-.28a.79.79,0,0,1,.21.2l.21.24a1.94,1.94,0,0,0,.36.39l1.57.91v-2.22l-2-1.16v-4.08l2.35,1.35a.75.75,0,0,1,.34.66c0,.34-.17.37-.34.27l-1.67-1Z" transform="translate(-352.12 -81.4)"/><path class="cls-14" d="M366.89,151.1c0,.21-.12.4-.34.27a.82.82,0,0,1-.34-.66v-.46c0-.21.12-.4.34-.27l3,1.74v2.7c0,.32,0,.36-.19.48l-.95.57c-.18.11-.19.12-.19.45v1.8c0,.3-.09.41-.34.27a.69.69,0,0,1-.34-.66v-2.24c0-.31,0-.33.18-.44l.94-.56c.22-.14.21-.14.21-.55v-1.28Z" transform="translate(-352.12 -81.4)"/><path class="cls-15" d="M371.78,159.3l2.34,1.35a.75.75,0,0,1,.33.66c0,.34-.16.37-.33.27l-3-1.74v-3c0-.7.26-.9.77-.61l1.91,1.1v-2.22l-2.34-1.35a.72.72,0,0,1-.34-.66c0-.33.16-.37.34-.27l2.25,1.3a1.3,1.3,0,0,1,.55.58,1.77,1.77,0,0,1,.21.95v1.91c0,.33,0,.57-.21.7s-.32.07-.55-.05l-1.91-1.11Z" transform="translate(-352.12 -81.4)"/><path class="cls-16" d="M377.34,159.36l1.25.72a1.28,1.28,0,0,1,.54.58,1.64,1.64,0,0,1,.21.91v2a.85.85,0,0,1-.16.63c-.17.18-.34.12-.59,0l-1.51-.87a1.71,1.71,0,0,1-.44-.42l-.26-.31a1.13,1.13,0,0,1-.39-.74c0-.25.15-.38.33-.28a.79.79,0,0,1,.21.2l.21.24a1.94,1.94,0,0,0,.36.39l1.57.91v-2.22l-2-1.16v-4.08l2.35,1.35a.75.75,0,0,1,.33.66c0,.34-.16.37-.33.27l-1.67-1Z" transform="translate(-352.12 -81.4)"/><path class="cls-17" d="M386.45,162.4c0,.2-.12.39-.34.27a.85.85,0,0,1-.34-.67v-.46c0-.2.12-.39.34-.27l3,1.74v2.7c0,.32,0,.36-.18.48l-.95.57c-.18.12-.19.13-.19.45V169c0,.29-.1.41-.34.26a.69.69,0,0,1-.34-.66v-2.24c0-.3,0-.33.18-.43l.93-.57c.23-.14.21-.14.21-.55v-1.28Z" transform="translate(-352.12 -81.4)"/><path class="cls-18" d="M391.34,170.59l2.33,1.35a.73.73,0,0,1,.34.66c0,.34-.16.37-.34.27l-3-1.74v-3c0-.7.26-.9.77-.61l1.9,1.1v-2.22L391,165a.72.72,0,0,1-.34-.66c0-.33.16-.37.34-.27l2.25,1.31a1.27,1.27,0,0,1,.55.57,1.79,1.79,0,0,1,.21.95v1.91c0,.33,0,.57-.21.7s-.32.08-.55-.05l-1.91-1.11Z" transform="translate(-352.12 -81.4)"/><path class="cls-19" d="M395.89,167.85a.73.73,0,0,1-.34-.66c0-.34.16-.37.34-.27l2.33,1.35a1.59,1.59,0,0,1,.68,1.32v1.78c0,.37,0,.61-.26.75a2,2,0,0,1,.26,1.06V175c0,.53-.29.76-.68.54l-2.33-1.35a.73.73,0,0,1-.34-.66c0-.34.16-.37.34-.27l2.33,1.35V173c0-.52-.14-.77-.34-.88l-1.33-.77a.74.74,0,0,1-.34-.66c0-.33.17-.37.34-.27l1.33.77c.2.11.34,0,.34-.48V169.2Z" transform="translate(-352.12 -81.4)"/><path class="cls-20" d="M403.11,171.09a1.63,1.63,0,0,1,.68,1.32v5.37c0,.52-.29.77-.68.54l-2-1.15a1.61,1.61,0,0,1-.68-1.32v-5.38c0-.51.3-.75.68-.53Zm0,6.3V172l-2-1.15v5.37Z" transform="translate(-352.12 -81.4)"/><path class="cls-21" d="M410.9,176.51c0,.21-.13.4-.34.27a.83.83,0,0,1-.34-.66v-.47c0-.2.12-.39.34-.26l3,1.74v2.69c0,.33,0,.37-.18.48l-.95.58c-.18.11-.19.12-.19.45v1.8c0,.3-.1.41-.34.27a.68.68,0,0,1-.34-.66V180.5c0-.31,0-.33.18-.44l.93-.56c.23-.14.21-.14.21-.55v-1.29Z" transform="translate(-352.12 -81.4)"/><path class="cls-22" d="M415.79,179.34c0,.2-.13.39-.34.26a.82.82,0,0,1-.34-.66v-.46c0-.21.12-.4.34-.27l3,1.74v2.7c0,.32,0,.36-.18.48l-.95.57c-.18.11-.19.12-.19.45V186c0,.3-.1.41-.34.27a.68.68,0,0,1-.34-.66v-2.24c0-.31,0-.33.18-.44l.93-.56c.23-.14.21-.14.21-.55v-1.28Z" transform="translate(-352.12 -81.4)"/><path class="cls-23" d="M420.68,182.16c0,.2-.13.39-.34.27a.85.85,0,0,1-.34-.66v-.47c0-.2.12-.39.34-.27l3,1.74v2.7c0,.32,0,.37-.18.48l-.95.58c-.18.11-.19.12-.19.44v1.81c0,.29-.1.41-.34.27a.7.7,0,0,1-.34-.67v-2.24c0-.3,0-.33.17-.43l.94-.57c.23-.14.21-.14.21-.55v-1.28Z" transform="translate(-352.12 -81.4)"/><path class="cls-24" d="M425.57,185c0,.21-.13.4-.34.27a.85.85,0,0,1-.34-.66v-.47c0-.2.12-.39.34-.26l3,1.74v2.69c0,.33,0,.37-.18.48l-.95.58c-.18.11-.19.12-.19.45v1.8c0,.3-.1.41-.34.27a.68.68,0,0,1-.34-.66V189c0-.31,0-.33.17-.44l.94-.56c.23-.15.21-.14.21-.55v-1.29Z" transform="translate(-352.12 -81.4)"/><path class="cls-25" d="M437.34,190.85a1.65,1.65,0,0,1,.68,1.32v5.38c0,.52-.29.76-.68.53l-2-1.15a1.61,1.61,0,0,1-.68-1.32v-5.37c0-.52.3-.76.68-.54Zm0,6.3v-5.37l-2-1.15V196Z" transform="translate(-352.12 -81.4)"/><path class="cls-26" d="M442.23,193.67a1.68,1.68,0,0,1,.68,1.33v5.37c0,.52-.29.76-.68.54l-2-1.16a1.62,1.62,0,0,1-.67-1.32v-5.37c0-.51.3-.75.67-.54Zm0,6.31V194.6l-2-1.15v5.37Z" transform="translate(-352.12 -81.4)"/><path class="cls-27" d="M447.12,196.5a1.66,1.66,0,0,1,.68,1.32v5.37c0,.52-.29.76-.68.54l-2-1.15a1.65,1.65,0,0,1-.68-1.32v-5.38c0-.51.31-.75.68-.54Zm0,6.3v-5.37l-2-1.16v5.38Z" transform="translate(-352.12 -81.4)"/><path class="cls-28" d="M452,199.32a1.66,1.66,0,0,1,.68,1.32V206c0,.53-.29.77-.68.54l-2-1.15a1.63,1.63,0,0,1-.68-1.32V198.7c0-.51.31-.75.68-.53Zm0,6.3v-5.37l-2-1.15v5.37Z" transform="translate(-352.12 -81.4)"/></g><path class="cls-29" d="M362.31,150.92l1.25.72a1.36,1.36,0,0,1,.54.57,1.69,1.69,0,0,1,.21.92v2a.86.86,0,0,1-.16.63c-.17.18-.35.11-.59,0l-1.51-.87a1.59,1.59,0,0,1-.45-.42l-.26-.31a1.16,1.16,0,0,1-.38-.75c0-.24.15-.37.32-.27a.8.8,0,0,1,.22.2l.2.24a2.28,2.28,0,0,0,.36.39l1.57.91v-2.23l-2-1.15v-4.08l2.34,1.35a.72.72,0,0,1,.34.66c0,.33-.16.37-.34.27l-1.66-1Z" transform="translate(-352.12 -81.4)"/><path class="cls-29" d="M366.52,151.13c0,.21-.12.4-.33.27a.83.83,0,0,1-.34-.66v-.47c0-.2.12-.39.34-.26l3,1.74v2.69c0,.33,0,.37-.18.48l-.95.58c-.18.11-.19.12-.19.45v1.8c0,.3-.1.41-.34.27a.68.68,0,0,1-.34-.66v-2.24c0-.31,0-.33.17-.44l.94-.56c.22-.14.21-.14.21-.55v-1.29Z" transform="translate(-352.12 -81.4)"/><path class="cls-29" d="M371.41,159.33l2.34,1.35a.72.72,0,0,1,.34.66c0,.33-.16.37-.34.27l-3-1.74v-3c0-.7.25-.91.76-.61l1.91,1.1v-2.22l-2.33-1.35a.73.73,0,0,1-.34-.66c0-.34.16-.37.34-.27l2.25,1.3a1.35,1.35,0,0,1,.55.58,1.75,1.75,0,0,1,.21.95v1.9c0,.34,0,.58-.21.71s-.33.07-.55-.06l-1.92-1.1Z" transform="translate(-352.12 -81.4)"/><path class="cls-29" d="M377,159.39l1.25.72a1.36,1.36,0,0,1,.54.57,1.67,1.67,0,0,1,.21.92v2a.88.88,0,0,1-.16.64c-.17.18-.35.11-.59,0l-1.51-.87a1.64,1.64,0,0,1-.45-.43l-.26-.3a1.16,1.16,0,0,1-.38-.75c0-.24.14-.37.32-.27a.8.8,0,0,1,.22.2l.2.23a2,2,0,0,0,.36.4l1.57.9v-2.22l-2-1.15v-4.09l2.34,1.36a.72.72,0,0,1,.34.66c0,.33-.16.37-.34.27l-1.66-1Z" transform="translate(-352.12 -81.4)"/><path class="cls-29" d="M386.08,162.42c0,.21-.12.4-.34.27a.85.85,0,0,1-.34-.66v-.46c0-.21.13-.4.34-.27l3,1.74v2.7c0,.32,0,.36-.18.48l-1,.57c-.17.11-.19.12-.19.45V169c0,.3-.09.41-.33.27a.68.68,0,0,1-.34-.66v-2.24c0-.31,0-.33.17-.44l.94-.56c.22-.14.21-.14.21-.55v-1.28Z" transform="translate(-352.12 -81.4)"/><path class="cls-29" d="M391,170.62l2.34,1.35a.73.73,0,0,1,.34.66c0,.33-.16.37-.34.27l-3-1.74v-3c0-.7.26-.9.77-.61l1.91,1.1V166.4l-2.34-1.35a.74.74,0,0,1-.34-.66c0-.33.17-.37.34-.27l2.26,1.3a1.35,1.35,0,0,1,.55.58,1.77,1.77,0,0,1,.21.95v1.91c0,.33,0,.57-.21.7s-.33.07-.55-.06L391,168.4Z" transform="translate(-352.12 -81.4)"/><path class="cls-29" d="M395.52,167.87a.74.74,0,0,1-.34-.66c0-.33.17-.37.34-.27l2.34,1.35a1.63,1.63,0,0,1,.68,1.33v1.78c0,.37-.06.61-.27.75a2,2,0,0,1,.27,1V175c0,.53-.29.76-.68.54l-2.34-1.35a.75.75,0,0,1-.34-.66c0-.34.17-.37.34-.27l2.34,1.35v-1.55c0-.52-.15-.76-.34-.87l-1.33-.77a.73.73,0,0,1-.34-.66c0-.34.16-.37.34-.27l1.33.77c.19.11.34,0,.34-.48v-1.55Z" transform="translate(-352.12 -81.4)"/><path class="cls-29" d="M402.75,171.12a1.66,1.66,0,0,1,.68,1.32v5.37c0,.52-.29.76-.68.54l-2-1.15a1.65,1.65,0,0,1-.68-1.33V170.5c0-.51.31-.75.68-.54Zm0,6.3v-5.37l-2-1.16v5.38Z" transform="translate(-352.12 -81.4)"/><path class="cls-29" d="M410.53,176.54c0,.2-.12.39-.34.27a.85.85,0,0,1-.34-.66v-.47c0-.2.12-.39.34-.27l3,1.74v2.7c0,.33,0,.37-.19.48l-.95.58c-.17.11-.19.12-.19.44v1.81c0,.3-.09.41-.34.27a.7.7,0,0,1-.34-.66v-2.24c0-.31,0-.34.18-.44l.94-.57c.22-.14.21-.14.21-.55v-1.28Z" transform="translate(-352.12 -81.4)"/><path class="cls-29" d="M415.42,179.36c0,.21-.12.4-.34.27a.83.83,0,0,1-.34-.66v-.46c0-.21.12-.4.34-.27l3,1.74v2.69c0,.33,0,.37-.19.48l-1,.58c-.17.11-.19.12-.19.45V186c0,.3-.09.41-.34.27a.69.69,0,0,1-.34-.66v-2.24c0-.31,0-.33.18-.44l.94-.56c.22-.14.21-.14.21-.55v-1.28Z" transform="translate(-352.12 -81.4)"/><path class="cls-29" d="M420.31,182.19c0,.2-.12.39-.34.26a.82.82,0,0,1-.34-.66v-.46c0-.21.12-.4.34-.27l3,1.74v2.7c0,.32,0,.36-.19.48l-.95.57c-.17.11-.19.13-.19.45v1.8c0,.3-.09.41-.34.27a.69.69,0,0,1-.34-.66v-2.24c0-.31,0-.33.18-.44l.94-.56c.22-.14.21-.14.21-.55v-1.28Z" transform="translate(-352.12 -81.4)"/><path class="cls-29" d="M425.2,185c0,.2-.12.39-.34.27a.85.85,0,0,1-.34-.66v-.47c0-.2.12-.39.34-.27l3,1.74v2.7c0,.32,0,.37-.19.48l-.95.58c-.17.11-.19.12-.19.44v1.81c0,.29-.09.41-.34.27a.71.71,0,0,1-.34-.66V189c0-.3,0-.33.18-.43L427,188c.22-.14.21-.14.21-.55v-1.28Z" transform="translate(-352.12 -81.4)"/><path class="cls-29" d="M437,190.88a1.66,1.66,0,0,1,.68,1.32v5.37c0,.52-.3.76-.68.54L435,197a1.62,1.62,0,0,1-.68-1.32v-5.38c0-.51.31-.75.68-.54Zm0,6.3v-5.37l-2-1.16V196Z" transform="translate(-352.12 -81.4)"/><path class="cls-29" d="M441.87,193.7a1.68,1.68,0,0,1,.68,1.32v5.38c0,.52-.3.76-.68.53l-2-1.15a1.61,1.61,0,0,1-.68-1.32v-5.37c0-.52.31-.76.68-.54Zm0,6.3v-5.37l-2-1.15v5.37Z" transform="translate(-352.12 -81.4)"/><path class="cls-29" d="M446.76,196.52a1.67,1.67,0,0,1,.67,1.33v5.37c0,.52-.29.76-.67.54l-2-1.16a1.61,1.61,0,0,1-.68-1.32v-5.37c0-.51.31-.75.68-.54Zm0,6.31v-5.38l-2-1.15v5.37Z" transform="translate(-352.12 -81.4)"/><path class="cls-29" d="M451.65,199.35a1.65,1.65,0,0,1,.67,1.32V206c0,.52-.29.76-.67.54l-2-1.15a1.62,1.62,0,0,1-.68-1.32v-5.38c0-.51.31-.75.68-.54Zm0,6.3v-5.37l-2-1.16v5.38Z" transform="translate(-352.12 -81.4)"/><polygon class="cls-30" points="23.2 65.75 23.2 62.2 9.28 54.16 9.28 57.71 23.2 65.75"/><path class="cls-31" d="M375.32,142.75v-.19a6.46,6.46,0,0,0-2.93-5.05l-8.07-4.65c-1.61-.94-2.92-.19-2.92,1.66v.2Z" transform="translate(-352.12 -81.4)"/><path class="cls-32" d="M361.4,140v.12a6.45,6.45,0,0,0,2.92,5l8.07,4.66c1.62.94,2.93.19,2.93-1.66V148Z" transform="translate(-352.12 -81.4)"/><g class="cls-12"><path class="cls-33" d="M361.4,140.08c0,.13,0,.27,0,.41l13.42,7.74v.12a2.1,2.1,0,0,1-.72,1.77,1.85,1.85,0,0,0,1.19-2V148l-13.92-8Z" transform="translate(-352.12 -81.4)"/><polygon class="cls-34" points="9.28 54.66 22.73 62.43 22.73 65.48 23.2 65.75 23.2 62.2 9.28 54.16 9.28 54.66"/><path class="cls-35" d="M372.39,137.51l-8.07-4.65a1.92,1.92,0,0,0-2.2-.1,2.25,2.25,0,0,1,1.74.33l8.07,4.66a6.5,6.5,0,0,1,2.9,4.72l.49.28v-.19A6.46,6.46,0,0,0,372.39,137.51Z" transform="translate(-352.12 -81.4)"/></g><path class="cls-29" d="M362.63,170.65v-2.47l.43.25v2.5c0,.87-.33,1.11-1,.73a1.8,1.8,0,0,1-.45-.35l.06-.36a1.25,1.25,0,0,0,.36.28c.2.12.35.14.44.06S362.63,171,362.63,170.65Z" transform="translate(-352.12 -81.4)"/><path class="cls-29" d="M364.74,170.4a2.14,2.14,0,0,1,.81.85,2.41,2.41,0,0,1,.32,1.18c0,.46-.12.75-.35.86a.87.87,0,0,1-.82-.11,2.24,2.24,0,0,1-.8-.84,2.34,2.34,0,0,1-.32-1.19.92.92,0,0,1,.33-.85A.81.81,0,0,1,364.74,170.4Zm.51,1a1.19,1.19,0,0,0-.52-.62c-.23-.14-.41-.14-.53,0a.85.85,0,0,0-.19.62,2,2,0,0,0,.2.86,1.3,1.3,0,0,0,.51.59.42.42,0,0,0,.51,0,.83.83,0,0,0,.2-.63A2.05,2.05,0,0,0,365.25,171.38Z" transform="translate(-352.12 -81.4)"/><path class="cls-29" d="M366.4,174.1v-3.94l.43.25v1.68h0a.4.4,0,0,1,.3-.17.75.75,0,0,1,.44.12,1.37,1.37,0,0,1,.21.15,1.6,1.6,0,0,1,.21.23,1.32,1.32,0,0,1,.2.32,1.52,1.52,0,0,1,.14.41,2.1,2.1,0,0,1,.06.51v1.6L368,175v-1.54a1.59,1.59,0,0,0-.13-.66,1,1,0,0,0-.41-.45.43.43,0,0,0-.35-.07.34.34,0,0,0-.22.22.61.61,0,0,0,0,.22v1.62Z" transform="translate(-352.12 -81.4)"/><path class="cls-29" d="M369.09,175.66v-2c0-.28,0-.53,0-.73l.38.21,0,.46h0a.41.41,0,0,1,.3-.19.87.87,0,0,1,.48.13,2.47,2.47,0,0,1,.27.21,2.37,2.37,0,0,1,.26.33,1.51,1.51,0,0,1,.21.48,2,2,0,0,1,.09.61v1.6l-.43-.25V175a1.54,1.54,0,0,0-.13-.65,1,1,0,0,0-.41-.46.49.49,0,0,0-.36-.06.37.37,0,0,0-.21.23.58.58,0,0,0,0,.21v1.62Z" transform="translate(-352.12 -81.4)"/><path class="cls-29" d="M372.65,177.53l.12-.34a2.52,2.52,0,0,0,.75.68.61.61,0,0,0,.5.11q.18-.07.18-.36a1.09,1.09,0,0,0-.14-.51,3.44,3.44,0,0,0-.48-.58,2.42,2.42,0,0,1-.86-1.57.54.54,0,0,1,.3-.56.87.87,0,0,1,.76.16,2.63,2.63,0,0,1,.71.59l-.11.33a2.11,2.11,0,0,0-.62-.53c-.2-.12-.35-.15-.46-.1a.31.31,0,0,0-.15.3.94.94,0,0,0,.15.5,3.12,3.12,0,0,0,.5.6,3.65,3.65,0,0,1,.62.81,1.5,1.5,0,0,1,.2.77c0,.31-.09.51-.29.6s-.47,0-.84-.18a2.69,2.69,0,0,1-.47-.33A3.22,3.22,0,0,1,372.65,177.53Z" transform="translate(-352.12 -81.4)"/><path class="cls-29" d="M375.19,179.18v-2c0-.19,0-.44,0-.74l.37.21,0,.45h0c.17-.23.41-.25.74-.07a1.37,1.37,0,0,1,.41.39,1.72,1.72,0,0,1,.25.53h0a.47.47,0,0,1,.26-.2.71.71,0,0,1,.52.11,1.46,1.46,0,0,1,.25.2,1.42,1.42,0,0,1,.25.32,1.78,1.78,0,0,1,.2.48,2.37,2.37,0,0,1,.07.61v1.58l-.41-.24v-1.52a1.75,1.75,0,0,0-.13-.68,1,1,0,0,0-.38-.44.4.4,0,0,0-.31,0,.33.33,0,0,0-.2.2.85.85,0,0,0,0,.22v1.66l-.41-.24v-1.61a1.32,1.32,0,0,0-.13-.6.85.85,0,0,0-.36-.41.37.37,0,0,0-.33-.05.36.36,0,0,0-.2.23.61.61,0,0,0,0,.22v1.62Z" transform="translate(-352.12 -81.4)"/><path class="cls-29" d="M379.25,177.86a.19.19,0,0,1,.19,0,.52.52,0,0,1,.19.2.48.48,0,0,1,.07.26.18.18,0,0,1-.07.17c-.05,0-.11,0-.2,0a.47.47,0,0,1-.18-.19.51.51,0,0,1-.07-.26A.18.18,0,0,1,379.25,177.86Zm.41,3.89-.43-.24v-2.69l.43.25Z" transform="translate(-352.12 -81.4)"/><path class="cls-29" d="M380.46,179l.42.1v.64l.61.35v.37l-.61-.35v1.45a.75.75,0,0,0,.31.71,1.19,1.19,0,0,0,.25.11l0,.38a1.34,1.34,0,0,1-.38-.15,1.22,1.22,0,0,1-.46-.47,1.67,1.67,0,0,1-.16-.8V179.9l-.36-.21v-.37l.36.21Z" transform="translate(-352.12 -81.4)"/><path class="cls-29" d="M382,183.09v-4l.43.25v1.68h0a.39.39,0,0,1,.31-.18.74.74,0,0,1,.43.12l.21.15a1.29,1.29,0,0,1,.21.24,1.27,1.27,0,0,1,.2.31,1.59,1.59,0,0,1,.14.42,2,2,0,0,1,.06.5v1.6l-.43-.25v-1.54a1.54,1.54,0,0,0-.13-.65.92.92,0,0,0-.41-.46.42.42,0,0,0-.35-.06.31.31,0,0,0-.22.22.55.55,0,0,0,0,.21v1.62Z" transform="translate(-352.12 -81.4)"/><g class="cls-36"><path class="cls-37" d="M409.53,151l.13.72a3.18,3.18,0,0,1-1.41-.53,5.41,5.41,0,0,1-2.63-4.63,2,2,0,0,1,.78-1.88,2,2,0,0,1,2,.28,4.69,4.69,0,0,1,1.27,1l-.17.55a4.38,4.38,0,0,0-1.07-.88,1.49,1.49,0,0,0-1.52-.2q-.57.33-.57,1.53a4.18,4.18,0,0,0,.55,2.11,3.94,3.94,0,0,0,1.5,1.53A2.53,2.53,0,0,0,409.53,151Z" transform="translate(-352.12 -81.4)"/><path class="cls-38" d="M410.49,152.39v-3c0-.55,0-1,0-1.39l.61.36,0,.89h0a.72.72,0,0,1,.42-.46.83.83,0,0,1,.65.11l.19.13v.76l-.24-.16a.6.6,0,0,0-.61-.07.71.71,0,0,0-.32.55,1.94,1.94,0,0,0,0,.36v2.34Z" transform="translate(-352.12 -81.4)"/><path class="cls-39" d="M416.08,153.57,413.39,152a2.57,2.57,0,0,0,.37,1.37,2.75,2.75,0,0,0,.94.92,2.63,2.63,0,0,0,1.06.38l.13.65a3.07,3.07,0,0,1-1.28-.46,3.71,3.71,0,0,1-1.38-1.4,3.86,3.86,0,0,1-.51-1.92,1.73,1.73,0,0,1,.49-1.4c.33-.26.77-.23,1.31.08a2.83,2.83,0,0,1,.77.65,3,3,0,0,1,.5.82,4.76,4.76,0,0,1,.24.8,3.56,3.56,0,0,1,.07.71A1.78,1.78,0,0,1,416.08,153.57Zm-2.68-2.13,2,1.18a2.4,2.4,0,0,0-.22-1,1.7,1.7,0,0,0-.75-.84c-.32-.19-.57-.2-.75,0A1,1,0,0,0,413.4,151.44Z" transform="translate(-352.12 -81.4)"/><path class="cls-40" d="M419.58,151.19l.69.4v5.31c0,.36,0,.75,0,1.16l-.61-.36,0-.78h0a.64.64,0,0,1-.5.33,1.24,1.24,0,0,1-.79-.22,3.14,3.14,0,0,1-1.18-1.3,4,4,0,0,1-.47-1.88,1.65,1.65,0,0,1,.5-1.43,1.08,1.08,0,0,1,1.22.07,2.62,2.62,0,0,1,.72.6,3,3,0,0,1,.44.73h0Zm0,4.61V155a1.83,1.83,0,0,0,0-.35,2.34,2.34,0,0,0-.35-.86,1.92,1.92,0,0,0-.66-.64c-.35-.2-.63-.21-.84,0a1.45,1.45,0,0,0-.3,1,3.22,3.22,0,0,0,.29,1.33,2.07,2.07,0,0,0,.84,1,.77.77,0,0,0,.64.11.59.59,0,0,0,.38-.48A1.39,1.39,0,0,0,419.58,155.8Z" transform="translate(-352.12 -81.4)"/><path class="cls-41" d="M421.47,152.74a.28.28,0,0,1,.31,0,.8.8,0,0,1,.31.32.84.84,0,0,1,.12.42.32.32,0,0,1-.12.29.33.33,0,0,1-.32-.05.8.8,0,0,1-.31-.32.9.9,0,0,1-.11-.41A.32.32,0,0,1,421.47,152.74Zm.66,6.38-.69-.41v-4.4l.69.41Z" transform="translate(-352.12 -81.4)"/><path class="cls-42" d="M423.45,154.66l.68.15v1.06l1,.57v.61l-1-.57v2.37a1.23,1.23,0,0,0,.52,1.16,1.55,1.55,0,0,0,.41.17l0,.63a1.79,1.79,0,0,1-.62-.25,1.92,1.92,0,0,1-.75-.77,2.74,2.74,0,0,1-.27-1.31v-2.4l-.6-.34v-.61l.6.34Z" transform="translate(-352.12 -81.4)"/><path class="cls-43" d="M431.2,163.52l.14.72a3.18,3.18,0,0,1-1.41-.52,5.39,5.39,0,0,1-2.63-4.63,1.66,1.66,0,0,1,2.79-1.61,4.78,4.78,0,0,1,1.26,1l-.17.55a4.16,4.16,0,0,0-1.07-.87,1.47,1.47,0,0,0-1.52-.21c-.37.23-.56.74-.56,1.53a4.34,4.34,0,0,0,.54,2.12,3.94,3.94,0,0,0,1.5,1.53A2.53,2.53,0,0,0,431.2,163.52Z" transform="translate(-352.12 -81.4)"/><path class="cls-44" d="M434.82,163.74v1.65a8.32,8.32,0,0,0,.06,1.08l-.63-.36-.05-.58,0,0a.62.62,0,0,1-.48.19,1.29,1.29,0,0,1-.69-.21,2.18,2.18,0,0,1-.86-.87,2.14,2.14,0,0,1-.31-1.07c0-.53.2-.83.6-.88a3,3,0,0,1,1.7.57v-.09a1.83,1.83,0,0,0,0-.33,2.54,2.54,0,0,0-.11-.38,1.54,1.54,0,0,0-.27-.43,2,2,0,0,0-.47-.37,1.47,1.47,0,0,0-1-.25l-.16-.63a2.1,2.1,0,0,1,1.27.35,2.6,2.6,0,0,1,1.12,1.16A3.43,3.43,0,0,1,434.82,163.74Zm-.67.83v-.76c-1.08-.65-1.62-.63-1.62.05a1.33,1.33,0,0,0,.18.68,1.38,1.38,0,0,0,.47.46.75.75,0,0,0,.6.13.48.48,0,0,0,.34-.32A.88.88,0,0,0,434.15,164.57Z" transform="translate(-352.12 -81.4)"/><path class="cls-45" d="M436,167.09v-3c0-.55,0-1,0-1.39l.61.36,0,.89h0a.72.72,0,0,1,.42-.46.83.83,0,0,1,.65.11l.19.13v.76a1.93,1.93,0,0,0-.24-.16.6.6,0,0,0-.61-.07.71.71,0,0,0-.32.55,1.94,1.94,0,0,0,0,.36v2.34Z" transform="translate(-352.12 -81.4)"/><path class="cls-46" d="M441.07,163.6l.69.39v5.32c0,.36,0,.74,0,1.16l-.61-.36,0-.78,0,0a.61.61,0,0,1-.5.34,1.26,1.26,0,0,1-.79-.22,3.14,3.14,0,0,1-1.18-1.3,4,4,0,0,1-.47-1.89,1.64,1.64,0,0,1,.5-1.42,1.09,1.09,0,0,1,1.22.06,2.65,2.65,0,0,1,.72.61,2.79,2.79,0,0,1,.44.72h0Zm0,4.61v-.77a1.83,1.83,0,0,0,0-.35,2.34,2.34,0,0,0-.35-.86,1.89,1.89,0,0,0-.65-.64c-.36-.21-.64-.21-.84,0a1.39,1.39,0,0,0-.31,1,3.22,3.22,0,0,0,.29,1.33,2.12,2.12,0,0,0,.84,1,.81.81,0,0,0,.64.11.59.59,0,0,0,.38-.48A1.39,1.39,0,0,0,441.07,168.21Z" transform="translate(-352.12 -81.4)"/></g><path class="cls-29" d="M400.47,193.77v-3.15h0l-.55,0-.08-.42.69,0,.36.21V194Z" transform="translate(-352.12 -81.4)"/><path class="cls-29" d="M403,195.21v-3.16h0l-.54,0-.09-.42.69,0,.36.21v3.61Z" transform="translate(-352.12 -81.4)"/><path class="cls-29" d="M404.61,196.38l-.32-.19,1.34-3.25.34.2Z" transform="translate(-352.12 -81.4)"/><path class="cls-29" d="M408.18,198.22l-2-1.16v-.3l.34-.18a3.88,3.88,0,0,0,.91-.58.83.83,0,0,0,.26-.63,1.23,1.23,0,0,0-.15-.59,1.18,1.18,0,0,0-.47-.47.74.74,0,0,0-.67-.08l-.14-.42a1,1,0,0,1,.89.14,1.8,1.8,0,0,1,.72.73,1.85,1.85,0,0,1,.24.88,1.07,1.07,0,0,1-.25.74,3.26,3.26,0,0,1-.83.57l-.25.12v0l1.41.81Z" transform="translate(-352.12 -81.4)"/><path class="cls-29" d="M408.91,195.47a.59.59,0,0,1,.8,0,1.79,1.79,0,0,1,.77.92,3.86,3.86,0,0,1,.27,1.5,2,2,0,0,1-.28,1.25q-.29.33-.81,0a1.85,1.85,0,0,1-.76-.93,3.8,3.8,0,0,1-.29-1.53A1.8,1.8,0,0,1,408.91,195.47Zm.77.33a.3.3,0,0,0-.46.12,2.06,2.06,0,0,0-.18,1,3.64,3.64,0,0,0,.17,1.18,1.16,1.16,0,0,0,.47.66.31.31,0,0,0,.48-.12,2.26,2.26,0,0,0,.16-1,3.66,3.66,0,0,0-.16-1.18A1.07,1.07,0,0,0,409.68,195.8Z" transform="translate(-352.12 -81.4)"/><path class="cls-47" d="M525.7,384.49l-79.62-46c-9-5.19-16.27-19.1-16.27-31.07V95.4c0-6.09-5-7.43-2-9.62.11-.08,7.11-3.26,7.24-3.31,3.26-1.25,6.75-1.81,11,.64l79.62,46c9,5.19,16.26,19.1,16.26,31.07V372.2c0,6.36-2.06,10.89-5.33,13-.19.12-8.62,4.13-8.84,4.2C524.89,390.34,529.62,386.76,525.7,384.49Z" transform="translate(-352.12 -81.4)"/><path class="cls-48" d="M525,129.32l-79.62-46c-4.24-2.44,75.22,47.44,75.22,47.44,9,5.19,16.26,19.1,16.26,31.07,0,0,4.41,216.94,4.41,210.58v-212C541.23,148.42,534,134.51,525,129.32Z" transform="translate(-352.12 -81.4)"/><path class="cls-49" d="M519.51,387.32l-79.62-46c-9-5.19-16.26-19.1-16.26-31.07v-212c0-12,7.28-17.48,16.26-12.29l79.62,46c9,5.18,16.26,19.09,16.26,31.07V375C535.77,387,528.49,392.5,519.51,387.32Z" transform="translate(-352.12 -81.4)"/><path class="cls-50" d="M518.1,388.08l-79.63-46c-9-5.18-16.26-19.09-16.26-31.07V99c0-12,7.28-17.48,16.26-12.3l79.63,46c9,5.19,16.26,19.1,16.26,31.08v212C534.36,387.76,527.08,393.27,518.1,388.08Z" transform="translate(-352.12 -81.4)"/><path class="cls-51" d="M424.43,312.45V100.15c0-10.5,6.38-15.33,14.25-10.78l79.2,45.73c7.88,4.54,14.26,16.74,14.26,27.23V374.64c0,10.5-6.38,15.32-14.26,10.78l-79.2-45.73C430.81,335.15,424.43,323,424.43,312.45Z" transform="translate(-352.12 -81.4)"/><path class="cls-52" d="M427.6,313.74V102.51c0-8.78,5.34-12.82,11.93-9L517,138.24c6.59,3.81,11.93,14,11.93,22.8V372.27c0,8.79-5.34,12.83-11.93,9l-77.51-44.75C432.94,332.74,427.6,322.53,427.6,313.74Z" transform="translate(-352.12 -81.4)"/><path class="cls-53" d="M440.43,95.83c-6.21-3.59-11.25-.72-11.25,6.41V315.85c0,7.12,5,15.81,11.25,19.39L516.14,379c6.21,3.58,11.25.71,11.25-6.41V158.94c0-7.13-5-15.81-11.25-19.4Z" transform="translate(-352.12 -81.4)"/><path class="cls-54" d="M536.5,212.81V198.49a6,6,0,0,1,2.48-4.75h0c1.37-.79,2.49,0,2.49,1.88v14.32a6,6,0,0,1-2.49,4.75h0C537.61,215.48,536.5,214.64,536.5,212.81Z" transform="translate(-352.12 -81.4)"/><path class="cls-55" d="M538,214.45c-.7,0-1-.89-1-1.64V198.49a5.44,5.44,0,0,1,2.22-4.28A1.47,1.47,0,0,1,540,194c.71,0,1,.89,1,1.64v14.32a5.44,5.44,0,0,1-2.22,4.28A1.44,1.44,0,0,1,538,214.45Z" transform="translate(-352.12 -81.4)"/><path class="cls-56" d="M537.77,213.17V198.86a5.44,5.44,0,0,1,2.21-4.28,1.68,1.68,0,0,1,.64-.22A.77.77,0,0,0,540,194a1.47,1.47,0,0,0-.72.23,5.44,5.44,0,0,0-2.22,4.28v14.32c0,.75.26,1.64,1,1.64l.09,0A2.34,2.34,0,0,1,537.77,213.17Z" transform="translate(-352.12 -81.4)"/><g class="cls-57"><path class="cls-58" d="M440.61,134.77c-6.54-3.77-11.84-.75-11.84,6.76V312.12c0,7.51,5.3,16.65,11.84,20.43l79.73,46c6.54,3.78,11.85.76,11.85-6.75V201.23c0-7.5-5.31-16.65-11.85-20.42Z" transform="translate(-352.12 -81.4)"/><path class="cls-59" d="M440.62,135.33c-6.51-3.76-11.78-.75-11.78,6.72V311.81c0,7.47,5.27,16.57,11.78,20.33L520,378c6.51,3.76,11.78.75,11.78-6.72V201.47c0-7.47-5.27-16.57-11.78-20.33Z" transform="translate(-352.12 -81.4)"/><path class="cls-60" d="M440.64,135.89c-6.48-3.74-11.73-.75-11.73,6.69V311.51c0,7.43,5.25,16.49,11.73,20.23l79,45.58c6.48,3.74,11.73.75,11.73-6.69V201.7c0-7.43-5.25-16.49-11.73-20.23Z" transform="translate(-352.12 -81.4)"/><path class="cls-61" d="M440.65,136.45c-6.45-3.72-11.67-.74-11.67,6.65V311.2c0,7.4,5.22,16.41,11.67,20.13l78.56,45.36c6.45,3.72,11.67.74,11.67-6.65V201.94c0-7.4-5.22-16.41-11.67-20.13Z" transform="translate(-352.12 -81.4)"/><path class="cls-62" d="M440.66,137c-6.41-3.71-11.61-.74-11.61,6.62V310.89c0,7.36,5.2,16.33,11.61,20l78.18,45.14c6.41,3.7,11.61.74,11.61-6.62V202.17c0-7.36-5.2-16.33-11.61-20Z" transform="translate(-352.12 -81.4)"/><path class="cls-63" d="M440.67,137.56c-6.38-3.68-11.55-.73-11.55,6.59V310.59c0,7.32,5.17,16.24,11.55,19.93l77.79,44.91c6.38,3.68,11.55.73,11.55-6.59V202.4c0-7.32-5.17-16.24-11.55-19.93Z" transform="translate(-352.12 -81.4)"/><path class="cls-64" d="M440.68,138.12c-6.34-3.66-11.49-.73-11.49,6.56v165.6c0,7.29,5.15,16.16,11.49,19.83l77.4,44.69c6.35,3.66,11.5.73,11.5-6.56V202.64c0-7.29-5.15-16.17-11.5-19.83Z" transform="translate(-352.12 -81.4)"/><path class="cls-65" d="M440.7,138.68c-6.32-3.65-11.44-.73-11.44,6.52V310c0,7.25,5.12,16.09,11.44,19.73l77,44.46c6.31,3.65,11.44.73,11.44-6.52V202.87c0-7.25-5.13-16.08-11.44-19.73Z" transform="translate(-352.12 -81.4)"/><path class="cls-66" d="M440.71,139.24c-6.29-3.63-11.38-.73-11.38,6.49V309.67c0,7.21,5.09,16,11.38,19.63l76.62,44.23c6.29,3.63,11.38.73,11.38-6.49V203.11c0-7.22-5.09-16-11.38-19.63Z" transform="translate(-352.12 -81.4)"/><path class="cls-67" d="M440.72,139.8c-6.25-3.61-11.32-.72-11.32,6.45V309.36c0,7.17,5.07,15.92,11.32,19.53l76.23,44c6.26,3.61,11.33.72,11.33-6.45V203.34c0-7.18-5.07-15.92-11.33-19.53Z" transform="translate(-352.12 -81.4)"/><path class="cls-68" d="M440.73,140.35c-6.22-3.59-11.26-.71-11.26,6.43V309.05c0,7.14,5,15.84,11.26,19.43l75.85,43.79c6.22,3.59,11.26.72,11.26-6.42V203.57c0-7.14-5-15.84-11.26-19.43Z" transform="translate(-352.12 -81.4)"/><path class="cls-69" d="M440.75,140.91c-6.19-3.57-11.21-.71-11.21,6.39V308.74c0,7.11,5,15.76,11.21,19.34l75.45,43.56c6.19,3.57,11.21.71,11.21-6.39V203.81c0-7.11-5-15.76-11.21-19.33Z" transform="translate(-352.12 -81.4)"/></g><path class="cls-70" d="M440.43,140.29c-6.21-3.59-11.25-.72-11.25,6.41v162c0,7.13,5,15.81,11.25,19.4l75.71,43.71c6.21,3.59,11.25.72,11.25-6.41v-162c0-7.13-5-15.81-11.25-19.4Z" transform="translate(-352.12 -81.4)"/><path class="cls-71" d="M516.14,184l-75.71-43.71c-6.21-3.59-11.25-.72-11.25,6.41v1.09c0-7.13,5-10,11.25-6.42l75.71,43.72c6.21,3.58,11.25,12.27,11.25,19.4V203.4C527.39,196.27,522.35,187.59,516.14,184Z" transform="translate(-352.12 -81.4)"/><path class="cls-72" d="M510.12,149.7l9.83,5.68c.37.22.68,0,.68-.39a1.51,1.51,0,0,0-.68-1.17l-9.83-5.67c-.38-.22-.68-.05-.68.38A1.47,1.47,0,0,0,510.12,149.7Zm9.83,7.62-9.83-5.67c-.38-.22-.68-.05-.68.38a1.47,1.47,0,0,0,.68,1.17l9.83,5.68c.37.22.68,0,.68-.39A1.51,1.51,0,0,0,520,157.32Zm0,3.51-9.83-5.68c-.38-.22-.68,0-.68.39a1.49,1.49,0,0,0,.68,1.17l9.83,5.67c.37.22.68.05.68-.38A1.5,1.5,0,0,0,520,160.83Z" transform="translate(-352.12 -81.4)"/><path class="cls-72" d="M449.87,115.74c0,1-.73,1.46-1.63.94a3.6,3.6,0,0,1-1.64-2.83c0-1,.73-1.45,1.64-.93A3.61,3.61,0,0,1,449.87,115.74Z" transform="translate(-352.12 -81.4)"/><path class="cls-72" d="M444.94,112.87c0,1-.74,1.46-1.64.94a3.6,3.6,0,0,1-1.64-2.83c0-1,.73-1.45,1.64-.93A3.62,3.62,0,0,1,444.94,112.87Z" transform="translate(-352.12 -81.4)"/><path class="cls-72" d="M440,110c0,1-.74,1.45-1.64.93a3.63,3.63,0,0,1-1.64-2.83c0-1,.74-1.45,1.64-.93A3.63,3.63,0,0,1,440,110Z" transform="translate(-352.12 -81.4)"/><path class="cls-72" d="M478.37,129.39c-1.12-.65-2-.13-2,1.14a4.43,4.43,0,0,0,2,3.48c1.11.64,2,.13,2-1.15A4.44,4.44,0,0,0,478.37,129.39Zm-14.22,8.1c-1.12-.64-2-.12-2,1.15a4.43,4.43,0,0,0,2,3.48c1.11.64,2,.13,2-1.15A4.46,4.46,0,0,0,464.15,137.49Zm28.44,16.42c-1.11-.64-2-.12-2,1.15a4.45,4.45,0,0,0,2,3.48c1.11.64,2,.13,2-1.15A4.46,4.46,0,0,0,492.59,153.91Zm.19-1.56c2-.17,2.7-2.72,1.54-5.69s-3.73-5.25-5.74-5.08-2.69,2.72-1.53,5.7S490.77,152.52,492.78,152.35Zm-5.56-12.2c.56-.78.23-2.39-.73-3.58s-2.2-1.53-2.76-.74-.22,2.39.74,3.58S486.67,140.94,487.22,140.15Zm-17-13c-1,.09-1.29,1.31-.74,2.74s1.79,2.52,2.76,2.43,1.29-1.3.73-2.73S471.21,127.11,470.25,127.19Zm-5.94,3.39c-.56.79-.23,2.39.73,3.59s2.2,1.53,2.76.74.22-2.39-.74-3.58S464.86,129.8,464.31,130.58Z" transform="translate(-352.12 -81.4)"/><ellipse class="cls-73" cx="511.21" cy="223.23" rx="6.48" ry="11.22" transform="translate(-394.9 207.11) rotate(-30.31)"/><path class="cls-74" d="M457.24,175c-.69-1.76-2.25-3-3.36-2.75-9.48,2.37-16,10.87-17.28,24.19a5,5,0,0,0,2.29,4.27l5.2,3c1.16.67,2.15.26,2.29-1,1.06-9.76,5.86-16.05,12.81-18,.95-.26,1.23-1.58.64-3.09Zm39.5,17.66a74.81,74.81,0,0,0-18.26-15.33c-6.55-3.78-12.74-5.63-18.27-5.76-1.21,0-1.68,1.41-1,3.14l2.59,6.65c.6,1.52,1.88,2.74,3,2.78a30.13,30.13,0,0,1,13.73,4.42A57,57,0,0,1,492.21,200c1.07,1.2,2.36,1.46,3,.62l2.59-3.66C498.43,196,498,194,496.74,192.65Zm6.33,8c-1.11-1.56-2.67-2.08-3.36-1.12l-2.59,3.66c-.59.84-.3,2.49.65,3.84,6.94,10,11.74,21.79,12.81,32.78a5.13,5.13,0,0,0,2.28,3.62l5.2,3c1.38.79,2.43,0,2.29-1.62C519.08,230,512.56,214,503.07,200.63Z" transform="translate(-352.12 -81.4)"/><path class="cls-75" d="M452.79,173c-9.48,2.38-16,10.87-17.28,24.2a5,5,0,0,0,2.3,4.27l5.19,3c1.16.66,2.15.26,2.29-1,1.06-9.76,5.86-16.06,12.81-18,.95-.27,1.24-1.58.65-3.1l-2.6-6.65C455.47,174,453.91,172.73,452.79,173Z" transform="translate(-352.12 -81.4)"/><path class="cls-76" d="M496.66,197.73c.68-.95.21-2.93-1-4.3a74.62,74.62,0,0,0-18.26-15.33c-6.55-3.78-12.74-5.63-18.26-5.76-1.22,0-1.69,1.4-1,3.13l2.6,6.66c.59,1.52,1.87,2.74,3,2.78a30.09,30.09,0,0,1,13.73,4.42,57,57,0,0,1,13.73,11.44c1.07,1.2,2.36,1.46,2.95.62Z" transform="translate(-352.12 -81.4)"/><path class="cls-77" d="M498.63,200.29,496,204c-.59.83-.3,2.48.65,3.84,6.95,10,11.74,21.78,12.81,32.78a5.14,5.14,0,0,0,2.28,3.61l5.2,3c1.38.8,2.44,0,2.3-1.61-1.27-14.8-7.8-30.83-17.29-44.16C500.87,199.85,499.31,199.33,498.63,200.29Z" transform="translate(-352.12 -81.4)"/><g class="cls-12"><path class="cls-78" d="M456.15,175.77c-.68-1.76-2.24-3-3.36-2.76a20.42,20.42,0,0,0-11.86,8.21,20.35,20.35,0,0,1,11.4-7.59c1.11-.27,2.67,1,3.35,2.76l2.6,6.66a3.28,3.28,0,0,1,.16,2.31c.67-.46.82-1.62.31-2.94Z" transform="translate(-352.12 -81.4)"/><path class="cls-78" d="M502,201.41c-1.11-1.56-2.67-2.08-3.35-1.12l-.38.54c.72-.83,2.2-.3,3.27,1.2,9.48,13.33,16,29.36,17.28,44.16a2.53,2.53,0,0,1-.13,1.11,1.81,1.81,0,0,0,.6-1.73C518,230.77,511.47,214.74,502,201.41Z" transform="translate(-352.12 -81.4)"/><path class="cls-78" d="M444.82,204.12a2,2,0,0,1-.11.47,1.44,1.44,0,0,0,.58-1.09,24.82,24.82,0,0,1,4.07-11.74A24.33,24.33,0,0,0,444.82,204.12Z" transform="translate(-352.12 -81.4)"/><path class="cls-78" d="M495.65,193.43a74.62,74.62,0,0,0-18.26-15.33c-6.55-3.78-12.74-5.63-18.26-5.76a1.19,1.19,0,0,0-1.18.83,1.19,1.19,0,0,1,.71-.21c5.52.13,11.72,2,18.26,5.76a74.85,74.85,0,0,1,18.27,15.33c1.21,1.38,1.68,3.35,1,4.3L494,201.49l.09-.1,2.6-3.66C497.34,196.78,496.87,194.8,495.65,193.43Z" transform="translate(-352.12 -81.4)"/></g><path class="cls-72" d="M517.77,228.53c0,5-3.56,7.07-8,4.53s-7.95-8.68-7.95-13.72,3.56-7.08,7.95-4.54S517.77,223.48,517.77,228.53Z" transform="translate(-352.12 -81.4)"/><path class="cls-79" d="M516.28,227.66c0,4.1-2.89,5.75-6.47,3.69a14.23,14.23,0,0,1-6.46-11.15c0-4.1,2.89-5.75,6.46-3.69A14.23,14.23,0,0,1,516.28,227.66Z" transform="translate(-352.12 -81.4)"/><path class="cls-80" d="M510.59,231.12A14.25,14.25,0,0,1,504.13,220c0-2.21.84-3.7,2.18-4.29-1.78.29-3,1.91-3,4.52a14.23,14.23,0,0,0,6.46,11.15,4.78,4.78,0,0,0,4.29.6A5.34,5.34,0,0,1,510.59,231.12Z" transform="translate(-352.12 -81.4)"/><path class="cls-72" d="M513.54,226.08c0,2.37-1.67,3.32-3.73,2.13a8.22,8.22,0,0,1-3.73-6.43c0-2.37,1.67-3.32,3.73-2.13A8.22,8.22,0,0,1,513.54,226.08Z" transform="translate(-352.12 -81.4)"/><polygon class="cls-81" points="140.56 141.31 150.51 144.52 148.3 154.66 140.56 141.31"/><polygon class="cls-82" points="139.71 141.62 149.65 144.83 147.44 154.97 139.71 141.62"/><polygon class="cls-83" points="139.71 141.62 140.24 142.54 149.27 145.45 147.26 154.65 147.44 154.97 149.65 144.83 139.71 141.62"/><path class="cls-72" d="M465.66,215.47l-5.58-3.22v-2.89l8.3,4.79v2.77l-4.33,14.93-2.81-1.63Z" transform="translate(-352.12 -81.4)"/><path class="cls-72" d="M471.14,234.92a9,9,0,0,1-1.05-4.38v-.37l2.61,1.51v.58a3,3,0,0,0,1.43,2.81c.52.3.91.34,1.16.12s.38-.79.38-1.71v-3.87l-.05,0c-.49.9-1.33,1-2.52.31a5.62,5.62,0,0,1-2.29-2.5,9.07,9.07,0,0,1-.77-3.88V219.9c0-1.62.36-2.66,1.08-3.13s1.76-.31,3.11.48a8.06,8.06,0,0,1,3.12,3.12,8.89,8.89,0,0,1,1.08,4.38v10.44q0,5.25-4.22,2.81A8,8,0,0,1,471.14,234.92Zm4.53-8.42v-3.58a3,3,0,0,0-1.44-2.79c-1-.55-1.43-.17-1.43,1.14v3.57a3,3,0,0,0,1.43,2.82C475.19,228.21,475.67,227.82,475.67,226.5Z" transform="translate(-352.12 -81.4)"/><path class="cls-72" d="M481.25,240.74a8.88,8.88,0,0,1-1.08-4.37V225.75c0-1.62.36-2.66,1.08-3.13s1.76-.31,3.12.48a8.11,8.11,0,0,1,3.11,3.12,8.89,8.89,0,0,1,1.08,4.38v10.61c0,1.62-.36,2.66-1.08,3.13s-1.76.31-3.11-.47A8.16,8.16,0,0,1,481.25,240.74Zm4.55-.92v-11a3,3,0,0,0-1.43-2.82c-1-.55-1.44-.16-1.44,1.16v11a3,3,0,0,0,1.44,2.82C485.32,241.53,485.8,241.15,485.8,239.82Z" transform="translate(-352.12 -81.4)"/><g class="cls-57"><path class="cls-84" d="M440.61,210.91c-6.54-3.77-11.84-.75-11.84,6.75v96.1c0,7.51,5.3,16.66,11.84,20.43l79.73,46c6.54,3.77,6.69-2.13,6.69-9.64v-96.1c0-7.5-.15-13.77-6.69-17.55Z" transform="translate(-352.12 -81.4)"/><path class="cls-85" d="M440.62,211.92c-6.51-3.75-11.78-.75-11.78,6.72v95.27c0,7.47,5.27,16.57,11.78,20.33L520,380.05c6.51,3.76,7.1-1.87,7.1-9.34V275.44c0-7.47-.59-13.95-7.1-17.71Z" transform="translate(-352.12 -81.4)"/><path class="cls-86" d="M440.64,212.94c-6.48-3.74-11.73-.75-11.73,6.68v94.44c0,7.43,5.25,16.49,11.73,20.23l79,45.58c6.48,3.74,7.51-1.61,7.51-9V276.39c0-7.43-1-14.13-7.51-17.87Z" transform="translate(-352.12 -81.4)"/><path class="cls-87" d="M440.65,214c-6.45-3.72-11.67-.74-11.67,6.65v93.61c0,7.39,5.22,16.4,11.67,20.13l78.56,45.36c6.45,3.72,7.92-1.36,7.92-8.75V277.34c0-7.39-1.47-14.31-7.92-18Z" transform="translate(-352.12 -81.4)"/><path class="cls-88" d="M440.66,215c-6.41-3.7-11.61-.74-11.61,6.62v92.77c0,7.36,5.2,16.33,11.61,20l78.18,45.14c6.41,3.7,8.33-1.1,8.33-8.45V278.29c0-7.36-1.92-14.49-8.33-18.19Z" transform="translate(-352.12 -81.4)"/><path class="cls-89" d="M440.67,216c-6.38-3.68-11.55-.73-11.55,6.59V314.5c0,7.33,5.17,16.25,11.55,19.93l77.79,44.91c6.38,3.69,8.74-.83,8.74-8.16V279.24c0-7.32-2.36-14.67-8.74-18.35Z" transform="translate(-352.12 -81.4)"/><path class="cls-90" d="M440.68,217c-6.34-3.67-11.49-.73-11.49,6.55v91.11c0,7.29,5.15,16.16,11.49,19.83l77.4,44.69c6.35,3.66,9.16-.58,9.16-7.87V280.19c0-7.28-2.81-14.85-9.16-18.52Z" transform="translate(-352.12 -81.4)"/><path class="cls-91" d="M440.7,218c-6.32-3.65-11.44-.73-11.44,6.52V314.8c0,7.25,5.12,16.08,11.44,19.73l77,44.46c6.31,3.65,9.56-.32,9.56-7.57V281.14c0-7.25-3.25-15-9.56-18.68Z" transform="translate(-352.12 -81.4)"/><path class="cls-92" d="M440.71,219c-6.29-3.63-11.38-.72-11.38,6.49V315c0,7.21,5.09,16,11.38,19.63l76.62,44.23c6.29,3.63,10-.06,10-7.27V282.09c0-7.21-3.68-15.21-10-18.84Z" transform="translate(-352.12 -81.4)"/><path class="cls-93" d="M440.72,220c-6.25-3.62-11.32-.73-11.32,6.45v88.61c0,7.18,5.07,15.92,11.32,19.53l76.23,44c6.26,3.61,10.39.19,10.39-7V283c0-7.17-4.13-15.39-10.39-19Z" transform="translate(-352.12 -81.4)"/><path class="cls-94" d="M440.73,221c-6.22-3.59-11.26-.72-11.26,6.42v87.78c0,7.14,5,15.84,11.26,19.43l75.85,43.79c6.22,3.59,10.79.45,10.79-6.68V284c0-7.14-4.57-15.58-10.79-19.17Z" transform="translate(-352.12 -81.4)"/><path class="cls-95" d="M440.75,222.05c-6.19-3.57-11.21-.71-11.21,6.39v86.95c0,7.1,5,15.76,11.21,19.33l75.45,43.56c6.19,3.58,11.21.72,11.21-6.39V285c0-7.11-5-15.76-11.21-19.34Z" transform="translate(-352.12 -81.4)"/></g><path class="cls-96" d="M440.43,223.11c-6.21-3.58-11.25-.71-11.25,6.42v86.32c0,7.12,5,15.81,11.25,19.39L516.14,379c6.21,3.58,11.25.71,11.25-6.41V286.23c0-7.13-5-15.82-11.25-19.4Z" transform="translate(-352.12 -81.4)"/><path class="cls-97" d="M516.14,266.83l-75.71-43.72c-6.21-3.58-11.25-.71-11.25,6.42v1.08c0-7.12,5-10,11.25-6.41l75.71,43.72c6.21,3.58,11.25,12.27,11.25,19.39v-1.08C527.39,279.1,522.35,270.41,516.14,266.83Z" transform="translate(-352.12 -81.4)"/><path class="cls-98" d="M430.68,281.64s6.45-30.5,23.38-20.72,14.51,19.47,29.83,28.32c16.93,9.77,11.28-19.39,42.72-1.24v60.84l-96.62-52Z" transform="translate(-352.12 -81.4)"/><g class="cls-99"><path class="cls-82" d="M505,280.5a.59.59,0,0,1-.25-.07l-73.07-42.27a.5.5,0,0,1-.18-.68.51.51,0,0,1,.68-.19l73.07,42.27a.52.52,0,0,1,.19.69A.51.51,0,0,1,505,280.5Z" transform="translate(-352.12 -81.4)"/></g><path class="cls-100" d="M490.22,292a13.49,13.49,0,0,1-6.68-2.16c-7.6-4.38-11-9.09-14.27-13.65-3.45-4.79-7-9.73-15.56-14.67-3.5-2-6.78-2.37-9.75-1-8.83,3.93-12.56,21.14-12.6,21.31a.69.69,0,0,1-.82.54.7.7,0,0,1-.54-.83c.15-.74,3.92-18.08,13.39-22.3,3.41-1.52,7.11-1.15,11,1.11,8.81,5.08,12.46,10.16,16,15.06,3.34,4.64,6.5,9,13.84,13.26,6.72,3.88,9.52,1.34,13.07-1.88,4.93-4.49,11.08-10.08,29.65.65a.7.7,0,0,1-.69,1.21c-17.7-10.22-23.18-5.23-28-.83C495.88,289.93,493.6,292,490.22,292Z" transform="translate(-352.12 -81.4)"/><g class="cls-101"><polygon class="cls-102" points="156.11 256.1 159.04 258.24 159.04 202.23 157.28 201.06 156.11 201.2 156.11 256.1"/></g><g class="cls-103"><polygon class="cls-104" points="158.68 184.32 156.17 183.59 156.44 201.81 157.94 202.21 158.94 202.18 158.68 184.32"/></g><g class="cls-12"><path class="cls-105" d="M508.62,266.75h1.93l.05,6.24,0,9.95c0,.27-.43.49-1,.49h0c-.53,0-1-.22-1-.49l0-9.95Z" transform="translate(-352.12 -81.4)"/><path class="cls-106" d="M509.22,267.58l-.07,5.61v.19l-.08,9.12c0,.08.07.33.19.38a.72.72,0,0,0,.44.12h0a.65.65,0,0,0,.46-.13c.11,0,.18-.27.18-.35l-.07-9.14v-.23l-.06-5.21Z" transform="translate(-352.12 -81.4)"/><path class="cls-107" d="M509.82,268.4l-.2,5.15-.2,8.86c0,.09.14.16.31.16h0c.17,0,.31-.07.31-.16l-.11-8.86Z" transform="translate(-352.12 -81.4)"/></g><path class="cls-108" d="M506.54,280.51a6.11,6.11,0,0,0,2.78,4.8c1.53.88,2.78.17,2.78-1.59a6.14,6.14,0,0,0-2.78-4.79C507.78,278,506.54,278.75,506.54,280.51Z" transform="translate(-352.12 -81.4)"/><path class="cls-29" d="M510.57,286.19h0a3,3,0,0,1-1.49-.45,6.59,6.59,0,0,1-3-5.23c0-1.47.81-2.46,2-2.46a3,3,0,0,1,1.5.45,6.57,6.57,0,0,1,3,5.22,2.81,2.81,0,0,1-.54,1.77A1.87,1.87,0,0,1,510.57,286.19Zm-2.5-7.14c-1,0-1,1.12-1,1.46a5.69,5.69,0,0,0,2.53,4.37,2.09,2.09,0,0,0,1,.31h0a.85.85,0,0,0,.71-.33,1.8,1.8,0,0,0,.32-1.14,5.67,5.67,0,0,0-2.53-4.36A2.13,2.13,0,0,0,508.07,279.05Z" transform="translate(-352.12 -81.4)"/><path class="cls-109" d="M477.88,343.38c0,1.56-1.1,2.19-2.46,1.4a5.4,5.4,0,0,1-2.46-4.24c0-1.56,1.1-2.19,2.46-1.4A5.4,5.4,0,0,1,477.88,343.38Z" transform="translate(-352.12 -81.4)"/><path class="cls-110" d="M484.71,347.15c0,1.56-1.1,2.19-2.46,1.4a5.4,5.4,0,0,1-2.46-4.24c0-1.56,1.1-2.19,2.46-1.4A5.4,5.4,0,0,1,484.71,347.15Z" transform="translate(-352.12 -81.4)"/><path class="cls-111" d="M475.42,339.14l-10.63-5.82v5.51l10.63,5.95c1.36.79,2.46.16,2.46-1.4A5.4,5.4,0,0,0,475.42,339.14Z" transform="translate(-352.12 -81.4)"/><path class="cls-112" d="M466.83,323l26.93,15.55V323.74L466.83,308.2Zm-27.45-26.68v6.82a7.7,7.7,0,0,0,3.5,6l21.85,12.62V307l-21.85-12.62C441,293.25,439.38,294.15,439.38,296.36Zm107.29,65.5-21.41-36.93v16.95l-29.42-17v15.24l29.42,17v16.94Z" transform="translate(-352.12 -81.4)"/><path class="cls-113" d="M466.09,324,493,339.54V324.69l-26.93-15.54Zm-27.45-26.68v6.82a7.7,7.7,0,0,0,3.5,6L464,322.78V307.94l-21.86-12.62C440.21,294.2,438.64,295.1,438.64,297.31Zm107.29,65.5-21.41-36.93v16.95l-29.42-17v15.24l29.42,17V375Z" transform="translate(-352.12 -81.4)"/><polygon class="cls-114" points="193.15 281.78 193.81 281.4 172.41 244.48 172.41 245.99 193.15 281.78"/><g class="cls-12"><path class="cls-115" d="M439.13,295.58a2.56,2.56,0,0,1,2.27.33l21.86,12.62v13.83l.74.42V307.94l-21.86-12.62C440.85,294.57,439.74,294.74,439.13,295.58Z" transform="translate(-352.12 -81.4)"/><polygon class="cls-116" points="172.68 261.52 143 244.5 143 245.52 171.94 262.11 172.68 261.52"/><polygon class="cls-117" points="113.97 228.76 140.16 243.88 140.16 257.71 140.9 258.14 140.9 243.29 113.97 227.75 113.97 228.76"/></g><polygon class="cls-118" points="58.69 44.63 58.69 33.17 64.88 42.47 58.69 44.63 58.69 44.63"/><polygon class="cls-119" points="50.26 39.81 50.26 28.35 56.45 37.65 50.26 39.81 50.26 39.81"/><polygon class="cls-120" points="41.84 34.99 41.84 23.53 48.03 32.83 41.84 34.99 41.84 34.99"/><polygon class="cls-121" points="33.41 30.17 33.41 18.71 39.6 28.01 33.41 30.17 33.41 30.17"/><polygon class="cls-122" points="24.99 25.35 24.99 13.89 31.18 23.19 24.99 25.35 24.99 25.35"/><polygon class="cls-123" points="195.99 127.18 195.99 115.72 202.18 125.02 195.99 127.18 195.99 127.18"/><polygon class="cls-124" points="187.57 122.36 187.57 110.9 193.76 120.2 187.57 122.36 187.57 122.36"/><polygon class="cls-125" points="179.14 117.54 179.14 106.08 185.33 115.38 179.14 117.54 179.14 117.54"/><polygon class="cls-126" points="170.72 112.72 170.72 101.26 176.91 110.56 170.72 112.72 170.72 112.72"/><polygon class="cls-127" points="162.29 107.9 162.29 96.44 168.48 105.74 162.29 107.9 162.29 107.9"/><polygon class="cls-128" points="211.57 243.3 211.57 231.84 217.76 241.14 211.57 243.3 211.57 243.3"/><polygon class="cls-129" points="203.14 238.48 203.14 227.02 209.33 236.32 203.14 238.48 203.14 238.48"/><polygon class="cls-130" points="194.72 233.66 194.72 222.2 200.91 231.51 194.72 233.66 194.72 233.66"/><polygon class="cls-131" points="186.29 228.84 186.29 217.38 192.48 226.69 186.29 228.84 186.29 228.84"/><polygon class="cls-132" points="177.87 224.03 177.87 212.56 184.06 221.87 177.87 224.03 177.87 224.03"/><polygon class="cls-133" points="227.37 194.99 227.37 183.53 233.56 192.84 227.37 194.99 227.37 194.99"/><polygon class="cls-134" points="218.95 190.18 218.95 178.71 225.13 188.02 218.95 190.18 218.95 190.18"/><polygon class="cls-135" points="210.52 185.36 210.52 173.89 216.71 183.2 210.52 185.36 210.52 185.36"/><polygon class="cls-136" points="202.1 180.54 202.1 169.07 208.28 178.38 202.1 180.54 202.1 180.54"/><polygon class="cls-137" points="193.67 175.72 193.67 164.25 199.86 173.56 193.67 175.72 193.67 175.72"/><polygon class="cls-138" points="76.05 160.14 76.05 148.68 82.23 157.98 76.05 160.14 76.05 160.14"/><polygon class="cls-139" points="67.62 155.32 67.62 143.86 73.81 153.16 67.62 155.32 67.62 155.32"/><polygon class="cls-140" points="59.2 150.5 59.2 139.04 65.38 148.34 59.2 150.5 59.2 150.5"/><polygon class="cls-141" points="50.77 145.68 50.77 134.22 56.96 143.53 50.77 145.68 50.77 145.68"/><polygon class="cls-142" points="42.34 140.86 42.34 129.4 48.53 138.71 42.34 140.86 42.34 140.86"/><polygon class="cls-143" points="95.28 251.94 95.28 240.48 101.47 249.78 95.28 251.94 95.28 251.94"/><polygon class="cls-144" points="86.86 247.12 86.86 235.66 93.05 244.96 86.86 247.12 86.86 247.12"/><polygon class="cls-145" points="78.43 242.3 78.43 230.84 84.62 240.14 78.43 242.3 78.43 242.3"/><polygon class="cls-146" points="70.01 237.48 70.01 226.02 76.19 235.32 70.01 237.48 70.01 237.48"/><polygon class="cls-147" points="61.58 232.66 61.58 221.2 67.77 230.5 61.58 232.66 61.58 232.66"/><circle class="cls-148" cx="147.08" cy="194.99" r="14.79"/><path class="cls-149" d="M495.89,281.45a11.2,11.2,0,1,0-15.16-4.58A11.2,11.2,0,0,0,495.89,281.45Z" transform="translate(-352.12 -81.4)"/><circle class="cls-150" cx="484.37" cy="267.93" r="8.4" transform="translate(-216.64 616.26) rotate(-79.88)"/><path class="cls-151" d="M576,328.12V323.9a11.08,11.08,0,0,1-2.53-3.16,7.24,7.24,0,0,1-.8-3.24,2.49,2.49,0,0,1,.91-2.25,2.42,2.42,0,0,1,2.42.1v-1l1.27.74v1a7.81,7.81,0,0,1,2.22,2.37,7.94,7.94,0,0,1,1,3l-2.22-1a4,4,0,0,0-1-2.22v3.94a12.83,12.83,0,0,1,2.87,3.35,6.72,6.72,0,0,1,.76,3.12,2.93,2.93,0,0,1-1,2.52,2.69,2.69,0,0,1-2.67,0v1.89l-1.27-.74v-1.83a8.58,8.58,0,0,1-2.47-2.72,10,10,0,0,1-1.21-3.77l2.29,1a5.94,5.94,0,0,0,.53,1.69A5.43,5.43,0,0,0,576,328.12Zm0-10.57a.85.85,0,0,0-.83.21,1.22,1.22,0,0,0-.31.89,2.79,2.79,0,0,0,.29,1.15A4.55,4.55,0,0,0,576,321ZM577.25,329a1.07,1.07,0,0,0,1.07-.08,1.29,1.29,0,0,0,.41-1.08,3,3,0,0,0-.34-1.36,5,5,0,0,0-1.14-1.41Z" transform="translate(-352.12 -81.4)"/><g class="cls-152"><path class="cls-82" d="M562.35,218.78v-2l-1.22-.69-.61-.36v2l-1.94-1.12v-2l-1.79-1V198.94l1.79,1v-2l1.94,1.12v2l1.36.79c.17.09.32.19.47.28v-2l1.94,1.12v2.17a6.69,6.69,0,0,1,1.18,1.25,7.9,7.9,0,0,1,1,1.79,5.24,5.24,0,0,1,.39,1.94,2.43,2.43,0,0,1-.48,1.6,1.49,1.49,0,0,1-1.31.54,7.58,7.58,0,0,1,1.79,2.36,5.83,5.83,0,0,1,.63,2.57,3.37,3.37,0,0,1-.41,1.7,1.69,1.69,0,0,1-1.11.88,2.73,2.73,0,0,1-1.66-.28v2.1Zm-3-15.92v3.38l1.69,1c1,.58,1.63.92,1.87,1a1.15,1.15,0,0,0,1,.07,1,1,0,0,0,.38-.92,2.69,2.69,0,0,0-.33-1.29,3.19,3.19,0,0,0-1-1.08c-.25-.18-1-.62-2.2-1.32Zm0,5.82v3.91l2.38,1.38a16.55,16.55,0,0,0,1.77.93,1,1,0,0,0,.94-.05,1.19,1.19,0,0,0,.36-1,3.17,3.17,0,0,0-.28-1.28,3.8,3.8,0,0,0-.81-1.13,13,13,0,0,0-2.28-1.53Z" transform="translate(-352.12 -81.4)"/></g><path class="cls-151" d="M599.48,273.32l-.56,2.7a6.34,6.34,0,0,0-2.36-2.29c-1-.6-1.88-.66-2.52-.17a2.28,2.28,0,0,0-.77,1.35l5.24,3-.3,1.52-5.13-3c0,.16,0,.38,0,.64s0,.53,0,.81l4.85,2.8-.31,1.52-4.34-2.51A8,8,0,0,0,594,282a6.49,6.49,0,0,0,2.48,2.73c1.22.7,2.19.83,2.92.39v3.35a6.16,6.16,0,0,1-2.89-1A12.3,12.3,0,0,1,592,282.7a14.08,14.08,0,0,1-1.61-4.64l-1.41-.81.31-1.52.93.54c0-.18,0-.37,0-.57s0-.63,0-.87l-1.25-.72.31-1.52,1.13.65a4.05,4.05,0,0,1,1.59-2.72q1.8-1.17,4.74.52A10.84,10.84,0,0,1,599.48,273.32Z" transform="translate(-352.12 -81.4)"/><circle class="cls-153" cx="491.62" cy="146.35" r="20.13" transform="translate(-326.8 278.65) rotate(-41.2)"/></g></g></svg>