<svg xmlns="http://www.w3.org/2000/svg" xmlns:xlink="http://www.w3.org/1999/xlink" viewBox="0 0 357.09 354.79"><defs><style>.cls-1{isolation:isolate;}.cls-102,.cls-103,.cls-117,.cls-125,.cls-2,.cls-3{opacity:0.2;}.cls-2{fill:url(#linear-gradient);}.cls-4{opacity:0;}.cls-5{opacity:0.09;}.cls-6{opacity:0.18;}.cls-7{opacity:0.27;}.cls-8{opacity:0.36;}.cls-9{opacity:0.45;}.cls-10{opacity:0.55;}.cls-11{opacity:0.64;}.cls-12{opacity:0.73;}.cls-13{opacity:0.82;}.cls-14{opacity:0.91;}.cls-15{fill:url(#linear-gradient-2);}.cls-16{fill:url(#linear-gradient-3);}.cls-17,.cls-64{opacity:0.82;}.cls-104,.cls-117,.cls-118,.cls-120,.cls-17,.cls-21,.cls-73,.cls-81{mix-blend-mode:multiply;}.cls-17{fill:url(#linear-gradient-4);}.cls-18,.cls-23{opacity:0.6;}.cls-119,.cls-122,.cls-124,.cls-125,.cls-126,.cls-18,.cls-23,.cls-26,.cls-31,.cls-35,.cls-40,.cls-44,.cls-48,.cls-52{mix-blend-mode:screen;}.cls-18{fill:url(#radial-gradient);}.cls-19{fill:url(#linear-gradient-5);}.cls-20{fill:url(#linear-gradient-6);}.cls-21{fill:#bcbec0;}.cls-22{fill:url(#linear-gradient-7);}.cls-23{fill:url(#radial-gradient-2);}.cls-100,.cls-107,.cls-116,.cls-123,.cls-136,.cls-24,.cls-25,.cls-91,.cls-94,.cls-98,.cls-99{mix-blend-mode:color-dodge;}.cls-24{fill:url(#radial-gradient-3);}.cls-25{fill:url(#radial-gradient-4);}.cls-26{fill:url(#linear-gradient-8);}.cls-27{opacity:0.9;}.cls-28{fill:url(#linear-gradient-9);}.cls-29{fill:url(#linear-gradient-10);}.cls-30{fill:url(#linear-gradient-11);}.cls-31{fill:url(#linear-gradient-12);}.cls-32{fill:url(#linear-gradient-13);}.cls-33{fill:url(#linear-gradient-14);}.cls-34{fill:url(#linear-gradient-15);}.cls-35{fill:url(#linear-gradient-16);}.cls-36{fill:url(#linear-gradient-17);}.cls-37{fill:url(#linear-gradient-18);}.cls-38{fill:url(#linear-gradient-19);}.cls-39{fill:#fff;}.cls-40{fill:url(#linear-gradient-20);}.cls-41{fill:url(#linear-gradient-21);}.cls-42{fill:url(#linear-gradient-22);}.cls-43{fill:url(#linear-gradient-23);}.cls-44{fill:url(#linear-gradient-24);}.cls-45{fill:url(#linear-gradient-25);}.cls-46{fill:url(#linear-gradient-26);}.cls-47{fill:url(#linear-gradient-27);}.cls-48{fill:url(#linear-gradient-28);}.cls-49{fill:url(#linear-gradient-29);}.cls-50{fill:url(#linear-gradient-30);}.cls-51{fill:url(#linear-gradient-31);}.cls-52{fill:url(#linear-gradient-32);}.cls-53{fill:url(#linear-gradient-33);}.cls-54{fill:url(#linear-gradient-34);}.cls-55{fill:url(#linear-gradient-35);}.cls-56{opacity:0.09;}.cls-57{opacity:0.18;}.cls-58{opacity:0.27;}.cls-59{opacity:0.36;}.cls-60{opacity:0.45;}.cls-61{opacity:0.55;}.cls-62{opacity:0.64;}.cls-63{opacity:0.73;}.cls-65{opacity:0.91;}.cls-66{fill:url(#linear-gradient-36);}.cls-67{fill:#138bbd;}.cls-68{fill:#207497;}.cls-69{fill:#2d5e71;}.cls-70{fill:#39474c;}.cls-71{fill:#463126;}.cls-72{fill:#531a00;}.cls-73{fill:url(#linear-gradient-37);}.cls-74{fill:url(#linear-gradient-38);}.cls-75{fill:#9f19ab;}.cls-76{fill:#a72189;}.cls-77{fill:#af2867;}.cls-78{fill:#b73044;}.cls-79{fill:#bf3722;}.cls-80{fill:#c73f00;}.cls-81{fill:url(#linear-gradient-39);}.cls-82{fill:url(#linear-gradient-40);}.cls-83{fill:#ffba78;}.cls-84{fill:#f9a360;}.cls-85{fill:#f38c48;}.cls-86{fill:#ec7530;}.cls-87{fill:#e65e18;}.cls-88{fill:#e04700;}.cls-89{fill:url(#linear-gradient-41);}.cls-90{fill:url(#linear-gradient-42);}.cls-91{fill:url(#radial-gradient-5);}.cls-92{fill:url(#linear-gradient-43);}.cls-93{fill:#722200;}.cls-94{fill:url(#radial-gradient-6);}.cls-95{fill:#ff530e;}.cls-96{fill:url(#linear-gradient-44);}.cls-97{fill:url(#linear-gradient-45);}.cls-98{fill:url(#radial-gradient-7);}.cls-99{fill:url(#radial-gradient-8);}.cls-100{fill:url(#radial-gradient-9);}.cls-101{fill:url(#linear-gradient-46);}.cls-102{fill:url(#linear-gradient-47);}.cls-103{fill:url(#linear-gradient-48);}.cls-104{fill:#e6e7e8;}.cls-105{fill:url(#linear-gradient-49);}.cls-106{fill:url(#linear-gradient-50);}.cls-107{fill:url(#radial-gradient-10);}.cls-108{fill:url(#linear-gradient-51);}.cls-109{fill:url(#linear-gradient-52);}.cls-110{fill:url(#radial-gradient-11);}.cls-111{fill:url(#linear-gradient-53);}.cls-112{fill:url(#linear-gradient-54);}.cls-113{fill:url(#linear-gradient-55);}.cls-114{fill:url(#linear-gradient-56);}.cls-115{fill:url(#linear-gradient-57);}.cls-116{fill:url(#radial-gradient-12);}.cls-117{fill:url(#radial-gradient-13);}.cls-118{opacity:0.3;fill:url(#radial-gradient-14);}.cls-119{fill:url(#radial-gradient-15);}.cls-120{fill:#939598;}.cls-121{fill:url(#linear-gradient-58);}.cls-122{fill:#58595b;}.cls-123{fill:url(#radial-gradient-16);}.cls-124{opacity:0.5;fill:url(#radial-gradient-17);}.cls-125{fill:url(#radial-gradient-18);}.cls-126{fill:url(#linear-gradient-59);}.cls-127{fill:url(#linear-gradient-60);}.cls-128{fill:url(#linear-gradient-61);}.cls-129{fill:url(#linear-gradient-62);}.cls-130{fill:#a07752;}.cls-131{fill:#b38652;}.cls-132{fill:#c69453;}.cls-133{fill:#d9a353;}.cls-134{fill:#ecb154;}.cls-135{fill:#ffc054;}.cls-136{fill:url(#radial-gradient-19);}</style><linearGradient id="linear-gradient" x1="420.8" y1="319.93" x2="564.59" y2="319.93" gradientUnits="userSpaceOnUse"><stop offset="0.06" stop-color="#200041"/><stop offset="0.26" stop-color="#210243"/><stop offset="0.36" stop-color="#25084b"/><stop offset="0.43" stop-color="#2c1358"/><stop offset="0.47" stop-color="#311b61"/><stop offset="0.48" stop-color="#351f65"/><stop offset="0.5" stop-color="#422c73"/><stop offset="0.51" stop-color="#584188"/><stop offset="0.52" stop-color="#765fa7"/><stop offset="0.53" stop-color="#8770b8"/><stop offset="0.54" stop-color="#7e67ae"/><stop offset="0.56" stop-color="#5c468d"/><stop offset="0.59" stop-color="#442e75"/><stop offset="0.61" stop-color="#362066"/><stop offset="0.63" stop-color="#311b61"/><stop offset="0.67" stop-color="#2a1155"/><stop offset="0.75" stop-color="#230446"/><stop offset="0.81" stop-color="#200041"/><stop offset="1" stop-color="#200041"/></linearGradient><linearGradient id="linear-gradient-2" x1="420.8" y1="298" x2="564.59" y2="298" gradientUnits="userSpaceOnUse"><stop offset="0.06" stop-color="#591900"/><stop offset="0.21" stop-color="#5b1a00"/><stop offset="0.29" stop-color="#631c00"/><stop offset="0.35" stop-color="#702000"/><stop offset="0.4" stop-color="#832500"/><stop offset="0.44" stop-color="#9b2c00"/><stop offset="0.47" stop-color="#ae3200"/><stop offset="0.48" stop-color="#b23401"/><stop offset="0.5" stop-color="#c03903"/><stop offset="0.51" stop-color="#d54207"/><stop offset="0.53" stop-color="#f44e0c"/><stop offset="0.53" stop-color="#ff530e"/><stop offset="0.53" stop-color="#fb520d"/><stop offset="0.56" stop-color="#da4408"/><stop offset="0.58" stop-color="#c23a03"/><stop offset="0.61" stop-color="#b33401"/><stop offset="0.63" stop-color="#ae3200"/><stop offset="0.64" stop-color="#a63000"/><stop offset="0.69" stop-color="#852600"/><stop offset="0.73" stop-color="#6d1f00"/><stop offset="0.78" stop-color="#5e1a00"/><stop offset="0.81" stop-color="#591900"/><stop offset="1" stop-color="#120114"/></linearGradient><linearGradient id="linear-gradient-3" x1="459.28" y1="307.24" x2="524.46" y2="271.18" gradientUnits="userSpaceOnUse"><stop offset="0" stop-color="#591900"/><stop offset="0.12" stop-color="#702000"/><stop offset="0.37" stop-color="#9d2d00"/><stop offset="0.49" stop-color="#ae3200"/><stop offset="0.78" stop-color="#7f2400"/><stop offset="1" stop-color="#591900"/></linearGradient><linearGradient id="linear-gradient-4" x1="493.84" y1="290.2" x2="506.64" y2="268.74" gradientUnits="userSpaceOnUse"><stop offset="0" stop-color="#fff"/><stop offset="1"/></linearGradient><radialGradient id="radial-gradient" cx="494.27" cy="319.35" r="51.16" gradientUnits="userSpaceOnUse"><stop offset="0" stop-color="#f9ac8a"/><stop offset="1" stop-color="#ff530e"/></radialGradient><linearGradient id="linear-gradient-5" x1="599.37" y1="332.57" x2="379.32" y2="28.07" gradientUnits="userSpaceOnUse"><stop offset="0" stop-color="#ff530e"/><stop offset="0.15" stop-color="#ba3c09"/><stop offset="0.31" stop-color="#722404"/><stop offset="0.43" stop-color="#441501"/><stop offset="0.49" stop-color="#330f00"/><stop offset="1" stop-color="#080009"/></linearGradient><linearGradient id="linear-gradient-6" x1="409.08" y1="58.4" x2="596.29" y2="339.92" gradientUnits="userSpaceOnUse"><stop offset="0.01" stop-color="#ff530e"/><stop offset="0.43" stop-color="#c73f00"/><stop offset="0.9" stop-color="#722200"/></linearGradient><linearGradient id="linear-gradient-7" x1="646.12" y1="339.18" x2="472.92" y2="62.43" gradientUnits="userSpaceOnUse"><stop offset="0.06" stop-color="#591900"/><stop offset="0.21" stop-color="#571800"/><stop offset="0.29" stop-color="#4f1601"/><stop offset="0.35" stop-color="#421203"/><stop offset="0.4" stop-color="#2f0c05"/><stop offset="0.45" stop-color="#170507"/><stop offset="0.47" stop-color="#080009"/><stop offset="0.48" stop-color="#0c0109"/><stop offset="0.48" stop-color="#1a0609"/><stop offset="0.49" stop-color="#2f0d0a"/><stop offset="0.5" stop-color="#4e180a"/><stop offset="0.51" stop-color="#75250b"/><stop offset="0.52" stop-color="#a6350c"/><stop offset="0.53" stop-color="#de480d"/><stop offset="0.53" stop-color="#ff530e"/><stop offset="0.53" stop-color="#f5500e"/><stop offset="0.55" stop-color="#b73b0d"/><stop offset="0.56" stop-color="#82290b"/><stop offset="0.58" stop-color="#561a0b"/><stop offset="0.59" stop-color="#340f0a"/><stop offset="0.6" stop-color="#1c0709"/><stop offset="0.62" stop-color="#0d0209"/><stop offset="0.63" stop-color="#080009"/><stop offset="0.66" stop-color="#350e07"/><stop offset="0.69" stop-color="#601b04"/><stop offset="0.73" stop-color="#822502"/><stop offset="0.76" stop-color="#9a2c01"/><stop offset="0.79" stop-color="#a93000"/><stop offset="0.81" stop-color="#ae3200"/><stop offset="1" stop-color="#591900"/></linearGradient><radialGradient id="radial-gradient-2" cx="596.99" cy="181.57" r="29.48" gradientUnits="userSpaceOnUse"><stop offset="0" stop-color="#ff530e"/><stop offset="1" stop-color="#330f00"/></radialGradient><radialGradient id="radial-gradient-3" cx="547.34" cy="150.63" r="117.94" gradientUnits="userSpaceOnUse"><stop offset="0" stop-color="#fa45c1"/><stop offset="0.21" stop-color="#cb389d"/><stop offset="0.67" stop-color="#571843"/><stop offset="1"/></radialGradient><radialGradient id="radial-gradient-4" cx="498.61" cy="330.42" r="48.53" gradientUnits="userSpaceOnUse"><stop offset="0" stop-color="#ff530e"/><stop offset="0.3" stop-color="#d1430a"/><stop offset="0.98" stop-color="#5c1a00"/><stop offset="1" stop-color="#591900"/></radialGradient><linearGradient id="linear-gradient-8" x1="126.46" y1="186.99" x2="155.65" y2="167.28" gradientUnits="userSpaceOnUse"><stop offset="0" stop-color="#fdd65b"/><stop offset="0.01" stop-color="#f7d159"/><stop offset="0.13" stop-color="#bea144"/><stop offset="0.25" stop-color="#8b7632"/><stop offset="0.37" stop-color="#605223"/><stop offset="0.49" stop-color="#3e3416"/><stop offset="0.62" stop-color="#231d0c"/><stop offset="0.74" stop-color="#0f0d05"/><stop offset="0.87" stop-color="#040301"/><stop offset="1"/></linearGradient><linearGradient id="linear-gradient-9" x1="137.19" y1="190.57" x2="167.48" y2="181.5" gradientUnits="userSpaceOnUse"><stop offset="0.04" stop-color="#ffa98c"/><stop offset="0.32" stop-color="#ffb892"/><stop offset="0.86" stop-color="#fee1a3"/><stop offset="1" stop-color="#feeca8"/></linearGradient><linearGradient id="linear-gradient-10" x1="91.05" y1="194.35" x2="160.44" y2="178.79" xlink:href="#linear-gradient-9"/><linearGradient id="linear-gradient-11" x1="139.61" y1="153.93" x2="128.74" y2="174.63" xlink:href="#linear-gradient-9"/><linearGradient id="linear-gradient-12" x1="126.46" y1="158.5" x2="155.65" y2="138.8" xlink:href="#linear-gradient-8"/><linearGradient id="linear-gradient-13" x1="137.19" y1="162.09" x2="167.48" y2="153.02" xlink:href="#linear-gradient-9"/><linearGradient id="linear-gradient-14" x1="91.05" y1="165.86" x2="160.44" y2="150.31" xlink:href="#linear-gradient-9"/><linearGradient id="linear-gradient-15" x1="139.61" y1="125.44" x2="128.74" y2="146.15" xlink:href="#linear-gradient-9"/><linearGradient id="linear-gradient-16" x1="126.46" y1="129.75" x2="155.65" y2="110.05" xlink:href="#linear-gradient-8"/><linearGradient id="linear-gradient-17" x1="137.19" y1="133.34" x2="167.48" y2="124.27" xlink:href="#linear-gradient-9"/><linearGradient id="linear-gradient-18" x1="91.05" y1="137.11" x2="160.44" y2="121.56" xlink:href="#linear-gradient-9"/><linearGradient id="linear-gradient-19" x1="139.61" y1="96.69" x2="128.74" y2="117.4" xlink:href="#linear-gradient-9"/><linearGradient id="linear-gradient-20" x1="293.71" y1="245.9" x2="322.9" y2="226.2" gradientUnits="userSpaceOnUse"><stop offset="0" stop-color="#2af6ff"/><stop offset="0.02" stop-color="#29eef7"/><stop offset="0.13" stop-color="#1fb7be"/><stop offset="0.25" stop-color="#17868b"/><stop offset="0.37" stop-color="#105d60"/><stop offset="0.49" stop-color="#0a3b3e"/><stop offset="0.62" stop-color="#062123"/><stop offset="0.74" stop-color="#030f0f"/><stop offset="0.87" stop-color="#010404"/><stop offset="1"/></linearGradient><linearGradient id="linear-gradient-21" x1="304.44" y1="249.49" x2="334.73" y2="240.42" gradientUnits="userSpaceOnUse"><stop offset="0.04" stop-color="#591900"/><stop offset="0.1" stop-color="#681e01"/><stop offset="0.22" stop-color="#912d05"/><stop offset="0.39" stop-color="#d2430a"/><stop offset="0.5" stop-color="#ff530e"/></linearGradient><linearGradient id="linear-gradient-22" x1="258.3" y1="253.26" x2="327.69" y2="237.71" gradientUnits="userSpaceOnUse"><stop offset="0.04" stop-color="#591900"/><stop offset="0.17" stop-color="#681e01"/><stop offset="0.42" stop-color="#912d05"/><stop offset="0.77" stop-color="#d2430a"/><stop offset="1" stop-color="#ff530e"/></linearGradient><linearGradient id="linear-gradient-23" x1="306.86" y1="212.84" x2="295.99" y2="233.55" xlink:href="#linear-gradient-22"/><linearGradient id="linear-gradient-24" x1="293.71" y1="206.65" x2="322.9" y2="186.95" gradientUnits="userSpaceOnUse"><stop offset="0" stop-color="#c211a1"/><stop offset="0.01" stop-color="#bd119d"/><stop offset="0.15" stop-color="#8b0c73"/><stop offset="0.29" stop-color="#600850"/><stop offset="0.42" stop-color="#3e0533"/><stop offset="0.56" stop-color="#23031d"/><stop offset="0.7" stop-color="#0f010d"/><stop offset="0.85" stop-color="#040003"/><stop offset="1"/></linearGradient><linearGradient id="linear-gradient-25" x1="304.44" y1="210.24" x2="334.73" y2="201.17" gradientUnits="userSpaceOnUse"><stop offset="0.04" stop-color="#591900"/><stop offset="0.09" stop-color="#681e01"/><stop offset="0.19" stop-color="#912d05"/><stop offset="0.34" stop-color="#d2430a"/><stop offset="0.43" stop-color="#ff530e"/></linearGradient><linearGradient id="linear-gradient-26" x1="258.3" y1="214.01" x2="327.69" y2="198.46" xlink:href="#linear-gradient-22"/><linearGradient id="linear-gradient-27" x1="306.86" y1="173.59" x2="295.99" y2="194.3" gradientUnits="userSpaceOnUse"><stop offset="0.35" stop-color="#591900"/><stop offset="0.44" stop-color="#681e06"/><stop offset="0.61" stop-color="#912c15"/><stop offset="0.85" stop-color="#d2412d"/><stop offset="1" stop-color="#ff503e"/></linearGradient><linearGradient id="linear-gradient-28" x1="293.71" y1="177.43" x2="322.9" y2="157.72" xlink:href="#linear-gradient-24"/><linearGradient id="linear-gradient-29" x1="304.44" y1="181.01" x2="334.73" y2="171.94" gradientUnits="userSpaceOnUse"><stop offset="0.04" stop-color="#591900"/><stop offset="0.1" stop-color="#681e01"/><stop offset="0.22" stop-color="#912d05"/><stop offset="0.38" stop-color="#d2430a"/><stop offset="0.49" stop-color="#ff530e"/></linearGradient><linearGradient id="linear-gradient-30" x1="258.3" y1="184.79" x2="327.69" y2="169.23" xlink:href="#linear-gradient-22"/><linearGradient id="linear-gradient-31" x1="306.86" y1="144.37" x2="295.99" y2="165.07" xlink:href="#linear-gradient-22"/><linearGradient id="linear-gradient-32" x1="293.71" y1="147.5" x2="322.9" y2="127.8" xlink:href="#linear-gradient-24"/><linearGradient id="linear-gradient-33" x1="304.44" y1="151.09" x2="334.73" y2="142.02" gradientUnits="userSpaceOnUse"><stop offset="0" stop-color="#591900"/><stop offset="0.04" stop-color="#681e01"/><stop offset="0.13" stop-color="#912d05"/><stop offset="0.25" stop-color="#d2430a"/><stop offset="0.32" stop-color="#ff530e"/></linearGradient><linearGradient id="linear-gradient-34" x1="258.3" y1="154.86" x2="327.69" y2="139.31" gradientUnits="userSpaceOnUse"><stop offset="0.04" stop-color="#591900"/><stop offset="0.15" stop-color="#681e00"/><stop offset="0.37" stop-color="#912d01"/><stop offset="0.66" stop-color="#d24301"/><stop offset="0.86" stop-color="#ff5302"/></linearGradient><linearGradient id="linear-gradient-35" x1="306.86" y1="114.44" x2="295.99" y2="135.15" xlink:href="#linear-gradient-22"/><linearGradient id="linear-gradient-36" x1="-3149.79" y1="3069.69" x2="-3146.68" y2="3043.99" gradientTransform="matrix(0.87, 0.5, -1, 0.58, 5914.41, 114.53)" gradientUnits="userSpaceOnUse"><stop offset="0.03" stop-color="#d4d1d8"/><stop offset="1" stop-color="#eeebf2"/></linearGradient><linearGradient id="linear-gradient-37" x1="-3149.86" y1="3069.81" x2="-3147.1" y2="3046.97" xlink:href="#linear-gradient-36"/><linearGradient id="linear-gradient-38" x1="-3156.6" y1="3078.46" x2="-3150.09" y2="3055.16" xlink:href="#linear-gradient-36"/><linearGradient id="linear-gradient-39" x1="-3157.07" y1="3078.34" x2="-3151" y2="3056.63" xlink:href="#linear-gradient-36"/><linearGradient id="linear-gradient-40" x1="-3167.33" y1="3088.31" x2="-3149.94" y2="3058.72" xlink:href="#linear-gradient-36"/><linearGradient id="linear-gradient-41" x1="1572.73" y1="308.35" x2="1735.59" y2="308.35" gradientTransform="translate(-1274.21)" gradientUnits="userSpaceOnUse"><stop offset="0.06" stop-color="#531a00"/><stop offset="0.26" stop-color="#551b00"/><stop offset="0.36" stop-color="#5d1d00"/><stop offset="0.44" stop-color="#6a2000"/><stop offset="0.47" stop-color="#722200"/><stop offset="0.48" stop-color="#762300"/><stop offset="0.49" stop-color="#842402"/><stop offset="0.5" stop-color="#992704"/><stop offset="0.51" stop-color="#b82b07"/><stop offset="0.52" stop-color="#df310b"/><stop offset="0.53" stop-color="#ff350e"/><stop offset="0.54" stop-color="#eb320c"/><stop offset="0.56" stop-color="#c02c08"/><stop offset="0.58" stop-color="#9e2804"/><stop offset="0.6" stop-color="#862502"/><stop offset="0.61" stop-color="#772301"/><stop offset="0.63" stop-color="#722200"/><stop offset="0.67" stop-color="#671f00"/><stop offset="0.75" stop-color="#581b00"/><stop offset="0.81" stop-color="#531a00"/><stop offset="1" stop-color="#722200"/></linearGradient><linearGradient id="linear-gradient-42" x1="337.84" y1="324.53" x2="447.02" y2="245.21" gradientUnits="userSpaceOnUse"><stop offset="0" stop-color="#d43d00"/><stop offset="0.22" stop-color="#972b00"/><stop offset="0.4" stop-color="#6a1e00"/><stop offset="0.49" stop-color="#591900"/><stop offset="0.78" stop-color="#882700"/><stop offset="1" stop-color="#ae3200"/></linearGradient><radialGradient id="radial-gradient-5" cx="5983.77" cy="325.25" r="61.47" gradientTransform="matrix(-1, 0, 0, 1, 6359.47, 0)" xlink:href="#linear-gradient-4"/><linearGradient id="linear-gradient-43" x1="288.47" y1="301.66" x2="429.71" y2="301.66" gradientUnits="userSpaceOnUse"><stop offset="0" stop-color="#ff530e"/><stop offset="0.43" stop-color="#591900"/><stop offset="0.9" stop-color="#d43d00"/></linearGradient><radialGradient id="radial-gradient-6" cx="14.93" cy="-1255.54" r="25.29" gradientTransform="matrix(0.53, -0.22, 0.25, 0.61, 694.3, 1125.67)" gradientUnits="userSpaceOnUse"><stop offset="0" stop-color="#972a74"/><stop offset="0.04" stop-color="#8a266a"/><stop offset="0.19" stop-color="#601b4a"/><stop offset="0.35" stop-color="#3d112f"/><stop offset="0.51" stop-color="#230a1b"/><stop offset="0.67" stop-color="#0f040c"/><stop offset="0.83" stop-color="#040103"/><stop offset="1"/></radialGradient><linearGradient id="linear-gradient-44" x1="401.49" y1="321" x2="425.68" y2="350.41" gradientUnits="userSpaceOnUse"><stop offset="0" stop-color="#ff530e"/><stop offset="0.01" stop-color="#f9510d"/><stop offset="0.17" stop-color="#b03806"/><stop offset="0.28" stop-color="#832802"/><stop offset="0.33" stop-color="#722200"/><stop offset="0.63" stop-color="#43120f"/><stop offset="0.95" stop-color="#0f001f"/></linearGradient><linearGradient id="linear-gradient-45" x1="403.81" y1="323.83" x2="440.38" y2="359.28" gradientUnits="userSpaceOnUse"><stop offset="0" stop-color="#722200"/><stop offset="0.12" stop-color="#892a00"/><stop offset="0.37" stop-color="#b63900"/><stop offset="0.49" stop-color="#c73f00"/><stop offset="0.92" stop-color="#f6370c"/><stop offset="1" stop-color="#ff350e"/></linearGradient><radialGradient id="radial-gradient-7" cx="7965.65" cy="331.73" r="7.87" gradientTransform="matrix(-1, 0, 0, 1, 8374.31, 0)" xlink:href="#linear-gradient-4"/><radialGradient id="radial-gradient-8" cx="7951.92" cy="321.41" r="3.63" gradientTransform="matrix(-1, 0, 0, 1, 8107.11, -34.57)" xlink:href="#linear-gradient-4"/><radialGradient id="radial-gradient-9" cx="7979.48" cy="337.41" r="3.63" gradientTransform="matrix(-1, 0, 0, 1, 8107.11, -34.57)" xlink:href="#linear-gradient-4"/><linearGradient id="linear-gradient-46" x1="7967.64" y1="334.55" x2="7963.76" y2="322.15" gradientTransform="matrix(-1, 0, 0, 1, 8374.31, 0)" gradientUnits="userSpaceOnUse"><stop offset="0" stop-color="#ff350e"/><stop offset="0.31" stop-color="#d83c04"/><stop offset="0.49" stop-color="#c73f00"/><stop offset="0.71" stop-color="#983000"/><stop offset="1" stop-color="#531a00"/></linearGradient><linearGradient id="linear-gradient-47" x1="283.5" y1="331.29" x2="451.75" y2="331.29" xlink:href="#linear-gradient"/><linearGradient id="linear-gradient-48" x1="283.5" y1="321.06" x2="451.75" y2="321.06" gradientUnits="userSpaceOnUse"><stop offset="0.06" stop-color="#722200"/><stop offset="0.2" stop-color="#742401"/><stop offset="0.27" stop-color="#7c2a05"/><stop offset="0.32" stop-color="#89340c"/><stop offset="0.37" stop-color="#9c4315"/><stop offset="0.41" stop-color="#b45721"/><stop offset="0.45" stop-color="#d16e30"/><stop offset="0.48" stop-color="#f48a42"/><stop offset="0.5" stop-color="#ed732b"/><stop offset="0.53" stop-color="#e65b13"/><stop offset="0.56" stop-color="#e24c05"/><stop offset="0.58" stop-color="#e04700"/><stop offset="0.81" stop-color="#e04700"/><stop offset="1" stop-color="#200041"/></linearGradient><linearGradient id="linear-gradient-49" x1="477.77" y1="185.6" x2="466.52" y2="145.85" gradientTransform="translate(149.79 -215.65) rotate(30.31)" gradientUnits="userSpaceOnUse"><stop offset="0.04" stop-color="#ffba78"/><stop offset="0.19" stop-color="#f6ab6a"/><stop offset="0.49" stop-color="#de8247"/><stop offset="0.91" stop-color="#b7410e"/><stop offset="1" stop-color="#ae3200"/></linearGradient><linearGradient id="linear-gradient-50" x1="497.37" y1="256.92" x2="468.87" y2="171.17" gradientUnits="userSpaceOnUse"><stop offset="0.04" stop-color="#591900"/><stop offset="0.19" stop-color="#681e00"/><stop offset="0.48" stop-color="#912900"/><stop offset="0.89" stop-color="#d23c00"/><stop offset="1" stop-color="#e54200"/></linearGradient><radialGradient id="radial-gradient-10" cx="514.12" cy="172.01" r="44.73" xlink:href="#radial-gradient-3"/><linearGradient id="linear-gradient-51" x1="335.81" y1="318.44" x2="343.81" y2="283.94" xlink:href="#linear-gradient-9"/><linearGradient id="linear-gradient-52" x1="374.99" y1="314.58" x2="366.24" y2="287.58" xlink:href="#linear-gradient-9"/><radialGradient id="radial-gradient-11" cx="994.47" cy="5856.08" r="3.2" gradientTransform="translate(5046.47 -3367.18) rotate(61.68)" gradientUnits="userSpaceOnUse"><stop offset="0.1" stop-color="#ff8533"/><stop offset="0.24" stop-color="#df651d"/><stop offset="0.38" stop-color="#c74d0d"/><stop offset="0.51" stop-color="#b83e03"/><stop offset="0.62" stop-color="#b33900"/><stop offset="0.68" stop-color="#ac3700"/><stop offset="0.77" stop-color="#9a3100"/><stop offset="0.87" stop-color="#7b2700"/><stop offset="0.98" stop-color="#531a00"/></radialGradient><linearGradient id="linear-gradient-53" x1="989.02" y1="5847.63" x2="1000.69" y2="5847.63" gradientTransform="translate(5046.47 -3367.18) rotate(61.68)" gradientUnits="userSpaceOnUse"><stop offset="0" stop-color="#b33900"/><stop offset="0.16" stop-color="#732400"/><stop offset="0.25" stop-color="#531a00"/><stop offset="0.33" stop-color="#7a2600"/><stop offset="0.41" stop-color="#9b3100"/><stop offset="0.49" stop-color="#b33900"/><stop offset="0.56" stop-color="#c23d00"/><stop offset="0.62" stop-color="#c73f00"/><stop offset="0.77" stop-color="#c03d00"/><stop offset="0.93" stop-color="#b33900"/><stop offset="0.94" stop-color="#a03300"/><stop offset="0.96" stop-color="#7f2800"/><stop offset="0.97" stop-color="#672000"/><stop offset="0.99" stop-color="#581c00"/><stop offset="1" stop-color="#531a00"/></linearGradient><linearGradient id="linear-gradient-54" x1="988.56" y1="5826.41" x2="1000.77" y2="5826.41" gradientTransform="translate(5046.47 -3367.18) rotate(61.68)" gradientUnits="userSpaceOnUse"><stop offset="0" stop-color="#722200"/><stop offset="0.12" stop-color="#932e00"/><stop offset="0.25" stop-color="#b33900"/><stop offset="0.62" stop-color="#b33900"/><stop offset="0.66" stop-color="#ba3b01"/><stop offset="0.72" stop-color="#cc4205"/><stop offset="0.79" stop-color="#eb4c0a"/><stop offset="0.84" stop-color="#ff530e"/><stop offset="0.86" stop-color="#fc520e"/><stop offset="0.87" stop-color="#f34f0d"/><stop offset="0.89" stop-color="#e44a0b"/><stop offset="0.9" stop-color="#cf4209"/><stop offset="0.91" stop-color="#b43907"/><stop offset="0.92" stop-color="#932d03"/><stop offset="0.93" stop-color="#722200"/></linearGradient><linearGradient id="linear-gradient-55" x1="2477.87" y1="5169.89" x2="2499.73" y2="5171.38" gradientTransform="translate(5577.21 -2226.56) rotate(90)" gradientUnits="userSpaceOnUse"><stop offset="0" stop-color="#d6dae6"/><stop offset="0.01" stop-color="#d4d8e6"/><stop offset="0.28" stop-color="#b4b8e3"/><stop offset="0.4" stop-color="#9a9fc8"/><stop offset="0.53" stop-color="#838ab0"/><stop offset="0.65" stop-color="#757da1"/><stop offset="0.76" stop-color="#70789c"/><stop offset="0.85" stop-color="#777ea2"/><stop offset="0.99" stop-color="#898eb3"/><stop offset="1" stop-color="#8b90b5"/></linearGradient><linearGradient id="linear-gradient-56" x1="988.61" y1="5783.2" x2="1000.41" y2="5783.2" gradientTransform="translate(5046.47 -3367.18) rotate(61.68)" gradientUnits="userSpaceOnUse"><stop offset="0.01" stop-color="#722200"/><stop offset="0.03" stop-color="#782b0a"/><stop offset="0.06" stop-color="#874225"/><stop offset="0.1" stop-color="#9f6952"/><stop offset="0.15" stop-color="#c19e8f"/><stop offset="0.2" stop-color="#ece1dd"/><stop offset="0.22" stop-color="#fff"/><stop offset="0.23" stop-color="#fef8f5"/><stop offset="0.25" stop-color="#fbe5db"/><stop offset="0.28" stop-color="#f5c7b1"/><stop offset="0.31" stop-color="#ee9c76"/><stop offset="0.34" stop-color="#e5672c"/><stop offset="0.36" stop-color="#e04700"/><stop offset="0.36" stop-color="#df4700"/><stop offset="0.45" stop-color="#c73f00"/><stop offset="0.54" stop-color="#b83b00"/><stop offset="0.61" stop-color="#b33900"/><stop offset="0.71" stop-color="#a83500"/><stop offset="0.88" stop-color="#8b2b00"/><stop offset="1" stop-color="#722200"/></linearGradient><linearGradient id="linear-gradient-57" x1="2456.1" y1="5125.23" x2="2473.8" y2="5126.43" gradientTransform="translate(5577.21 -2226.56) rotate(90)" gradientUnits="userSpaceOnUse"><stop offset="0.01" stop-color="#f29251"/><stop offset="0.03" stop-color="#f3985b"/><stop offset="0.08" stop-color="#f5a976"/><stop offset="0.13" stop-color="#f8c5a3"/><stop offset="0.19" stop-color="#fdebdf"/><stop offset="0.22" stop-color="#fff"/><stop offset="0.23" stop-color="#fff8f5"/><stop offset="0.25" stop-color="#ffe5db"/><stop offset="0.28" stop-color="#ffc7b1"/><stop offset="0.31" stop-color="#ff9d76"/><stop offset="0.35" stop-color="#ff682c"/><stop offset="0.36" stop-color="#ff530e"/><stop offset="0.4" stop-color="#d2430a"/><stop offset="0.45" stop-color="#a73407"/><stop offset="0.49" stop-color="#852804"/><stop offset="0.54" stop-color="#6d2002"/><stop offset="0.58" stop-color="#5e1b00"/><stop offset="0.61" stop-color="#591900"/><stop offset="1" stop-color="#591900"/></linearGradient><radialGradient id="radial-gradient-12" cx="448.64" cy="238.17" r="3.72" gradientUnits="userSpaceOnUse"><stop offset="0" stop-color="#ff530e"/><stop offset="0.02" stop-color="#f7500e"/><stop offset="0.13" stop-color="#be3e0a"/><stop offset="0.25" stop-color="#8b2d08"/><stop offset="0.37" stop-color="#601f05"/><stop offset="0.49" stop-color="#3e1403"/><stop offset="0.62" stop-color="#230b02"/><stop offset="0.74" stop-color="#0f0501"/><stop offset="0.87" stop-color="#040100"/><stop offset="1"/></radialGradient><radialGradient id="radial-gradient-13" cx="279.74" cy="5015.86" r="21.08" gradientTransform="matrix(0.74, 0.68, -0.26, 0.28, 1454.7, -1315.63)" gradientUnits="userSpaceOnUse"><stop offset="0"/><stop offset="1" stop-color="#fff"/></radialGradient><radialGradient id="radial-gradient-14" cx="279.93" cy="5019.74" r="9.4" xlink:href="#radial-gradient-13"/><radialGradient id="radial-gradient-15" cx="2113.97" cy="-7039.93" r="12.83" gradientTransform="matrix(1.44, -0.76, 0.1, 0.18, -1950.16, 3132.64)" gradientUnits="userSpaceOnUse"><stop offset="0" stop-color="#fff"/><stop offset="0.13" stop-color="#ff63ce"/><stop offset="1"/></radialGradient><linearGradient id="linear-gradient-58" x1="382.1" y1="269.41" x2="387.92" y2="279.63" gradientTransform="translate(176.75 -150.29) rotate(28.56)" gradientUnits="userSpaceOnUse"><stop offset="0" stop-color="#ff530e"/><stop offset="0.05" stop-color="#e44a0b"/><stop offset="0.19" stop-color="#922d03"/><stop offset="0.25" stop-color="#722200"/><stop offset="0.35" stop-color="#532411"/><stop offset="0.45" stop-color="#3b261e"/><stop offset="0.54" stop-color="#2c2725"/><stop offset="0.62" stop-color="#272728"/><stop offset="0.66" stop-color="#2e2827"/><stop offset="0.72" stop-color="#402b23"/><stop offset="0.79" stop-color="#5f311c"/><stop offset="0.87" stop-color="#893813"/><stop offset="0.95" stop-color="#bf4107"/><stop offset="1" stop-color="#e04700"/></linearGradient><radialGradient id="radial-gradient-16" cx="386.33" cy="290.91" r="30.35" gradientUnits="userSpaceOnUse"><stop offset="0" stop-color="#ff530e"/><stop offset="0.08" stop-color="#e3490c"/><stop offset="0.23" stop-color="#b93b08"/><stop offset="0.38" stop-color="#972e05"/><stop offset="0.53" stop-color="#7c2503"/><stop offset="0.68" stop-color="#681e01"/><stop offset="0.84" stop-color="#5d1a00"/><stop offset="1" stop-color="#591900"/></radialGradient><radialGradient id="radial-gradient-17" cx="-9513.42" cy="5304.16" r="7.68" gradientTransform="matrix(0.15, 0.19, -0.78, 0.62, 5972.69, -1183.75)" gradientUnits="userSpaceOnUse"><stop offset="0" stop-color="#ff530e"/><stop offset="0.13" stop-color="#eb4b0b"/><stop offset="0.34" stop-color="#d04006"/><stop offset="0.55" stop-color="#bd3803"/><stop offset="0.77" stop-color="#b23401"/><stop offset="1" stop-color="#ae3200"/></radialGradient><radialGradient id="radial-gradient-18" cx="-12561.4" cy="6859.77" r="7.68" gradientTransform="matrix(0.04, 0.14, -0.82, 0.25, 6532.47, 348.77)" xlink:href="#radial-gradient-12"/><linearGradient id="linear-gradient-59" x1="158.11" y1="82.02" x2="188.34" y2="46.75" gradientUnits="userSpaceOnUse"><stop offset="0" stop-color="#b086cc"/><stop offset="0.04" stop-color="#a37cbd"/><stop offset="0.17" stop-color="#785b8b"/><stop offset="0.3" stop-color="#533f60"/><stop offset="0.44" stop-color="#35283e"/><stop offset="0.57" stop-color="#1e1723"/><stop offset="0.71" stop-color="#0d0a0f"/><stop offset="0.85" stop-color="#030204"/><stop offset="1"/></linearGradient><linearGradient id="linear-gradient-60" x1="198.35" y1="98.55" x2="230.68" y2="82.88" gradientUnits="userSpaceOnUse"><stop offset="0" stop-color="#975e2b"/><stop offset="0.12" stop-color="#9e642f"/><stop offset="0.3" stop-color="#b07339"/><stop offset="0.5" stop-color="#ce8d4b"/><stop offset="0.58" stop-color="#dc9953"/><stop offset="0.78" stop-color="#eaa953"/><stop offset="1" stop-color="#ffc054"/></linearGradient><linearGradient id="linear-gradient-61" x1="113.71" y1="103.41" x2="196.34" y2="47.84" xlink:href="#linear-gradient-60"/><linearGradient id="linear-gradient-62" x1="180.66" y1="29.28" x2="160.39" y2="58.89" xlink:href="#linear-gradient-60"/><radialGradient id="radial-gradient-19" cx="324.03" cy="257.3" r="47.61" gradientUnits="userSpaceOnUse"><stop offset="0" stop-color="#ff530e"/><stop offset="0.2" stop-color="#d0440b"/><stop offset="0.66" stop-color="#5c1e05"/><stop offset="1"/></radialGradient></defs><g class="cls-1"><g id="Layer_1" data-name="Layer 1"><path class="cls-2" d="M551.66,295.47c0,1.93-1.4,4-4.16,5.55l-39.8,38c-5,2.9-12.65,3.22-17,.7l-72.41-42c-2.11-1.22-3.06-2.88-2.92-4.59a2.16,2.16,0,0,0,0,.3v5.47c0,1.57,1,3.07,2.95,4.19l72.41,42.05c4.36,2.52,12,2.2,17-.7l39.8-38c2.8-1.61,4.21-3.69,4.17-5.64C551.66,300.42,551.71,296.81,551.66,295.47Z" transform="translate(-267.19 -34.57)"/><g class="cls-3"><path class="cls-4" d="M498.08,348a20.79,20.79,0,0,1-10.42-2.52l-72.41-42.05c-3.81-2.19-6-5.67-6-9.53,0-4.23,2.63-8.18,7.21-10.82L480,258.59a25.67,25.67,0,0,1,12.67-3.22,20.9,20.9,0,0,1,10.42,2.51l48.67,28.51c3.8,2.2,6,5.67,6,9.53,0,4.23-2.62,8.18-7.2,10.82l-39.8,38A25.78,25.78,0,0,1,498.08,348Z" transform="translate(-267.19 -34.57)"/><path class="cls-5" d="M416.74,283.19l63.55-24.45a25.05,25.05,0,0,1,12.61-3.13,24,24,0,0,1,5.49.7,20.52,20.52,0,0,1,4.82,1.95l47,27.52s1.39.82,1.42.85a10.1,10.1,0,0,1,5.21,9.47c-.21,3.85-3.11,8.12-7.27,10.53l-39.08,37.3a25.16,25.16,0,0,1-12.36,3.14,20.26,20.26,0,0,1-10.18-2.44l-72.41-42.05c-3.65-2.11-5.72-5.42-5.7-9.09C409.84,289.48,412.35,285.72,416.74,283.19Z" transform="translate(-267.19 -34.57)"/><path class="cls-6" d="M417,283.34l63.55-24.44a24.54,24.54,0,0,1,12.54-3,21.08,21.08,0,0,1,10.21,2.79L550,286c.09.06,1.34.8,1.41.86a9.25,9.25,0,0,1,4.44,9.42c-.38,3.44-3.59,8.06-7.33,10.22l-38.37,36.61a24.58,24.58,0,0,1-12.05,3.08,19.93,19.93,0,0,1-9.93-2.37L415.8,301.78c-3.51-2-5.46-5.18-5.43-8.66C410.41,289.33,412.81,285.77,417,283.34Z" transform="translate(-267.19 -34.57)"/><path class="cls-7" d="M417.29,283.5l63.55-24.45a24.1,24.1,0,0,1,12.49-3,23.36,23.36,0,0,1,5.4.88,27.35,27.35,0,0,1,4.7,2l46.46,27.23c.14.07,1.3.77,1.4.86,3.55,2.3,4.28,5.69,3.67,9.36-.52,3-4.07,8-7.4,9.92l-37.65,35.93a24,24,0,0,1-11.74,3,19.37,19.37,0,0,1-9.69-2.29L416.07,301c-3.35-1.93-5.2-4.92-5.14-8.21C411,289.19,413.27,285.82,417.29,283.5Z" transform="translate(-267.19 -34.57)"/><path class="cls-8" d="M417.57,283.65l63.55-24.44a23.52,23.52,0,0,1,12.43-2.87,22.11,22.11,0,0,1,5.34,1,30.32,30.32,0,0,1,4.65,2.11l46.21,27.07c.18.1,1.25.75,1.38.87,3.47,2.33,4.52,5.9,2.89,9.3,0,2.69-4.54,8-7.46,9.63l-36.92,35.24a23.55,23.55,0,0,1-11.45,2.92,18.87,18.87,0,0,1-9.43-2.21l-72.41-42.06c-3.21-1.85-4.94-4.68-4.87-7.78C411.55,289.05,413.73,285.87,417.57,283.65Z" transform="translate(-267.19 -34.57)"/><path class="cls-9" d="M417.85,283.81l63.54-24.45a23,23,0,0,1,12.38-2.78,22.55,22.55,0,0,1,5.29,1,38,38,0,0,1,4.59,2.17l46,26.92c.22.13,1.2.73,1.37.87,3.39,2.37,4.15,6,2.12,9.25,0,2.31-5,7.89-7.52,9.33l-36.21,34.56a23,23,0,0,1-11.14,2.85,18.29,18.29,0,0,1-9.19-2.15l-72.41-42.05c-3.05-1.76-4.67-4.43-4.59-7.34C412.12,288.91,414.19,285.91,417.85,283.81Z" transform="translate(-267.19 -34.57)"/><path class="cls-10" d="M418.12,284l63.55-24.44a22.47,22.47,0,0,1,12.32-2.7,22,22,0,0,1,5.24,1.13,48.8,48.8,0,0,1,4.53,2.22l45.69,26.77a13.84,13.84,0,0,1,1.36.88c3.31,2.4,3.79,6,1.35,9.19,0,1.93-5.51,7.83-7.59,9l-35.49,33.87a22.46,22.46,0,0,1-10.83,2.77,17.88,17.88,0,0,1-8.94-2.07L416.9,298.57c-2.91-1.68-4.42-4.19-4.31-6.9C412.7,288.76,414.65,286,418.12,284Z" transform="translate(-267.19 -34.57)"/><path class="cls-11" d="M418.4,284.12l63.54-24.45a22.14,22.14,0,0,1,12.26-2.61,21.33,21.33,0,0,1,5.19,1.22c.64.21,3.95,2,4.48,2.27l45.44,26.62a12.46,12.46,0,0,1,1.34.89c3.22,2.43,3.42,6.09.58,9.13,0,1.54-6,7.78-7.65,8.74l-34.77,33.18a21.8,21.8,0,0,1-10.53,2.7,17.32,17.32,0,0,1-8.7-2l-72.41-42.05c-2.75-1.6-4.15-3.94-4-6.47C413.27,288.62,415.11,286,418.4,284.12Z" transform="translate(-267.19 -34.57)"/><path class="cls-12" d="M418.67,284.27l63.55-24.44a20,20,0,0,1,17.34-1.23c.47.17,4,2.1,4.42,2.33l45.18,26.47a11.42,11.42,0,0,1,1.33.9c3.14,2.47,3.06,6.14-.19,9.07,0,1.16-6.47,7.72-7.72,8.44l-34.05,32.5a21.34,21.34,0,0,1-10.23,2.63,16.8,16.8,0,0,1-8.44-1.92L417.45,297c-2.61-1.5-3.9-3.69-3.75-6S415.57,286.06,418.67,284.27Z" transform="translate(-267.19 -34.57)"/><path class="cls-13" d="M419,284.42,482.49,260a21,21,0,0,1,12.15-2.43,20.52,20.52,0,0,1,5.08,1.38c.32.12,4.1,2.23,4.37,2.38L549,287.63a10.39,10.39,0,0,1,1.31.91c3.06,2.5,2.69,6.2-1,9,0,.77-6.94,7.66-7.77,8.14l-33.34,31.81a20.72,20.72,0,0,1-9.92,2.55,16.24,16.24,0,0,1-8.2-1.85l-72.4-42c-2.46-1.42-3.64-3.44-3.48-5.58S416,286.11,419,284.42Z" transform="translate(-267.19 -34.57)"/><path class="cls-14" d="M419.22,284.58l63.55-24.44a20.63,20.63,0,0,1,12.09-2.35,20.13,20.13,0,0,1,5,1.47c.16.06,4.18,2.36,4.31,2.43l44.67,26.17a10.25,10.25,0,0,1,1.3.91c3,2.54,2.33,6.27-1.74,9,0,.38-7.42,7.6-7.84,7.84L508,336.71a20.2,20.2,0,0,1-9.62,2.47,15.73,15.73,0,0,1-7.95-1.77L418,295.36c-2.31-1.33-3.37-3.2-3.2-5.15S416.49,286.16,419.22,284.58Z" transform="translate(-267.19 -34.57)"/><path d="M490.69,336.61l-72.41-42.05c-4.36-2.52-3.82-6.92,1.22-9.83l63.55-24.44c5-2.91,12.65-3.22,17-.71l48.66,28.52c4.36,2.51,3.82,6.91-1.22,9.82l-39.8,38C502.66,338.81,495.05,339.13,490.69,336.61Z" transform="translate(-267.19 -34.57)"/></g><path class="cls-15" d="M490.69,336.51l-72.41-42.05c-1.95-1.13-2.91-2.62-2.95-4.19V284.8c0-1.91,1.45,1.4,4.17-.17l63.55-24.44c5-2.91,12.65-3.22,17-.71L548.72,288c1.46.84,2.51-2.73,2.89-1.6.13.38,0,5.38.06,5.78,0,1.95-1.37,4-4.17,5.64l-39.8,38C502.66,338.71,495.05,339,490.69,336.51Z" transform="translate(-267.19 -34.57)"/><path class="cls-16" d="M490.69,331.14l-72.41-42.05c-4.36-2.52-3.82-6.92,1.22-9.83l63.55-24.44c5-2.91,12.65-3.22,17-.71l48.66,28.52c4.36,2.51,3.82,6.91-1.22,9.82l-39.8,38C502.66,333.34,495.05,333.66,490.69,331.14Z" transform="translate(-267.19 -34.57)"/><path class="cls-17" d="M548.72,282.63l-48.66-28.52c-4.36-2.51-12-2.2-17,.71l-32,12.32a8.57,8.57,0,0,0,1,.68l72.41,42.05a12.23,12.23,0,0,0,3.47,1.29l19.6-18.71C552.54,289.54,553.08,285.14,548.72,282.63Z" transform="translate(-267.19 -34.57)"/><path class="cls-18" d="M547.5,291.54l-39.8,38c-5,2.91-12.65,3.23-17,.71l-72.41-42.06a5.2,5.2,0,0,1-2.91-3.86c-.23,1.78.72,3.52,2.91,4.78l72.41,42.05c4.36,2.52,12,2.2,17-.71l39.8-38c3-1.7,4.34-3.91,4.13-6C551.41,288.26,550,290.09,547.5,291.54Z" transform="translate(-267.19 -34.57)"/><path class="cls-19" d="M585.29,331.37,407.45,228.62c-9.09-5.25-16.46-19.33-16.46-31.46v-136c0-12.12,7.37-17.7,16.46-12.45L585.29,151.47c9.09,5.25,16.46,19.33,16.46,31.45v136C601.75,331.05,594.38,336.62,585.29,331.37Z" transform="translate(-267.19 -34.57)"/><path class="cls-20" d="M587.41,321.9,412.08,220.61c-7.32-4.65-11.84-13.94-11.84-23.45V60.26a2.91,2.91,0,0,1,4.39-2.51l.52.3L580.66,159.47c8.71,5,11.84,13.95,11.84,23.45V319.39a3.15,3.15,0,0,1-4.71,2.74Z" transform="translate(-267.19 -34.57)"/><path class="cls-21" d="M580.66,159.47,405.15,58.05l-.52-.3a2.92,2.92,0,0,0-4.39,2.52V197.16c0,9.51,4.52,18.8,11.84,23.45L587.41,321.9l.38.23a3.15,3.15,0,0,0,4.71-2.74V182.92C592.5,173.42,589.37,164.49,580.66,159.47Zm10,159.92a1.3,1.3,0,0,1-1.3,1.3,1.23,1.23,0,0,1-.64-.17L413,219c-6.61-4.2-10.92-12.79-10.92-21.85V60.27a1.07,1.07,0,0,1,1.07-1.07,1,1,0,0,1,.54.15l176,101.72c9,5.21,10.91,14.76,10.91,21.85Z" transform="translate(-267.19 -34.57)"/><path class="cls-22" d="M590,149,412.12,46.24c-3.6-2.08-6.92-2.46-9.63-1.42-.35.13-4.94,2.57-5.26,2.75l0,0c2.81-1.37,6.37-1.12,10.24,1.12L585.29,151.47c9.09,5.25,16.46,19.33,16.46,31.45v136c0,7.56-2.87,12.58-7.24,14a2.72,2.72,0,0,0,1.44-.49c.21-.12,5.19-2.93,5.39-3.07,3.13-2.19,5.08-6.69,5.08-12.92v-136C606.42,168.32,599.05,154.24,590,149Z" transform="translate(-267.19 -34.57)"/><path class="cls-23" d="M586.08,151.07,408.24,48.32c-3.72-2.15-7.15-2.46-9.91-1.27a12.2,12.2,0,0,1,7.94,1.86L584.1,151.67c9.09,5.25,16.46,19.33,16.46,31.45v136c0,7.15-2.57,12-6.54,13.71,5.08-.81,8.52-6,8.52-14.31v-136C602.54,170.41,595.17,156.32,586.08,151.07Z" transform="translate(-267.19 -34.57)"/><path class="cls-24" d="M624.28,305.21h-1v-136c0-12-7.27-25.87-16.21-31L429.25,35.42l.49-.85L607.58,137.33c9.21,5.32,16.7,19.62,16.7,31.88Z" transform="translate(-267.19 -34.57)"/><path class="cls-25" d="M498.07,355.36a15.53,15.53,0,0,1-7.63-1.75L418,311.55l.49-.84,72.41,42.05c4.21,2.43,11.58,2.12,16.47-.68l39.76-37.94.68.71-39.9,38A20.21,20.21,0,0,1,498.07,355.36Z" transform="translate(-267.19 -34.57)"/><polygon class="cls-26" points="157.1 169.05 137.11 157.41 115.03 169.99 115.03 191.96 134.96 203.47 134.96 203.48 134.97 203.47 134.99 203.48 134.99 203.47 157.1 191.01 157.1 169.05"/><g class="cls-27"><polygon class="cls-28" points="134.96 181.69 134.96 203.48 144.02 198.25 144.02 176.29 134.96 181.69"/><polygon class="cls-29" points="134.99 181.69 134.99 203.48 115.03 191.96 115.03 169.99 134.99 181.69"/><polygon class="cls-30" points="115.03 169.99 134.99 181.69 144.02 176.29 124.02 164.65 115.03 169.99"/></g><polygon class="cls-31" points="157.1 140.56 137.11 128.92 115.03 141.5 115.03 163.47 134.96 174.98 134.96 175 134.97 174.99 134.99 175 134.99 174.98 157.1 162.53 157.1 140.56"/><g class="cls-27"><polygon class="cls-32" points="134.96 153.21 134.96 175 144.02 169.77 144.02 147.8 134.96 153.21"/><polygon class="cls-33" points="134.99 153.21 134.99 175 115.03 163.47 115.03 141.5 134.99 153.21"/><polygon class="cls-34" points="115.03 141.5 134.99 153.21 144.02 147.8 124.02 136.16 115.03 141.5"/></g><polygon class="cls-35" points="157.1 111.81 137.11 100.17 115.03 112.75 115.03 134.72 134.96 146.23 134.96 146.25 134.97 146.24 134.99 146.25 134.99 146.23 157.1 133.78 157.1 111.81"/><g class="cls-27"><polygon class="cls-36" points="134.96 124.46 134.96 146.25 144.02 141.02 144.02 119.05 134.96 124.46"/><polygon class="cls-37" points="134.99 124.46 134.99 146.25 115.03 134.72 115.03 112.75 134.99 124.46"/><polygon class="cls-38" points="115.03 112.75 134.99 124.46 144.02 119.05 124.02 107.41 115.03 112.75"/></g><polygon class="cls-39" points="130.51 139.5 119.34 133.05 119.34 120.24 130.51 126.69 130.51 139.5"/><path class="cls-39" d="M398.78,196.55c0,3.95-2.78,5.54-6.22,3.55a13.71,13.71,0,0,1-6.23-10.74c0-3.94,2.79-5.53,6.23-3.55A13.73,13.73,0,0,1,398.78,196.55Z" transform="translate(-267.19 -34.57)"/><polygon class="cls-39" points="121.53 191.89 118.02 182.89 121.53 177.95 128.54 182 132.05 190.99 128.54 195.94 121.53 191.89"/><polygon class="cls-40" points="324.36 227.96 304.36 216.32 282.28 228.91 282.28 250.87 302.21 262.38 302.21 262.4 302.22 262.39 302.24 262.4 302.24 262.38 324.36 249.93 324.36 227.96"/><g class="cls-27"><polygon class="cls-41" points="302.21 240.61 302.21 262.4 311.27 257.17 311.27 235.2 302.21 240.61"/><polygon class="cls-42" points="302.24 240.61 302.24 262.4 282.28 250.87 282.28 228.91 302.24 240.61"/><polygon class="cls-43" points="282.28 228.91 302.24 240.61 311.27 235.2 291.27 223.56 282.28 228.91"/></g><polygon class="cls-44" points="324.36 188.71 304.36 177.07 282.28 189.66 282.28 211.62 302.21 223.13 302.21 223.15 302.22 223.14 302.24 223.15 302.24 223.13 324.36 210.68 324.36 188.71"/><g class="cls-27"><polygon class="cls-45" points="302.21 201.36 302.21 223.15 311.27 217.92 311.27 195.95 302.21 201.36"/><polygon class="cls-46" points="302.24 201.36 302.24 223.15 282.28 211.62 282.28 189.66 302.24 201.36"/><polygon class="cls-47" points="282.28 189.66 302.24 201.36 311.27 195.95 291.27 184.31 282.28 189.66"/></g><polygon class="cls-48" points="324.36 159.49 304.36 147.85 282.28 160.43 282.28 182.39 302.21 193.91 302.21 193.92 302.22 193.91 302.24 193.92 302.24 193.91 324.36 181.45 324.36 159.49"/><g class="cls-27"><polygon class="cls-49" points="302.21 172.13 302.21 193.92 311.27 188.69 311.27 166.73 302.21 172.13"/><polygon class="cls-50" points="302.24 172.13 302.24 193.92 282.28 182.39 282.28 160.43 302.24 172.13"/><polygon class="cls-51" points="282.28 160.43 302.24 172.13 311.27 166.73 291.27 155.09 282.28 160.43"/></g><polygon class="cls-52" points="324.36 129.56 304.36 117.92 282.28 130.5 282.28 152.47 302.21 163.98 302.21 164 302.22 163.99 302.24 164 302.24 163.98 324.36 151.53 324.36 129.56"/><g class="cls-27"><polygon class="cls-53" points="302.21 142.21 302.21 164 311.27 158.77 311.27 136.8 302.21 142.21"/><polygon class="cls-54" points="302.24 142.21 302.24 164 282.28 152.47 282.28 130.5 302.24 142.21"/><polygon class="cls-55" points="282.28 130.5 302.24 142.21 311.27 136.8 291.27 125.16 282.28 130.5"/></g><path class="cls-39" d="M563.64,205.05l-10.5,6-1.3,5.73,5.6,1.68,10.5-6Zm-10.44,9.48.56-2.43,3.07,5.3-2.38-.72Zm1-2.89,6.86-3.91,3.25,5.62-6.85,3.91Z" transform="translate(-267.19 -34.57)"/><path class="cls-39" d="M562.14,188.93l2.1-4,2.86-1.63-4.63-8-2.86,1.63-4.55-.22a.16.16,0,0,0-.18.13l-2.5,8.5a.61.61,0,0,0,.14.51c.13.16.29.24.4.19l.18-.08-.17.11a.37.37,0,0,0,0,.43.31.31,0,0,0,.05.1.57.57,0,0,0,.32.28l8.66,2.13A.16.16,0,0,0,562.14,188.93Zm-7.94-2.61,3-2.11c.43.47,1,.7,1.3.49s.45-1.08,0-1.85-1.17-1.2-1.62-.94-.42.76-.22,1.37l-3.38,1.55,2.14-7.26,4.12.2,3.91,6.75-1.9,3.62Z" transform="translate(-267.19 -34.57)"/><path class="cls-39" d="M564.34,243.81l-1.71-3a5.47,5.47,0,0,1,2.53.08,1.44,1.44,0,0,0,1-.11c1.11-.64.95-2.9-.47-4.74a3.21,3.21,0,0,0-2.58-1.5,1.29,1.29,0,0,0-1.08.93,6,6,0,0,1-1.24,2.23l-1.69-2.93-1.68.95.77,1.34-4.87,2.77a2.25,2.25,0,0,0-1,1.85l-.12,1.51a.33.33,0,0,1-.07.21l-.64.88a.74.74,0,0,0,.08.77c.16.28.41.49.65.46l1-.13a.45.45,0,0,1,.22,0l1.51.7a2.26,2.26,0,0,0,2.07.06l4.89-2.79.77,1.33Zm-7.83,1.55a1.8,1.8,0,0,1-1.64-.05l-1.51-.7a1,1,0,0,0-.52-.09l-.32,0,.26-.35a1.06,1.06,0,0,0,.17-.5l.12-1.51a1.75,1.75,0,0,1,.78-1.46l4.87-2.78,2.68,4.61Z" transform="translate(-267.19 -34.57)"/><path class="cls-39" d="M565.49,288.88l-2.87-4.95a1.4,1.4,0,0,0-1.11-.81l-.85-1.45c1.27-1.19,1.14-4-.38-6.61-1.66-2.86-4.35-4.42-6-3.47s-1.66,4,0,6.9c1.52,2.62,3.9,4.14,5.57,3.65l.84,1.45a1.35,1.35,0,0,0,.14,1.36l2.87,4.95c.36.62.95,1,1.31.76l.49-.28C565.85,290.17,565.85,289.5,565.49,288.88Zm-6.23-8.69c-1.1.62-2.87-.4-4-2.29s-1.09-3.92,0-4.54,2.87.4,4,2.28S560.35,279.57,559.26,280.19Z" transform="translate(-267.19 -34.57)"/><g class="cls-3"><path class="cls-4" d="M380.2,389.37a12.94,12.94,0,0,1-6.49-1.57l-29.12-56.41a6.86,6.86,0,0,1-3.72-5.93c0-2.63,1.64-5.08,4.48-6.72l17.29-6.33a16,16,0,0,1,7.87-2A13,13,0,0,1,377,312l75.63,46.27a6.84,6.84,0,0,1,3.72,5.92c0,2.63-1.63,5.09-4.48,6.73l-63.8,16.47A15.85,15.85,0,0,1,380.2,389.37Z" transform="translate(-267.19 -34.57)"/><path class="cls-56" d="M345.63,318.89l17.15-6.28a15,15,0,0,1,1.51-.73,16.11,16.11,0,0,1,6.3-1.27,13.33,13.33,0,0,1,5.35,1,9,9,0,0,1,1.07.55l75,45.9a7.61,7.61,0,0,1,3.89,5.54c0,.06,0,.11,0,.17.22,2.53-1.29,5-4.16,6.66l-63.16,16.31a17.24,17.24,0,0,1-7.8,2,12.25,12.25,0,0,1-6.86-1.38l-28.85-55.9a7.69,7.69,0,0,1-3.64-5.63l0-.28C341.25,323,342.76,320.54,345.63,318.89Z" transform="translate(-267.19 -34.57)"/><path class="cls-57" d="M345.9,319.05l17-6.23c.39-.23,1.08-.53,1.51-.72a16.14,16.14,0,0,1,6.23-1.29,13.13,13.13,0,0,1,5.31,1,11.51,11.51,0,0,1,1,.54l74.45,45.55c1.89,1.09,3.84,3.43,4.06,5.33l0,.15c.45,2.45-.94,4.93-3.83,6.6l-62.52,16.14a18.64,18.64,0,0,1-7.73,2,11.86,11.86,0,0,1-7.23-1.2l-28.59-55.39a8.67,8.67,0,0,1-3.56-5.62,2.3,2.3,0,0,0-.06-.28C341.62,323.19,343,320.71,345.9,319.05Z" transform="translate(-267.19 -34.57)"/><path class="cls-58" d="M346.17,319.2,363.05,313c.36-.2,1.13-.52,1.51-.69a15.69,15.69,0,0,1,6.18-1.32,12.81,12.81,0,0,1,5.25,1,11.39,11.39,0,0,1,1,.55l73.86,45.18c1.68,1,3.95,3.45,4.23,5.12a.88.88,0,0,0,.05.15c.67,2.35-.61,4.85-3.51,6.53l-61.88,16a20.61,20.61,0,0,1-7.65,1.95,11.58,11.58,0,0,1-7.6-1L346.2,331.61c-1.65-1-3.19-4-3.49-5.63,0-.09-.06-.17-.08-.26C342,323.37,343.27,320.87,346.17,319.2Z" transform="translate(-267.19 -34.57)"/><path class="cls-59" d="M346.44,319.36l16.75-6.14c.31-.17,1.17-.52,1.5-.67a15.63,15.63,0,0,1,6.12-1.34,12.58,12.58,0,0,1,5.21,1c.24.11.8.42,1,.54l73.27,44.83c1.47.85,4.36,3.42,4.4,4.9l.06.14c.9,2.26-.26,4.78-3.19,6.47L390.34,385a23,23,0,0,1-7.57,1.93,11.43,11.43,0,0,1-8-.84l-28.07-54.36c-1.44-.83-3.35-4.18-3.41-5.63,0-.08-.07-.16-.11-.25C342.36,323.54,343.53,321,346.44,319.36Z" transform="translate(-267.19 -34.57)"/><path class="cls-60" d="M346.71,319.51l16.62-6.08c.26-.15,1.21-.53,1.5-.66a15.25,15.25,0,0,1,6.05-1.35,12.2,12.2,0,0,1,5.17,1l1,.55,72.68,44.46c1.26.73,4.54,3.42,4.57,4.69a.91.91,0,0,1,.07.14c1.14,2.16.09,4.7-2.86,6.4l-60.6,15.65a26.43,26.43,0,0,1-7.5,1.92,11.4,11.4,0,0,1-8.34-.65l-27.8-53.86c-1.24-.71-3.29-4.38-3.35-5.63l-.12-.23C342.72,323.72,343.78,321.2,346.71,319.51Z" transform="translate(-267.19 -34.57)"/><path class="cls-61" d="M347,319.67l16.49-6c.22-.12,1.25-.52,1.49-.63a14.87,14.87,0,0,1,6-1.38,11.93,11.93,0,0,1,5.11,1c.17.08.83.45,1,.55l72.1,44.1c1,.6,4.7,3.42,4.73,4.48l.09.13c1.36,2.07.43,4.62-2.54,6.33l-60,15.49a31.21,31.21,0,0,1-7.42,1.9,11.4,11.4,0,0,1-8.72-.47L347.8,331.82c-1-.59-3.22-4.59-3.27-5.62,0-.08-.1-.15-.14-.23C343.09,323.9,344,321.37,347,319.67Z" transform="translate(-267.19 -34.57)"/><path class="cls-62" d="M347.25,319.83l16.36-6c.17-.1,1.29-.53,1.48-.62a14.93,14.93,0,0,1,5.94-1.4,11.6,11.6,0,0,1,5.07,1l1,.55,71.51,43.74c.83.49,4.88,3.42,4.9,4.27l.1.12c1.6,2,.78,4.55-2.21,6.27l-59.32,15.32A37.92,37.92,0,0,1,384.7,385c-2.89,1.15-6.72,1.07-9.09-.29l-27.27-52.84c-.82-.47-3.16-4.79-3.2-5.62l-.17-.21C343.45,324.07,344.29,321.53,347.25,319.83Z" transform="translate(-267.19 -34.57)"/><path class="cls-63" d="M347.52,320,363.75,314c.13-.07,1.33-.53,1.47-.59A14.59,14.59,0,0,1,371.1,312a11.31,11.31,0,0,1,5,1.05c.11.05.86.49,1,.55L448,357c.62.36,5.05,3.41,5.07,4.05l.11.12c1.84,1.88,1.12,4.47-1.89,6.21l-58.68,15.15a49.31,49.31,0,0,1-7.27,1.86c-2.95,1.32-7,1.31-9.46-.1l-27-52.33c-.61-.35-3.09-5-3.12-5.62l-.19-.2C343.81,324.25,344.55,321.7,347.52,320Z" transform="translate(-267.19 -34.57)"/><path class="cls-64" d="M347.79,320.14l16.1-5.89c.08-.05,1.37-.53,1.47-.58a14.41,14.41,0,0,1,5.82-1.45,11.12,11.12,0,0,1,5,1c.07,0,.88.52.94.55l70.33,43c.42.25,5.23,3.42,5.24,3.84l.13.11c2.07,1.78,1.46,4.4-1.57,6.15l-58,15a71.44,71.44,0,0,1-7.19,1.85c-3,1.48-7.3,1.54-9.84.08L349.41,332a32,32,0,0,1-3.05-5.63l-.22-.19C344.17,324.44,344.8,321.86,347.79,320.14Z" transform="translate(-267.19 -34.57)"/><path class="cls-65" d="M348.07,320.29,364,314.45l1.47-.55a14,14,0,0,1,5.76-1.47,10.79,10.79,0,0,1,4.93,1.05l.92.55,69.74,42.66c.21.12,5.4,3.41,5.41,3.63l.14.1c2.31,1.68,1.81,4.32-1.24,6.08l-57.4,14.82c-.2.11-6.86,1.83-7.12,1.83-3.07,1.64-7.58,1.77-10.21.26l-26.48-51.3c-.2-.12-3-5.42-3-5.63a1.46,1.46,0,0,1-.24-.17C344.53,324.62,345.06,322,348.07,320.29Z" transform="translate(-267.19 -34.57)"/><path d="M376.69,383l-29.11-56.41c-2.71-1.57-2.37-4.3.76-6.11l17.28-6.33c3.13-1.81,7.87-2,10.58-.44L451.84,360c2.71,1.56,2.37,4.3-.76,6.11l-63.81,16.47C384.14,384.34,379.41,384.53,376.69,383Z" transform="translate(-267.19 -34.57)"/></g><polygon class="cls-66" points="160.13 342.6 74.52 281.13 100.56 269.07 186.17 330.54 160.13 342.6"/><polygon class="cls-67" points="95.35 292.76 85.68 285.82 106.09 276.37 115.76 283.31 95.35 292.76"/><polygon class="cls-68" points="108.02 301.86 98.36 294.92 118.76 285.47 128.43 292.41 108.02 301.86"/><polygon class="cls-69" points="120.7 310.96 111.03 304.02 131.44 294.57 141.11 301.51 120.7 310.96"/><polygon class="cls-70" points="133.37 320.06 123.7 313.11 144.11 303.66 153.78 310.61 133.37 320.06"/><polygon class="cls-71" points="146.04 329.15 136.37 322.21 156.78 312.76 166.45 319.7 146.04 329.15"/><polygon class="cls-72" points="158.71 338.25 149.04 331.31 169.45 321.86 179.12 328.8 158.71 338.25"/><polygon class="cls-73" points="160.13 342.6 74.52 281.13 100.56 269.07 167.38 339.23 160.13 342.6"/><polygon class="cls-74" points="135 347.65 70.57 278.14 100.07 269.11 164.5 338.62 135 347.65"/><polygon class="cls-75" points="87.32 291.8 80.04 283.94 103.16 276.86 110.44 284.71 87.32 291.8"/><polygon class="cls-76" points="96.86 302.08 89.58 294.23 112.7 287.15 119.98 295 96.86 302.08"/><polygon class="cls-77" points="106.39 312.37 99.12 304.52 122.24 297.44 129.51 305.29 106.39 312.37"/><polygon class="cls-78" points="115.93 322.66 108.65 314.81 131.77 307.73 139.05 315.58 115.93 322.66"/><polygon class="cls-79" points="125.47 332.95 118.19 325.1 141.31 318.02 148.59 325.87 125.47 332.95"/><polygon class="cls-80" points="135.01 343.24 127.73 335.39 150.85 328.31 158.13 336.16 135.01 343.24"/><polygon class="cls-81" points="135 347.65 70.57 278.14 100.07 269.11 144.13 344.98 135 347.65"/><polygon class="cls-82" points="109.22 350.49 67.6 275.47 99.48 269.68 141.1 344.7 109.22 350.49"/><polygon class="cls-83" points="79.81 290.63 75.11 282.16 100.09 277.62 104.8 286.09 79.81 290.63"/><polygon class="cls-84" points="85.97 301.73 81.27 293.26 106.25 288.72 110.95 297.19 85.97 301.73"/><polygon class="cls-85" points="92.13 312.84 87.43 304.37 112.42 299.83 117.11 308.3 92.13 312.84"/><polygon class="cls-86" points="98.29 323.94 93.59 315.47 118.58 310.93 123.28 319.4 98.29 323.94"/><polygon class="cls-87" points="104.45 335.05 99.75 326.57 124.73 322.04 129.44 330.51 104.45 335.05"/><polygon class="cls-88" points="110.61 346.15 105.91 337.68 130.9 333.14 135.59 341.62 110.61 346.15"/><g class="cls-3"><path class="cls-4" d="M384.27,360.82a13.53,13.53,0,0,1-6.76-1.63L288.38,308a7.17,7.17,0,0,1-3.88-6.18c0-2.75,1.71-5.31,4.68-7l50.75-29.25a16.61,16.61,0,0,1,8.21-2.09,13.48,13.48,0,0,1,6.76,1.63L444,316.28a7.16,7.16,0,0,1,3.88,6.18c0,2.75-1.7,5.31-4.67,7l-50.75,29.25A16.62,16.62,0,0,1,384.27,360.82Z" transform="translate(-267.19 -34.57)"/><path class="cls-56" d="M340.21,265.67A16.39,16.39,0,0,1,351.68,264a14.08,14.08,0,0,1,3.43,1.34L444,316.44a6.52,6.52,0,0,1,3.57,6.11,6.93,6.93,0,0,1-.36,1.8,10.07,10.07,0,0,1-4.47,4.94l-50.13,28.89a15.34,15.34,0,0,1-2,1,16.9,16.9,0,0,1-6,1.15,13.25,13.25,0,0,1-6.69-1.58L288.67,307.5a6.5,6.5,0,0,1-3.57-6.12,8,8,0,0,1,.29-1.53,9.94,9.94,0,0,1,4.57-5.22Z" transform="translate(-267.19 -34.57)"/><path class="cls-57" d="M340.49,265.83a16.06,16.06,0,0,1,8.18-2,15.83,15.83,0,0,1,3.25.45,16.06,16.06,0,0,1,3.39,1.39l88.57,50.91a6,6,0,0,1,3.28,6,8.21,8.21,0,0,1-.47,1.71,11.27,11.27,0,0,1-4.54,4.74l-49.5,28.54a19.71,19.71,0,0,1-2,1,17,17,0,0,1-6,1.18,12.92,12.92,0,0,1-6.6-1.53L289,307A5.93,5.93,0,0,1,285.7,301a8.25,8.25,0,0,1,.38-1.46c.54-1.71,2.72-3.89,4.67-5Z" transform="translate(-267.19 -34.57)"/><path class="cls-58" d="M340.78,266a15.45,15.45,0,0,1,8.15-1.91,14.84,14.84,0,0,1,3.23.51,17.48,17.48,0,0,1,3.36,1.42l88.29,50.75a5.46,5.46,0,0,1,3,6,9.59,9.59,0,0,1-.57,1.63c-.56,1.41-2.94,3.59-4.6,4.54l-48.88,28.18a21.25,21.25,0,0,1-2,1,16.86,16.86,0,0,1-5.88,1.22,12.63,12.63,0,0,1-6.52-1.48l-89.13-51.23a5.4,5.4,0,0,1-2.93-6,12.64,12.64,0,0,1,.47-1.39c.54-1.5,3-3.81,4.77-4.81Z" transform="translate(-267.19 -34.57)"/><path class="cls-59" d="M341.06,266.16a14.66,14.66,0,0,1,11.34-1.28,21.23,21.23,0,0,1,3.32,1.46l88,50.59c2.43,1.41,3.32,3.63,2.67,5.9a12,12,0,0,1-.66,1.55c-.54,1.22-3.22,3.51-4.67,4.34l-48.26,27.82c-.41.24-1.48.79-1.94,1a16.56,16.56,0,0,1-5.78,1.26,12.45,12.45,0,0,1-6.45-1.42l-89.13-51.23c-2.45-1.42-3.31-3.67-2.61-5.95.14-.45.37-.87.56-1.32.52-1.29,3.35-3.74,4.86-4.61Z" transform="translate(-267.19 -34.57)"/><path class="cls-60" d="M341.34,266.32a15,15,0,0,1,8.12-1.79,14.69,14.69,0,0,1,3.18.63,26,26,0,0,1,3.29,1.51l87.72,50.42c2.43,1.4,3.19,3.62,2.37,5.83a14.75,14.75,0,0,1-.76,1.47c-.5,1-3.49,3.43-4.74,4.15L392.89,356c-.35.2-1.52.82-1.91,1a16.27,16.27,0,0,1-5.69,1.3,12.11,12.11,0,0,1-6.36-1.37L289.8,305.67c-2.46-1.42-3.19-3.67-2.3-5.89a6,6,0,0,1,.65-1.25c.28-1.16,3.66-3.66,5-4.41Z" transform="translate(-267.19 -34.57)"/><path class="cls-61" d="M341.62,266.48a14.59,14.59,0,0,1,8.11-1.73,14.75,14.75,0,0,1,3.14.69,31.6,31.6,0,0,1,3.26,1.55l87.45,50.27c2.42,1.39,3.06,3.6,2.06,5.75a6.83,6.83,0,0,1-.85,1.39c-.27.91-3.77,3.35-4.81,4l-47,27.09c-.29.17-1.55.85-1.88,1a16,16,0,0,1-5.6,1.33,11.85,11.85,0,0,1-6.28-1.32l-89.13-51.23c-2.45-1.42-3.06-3.66-2-5.83a6.25,6.25,0,0,1,.74-1.18c.24-1,4-3.58,5.05-4.21Z" transform="translate(-267.19 -34.57)"/><path class="cls-62" d="M341.91,266.65A14.24,14.24,0,0,1,350,265a14.4,14.4,0,0,1,3.12.75c.46.14,2.85,1.38,3.23,1.59l87.16,50.11c2.41,1.39,2.95,3.59,1.77,5.68a6.41,6.41,0,0,1-1,1.3c-.21.74-4,3.28-4.87,3.76l-46.39,26.73c-.24.14-1.58.88-1.84,1a16,16,0,0,1-5.51,1.37,11.59,11.59,0,0,1-6.21-1.27l-89.13-51.23c-2.45-1.41-2.94-3.66-1.66-5.77a6.05,6.05,0,0,1,.83-1.11c.19-.78,4.28-3.51,5.15-4Z" transform="translate(-267.19 -34.57)"/><path class="cls-63" d="M342.19,266.81a12.74,12.74,0,0,1,11.16-.81c.34.11,2.91,1.48,3.19,1.64l86.89,49.94c2.4,1.39,2.83,3.59,1.46,5.61a6.55,6.55,0,0,1-1.05,1.22c-.17.55-4.32,3.2-4.94,3.56l-45.77,26.38c-.18.1-1.62.9-1.81,1a15.77,15.77,0,0,1-5.42,1.41,11.33,11.33,0,0,1-6.13-1.22l-89.12-51.23c-2.45-1.41-2.83-3.67-1.35-5.71a6.3,6.3,0,0,1,.92-1c.14-.58,4.6-3.43,5.25-3.8Z" transform="translate(-267.19 -34.57)"/><path class="cls-64" d="M342.47,267a12.46,12.46,0,0,1,11.12-.69c.23.08,3,1.57,3.15,1.68l86.61,49.78c2.39,1.38,2.72,3.59,1.16,5.55a6.86,6.86,0,0,1-1.15,1.13c-.11.37-4.59,3.12-5,3.36l-45.14,26c-.12.07-1.65.93-1.78,1a15.26,15.26,0,0,1-5.33,1.45,10.92,10.92,0,0,1-6-1.17l-89.13-51.23c-2.44-1.41-2.72-3.68-1-5.65a6.25,6.25,0,0,1,1-1c.09-.39,4.91-3.35,5.34-3.6Z" transform="translate(-267.19 -34.57)"/><path class="cls-65" d="M342.76,267.13a12.06,12.06,0,0,1,11.07-.57c.11,0,3,1.67,3.12,1.72l86.33,49.62c2.38,1.38,2.61,3.6.85,5.48a7.06,7.06,0,0,1-1.25,1.05c-.05.18-4.86,3-5.07,3.16l-44.52,25.66-1.75,1a15.48,15.48,0,0,1-5.23,1.48,10.77,10.77,0,0,1-6-1.11l-89.13-51.23c-2.44-1.41-2.61-3.7-.71-5.6a6.8,6.8,0,0,1,1.1-.9c0-.2,5.22-3.27,5.44-3.4Z" transform="translate(-267.19 -34.57)"/><path d="M380.62,354.15l-89.13-51.23c-2.82-1.64-2.47-4.49.8-6.37L343,267.29c3.26-1.88,8.2-2.09,11-.45l89.13,51.23c2.83,1.63,2.47,4.48-.79,6.37l-50.75,29.25C388.39,355.58,383.45,355.78,380.62,354.15Z" transform="translate(-267.19 -34.57)"/></g><path class="cls-89" d="M393,353.56l50.2-28.93c2-1.15,3-2.69,3-4.31,0-.14,0-3.25,0-3.39-.17-1.87-1.61-.84-4.26-2.38L354,263.86c-5.16-3-13-3.31-17.45-.72l-50.2,28.93c-2,1.15-3-.88-3,.73,0,.14,0,3.85,0,4,.17,1.88,1.6,3.82,4.26,5.35l87.92,50.7C380.72,355.82,388.53,356.14,393,353.56Z" transform="translate(-267.19 -34.57)"/><path class="cls-90" d="M393,350.16l50.2-28.93c4.48-2.58,3.92-7.09-1.25-10.07L354,260.46c-5.16-3-13-3.3-17.45-.72l-50.2,28.93c-4.47,2.58-3.91,7.09,1.25,10.07l87.92,50.7C380.72,352.42,388.53,352.74,393,350.16Z" transform="translate(-267.19 -34.57)"/><path class="cls-91" d="M443.2,320.79,393,349.72c-4.47,2.58-12.28,2.25-17.45-.73L287.63,298.3c-2.72-1.57-4.16-3.56-4.26-5.48-.12,2.05,1.33,4.23,4.26,5.92l87.92,50.7c5.17,3,13,3.3,17.45.72l50.2-28.93c2.12-1.22,3.11-2.88,3-4.6C446.13,318.19,445.14,319.67,443.2,320.79Z" transform="translate(-267.19 -34.57)"/><path class="cls-88" d="M439.09,312.6l-87.57-50.49c-3.79-2.19-9.52-2.42-12.8-.53L289.57,289.9c-3.28,1.9-2.87,5.21.92,7.4l87.57,50.49c3.79,2.19,9.52,2.42,12.8.53L440,320C443.29,318.1,442.88,314.79,439.09,312.6Z" transform="translate(-267.19 -34.57)"/><path class="cls-92" d="M429.71,308.1l-79.49-45.83a12.36,12.36,0,0,0-11.16,0L290.8,290.1c-3.09,1.78-3.11,4.67,0,6.45l79.47,45.82Z" transform="translate(-267.19 -34.57)"/><path class="cls-93" d="M424,335.4l-7.09,4.1h0a4.18,4.18,0,0,1,1.76-3.36l3.57-2.07c1-.56,1.76,0,1.76,1.33Z" transform="translate(-267.19 -34.57)"/><path class="cls-94" d="M398.66,346.08c3.52,8.58.43,18-6.91,21s-16.14-1.49-19.67-10.07-.43-18,6.91-21S395.13,337.51,398.66,346.08Z" transform="translate(-267.19 -34.57)"/><path class="cls-95" d="M292.8,296.47a.24.24,0,0,1-.21-.12.25.25,0,0,1,.09-.34l2.36-1.39a.26.26,0,0,1,.35.09.25.25,0,0,1-.09.34l-2.37,1.39A.28.28,0,0,1,292.8,296.47Z" transform="translate(-267.19 -34.57)"/><path class="cls-95" d="M299.58,300.37a.24.24,0,0,1-.21-.12.26.26,0,0,1,.09-.35l2.36-1.39a.26.26,0,0,1,.35.09.25.25,0,0,1-.09.34l-2.37,1.39A.22.22,0,0,1,299.58,300.37Z" transform="translate(-267.19 -34.57)"/><path class="cls-95" d="M306.36,304.26a.24.24,0,0,1-.21-.12.25.25,0,0,1,.08-.34l2.37-1.39a.26.26,0,0,1,.35.09.26.26,0,0,1-.09.34l-2.37,1.39A.31.31,0,0,1,306.36,304.26Z" transform="translate(-267.19 -34.57)"/><path class="cls-95" d="M313.14,308.16a.25.25,0,0,1-.22-.12.26.26,0,0,1,.09-.35l2.37-1.39a.25.25,0,0,1,.34.09.25.25,0,0,1-.08.34l-2.37,1.4A.31.31,0,0,1,313.14,308.16Z" transform="translate(-267.19 -34.57)"/><path class="cls-95" d="M319.92,312.05a.25.25,0,0,1-.22-.12.25.25,0,0,1,.09-.34l2.37-1.39a.25.25,0,0,1,.25.43L320.05,312A.31.31,0,0,1,319.92,312.05Z" transform="translate(-267.19 -34.57)"/><path class="cls-95" d="M326.7,316a.25.25,0,0,1-.22-.12.26.26,0,0,1,.09-.35l2.37-1.39a.25.25,0,0,1,.34.09.26.26,0,0,1-.09.35l-2.36,1.39A.31.31,0,0,1,326.7,316Z" transform="translate(-267.19 -34.57)"/><path class="cls-95" d="M333.48,319.85a.26.26,0,0,1-.22-.13.25.25,0,0,1,.09-.34l2.37-1.39a.25.25,0,1,1,.25.43l-2.36,1.39A.33.33,0,0,1,333.48,319.85Z" transform="translate(-267.19 -34.57)"/><path class="cls-95" d="M340.26,323.74a.25.25,0,0,1-.22-.12.25.25,0,0,1,.09-.34l2.37-1.4a.25.25,0,0,1,.34.09.26.26,0,0,1-.09.35l-2.37,1.39A.27.27,0,0,1,340.26,323.74Z" transform="translate(-267.19 -34.57)"/><path class="cls-95" d="M347,327.64a.26.26,0,0,1-.22-.13.25.25,0,0,1,.09-.34l2.37-1.39a.25.25,0,1,1,.25.43l-2.37,1.39A.19.19,0,0,1,347,327.64Z" transform="translate(-267.19 -34.57)"/><path class="cls-95" d="M353.82,331.53a.25.25,0,0,1-.22-.12.25.25,0,0,1,.09-.34l2.37-1.39a.24.24,0,0,1,.34.08.26.26,0,0,1-.09.35l-2.37,1.39Z" transform="translate(-267.19 -34.57)"/><path class="cls-95" d="M360.6,335.43a.26.26,0,0,1-.22-.13.25.25,0,0,1,.09-.34l2.37-1.39a.25.25,0,1,1,.25.43l-2.37,1.39A.19.19,0,0,1,360.6,335.43Z" transform="translate(-267.19 -34.57)"/><path class="cls-95" d="M367.38,339.32a.25.25,0,0,1-.22-.12.25.25,0,0,1,.09-.34l2.37-1.39a.25.25,0,0,1,.34.08.26.26,0,0,1-.09.35l-2.37,1.39Z" transform="translate(-267.19 -34.57)"/><path d="M431.23,316.5h0a6.54,6.54,0,0,0-7-.26L385,339.08a2.76,2.76,0,0,0-.17,4.65h0a7.2,7.2,0,0,0,7.68.29l38.52-22.44A3,3,0,0,0,431.23,316.5Z" transform="translate(-267.19 -34.57)"/><path class="cls-96" d="M431.23,315.36h0a6.54,6.54,0,0,0-7-.26L385,337.94a2.76,2.76,0,0,0-.17,4.65h0a7.18,7.18,0,0,0,7.68.28l38.52-22.43A3,3,0,0,0,431.23,315.36Z" transform="translate(-267.19 -34.57)"/><path d="M418.8,328.3l-8-5.48a2.3,2.3,0,0,0-2.47-.09l-9.73,5.67a1,1,0,0,0-.06,1.6l8,5.48a2.3,2.3,0,0,0,2.46.09l9.74-5.67A.94.94,0,0,0,418.8,328.3Z" transform="translate(-267.19 -34.57)"/><path class="cls-97" d="M418.8,327.68l-8-5.49a2.32,2.32,0,0,0-2.47-.08l-9.73,5.66a1,1,0,0,0-.06,1.61l8,5.48A2.3,2.3,0,0,0,409,335l9.74-5.67A.94.94,0,0,0,418.8,327.68Z" transform="translate(-267.19 -34.57)"/><path class="cls-98" d="M398.52,328.82l8,5.48a2.28,2.28,0,0,0,2.46.09l9.74-5.66a1,1,0,0,0,.42-.54.93.93,0,0,1-.42,1.09L409,335a2.3,2.3,0,0,1-2.46-.09l-8-5.48a1,1,0,0,1-.37-1.07A.93.93,0,0,0,398.52,328.82Z" transform="translate(-267.19 -34.57)"/><polygon class="cls-99" points="159.21 289.69 159.21 288.52 151.69 283.64 151.17 283.91 158.58 288.83 158.58 290.04 159.21 289.69"/><polygon points="158.86 289.97 158.86 288.8 151.35 283.91 150.83 284.19 158.24 289.11 158.24 290.32 158.86 289.97"/><polygon class="cls-100" points="131.65 305.69 131.65 304.51 124.13 299.63 123.61 299.91 131.02 304.82 131.02 306.04 131.65 305.69"/><polygon points="131.3 305.97 131.3 304.79 123.79 299.91 123.27 300.19 130.68 305.1 130.68 306.31 131.3 305.97"/><path class="cls-101" d="M413.31,327.75l-3.41-2.35a1.6,1.6,0,0,0-1.71-.07l-4.3,2.51a.78.78,0,0,0-.05,1.32l3.4,2.35a1.6,1.6,0,0,0,1.72.06l4.3-2.5A.79.79,0,0,0,413.31,327.75Z" transform="translate(-267.19 -34.57)"/><path class="cls-102" d="M446.21,322.18c-.09,1.55-1.08,3-3,4.14L422,338.52l2.62,1.89,18.55-10.69c2-1.16,3-2.7,3-4.31C446.23,325.28,446.22,322.84,446.21,322.18Z" transform="translate(-267.19 -34.57)"/><path class="cls-103" d="M350.43,340l-62.8-36.21c-3.17-1.83-4.6-4.24-4.2-6.42a1.31,1.31,0,0,0-.07.48c0,.14,0,3.85,0,4,.17,1.87,1.6,3.81,4.26,5.35l65,37.47Z" transform="translate(-267.19 -34.57)"/><path class="cls-104" d="M474.49,181c6.17,3.57,11.18.71,11.18-6.38s-5-15.72-11.18-19.29-11.19-.71-11.19,6.38S468.31,177.45,474.49,181ZM512,177.49c-10.2-5.89-17.46,37.88-28.84,31.31s-15.5-26.07-24.53-31.28c-6.24-3.6-13.38,22.11-18.44,26V204l95.55,55.16v-1.07C527.93,244.1,519.87,182,512,177.49Zm20.54,2.4v1.32l-18.63-11v-1.72l-3.83-2.22V168l-14.53-8.56v-1l-3.51-2v4l3.51,2v-1.84l13.9,8.19a5.68,5.68,0,0,0-1.78.25c-3.65,1.12-6.42,5.75-8.85,10.71l-1.66-1a.5.5,0,0,0-.5,0,.5.5,0,0,0-.25.43v4.4a.5.5,0,0,0,.25.43l3.83,2.21a.59.59,0,0,0,.25.07.52.52,0,0,0,.25-.07.48.48,0,0,0,.25-.43v-4.4A.48.48,0,0,0,501,181l-1.3-.75c2.24-4.57,5-9.24,8.28-10.26a4.85,4.85,0,0,1,2.11-.16v.88l3.83,2.21v-1.17c3,2.72,7.35,9.33,9.89,19.87L522.7,191a.5.5,0,0,0-.5,0,.5.5,0,0,0-.25.43v4.39a.52.52,0,0,0,.25.44l3.83,2.21a.57.57,0,0,0,.25.06.51.51,0,0,0,.25-.06.5.5,0,0,0,.25-.44v-4.39a.48.48,0,0,0-.25-.43L525,192.3c-2-8.7-5.42-15.57-8.67-19.47l16.21,9.54v1.54l3.51,2v-4Zm-32.3,1.82V185l-2.83-1.63v-3.24Zm25.5,12.17v3.24L523,195.48v-3.23Z" transform="translate(-267.19 -34.57)"/><ellipse class="cls-105" cx="472.99" cy="168.69" rx="9.1" ry="15.77" transform="translate(-287.67 227.2) rotate(-30.31)"/><path class="cls-106" d="M438.73,204.48l95.55,55.16v-1.07c-7.85-14-15.91-76.06-23.74-80.58-10.2-5.89-17.46,37.88-28.84,31.31S466.2,183.23,457.17,178c-6.24-3.6-13.38,22.11-18.44,26Z" transform="translate(-267.19 -34.57)"/><path class="cls-107" d="M531.08,180.39v1.32l-18.63-11V169l-3.83-2.22v1.69l-14.53-8.56v-1l-3.51-2v4l3.51,2v-1.84l13.9,8.19a5.68,5.68,0,0,0-1.78.25c-3.65,1.12-6.42,5.75-8.85,10.71l-1.66-1a.5.5,0,0,0-.5,0,.5.5,0,0,0-.25.43v4.4a.5.5,0,0,0,.25.43l3.83,2.21a.59.59,0,0,0,.25.07.52.52,0,0,0,.25-.07.48.48,0,0,0,.25-.43v-4.4a.48.48,0,0,0-.25-.43l-1.3-.75c2.24-4.57,5-9.24,8.28-10.26a4.85,4.85,0,0,1,2.11-.16v.88l3.83,2.21v-1.17c3,2.72,7.35,9.33,9.89,19.87l-1.14-.66a.5.5,0,0,0-.5,0,.5.5,0,0,0-.25.43v4.39a.52.52,0,0,0,.25.44l3.83,2.21a.57.57,0,0,0,.25.06.51.51,0,0,0,.25-.06.5.5,0,0,0,.25-.44v-4.39a.48.48,0,0,0-.25-.43l-1.49-.86c-2-8.7-5.42-15.57-8.67-19.47l16.21,9.54v1.54l3.51,2v-4Zm-32.3,5.06L496,183.82v-3.24l2.83,1.63Zm25.5,12.17L521.45,196v-3.23l2.83,1.63Z" transform="translate(-267.19 -34.57)"/><path class="cls-108" d="M341.8,298.69a13.79,13.79,0,0,1-6.78-1.63c-1.91-1.1-3-2.6-3-4.21s1-3.07,2.92-4.15a13.55,13.55,0,0,1,6.7-1.61,13.79,13.79,0,0,1,6.78,1.63c1.91,1.1,3,2.59,3,4.2s-1,3.07-2.92,4.16A13.58,13.58,0,0,1,341.8,298.69Zm-.12-10.6a12.6,12.6,0,0,0-6.2,1.47c-1.56.9-2.42,2.07-2.42,3.29s.87,2.43,2.46,3.34a13.85,13.85,0,0,0,12.48,0c1.56-.91,2.42-2.08,2.42-3.3s-.87-2.42-2.46-3.34A12.82,12.82,0,0,0,341.68,288.09Z" transform="translate(-267.19 -34.57)"/><path class="cls-109" d="M353,321.07l-.88-.31-.05-.3c-.19-1.23-1.92-3.71-3.59-6.1-2.46-3.5-5-7.12-4.55-9.16a1.79,1.79,0,0,1,.89-1.19c2.44-1.41,6-1.36,9.87-1.3,4.2.06,8.53.12,11.7-1.7a1.9,1.9,0,0,0,1-1.24c.49-2.17-2.3-6.2-4.54-9.43a.5.5,0,1,1,.82-.57c2.48,3.57,5.28,7.62,4.69,10.22a2.83,2.83,0,0,1-1.43,1.88c-3.4,2-7.88,1.9-12.22,1.84-3.67-.06-7.15-.11-9.35,1.16a.79.79,0,0,0-.41.55c-.35,1.6,2.27,5.35,4.38,8.37,1.75,2.48,3.27,4.66,3.68,6.14l43.35-25a.49.49,0,0,1,.68.18.51.51,0,0,1-.18.69Z" transform="translate(-267.19 -34.57)"/><path class="cls-110" d="M364.59,288.3c-.79.42-3.24,1-3.66.25s1.34-2.67,2.13-3.09a1.61,1.61,0,1,1,1.53,2.84Z" transform="translate(-267.19 -34.57)"/><path class="cls-111" d="M378.48,285.32c4.16-2.18-1.4-12.89-5.94-10.26S363,284.5,363,284.5h0a2.26,2.26,0,0,0-.09,2.77,2.15,2.15,0,0,0,2.36,1.45h0S374.33,287.51,378.48,285.32Z" transform="translate(-267.19 -34.57)"/><path class="cls-112" d="M409.39,268.29l-5.69-10.56L372.46,275h0l0,0c-1.7.91-1.8,4-.23,6.93s4.22,4.54,5.92,3.62l0,0h0Z" transform="translate(-267.19 -34.57)"/><path class="cls-113" d="M409.37,268.3c-1.7.91-4.35-.71-5.92-3.62s-1.47-6,.23-6.94,4.35.71,5.92,3.63S411.07,267.38,409.37,268.3Z" transform="translate(-267.19 -34.57)"/><path class="cls-114" d="M453.66,243.29l-4.61-8.55-45.42,23.1h0l-.05,0c-1.69.91-1.8,4-.23,6.93s4.22,4.54,5.92,3.63l0,0h0Z" transform="translate(-267.19 -34.57)"/><path class="cls-115" d="M453.64,243.3c-1.37.74-3.52-.57-4.79-2.94s-1.19-4.87.18-5.61,3.52.57,4.8,2.93S455,242.56,453.64,243.3Z" transform="translate(-267.19 -34.57)"/><path class="cls-116" d="M449.05,240.33c-1.28-2.37-1.19-4.88.18-5.62l.1,0a1.42,1.42,0,0,0-.45.16c-1.38.74-1.46,3.25-.19,5.61s3.32,3.61,4.7,3C452,243.71,450.19,242.44,449.05,240.33Z" transform="translate(-267.19 -34.57)"/><path class="cls-117" d="M411.33,315.59,371.83,292a4.64,4.64,0,0,0-.47-.24,65.65,65.65,0,0,0-9.12-3.87h0c-.63-.21-1,0-.79.72a3.46,3.46,0,0,0,1.37,2h0s5.84,4.83,9.62,7.34a3.8,3.8,0,0,0,.64.46l0,0h0l39.67,23.8Z" transform="translate(-267.19 -34.57)"/><path class="cls-118" d="M384.07,300.66l-17.72-10.57-.21-.11a29.11,29.11,0,0,0-4.09-1.73h0c-.28-.09-.14.86.26,1.23h0s2.62,2.17,4.32,3.29a2.55,2.55,0,0,0,.28.21h0l17.79,10.68Z" transform="translate(-267.19 -34.57)"/><path class="cls-119" d="M446.43,238.62c.66,1.24-9.39,7.84-19.26,13s-18.38,8.37-19,7.12,6.81-6.45,16.68-11.63S445.78,237.37,446.43,238.62Z" transform="translate(-267.19 -34.57)"/><rect class="cls-120" x="370.59" y="268.68" width="32.54" height="3.5" rx="1.25" transform="translate(-349.4 183.26) rotate(-28.56)"/><rect class="cls-121" x="374.11" y="270.81" width="19.06" height="2.59" rx="0.92" transform="translate(-350.6 181.92) rotate(-28.56)"/><path class="cls-122" d="M392,267.56a1.23,1.23,0,0,0-.48-.48,1.81,1.81,0,0,1,.18.21,1.31,1.31,0,0,1-.52,1.76l-14.46,7.87a1.3,1.3,0,0,1-1.28,0,1.27,1.27,0,0,0,1.58.3l14.46-7.87A1.29,1.29,0,0,0,392,267.56Z" transform="translate(-267.19 -34.57)"/><path class="cls-123" d="M446.33,236.12l-72.94,38.7a5.46,5.46,0,0,0-.51.37c-4.37,2.84-9.33,8.67-9.33,8.67h0a2.26,2.26,0,0,0-.09,2.77,2.15,2.15,0,0,0,2.36,1.45h0s7.58-1,12.05-2.86a2.14,2.14,0,0,0,.79-.24l0,0h0l72.17-40.49Z" transform="translate(-267.19 -34.57)"/><path class="cls-124" d="M375.44,277.74c3.7-2.91,2-5.33-2.07-2.05s-9.54,8.71-9.54,8.71h0c-.63.6-.93,1.07-.73,1.33s.52.16,1.46-.41h0S371.75,280.64,375.44,277.74Z" transform="translate(-267.19 -34.57)"/><path class="cls-125" d="M377.14,285.13c3.86-1.15,3.51-2.88-.79-1.57s-10.42,3.71-10.42,3.71h0c-.7.26-1.1.49-1,.68s.33.18,1.24,0h0S373.29,286.28,377.14,285.13Z" transform="translate(-267.19 -34.57)"/><polygon class="cls-126" points="230.11 65.97 145.88 17.18 115.24 35.37 115.24 64.08 199.4 112.76 199.4 112.77 199.41 112.77 199.43 112.77 199.43 112.76 230.11 94.68 230.11 65.97"/><g class="cls-27"><polygon class="cls-127" points="199.4 84.23 199.4 112.77 207.68 108 207.68 79.29 199.4 84.23"/><polygon class="cls-128" points="199.43 84.23 199.43 112.77 115.24 64.08 115.24 35.37 199.43 84.23"/><polygon class="cls-129" points="115.24 35.37 199.43 84.23 207.68 79.29 123.45 30.5 115.24 35.37"/></g><polygon class="cls-130" points="130.7 68.3 121 62.7 121 43.72 130.7 49.32 130.7 68.3"/><polygon class="cls-131" points="143.41 75.64 133.71 70.04 133.71 51.05 143.41 56.66 143.41 75.64"/><polygon class="cls-132" points="156.12 82.98 146.43 77.38 146.43 58.39 156.12 63.99 156.12 82.98"/><polygon class="cls-133" points="168.83 90.32 159.13 84.72 159.13 65.73 168.83 71.33 168.83 90.32"/><polygon class="cls-134" points="181.54 97.66 171.85 92.06 171.85 73.07 181.54 78.67 181.54 97.66"/><polygon class="cls-135" points="194.26 105 184.56 99.39 184.56 80.41 194.26 86.01 194.26 105"/><path class="cls-136" d="M303.62,324.35l-26.9-15.51c-6.05-3.5-9.53-8.89-9.53-14.8,0-5.52,3-10.43,8.27-13.46L363,230.25l.49.87L276,281.44c-4.93,2.85-7.77,7.45-7.77,12.6,0,5.54,3.29,10.62,9,13.93l26.9,15.51Z" transform="translate(-267.19 -34.57)"/></g></g></svg>