<svg xmlns="http://www.w3.org/2000/svg" xmlns:xlink="http://www.w3.org/1999/xlink" viewBox="0 0 750 500"><defs><style>.cls-1,.cls-15,.cls-6{fill:none;}.cls-2{fill:#ff530e;}.cls-3{isolation:isolate;}.cls-4{fill:url(#Degradado_sin_nombre_58);}.cls-5{clip-path:url(#clip-path);}.cls-15,.cls-6{stroke:#ff530e;stroke-width:0.97px;}.cls-6{stroke-linecap:round;stroke-linejoin:round;}.cls-7{opacity:0.3;}.cls-108,.cls-115,.cls-14,.cls-16,.cls-17,.cls-20,.cls-21,.cls-7{mix-blend-mode:overlay;}.cls-104,.cls-20,.cls-21,.cls-8{fill:#fff;}.cls-9{fill:#dedede;}.cls-10{fill:#722200;}.cls-11{clip-path:url(#clip-path-2);}.cls-12{fill:#09b5ed;}.cls-13{fill:url(#linear-gradient);}.cls-14{opacity:0.58;}.cls-15{stroke-miterlimit:10;}.cls-16{opacity:0.46;}.cls-18{fill:url(#Degradado_sin_nombre_6);}.cls-19{fill:url(#Degradado_sin_nombre_6-2);}.cls-21{opacity:0.49;}.cls-22{clip-path:url(#clip-path-3);}.cls-23{fill:#2d2d2d;}.cls-24{fill:#2f2f2f;}.cls-25{fill:#303030;}.cls-26{fill:#313131;}.cls-27{fill:#323232;}.cls-28{fill:#343434;}.cls-29{fill:#353535;}.cls-30{fill:#363636;}.cls-31{fill:#373737;}.cls-32{fill:#393939;}.cls-33{fill:#3a3a3a;}.cls-34{fill:#3b3b3b;}.cls-35{fill:#3c3c3c;}.cls-36{fill:#3e3e3e;}.cls-37{fill:#3f3f3f;}.cls-38{fill:#565656;}.cls-39{fill:#606060;}.cls-40{fill:#676767;}.cls-41{fill:#6d6d6d;}.cls-42{fill:#737373;}.cls-43{clip-path:url(#clip-path-4);}.cls-44{fill:#1f1f1f;}.cls-45{fill:#2b2b2b;}.cls-46{fill:#3d3d3d;}.cls-47{fill:#444;}.cls-48{clip-path:url(#clip-path-5);}.cls-49{fill:#2c2c2c;}.cls-50{fill:#2a2a2a;}.cls-51{fill:#282828;}.cls-52{fill:#272727;}.cls-53{fill:#262626;}.cls-54{fill:#252525;}.cls-55{fill:#232323;}.cls-56{fill:#222;}.cls-57{fill:#212121;}.cls-58{clip-path:url(#clip-path-6);}.cls-59{clip-path:url(#clip-path-7);}.cls-60{fill:#b3b3b3;}.cls-61{fill:#b1b1b0;}.cls-62{fill:#afafae;}.cls-63{fill:#adadac;}.cls-64{fill:#abaaaa;}.cls-65{fill:#a8a8a8;}.cls-66{fill:#a6a6a6;}.cls-67{fill:#a4a4a4;}.cls-68{fill:#a2a2a1;}.cls-69{fill:#9e9da2;}.cls-70{fill:#9e9e9d;}.cls-71{clip-path:url(#clip-path-8);}.cls-72{clip-path:url(#clip-path-9);}.cls-73{clip-path:url(#clip-path-10);}.cls-74{clip-path:url(#clip-path-11);}.cls-75{clip-path:url(#clip-path-12);}.cls-76{fill:#b5b5b5;}.cls-77{fill:#b7b7b7;}.cls-78{fill:#b9b9b9;}.cls-79{fill:#bbb;}.cls-80{clip-path:url(#clip-path-13);}.cls-81{clip-path:url(#clip-path-14);}.cls-82{clip-path:url(#clip-path-15);}.cls-83{fill:#bdbdbd;}.cls-84{fill:#bfbfbf;}.cls-85{fill:#c1c1c1;}.cls-86{fill:#c3c3c3;}.cls-87{fill:#c5c5c5;}.cls-88{fill:#c7c7c7;}.cls-89{fill:#c9c9c9;}.cls-90{fill:#cbcbcb;}.cls-91{fill:#cbccd1;}.cls-92{fill:#cfcfcf;}.cls-93{fill:#b8b8b8;}.cls-94{clip-path:url(#clip-path-16);}.cls-95{clip-path:url(#clip-path-17);}.cls-96{clip-path:url(#clip-path-18);}.cls-97{clip-path:url(#clip-path-19);}.cls-98{clip-path:url(#clip-path-20);}.cls-99{fill:url(#radial-gradient);}.cls-100{clip-path:url(#clip-path-21);}.cls-101{clip-path:url(#clip-path-22);}.cls-102{clip-path:url(#clip-path-23);}.cls-103{clip-path:url(#clip-path-24);}.cls-104{opacity:0.27;}.cls-105{opacity:0.6;}.cls-106{fill:#ea750a;}.cls-107{fill:#f2f4f3;}.cls-108{opacity:0.24;}.cls-109{fill:url(#Degradado_sin_nombre_41);}.cls-110{fill:url(#linear-gradient-2);}.cls-111{fill:url(#linear-gradient-3);}.cls-112{fill:url(#linear-gradient-4);}.cls-113{fill:url(#linear-gradient-5);}.cls-114{clip-path:url(#clip-path-25);}.cls-115{opacity:0.68;}.cls-116{fill:url(#Degradado_sin_nombre_52);}.cls-117{opacity:0.65;}.cls-118{opacity:0.4;}.cls-119{fill:#e04700;}.cls-120{fill:#531a00;}.cls-121{fill:#efb488;}.cls-122{fill:#e3e4e8;}.cls-123{fill:#b2b2b5;}.cls-124{fill:#eaebee;}.cls-125{fill:url(#linear-gradient-6);}.cls-126{fill:url(#linear-gradient-7);}</style><radialGradient id="Degradado_sin_nombre_58" cx="375" cy="250" r="427.23" gradientTransform="translate(0 58.59) scale(1 0.77)" gradientUnits="userSpaceOnUse"><stop offset="0" stop-color="#fff"/><stop offset="0.25" stop-color="#f3f3f3"/><stop offset="0.72" stop-color="#d2d2d2"/><stop offset="1" stop-color="#bbb"/></radialGradient><clipPath id="clip-path"><rect class="cls-1" x="71.62" y="54.15" width="603.14" height="385.53"/></clipPath><clipPath id="clip-path-2"><path class="cls-2" d="M363.49,231.71a.69.69,0,0,1,.11.13.65.65,0,0,1,.11.34l0,6.78c0,.78-.69,1-1.55.53a3.07,3.07,0,0,1-1.54-2.32c0-.79.69-1,1.55-.53a3.29,3.29,0,0,1,.93.82v-3.05l-5-1.6v4.35c0,.78-.7,1-1.56.53a3.1,3.1,0,0,1-1.54-2.32c0-.79.7-1,1.55-.53a3.33,3.33,0,0,1,.93.83l0-5.64c0-.17.1-.26.24-.21l5.59,1.8a.6.6,0,0,1,.11.06Z"/></clipPath><linearGradient id="linear-gradient" x1="396.43" y1="270.85" x2="378.06" y2="312.2" gradientUnits="userSpaceOnUse"><stop offset="0.01" stop-color="#ff530e"/><stop offset="0.23" stop-color="#cf4209"/><stop offset="0.44" stop-color="#a73405"/><stop offset="0.64" stop-color="#8a2a02"/><stop offset="0.81" stop-color="#782401"/><stop offset="0.93" stop-color="#722200"/></linearGradient><linearGradient id="Degradado_sin_nombre_6" x1="481.97" y1="108.65" x2="481.97" y2="216.44" gradientUnits="userSpaceOnUse"><stop offset="0" stop-color="#fff" stop-opacity="0"/><stop offset="0.2" stop-color="#fff" stop-opacity="0.18"/><stop offset="0.64" stop-color="#fff" stop-opacity="0.63"/><stop offset="1" stop-color="#fff"/></linearGradient><linearGradient id="Degradado_sin_nombre_6-2" x1="481.97" y1="96.07" x2="481.97" y2="194.59" xlink:href="#Degradado_sin_nombre_6"/><clipPath id="clip-path-3"><path class="cls-1" d="M448.76,325.27l-3.58,2.08a18.27,18.27,0,0,1-6.34-6.69l3.58-2.08-3.58,2.08a18.12,18.12,0,0,1-2.61-8.8l3.58-2.09C439.8,315.46,443.81,322.41,448.76,325.27Z"/></clipPath><clipPath id="clip-path-4"><path class="cls-1" d="M441.82,310.94a15.37,15.37,0,0,0,4.23,9.82l-3.58,2.09a15.37,15.37,0,0,1-4.23-9.83Z"/></clipPath><clipPath id="clip-path-5"><path class="cls-1" d="M510.29,360.8c2.49,1.43,4.75,1.57,6.39.62l-3.59,2.08,0,0,3.58-2.08-3.58,2.08c-1.63.93-3.88.79-6.35-.64Z"/></clipPath><clipPath id="clip-path-6"><path class="cls-1" d="M515.26,359l-3.58,2.09c-1.27.73-3,.63-5-.49l3.58-2.08C512.24,359.61,514,359.71,515.26,359Z"/></clipPath><clipPath id="clip-path-7"><path class="cls-1" d="M515.26,359l-3.58,2.09c1.25-.73,2-2.27,2-4.47l3.58-2.08C517.29,356.7,516.51,358.25,515.26,359Z"/></clipPath><clipPath id="clip-path-8"><path class="cls-1" d="M516.68,361.42l-3.59,2.08c1.61-.94,2.62-2.93,2.62-5.75l3.59-2.08C519.29,358.49,518.29,360.48,516.68,361.42Z"/></clipPath><clipPath id="clip-path-9"><path class="cls-1" d="M518.1,363.87,514.52,366c2-1.15,3.19-3.58,3.2-7l3.58-2.09C521.29,360.28,520.07,362.72,518.1,363.87Z"/></clipPath><clipPath id="clip-path-10"><path class="cls-1" d="M439.35,131.65l3.58-2.08c-1.61.94-2.61,2.93-2.62,5.75l-3.59,2.09C436.73,134.58,437.73,132.59,439.35,131.65Z"/></clipPath><clipPath id="clip-path-11"><path class="cls-1" d="M440.77,134.09l3.58-2.08c-1.25.73-2,2.27-2,4.47l-3.59,2.09C438.74,136.37,439.52,134.82,440.77,134.09Z"/></clipPath><clipPath id="clip-path-12"><path class="cls-1" d="M440.77,134.09l3.58-2.08c1.27-.74,3-.63,5,.49l-3.59,2.08C443.79,133.46,442,133.36,440.77,134.09Z"/></clipPath><clipPath id="clip-path-13"><path class="cls-1" d="M439.35,131.65l3.58-2.08c1.63-.95,3.89-.82,6.38.62l-3.58,2.08C443.24,130.84,441,130.71,439.35,131.65Z"/></clipPath><clipPath id="clip-path-14"><path class="cls-1" d="M437.92,129.2l3.59-2.08c2-1.16,4.76-1,7.81.77L445.74,130C442.68,128.21,439.92,128,437.92,129.2Z"/></clipPath><clipPath id="clip-path-15"><path class="cls-1" d="M455.21,144.05l3.58-2.08a9.11,9.11,0,0,0,4.14,7.17l-3.58,2.08A9.09,9.09,0,0,1,455.21,144.05Z"/></clipPath><clipPath id="clip-path-16"><path class="cls-1" d="M453.38,139l3.59-2.08a4,4,0,0,1,1.83,3.17l-3.59,2.08A4.05,4.05,0,0,0,453.38,139Z"/></clipPath><clipPath id="clip-path-17"><path class="cls-1" d="M500.13,169.2l-3.59,2.08a2.91,2.91,0,0,1-3-.29l3.58-2.08A2.93,2.93,0,0,0,500.13,169.2Z"/></clipPath><clipPath id="clip-path-18"><path class="cls-1" d="M500.13,169.2l-3.59,2.08a2.88,2.88,0,0,0,1.21-2.66l3.59-2.09A2.94,2.94,0,0,1,500.13,169.2Z"/></clipPath><clipPath id="clip-path-19"><path class="cls-1" d="M498.29,165.56l3.59-2.09a1.3,1.3,0,0,0-.54,1.18l-3.58,2.08A1.27,1.27,0,0,1,498.29,165.56Z"/></clipPath><clipPath id="clip-path-20"><path class="cls-1" d="M498.29,165.56l3.59-2.09a1.31,1.31,0,0,1,1.3.13l-3.58,2.08A1.29,1.29,0,0,0,498.29,165.56Z"/></clipPath><radialGradient id="radial-gradient" cx="443.48" cy="210.06" r="226.68" xlink:href="#linear-gradient"/><clipPath id="clip-path-21"><path class="cls-1" d="M507.26,170.1a15.34,15.34,0,0,1,6.94,12l-.49,174.45c0,4.42-3.15,6.2-7,4L445.18,325a15.29,15.29,0,0,1-6.94-12l.49-174.45c0-4.43,3.14-6.21,7-4l7.66,4.42a4.05,4.05,0,0,1,1.83,3.17v1.88a9.09,9.09,0,0,0,4.14,7.17L493.59,171c2.29,1.33,4.16.26,4.16-2.37v-1.89c0-1.16.82-1.63,1.84-1Z"/></clipPath><clipPath id="clip-path-22"><path class="cls-1" d="M507.26,170.1l3.58-2.08a15.31,15.31,0,0,1,6.95,12l-3.59,2.09A15.34,15.34,0,0,0,507.26,170.1Z"/></clipPath><clipPath id="clip-path-23"><path class="cls-1" d="M507.26,167.8l3.59-2.08c4.95,2.85,9,9.81,8.94,15.49l-3.58,2.09C516.22,177.61,512.21,170.66,507.26,167.8Z"/></clipPath><clipPath id="clip-path-24"><path class="cls-1" d="M507.27,165.5l3.58-2.09c6.07,3.5,11,12,10.95,19l-3.59,2.08C518.23,177.48,513.33,169,507.27,165.5Z"/></clipPath><radialGradient id="Degradado_sin_nombre_41" cx="448.55" cy="151.02" r="111.57" gradientUnits="userSpaceOnUse"><stop offset="0" stop-color="#fff" stop-opacity="0"/><stop offset="1" stop-color="#fff"/></radialGradient><linearGradient id="linear-gradient-2" x1="558.07" y1="326.91" x2="533.16" y2="369.96" gradientUnits="userSpaceOnUse"><stop offset="0.01" stop-color="#ff530e"/><stop offset="0.16" stop-color="#cf4209"/><stop offset="0.3" stop-color="#a73405"/><stop offset="0.44" stop-color="#8a2a02"/><stop offset="0.55" stop-color="#782401"/><stop offset="0.64" stop-color="#722200"/></linearGradient><linearGradient id="linear-gradient-3" x1="576.6" y1="337.64" x2="551.7" y2="380.68" gradientUnits="userSpaceOnUse"><stop offset="0.01" stop-color="#ff530e"/><stop offset="0.14" stop-color="#cf4209"/><stop offset="0.28" stop-color="#a73405"/><stop offset="0.4" stop-color="#8a2a02"/><stop offset="0.5" stop-color="#782401"/><stop offset="0.58" stop-color="#722200"/></linearGradient><linearGradient id="linear-gradient-4" x1="583.88" y1="341.85" x2="558.97" y2="384.89" gradientUnits="userSpaceOnUse"><stop offset="0.01" stop-color="#ff530e"/><stop offset="0.13" stop-color="#cf4209"/><stop offset="0.26" stop-color="#a73405"/><stop offset="0.38" stop-color="#8a2a02"/><stop offset="0.47" stop-color="#782401"/><stop offset="0.55" stop-color="#722200"/></linearGradient><linearGradient id="linear-gradient-5" x1="540.39" y1="316.68" x2="515.48" y2="359.73" gradientUnits="userSpaceOnUse"><stop offset="0.01" stop-color="#ff530e"/><stop offset="0.07" stop-color="#cf4209"/><stop offset="0.12" stop-color="#a73405"/><stop offset="0.18" stop-color="#8a2a02"/><stop offset="0.22" stop-color="#782401"/><stop offset="0.25" stop-color="#722200"/></linearGradient><clipPath id="clip-path-25"><path class="cls-1" d="M544.21,239.07a8,8,0,0,1,3.59,6.23l0,17.74c0,2.29-1.62,3.22-3.61,2.07l-7.54-4.35a7.93,7.93,0,0,1-3.6-6.24l0-17.74c0-2.28,1.63-3.21,3.63-2.06Z"/></clipPath><linearGradient id="Degradado_sin_nombre_52" x1="378.84" y1="411.34" x2="459.77" y2="332.67" gradientUnits="userSpaceOnUse"><stop offset="0" stop-color="#00d0ff"/><stop offset="1" stop-color="#00d0ff" stop-opacity="0.2"/></linearGradient><linearGradient id="linear-gradient-6" x1="397.48" y1="240.85" x2="427.69" y2="240.85" gradientUnits="userSpaceOnUse"><stop offset="0" stop-color="#722200"/><stop offset="1" stop-color="#b33900"/></linearGradient><linearGradient id="linear-gradient-7" x1="412.91" y1="236.61" x2="423.74" y2="236.61" gradientUnits="userSpaceOnUse"><stop offset="0" stop-color="#ff530e" stop-opacity="0"/><stop offset="0.99" stop-color="#722200"/></linearGradient></defs><g class="cls-3"><g id="Background"><rect class="cls-4" width="750" height="500"/></g><g id="Objects"><g class="cls-5"><polyline class="cls-6" points="431.58 136.11 377.66 104.83 377.66 114.02"/><line class="cls-6" x1="418.53" y1="128.77" x2="418.53" y2="138.24"/><g class="cls-7"><path class="cls-8" d="M422.45,142.28c4.87,2.81,8.81,9.63,8.79,15.23s-4,7.85-8.85,5-8.8-9.63-8.79-15.23S417.58,139.46,422.45,142.28Z"/></g><path class="cls-8" d="M418.34,146.14c4.87,2.82,8.81,9.64,8.79,15.24s-4,7.85-8.85,5-8.8-9.63-8.79-15.23S413.46,143.33,418.34,146.14Z"/><path class="cls-2" d="M418.68,154.32a1,1,0,0,1,.25.22l2.38,3a1,1,0,0,1,.25.64v2.92c0,.32-.22.45-.5.29l-4.77-2.76a1.08,1.08,0,0,1-.49-.86v-2.92c0-.2.09-.33.25-.35l2.38-.2A.39.39,0,0,1,418.68,154.32Z"/><path class="cls-2" d="M418.69,151.68a.92.92,0,0,1,.28.25l3.8,4.72a.89.89,0,0,1,.19,1c-.1.14-.28.15-.47,0a1,1,0,0,1-.27-.24l-3.25-4a1.2,1.2,0,0,0-.28-.24.46.46,0,0,0-.28-.08l-3.32.28a.43.43,0,0,1-.28-.07,1.26,1.26,0,0,1-.47-.58c-.15-.39-.06-.72.21-.74l3.86-.34A.45.45,0,0,1,418.69,151.68Z"/><g class="cls-7"><path class="cls-8" d="M422.45,196.44c4.87,2.82,8.81,9.64,8.79,15.24s-4,7.85-8.85,5-8.8-9.63-8.79-15.23S417.58,193.63,422.45,196.44Z"/></g><path class="cls-8" d="M418.34,196.75c4.87,2.81,8.81,9.63,8.79,15.23s-4,7.86-8.85,5-8.8-9.63-8.79-15.22S413.46,193.94,418.34,196.75Z"/><path class="cls-2" d="M419.3,203.39a2.91,2.91,0,0,1,1.32,2.28c0,.84-.6,1.18-1.33.75a2.33,2.33,0,0,1-.68-.62l-2,.24c0,.05,0,.09,0,.13s0,.13,0,.19l1.78,2.28a1,1,0,0,1,.87.12,2.92,2.92,0,0,1,1.32,2.29c0,.83-.6,1.17-1.33.75a2.91,2.91,0,0,1-1.32-2.28,1.12,1.12,0,0,1,0-.2L416.2,207a.94.94,0,0,1-.87-.11,2.87,2.87,0,0,1-1.32-2.28c0-.84.59-1.18,1.33-.76a2.78,2.78,0,0,1,.92,1l1.78-.23a2.05,2.05,0,0,1-.06-.49C418,203.3,418.57,203,419.3,203.39Z"/><g class="cls-7"><path class="cls-8" d="M422.45,169.36c4.87,2.81,8.81,9.63,8.79,15.23s-4,7.86-8.85,5-8.8-9.62-8.79-15.22S417.58,166.55,422.45,169.36Z"/></g><path class="cls-8" d="M418.34,171.45c4.87,2.81,8.81,9.63,8.79,15.23s-4,7.85-8.85,5-8.8-9.63-8.79-15.22S413.46,168.64,418.34,171.45Z"/><path class="cls-2" d="M420.64,182a1.06,1.06,0,0,1,.48.83v.62c0,.31-.21.43-.48.28l-.14-.08c-.43-.25-.64.22-.34.73l.1.18c.18.32.18.67,0,.78l-.39.22a.35.35,0,0,1-.34,0,1.18,1.18,0,0,1-.34-.36l-.1-.18a1,1,0,0,0-.33-.35c-.25-.14-.48-.06-.48.27V185c0,.3-.21.42-.47.27l-.55-.31a1.09,1.09,0,0,1-.48-.83V184a1.06,1.06,0,0,0-.48-.83.36.36,0,0,0-.33,0l-.11.06a.31.31,0,0,1-.33,0,.91.91,0,0,1-.34-.36l-.39-.66c-.18-.33-.18-.68,0-.78l.11-.06c.3-.17.09-.89-.34-1.13l-.14-.09a1,1,0,0,1-.48-.82v-.63c0-.3.22-.43.48-.27l.15.08c.42.25.64-.22.34-.74l-.1-.18c-.19-.33-.19-.67,0-.78l.39-.22a.34.34,0,0,1,.33,0,.88.88,0,0,1,.34.35l.1.18a.88.88,0,0,0,.34.35c.24.15.48.06.48-.27V177c0-.3.22-.42.48-.27l.55.32a1.06,1.06,0,0,1,.48.82v.17a1.07,1.07,0,0,0,.48.83.33.33,0,0,0,.34,0l.1-.06a.35.35,0,0,1,.34,0,1.08,1.08,0,0,1,.34.36l.38.67c.19.32.19.66,0,.77l-.1.06c-.31.18-.09.89.33,1.14Zm-3.12.54c.7.4,1.28.07,1.28-.74a2.84,2.84,0,0,0-1.27-2.21c-.71-.4-1.29-.08-1.29.74a2.82,2.82,0,0,0,1.28,2.21"/><g class="cls-7"><path class="cls-8" d="M401.38,129.41a12.06,12.06,0,0,1,5.47,9.48l-.22,74.9c0,3.49-2.47,4.89-5.5,3.14L368,197.78a12.06,12.06,0,0,1-5.47-9.48l.21-74.9c0-3.48,2.48-4.89,5.51-3.14Z"/></g><path class="cls-8" d="M393.64,138.11a12.07,12.07,0,0,1,5.47,9.48l-.21,74.91c0,3.48-2.47,4.89-5.51,3.14l-33.16-19.15a12.07,12.07,0,0,1-5.47-9.47L355,122.1c0-3.48,2.47-4.89,5.51-3.13Z"/><polygon class="cls-9" points="393.56 170.77 393.55 175.24 359 155.29 359.01 150.82 393.56 170.77"/><polygon class="cls-9" points="393.56 179.24 393.55 183.71 359 163.76 359.01 159.29 393.56 179.24"/><polygon class="cls-9" points="393.56 187.71 393.55 192.17 359 172.22 359.01 167.76 393.56 187.71"/><polygon class="cls-9" points="393.56 196.17 393.55 200.63 359 180.68 359.01 176.22 393.56 196.17"/><path class="cls-2" d="M369.22,146.43a2.56,2.56,0,0,1,.19,1,1.18,1.18,0,0,1-.19.73.71.71,0,0,1-.54.27,1.45,1.45,0,0,1-.78-.24,3,3,0,0,1-.78-.66,3.26,3.26,0,0,1-.54-.89,2.34,2.34,0,0,1-.19-.95,1.18,1.18,0,0,1,.2-.73.68.68,0,0,1,.53-.27,1.51,1.51,0,0,1,.79.25,2.82,2.82,0,0,1,.78.65A3.44,3.44,0,0,1,369.22,146.43Zm-.71.91a.75.75,0,0,0,.1-.41,1.3,1.3,0,0,0-.1-.52,1.24,1.24,0,0,0-.25-.45,1.17,1.17,0,0,0-.35-.32.6.6,0,0,0-.36-.09.32.32,0,0,0-.26.15.77.77,0,0,0-.09.42,1.58,1.58,0,0,0,.09.52,1.56,1.56,0,0,0,.26.45,1.28,1.28,0,0,0,.35.31.6.6,0,0,0,.36.1.32.32,0,0,0,.25-.16"/><polygon class="cls-2" points="366.62 143.24 365.22 145.1 365.21 146.56 364.38 146.08 364.39 144.6 363.01 141.16 363.89 141.66 364.84 144.04 365.8 142.77 366.62 143.24"/><path class="cls-2" d="M372.72,147.72v3.17l-.75-.44v-.37a.4.4,0,0,1-.27.09,1,1,0,0,1-.58-.17,2.48,2.48,0,0,1-.62-.5,2.2,2.2,0,0,1-.41-.71,2.56,2.56,0,0,1-.15-.89v-1.79l.8.46v1.66a1.49,1.49,0,0,0,.14.66,1.06,1.06,0,0,0,.42.42.56.56,0,0,0,.32.1.28.28,0,0,0,.23-.15,1,1,0,0,0,.08-.43v-1.57Z"/><path class="cls-2" d="M375.18,149.09v.84l-.09-.05-.09-.06a.6.6,0,0,0-.53-.09c-.13.06-.2.25-.2.55v1.5l-.8-.46v-3.17l.76.44V149a.43.43,0,0,1,.29-.13A1.25,1.25,0,0,1,375.18,149.09Z"/><polygon class="cls-2" points="379.9 150.91 379.9 151.69 378.75 151.02 378.74 154.37 377.91 153.89 377.92 150.54 376.78 149.88 376.78 149.11 379.9 150.91"/><path class="cls-2" d="M380.69,151.88a1,1,0,0,1-.36-.36.8.8,0,0,1-.13-.44c0-.14,0-.24.13-.28a.36.36,0,0,1,.36.06,1,1,0,0,1,.36.33.91.91,0,0,1,.14.45.31.31,0,0,1-.14.3A.42.42,0,0,1,380.69,151.88Z"/><polygon class="cls-2" points="380.28 155.26 380.29 152.09 381.09 152.55 381.08 155.72 380.28 155.26"/><path class="cls-2" d="M382.72,152.8v.77l.69.39v.71l-.69-.4v1.29a.74.74,0,0,0,.09.36.63.63,0,0,0,.25.26.48.48,0,0,0,.33.07l.2.77a.52.52,0,0,1-.29,0,1.48,1.48,0,0,1-.35-.15,2.11,2.11,0,0,1-.76-.72,1.91,1.91,0,0,1-.27-1v-1.3l-.42-.24v-.71l.42.24v-.77Z"/><polygon class="cls-2" points="384.86 153.53 384.85 157.89 384.05 157.43 384.06 153.07 384.86 153.53"/><path class="cls-2" d="M388.1,157.32a2.57,2.57,0,0,1,.19,1v.23l-2.09-1.2a1.47,1.47,0,0,0,.08.28,1.89,1.89,0,0,0,.28.47,1.62,1.62,0,0,0,.43.34,1.1,1.1,0,0,0,.38.15.46.46,0,0,0,.31-.06l.42.78a.65.65,0,0,1-.47.11,1.84,1.84,0,0,1-.67-.26,3.34,3.34,0,0,1-.82-.68,3.25,3.25,0,0,1-.55-.9,2.51,2.51,0,0,1-.19-.95,1.21,1.21,0,0,1,.19-.74.68.68,0,0,1,.53-.27,1.43,1.43,0,0,1,.75.23,2.68,2.68,0,0,1,.73.62A2.88,2.88,0,0,1,388.1,157.32Zm-1.92-.52,1.36.78a1.09,1.09,0,0,0-.08-.31,1.52,1.52,0,0,0-.24-.43,1.19,1.19,0,0,0-.36-.31.57.57,0,0,0-.35-.1.32.32,0,0,0-.25.15.63.63,0,0,0-.08.22"/><path class="cls-2" d="M377.23,117.51c5.3,3.06,9.58,10.48,9.57,16.57s-4.33,8.55-9.63,5.49-9.58-10.47-9.56-16.57S371.93,114.45,377.23,117.51Z"/><path class="cls-8" d="M377.93,127.42a4.75,4.75,0,0,1,2.15,3.72v2.7c0,.45-.32.62-.71.4l-4.88-2.81a1.56,1.56,0,0,1-.7-1.23v-2.69c0-1.37,1-1.92,2.16-1.23Z"/><path class="cls-8" d="M377,122.5a3.51,3.51,0,0,1,1.6,2.78c0,1-.72,1.44-1.61.92a3.55,3.55,0,0,1-1.61-2.78C375.33,122.4,376.06,122,377,122.5Z"/><path class="cls-10" d="M384.66,203.71a8.05,8.05,0,0,1,3.67,6.35c0,2.35-1.66,3.29-3.7,2.11L365,200.84a8.06,8.06,0,0,1-3.67-6.36c0-2.34,1.66-3.28,3.7-2.1Z"/><path class="cls-8" d="M370.77,199.72a1.12,1.12,0,0,1,.09.44c0,.24-.08.37-.23.41a1.15,1.15,0,0,1-.71-.21l-1.2-.7V197l1.15.66a2,2,0,0,1,.66.59,1,1,0,0,1,.22.63.46.46,0,0,1-.09.31.35.35,0,0,1-.22.1l.06.06A1.18,1.18,0,0,1,370.77,199.72Zm-.56.26c.07,0,.11-.08.11-.2a.53.53,0,0,0-.11-.31,1.29,1.29,0,0,0-.32-.27l-.63-.36v.66l.63.36a.55.55,0,0,0,.32.12m-.94-2.22v.63l.54.31a.57.57,0,0,0,.3.1c.07,0,.1-.08.1-.19a.46.46,0,0,0-.1-.29,1,1,0,0,0-.3-.25l-.53-.31"/><path class="cls-8" d="M373.05,200.09v2.07l-.49-.29v-.24a.28.28,0,0,1-.18.06.74.74,0,0,1-.38-.11,1.57,1.57,0,0,1-.4-.33,1.6,1.6,0,0,1-.27-.46,1.72,1.72,0,0,1-.09-.58v-1.16l.52.3v1.07a.91.91,0,0,0,.09.43.61.61,0,0,0,.27.28.4.4,0,0,0,.21.07.22.22,0,0,0,.15-.1.7.7,0,0,0,.06-.29v-1Z"/><path class="cls-8" d="M374.11,200.25v.5l.45.26v.46l-.45-.25v.83a.48.48,0,0,0,.06.24.41.41,0,0,0,.16.16.25.25,0,0,0,.21.05l.14.51a.72.72,0,0,1-.19,0,1.46,1.46,0,0,1-.23-.1,1.3,1.3,0,0,1-.49-.47,1.21,1.21,0,0,1-.18-.66v-.84l-.27-.16v-.46l.27.15V200Z"/><path class="cls-8" d="M375.52,201.07v.5l.45.26v.46l-.45-.26v.84a.5.5,0,0,0,.06.24.49.49,0,0,0,.16.16.3.3,0,0,0,.21,0l.14.5a.42.42,0,0,1-.19,0,1,1,0,0,1-.23-.11,1.28,1.28,0,0,1-.49-.46,1.26,1.26,0,0,1-.18-.66v-.85l-.27-.16v-.46l.28.16v-.5Z"/><path class="cls-8" d="M378,203.46a1.58,1.58,0,0,1,.13.63.73.73,0,0,1-.13.47.41.41,0,0,1-.35.17.92.92,0,0,1-.51-.15,1.9,1.9,0,0,1-.51-.44,2.05,2.05,0,0,1-.34-.57,1.57,1.57,0,0,1-.13-.62.69.69,0,0,1,.13-.47.45.45,0,0,1,.35-.19,1.06,1.06,0,0,1,.51.17,1.83,1.83,0,0,1,.5.42A2,2,0,0,1,378,203.46Zm-.46.59a.5.5,0,0,0,.07-.26,1,1,0,0,0-.07-.35.9.9,0,0,0-.16-.29.87.87,0,0,0-.23-.2.41.41,0,0,0-.24-.07.23.23,0,0,0-.16.1.51.51,0,0,0-.06.28.77.77,0,0,0,.06.33.9.9,0,0,0,.16.29.91.91,0,0,0,.23.21.49.49,0,0,0,.24.07.22.22,0,0,0,.16-.11"/><path class="cls-8" d="M379.61,203.85a1.47,1.47,0,0,1,.38.32,1.4,1.4,0,0,1,.27.46,1.7,1.7,0,0,1,.09.57v1.18l-.52-.31V205a.77.77,0,0,0-.1-.42.64.64,0,0,0-.26-.28.46.46,0,0,0-.22-.07.16.16,0,0,0-.15.09.55.55,0,0,0-.06.29v1l-.52-.31v-2.06l.49.29v.25a.33.33,0,0,1,.19-.06A.79.79,0,0,1,379.61,203.85Z"/><g class="cls-7"><path class="cls-8" d="M421.47,252c6,3.45,10.8,11.81,10.78,18.67s-4.88,9.64-10.86,6.19L364.8,244.15c-6-3.44-10.8-11.81-10.78-18.67s4.88-9.63,10.85-6.18Z"/></g><path class="cls-2" d="M374.24,239.48a2.07,2.07,0,0,1,.15.77,1,1,0,0,1-.15.58.56.56,0,0,1-.44.22,1.1,1.1,0,0,1-.62-.19,2.47,2.47,0,0,1-.63-.53,2.92,2.92,0,0,1-.43-.72,1.93,1.93,0,0,1-.16-.77.89.89,0,0,1,.16-.58.56.56,0,0,1,.44-.22,1.12,1.12,0,0,1,.62.2,2.61,2.61,0,0,1,.63.52A3,3,0,0,1,374.24,239.48Zm-.57.72a.57.57,0,0,0,.08-.33,1.15,1.15,0,0,0-.08-.41,1,1,0,0,0-.2-.36,1,1,0,0,0-.29-.26.49.49,0,0,0-.29-.08.27.27,0,0,0-.2.13.57.57,0,0,0-.08.33,1.2,1.2,0,0,0,.08.42,1.25,1.25,0,0,0,.2.36,1,1,0,0,0,.29.25.6.6,0,0,0,.29.09.25.25,0,0,0,.2-.14"/><polygon class="cls-2" points="372.14 236.91 371.02 238.39 371.02 239.58 370.35 239.19 370.35 238 369.24 235.23 369.95 235.64 370.71 237.56 371.49 236.53 372.14 236.91"/><path class="cls-2" d="M377.06,240.52v2.54l-.61-.35v-.3a.38.38,0,0,1-.21.07.8.8,0,0,1-.47-.13,2,2,0,0,1-.5-.41,1.78,1.78,0,0,1-.33-.57,2,2,0,0,1-.12-.71v-1.44l.64.37v1.33a1.07,1.07,0,0,0,.12.53.83.83,0,0,0,.33.34.51.51,0,0,0,.27.08.21.21,0,0,0,.18-.12.82.82,0,0,0,.06-.35v-1.26Z"/><path class="cls-2" d="M379,241.62v.67l-.08,0-.07,0a.45.45,0,0,0-.43-.07c-.1.05-.16.2-.16.44v1.21l-.64-.38v-2.54l.62.35v.34a.37.37,0,0,1,.24-.1A1,1,0,0,1,379,241.62Z"/><polygon class="cls-2" points="382.83 243.07 382.82 243.7 381.9 243.17 381.9 245.86 381.23 245.47 381.23 242.78 380.31 242.25 380.32 241.63 382.83 243.07"/><path class="cls-2" d="M383.46,243.85a.75.75,0,0,1-.28-.28.67.67,0,0,1-.12-.36.23.23,0,0,1,.12-.23c.07,0,.16,0,.29.05a.83.83,0,0,1,.28.28.66.66,0,0,1,.11.35c0,.12,0,.21-.11.24S383.58,243.92,383.46,243.85Z"/><polygon class="cls-2" points="383.13 246.57 383.14 244.03 383.78 244.4 383.77 246.94 383.13 246.57"/><path class="cls-2" d="M385.1,244.59v.62l.55.32v.57l-.56-.32v1a.61.61,0,0,0,.08.3.48.48,0,0,0,.2.2.34.34,0,0,0,.26.06l.17.62a.52.52,0,0,1-.24,0,1.63,1.63,0,0,1-.29-.12,1.85,1.85,0,0,1-.6-.58,1.5,1.5,0,0,1-.22-.82v-1l-.35-.2v-.57l.35.2v-.62Z"/><polygon class="cls-2" points="386.82 245.18 386.81 248.69 386.16 248.32 386.17 244.81 386.82 245.18"/><path class="cls-2" d="M389.42,248.23a2,2,0,0,1,.16.79v.2l-1.67-1a.79.79,0,0,0,.06.22,1.1,1.1,0,0,0,.23.37,1.16,1.16,0,0,0,.34.28.76.76,0,0,0,.31.12.43.43,0,0,0,.25,0l.33.62a.45.45,0,0,1-.38.08,1.22,1.22,0,0,1-.53-.19,2.69,2.69,0,0,1-.66-.55,2.41,2.41,0,0,1-.44-.73,1.93,1.93,0,0,1-.16-.77,1,1,0,0,1,.15-.58.55.55,0,0,1,.43-.22,1.08,1.08,0,0,1,.6.18,2.3,2.3,0,0,1,.59.49A2.58,2.58,0,0,1,389.42,248.23Zm-1.54-.42,1.09.63a1.14,1.14,0,0,0-.06-.25,1.41,1.41,0,0,0-.19-.34,1,1,0,0,0-.29-.25.51.51,0,0,0-.29-.08.23.23,0,0,0-.2.11.48.48,0,0,0-.06.18"/><polygon class="cls-9" points="403.04 263.11 403.03 266.19 368.37 246.18 368.38 243.09 403.04 263.11"/><g class="cls-3"><path class="cls-2" d="M363.49,231.71a.69.69,0,0,1,.11.13.65.65,0,0,1,.11.34l0,6.78c0,.78-.69,1-1.55.53a3.07,3.07,0,0,1-1.54-2.32c0-.79.69-1,1.55-.53a3.29,3.29,0,0,1,.93.82v-3.05l-5-1.6v4.35c0,.78-.7,1-1.56.53a3.1,3.1,0,0,1-1.54-2.32c0-.79.7-1,1.55-.53a3.33,3.33,0,0,1,.93.83l0-5.64c0-.17.1-.26.24-.21l5.59,1.8a.6.6,0,0,1,.11.06Z"/><g class="cls-11"><polyline class="cls-12" points="363.69 238.96 363.66 239.23 363.57 239.44 363.43 239.6 363.24 239.7 363.01 239.74 362.74 239.72 362.45 239.64 362.14 239.49 361.83 239.28 361.54 239.03 361.27 238.74 361.05 238.44 360.86 238.12 360.71 237.79 360.63 237.47 360.6 237.17 360.63 236.9 360.72 236.69 360.86 236.53 361.05 236.42 361.28 236.38 361.55 236.4 361.84 236.49 362.15 236.64 362.28 236.72 362.4 236.81 362.53 236.9 362.65 237 362.76 237.11 362.87 237.22 362.98 237.34 363.08 237.46 363.09 234.41 358.12 232.81 358.11 237.16 358.08 237.43 357.98 237.64 357.84 237.8 357.65 237.9 357.42 237.94 357.16 237.92 356.87 237.84 356.55 237.69 356.24 237.48 355.95 237.23 355.69 236.94 355.46 236.64 355.27 236.32 355.13 235.99 355.04 235.67 355.01 235.37 355.04 235.1 355.13 234.88 355.27 234.72 355.46 234.62 355.69 234.58 355.96 234.6 356.25 234.69 356.56 234.84 356.69 234.92 356.82 235.01 356.94 235.1 357.06 235.21 357.18 235.31 357.29 235.43 357.39 235.55 357.49 235.67 357.51 230.03 357.51 229.97 357.53 229.92 357.55 229.88 357.58 229.85 357.61 229.82 357.65 229.81 357.7 229.81 357.75 229.82 363.34 231.62 363.35 231.62 363.37 231.63 363.38 231.64 363.39 231.65 363.41 231.66 363.42 231.66 363.44 231.67 363.45 231.68 363.45 231.69 363.46 231.69 363.46 231.69 363.47 231.7 363.47 231.7 363.48 231.71 363.48 231.71 363.49 231.71 363.5 231.73 363.52 231.74 363.53 231.76 363.55 231.77 363.56 231.79 363.57 231.8 363.59 231.82 363.6 231.84 363.63 231.88 363.65 231.93 363.67 231.97 363.68 232.01 363.7 232.06 363.7 232.1 363.71 232.14 363.71 232.19 363.69 238.96"/></g></g><path class="cls-12" d="M417.6,262.42a13.52,13.52,0,0,1,6.16,10.67c0,3.92-2.78,5.5-6.2,3.53A13.55,13.55,0,0,1,411.41,266C411.42,262,414.19,260.44,417.6,262.42Z"/><polygon class="cls-8" points="416.25 266.01 420.53 271.41 416.24 271.86 416.25 266.01"/><path class="cls-13" d="M417.84,290.34c6,3.45,10.8,11.81,10.78,18.67s-4.87,9.64-10.85,6.19l-56.6-32.68c-6-3.44-10.8-11.81-10.78-18.67s4.88-9.63,10.85-6.19Z"/><path class="cls-8" d="M360.76,267.76a4.75,4.75,0,0,1,2.15,3.72v2.69c0,.45-.32.63-.71.41l-4.87-2.81a1.56,1.56,0,0,1-.71-1.23v-2.69c0-1.37,1-1.92,2.16-1.23Z"/><path class="cls-8" d="M359.78,262.83a3.58,3.58,0,0,1,1.61,2.79c0,1-.73,1.44-1.62.92a3.55,3.55,0,0,1-1.61-2.78C358.17,262.74,358.89,262.32,359.78,262.83Z"/><path class="cls-8" d="M417.46,297.38a1.4,1.4,0,0,1,.48.51l3.83,6.63c.26.46.26,1,0,1.1l-3.85,2.21a.5.5,0,0,1-.48-.05,1.4,1.4,0,0,1-.48-.51c-.26-.46-.26-.95,0-1.1l3.38-1.93-3.36-5.8a1.43,1.43,0,0,1-.19-.68.49.49,0,0,1,.2-.43A.47.47,0,0,1,417.46,297.38Z"/><g class="cls-14"><polygon class="cls-8" points="402.56 296.64 402.55 299.72 367.88 279.71 367.89 276.62 402.56 296.64"/></g><polygon class="cls-8" points="371.18 270.44 370.05 271.94 370.05 273.1 369.38 272.72 369.39 271.54 368.27 268.76 368.98 269.17 369.75 271.08 370.52 270.06 371.18 270.44"/><path class="cls-8" d="M373.27,273a2,2,0,0,1,.16.77.94.94,0,0,1-.16.59.52.52,0,0,1-.43.21,1.17,1.17,0,0,1-.63-.18,2.33,2.33,0,0,1-.63-.55,2.81,2.81,0,0,1-.43-.7,2.19,2.19,0,0,1-.15-.77.9.9,0,0,1,.16-.59.6.6,0,0,1,.43-.22,1.27,1.27,0,0,1,.63.2,2.22,2.22,0,0,1,.62.53A2.5,2.5,0,0,1,373.27,273Zm-.57.73a.62.62,0,0,0,.08-.33,1.26,1.26,0,0,0-.08-.43,1.21,1.21,0,0,0-.48-.6.51.51,0,0,0-.29-.08.25.25,0,0,0-.21.12.62.62,0,0,0-.07.33,1.16,1.16,0,0,0,.07.42,1.07,1.07,0,0,0,.21.36,1,1,0,0,0,.28.26.48.48,0,0,0,.29.07.23.23,0,0,0,.2-.12"/><path class="cls-8" d="M376.09,274.05v2.54l-.62-.35v-.3a.31.31,0,0,1-.21.07.87.87,0,0,1-.48-.13,2.06,2.06,0,0,1-.49-.41,1.84,1.84,0,0,1-.33-.56,2.09,2.09,0,0,1-.12-.72v-1.44l.64.38v1.32a1.16,1.16,0,0,0,.11.53.86.86,0,0,0,.33.35.54.54,0,0,0,.27.08.25.25,0,0,0,.18-.12.85.85,0,0,0,.07-.36v-1.25Z"/><path class="cls-8" d="M378.06,275.14v.68l-.07,0-.07,0a.46.46,0,0,0-.43-.08c-.11,0-.16.21-.16.45v1.19l-.65-.37v-2.54l.61.36v.33a.33.33,0,0,1,.23-.1A.94.94,0,0,1,378.06,275.14Z"/><polygon class="cls-8" points="381.86 276.61 381.86 277.23 380.94 276.7 380.93 279.39 380.26 279 380.27 276.31 379.35 275.78 379.35 275.16 381.86 276.61"/><path class="cls-8" d="M382.49,277.39a.78.78,0,0,1-.28-.29.71.71,0,0,1-.11-.35.24.24,0,0,1,.11-.23.3.3,0,0,1,.28,0,.78.78,0,0,1,.29.28.62.62,0,0,1,.12.35.26.26,0,0,1-.11.25A.35.35,0,0,1,382.49,277.39Z"/><polygon class="cls-8" points="382.17 280.1 382.17 277.56 382.82 277.93 382.81 280.47 382.17 280.1"/><path class="cls-8" d="M384.13,278.13v.61l.55.32v.57l-.55-.31v1a.57.57,0,0,0,.07.29.58.58,0,0,0,.2.21.33.33,0,0,0,.26,0l.17.62a.47.47,0,0,1-.23,0,.89.89,0,0,1-.29-.12,1.65,1.65,0,0,1-.61-.59,1.52,1.52,0,0,1-.22-.8v-1.05l-.34-.19v-.57l.34.19v-.62Z"/><polygon class="cls-8" points="385.85 278.71 385.84 282.22 385.2 281.85 385.21 278.34 385.85 278.71"/><path class="cls-8" d="M388.46,281.76a2,2,0,0,1,.14.79v.2l-1.68-1a1.12,1.12,0,0,0,.06.23,1.62,1.62,0,0,0,.23.37,1.54,1.54,0,0,0,.34.28,1,1,0,0,0,.31.12.43.43,0,0,0,.25,0l.34.61a.54.54,0,0,1-.39.09,1.41,1.41,0,0,1-.53-.2,2.34,2.34,0,0,1-.66-.56,2.45,2.45,0,0,1-.44-.72,1.89,1.89,0,0,1-.16-.76,1,1,0,0,1,.16-.59.52.52,0,0,1,.42-.22,1.11,1.11,0,0,1,.61.18,2.13,2.13,0,0,1,.59.5A2.52,2.52,0,0,1,388.46,281.76Zm-1.55-.41L388,282a1.1,1.1,0,0,0-.06-.26,1.14,1.14,0,0,0-.19-.34,1,1,0,0,0-.29-.25.44.44,0,0,0-.29-.08.22.22,0,0,0-.19.12.3.3,0,0,0-.07.18"/><polyline class="cls-15" points="349.81 189.71 335.9 181.69 335.9 254.48 347.05 260.94"/><line class="cls-15" x1="348.48" y1="225.34" x2="335.58" y2="217.89"/><path class="cls-2" d="M350,187.34a4.35,4.35,0,0,1,2,3.44c0,1.26-.89,1.77-2,1.13a4.34,4.34,0,0,1-2-3.43C348,187.22,348.86,186.71,350,187.34Z"/><path class="cls-2" d="M347.3,222.29a4.34,4.34,0,0,1,2,3.43c0,1.26-.89,1.77-2,1.14a4.35,4.35,0,0,1-2-3.44C345.31,222.16,346.2,221.65,347.3,222.29Z"/><path class="cls-2" d="M345.49,257.51a4.38,4.38,0,0,1,2,3.43c0,1.27-.9,1.78-2,1.14a4.39,4.39,0,0,1-2-3.43C343.5,257.39,344.39,256.88,345.49,257.51Z"/><g class="cls-16"><polygon class="cls-8" points="345.01 141.93 345 147.12 335.52 141.65 335.54 136.46 345.01 141.93"/><polygon class="cls-8" points="345.03 133.64 345.02 138.82 335.55 133.35 335.56 128.17 345.03 133.64"/><polygon class="cls-8" points="345.06 125.35 345.04 130.53 335.57 125.06 335.59 119.88 345.06 125.35"/><polygon class="cls-8" points="345.08 117.05 345.06 122.23 335.59 116.77 335.61 111.58 345.08 117.05"/><polygon class="cls-8" points="344.99 150.22 344.97 155.4 335.5 149.94 335.51 144.75 344.99 150.22"/><polygon class="cls-8" points="344.94 166.81 344.92 171.99 335.45 166.52 335.47 161.34 344.94 166.81"/><polygon class="cls-8" points="344.96 158.52 344.95 163.7 335.48 158.23 335.49 153.05 344.96 158.52"/></g><g class="cls-17"><polygon class="cls-18" points="446.34 235.95 446.81 71.13 517.6 112.64 517.13 277.45 446.34 235.95"/><polygon class="cls-19" points="451.44 214.81 451.87 61.77 512.5 97.32 512.07 250.37 451.44 214.81"/></g><path class="cls-20" d="M488.63,138.49a3.45,3.45,0,0,1,1.57,2.71c0,1-.71,1.4-1.58.9a3.42,3.42,0,0,1-1.56-2.71C487.06,138.39,487.76,138,488.63,138.49Z"/><path class="cls-20" d="M496,127a3.47,3.47,0,0,1,1.56,2.72c0,1-.71,1.39-1.57.89a3.45,3.45,0,0,1-1.57-2.71C494.42,127,495.13,126.54,496,127Z"/><path class="cls-20" d="M465.85,110.94a3.41,3.41,0,0,1,1.56,2.71c0,1-.7,1.4-1.57.9a3.46,3.46,0,0,1-1.57-2.72C464.28,110.84,465,110.44,465.85,110.94Z"/><path class="cls-20" d="M506.75,132.77a3.45,3.45,0,0,1,1.57,2.71c0,1-.71,1.4-1.58.9a3.45,3.45,0,0,1-1.56-2.72C505.18,132.67,505.89,132.27,506.75,132.77Z"/><path class="cls-20" d="M487.47,114.49A3.46,3.46,0,0,1,489,117.2c0,1-.71,1.4-1.57.9a3.46,3.46,0,0,1-1.57-2.72C485.89,114.39,486.6,114,487.47,114.49Z"/><path class="cls-20" d="M466,126.2a3.41,3.41,0,0,1,1.56,2.71c0,1-.7,1.4-1.57.9a3.48,3.48,0,0,1-1.57-2.72C464.43,126.1,465.14,125.7,466,126.2Z"/><path class="cls-21" d="M481.32,125.14a3.45,3.45,0,0,1,1.57,2.71c0,1-.71,1.4-1.58.9a3.46,3.46,0,0,1-1.57-2.72C479.75,125,480.45,124.64,481.32,125.14Z"/><path class="cls-21" d="M493.4,104.26A3.46,3.46,0,0,1,495,107c0,1-.71,1.4-1.58.9a3.45,3.45,0,0,1-1.57-2.71C491.83,104.16,492.53,103.76,493.4,104.26Z"/><path class="cls-21" d="M507.65,147.76a3.46,3.46,0,0,1,1.57,2.71c0,1-.71,1.4-1.58.9a3.44,3.44,0,0,1-1.56-2.71C506.08,147.66,506.79,147.26,507.65,147.76Z"/><g class="cls-3"><g class="cls-3"><g class="cls-22"><g class="cls-3"><path class="cls-23" d="M436.23,311.86l3.58-2.09c0,.14,0,.27,0,.41l-3.59,2.08v-.4"/><path class="cls-24" d="M436.23,312.26l3.59-2.08c0,.14,0,.29,0,.43l-3.58,2.08,0-.43"/><path class="cls-25" d="M436.26,312.69l3.58-2.08,0,.43-3.58,2.09c0-.15,0-.29,0-.44"/><path class="cls-26" d="M436.29,313.13l3.58-2.09c0,.15,0,.3.05.44l-3.58,2.09c0-.15,0-.3,0-.44"/><path class="cls-27" d="M436.34,313.57l3.58-2.09c0,.15,0,.3.07.45L436.4,314l-.06-.45"/><path class="cls-28" d="M436.4,314l3.59-2.09c0,.15.05.3.08.46l-3.59,2.08c0-.15-.05-.3-.08-.45"/><path class="cls-29" d="M436.48,314.47l3.59-2.08c0,.15.06.31.09.46l-3.58,2.09c0-.16-.07-.32-.1-.47"/><path class="cls-30" d="M436.58,314.94l3.58-2.09c0,.16.07.32.11.47l-3.58,2.09c0-.16-.08-.32-.11-.47"/><path class="cls-31" d="M436.69,315.41l3.58-2.09c0,.16.08.32.13.48l-3.59,2.08c0-.16-.09-.32-.12-.47"/><path class="cls-32" d="M436.81,315.88l3.59-2.08c0,.16.09.31.13.47L437,316.36c-.05-.16-.1-.32-.14-.48"/><path class="cls-33" d="M437,316.36l3.58-2.09.15.47-3.58,2.08-.15-.46"/><path class="cls-34" d="M437.1,316.82l3.58-2.08c.05.15.11.3.16.46l-3.58,2.08c-.06-.15-.11-.31-.16-.46"/><path class="cls-35" d="M437.26,317.28l3.58-2.08c.06.14.11.29.17.44l-3.59,2.08c-.05-.15-.11-.29-.16-.44"/><path class="cls-36" d="M437.42,317.72l3.59-2.08c.05.14.11.29.17.43l-3.58,2.09-.18-.44"/><path class="cls-37" d="M437.6,318.16l3.58-2.09c.06.15.12.29.19.43l-3.59,2.08-.18-.42"/><path class="cls-38" d="M437.78,318.58l3.59-2.08c.06.15.13.29.2.44L438,319c-.07-.14-.13-.29-.2-.44"/><path class="cls-39" d="M438,319l3.59-2.08c.07.16.15.31.23.47l-3.59,2.08c-.08-.15-.15-.31-.23-.47"/><path class="cls-40" d="M438.21,319.49l3.59-2.08.27.54L438.49,320c-.1-.17-.19-.35-.28-.54"/><path class="cls-41" d="M438.49,320l3.58-2.08c.15.27.29.53.45.79l-3.59,2.08c-.15-.26-.3-.52-.44-.79"/><path class="cls-42" d="M438.93,320.82l3.59-2.08c.21.36.44.72.67,1.07l-3.59,2.08c-.23-.35-.45-.7-.67-1.07"/><path class="cls-41" d="M439.6,321.89l3.59-2.08q.27.42.57.81l-3.59,2.08q-.29-.39-.57-.81"/><path class="cls-40" d="M440.17,322.7l3.59-2.08c.13.18.26.35.4.52l-3.59,2.09-.4-.53"/><path class="cls-39" d="M440.57,323.23l3.59-2.09c.11.15.22.29.34.43l-3.58,2.08-.35-.42"/><path class="cls-38" d="M440.92,323.65l3.58-2.08.35.41-3.59,2.08-.34-.41"/><path class="cls-37" d="M441.26,324.06l3.59-2.08c.11.13.23.26.35.38l-3.59,2.09-.35-.39"/><path class="cls-36" d="M441.61,324.45l3.59-2.09.36.39L442,324.83l-.37-.38"/><path class="cls-35" d="M442,324.83l3.58-2.08.38.37-3.58,2.08c-.13-.12-.26-.24-.38-.37"/><path class="cls-34" d="M442.36,325.2l3.58-2.08.4.37-3.59,2.08-.39-.37"/><path class="cls-33" d="M442.75,325.57l3.59-2.08.4.35-3.59,2.08-.4-.35"/><path class="cls-32" d="M443.15,325.92l3.59-2.08.39.32-3.58,2.08c-.14-.1-.27-.21-.4-.32"/><path class="cls-31" d="M443.55,326.24l3.58-2.08.4.3-3.59,2.08-.39-.3"/><path class="cls-30" d="M443.94,326.54l3.59-2.08c.13.1.25.19.39.28l-3.59,2.08-.39-.28"/><path class="cls-29" d="M444.33,326.82l3.59-2.08.37.25-3.58,2.08-.38-.25"/><path class="cls-28" d="M444.71,327.07l3.58-2.08.38.23-3.58,2.08-.38-.23"/><path class="cls-27" d="M445.09,327.3l3.58-2.08.09,0-3.58,2.08-.09-.05"/></g></g></g><g class="cls-3"><g class="cls-43"><g class="cls-3"><path d="M438.24,313l3.58-2.08c0,.1,0,.2,0,.31l-3.59,2.08V313"/><path d="M438.24,313.33l3.59-2.08c0,.11,0,.22,0,.34l-3.58,2.08c0-.11,0-.23,0-.34"/><path d="M438.26,313.67l3.58-2.08,0,.34L438.29,314c0-.11,0-.23,0-.34"/><path d="M438.29,314l3.58-2.08c0,.11,0,.22,0,.34l-3.59,2.08,0-.34"/><path d="M438.32,314.35l3.59-2.08c0,.11,0,.23,0,.35l-3.59,2.08c0-.12,0-.23-.05-.35"/><path d="M438.37,314.7l3.59-2.08.06.35-3.59,2.08-.06-.35"/><path d="M438.43,315.05,442,313c0,.12.05.24.07.36l-3.58,2.09c0-.12-.05-.25-.08-.37"/><path d="M438.51,315.42l3.58-2.09.09.37-3.59,2.08c0-.12-.06-.24-.08-.36"/><path d="M438.59,315.78l3.59-2.08c0,.12.06.24.1.37l-3.59,2.08-.1-.37"/><path d="M438.69,316.15l3.59-2.08c0,.12.07.24.1.37l-3.58,2.08c0-.12-.08-.25-.11-.37"/><path d="M438.8,316.52l3.58-2.08.12.36-3.59,2.08c0-.12-.08-.24-.11-.36"/><path d="M438.91,316.88l3.59-2.08.12.35L439,317.23a3.62,3.62,0,0,1-.13-.35"/><path d="M439,317.23l3.58-2.08.13.34-3.58,2.08a3.42,3.42,0,0,1-.13-.34"/><path d="M439.17,317.57l3.58-2.08c0,.11.09.23.14.34l-3.59,2.08a3.42,3.42,0,0,1-.13-.34"/><path d="M439.3,317.91l3.59-2.08c0,.11.09.22.14.33l-3.59,2.09c0-.11-.09-.23-.14-.34"/><path class="cls-44" d="M439.44,318.25l3.59-2.09.15.34-3.58,2.08-.16-.33"/><path class="cls-45" d="M439.6,318.58l3.58-2.08.18.37L439.77,319c-.06-.12-.11-.24-.17-.37"/><path class="cls-29" d="M439.77,319l3.59-2.08c.07.14.14.28.22.41L440,319.37l-.22-.42"/><path class="cls-46" d="M440,319.37l3.59-2.09.34.62L440.33,320c-.12-.2-.23-.41-.34-.61"/><path class="cls-47" d="M440.33,320l3.59-2.08c.16.27.34.55.51.82l-3.58,2.08c-.18-.27-.35-.54-.52-.82"/><path class="cls-46" d="M440.85,320.8l3.58-2.08c.15.21.29.42.45.63l-3.59,2.08-.44-.63"/><path class="cls-29" d="M441.29,321.43l3.59-2.08c.1.13.2.27.31.4l-3.59,2.09-.31-.41"/><path class="cls-45" d="M441.6,321.84l3.59-2.09a4.19,4.19,0,0,0,.26.33l-3.58,2.09-.27-.33"/><path class="cls-44" d="M441.87,322.17l3.58-2.09.27.32-3.58,2.08-.27-.31"/><path d="M442.14,322.48l3.58-2.08.27.3-3.58,2.08-.27-.3"/><path d="M442.41,322.78,446,320.7l.29.3-3.59,2.08-.28-.3"/></g></g></g><polygon class="cls-30" points="445.18 327.35 448.76 325.27 510.29 360.8 506.71 362.88 445.18 327.35"/><polygon points="445.18 325.05 448.77 322.96 510.3 358.49 506.71 360.57 445.18 325.05"/><g class="cls-3"><g class="cls-48"><g class="cls-3"><path class="cls-27" d="M506.71,362.88l3.58-2.08.29.16L507,363l-.28-.16"/><path class="cls-26" d="M507,363l3.59-2.08.36.19-3.58,2.08L507,363"/><path class="cls-25" d="M507.36,363.23l3.58-2.08.37.17-3.59,2.08-.36-.17"/><path class="cls-24" d="M507.72,363.4l3.59-2.08.35.15-3.58,2.08-.36-.15"/><path class="cls-23" d="M508.08,363.55l3.58-2.08.36.13-3.58,2.09-.36-.14"/><path class="cls-49" d="M508.44,363.69,512,361.6l.36.12-3.58,2.08-.36-.11"/><path class="cls-45" d="M508.8,363.8l3.58-2.08.37.1-3.58,2.09-.37-.11"/><path class="cls-50" d="M509.17,363.91l3.58-2.09.37.08L509.54,364l-.37-.08"/><path class="cls-51" d="M509.54,364l3.58-2.09.39.07-3.58,2.08-.39-.06"/><path class="cls-52" d="M509.93,364.05l3.58-2.08.4,0-3.58,2.08-.4,0"/><path class="cls-53" d="M510.33,364.09l3.58-2.08h.43l-3.59,2.09-.42,0"/><path class="cls-54" d="M510.75,364.11l3.59-2.09a3.54,3.54,0,0,0,.46,0l-3.58,2.09-.47,0"/><path class="cls-55" d="M511.22,364.09,514.8,362a4.34,4.34,0,0,0,.52-.07L511.73,364l-.51.08"/><path class="cls-56" d="M511.73,364l3.59-2.08a4.17,4.17,0,0,0,.63-.18l-3.59,2.09a4.16,4.16,0,0,1-.63.17"/><path class="cls-57" d="M512.36,363.84l3.59-2.09a4.8,4.8,0,0,0,.73-.33l-3.59,2.08a4.43,4.43,0,0,1-.73.34"/></g></g></g><g class="cls-3"><g class="cls-58"><g class="cls-3"><path d="M506.72,360.57l3.58-2.08.22.12-3.58,2.09-.22-.13"/><path d="M506.94,360.7l3.58-2.09.29.15-3.59,2.08-.28-.14"/><path d="M507.22,360.84l3.59-2.08.28.13L507.51,361l-.29-.14"/><path d="M507.51,361l3.58-2.09.28.12-3.59,2.08-.27-.11"/><path d="M507.78,361.09l3.59-2.08.28.11-3.58,2.08-.29-.11"/><path d="M508.07,361.2l3.58-2.08.28.09-3.59,2.08-.27-.09"/><path d="M508.34,361.29l3.59-2.08.29.08-3.59,2.08-.29-.08"/><path d="M508.63,361.37l3.59-2.08.28.06-3.58,2.08a1.5,1.5,0,0,1-.29-.06"/><path d="M508.92,361.43l3.58-2.08.31,0-3.59,2.09-.3-.06"/><path d="M509.22,361.49l3.59-2.09a1.63,1.63,0,0,0,.31,0l-3.59,2.09-.31,0"/><path d="M509.53,361.52l3.59-2.09h.33l-3.59,2.09h-.33"/><path d="M509.86,361.53l3.59-2.09h.36l-3.59,2.08-.36,0"/><path d="M510.22,361.51l3.59-2.08c.14,0,.27,0,.4-.06l-3.58,2.08a2.9,2.9,0,0,1-.41.06"/><path d="M510.63,361.45l3.58-2.08a2.75,2.75,0,0,0,.49-.14l-3.59,2.09a3.76,3.76,0,0,1-.48.13"/><path d="M511.11,361.32l3.59-2.09a3.15,3.15,0,0,0,.56-.26l-3.58,2.09a3.68,3.68,0,0,1-.57.26"/></g></g></g><g class="cls-3"><g class="cls-59"><g class="cls-3"><path class="cls-60" d="M513.71,356.59l3.58-2.08v0l-3.58,2.08v0"/><path class="cls-61" d="M513.71,356.61l3.58-2.08v.33L513.7,357c0-.11,0-.23,0-.34"/><path class="cls-62" d="M513.7,357l3.59-2.09,0,.33-3.58,2.09c0-.11,0-.22,0-.33"/><path class="cls-63" d="M513.68,357.28l3.58-2.09c0,.12,0,.23,0,.34l-3.58,2.08,0-.33"/><path class="cls-64" d="M513.65,357.61l3.58-2.08c0,.11,0,.22-.05.33l-3.58,2.08c0-.1,0-.22,0-.33"/><path class="cls-65" d="M513.6,357.94l3.58-2.08a3.4,3.4,0,0,1-.07.34l-3.58,2.08c0-.11.05-.22.07-.34"/><path class="cls-66" d="M513.53,358.28l3.58-2.08-.09.36-3.59,2.08c0-.12.07-.23.1-.36"/><path class="cls-67" d="M513.43,358.64l3.59-2.08-.12.36L513.31,359a2.29,2.29,0,0,0,.12-.37"/><path class="cls-68" d="M513.31,359l3.59-2.09c0,.14-.11.27-.17.4l-3.58,2.08c.06-.12.11-.26.16-.39"/><path class="cls-69" d="M513.15,359.4l3.58-2.08a5.42,5.42,0,0,1-.26.48l-3.59,2.08a3.72,3.72,0,0,0,.27-.48"/><path class="cls-70" d="M512.88,359.88l3.59-2.08a3.47,3.47,0,0,1-1.21,1.17l-3.58,2.09a3.65,3.65,0,0,0,1.2-1.18"/></g></g></g><g class="cls-3"><g class="cls-71"><g class="cls-3"><path d="M515.71,357.75l3.59-2.08v0l-3.59,2.08v0"/><path d="M515.71,357.77l3.59-2.08c0,.15,0,.29,0,.43l-3.59,2.09c0-.15,0-.29,0-.44"/><path d="M515.7,358.21l3.59-2.09,0,.42-3.58,2.09c0-.14,0-.28,0-.42"/><path d="M515.68,358.63l3.58-2.09c0,.15,0,.29,0,.43l-3.59,2.09c0-.14,0-.29,0-.43"/><path d="M515.63,359.06l3.59-2.09c0,.15,0,.29-.07.43l-3.58,2.09.06-.43"/><path d="M515.57,359.49l3.58-2.09c0,.15,0,.3-.08.44l-3.59,2.08.09-.43"/><path d="M515.48,359.92l3.59-2.08-.12.46-3.59,2.08a3.45,3.45,0,0,0,.12-.46"/><path d="M515.36,360.38,519,358.3c-.05.16-.1.32-.16.47l-3.58,2.08.15-.47"/><path d="M515.21,360.85l3.58-2.08q-.1.27-.21.51L515,361.36c.08-.16.15-.33.22-.51"/><path d="M515,361.36l3.59-2.08a7,7,0,0,1-.34.61L514.65,362a6.14,6.14,0,0,0,.34-.62"/><path d="M514.65,362l3.59-2.09a4.65,4.65,0,0,1-1.56,1.53l-3.59,2.08a4.62,4.62,0,0,0,1.56-1.52"/></g></g></g><g class="cls-3"><g class="cls-72"><g class="cls-3"><path class="cls-23" d="M517.72,358.91l3.58-2.09v0l-3.58,2.09v0"/><path class="cls-49" d="M517.72,358.94l3.58-2.09c0,.18,0,.36,0,.54l-3.58,2.08c0-.18,0-.35,0-.53"/><path class="cls-45" d="M517.71,359.47l3.58-2.08,0,.51L517.67,360c0-.17,0-.35,0-.52"/><path class="cls-50" d="M517.67,360l3.59-2.09c0,.18,0,.36-.06.53l-3.58,2.09c0-.18,0-.35,0-.53"/><path class="cls-51" d="M517.62,360.52l3.58-2.09c0,.18,0,.36-.07.53L517.54,361c0-.17.06-.35.08-.52"/><path class="cls-52" d="M517.54,361l3.59-2.08c0,.18-.07.36-.11.53l-3.59,2.09c0-.18.08-.36.11-.54"/><path class="cls-53" d="M517.43,361.58l3.59-2.09c0,.2-.09.38-.15.57l-3.58,2.08c.05-.18.1-.37.14-.56"/><path class="cls-54" d="M517.29,362.14l3.58-2.08c-.06.19-.12.39-.19.57l-3.58,2.09c.06-.19.13-.38.19-.58"/><path class="cls-55" d="M517.1,362.72l3.58-2.09c-.08.22-.17.43-.26.63l-3.59,2.08c.1-.2.18-.41.27-.62"/><path class="cls-56" d="M516.83,363.34l3.59-2.08q-.2.39-.42.75l-3.58,2.08a5.36,5.36,0,0,0,.41-.75"/><path class="cls-57" d="M516.42,364.09,520,362a5.62,5.62,0,0,1-1.9,1.86L514.52,366a5.62,5.62,0,0,0,1.9-1.86"/></g></g></g><polygon class="cls-26" points="436.72 137.41 440.31 135.32 439.81 309.77 436.23 311.86 436.72 137.41"/><g class="cls-3"><g class="cls-73"><g class="cls-3"><path class="cls-57" d="M439.35,131.65l3.58-2.08a4.62,4.62,0,0,0-1.56,1.52l-3.58,2.09a4.47,4.47,0,0,1,1.56-1.53"/><path class="cls-56" d="M437.79,133.18l3.58-2.09c-.12.2-.23.4-.34.62l-3.58,2.08a4,4,0,0,1,.34-.61"/><path class="cls-55" d="M437.45,133.79l3.58-2.08a3.89,3.89,0,0,0-.21.51l-3.59,2.08c.07-.18.14-.34.22-.51"/><path class="cls-54" d="M437.23,134.3l3.59-2.08c-.06.15-.11.31-.16.47l-3.58,2.08c0-.16.1-.32.15-.47"/><path class="cls-53" d="M437.08,134.77l3.58-2.08-.12.46L437,135.23a3.45,3.45,0,0,1,.12-.46"/><path class="cls-52" d="M437,135.23l3.58-2.08-.09.44-3.58,2.08a3.12,3.12,0,0,1,.09-.44"/><path class="cls-51" d="M436.87,135.67l3.58-2.08-.06.42-3.59,2.09c0-.15,0-.29.07-.43"/><path class="cls-50" d="M436.8,136.1l3.59-2.09c0,.14,0,.29,0,.43l-3.59,2.09c0-.15,0-.29,0-.43"/><path class="cls-45" d="M436.76,136.53l3.59-2.09c0,.14,0,.28,0,.42L436.73,137l0-.42"/><path class="cls-49" d="M436.73,137l3.59-2.09c0,.15,0,.29,0,.44l-3.59,2.08c0-.15,0-.29,0-.43"/><path class="cls-23" d="M436.72,137.38l3.59-2.08v0l-3.59,2.09v0"/></g></g></g><g class="cls-3"><g class="cls-74"><g class="cls-3"><path d="M440.77,134.09l3.58-2.08a3.58,3.58,0,0,0-1.21,1.18l-3.58,2.08a3.59,3.59,0,0,1,1.21-1.18"/><path d="M439.56,135.27l3.58-2.08a5.42,5.42,0,0,0-.26.48l-3.58,2.08a3.67,3.67,0,0,1,.26-.48"/><path d="M439.3,135.75l3.58-2.08c-.06.12-.11.26-.17.39l-3.58,2.09c.05-.14.11-.27.17-.4"/><path d="M439.13,136.15l3.58-2.09-.12.37L439,136.51c0-.12.08-.24.12-.36"/><path d="M439,136.51l3.58-2.08c0,.12-.06.23-.09.36l-3.59,2.08c0-.12.06-.24.1-.36"/><path d="M438.91,136.87l3.59-2.08a3.4,3.4,0,0,0-.07.34l-3.58,2.08.06-.34"/><path d="M438.85,137.21l3.58-2.08c0,.11,0,.22-.05.33l-3.58,2.08c0-.11,0-.22.05-.33"/><path d="M438.8,137.54l3.58-2.08,0,.34-3.59,2.08c0-.11,0-.23,0-.34"/><path d="M438.76,137.88l3.59-2.08a3.25,3.25,0,0,0,0,.33l-3.59,2.08c0-.11,0-.22,0-.33"/><path d="M438.74,138.21l3.59-2.08c0,.11,0,.22,0,.33l-3.59,2.09c0-.12,0-.23,0-.34"/><path d="M438.73,138.55l3.59-2.09v0l-3.59,2.09v0"/></g></g></g><g class="cls-3"><g class="cls-75"><g class="cls-3"><path class="cls-70" d="M440.77,134.09l3.58-2.08a3.68,3.68,0,0,1,.57-.26l-3.59,2.08a3.57,3.57,0,0,0-.56.26"/><path class="cls-69" d="M441.33,133.83l3.59-2.08a2.42,2.42,0,0,1,.48-.13l-3.58,2.08a3.92,3.92,0,0,0-.49.13"/><path class="cls-68" d="M441.82,133.7l3.58-2.08a2.76,2.76,0,0,1,.4-.06l-3.58,2.08a2.57,2.57,0,0,0-.4.06"/><path class="cls-67" d="M442.22,133.64l3.58-2.08.36,0-3.58,2.08-.36,0"/><path class="cls-66" d="M442.58,133.62l3.58-2.08h.33l-3.58,2.08h-.33"/><path class="cls-65" d="M442.91,133.63l3.58-2.08.31,0-3.58,2.09-.31,0"/><path class="cls-64" d="M443.22,133.67l3.58-2.09.31,0-3.59,2.09-.3-.05"/><path class="cls-63" d="M443.52,133.72l3.59-2.09.28.07-3.58,2.08c-.1,0-.19-.05-.29-.06"/><path class="cls-62" d="M443.81,133.78l3.58-2.08.29.08-3.59,2.08-.28-.08"/><path class="cls-61" d="M444.09,133.86l3.59-2.08.28.09L444.37,134l-.28-.09"/><path class="cls-60" d="M444.37,134l3.59-2.08.28.1-3.59,2.09-.28-.11"/><path class="cls-76" d="M444.65,134.06l3.59-2.09.28.12-3.59,2.08-.28-.11"/><path class="cls-77" d="M444.93,134.17l3.59-2.08.28.13-3.58,2.09-.29-.14"/><path class="cls-78" d="M445.22,134.31l3.58-2.09.29.15-3.59,2.08-.28-.14"/><path class="cls-79" d="M445.5,134.45l3.59-2.08.22.13-3.59,2.08-.22-.13"/></g></g></g><g class="cls-3"><g class="cls-80"><g class="cls-3"><path d="M439.35,131.65l3.58-2.08a4.43,4.43,0,0,1,.73-.34l-3.59,2.09a4.69,4.69,0,0,0-.72.33"/><path d="M440.07,131.32l3.59-2.09a4.16,4.16,0,0,1,.63-.17l-3.59,2.08-.63.18"/><path d="M440.7,131.14l3.59-2.08a4.34,4.34,0,0,1,.52-.07l-3.59,2.08-.52.07"/><path d="M441.22,131.07l3.59-2.08a3.44,3.44,0,0,1,.46,0l-3.58,2.09-.47,0"/><path d="M441.69,131.05l3.58-2.09.42,0-3.58,2.08h-.42"/><path d="M442.11,131.06l3.58-2.08.4,0-3.58,2.08-.4,0"/><path d="M442.51,131.1l3.58-2.08.4.06-3.59,2.09-.39-.07"/><path d="M442.9,131.17l3.59-2.09.36.08-3.58,2.09-.37-.08"/><path d="M443.27,131.25l3.58-2.09.37.11-3.58,2.08-.37-.1"/><path d="M443.64,131.35l3.58-2.08.36.11L444,131.47l-.36-.12"/><path d="M444,131.47l3.58-2.09.36.14-3.58,2.08-.36-.13"/><path d="M444.36,131.6l3.58-2.08.36.15-3.58,2.09-.36-.16"/><path d="M444.72,131.76l3.58-2.09.36.17-3.58,2.09-.36-.17"/><path d="M445.08,131.93l3.58-2.09.37.19-3.59,2.09-.36-.19"/><path d="M445.44,132.12,449,130l.28.16-3.58,2.08-.29-.15"/></g></g></g><g class="cls-3"><g class="cls-81"><g class="cls-3"><path class="cls-57" d="M437.92,129.2l3.59-2.08a5.16,5.16,0,0,1,.89-.41l-3.59,2.08a5.53,5.53,0,0,0-.89.41"/><path class="cls-56" d="M438.81,128.79l3.59-2.08a4.73,4.73,0,0,1,.76-.21l-3.58,2.08c-.27.06-.52.13-.77.21"/><path class="cls-55" d="M439.58,128.58l3.58-2.08c.21,0,.42-.07.64-.09l-3.59,2.08a6,6,0,0,0-.63.09"/><path class="cls-54" d="M440.21,128.49l3.59-2.08a5.12,5.12,0,0,1,.56,0l-3.58,2.08a5.44,5.44,0,0,0-.57,0"/><path class="cls-53" d="M440.78,128.46l3.58-2.08.52,0-3.58,2.08-.52,0"/><path class="cls-52" d="M441.3,128.48l3.58-2.08.49,0-3.59,2.08-.48-.05"/><path class="cls-51" d="M441.78,128.53l3.59-2.08a4,4,0,0,1,.48.08l-3.59,2.08-.48-.08"/><path class="cls-50" d="M442.26,128.61l3.59-2.08.45.1-3.59,2.08-.45-.1"/><path class="cls-45" d="M442.71,128.71l3.59-2.08.45.12-3.58,2.09-.46-.13"/><path class="cls-49" d="M443.17,128.84l3.58-2.09c.15,0,.3.09.44.15L443.61,129l-.44-.14"/><path class="cls-23" d="M443.61,129l3.58-2.08.45.16-3.59,2.09-.44-.17"/><path class="cls-24" d="M444.05,129.15l3.59-2.09.44.19-3.59,2.08c-.15-.06-.29-.13-.44-.18"/><path class="cls-25" d="M444.49,129.33l3.59-2.08.44.21-3.58,2.08-.45-.21"/><path class="cls-26" d="M444.94,129.54l3.58-2.08.45.23-3.58,2.08-.45-.23"/><path class="cls-27" d="M445.39,129.77l3.58-2.08.35.2L445.74,130l-.35-.2"/></g></g></g><g class="cls-3"><g class="cls-82"><g class="cls-3"><path class="cls-60" d="M455.21,144.05l3.58-2.08v.19l-3.58,2.08v-.19"/><path class="cls-76" d="M455.21,144.24l3.58-2.08a1.27,1.27,0,0,1,0,.2l-3.58,2.08a1.34,1.34,0,0,1,0-.2"/><path class="cls-77" d="M455.22,144.44l3.58-2.08c0,.07,0,.13,0,.2l-3.59,2.08c0-.06,0-.13,0-.2"/><path class="cls-78" d="M455.23,144.64l3.59-2.08c0,.07,0,.14,0,.2l-3.58,2.09,0-.21"/><path class="cls-79" d="M455.26,144.85l3.58-2.09,0,.21-3.58,2.09,0-.21"/><path class="cls-83" d="M455.29,145.06l3.58-2.09a1.55,1.55,0,0,0,0,.21l-3.59,2.09,0-.21"/><path class="cls-84" d="M455.32,145.27l3.59-2.09c0,.07,0,.15,0,.22l-3.58,2.08c0-.07,0-.14-.05-.21"/><path class="cls-85" d="M455.37,145.48,459,143.4c0,.07,0,.14.05.22l-3.58,2.08a1.74,1.74,0,0,1-.05-.22"/><path class="cls-86" d="M455.42,145.7l3.58-2.08.06.22-3.59,2.08c0-.07,0-.15-.05-.22"/><path class="cls-87" d="M455.47,145.92l3.59-2.08.06.22-3.58,2.08a1.87,1.87,0,0,0-.07-.22"/><path class="cls-88" d="M455.54,146.14l3.58-2.08a1.72,1.72,0,0,1,.07.21l-3.58,2.08a1.72,1.72,0,0,1-.07-.21"/><path class="cls-89" d="M455.61,146.35l3.58-2.08.08.21-3.59,2.09-.07-.22"/><path class="cls-90" d="M455.68,146.57l3.59-2.09c0,.07.05.14.07.21l-3.58,2.08c0-.07-.05-.14-.08-.2"/><path class="cls-91" d="M455.76,146.77l3.58-2.08a1.19,1.19,0,0,1,.08.2L455.84,147a1.67,1.67,0,0,1-.08-.2"/><path class="cls-92" d="M455.84,147l3.58-2.08.09.2-3.59,2.08-.08-.2"/><path class="cls-92" d="M455.92,147.17l3.59-2.08.09.2L456,147.37a1.86,1.86,0,0,1-.1-.2"/><path class="cls-92" d="M456,147.37l3.58-2.08c0,.07.07.14.11.22l-3.59,2.08-.1-.22"/><path class="cls-92" d="M456.12,147.59l3.59-2.08.12.24-3.58,2.09-.13-.25"/><path class="cls-92" d="M456.25,147.84l3.58-2.09.21.37-3.59,2.08-.2-.36"/><path class="cls-92" d="M456.45,148.2l3.59-2.08c.1.17.2.33.31.49l-3.59,2.08c-.1-.16-.21-.32-.31-.49"/><path class="cls-92" d="M456.76,148.69l3.59-2.08c.08.13.17.25.26.37L457,149.07l-.27-.38"/><path class="cls-92" d="M457,149.07l3.58-2.09a2.35,2.35,0,0,0,.19.25l-3.59,2.08-.18-.24"/><path class="cls-92" d="M457.21,149.31l3.59-2.08c.05.06.1.13.16.19l-3.59,2.09-.16-.2"/><path class="cls-92" d="M457.37,149.51l3.59-2.09a1.46,1.46,0,0,0,.16.19l-3.59,2.09c0-.07-.11-.13-.16-.19"/><path class="cls-92" d="M457.53,149.7l3.59-2.09.16.18-3.59,2.08-.16-.17"/><path class="cls-91" d="M457.69,149.87l3.59-2.08.17.18-3.59,2.08-.17-.18"/><path class="cls-90" d="M457.86,150.05l3.59-2.08a1.37,1.37,0,0,0,.17.17L458,150.23l-.18-.18"/><path class="cls-89" d="M458,150.23l3.58-2.09.18.17-3.58,2.09-.18-.17"/><path class="cls-88" d="M458.22,150.4l3.58-2.09.19.16-3.59,2.09-.18-.16"/><path class="cls-87" d="M458.4,150.56l3.59-2.09c.06.05.12.11.18.15l-3.58,2.09-.19-.15"/><path class="cls-86" d="M458.59,150.71l3.58-2.09.19.14-3.59,2.09-.18-.14"/><path class="cls-85" d="M458.77,150.85l3.59-2.09.18.13L459,151l-.18-.13"/><path class="cls-84" d="M459,151l3.59-2.09.17.12-3.58,2.08L459,151"/><path class="cls-83" d="M459.13,151.09l3.58-2.08.18.11-3.59,2.08-.17-.11"/><path class="cls-79" d="M459.3,151.2l3.59-2.08,0,0-3.58,2.08-.05,0"/></g></g></g><polygon class="cls-93" points="455.21 142.17 458.8 140.09 458.79 141.97 455.21 144.05 455.21 142.17"/><polygon class="cls-85" points="445.72 134.58 449.31 132.5 456.97 136.92 453.38 139 445.72 134.58"/><g class="cls-3"><g class="cls-94"><g class="cls-3"><path class="cls-79" d="M453.38,139l3.59-2.08h0L453.4,139h0"/><path class="cls-83" d="M453.4,139l3.59-2.08.07,0-3.58,2.08-.08-.05"/><path class="cls-84" d="M453.48,139.06l3.58-2.08.08.05-3.59,2.08-.07-.05"/><path class="cls-85" d="M453.55,139.11l3.59-2.08.08.05-3.59,2.09-.08-.06"/><path class="cls-86" d="M453.63,139.17l3.59-2.09.08.06-3.59,2.09-.08-.06"/><path class="cls-87" d="M453.71,139.23l3.59-2.09.08.07-3.58,2.08-.09-.06"/><path class="cls-88" d="M453.8,139.29l3.58-2.08.08.07-3.58,2.08a.27.27,0,0,1-.08-.07"/><path class="cls-89" d="M453.88,139.36l3.58-2.08.08.08L454,139.44l-.08-.08"/><path class="cls-90" d="M454,139.44l3.58-2.08.08.07L454,139.52l-.07-.08"/><path class="cls-91" d="M454,139.52l3.59-2.09.07.08-3.58,2.09a.3.3,0,0,0-.08-.08"/><path class="cls-92" d="M454.11,139.6l3.58-2.09.08.08-3.59,2.08-.07-.07"/><path class="cls-92" d="M454.18,139.67l3.59-2.08a.27.27,0,0,0,.07.08l-3.59,2.09-.07-.09"/><path class="cls-92" d="M454.25,139.76l3.59-2.09.07.09-3.59,2.09-.07-.09"/><path class="cls-92" d="M454.32,139.85l3.59-2.09.08.11L454.4,140l-.08-.1"/><path class="cls-92" d="M454.4,140l3.59-2.08.12.16-3.59,2.09-.12-.17"/><path class="cls-92" d="M454.52,140.12l3.59-2.09c0,.08.09.15.13.22l-3.58,2.09-.14-.22"/><path class="cls-92" d="M454.66,140.34l3.58-2.09.09.16-3.58,2.09-.09-.16"/><path class="cls-92" d="M454.75,140.5l3.58-2.09.06.11-3.58,2.09-.06-.11"/><path class="cls-92" d="M454.81,140.61l3.58-2.09.05.1-3.59,2.09a1,1,0,0,0,0-.1"/><path class="cls-92" d="M454.85,140.71l3.59-2.09,0,.09-3.59,2.08,0-.08"/><path class="cls-92" d="M454.89,140.79l3.59-2.08a.36.36,0,0,0,0,.09l-3.59,2.08a.36.36,0,0,0,0-.09"/><path class="cls-91" d="M454.93,140.88l3.59-2.08,0,.09L455,141l0-.09"/><path class="cls-90" d="M455,141l3.58-2.08,0,.09L455,141.06l0-.09"/><path class="cls-89" d="M455,141.06l3.59-2.08,0,.09L455,141.16l0-.1"/><path class="cls-88" d="M455,141.16l3.59-2.09,0,.1-3.59,2.08,0-.09"/><path class="cls-87" d="M455.06,141.25l3.59-2.08,0,.09-3.59,2.09,0-.1"/><path class="cls-86" d="M455.09,141.35l3.59-2.09s0,.07,0,.1l-3.58,2.08,0-.09"/><path class="cls-85" d="M455.12,141.44l3.58-2.08,0,.1-3.59,2.08s0-.06,0-.1"/><path class="cls-84" d="M455.14,141.54l3.59-2.08s0,.06,0,.09l-3.58,2.09s0-.07,0-.1"/><path class="cls-83" d="M455.16,141.64l3.58-2.09a.3.3,0,0,1,0,.1l-3.58,2.08s0-.06,0-.09"/><path class="cls-79" d="M455.18,141.73l3.58-2.08a.28.28,0,0,1,0,.09l-3.58,2.08a.28.28,0,0,1,0-.09"/><path class="cls-78" d="M455.19,141.82l3.58-2.08a.28.28,0,0,1,0,.09l-3.58,2.08s0-.06,0-.09"/><path class="cls-77" d="M455.2,141.91l3.58-2.08a.28.28,0,0,1,0,.09L455.21,142a.28.28,0,0,1,0-.09"/><path class="cls-76" d="M455.21,142l3.58-2.08V140l-3.58,2.09V142"/><path class="cls-60" d="M455.21,142.09l3.58-2.09a.28.28,0,0,1,0,.09l-3.59,2.08v-.08"/></g></g></g><polygon class="cls-85" points="459.35 151.22 462.93 149.14 497.17 168.91 493.59 170.99 459.35 151.22"/><g class="cls-3"><g class="cls-95"><g class="cls-3"><path class="cls-79" d="M493.59,171l3.58-2.08.13.07-3.58,2.09-.13-.08"/><path class="cls-78" d="M493.72,171.07,497.3,169l.17.09-3.58,2.08-.17-.08"/><path class="cls-77" d="M493.89,171.15l3.58-2.08.17.08-3.58,2.08-.17-.08"/><path class="cls-76" d="M494.06,171.23l3.58-2.08.17.07-3.59,2.08-.16-.07"/><path class="cls-60" d="M494.22,171.3l3.59-2.08.17.06-3.59,2.09-.17-.07"/><path class="cls-61" d="M494.39,171.37l3.59-2.09.16.06-3.58,2.08-.17,0"/><path class="cls-62" d="M494.56,171.42l3.58-2.08.17,0-3.58,2.08-.17-.05"/><path class="cls-63" d="M494.73,171.47l3.58-2.08.17,0-3.58,2.09-.17,0"/><path class="cls-64" d="M494.9,171.51l3.58-2.09.19,0-3.59,2.09-.18,0"/><path class="cls-65" d="M495.08,171.54l3.59-2.09.18,0-3.58,2.09-.19,0"/><path class="cls-66" d="M495.27,171.56l3.58-2.09h.2l-3.59,2.08h-.19"/><path class="cls-67" d="M495.46,171.56l3.59-2.08h.21l-3.58,2.08h-.22"/><path class="cls-68" d="M495.68,171.55l3.58-2.08.24,0-3.58,2.09-.24,0"/><path class="cls-69" d="M495.92,171.52l3.58-2.09a1.38,1.38,0,0,0,.29-.08l-3.58,2.09-.29.08"/><path class="cls-70" d="M496.21,171.44l3.58-2.09a2.07,2.07,0,0,0,.34-.15l-3.59,2.08a2,2,0,0,1-.33.16"/></g></g></g><g class="cls-3"><g class="cls-96"><g class="cls-3"><path d="M497.75,168.62l3.59-2.09v0l-3.59,2.08h0"/><path d="M497.75,168.63l3.59-2.08a1.41,1.41,0,0,1,0,.2l-3.58,2.08v-.2"/><path d="M497.75,168.83l3.58-2.08a1.21,1.21,0,0,1,0,.19L497.74,169c0-.07,0-.13,0-.2"/><path d="M497.74,169l3.58-2.09a1.23,1.23,0,0,1,0,.2l-3.58,2.09a1.23,1.23,0,0,1,0-.2"/><path d="M497.72,169.23l3.58-2.09,0,.2-3.58,2.09,0-.2"/><path d="M497.69,169.43l3.58-2.09a1.55,1.55,0,0,1,0,.21l-3.59,2.08c0-.07,0-.14.05-.2"/><path d="M497.64,169.63l3.59-2.08-.06.21-3.58,2.08a1.6,1.6,0,0,0,.05-.21"/><path d="M497.59,169.84l3.58-2.08a1.87,1.87,0,0,1-.07.22l-3.58,2.08c0-.07.05-.14.07-.22"/><path d="M497.52,170.06,501.1,168a1.6,1.6,0,0,1-.1.23l-3.58,2.09.1-.24"/><path d="M497.42,170.3l3.58-2.09-.15.29-3.59,2.08a2.54,2.54,0,0,0,.16-.28"/><path d="M497.26,170.58l3.59-2.08a2.28,2.28,0,0,1-.72.7l-3.59,2.08a2,2,0,0,0,.72-.7"/></g></g></g><polygon points="497.76 166.73 501.34 164.65 501.34 166.53 497.75 168.62 497.76 166.73"/><g class="cls-3"><g class="cls-97"><g class="cls-3"><path d="M498.29,165.56l3.59-2.09a1,1,0,0,0-.32.31L498,165.87a.84.84,0,0,1,.31-.31"/><path d="M498,165.87l3.58-2.09-.07.13L497.91,166a.75.75,0,0,1,.07-.12"/><path d="M497.91,166l3.58-2.08,0,.1-3.59,2.09.05-.11"/><path d="M497.86,166.1l3.59-2.09,0,.1-3.59,2.08,0-.09"/><path d="M497.83,166.19l3.59-2.08,0,.09-3.58,2.09a.36.36,0,0,1,0-.1"/><path d="M497.81,166.29l3.58-2.09s0,.06,0,.09l-3.58,2.09a.29.29,0,0,1,0-.09"/><path d="M497.79,166.38l3.58-2.09s0,.06,0,.09l-3.59,2.09s0-.06,0-.09"/><path d="M497.77,166.47l3.59-2.09s0,.06,0,.09l-3.58,2.08v-.08"/><path d="M497.77,166.55l3.58-2.08v.09l-3.59,2.08a.28.28,0,0,1,0-.09"/><path d="M497.76,166.64l3.59-2.08a.28.28,0,0,0,0,.09l-3.58,2.08v-.09"/><polyline points="497.76 166.73 501.34 164.65 501.34 164.65 497.76 166.73 497.76 166.73"/></g></g></g><g class="cls-3"><g class="cls-98"><g class="cls-3"><path class="cls-70" d="M498.29,165.56l3.59-2.09.15-.07-3.59,2.09-.15.07"/><path class="cls-69" d="M498.44,165.49,502,163.4l.13,0-3.59,2.08-.13,0"/><path class="cls-68" d="M498.57,165.45l3.59-2.08.1,0-3.58,2.09h-.11"/><path class="cls-67" d="M498.68,165.44l3.58-2.09h.1l-3.59,2.08h-.09"/><path class="cls-66" d="M498.77,165.43l3.59-2.08h.08l-3.58,2.09h-.09"/><path class="cls-65" d="M498.86,165.44l3.58-2.09h.08l-3.58,2.08h-.08"/><path class="cls-64" d="M498.94,165.44l3.58-2.08h.08L499,165.46l-.08,0"/><path class="cls-63" d="M499,165.46l3.58-2.09.08,0-3.59,2.08H499"/><path class="cls-62" d="M499.09,165.47l3.59-2.08.08,0-3.59,2.09-.08,0"/><path class="cls-61" d="M499.17,165.5l3.59-2.09.07,0-3.59,2.08-.07,0"/><path class="cls-60" d="M499.24,165.52l3.59-2.08.07,0-3.58,2.09-.08,0"/><path class="cls-76" d="M499.32,165.55l3.58-2.09.08,0-3.59,2.09-.07,0"/><path class="cls-77" d="M499.39,165.58l3.59-2.09.07,0-3.58,2.08-.08,0"/><path class="cls-78" d="M499.47,165.61l3.58-2.08.08,0-3.59,2.08-.07,0"/><path class="cls-79" d="M499.54,165.65l3.59-2.08.05,0-3.58,2.08-.06,0"/></g></g></g><polygon class="cls-93" points="514.2 182.14 517.79 180.06 517.29 354.51 513.71 356.59 514.2 182.14"/><polygon class="cls-85" points="499.6 165.69 503.18 163.6 510.84 168.02 507.25 170.1 499.6 165.69"/><polygon points="516.21 183.3 519.79 181.21 519.3 355.67 515.71 357.75 516.21 183.3"/><polygon points="445.73 132.27 449.31 130.19 510.85 165.72 507.26 167.8 445.73 132.27"/><path class="cls-99" d="M507.26,170.1a15.34,15.34,0,0,1,6.94,12l-.49,174.45c0,4.42-3.15,6.2-7,4L445.18,325a15.29,15.29,0,0,1-6.94-12l.49-174.45c0-4.43,3.14-6.21,7-4l7.66,4.42a4.05,4.05,0,0,1,1.83,3.17v1.88a9.09,9.09,0,0,0,4.14,7.17L493.59,171c2.29,1.33,4.16.26,4.16-2.37v-1.89c0-1.16.82-1.63,1.84-1Z"/><g class="cls-3"><g class="cls-101"><g class="cls-3"><path class="cls-79" d="M507.26,170.1l3.58-2.08.07,0-3.59,2.08-.06,0"/><path class="cls-83" d="M507.32,170.14l3.59-2.08.29.18-3.58,2.09-.3-.19"/><path class="cls-84" d="M507.62,170.33l3.58-2.09.3.2-3.59,2.08a2.9,2.9,0,0,0-.29-.19"/><path class="cls-85" d="M507.91,170.52l3.59-2.08.3.21-3.58,2.09-.31-.22"/><path class="cls-86" d="M508.22,170.74l3.58-2.09.31.24L508.52,171l-.3-.23"/><path class="cls-87" d="M508.52,171l3.59-2.08.31.25-3.59,2.08-.31-.25"/><path class="cls-88" d="M508.83,171.22l3.59-2.08.31.27-3.59,2.08-.31-.27"/><path class="cls-89" d="M509.14,171.49l3.59-2.08.3.28-3.58,2.09-.31-.29"/><path class="cls-90" d="M509.45,171.78l3.58-2.09.3.29-3.59,2.09a4,4,0,0,0-.29-.29"/><path class="cls-91" d="M509.74,172.07l3.59-2.09.28.3L510,172.37l-.29-.3"/><path class="cls-92" d="M510,172.37l3.58-2.09c.09.1.19.2.27.3l-3.58,2.09-.27-.3"/><path class="cls-92" d="M510.3,172.67l3.58-2.09a3.82,3.82,0,0,1,.27.32L510.57,173l-.27-.31"/><path class="cls-92" d="M510.57,173l3.58-2.08.27.33-3.58,2.09-.27-.34"/><path class="cls-92" d="M510.84,173.32l3.58-2.09.31.41-3.58,2.08c-.1-.14-.21-.27-.31-.4"/><path class="cls-92" d="M511.15,173.72l3.58-2.08c.15.2.3.41.44.63l-3.58,2.08-.44-.63"/><path class="cls-92" d="M511.59,174.35l3.58-2.08c.18.27.36.54.52.82l-3.58,2.08c-.17-.27-.34-.55-.52-.82"/><path class="cls-92" d="M512.11,175.17l3.58-2.08c.12.2.23.41.34.61l-3.58,2.09-.34-.62"/><path class="cls-92" d="M512.45,175.79,516,173.7c.08.14.15.28.22.42l-3.58,2.09-.22-.42"/><path class="cls-92" d="M512.67,176.21l3.58-2.09.18.37-3.59,2.08c-.05-.12-.11-.24-.17-.36"/><path class="cls-92" d="M512.84,176.57l3.59-2.08.15.34L513,176.91l-.16-.34"/><path class="cls-92" d="M513,176.91l3.58-2.08c0,.11.1.22.14.33l-3.58,2.08-.14-.33"/><path class="cls-91" d="M513.14,177.24l3.58-2.08a3.45,3.45,0,0,1,.14.34l-3.58,2.08c0-.11-.09-.22-.14-.34"/><path class="cls-90" d="M513.28,177.58l3.58-2.08.13.34-3.59,2.08-.12-.34"/><path class="cls-89" d="M513.4,177.92l3.59-2.08.12.35-3.58,2.09c0-.12-.08-.24-.13-.36"/><path class="cls-88" d="M513.53,178.28l3.58-2.09.12.37-3.59,2.08c0-.12-.07-.24-.11-.36"/><path class="cls-87" d="M513.64,178.64l3.59-2.08c0,.12.07.24.11.36L513.75,179c0-.13-.07-.25-.11-.37"/><path class="cls-86" d="M513.75,179l3.59-2.09.09.37-3.58,2.09c0-.13-.06-.25-.1-.37"/><path class="cls-85" d="M513.85,179.38l3.58-2.09.09.37-3.59,2.08c0-.12,0-.24-.08-.36"/><path class="cls-84" d="M513.93,179.74l3.59-2.08c0,.12.05.24.07.36L514,180.11c0-.13,0-.25-.08-.37"/><path class="cls-83" d="M514,180.11l3.58-2.09.06.35-3.58,2.09-.06-.35"/><path class="cls-79" d="M514.07,180.46l3.58-2.09c0,.12,0,.24.05.35l-3.58,2.09c0-.12,0-.24,0-.35"/><path class="cls-78" d="M514.12,180.81l3.58-2.09c0,.12,0,.23,0,.35l-3.58,2.08c0-.11,0-.23,0-.34"/><path class="cls-77" d="M514.16,181.15l3.58-2.08,0,.33-3.59,2.09c0-.12,0-.23,0-.34"/><path class="cls-76" d="M514.18,181.49l3.59-2.09c0,.12,0,.23,0,.34l-3.58,2.08c0-.11,0-.22,0-.33"/><path class="cls-60" d="M514.2,181.82l3.58-2.08c0,.11,0,.21,0,.31l-3.59,2.09v-.32"/></g></g></g><polygon class="cls-26" points="518.21 184.45 521.8 182.37 521.3 356.82 517.72 358.91 518.21 184.45"/><polygon class="cls-30" points="445.74 129.97 449.32 127.89 510.85 163.41 507.27 165.5 445.74 129.97"/><path d="M507.26,167.8c5,2.86,9,9.81,9,15.5l-.5,174.45c0,5.68-4.05,8-9,5.13l-61.53-35.53c-4.95-2.85-9-9.81-8.95-15.49l.49-174.45c0-5.69,4.06-8,9-5.14Zm6.45,188.79.49-174.45a15.34,15.34,0,0,0-6.94-12l-7.66-4.42c-1-.58-1.84-.11-1.84,1v1.89c0,2.63-1.87,3.7-4.16,2.37l-34.24-19.77a9.09,9.09,0,0,1-4.14-7.17v-1.88a4.05,4.05,0,0,0-1.83-3.17l-7.66-4.42c-3.85-2.22-7-.44-7,4L438.24,313a15.29,15.29,0,0,0,6.94,12l61.54,35.53c3.84,2.22,7,.44,7-4"/><g class="cls-3"><g class="cls-102"><g class="cls-3"><path d="M507.26,167.8l3.59-2.08.08.05-3.58,2.08-.09,0"/><path d="M507.35,167.85l3.58-2.08.38.23-3.58,2.08-.38-.23"/><path d="M507.73,168.08l3.58-2.08c.13.08.26.16.38.25l-3.58,2.08-.38-.25"/><path d="M508.11,168.33l3.58-2.08.39.28-3.58,2.08-.39-.28"/><path d="M508.5,168.61l3.58-2.08q.2.14.39.3l-3.58,2.08-.39-.3"/><path d="M508.89,168.91l3.58-2.08c.14.1.27.21.4.32l-3.58,2.09c-.13-.12-.27-.22-.4-.33"/><path d="M509.29,169.24l3.58-2.09.4.35-3.58,2.08-.4-.34"/><path d="M509.69,169.58l3.58-2.08.39.37L510.08,170l-.39-.37"/><path d="M510.08,170l3.58-2.08c.13.12.26.24.38.37l-3.58,2.08-.38-.37"/><path d="M510.46,170.32l3.58-2.08.37.38-3.59,2.09-.36-.39"/><path d="M510.82,170.71l3.59-2.09.35.39-3.59,2.09a4.4,4.4,0,0,0-.35-.39"/><path class="cls-44" d="M511.17,171.1l3.59-2.09.35.41-3.59,2.08c-.11-.14-.23-.27-.35-.4"/><path class="cls-45" d="M511.52,171.5l3.59-2.08c.11.14.23.28.34.43l-3.58,2.08-.35-.43"/><path class="cls-29" d="M511.87,171.93l3.58-2.08c.14.17.27.34.4.52l-3.59,2.08-.39-.52"/><path class="cls-46" d="M512.26,172.45l3.59-2.08q.28.39.57.81l-3.59,2.08q-.27-.4-.57-.81"/><path class="cls-47" d="M512.83,173.26l3.59-2.08c.23.35.46.7.67,1.07l-3.58,2.08c-.22-.36-.44-.72-.68-1.07"/><path class="cls-46" d="M513.51,174.33l3.58-2.08c.15.26.3.52.44.79L514,175.12c-.14-.27-.29-.53-.44-.79"/><path class="cls-29" d="M514,175.12l3.58-2.08c.1.18.19.36.28.54l-3.58,2.08-.28-.54"/><path class="cls-45" d="M514.23,175.66l3.58-2.08c.08.15.16.31.23.47l-3.58,2.08c-.08-.15-.15-.31-.23-.47"/><path class="cls-44" d="M514.46,176.13l3.58-2.08c.07.15.14.29.2.44l-3.58,2.08c-.07-.15-.14-.29-.2-.44"/><path d="M514.66,176.57l3.58-2.08.18.43L514.84,177l-.18-.43"/><path d="M514.84,177l3.58-2.08.18.43L515,177.44c0-.15-.11-.3-.17-.44"/><path d="M515,177.44l3.59-2.09c.06.15.11.3.17.44l-3.59,2.09c0-.15-.11-.3-.17-.44"/><path d="M515.18,177.88l3.59-2.09.15.46-3.58,2.08c-.05-.15-.1-.3-.16-.45"/><path d="M515.34,178.33l3.58-2.08a4.26,4.26,0,0,1,.15.47l-3.58,2.08-.15-.47"/><path d="M515.49,178.8l3.58-2.08c0,.15.1.31.14.47l-3.58,2.08-.14-.47"/><path d="M515.63,179.27l3.58-2.08c0,.16.09.32.13.48l-3.59,2.08-.12-.48"/><path d="M515.75,179.75l3.59-2.08c0,.15.07.31.11.47l-3.59,2.08c0-.16-.07-.31-.11-.47"/><path d="M515.86,180.22l3.59-2.08.09.46L516,180.69c0-.16-.06-.32-.1-.47"/><path d="M516,180.69l3.58-2.09c0,.15.06.3.08.46L516,181.14c0-.15,0-.3-.08-.45"/><path d="M516,181.14l3.58-2.08c0,.15,0,.3.06.45l-3.58,2.08-.06-.45"/><path d="M516.1,181.59l3.58-2.08c0,.14,0,.29.05.43L516.15,182c0-.15,0-.3,0-.44"/><path d="M516.15,182l3.58-2.09c0,.15,0,.29,0,.44l-3.59,2.08,0-.43"/><path d="M516.18,182.46l3.59-2.08c0,.14,0,.29,0,.43l-3.59,2.08c0-.14,0-.28,0-.43"/><path d="M516.2,182.89l3.59-2.08v.4l-3.58,2.09c0-.14,0-.27,0-.41"/></g></g></g><path class="cls-56" d="M507.27,165.5c6.06,3.5,11,12,10.94,18.95l-.49,174.46c0,7-5,9.78-11,6.27l-61.53-35.52c-6.07-3.5-11-12-10.95-19l.5-174.45c0-7,4.95-9.78,11-6.28Zm8.44,192.25.5-174.45c0-5.69-4-12.64-9-15.5l-61.53-35.53c-5-2.85-9-.55-9,5.14l-.49,174.45c0,5.68,4,12.64,8.95,15.49l61.53,35.53c5,2.86,9,.55,9-5.13"/><g class="cls-3"><g class="cls-103"><g class="cls-3"><path class="cls-27" d="M507.27,165.5l3.58-2.09.11.07-3.58,2.08-.11-.06"/><path class="cls-28" d="M507.38,165.56l3.58-2.08.47.28-3.59,2.08-.46-.28"/><path class="cls-29" d="M507.84,165.84l3.59-2.08.46.31-3.58,2.08-.47-.31"/><path class="cls-30" d="M508.31,166.15l3.58-2.08.48.34-3.58,2.08-.48-.34"/><path class="cls-31" d="M508.79,166.49l3.58-2.08.48.37-3.58,2.08-.48-.37"/><path class="cls-32" d="M509.27,166.86l3.58-2.08.49.4-3.58,2.08-.49-.4"/><path class="cls-33" d="M509.76,167.26l3.58-2.08.49.42-3.59,2.08-.48-.42"/><path class="cls-34" d="M510.24,167.68l3.59-2.08.48.45-3.58,2.08-.49-.45"/><path class="cls-35" d="M510.73,168.13l3.58-2.08c.16.15.31.3.46.46l-3.58,2.08-.46-.46"/><path class="cls-36" d="M511.19,168.59l3.58-2.08c.16.15.31.31.45.47l-3.58,2.08-.45-.47"/><path class="cls-37" d="M511.64,169.06l3.58-2.08c.15.15.29.31.43.47l-3.58,2.08-.43-.47"/><path class="cls-38" d="M512.07,169.53l3.58-2.08.43.5L512.49,170l-.42-.5"/><path class="cls-39" d="M512.49,170l3.59-2.08.42.52-3.59,2.08-.42-.52"/><path class="cls-40" d="M512.91,170.55l3.59-2.08.49.64-3.59,2.09c-.16-.22-.32-.44-.49-.65"/><path class="cls-41" d="M513.4,171.2l3.59-2.09q.36.49.69,1l-3.58,2.09c-.23-.34-.46-.67-.7-1"/><path class="cls-42" d="M514.1,172.19l3.58-2.09c.28.43.56.86.82,1.3l-3.59,2.08q-.39-.66-.81-1.29"/><path class="cls-41" d="M514.91,173.48l3.59-2.08.54,1-3.59,2.09c-.17-.33-.35-.65-.54-1"/><path class="cls-40" d="M515.45,174.45l3.59-2.09.34.66-3.59,2.09c-.11-.22-.22-.44-.34-.66"/><path class="cls-39" d="M515.79,175.11l3.59-2.09c.09.2.19.39.28.58l-3.59,2.09c-.09-.2-.18-.39-.28-.58"/><path class="cls-38" d="M516.07,175.69l3.59-2.09.24.53-3.59,2.09a5.05,5.05,0,0,0-.24-.53"/><path class="cls-37" d="M516.31,176.22l3.59-2.09c.08.18.15.35.22.53l-3.58,2.08c-.07-.18-.15-.35-.23-.52"/><path class="cls-36" d="M516.54,176.74l3.58-2.08c.08.17.15.35.22.53l-3.59,2.08-.21-.53"/><path class="cls-35" d="M516.75,177.27l3.59-2.08c.07.18.14.36.2.54L517,177.81l-.21-.54"/><path class="cls-34" d="M517,177.81l3.58-2.08c.07.18.13.37.2.56l-3.59,2.08c-.06-.19-.13-.37-.19-.56"/><path class="cls-33" d="M517.15,178.37l3.59-2.08.18.56-3.59,2.09-.18-.57"/><path class="cls-32" d="M517.33,178.94l3.59-2.09c.06.2.11.39.17.58l-3.59,2.09c0-.2-.11-.39-.17-.58"/><path class="cls-31" d="M517.5,179.52l3.59-2.09.15.59-3.59,2.08c0-.19-.09-.39-.15-.58"/><path class="cls-30" d="M517.65,180.1l3.59-2.08c0,.19.09.38.13.57l-3.58,2.09c0-.2-.09-.39-.14-.58"/><path class="cls-29" d="M517.79,180.68l3.58-2.09c0,.19.08.38.12.58l-3.59,2.08c0-.19-.07-.38-.11-.57"/><path class="cls-28" d="M517.9,181.25l3.59-2.08c0,.18.07.37.1.55L518,181.8c0-.18-.06-.37-.1-.55"/><path class="cls-27" d="M518,181.8l3.59-2.08c0,.18,0,.37.07.55l-3.58,2.09c0-.19-.05-.37-.08-.56"/><path class="cls-26" d="M518.08,182.36l3.58-2.09a5,5,0,0,1,.06.54l-3.58,2.08-.06-.53"/><path class="cls-25" d="M518.14,182.89l3.58-2.08c0,.18,0,.36,0,.53l-3.59,2.09c0-.18,0-.36,0-.54"/><path class="cls-24" d="M518.18,183.43l3.59-2.09c0,.18,0,.36,0,.54L518.21,184l0-.53"/><path class="cls-23" d="M518.21,184l3.58-2.08c0,.16,0,.33,0,.49l-3.59,2.08V184"/></g></g></g></g><polygon class="cls-8" points="454.32 314.65 455.15 318.11 457.87 319.68 455.67 320.25 456.5 323.71 454.3 320.59 452.1 321.16 452.95 318.68 450.75 315.57 453.47 317.14 454.32 314.65"/><polygon class="cls-8" points="463.47 319.93 464.3 323.39 467.02 324.96 464.81 325.53 465.64 328.99 463.45 325.88 461.25 326.45 462.09 323.96 459.9 320.85 462.62 322.42 463.47 319.93"/><polygon class="cls-8" points="472.61 325.21 473.45 328.67 476.16 330.24 473.96 330.81 474.79 334.27 472.6 331.16 470.39 331.73 471.24 329.24 469.04 326.13 471.76 327.7 472.61 325.21"/><polygon class="cls-8" points="481.76 330.49 482.59 333.95 485.31 335.52 483.11 336.09 483.94 339.55 481.74 336.44 479.54 337 480.38 334.52 478.19 331.41 480.91 332.98 481.76 330.49"/><polygon class="cls-104" points="490.9 335.77 491.74 339.23 494.46 340.8 492.25 341.37 493.08 344.83 490.89 341.72 488.68 342.29 489.53 339.8 487.34 336.69 490.05 338.26 490.9 335.77"/><g class="cls-105"><path class="cls-8" d="M448.74,246.46a9.55,9.55,0,0,1,4.32,7.49c0,2.75-2,3.87-4.35,2.48a9.51,9.51,0,0,1-4.32-7.48C444.39,246.19,446.34,245.08,448.74,246.46Z"/><polygon class="cls-8" points="500.21 276.42 500.19 280.12 456.51 254.9 456.52 251.2 500.21 276.42"/><polygon class="cls-8" points="500.19 282.21 500.18 285.91 456.5 260.69 456.51 256.99 500.19 282.21"/><path class="cls-8" d="M504.09,278.48a1.22,1.22,0,0,1,.44.46l3.46,6c.24.41.24.86,0,1l-3.49,2a.42.42,0,0,1-.43,0,1.22,1.22,0,0,1-.44-.46c-.23-.41-.23-.86,0-1l3.05-1.74-3-5.25a1.24,1.24,0,0,1-.18-.6.45.45,0,0,1,.18-.4A.43.43,0,0,1,504.09,278.48Z"/></g><g class="cls-105"><path class="cls-8" d="M448.74,223.73a9.54,9.54,0,0,1,4.32,7.49c0,2.75-2,3.86-4.35,2.48a9.51,9.51,0,0,1-4.32-7.48C444.39,223.46,446.34,222.35,448.74,223.73Z"/><polygon class="cls-8" points="500.21 253.69 500.19 257.39 456.51 232.17 456.52 228.47 500.21 253.69"/><polygon class="cls-8" points="500.19 259.48 500.18 263.18 456.5 237.96 456.51 234.26 500.19 259.48"/><path class="cls-8" d="M504.09,255.75a1.27,1.27,0,0,1,.44.45l3.46,6c.24.42.24.87,0,1l-3.49,2a.42.42,0,0,1-.43,0,1.39,1.39,0,0,1-.44-.46c-.23-.42-.23-.86,0-1l3.05-1.74-3-5.25a1.24,1.24,0,0,1-.18-.6.45.45,0,0,1,.18-.4A.43.43,0,0,1,504.09,255.75Z"/></g><path class="cls-8" d="M501.24,297.13a12.44,12.44,0,0,1,5.64,9.77l-.05,16.82c0,3.49-2.47,4.89-5.5,3.14l-53.64-31a12.09,12.09,0,0,1-5.47-9.48l0-16.83c0-3.59,2.55-5,5.68-3.23Z"/><polygon class="cls-106" points="488.8 302.67 492.63 307.51 488.78 307.92 488.8 302.67"/><polygon class="cls-106" points="494.63 305.79 494.61 311.24 493.7 310.71 493.71 305.27 494.63 305.79"/><polygon class="cls-106" points="457.95 284.68 457.93 289.94 454.1 285.1 457.95 284.68"/><polygon class="cls-106" points="453.04 281.9 453.02 287.34 452.11 286.81 452.12 281.37 453.04 281.9"/><path class="cls-106" d="M473.63,287.78a16.4,16.4,0,0,1,7.45,12.89c0,4.75-3.37,6.66-7.5,4.28a16.39,16.39,0,0,1-7.44-12.9C466.15,287.31,469.5,285.39,473.63,287.78Z"/><polygon class="cls-8" points="471.85 291.68 477.02 298.21 471.83 298.76 471.85 291.68"/><path class="cls-9" d="M499.7,331a2.67,2.67,0,0,1,1.21,2.09c0,.77-.55,1.07-1.22.69l-12.62-7.29a2.2,2.2,0,0,0,.22-1,4.64,4.64,0,0,0-.46-1.9Z"/><path class="cls-107" d="M484.92,321.32a5,5,0,0,1,1.91,2.2,4.64,4.64,0,0,1,.46,1.9,2.2,2.2,0,0,1-.22,1c-.38.71-1.21.89-2.16.34a5.3,5.3,0,0,1-2.15-2.83,4.14,4.14,0,0,1-.22-1.27,1.84,1.84,0,0,1,.48-1.36A1.53,1.53,0,0,1,484.92,321.32Z"/><path class="cls-2" d="M483,321.32a1.84,1.84,0,0,0-.48,1.36,4.14,4.14,0,0,0,.22,1.27l-39.27-22.67a2.63,2.63,0,0,1-1.2-2.08c0-.77.54-1.08,1.21-.7Z"/><path class="cls-8" d="M503.21,187.3a12.45,12.45,0,0,1,5.64,9.78L508.73,239c0,3.6-2.55,5-5.68,3.24l-53.29-30.77a12.44,12.44,0,0,1-5.65-9.78l.12-41.92c0-3.59,2.55-5,5.68-3.24Z"/><path class="cls-10" d="M485.57,215.89a9.93,9.93,0,0,1,4.51,7.81c0,2.87-2,4-4.54,2.59l-24.11-13.92a10,10,0,0,1-4.51-7.82c0-2.87,2-4,4.54-2.58Z"/><polygon class="cls-8" points="466.38 208.53 466.38 211.21 467.82 212.04 467.82 212.67 465.7 211.45 465.71 208.14 466.38 208.53"/><path class="cls-8" d="M470.25,212.12a2.07,2.07,0,0,1,.15.77,1,1,0,0,1-.15.58.56.56,0,0,1-.44.22,1.13,1.13,0,0,1-.63-.19,2.44,2.44,0,0,1-.62-.54,2.25,2.25,0,0,1-.43-.71,2,2,0,0,1-.16-.77,1,1,0,0,1,.16-.59.61.61,0,0,1,.43-.21,1.35,1.35,0,0,1,.63.19,2.51,2.51,0,0,1,1.06,1.25Zm-.57.73a.62.62,0,0,0,.08-.33,1.26,1.26,0,0,0-.08-.43,1.1,1.1,0,0,0-.2-.35,1.18,1.18,0,0,0-.29-.26.43.43,0,0,0-.29-.07.24.24,0,0,0-.2.11.63.63,0,0,0-.08.34,1.16,1.16,0,0,0,.07.42,1.55,1.55,0,0,0,.21.36,1,1,0,0,0,.29.25.46.46,0,0,0,.28.08.24.24,0,0,0,.21-.12"/><path class="cls-8" d="M472.51,212.84l.61.35v2.11c0,.48-.1.76-.32.86a1,1,0,0,1-.92-.19,3.62,3.62,0,0,1-.61-.44,3,3,0,0,1-.48-.54l.26-.38a2.18,2.18,0,0,0,.35.41,2.36,2.36,0,0,0,.43.33c.23.13.4.17.5.11s.15-.2.15-.43v-.11a.43.43,0,0,1-.2.07,1,1,0,0,1-.5-.16,2.22,2.22,0,0,1-.56-.47,3,3,0,0,1-.4-.67,1.86,1.86,0,0,1-.14-.73.88.88,0,0,1,.15-.57.53.53,0,0,1,.4-.19,1,1,0,0,1,.56.17,1.62,1.62,0,0,1,.49.42,1.57,1.57,0,0,1,.24.37Zm-.11,1.46a.43.43,0,0,0,.08-.29,1,1,0,0,0-.07-.38,1.52,1.52,0,0,0-.21-.33,1,1,0,0,0-.3-.25.54.54,0,0,0-.3-.09.23.23,0,0,0-.2.09.48.48,0,0,0-.08.29.83.83,0,0,0,.08.37.94.94,0,0,0,.2.33,1.22,1.22,0,0,0,.3.26.54.54,0,0,0,.3.09.23.23,0,0,0,.2-.09"/><polygon class="cls-8" points="475.6 213.85 475.59 217.16 474.92 216.77 474.93 213.46 475.6 213.85"/><path class="cls-8" d="M477.58,215.72a1.76,1.76,0,0,1,.47.4,1.87,1.87,0,0,1,.33.55,2.25,2.25,0,0,1,.12.71v1.45l-.64-.37v-1.34a1.14,1.14,0,0,0-.11-.52.83.83,0,0,0-.33-.34.6.6,0,0,0-.28-.09.22.22,0,0,0-.19.12.66.66,0,0,0-.07.35v1.25l-.63-.37V215l.62.36v.3a.39.39,0,0,1,.22-.08A1,1,0,0,1,477.58,215.72Z"/><path class="cls-9" d="M497.36,191.75a10.92,10.92,0,0,1,5,8.58c0,3.16-2.25,4.43-5,2.85l-42.2-24.37a10.93,10.93,0,0,1-4.95-8.59c0-3.15,2.24-4.43,5-2.84Z"/><path class="cls-9" d="M496.55,206.91a10.89,10.89,0,0,1,5,8.58c0,3.16-2.24,4.43-5,2.85L454.31,194a10.93,10.93,0,0,1-4.95-8.59c0-3.16,2.24-4.43,5-2.84Z"/><path class="cls-2" d="M455.56,170a6.16,6.16,0,0,1,2.79,4.82c0,1.78-1.26,2.49-2.81,1.6a6.12,6.12,0,0,1-2.78-4.82C452.76,169.81,454,169.1,455.56,170Z"/><path class="cls-2" d="M455.56,185.63a6.16,6.16,0,0,1,2.79,4.82c0,1.78-1.26,2.49-2.81,1.6a6.13,6.13,0,0,1-2.78-4.83C452.76,185.45,454,184.73,455.56,185.63Z"/><polygon class="cls-8" points="450.17 143.81 450.16 145.14 444.1 141.63 444.1 140.3 450.17 143.81"/><polygon class="cls-8" points="450.17 146.63 450.16 147.96 444.1 144.46 444.1 143.12 450.17 146.63"/><polygon class="cls-8" points="450.17 149.45 450.16 150.78 444.1 147.28 444.1 145.94 450.17 149.45"/><path class="cls-8" d="M508.25,178.8a1.06,1.06,0,0,1,.48.82v.63c0,.3-.21.43-.48.27l-.14-.08c-.43-.24-.64.22-.34.74l.1.18c.19.32.18.67,0,.78l-.39.22a.36.36,0,0,1-.34,0,1,1,0,0,1-.34-.35l-.1-.18a1,1,0,0,0-.33-.36c-.25-.14-.48-.05-.48.28v.16c0,.31-.22.43-.48.28l-.55-.32a1.06,1.06,0,0,1-.48-.82v-.17a1,1,0,0,0-.48-.83.31.31,0,0,0-.33,0l-.11.06a.34.34,0,0,1-.33,0,.88.88,0,0,1-.34-.35l-.39-.67c-.18-.32-.18-.67,0-.78l.1-.06c.3-.17.09-.88-.34-1.13l-.14-.08a1,1,0,0,1-.48-.83v-.62c0-.31.22-.43.48-.28l.15.09c.43.24.64-.23.34-.75l-.1-.18c-.19-.32-.19-.67,0-.77l.39-.22a.35.35,0,0,1,.34,0,1,1,0,0,1,.33.36l.1.18a1,1,0,0,0,.34.35c.25.14.48.06.48-.27v-.17c0-.3.22-.43.48-.27l.55.31a1.08,1.08,0,0,1,.48.83v.17a1,1,0,0,0,.47.83.38.38,0,0,0,.34,0l.1-.06a.33.33,0,0,1,.34,0,1,1,0,0,1,.34.36l.39.67c.18.31.18.66,0,.77l-.1.06c-.3.17-.09.89.34,1.13Zm-3.12.53c.7.41,1.28.08,1.28-.73a2.84,2.84,0,0,0-1.27-2.21c-.71-.41-1.29-.08-1.29.73a2.82,2.82,0,0,0,1.28,2.21"/><g class="cls-108"><path class="cls-109" d="M507.26,170.1l-7.66-4.42c-1-.58-1.84-.11-1.84,1v1.89c0,2.63-1.87,3.7-4.16,2.37l-34.24-19.77a9.09,9.09,0,0,1-4.14-7.17v-1.88a4.05,4.05,0,0,0-1.83-3.17l-7.66-4.42c-3.85-2.22-7-.44-7,4L438.24,311l72.7-137.51A13.21,13.21,0,0,0,507.26,170.1Z"/></g><path class="cls-8" d="M596.55,218.76c6,3.45,10.8,11.81,10.78,18.68s-4.88,9.63-10.85,6.18l-56.6-32.68c-6-3.45-10.8-11.81-10.78-18.67s4.88-9.64,10.85-6.19Z"/><g class="cls-7"><path class="cls-8" d="M601.06,213.19c6,3.46,10.8,11.81,10.79,18.68S607,241.5,601,238.05l-56.6-32.67c-6-3.45-10.79-11.81-10.77-18.67s4.87-9.64,10.84-6.19Z"/></g><path class="cls-9" d="M541.21,196.27a3.73,3.73,0,0,1,.64.45,4.22,4.22,0,0,1,.55.57l-.25.55a4.77,4.77,0,0,0-.48-.51,2.72,2.72,0,0,0-.46-.34,1.7,1.7,0,0,0-.37-.16.29.29,0,0,0-.22,0,.37.37,0,0,0,0,.2.56.56,0,0,0,.1.3,1.57,1.57,0,0,0,.28.31l.39.33.42.37a3,3,0,0,1,.38.42,2.18,2.18,0,0,1,.29.49,1.32,1.32,0,0,1,.1.57.74.74,0,0,1-.16.51.58.58,0,0,1-.48.16,2,2,0,0,1-.8-.29,4.64,4.64,0,0,1-.78-.58,4,4,0,0,1-.6-.67l.27-.53a3.91,3.91,0,0,0,.51.59,2.79,2.79,0,0,0,.61.46,1.41,1.41,0,0,0,.37.17.26.26,0,0,0,.22,0,.24.24,0,0,0,.06-.18.57.57,0,0,0-.1-.31,2.53,2.53,0,0,0-.28-.31l-.39-.33c-.14-.12-.28-.24-.42-.38a3.88,3.88,0,0,1-.39-.42,2.15,2.15,0,0,1-.28-.49,1.52,1.52,0,0,1-.11-.57.81.81,0,0,1,.16-.52.55.55,0,0,1,.48-.17A1.92,1.92,0,0,1,541.21,196.27Z"/><path class="cls-9" d="M545.4,200.33a2.52,2.52,0,0,1,.17.94v.22l-2-1.14a1.38,1.38,0,0,0,.08.27,1.34,1.34,0,0,0,.27.44,1.64,1.64,0,0,0,.4.33,1,1,0,0,0,.37.14.58.58,0,0,0,.29-.06l.4.74a.67.67,0,0,1-.46.1,1.57,1.57,0,0,1-.62-.24,2.71,2.71,0,0,1-.78-.65,3,3,0,0,1-.52-.85,2.42,2.42,0,0,1-.19-.9A1.11,1.11,0,0,1,543,199a.65.65,0,0,1,.49-.27,1.38,1.38,0,0,1,.72.22,2.71,2.71,0,0,1,.69.59A3,3,0,0,1,545.4,200.33Zm-1.82-.49,1.28.75a.94.94,0,0,0-.07-.3,1.5,1.5,0,0,0-.23-.41,1.19,1.19,0,0,0-.34-.29.6.6,0,0,0-.34-.1.29.29,0,0,0-.23.14.44.44,0,0,0-.07.21"/><path class="cls-9" d="M548,201.43a2.15,2.15,0,0,1,.32,1.2v1.71l-.71-.41v-.38a.26.26,0,0,1-.23.13.85.85,0,0,1-.57-.17,2.13,2.13,0,0,1-.52-.42,1.7,1.7,0,0,1-.33-.52,1.31,1.31,0,0,1-.12-.53.66.66,0,0,1,.12-.4.4.4,0,0,1,.36-.11,1.82,1.82,0,0,1,.64.26l.6.35a.87.87,0,0,0-.14-.52,1.31,1.31,0,0,0-.45-.42,1.51,1.51,0,0,0-.41-.16.82.82,0,0,0-.35,0l-.26-.76a1.14,1.14,0,0,1,.51,0,2.29,2.29,0,0,1,.61.26A2.67,2.67,0,0,1,548,201.43Zm-.44,1.52v-.3l-.51-.3c-.18-.11-.3-.15-.37-.11s-.1.09-.1.19a.62.62,0,0,0,.11.33,1,1,0,0,0,.32.28.55.55,0,0,0,.33.09.24.24,0,0,0,.22-.18"/><path class="cls-9" d="M550.62,202.62v.8l-.08,0-.08-.05a.57.57,0,0,0-.51-.09c-.12.06-.19.24-.19.52v1.42l-.76-.44v-3l.72.42v.39a.37.37,0,0,1,.27-.11A1.2,1.2,0,0,1,550.62,202.62Z"/><path class="cls-9" d="M552.31,203.6a2.59,2.59,0,0,1,.71.61,2.71,2.71,0,0,1,.46.83l-.59,0a1.84,1.84,0,0,0-.26-.46,1.28,1.28,0,0,0-.33-.29.57.57,0,0,0-.35-.1.27.27,0,0,0-.24.14.67.67,0,0,0-.1.39,1.39,1.39,0,0,0,.09.5,1.64,1.64,0,0,0,.24.43,1.44,1.44,0,0,0,.36.3.55.55,0,0,0,.33.09.32.32,0,0,0,.25-.17l.59.72a.54.54,0,0,1-.45.29,1.22,1.22,0,0,1-.72-.21,2.71,2.71,0,0,1-.75-.64,2.86,2.86,0,0,1-.52-.84,2.5,2.5,0,0,1-.18-.91,1.07,1.07,0,0,1,.19-.69.61.61,0,0,1,.51-.25A1.51,1.51,0,0,1,552.31,203.6Z"/><path class="cls-9" d="M554.65,203.85v1.46a.48.48,0,0,1,.24-.06,1.13,1.13,0,0,1,.6.18,2.21,2.21,0,0,1,.55.46,2.17,2.17,0,0,1,.39.66,2.37,2.37,0,0,1,.13.83v1.71l-.76-.43v-1.58a1.29,1.29,0,0,0-.14-.62,1.07,1.07,0,0,0-.39-.4.74.74,0,0,0-.32-.1.24.24,0,0,0-.22.14.73.73,0,0,0-.09.41V208l-.76-.43,0-4.14Z"/><path class="cls-2" d="M596.83,224a15.33,15.33,0,0,1,7,12.06c0,4.43-3.15,6.22-7,4a15.35,15.35,0,0,1-7-12.06C589.84,223.61,593,221.82,596.83,224Z"/><path class="cls-8" d="M600,236.88c.21.36.21.76,0,.88a.38.38,0,0,1-.38,0,1,1,0,0,1-.38-.41l-1.47-2.53a2.23,2.23,0,0,1-1.5-.34,6,6,0,0,1-2.69-4.66c0-1.71,1.22-2.4,2.71-1.54A6,6,0,0,1,599,232.9a2.22,2.22,0,0,1-.44,1.43Zm-3.74-3.69c.89.52,1.62.1,1.62-.92a3.55,3.55,0,0,0-1.61-2.78c-.88-.52-1.61-.1-1.62.92a3.57,3.57,0,0,0,1.61,2.78"/><polygon class="cls-8" points="547.37 327.16 547.3 353.02 543.13 350.62 543.2 324.76 547.37 327.16"/><polygon class="cls-8" points="561.32 316.26 561.19 361.05 557.02 358.64 557.15 313.86 561.32 316.26"/><polygon class="cls-8" points="574.77 331.23 574.67 368.83 570.5 366.42 570.61 328.82 574.77 331.23"/><polygon class="cls-8" points="588.61 360.81 588.56 376.85 584.39 374.44 584.44 358.4 588.61 360.81"/><polygon class="cls-110" points="554.35 319.44 554.25 357.04 550.08 354.63 550.18 317.03 554.35 319.44"/><polygon class="cls-111" points="568.18 349.01 568.14 365.06 563.97 362.65 564.01 346.61 568.18 349.01"/><polygon class="cls-112" points="581.74 328.06 581.62 372.84 577.45 370.43 577.58 325.65 581.74 328.06"/><polygon class="cls-113" points="539.77 296.33 539.63 349.01 535.46 346.61 535.61 293.92 539.77 296.33"/><path class="cls-8" d="M537.33,351.65a3.81,3.81,0,0,1,1.74,3c0,1.11-.78,1.56-1.75,1a3.87,3.87,0,0,1-1.74-3C535.59,351.54,536.37,351.1,537.33,351.65Z"/><path class="cls-8" d="M544.35,355.61a3.87,3.87,0,0,1,1.74,3c0,1.1-.79,1.55-1.75,1a3.82,3.82,0,0,1-1.75-3C542.6,355.5,543.38,355.05,544.35,355.61Z"/><path class="cls-8" d="M551.36,359.56a3.87,3.87,0,0,1,1.74,3c0,1.11-.79,1.56-1.75,1a3.81,3.81,0,0,1-1.74-3C549.61,359.46,550.39,359,551.36,359.56Z"/><path class="cls-8" d="M558.37,363.52a3.81,3.81,0,0,1,1.74,3c0,1.11-.78,1.55-1.75,1a3.87,3.87,0,0,1-1.74-3C556.62,363.41,557.41,363,558.37,363.52Z"/><path class="cls-8" d="M565.39,367.48a3.83,3.83,0,0,1,1.74,3c0,1.11-.79,1.56-1.76,1a3.86,3.86,0,0,1-1.74-3C563.64,367.37,564.42,366.92,565.39,367.48Z"/><path class="cls-8" d="M572.4,371.43a3.87,3.87,0,0,1,1.74,3c0,1.11-.79,1.55-1.75,1a3.81,3.81,0,0,1-1.74-3C570.65,371.32,571.43,370.87,572.4,371.43Z"/><path class="cls-8" d="M579.41,375.39a3.78,3.78,0,0,1,1.74,3c0,1.11-.79,1.56-1.75,1a3.82,3.82,0,0,1-1.74-3C577.66,375.28,578.45,374.83,579.41,375.39Z"/><path class="cls-8" d="M586.42,379.34a3.85,3.85,0,0,1,1.75,3c0,1.11-.79,1.55-1.76,1a3.87,3.87,0,0,1-1.74-3C584.68,379.23,585.46,378.79,586.42,379.34Z"/><path class="cls-8" d="M601.26,265.12a12.45,12.45,0,0,1,5.64,9.78l-.12,42.57c0,3.59-2.55,5-5.68,3.24l-66.9-38.63a12.41,12.41,0,0,1-5.64-9.77l.12-42.58c0-3.59,2.55-5,5.68-3.23Z"/><g class="cls-7"><path class="cls-8" d="M608,261.74a12.43,12.43,0,0,1,5.65,9.78l-.12,42.57c0,3.59-2.56,5-5.69,3.24L541,278.7a12.47,12.47,0,0,1-5.64-9.78l.12-42.57c0-3.6,2.55-5,5.68-3.24Z"/></g><polygon class="cls-9" points="596.48 279.29 596.47 284.85 552.46 259.44 552.47 253.88 596.48 279.29"/><polygon class="cls-9" points="596.48 287.77 596.47 293.32 552.46 267.92 552.47 262.36 596.48 287.77"/><path class="cls-10" d="M577.44,290a10.23,10.23,0,0,1,4.65,8.06c0,3-2.1,4.16-4.68,2.67l-24.88-14.36a10.3,10.3,0,0,1-4.66-8.06c0-3,2.11-4.17,4.69-2.68Z"/><path class="cls-2" d="M559.72,250.23a3.2,3.2,0,0,1,.22,1.13,1.41,1.41,0,0,1-.23.85.83.83,0,0,1-.63.32,1.82,1.82,0,0,1-.92-.28,3.57,3.57,0,0,1-.92-.78,4.31,4.31,0,0,1-.63-1.05,3,3,0,0,1-.22-1.11,1.4,1.4,0,0,1,.23-.86.75.75,0,0,1,.63-.31,1.64,1.64,0,0,1,.92.28,3.38,3.38,0,0,1,.92.78A4.19,4.19,0,0,1,559.72,250.23Zm-.84,1.07a1,1,0,0,0,.11-.49,1.85,1.85,0,0,0-.4-1.13,1.44,1.44,0,0,0-.42-.37.68.68,0,0,0-.42-.12.37.37,0,0,0-.3.18.81.81,0,0,0-.11.49,1.81,1.81,0,0,0,.1.61,2,2,0,0,0,.3.52,1.46,1.46,0,0,0,.42.37.76.76,0,0,0,.43.12.39.39,0,0,0,.29-.18"/><polygon class="cls-2" points="556.65 246.47 555.01 248.65 555 250.37 554.03 249.81 554.04 248.09 552.41 244.03 553.45 244.62 554.56 247.42 555.7 245.93 556.65 246.47"/><path class="cls-2" d="M563.83,251.74v3.72l-.89-.52v-.43a.59.59,0,0,1-.32.11,1.31,1.31,0,0,1-.69-.2,2.52,2.52,0,0,1-.71-.6,2.42,2.42,0,0,1-.49-.82,3,3,0,0,1-.17-1.05v-2.1l.94.54v1.94a1.67,1.67,0,0,0,.17.78,1.31,1.31,0,0,0,.49.5.6.6,0,0,0,.38.11.32.32,0,0,0,.27-.17,1.12,1.12,0,0,0,.1-.51V251.2Z"/><path class="cls-2" d="M566.71,253.35v1l-.11-.08-.1-.06a.66.66,0,0,0-.62-.11c-.16.08-.25.29-.25.65v1.75l-.94-.54v-3.71l.9.52v.48a.53.53,0,0,1,.33-.15A1.46,1.46,0,0,1,566.71,253.35Z"/><polygon class="cls-2" points="572.25 255.48 572.25 256.39 570.9 255.62 570.89 259.54 569.92 258.98 569.93 255.06 568.59 254.28 568.59 253.37 572.25 255.48"/><polygon class="cls-2" points="572.7 260.58 572.71 256.87 573.65 257.41 573.64 261.13 572.7 260.58"/><path class="cls-2" d="M573.18,256.62a1.27,1.27,0,0,1-.42-.41,1,1,0,0,1-.16-.53c0-.17,0-.28.16-.33a.46.46,0,0,1,.42.07,1.34,1.34,0,0,1,.42.4,1,1,0,0,1,.17.52.37.37,0,0,1-.16.35C573.5,256.75,573.36,256.72,573.18,256.62Z"/><path class="cls-2" d="M575.57,257.7v.9l.81.47v.83l-.8-.47v1.51a.83.83,0,0,0,.11.43.72.72,0,0,0,.3.3.49.49,0,0,0,.37.08l.26.91a.62.62,0,0,1-.35,0,2.38,2.38,0,0,1-1.31-1,2.13,2.13,0,0,1-.31-1.18v-1.53l-.5-.29v-.82l.5.28v-.9Z"/><polygon class="cls-2" points="578.08 258.56 578.06 263.68 577.13 263.14 577.14 258.02 578.08 258.56"/><path class="cls-2" d="M581.89,263a3.07,3.07,0,0,1,.22,1.16v.29L579.64,263a2,2,0,0,0,.09.33,2.11,2.11,0,0,0,.33.54,2,2,0,0,0,.51.41,1.27,1.27,0,0,0,.45.17.56.56,0,0,0,.36-.06l.5.91a.76.76,0,0,1-.57.12,2,2,0,0,1-.77-.29,3.82,3.82,0,0,1-1.61-1.86,3,3,0,0,1-.23-1.12,1.42,1.42,0,0,1,.23-.86.78.78,0,0,1,.62-.32,1.59,1.59,0,0,1,.88.26,3.09,3.09,0,0,1,.85.73A3.58,3.58,0,0,1,581.89,263Zm-2.26-.6,1.59.91a1.25,1.25,0,0,0-.09-.37,1.42,1.42,0,0,0-.28-.49,1.47,1.47,0,0,0-.42-.37A.75.75,0,0,0,580,262a.39.39,0,0,0-.29.17.85.85,0,0,0-.09.27"/><path class="cls-8" d="M559.48,285.45a1.3,1.3,0,0,1,.12.55c0,.28-.1.45-.3.5a1.39,1.39,0,0,1-.85-.26l-1.5-.87v-3.31l1.41.82a2.65,2.65,0,0,1,.82.71,1.36,1.36,0,0,1,.27.78.57.57,0,0,1-.12.39.33.33,0,0,1-.26.11l.07.08A1.81,1.81,0,0,1,559.48,285.45Zm-.69.31c.09,0,.13-.09.13-.23a.63.63,0,0,0-.13-.39,1.31,1.31,0,0,0-.39-.33l-.78-.45v.82l.78.45a.7.7,0,0,0,.39.13M557.62,283v.78l.66.38a.63.63,0,0,0,.38.12c.09,0,.12-.09.12-.23a.58.58,0,0,0-.12-.36,1.29,1.29,0,0,0-.37-.31l-.67-.38"/><path class="cls-8" d="M562.3,285.91v2.55l-.61-.36v-.29a.41.41,0,0,1-.22.07.84.84,0,0,1-.47-.14,1.87,1.87,0,0,1-.49-.4,1.73,1.73,0,0,1-.34-.57,2.36,2.36,0,0,1-.12-.72v-1.44l.64.37v1.34a1.19,1.19,0,0,0,.11.53.86.86,0,0,0,.34.34.4.4,0,0,0,.26.07.18.18,0,0,0,.18-.12.62.62,0,0,0,.07-.34v-1.26Z"/><path class="cls-8" d="M563.61,286.11v.62l.56.32v.56l-.56-.32v1a.6.6,0,0,0,.07.3.64.64,0,0,0,.2.2.39.39,0,0,0,.26.06l.17.61a.46.46,0,0,1-.23,0,1,1,0,0,1-.29-.13,1.7,1.7,0,0,1-.61-.58A1.58,1.58,0,0,1,563,288v-1.05l-.34-.19v-.57l.34.2v-.62Z"/><path class="cls-8" d="M565.36,287.12v.61l.55.32v.57l-.55-.32v1a.49.49,0,0,0,.08.29.48.48,0,0,0,.19.21.35.35,0,0,0,.27.05l.17.62a.41.41,0,0,1-.24,0,.93.93,0,0,1-.29-.13,1.65,1.65,0,0,1-.6-.57,1.5,1.5,0,0,1-.23-.81v-1.05l-.34-.2v-.56l.34.19v-.61Z"/><path class="cls-8" d="M568.46,290.07a1.93,1.93,0,0,1,.16.77.89.89,0,0,1-.16.58.54.54,0,0,1-.43.22,1.19,1.19,0,0,1-.63-.19,2.45,2.45,0,0,1-.63-.54,2.69,2.69,0,0,1-.43-.71,2.15,2.15,0,0,1-.15-.77.94.94,0,0,1,.16-.59.56.56,0,0,1,.43-.21,1.27,1.27,0,0,1,.63.2,2.46,2.46,0,0,1,1.05,1.24Zm-.56.73a.75.75,0,0,0,.07-.34,1.48,1.48,0,0,0-.07-.42,1.58,1.58,0,0,0-.2-.36,1.37,1.37,0,0,0-.29-.25.61.61,0,0,0-.29-.08.27.27,0,0,0-.2.12.55.55,0,0,0-.08.34,1.16,1.16,0,0,0,.07.42,1.07,1.07,0,0,0,.21.36.94.94,0,0,0,.28.25.43.43,0,0,0,.29.08.24.24,0,0,0,.21-.12"/><path class="cls-8" d="M570.4,290.55a2,2,0,0,1,.47.4,1.77,1.77,0,0,1,.44,1.26v1.45l-.64-.37V292a1.17,1.17,0,0,0-.11-.52.92.92,0,0,0-.34-.34A.66.66,0,0,0,570,291a.22.22,0,0,0-.19.12.66.66,0,0,0-.07.35v1.26l-.65-.37v-2.55l.61.35v.31a.37.37,0,0,1,.23-.07A.92.92,0,0,1,570.4,290.55Z"/><g class="cls-114"><path class="cls-2" d="M544.21,239.07a8,8,0,0,1,3.59,6.23l0,17.74c0,2.29-1.62,3.22-3.61,2.07l-7.54-4.35a7.93,7.93,0,0,1-3.6-6.24l0-17.74c0-2.28,1.63-3.21,3.63-2.06Z"/><g class="cls-115"><path class="cls-8" d="M542.41,250.69a2.38,2.38,0,0,1,.69,1l7,17.29-18.5-9.23-.35-7.47,3.85-2.86a.5.5,0,0,1,.63.09,2.29,2.29,0,0,1,.66.94l1.87,4.55,3.42-4.33C541.85,250.45,542.13,250.47,542.41,250.69Z"/><path class="cls-8" d="M537,240.45a4.41,4.41,0,0,1,2,3.44c0,1.26-.9,1.77-2,1.14a4.35,4.35,0,0,1-2-3.44C535,240.33,535.91,239.82,537,240.45Z"/></g></g><g class="cls-16"><polygon class="cls-8" points="612.93 365.99 612.91 371.18 603.44 365.71 603.46 360.52 612.93 365.99"/><polygon class="cls-8" points="612.95 357.7 612.94 362.88 603.47 357.42 603.48 352.23 612.95 357.7"/><polygon class="cls-8" points="612.98 349.41 612.96 354.59 603.49 349.12 603.5 343.94 612.98 349.41"/><polygon class="cls-8" points="613 341.11 612.99 346.3 603.51 340.83 603.53 335.64 613 341.11"/><polygon class="cls-8" points="612.9 374.28 612.89 379.47 603.42 374 603.43 368.81 612.9 374.28"/><polygon class="cls-8" points="612.86 390.87 612.84 396.05 603.37 390.58 603.39 385.4 612.86 390.87"/><polygon class="cls-8" points="612.88 382.58 612.87 387.76 603.4 382.29 603.41 377.11 612.88 382.58"/></g><polyline class="cls-15" points="613.36 313.33 630.04 322.72 630.04 321.26 630.04 213.78 565.23 176.25 565.23 195.07"/><path class="cls-2" d="M565,191a4.37,4.37,0,0,1,2,3.43c0,1.26-.9,1.77-2,1.14a4.36,4.36,0,0,1-2-3.43C563,190.89,563.88,190.38,565,191Z"/><path class="cls-2" d="M613.11,310.59a4.4,4.4,0,0,1,2,3.43c0,1.27-.9,1.78-2,1.14a4.36,4.36,0,0,1-2-3.43C611.12,310.47,612,310,613.11,310.59Z"/><path class="cls-116" d="M414.37,416.2c-17.21,0-34.44-3.79-47.58-11.38-12.87-7.43-20-17.34-20-27.9s7-20.34,19.68-27.72c26.11-15.18,68.75-15.17,95,0h0c12.87,7.43,20,17.34,20,27.9s-7,20.33-19.67,27.71C448.78,412.41,431.58,416.2,414.37,416.2Zm-.44-77.43c-17,0-34,3.76-47,11.27-12.39,7.2-19.2,16.75-19.19,26.88s6.94,19.82,19.5,27.07c26,15,68.23,15,94.08,0,12.39-7.2,19.21-16.74,19.19-26.87s-6.93-19.81-19.49-27.06h0C448,342.53,431,338.77,413.93,338.77Z"/><g class="cls-117"><path class="cls-10" d="M449.31,356.58c19.55,11.29,19.65,29.58.23,40.86s-51,11.29-70.54,0-19.65-29.59-.23-40.87S429.77,345.3,449.31,356.58Z"/><g class="cls-118"><path class="cls-119" d="M440.34,361.8c14.55,8.4,14.63,22,.17,30.43s-38,8.4-52.53,0-14.63-22-.17-30.43S425.78,353.4,440.34,361.8Z"/></g><path class="cls-2" d="M430.16,367.72c8.89,5.13,8.94,13.45.1,18.59s-23.21,5.14-32.1,0-8.94-13.46-.11-18.6S421.26,362.58,430.16,367.72Z"/></g><path class="cls-120" d="M405,372l1,.57a3.86,3.86,0,0,0,4.18-.14l.43-.3a3.35,3.35,0,0,0,1.44-2.89h0l7.21-1.92s3.69-1.08,4.84.46-1.92,7.44-10.06,8.59c0,0-1.37.2-3.76,2.92-1.61,1.84-6.06,1.15-6.29-1.46a46.29,46.29,0,0,1-.05-5.23A.72.72,0,0,1,405,372Z"/><path class="cls-121" d="M404.12,365.7l.24,4.54a3.76,3.76,0,0,0,2,3.11l.26.14a3.76,3.76,0,0,0,3.84-.2h0a3.75,3.75,0,0,0,1.67-3.3l-.27-5.74Z"/><path class="cls-121" d="M415.41,374.9l.25,4.54a3.75,3.75,0,0,0,2,3.11l.25.14a3.77,3.77,0,0,0,3.85-.2h0a3.77,3.77,0,0,0,1.67-3.3l-.27-5.74Z"/><path class="cls-120" d="M416.16,380.55l1,.6a4.1,4.1,0,0,0,4.4-.15l.45-.32a3.51,3.51,0,0,0,1.51-3h0l7.59-2s3.87-1.13,5.08.48-2,7.83-10.57,9c0,0-1.44.2-3.95,3.06-1.7,1.94-6.38,1.22-6.62-1.53a51.51,51.51,0,0,1-.06-5.51A.76.76,0,0,1,416.16,380.55Z"/><path class="cls-120" d="M401.17,299.53,404.74,327a10.31,10.31,0,0,1-.39,4.45,25.43,25.43,0,0,0-1.51,7.77l.71,27.37a1.26,1.26,0,0,0,.83,1.15c1.69.63,5.66,2.36,8.48-.9a1.71,1.71,0,0,0,.38-1c.16-4,1.26-28.58,4.25-41.88,3.27-14.52,4.84-24.81,1.82-31.71Z"/><path class="cls-10" d="M412.63,303.73a164.19,164.19,0,0,0,2.72,35.48,26,26,0,0,0-1.08,4.44,25.76,25.76,0,0,0-.29,4.56l.71,27.38a1.27,1.27,0,0,0,.82,1.15c1.69.62,5.67,2.35,8.48-.9a1.62,1.62,0,0,0,.38-1c.17-4,1.27-28.57,4.26-41.87,3.27-14.53,4.84-24.81,1.81-31.71Z"/><path class="cls-122" d="M431.78,298.26s-1.38-16.75-.44-20.11a18,18,0,0,0,.35-8.32l-1.45-8.14a16.44,16.44,0,0,0-7.61-9.88c-4.61-2.28-9.89-7-15.33-4.82-9.14,3.72-5.93,17.67-2.57,24.28,1.72,3.38,2.68,7.79,1.49,11.4-1.15,3.46-3.88,6.1-5.07,9.57a19,19,0,0,0-.69,9.61c.53,2.79,3,4.09,5.39,5.16l15.25,6.28a7.25,7.25,0,0,0,2.85.49,4.2,4.2,0,0,0,3.86-2.72,23.16,23.16,0,0,0,1.47-6.71,9.38,9.38,0,0,1,2.74,5.06,9.24,9.24,0,0,0,0-2.88l0-1.83A43.29,43.29,0,0,0,431.78,298.26Z"/><path class="cls-121" d="M421.45,252.38c-2,.18-5.95.05-7.71-3.2l-.23-12.07a7.54,7.54,0,0,1,3.2-6.27,9.71,9.71,0,0,1,5.17-1.35c1.39-.06,3.91-.36,4.93.81a8.72,8.72,0,0,1,1.09,3.63c0,1.91.79,3.63,1,5.52.09.69-.57,1.65-.72,2.42a14.15,14.15,0,0,0-.19,3,3.35,3.35,0,0,1-.44,1.81,2.53,2.53,0,0,1-1.15,1,8.52,8.52,0,0,1-1.56.23A3,3,0,0,0,422.7,251,1.37,1.37,0,0,1,421.45,252.38Z"/><path class="cls-123" d="M431.34,278.15h0a18,18,0,0,0,.35-8.32l-1.45-8.14a16.12,16.12,0,0,0-2.12-4.67,30.94,30.94,0,0,0-4,3.19,12.91,12.91,0,0,1,2.47,8c.35,14.41,1.78,39.1-4.95,45.29a7.47,7.47,0,0,0,2.23.31,4.31,4.31,0,0,0,4-2.8,23.57,23.57,0,0,0,1.43-6.63,10,10,0,0,1,2.77,5.18c.32-.81,0-2.11,0-3l0-1.83a43.29,43.29,0,0,0-.32-6.44S430.4,281.51,431.34,278.15Z"/><path class="cls-121" d="M441.64,274.05l22.88-13.27a2.53,2.53,0,0,1,.37-.18l6.29-2.47a.88.88,0,0,1,1.17.57h0a.88.88,0,0,1-.52,1.06l-3.46,1.38a.76.76,0,0,0-.43.91c.34,1.19.84,3.71-.7,4.8-1.06.75-2.11,1.4-2.89,1.85a6.37,6.37,0,0,1-2.53.84l-2.08.24a5.93,5.93,0,0,0-3.38,1.55l-9.94,9.5Z"/><path class="cls-122" d="M423.79,252.57s6.53,1,9.32,5.32c2.46,3.86,9.2,15.62,9.2,15.62l1.15-.49s3.69,4.3,3.63,7.63l-6,3.15s-2.43,2.05-6.78-4.85-10.17-17.06-10.17-17.06S419.19,255.23,423.79,252.57Z"/><path class="cls-124" d="M442.59,272.5s4,4.28,4.6,8.71l4.11-2.9s-.32-6.3-4.84-8.15Z"/><path class="cls-125" d="M400.69,254.61a30.39,30.39,0,0,0,3.41,1.93c4.75,2.13,7.17,2.25,12.29,2,.76,0,8.87-1.65,9.75-2.94-.28-1.1-7.27-9.35-3.34-14.55,4.06-5.38,4.84-8.79,4.84-8.79s1.45-8.27-10.89-9.12c-11.12-.76-13.09,11.23-11.91,20.09C405.39,247.31,402.21,252.54,400.69,254.61Z"/><path class="cls-126" d="M422.75,228.09a2.22,2.22,0,0,0-3.36-.35c-.73.68-1.66,1.55-2.86,2.65-8.27,7.55.23,15.7.23,15.7-.82-3.89,3.19-8,3.19-8C424.8,233.5,424.08,230.08,422.75,228.09Z"/></g></g></g></svg>