<svg xmlns="http://www.w3.org/2000/svg" xmlns:xlink="http://www.w3.org/1999/xlink" viewBox="0 0 381.15 223.65"><defs><style>.cls-1{fill:#fff;}.cls-2{fill:none;}.cls-3{isolation:isolate;}.cls-4{clip-path:url(#clip-path);}.cls-5{fill:url(#linear-gradient);}.cls-10,.cls-24,.cls-6{mix-blend-mode:screen;}.cls-7{fill:url(#radial-gradient);}.cls-8{fill:url(#linear-gradient-2);}.cls-9{fill:url(#linear-gradient-3);}.cls-10{fill:url(#åçûìßííûé_ãðàäèåíò_132);}.cls-11{fill:url(#linear-gradient-4);}.cls-12{fill:#5e1b00;}.cls-13{mix-blend-mode:multiply;}.cls-14{fill:url(#åçûìßííûé_ãðàäèåíò_103);}.cls-15{clip-path:url(#clip-path-2);}.cls-16,.cls-18{fill:#ff530e;}.cls-17{fill:url(#linear-gradient-5);}.cls-18{opacity:0.15;}.cls-19{fill:#ff350e;}.cls-20{fill:url(#linear-gradient-6);}.cls-21{fill:url(#linear-gradient-7);}.cls-22{fill:url(#linear-gradient-8);}.cls-23{fill:url(#linear-gradient-9);}.cls-24,.cls-25{fill:#8b8b8b;}.cls-25{opacity:0.51;}.cls-26{fill:url(#linear-gradient-10);}.cls-27{fill:url(#linear-gradient-11);}.cls-28{fill:url(#linear-gradient-12);}.cls-29{fill:url(#linear-gradient-13);}.cls-30{fill:url(#linear-gradient-14);}.cls-31{fill:url(#linear-gradient-15);}.cls-32{fill:url(#linear-gradient-16);}.cls-33{fill:url(#linear-gradient-17);}.cls-34{fill:url(#linear-gradient-18);}.cls-35{fill:url(#linear-gradient-19);}.cls-36{fill:url(#linear-gradient-20);}.cls-37{fill:url(#linear-gradient-21);}.cls-38{fill:url(#linear-gradient-22);}.cls-39{fill:url(#linear-gradient-23);}.cls-40{fill:url(#linear-gradient-24);}.cls-41{fill:url(#linear-gradient-25);}.cls-42{fill:url(#linear-gradient-26);}.cls-43{fill:url(#linear-gradient-27);}.cls-44{fill:url(#linear-gradient-28);}.cls-45{fill:url(#linear-gradient-29);}.cls-46{fill:url(#linear-gradient-30);}.cls-47{fill:url(#linear-gradient-31);}.cls-48{fill:url(#linear-gradient-32);}.cls-49{fill:url(#linear-gradient-33);}.cls-50{fill:url(#linear-gradient-34);}.cls-51{fill:url(#linear-gradient-35);}.cls-52{fill:url(#linear-gradient-36);}.cls-53{fill:url(#linear-gradient-37);}.cls-54{fill:url(#linear-gradient-38);}.cls-55{fill:url(#linear-gradient-39);}.cls-56{fill:url(#linear-gradient-40);}.cls-57{fill:url(#linear-gradient-41);}.cls-58{fill:url(#linear-gradient-42);}.cls-59{fill:url(#linear-gradient-43);}.cls-60{fill:url(#linear-gradient-44);}.cls-61{fill:url(#linear-gradient-45);}.cls-62{fill:url(#linear-gradient-46);}.cls-63{fill:url(#linear-gradient-47);}.cls-64{fill:url(#linear-gradient-48);}.cls-65{fill:url(#linear-gradient-49);}.cls-66{fill:url(#linear-gradient-50);}.cls-67{fill:url(#linear-gradient-51);}.cls-68{fill:url(#linear-gradient-52);}.cls-69{fill:url(#linear-gradient-53);}.cls-70{fill:url(#linear-gradient-54);}.cls-71{fill:url(#linear-gradient-55);}.cls-72{fill:url(#linear-gradient-56);}.cls-73{fill:url(#linear-gradient-57);}.cls-74{fill:url(#linear-gradient-58);}.cls-75{fill:url(#linear-gradient-59);}.cls-76{mask:url(#mask);}.cls-77{fill:url(#linear-gradient-60);}</style><clipPath id="clip-path" transform="translate(-45.53 -13.54)"><rect class="cls-2" x="94.96" width="355.04" height="250"/></clipPath><linearGradient id="linear-gradient" x1="387.04" y1="202.98" x2="299.4" y2="202.98" gradientUnits="userSpaceOnUse"><stop offset="0" stop-color="#be3600"/><stop offset="0.14" stop-color="#9f3301"/><stop offset="0.32" stop-color="#e64900"/><stop offset="0.54" stop-color="#e24e09"/><stop offset="0.77" stop-color="#ff5c10"/><stop offset="1" stop-color="#ff5c10"/></linearGradient><radialGradient id="radial-gradient" cx="330.29" cy="209.14" r="34.07" gradientUnits="userSpaceOnUse"><stop offset="0" stop-color="#ff530e"/><stop offset="0.02" stop-color="#e54200"/><stop offset="0.07" stop-color="#d43d00"/><stop offset="0.12" stop-color="#ae3200"/><stop offset="0.17" stop-color="#9d2d00"/><stop offset="0.23" stop-color="#591900"/><stop offset="0.3" stop-color="#330f00"/><stop offset="0.38" stop-color="#120114"/><stop offset="0.48" stop-color="#080009"/><stop offset="0.62" stop-color="#020002"/><stop offset="1"/></radialGradient><linearGradient id="linear-gradient-2" x1="299.46" y1="211.68" x2="344.28" y2="192.72" gradientUnits="userSpaceOnUse"><stop offset="0" stop-color="#ff530e"/><stop offset="0.14" stop-color="#e04700"/><stop offset="0.32" stop-color="#c73f00"/><stop offset="0.54" stop-color="#b33900"/><stop offset="0.77" stop-color="#722200"/><stop offset="1" stop-color="#531a00"/></linearGradient><linearGradient id="linear-gradient-3" x1="378.74" y1="226.28" x2="307.3" y2="29.76" xlink:href="#linear-gradient-2"/><linearGradient id="åçûìßííûé_ãðàäèåíò_132" x1="413.69" y1="198.74" x2="323.29" y2="41.22" gradientUnits="userSpaceOnUse"><stop offset="0"/><stop offset="0.49" stop-color="#e087ff"/><stop offset="1"/></linearGradient><linearGradient id="linear-gradient-4" x1="264.86" y1="135.58" x2="407.28" y2="102.43" gradientUnits="userSpaceOnUse"><stop offset="0" stop-color="#df4000"/><stop offset="1" stop-color="#1d0b00"/></linearGradient><linearGradient id="åçûìßííûé_ãðàäèåíò_103" x1="411.73" y1="195.65" x2="308.45" y2="26.17" gradientUnits="userSpaceOnUse"><stop offset="0" stop-color="#fff"/><stop offset="0.51" stop-color="#5c0063"/><stop offset="1" stop-color="#fff"/></linearGradient><clipPath id="clip-path-2" transform="translate(-45.53 -13.54)"><path class="cls-2" d="M395.3,211.32a4.19,4.19,0,0,1-1.93-.64L275.26,142.49c-4.11-2.38-7.72-9.42-7.72-15.07V33.05c0-2.26.66-4.69,2.11-4.69a4.11,4.11,0,0,1,1.93.65L389.69,97.2c4.11,2.37,7.71,9.41,7.71,15.07v94.37a7.35,7.35,0,0,1-.93,4A1.32,1.32,0,0,1,395.3,211.32Z"/></clipPath><linearGradient id="linear-gradient-5" x1="432.4" y1="187.1" x2="341.99" y2="29.58" gradientUnits="userSpaceOnUse"><stop offset="0"/><stop offset="0.49" stop-color="#ff5c10"/><stop offset="1"/></linearGradient><linearGradient id="linear-gradient-6" x1="2263.38" y1="2263.75" x2="2263.38" y2="2165.82" gradientTransform="matrix(0, 1.15, -0.87, -0.5, 2289.96, -1294.36)" xlink:href="#linear-gradient-2"/><linearGradient id="linear-gradient-7" x1="374.87" y1="214.05" x2="376.89" y2="214.05" xlink:href="#linear-gradient-2"/><linearGradient id="linear-gradient-8" x1="1442.17" y1="-1706.91" x2="1442.17" y2="-1777.03" gradientTransform="matrix(0, -1.15, 0.87, 0.5, 1905.43, 2595.47)" xlink:href="#linear-gradient-2"/><linearGradient id="linear-gradient-9" x1="393.35" y1="57.59" x2="394.8" y2="57.59" xlink:href="#linear-gradient-2"/><linearGradient id="linear-gradient-10" x1="-47.46" y1="861.91" x2="-23.97" y2="861.91" gradientTransform="matrix(0.87, 0.5, 0, 1.15, 240.35, -950)" gradientUnits="userSpaceOnUse"><stop offset="0" stop-color="#a07752"/><stop offset="0.19" stop-color="#9f7147"/><stop offset="0.38" stop-color="#a6784e"/><stop offset="0.58" stop-color="#975e2b"/><stop offset="0.79" stop-color="#dc9953"/><stop offset="0.99" stop-color="#fdbe54"/><stop offset="1" stop-color="#ffc054"/></linearGradient><linearGradient id="linear-gradient-11" x1="-21.47" y1="861.91" x2="-9.04" y2="861.91" xlink:href="#linear-gradient-10"/><linearGradient id="linear-gradient-12" x1="-42.32" y1="864.83" x2="-31.02" y2="864.83" xlink:href="#linear-gradient-10"/><linearGradient id="linear-gradient-13" x1="-28.63" y1="864.83" x2="-23.45" y2="864.83" xlink:href="#linear-gradient-10"/><linearGradient id="linear-gradient-14" x1="-21.24" y1="864.83" x2="-9.94" y2="864.83" xlink:href="#linear-gradient-10"/><linearGradient id="linear-gradient-15" x1="-7.55" y1="864.83" x2="-0.27" y2="864.83" xlink:href="#linear-gradient-10"/><linearGradient id="linear-gradient-16" x1="-42.32" y1="867.76" x2="-23.45" y2="867.76" xlink:href="#linear-gradient-10"/><linearGradient id="linear-gradient-17" x1="-21.24" y1="867.76" x2="-17.14" y2="867.76" xlink:href="#linear-gradient-10"/><linearGradient id="linear-gradient-18" x1="-3.01" y1="867.76" x2="1.09" y2="867.76" xlink:href="#linear-gradient-10"/><linearGradient id="linear-gradient-19" x1="-5.96" y1="879.46" x2="-1.86" y2="879.46" xlink:href="#linear-gradient-10"/><linearGradient id="linear-gradient-20" x1="-10.94" y1="888.24" x2="-6.84" y2="888.24" xlink:href="#linear-gradient-10"/><linearGradient id="linear-gradient-21" x1="-15.26" y1="867.76" x2="-4.82" y2="867.76" xlink:href="#linear-gradient-10"/><linearGradient id="linear-gradient-22" x1="-42.32" y1="870.68" x2="-23.45" y2="870.68" xlink:href="#linear-gradient-10"/><linearGradient id="linear-gradient-23" x1="-47.46" y1="873.61" x2="-28.59" y2="873.61" xlink:href="#linear-gradient-10"/><linearGradient id="linear-gradient-24" x1="-26.58" y1="873.61" x2="-22.07" y2="873.61" xlink:href="#linear-gradient-10"/><linearGradient id="linear-gradient-25" x1="-20.46" y1="873.61" x2="-6.84" y2="873.61" xlink:href="#linear-gradient-10"/><linearGradient id="linear-gradient-26" x1="-26.86" y1="888.24" x2="-13.24" y2="888.24" xlink:href="#linear-gradient-10"/><linearGradient id="linear-gradient-27" x1="-42.32" y1="876.53" x2="-32.89" y2="876.53" xlink:href="#linear-gradient-10"/><linearGradient id="linear-gradient-28" x1="-30.76" y1="876.53" x2="-21.32" y2="876.53" xlink:href="#linear-gradient-10"/><linearGradient id="linear-gradient-29" x1="-26.04" y1="882.39" x2="-16.61" y2="882.39" xlink:href="#linear-gradient-10"/><linearGradient id="linear-gradient-30" x1="-42.32" y1="879.46" x2="-23.45" y2="879.46" xlink:href="#linear-gradient-10"/><linearGradient id="linear-gradient-31" x1="-21.59" y1="879.46" x2="-7.77" y2="879.46" xlink:href="#linear-gradient-10"/><linearGradient id="linear-gradient-32" x1="-42.32" y1="882.39" x2="-28.06" y2="882.39" xlink:href="#linear-gradient-10"/><linearGradient id="linear-gradient-33" x1="-42.32" y1="885.31" x2="-23.45" y2="885.31" xlink:href="#linear-gradient-10"/><linearGradient id="linear-gradient-34" x1="-47.46" y1="888.24" x2="-28.59" y2="888.24" xlink:href="#linear-gradient-10"/><linearGradient id="linear-gradient-35" x1="102.09" y1="868.91" x2="125.57" y2="868.91" xlink:href="#linear-gradient-10"/><linearGradient id="linear-gradient-36" x1="128.07" y1="868.91" x2="140.5" y2="868.91" xlink:href="#linear-gradient-10"/><linearGradient id="linear-gradient-37" x1="107.22" y1="871.83" x2="118.52" y2="871.83" xlink:href="#linear-gradient-10"/><linearGradient id="linear-gradient-38" x1="120.91" y1="871.83" x2="126.09" y2="871.83" xlink:href="#linear-gradient-10"/><linearGradient id="linear-gradient-39" x1="128.3" y1="871.83" x2="139.6" y2="871.83" xlink:href="#linear-gradient-10"/><linearGradient id="linear-gradient-40" x1="141.99" y1="871.83" x2="149.27" y2="871.83" xlink:href="#linear-gradient-10"/><linearGradient id="linear-gradient-41" x1="107.22" y1="874.76" x2="126.09" y2="874.76" xlink:href="#linear-gradient-10"/><linearGradient id="linear-gradient-42" x1="128.3" y1="874.76" x2="132.4" y2="874.76" xlink:href="#linear-gradient-10"/><linearGradient id="linear-gradient-43" x1="146.54" y1="874.76" x2="150.64" y2="874.76" xlink:href="#linear-gradient-10"/><linearGradient id="linear-gradient-44" x1="143.58" y1="886.46" x2="147.68" y2="886.46" xlink:href="#linear-gradient-10"/><linearGradient id="linear-gradient-45" x1="138.61" y1="895.24" x2="142.71" y2="895.24" xlink:href="#linear-gradient-10"/><linearGradient id="linear-gradient-46" x1="134.28" y1="874.76" x2="144.72" y2="874.76" xlink:href="#linear-gradient-10"/><linearGradient id="linear-gradient-47" x1="107.22" y1="877.68" x2="126.09" y2="877.68" xlink:href="#linear-gradient-10"/><linearGradient id="linear-gradient-48" x1="102.09" y1="880.61" x2="120.96" y2="880.61" xlink:href="#linear-gradient-10"/><linearGradient id="linear-gradient-49" x1="122.97" y1="880.61" x2="127.48" y2="880.61" xlink:href="#linear-gradient-10"/><linearGradient id="linear-gradient-50" x1="129.09" y1="880.61" x2="142.71" y2="880.61" xlink:href="#linear-gradient-10"/><linearGradient id="linear-gradient-51" x1="122.68" y1="895.24" x2="136.3" y2="895.24" xlink:href="#linear-gradient-10"/><linearGradient id="linear-gradient-52" x1="107.22" y1="883.53" x2="116.66" y2="883.53" xlink:href="#linear-gradient-10"/><linearGradient id="linear-gradient-53" x1="118.78" y1="883.53" x2="128.22" y2="883.53" xlink:href="#linear-gradient-10"/><linearGradient id="linear-gradient-54" x1="123.5" y1="889.38" x2="132.94" y2="889.38" xlink:href="#linear-gradient-10"/><linearGradient id="linear-gradient-55" x1="107.22" y1="886.46" x2="126.09" y2="886.46" xlink:href="#linear-gradient-10"/><linearGradient id="linear-gradient-56" x1="127.95" y1="886.46" x2="141.77" y2="886.46" xlink:href="#linear-gradient-10"/><linearGradient id="linear-gradient-57" x1="107.22" y1="889.39" x2="121.48" y2="889.39" xlink:href="#linear-gradient-10"/><linearGradient id="linear-gradient-58" x1="107.22" y1="892.31" x2="126.09" y2="892.31" xlink:href="#linear-gradient-10"/><linearGradient id="linear-gradient-59" x1="102.09" y1="895.24" x2="120.96" y2="895.24" xlink:href="#linear-gradient-10"/><mask id="mask" x="-344.06" y="35.86" width="391.15" height="240.79" maskUnits="userSpaceOnUse"><g transform="translate(-45.53 -13.54)"><g id="mask0_32_18711" data-name="mask0 32 18711"><path class="cls-1" d="M43,49.4H-298.53V290.19H43Z"/></g></g></mask><linearGradient id="linear-gradient-60" x1="92.47" y1="122.81" x2="45.24" y2="122.81" gradientTransform="matrix(1, 0, 0, -1, 0, 252)" gradientUnits="userSpaceOnUse"><stop offset="0" stop-color="#ff530e"/><stop offset="0.03" stop-color="#ba3500"/><stop offset="0.47" stop-color="#281800"/><stop offset="0.81" stop-color="#0b0008"/><stop offset="1"/></linearGradient></defs><g class="cls-3"><g id="_ëîé_1" data-name="‘ëîé_1"><g class="cls-4"><path class="cls-5" d="M374.6,195.57l-29.14-16.81a7.46,7.46,0,0,0-6.48-.47l-49.1,11.5h-6.94v3.12h0a4.28,4.28,0,0,0,2.17,3.86l52.77,30.29a8.6,8.6,0,0,0,9.57-.67l28-21.85C379.29,201.51,378.87,198,374.6,195.57Z" transform="translate(-45.53 -13.54)"/><g class="cls-6"><path class="cls-7" d="M342.18,225.29a9,9,0,0,1-4.52-1.22L284.9,193.79l.45-.8,52.76,30.29a8.09,8.09,0,0,0,9.06-.64l28-21.84.56.72-27.95,21.84A9,9,0,0,1,342.18,225.29Z" transform="translate(-45.53 -13.54)"/></g><path class="cls-8" d="M374.6,189.67l-29.14-16.81a7.46,7.46,0,0,0-6.48-.47l-53.29,13.17a4.36,4.36,0,0,0-.57,7.83l52.77,30.28a8.56,8.56,0,0,0,9.57-.67l28-21.84A7,7,0,0,0,374.6,189.67Z" transform="translate(-45.53 -13.54)"/><path class="cls-9" d="M398.31,91.83,280.2,23.64a6.72,6.72,0,0,0-5-1h0l-.17.06-.3.09-6.2,2,2.83,1.67a12.45,12.45,0,0,0-.71,4.38v94.37c0,7,4.3,15.22,9.55,18.26l116,66.94,1.41,4,6-1.88h0c2.58-.8,4.29-3.72,4.29-8.14V110.08C407.86,103.08,403.56,94.86,398.31,91.83Z" transform="translate(-45.53 -13.54)"/><path class="cls-10" d="M401.72,206.39h-.92V112c0-6.88-4.19-14.89-9.33-17.86L273.37,26l.46-.79,118.1,68.19c5.4,3.11,9.79,11.48,9.79,18.65Z" transform="translate(-45.53 -13.54)"/><path class="cls-11" d="M391.53,94,273.42,25.82c-5.25-3-9.55.22-9.55,7.23v94.37c0,7,4.3,15.22,9.55,18.25l118.11,68.19c5.25,3,9.55-.22,9.55-7.22V112.27C401.08,105.26,396.78,97.05,391.53,94Z" transform="translate(-45.53 -13.54)"/><path class="cls-12" d="M395.3,211.32a4.19,4.19,0,0,1-1.93-.64L275.26,142.49c-4.11-2.38-7.72-9.42-7.72-15.07V33.05c0-2.26.66-4.69,2.11-4.69a4.11,4.11,0,0,1,1.93.65L389.69,97.2c4.11,2.37,7.71,9.41,7.71,15.07v94.37a7.35,7.35,0,0,1-.93,4A1.32,1.32,0,0,1,395.3,211.32Z" transform="translate(-45.53 -13.54)"/><g class="cls-13"><path class="cls-14" d="M397.48,206.87h-.92V112.5c0-5.52-3.5-12.37-7.48-14.68L271,29.63l.46-.79L389.54,97c4.23,2.44,7.94,9.67,7.94,15.47Z" transform="translate(-45.53 -13.54)"/></g><g class="cls-15"><polygon class="cls-16" points="265.06 94.58 232.15 75.58 232.15 73.22 265.06 92.22 265.06 94.58"/><polygon class="cls-16" points="285.98 106.66 268.56 96.61 268.56 94.24 285.98 104.3 285.98 106.66"/><polygon class="cls-16" points="255.18 92.83 239.34 83.69 239.34 81.33 255.18 90.47 255.18 92.83"/><polygon class="cls-16" points="265.79 98.96 258.53 94.77 258.53 92.4 265.79 96.59 265.79 98.96"/><polygon class="cls-16" points="284.72 109.89 268.88 100.75 268.88 98.38 284.72 107.53 284.72 109.89"/><polygon class="cls-16" points="298.28 117.72 288.07 111.82 288.07 109.46 298.28 115.35 298.28 117.72"/><polygon class="cls-16" points="265.79 102.91 239.34 87.64 239.34 85.28 265.79 100.55 265.79 102.91"/><polygon class="cls-16" points="274.63 108.02 268.88 104.7 268.88 102.33 274.63 105.65 274.63 108.02"/><polygon class="cls-16" points="300.19 122.77 294.44 119.45 294.44 117.09 300.19 120.41 300.19 122.77"/><polygon class="cls-16" points="295.34 135.78 289.59 132.46 289.59 130.1 295.34 133.42 295.34 135.78"/><polygon class="cls-16" points="289.07 144.02 283.33 140.7 283.33 138.34 289.07 141.66 289.07 144.02"/><polygon class="cls-16" points="291.9 117.98 277.27 109.54 277.27 107.18 291.9 115.62 291.9 117.98"/><polygon class="cls-16" points="265.79 106.86 239.34 91.59 239.34 89.23 265.79 104.5 265.79 106.86"/><polygon class="cls-16" points="258.59 106.66 232.15 91.39 232.15 89.03 258.59 104.3 258.59 106.66"/><polygon class="cls-16" points="289.07 124.26 269.99 113.24 269.99 110.87 289.07 121.9 289.07 124.26"/><polygon class="cls-16" points="280.1 138.84 261.01 127.81 261.01 125.45 280.1 136.47 280.1 138.84"/><polygon class="cls-16" points="252.56 107.13 239.34 99.5 239.34 97.13 252.56 104.77 252.56 107.13"/><polygon class="cls-16" points="268.77 116.49 255.54 108.85 255.54 106.49 268.77 114.12 268.77 116.49"/><polygon class="cls-16" points="265.79 118.72 239.34 103.45 239.34 101.08 265.79 116.35 265.79 118.72"/><polygon class="cls-16" points="287.76 131.4 268.39 120.22 268.39 117.86 287.76 129.04 287.76 131.4"/><polygon class="cls-16" points="258.3 118.35 239.29 107.37 238.99 105.64 258 116.62 258.3 118.35"/><polygon class="cls-16" points="265.79 126.62 239.34 111.35 239.34 108.99 265.79 124.26 265.79 126.62"/><polygon class="cls-16" points="291.52 137.53 278.29 129.89 278.29 127.53 291.52 135.16 291.52 137.53"/><polygon class="cls-16" points="323.6 152.09 297.15 136.83 297.15 134.46 323.6 149.73 323.6 152.09"/><polygon class="cls-16" points="315.52 123.72 289.07 108.45 289.07 106.09 315.52 121.36 315.52 123.72"/><polygon class="cls-16" points="295.6 143.83 269.15 128.56 269.15 126.2 295.6 141.47 295.6 143.83"/><polygon class="cls-16" points="265.06 58.01 232.15 39.01 232.15 36.65 265.06 55.65 265.06 58.01"/><polygon class="cls-16" points="285.98 70.09 268.56 60.04 268.56 57.67 285.98 67.73 285.98 70.09"/><polygon class="cls-16" points="255.18 56.26 239.34 47.12 239.34 44.76 255.18 53.9 255.18 56.26"/><polygon class="cls-16" points="265.79 62.39 258.53 58.2 258.53 55.83 265.79 60.02 265.79 62.39"/><polygon class="cls-16" points="284.72 73.32 268.88 64.17 268.88 61.81 284.72 70.96 284.72 73.32"/><polygon class="cls-16" points="298.28 81.15 288.07 75.25 288.07 72.89 298.28 78.78 298.28 81.15"/><polygon class="cls-16" points="265.79 66.34 239.34 51.07 239.34 48.71 265.79 63.98 265.79 66.34"/><polygon class="cls-16" points="274.63 71.44 268.88 68.13 268.88 65.76 274.63 69.08 274.63 71.44"/><polygon class="cls-16" points="300.19 86.2 294.44 82.88 294.44 80.52 300.19 83.84 300.19 86.2"/><polygon class="cls-16" points="291.9 81.41 277.27 72.97 277.27 70.61 291.9 79.05 291.9 81.41"/><polygon class="cls-16" points="265.79 70.29 239.34 55.02 239.34 52.66 265.79 67.93 265.79 70.29"/><polygon class="cls-16" points="258.59 70.09 232.15 54.82 232.15 52.46 258.59 67.73 258.59 70.09"/><polygon class="cls-16" points="289.07 87.69 269.99 76.67 269.99 74.31 289.07 85.33 289.07 87.69"/><polygon class="cls-16" points="252.56 70.56 239.34 62.93 239.34 60.56 252.56 68.2 252.56 70.56"/><polygon class="cls-16" points="268.77 79.92 255.54 72.28 255.54 69.92 268.77 77.55 268.77 79.92"/><polygon class="cls-16" points="275.38 91.64 262.16 84 262.16 81.64 275.38 89.28 275.38 91.64"/><polygon class="cls-16" points="265.79 82.15 239.34 66.88 239.34 64.52 265.79 79.78 265.79 82.15"/><polygon class="cls-16" points="287.76 94.83 268.39 83.65 268.39 81.29 287.76 92.47 287.76 94.83"/><polygon class="cls-16" points="259.32 82.37 239.34 70.83 239.34 68.47 259.32 80 259.32 82.37"/><polygon class="cls-16" points="265.79 90.05 239.34 74.78 239.34 72.42 265.79 87.69 265.79 90.05"/><polygon class="cls-16" points="258.59 126.42 232.15 111.15 232.15 108.79 258.59 124.06 258.59 126.42"/></g><path class="cls-17" d="M420.42,194.75h-.92V100.38c0-6.88-4.18-14.89-9.32-17.86L292.07,14.33l.46-.79L410.64,81.73c5.39,3.11,9.78,11.48,9.78,18.65Z" transform="translate(-45.53 -13.54)"/><path class="cls-16" d="M285.72,140.72l-53.53-30.91c-4.86-2.81-8.84-.51-8.84,5.11v3.69c0,5.62,4,12.51,8.84,15.32l53.53,30.9c4.86,2.81,8.84.51,8.84-5.1V156C294.56,150.42,290.58,143.52,285.72,140.72Z" transform="translate(-45.53 -13.54)"/><path class="cls-18" d="M277.18,166.75l-53.53-30.91c-4.86-2.8-8.84-.51-8.84,5.11v3.69c0,5.62,4,12.51,8.84,15.32l53.53,30.9c4.86,2.81,8.84.51,8.84-5.1v-3.7C286,176.45,282,169.56,277.18,166.75Z" transform="translate(-45.53 -13.54)"/><g class="cls-6"><path class="cls-1" d="M255.12,137.5l1-.28a2.34,2.34,0,0,0,.91,1.28c.53.31.81.16.81-.85v-4.9l1.49.85v5.05c0,1.45-.66,2.28-2.11,1.44A4.77,4.77,0,0,1,255.12,137.5Z" transform="translate(-45.53 -13.54)"/><path class="cls-1" d="M260.42,140.84l.85-.69a5.39,5.39,0,0,0,1.61,1.72c.62.36.92.25.92-.19s-.37-.85-.94-1.45l-.85-.91a4.31,4.31,0,0,1-1.33-2.82c0-1.26,1-1.7,2.34-.91a6.07,6.07,0,0,1,2.1,2.21l-.74.64a4.48,4.48,0,0,0-1.36-1.38c-.51-.29-.84-.23-.84.2s.43.88,1,1.47l.84.87a4,4,0,0,1,1.29,2.81c0,1.26-.9,1.82-2.46.92A7.34,7.34,0,0,1,260.42,140.84Z" transform="translate(-45.53 -13.54)"/></g><g class="cls-6"><path class="cls-1" d="M278.61,144.73l2.36,1.36a4.42,4.42,0,0,1,2.53,3.82c0,1.74-1.14,1.83-2.53,1l-.88-.5v2.72l-1.48-.86Zm2.24,4.78c.78.45,1.2.3,1.2-.44a1.91,1.91,0,0,0-1.2-1.69l-.76-.44v2.13Zm-.15.82,1-.51,2.09,5.48-1.65-1Z" transform="translate(-45.53 -13.54)"/></g><g class="cls-6"><path class="cls-1" d="M234.59,123.14c0-2.51,1.43-3.14,3.09-2.18a5.78,5.78,0,0,1,2,2.12l-.78.64a3.58,3.58,0,0,0-1.16-1.27c-.9-.52-1.61,0-1.61,1.51a3.79,3.79,0,0,0,1.59,3.37,1.12,1.12,0,0,0,1.28,0l.78,1.52a1.83,1.83,0,0,1-2.12-.11A6.56,6.56,0,0,1,234.59,123.14Z" transform="translate(-45.53 -13.54)"/><path class="cls-1" d="M241.06,128.45l-.75-.44v-1.09l.85.5.14-1.2-.79-.46v-1.09l.91.52.21-1.79.85.49-.2,1.8,1,.6.21-1.79.85.49-.2,1.8.79.45v1.09l-.91-.52-.14,1.2.85.49v1.09l-1-.55-.23,2-.86-.49.23-2-1-.6-.23,2-.86-.5Zm2,.06.14-1.2-1-.6-.13,1.2Z" transform="translate(-45.53 -13.54)"/></g><g class="cls-6"><path class="cls-16" d="M247.7,105.61l-2-5.47,1.94,1.12.67,2.07c.17.51.34,1.06.56,1.75l0,0c.18-.46.34-.82.5-1.14l.61-1.33,1.86,1.07-2,3.25,2.13,5.71-1.94-1.12-.76-2.25c-.19-.57-.37-1.13-.57-1.79l0,0c-.18.44-.36.8-.53,1.16l-.72,1.39L245.57,109Z" transform="translate(-45.53 -13.54)"/><path class="cls-16" d="M253.05,104.39l1.9,1.09,1.24,4.67c.16.62.29,1.27.45,1.9l.05,0c.15-.46.28-1,.43-1.39l1.22-3.25,1.89,1.1v8.89l-1.58-.92v-3.26c0-.87.14-2.08.22-2.89l-.05,0-.63,1.74-1.09,2.78-1-.56-1.09-4-.62-2.46,0,0c.08.9.22,2.28.22,3.15v3.26l-1.56-.9Z" transform="translate(-45.53 -13.54)"/><path class="cls-16" d="M262.05,109.59l1.74,1v7.21l3,1.75v1.69l-4.78-2.76Z" transform="translate(-45.53 -13.54)"/></g><g class="cls-6"><path class="cls-19" d="M313.06,32.12V30.9l4.75.63V33L316,32.62l-1.39-.25v.05L316,33.79l1.82,1.74V37Z" transform="translate(-45.53 -13.54)"/><path class="cls-19" d="M320.37,31.22l1,.57L319.29,41l-1-.57Z" transform="translate(-45.53 -13.54)"/><path class="cls-19" d="M322,38l1.82.36,1.39.25v-.05l-1.39-1.37L322,35.4V34l4.75,4.85V40L322,39.39Z" transform="translate(-45.53 -13.54)"/></g><g class="cls-6"><path class="cls-20" d="M343.49,194.16a2.25,2.25,0,0,1,1,1.77h0c0,.66-.45.93-1,.61h0a2.27,2.27,0,0,1-1-1.78h0C342.48,194.11,342.93,193.84,343.49,194.16Zm-6.23-3.6a2.27,2.27,0,0,1,1,1.77h0c0,.66-.45.93-1,.61h0a2.25,2.25,0,0,1-1-1.77h0C336.25,190.51,336.7,190.24,337.26,190.56Zm-5.9-3.4a2.24,2.24,0,0,1,1,1.77h0c0,.65-.45.92-1,.6h0a2.26,2.26,0,0,1-1-1.77h0C330.34,187.1,330.8,186.83,331.36,187.16Zm17.53,10.12a2.24,2.24,0,0,1,1,1.77h0c0,.66-.45.93-1,.6h0a2.24,2.24,0,0,1-1-1.77h0C347.88,197.22,348.33,197,348.89,197.28Zm5.4,3.11a2.27,2.27,0,0,1,1,1.78h0c0,.65-.45.92-1,.6h0a2.28,2.28,0,0,1-1-1.77h0C353.27,200.34,353.73,200.07,354.29,200.39Zm5.39,3.12a2.25,2.25,0,0,1,1,1.77h0c0,.66-.46.93-1,.6h0a2.24,2.24,0,0,1-1-1.77h0C358.67,203.46,359.12,203.19,359.68,203.51Zm5.4,3.12a2.24,2.24,0,0,1,1,1.77h0c0,.66-.45.92-1,.6h0a2.26,2.26,0,0,1-1-1.77h0C364.07,206.57,364.53,206.31,365.08,206.63Zm5.4,3.11a2.27,2.27,0,0,1,1,1.77h0c0,.66-.45.93-1,.61h0a2.28,2.28,0,0,1-1-1.77h0C369.47,209.69,369.93,209.42,370.48,209.74Zm5.4,3.12a2.24,2.24,0,0,1,1,1.77h0c0,.66-.45.93-1,.6h0a2.24,2.24,0,0,1-1-1.77h0C374.87,212.81,375.32,212.54,375.88,212.86Zm5.39,3.12a2.25,2.25,0,0,1,1,1.77h0c0,.65-.46.92-1,.6h0a2.24,2.24,0,0,1-1-1.77h0C380.26,215.92,380.71,215.65,381.27,216Zm5.4,3.11a2.27,2.27,0,0,1,1,1.77h0c0,.66-.45.93-1,.61h0a2.28,2.28,0,0,1-1-1.77h0C385.66,219,386.12,218.77,386.67,219.09Zm5.4,3.12a2.24,2.24,0,0,1,1,1.77h0c0,.66-.45.93-1,.6h0a2.24,2.24,0,0,1-1-1.77h0C391.06,222.15,391.51,221.89,392.07,222.21Zm5.4,3.12a2.24,2.24,0,0,1,1,1.77h0c0,.65-.45.92-1,.6h0a2.25,2.25,0,0,1-1-1.77h0C396.46,225.27,396.91,225,397.47,225.33Zm5.4,3.11a2.25,2.25,0,0,1,1,1.77h0c0,.66-.45.93-1,.61h0a2.26,2.26,0,0,1-1-1.78h0C401.85,228.39,402.31,228.12,402.87,228.44Zm5.39,3.12a2.25,2.25,0,0,1,1,1.77h0c0,.66-.46.93-1,.6h0a2.26,2.26,0,0,1-1-1.77h0C407.25,231.5,407.71,231.24,408.26,231.56Zm5.4,3.11a2.27,2.27,0,0,1,1,1.78h0c0,.65-.45.92-1,.6h0a2.25,2.25,0,0,1-1-1.77h0C412.65,234.62,413.1,234.35,413.66,234.67Z" transform="translate(-45.53 -13.54)"/></g><path class="cls-21" d="M375.88,212.86a2.24,2.24,0,0,1,1,1.77h0c0,.66-.45.93-1,.6h0a2.24,2.24,0,0,1-1-1.77h0C374.87,212.81,375.32,212.54,375.88,212.86Z" transform="translate(-45.53 -13.54)"/><g class="cls-6"><path class="cls-22" d="M417.26,71.83a1.61,1.61,0,0,1-.72-1.27h0c0-.47.32-.66.72-.43h0A1.62,1.62,0,0,1,418,71.4h0C418,71.87,417.66,72.06,417.26,71.83Zm4.47,2.58a1.62,1.62,0,0,1-.73-1.27h0c0-.47.33-.66.73-.43h0a1.62,1.62,0,0,1,.72,1.27h0C422.45,74.45,422.12,74.64,421.73,74.41ZM426,76.85a1.61,1.61,0,0,1-.72-1.27h0c0-.47.32-.66.72-.43h0a1.61,1.61,0,0,1,.73,1.27h0C426.68,76.89,426.35,77.08,426,76.85ZM413.4,69.6a1.62,1.62,0,0,1-.73-1.27h0c0-.47.33-.66.73-.43h0a1.64,1.64,0,0,1,.72,1.27h0C414.12,69.64,413.79,69.83,413.4,69.6Zm-3.87-2.23a1.61,1.61,0,0,1-.72-1.27h0c0-.47.32-.66.72-.43h0a1.61,1.61,0,0,1,.73,1.27h0C410.26,67.41,409.93,67.6,409.53,67.37Zm-3.86-2.23a1.64,1.64,0,0,1-.73-1.27h0c0-.47.33-.67.73-.43h0a1.59,1.59,0,0,1,.72,1.26h0C406.39,65.17,406.07,65.37,405.67,65.14ZM401.8,62.9a1.59,1.59,0,0,1-.72-1.26h0c0-.48.32-.67.72-.44h0a1.62,1.62,0,0,1,.73,1.27h0C402.53,62.94,402.2,63.13,401.8,62.9Zm-3.86-2.23a1.62,1.62,0,0,1-.73-1.27h0c0-.47.33-.66.73-.43h0a1.64,1.64,0,0,1,.72,1.27h0C398.66,60.71,398.33,60.9,397.94,60.67Zm-3.87-2.23a1.61,1.61,0,0,1-.72-1.27h0c0-.47.32-.66.72-.43h0A1.62,1.62,0,0,1,394.8,58h0C394.8,58.48,394.47,58.67,394.07,58.44Zm-3.86-2.23a1.62,1.62,0,0,1-.73-1.27h0c0-.47.33-.66.73-.43h0a1.61,1.61,0,0,1,.72,1.27h0C390.93,56.25,390.61,56.44,390.21,56.21ZM386.34,54a1.61,1.61,0,0,1-.72-1.27h0c0-.47.32-.66.72-.43h0a1.61,1.61,0,0,1,.73,1.27h0C387.07,54,386.74,54.21,386.34,54Zm-3.86-2.23a1.61,1.61,0,0,1-.73-1.27h0c0-.47.32-.67.73-.43h0a1.59,1.59,0,0,1,.72,1.26h0C383.2,51.78,382.88,52,382.48,51.75Zm-3.87-2.24a1.59,1.59,0,0,1-.72-1.26h0c0-.48.32-.67.72-.44h0a1.64,1.64,0,0,1,.73,1.27h0C379.34,49.55,379,49.75,378.61,49.51Zm-3.86-2.23A1.59,1.59,0,0,1,374,46h0c0-.47.32-.66.73-.43h0a1.64,1.64,0,0,1,.72,1.27h0C375.47,47.32,375.14,47.51,374.75,47.28Zm-3.87-2.23a1.61,1.61,0,0,1-.72-1.27h0c0-.47.32-.66.72-.43h0a1.61,1.61,0,0,1,.72,1.27h0C371.6,45.09,371.28,45.28,370.88,45.05ZM367,42.82a1.61,1.61,0,0,1-.72-1.27h0c0-.47.32-.66.72-.43h0a1.59,1.59,0,0,1,.73,1.27h0C367.74,42.86,367.42,43.05,367,42.82Z" transform="translate(-45.53 -13.54)"/></g><path class="cls-23" d="M394.07,58.44a1.61,1.61,0,0,1-.72-1.27h0c0-.47.32-.66.72-.43h0A1.62,1.62,0,0,1,394.8,58h0C394.8,58.48,394.47,58.67,394.07,58.44Z" transform="translate(-45.53 -13.54)"/><path class="cls-24" d="M421.62,138.24,373,110.17c-1.6-.92-2.89-.17-2.89,1.67V147.7a6.37,6.37,0,0,0,2.89,5l48.61,28.07c1.6.92,2.89.18,2.89-1.67V143.24A6.37,6.37,0,0,0,421.62,138.24Z" transform="translate(-45.53 -13.54)"/><path class="cls-25" d="M289.59,56.44,243.93,30.08c-1.29-.74-2.33-.14-2.33,1.35v34a5.14,5.14,0,0,0,2.33,4l45.66,26.36c1.28.74,2.33.14,2.33-1.34v-34A5.18,5.18,0,0,0,289.59,56.44Z" transform="translate(-45.53 -13.54)"/><polygon class="cls-26" points="219.59 34.26 199.26 22.52 199.26 20.5 219.59 32.24 219.59 34.26"/><polygon class="cls-27" points="232.52 41.73 221.76 35.51 221.76 33.49 232.52 39.71 232.52 41.73"/><polygon class="cls-28" points="213.49 34.12 203.7 28.47 203.7 26.45 213.49 32.1 213.49 34.12"/><polygon class="cls-29" points="220.04 37.9 215.56 35.31 215.56 33.29 220.04 35.88 220.04 37.9"/><polygon class="cls-30" points="231.74 44.66 221.96 39.01 221.96 36.98 231.74 42.63 231.74 44.66"/><polygon class="cls-31" points="240.12 49.49 233.81 45.85 233.81 43.83 240.12 47.47 240.12 49.49"/><polygon class="cls-32" points="220.04 41.28 203.7 31.84 203.7 29.82 220.04 39.26 220.04 41.28"/><polygon class="cls-33" points="225.51 44.43 221.96 42.38 221.96 40.36 225.51 42.41 225.51 44.43"/><polygon class="cls-34" points="241.3 53.55 237.75 51.5 237.75 49.48 241.3 51.53 241.3 53.55"/><polygon class="cls-35" points="238.74 65.59 235.19 63.54 235.19 61.52 238.74 63.57 238.74 65.59"/><polygon class="cls-36" points="234.43 73.23 230.88 71.18 230.88 69.16 234.43 71.21 234.43 73.23"/><polygon class="cls-37" points="236.18 50.59 227.14 45.38 227.14 43.35 236.18 48.57 236.18 50.59"/><polygon class="cls-38" points="220.04 44.66 203.7 35.22 203.7 33.2 220.04 42.64 220.04 44.66"/><polygon class="cls-39" points="215.6 45.47 199.26 36.03 199.26 34.01 215.6 43.45 215.6 45.47"/><polygon class="cls-40" points="221.24 48.73 217.34 46.47 217.34 44.45 221.24 46.71 221.24 48.73"/><polygon class="cls-41" points="234.43 56.34 222.64 49.53 222.64 47.51 234.43 54.32 234.43 56.34"/><polygon class="cls-42" points="228.89 70.03 217.09 63.22 217.09 61.2 228.89 68.01 228.89 70.03"/><polygon class="cls-43" points="211.87 46.7 203.7 41.98 203.7 39.96 211.87 44.68 211.87 46.7"/><polygon class="cls-44" points="221.89 52.48 213.72 47.76 213.72 45.74 221.89 50.46 221.89 52.48"/><polygon class="cls-45" points="225.97 61.59 217.8 56.88 217.8 54.85 225.97 59.57 225.97 61.59"/><polygon class="cls-46" points="220.04 54.79 203.7 45.36 203.7 43.34 220.04 52.77 220.04 54.79"/><polygon class="cls-47" points="233.62 62.63 221.66 55.72 221.66 53.7 233.62 60.61 233.62 62.63"/><polygon class="cls-48" points="216.05 55.86 203.7 48.73 203.7 46.72 216.05 53.84 216.05 55.86"/><polygon class="cls-49" points="220.04 61.55 203.7 52.11 203.7 50.09 220.04 59.53 220.04 61.55"/><polygon class="cls-50" points="215.6 62.36 199.26 52.92 199.26 50.9 215.6 60.34 215.6 62.36"/><polygon class="cls-51" points="349.1 117.12 328.76 105.38 328.76 103.36 349.1 115.1 349.1 117.12"/><polygon class="cls-52" points="362.02 124.58 351.26 118.37 351.26 116.35 362.02 122.56 362.02 124.58"/><polygon class="cls-53" points="342.99 116.97 333.21 111.32 333.21 109.3 342.99 114.95 342.99 116.97"/><polygon class="cls-54" points="349.55 120.75 345.06 118.17 345.06 116.14 349.55 118.73 349.55 120.75"/><polygon class="cls-55" points="361.25 127.51 351.46 121.86 351.46 119.84 361.25 125.49 361.25 127.51"/><polygon class="cls-56" points="369.63 132.35 363.32 128.7 363.32 126.68 369.63 130.33 369.63 132.35"/><polygon class="cls-57" points="349.55 124.13 333.21 114.7 333.21 112.68 349.55 122.11 349.55 124.13"/><polygon class="cls-58" points="355.01 127.29 351.46 125.24 351.46 123.22 355.01 125.27 355.01 127.29"/><polygon class="cls-59" points="370.81 136.41 367.25 134.35 367.25 132.34 370.81 134.38 370.81 136.41"/><polygon class="cls-60" points="368.25 148.44 364.69 146.39 364.69 144.37 368.25 146.42 368.25 148.44"/><polygon class="cls-61" points="363.94 156.09 360.39 154.04 360.39 152.02 363.94 154.07 363.94 156.09"/><polygon class="cls-62" points="365.68 133.45 356.64 128.23 356.64 126.21 365.68 131.43 365.68 133.45"/><polygon class="cls-63" points="349.55 127.51 333.21 118.08 333.21 116.06 349.55 125.49 349.55 127.51"/><polygon class="cls-64" points="345.1 128.32 328.76 118.89 328.76 116.87 345.1 126.3 345.1 128.32"/><polygon class="cls-65" points="350.75 131.58 346.84 129.33 346.84 127.31 350.75 129.56 350.75 131.58"/><polygon class="cls-66" points="363.94 139.2 352.14 132.39 352.14 130.37 363.94 137.18 363.94 139.2"/><polygon class="cls-67" points="358.39 152.88 346.6 146.07 346.6 144.06 358.39 150.87 358.39 152.88"/><polygon class="cls-68" points="341.38 129.55 333.21 124.83 333.21 122.81 341.38 127.53 341.38 129.55"/><polygon class="cls-69" points="351.39 135.33 343.22 130.61 343.22 128.59 351.39 133.31 351.39 135.33"/><polygon class="cls-70" points="355.48 144.45 347.31 139.73 347.31 137.71 355.48 142.43 355.48 144.45"/><polygon class="cls-71" points="349.55 137.65 333.21 128.21 333.21 126.19 349.55 135.63 349.55 137.65"/><polygon class="cls-72" points="363.13 145.49 351.16 138.58 351.16 136.56 363.13 143.46 363.13 145.49"/><polygon class="cls-73" points="345.56 138.72 333.21 131.59 333.21 129.57 345.56 136.7 345.56 138.72"/><polygon class="cls-74" points="349.55 144.4 333.21 134.97 333.21 132.95 349.55 142.38 349.55 144.4"/><polygon class="cls-75" points="345.1 145.21 328.76 135.78 328.76 133.76 345.1 143.19 345.1 145.21"/></g><g class="cls-76"><path class="cls-77" d="M45.53,111.3l44.2,25.56v6.87l2.89,1.71v1.63L45.53,119.84Z" transform="translate(-45.53 -13.54)"/></g></g></g></svg>